OFF
999 1912 0
0 0 251 
0 7 253 
0 9 239 
0 10 251 
0 20 253 
0 21 204 
0 22 197 
0 23 234 
0 24 250 
0 27 251 
0 28 154 
0 30 84 
0 32 105 
0 36 100 
0 119 98 
1 11 243 
1 15 253 
1 17 241 
1 20 139 
1 21 127 
1 22 142 
1 23 200 
1 24 246 
1 26 234 
1 30 96 
1 32 112 
1 34 94 
2 11 250 
2 12 253 
2 17 142 
2 18 121 
2 20 103 
2 23 137 
2 25 243 
2 26 253 
2 29 250 
2 31 100 
2 32 87 
2 33 106 
2 56 100 
3 6 253 
3 8 252 
3 11 176 
3 12 166 
3 14 136 
3 16 119 
3 18 114 
3 20 119 
3 23 114 
3 24 134 
3 26 237 
3 30 252 
3 31 181 
3 32 92 
3 33 90 
3 34 117 
3 35 99 
3 38 109 
3 40 86 
3 42 111 
4 4 245 
4 6 184 
4 8 149 
4 11 137 
4 12 122 
4 14 125 
4 16 137 
4 18 148 
4 19 156 
4 24 127 
4 25 128 
4 26 167 
4 27 220 
4 28 253 
4 32 205 
4 33 108 
4 34 74 
4 35 108 
4 38 95 
5 0 244 
5 3 159 
5 4 152 
5 6 136 
5 8 134 
5 11 123 
5 12 129 
5 14 142 
5 16 176 
5 19 251 
5 20 250 
5 21 185 
5 22 140 
5 24 143 
5 25 123 
5 26 126 
5 27 153 
5 29 240 
5 32 253 
5 33 213 
5 34 127 
5 35 80 
5 37 119 
5 39 91 
5 40 117 
5 42 85 
5 43 108 
6 0 153 
6 4 129 
6 11 154 
6 12 146 
6 13 174 
6 15 246 
6 21 238 
6 23 139 
6 24 129 
6 25 146 
6 26 144 
6 27 123 
6 28 141 
6 30 248 
6 32 242 
6 33 253 
6 34 228 
6 35 128 
6 36 81 
6 37 108 
6 38 112 
6 40 95 
6 44 101 
7 3 120 
7 4 144 
7 7 127 
7 8 137 
7 12 249 
7 21 253 
7 22 234 
7 23 183 
7 24 149 
7 29 143 
7 30 184 
7 31 236 
7 32 253 
7 35 249 
7 36 151 
7 37 77 
7 38 82 
7 39 115 
7 42 117 
8 0 117 
8 3 147 
8 4 137 
8 9 247 
8 24 209 
8 26 143 
8 28 131 
8 29 150 
8 30 144 
8 31 165 
8 32 223 
8 35 253 
8 36 239 
8 37 133 
8 38 86 
8 39 108 
8 116 95 
8 119 95 
9 0 162 
9 4 250 
9 27 143 
9 32 164 
9 33 231 
9 34 252 
9 35 223 
9 36 253 
9 37 249 
9 38 154 
9 39 77 
9 41 109 
9 42 93 
9 115 87 
9 116 132 
9 117 127 
9 119 107 
10 0 244 
10 15 252 
10 25 246 
10 29 135 
10 32 134 
10 33 163 
10 34 218 
10 35 250 
10 36 223 
10 39 175 
10 40 102 
10 41 85 
10 42 100 
10 43 111 
10 47 95 
10 49 109 
10 51 95 
10 111 102 
10 112 84 
10 113 118 
10 114 194 
10 115 237 
10 117 250 
10 118 218 
10 119 92 
11 27 230 
11 28 163 
11 29 164 
11 30 139 
11 31 135 
11 32 150 
11 33 138 
11 34 156 
11 35 225 
11 36 249 
11 39 253 
11 40 209 
11 41 114 
11 42 74 
11 44 115 
11 47 112 
11 110 92 
11 112 97 
11 113 156 
11 114 239 
11 115 242 
12 27 250 
12 28 232 
12 29 167 
12 30 150 
12 31 155 
12 32 131 
12 36 232 
12 40 253 
12 41 226 
12 43 89 
12 44 93 
12 47 97 
12 69 99 
12 107 100 
12 109 107 
12 114 253 
12 116 222 
12 117 241 
12 118 237 
12 119 186 
13 29 232 
13 30 183 
13 31 148 
13 36 148 
13 37 217 
13 38 253 
13 40 238 
13 41 253 
13 42 241 
13 43 184 
13 44 94 
13 50 92 
13 51 110 
13 108 88 
13 111 108 
13 112 81 
13 113 134 
13 115 226 
13 116 248 
14 0 252 
14 29 252 
14 30 235 
14 36 128 
14 37 155 
14 39 239 
14 40 252 
14 43 253 
14 44 217 
14 45 114 
14 46 83 
14 47 105 
14 50 116 
14 51 87 
14 52 101 
14 110 91 
14 111 111 
14 112 91 
14 113 139 
14 114 252 
14 116 245 
14 119 192 
15 29 233 
15 30 250 
15 31 248 
15 32 192 
15 33 161 
15 36 143 
15 37 128 
15 38 138 
15 40 233 
15 41 251 
15 45 240 
15 46 139 
15 47 75 
15 48 111 
15 49 111 
15 50 84 
15 108 109 
15 113 126 
15 117 222 
15 118 252 
15 119 217 
16 28 241 
16 29 252 
16 31 234 
16 32 252 
16 36 130 
16 40 159 
16 46 254 
16 47 204 
16 48 90 
16 49 77 
16 50 121 
16 112 91 
16 113 136 
16 114 220 
17 35 165 
17 48 230 
17 50 81 
17 112 127 
17 113 189 
17 114 237 
17 117 237 
17 119 209 
18 35 243 
18 36 178 
18 39 129 
18 41 139 
18 44 240 
18 48 254 
18 51 112 
18 109 107 
18 112 197 
18 113 182 
18 114 229 
18 115 223 
18 116 236 
18 117 219 
18 119 236 
19 37 178 
19 38 148 
19 39 157 
19 43 157 
19 44 217 
19 45 252 
19 49 212 
19 50 93 
19 51 93 
19 106 107 
19 109 80 
19 110 88 
19 111 139 
19 112 210 
19 113 193 
19 115 237 
19 117 243 
19 119 208 
20 37 252 
20 38 208 
20 39 153 
20 43 135 
20 50 93 
20 105 88 
20 106 101 
20 107 90 
20 109 130 
20 110 170 
20 112 241 
20 116 209 
21 37 237 
21 38 244 
21 39 227 
21 45 143 
21 48 249 
21 49 253 
21 51 102 
21 105 111 
21 106 185 
21 107 200 
21 108 219 
21 110 234 
21 112 216 
21 119 246 
22 37 252 
22 42 145 
22 43 137 
22 49 247 
22 50 128 
22 51 87 
22 52 104 
22 106 232 
22 107 253 
22 111 214 
22 113 240 
22 115 215 
22 118 233 
22 119 203 
23 38 252 
23 41 252 
23 42 235 
23 43 172 
23 44 138 
23 48 145 
23 99 102 
23 106 218 
23 111 249 
23 113 220 
23 119 89 
24 38 233 
24 40 252 
24 42 237 
24 43 252 
24 44 173 
24 46 119 
24 47 141 
24 49 90 
24 50 85 
24 106 236 
24 108 248 
24 111 202 
24 113 138 
24 114 209 
24 115 235 
24 116 228 
24 117 248 
24 119 184 
25 17 252 
25 36 244 
25 46 99 
25 47 94 
25 105 99 
25 106 217 
25 107 207 
25 111 93 
25 113 112 
25 119 225 
26 45 237 
26 49 103 
26 107 111 
26 109 99 
26 111 113 
26 112 195 
26 113 197 
26 118 233 
26 119 172 
27 111 94 
27 112 137 
27 113 132 
27 114 201 
27 118 224 
27 119 148 
28 45 241 
28 46 100 
28 113 88 
28 114 202 
28 115 245 
28 118 235 
29 109 108 
30 112 110 
30 113 93 
30 114 218 
30 119 222 
31 113 85 
31 117 242 
32 114 193 
32 115 245 
32 119 213 
33 26 243 
33 46 102 
33 109 93 
33 110 117 
33 113 99 
33 118 209 
33 119 231 
34 45 245 
34 82 101 
34 108 101 
34 112 95 
34 114 168 
34 115 251 
34 116 234 
34 117 238 
35 113 106 
35 116 210 
36 45 237 
36 114 154 
36 115 233 
36 117 233 
37 113 92 
37 115 246 
37 119 223 
38 46 93 
38 113 100 
38 114 148 
38 115 221 
38 116 226 
38 117 211 
38 119 210 
39 44 250 
39 45 220 
39 47 110 
39 112 108 
39 115 129 
39 116 94 
39 118 131 
39 119 130 
40 46 89 
40 108 111 
40 114 66 
40 115 66 
40 116 97 
40 118 129 
41 45 214 
41 111 73 
41 116 81 
41 118 101 
41 119 118 
42 45 192 
42 108 71 
42 111 85 
42 113 79 
42 115 91 
42 116 104 
42 118 113 
42 119 129 
43 100 109 
43 108 78 
43 109 94 
43 113 165 
43 115 185 
43 117 180 
43 119 189 
44 94 106 
44 100 89 
44 108 195 
44 109 198 
44 113 183 
44 115 173 
45 21 252 
45 27 245 
45 88 109 
45 95 90 
45 100 185 
45 109 165 
45 115 180 
46 46 91 
46 84 108 
46 88 93 
46 89 93 
46 92 99 
46 96 186 
46 119 164 
47 19 229 
47 44 248 
47 45 184 
47 67 107 
47 88 105 
47 90 135 
47 91 147 
47 92 188 
47 115 152 
48 12 252 
48 18 159 
48 20 122 
48 21 131 
48 45 187 
48 46 93 
48 84 89 
48 88 158 
48 90 193 
48 91 205 
48 117 166 
49 6 253 
49 12 169 
49 14 153 
49 18 123 
49 20 110 
49 25 242 
49 83 104 
49 84 152 
49 87 196 
49 88 193 
49 91 165 
50 0 249 
50 3 248 
50 4 202 
50 6 181 
50 8 155 
50 18 112 
50 24 142 
50 25 172 
50 30 238 
50 32 252 
50 46 91 
50 47 113 
50 48 107 
50 76 110 
50 79 95 
50 82 167 
50 83 188 
50 84 197 
50 88 163 
51 0 220 
51 3 155 
51 6 143 
51 9 132 
51 11 123 
51 15 118 
51 18 148 
51 19 180 
51 24 125 
51 25 133 
51 29 249 
51 32 222 
51 70 110 
51 76 84 
51 79 161 
51 82 190 
51 83 192 
51 84 170 
52 0 142 
52 12 136 
52 19 249 
52 20 224 
52 21 161 
52 22 136 
52 24 127 
52 29 236 
52 30 244 
52 31 218 
52 32 209 
52 45 201 
52 46 93 
52 70 96 
52 75 89 
52 79 198 
52 82 167 
52 88 171 
53 3 125 
53 6 129 
53 9 144 
53 11 159 
53 12 213 
53 14 248 
53 16 253 
53 20 253 
53 22 163 
53 27 137 
53 31 244 
53 44 252 
53 70 112 
53 72 83 
53 73 102 
53 75 189 
54 0 123 
54 3 137 
54 5 167 
54 9 246 
54 12 253 
54 14 253 
54 22 232 
54 24 170 
54 31 232 
54 33 239 
54 36 240 
54 45 226 
54 70 89 
54 73 187 
54 75 186 
54 79 162 
55 0 152 
55 3 213 
55 4 250 
55 13 232 
55 18 250 
55 19 235 
55 20 251 
55 22 252 
55 23 241 
55 28 138 
55 29 138 
55 30 158 
55 34 241 
55 36 210 
55 37 219 
55 40 252 
55 68 90 
55 75 164 
55 80 171 
56 0 245 
56 19 220 
56 28 176 
56 30 142 
56 32 143 
56 36 213 
56 37 219 
56 45 250 
56 68 181 
56 89 154 
57 20 252 
57 21 235 
57 22 246 
57 27 252 
57 28 231 
57 29 172 
57 30 154 
57 33 152 
57 34 200 
57 36 250 
57 37 246 
57 46 112 
57 67 199 
57 88 139 
58 27 238 
58 28 250 
58 29 233 
58 32 154 
58 33 139 
58 34 146 
58 36 177 
58 37 217 
58 38 237 
58 40 229 
58 44 239 
58 45 253 
58 46 136 
58 47 86 
58 48 123 
58 49 97 
58 59 112 
58 61 96 
58 64 183 
58 65 197 
58 67 164 
58 104 130 
59 28 249 
59 29 243 
59 31 248 
59 32 214 
59 36 164 
59 38 180 
59 40 243 
59 44 252 
59 47 97 
59 48 88 
59 49 129 
59 51 96 
59 53 116 
59 56 99 
59 57 112 
59 59 83 
59 62 172 
59 65 173 
60 29 232 
60 34 158 
60 36 134 
60 47 194 
60 48 117 
60 49 77 
60 51 125 
60 55 116 
60 57 86 
60 60 168 
60 62 186 
60 67 180 
60 91 145 
61 33 247 
61 36 150 
61 39 139 
61 40 146 
61 44 220 
61 45 252 
61 46 231 
61 47 253 
61 48 238 
61 49 142 
61 50 93 
61 55 93 
61 60 191 
61 63 165 
62 30 252 
62 35 246 
62 38 139 
62 42 173 
62 43 217 
62 44 235 
62 47 237 
62 48 254 
62 49 253 
62 55 112 
62 58 195 
62 60 168 
62 91 126 
62 104 136 
63 41 142 
63 44 206 
63 45 209 
63 46 244 
63 48 231 
63 50 144 
63 51 100 
63 53 107 
63 55 179 
63 56 194 
63 63 170 
64 30 234 
64 32 252 
64 40 179 
64 43 135 
64 46 183 
64 47 249 
64 48 253 
64 49 242 
64 51 75 
64 60 181 
65 0 248 
65 32 240 
65 40 253 
65 42 169 
65 46 144 
65 47 153 
65 48 214 
65 49 248 
65 50 106 
65 52 197 
65 60 153 
66 0 229 
66 43 168 
66 47 125 
66 48 135 
66 49 182 
66 68 138 
67 1 243 
67 42 246 
67 43 227 
67 45 144 
67 47 134 
68 1 223 
68 46 158 
69 0 252 
69 41 236 
69 44 252 
69 48 186 
70 13 250 
70 45 244 
70 50 158 
70 119 115 
72 0 229 
72 1 252 
72 45 242 
72 47 158 
73 0 167 
73 1 180 
73 25 247 
73 42 246 
74 0 222 
74 44 232 
75 0 246 
75 45 248 
75 46 186 
75 47 155 
75 48 159 
76 49 139 
77 45 241 
78 46 172 
78 47 138 
78 50 145 
80 47 127 
81 46 161 
81 48 137 
82 46 143 
82 47 125 
82 49 116 
84 104 97 
85 45 237 
85 46 133 
85 47 118 
89 13 250 
89 19 251 
89 23 249 
89 46 135 
90 14 206 
90 18 233 
90 19 223 
90 23 224 
90 46 121 
90 47 115 
90 48 127 
90 49 110 
91 12 220 
91 22 247 
91 45 246 
92 0 252 
92 11 250 
92 12 247 
92 19 250 
92 20 221 
92 46 132 
92 47 116 
93 6 238 
93 8 218 
93 9 221 
93 11 235 
93 16 252 
93 17 236 
93 20 186 
93 23 252 
93 26 238 
93 27 252 
94 0 229 
94 4 217 
94 8 247 
94 10 251 
94 12 238 
94 17 155 
94 20 110 
94 21 137 
94 26 252 
94 27 238 
95 0 251 
95 1 247 
95 3 236 
95 4 251 
95 6 251 
95 8 216 
95 12 162 
95 18 104 
95 19 89 
95 20 93 
95 21 125 
95 23 140 
95 25 227 
95 26 249 
95 27 252 
96 0 249 
96 1 248 
96 3 227 
96 8 146 
96 11 137 
96 14 113 
96 20 138 
96 21 172 
96 23 135 
96 25 167 
96 52 96 
97 1 182 
97 13 130 
97 17 138 
97 19 155 
97 20 166 
97 21 249 
97 22 242 
97 23 172 
97 24 151 
97 25 152 
97 28 249 
97 45 243 
97 46 151 
97 47 105 
98 0 107 
98 12 133 
98 13 155 
98 15 158 
98 17 231 
98 19 249 
98 21 239 
98 23 249 
98 24 234 
98 27 148 
98 28 169 
98 35 241 
98 46 169 
99 0 108 
99 11 135 
99 12 205 
99 14 248 
99 25 238 
99 27 146 
99 28 163 
99 29 159 
99 30 186 
99 31 233 
99 32 251 
99 34 238 
99 35 252 
99 44 249 
99 45 238 
99 47 99 
99 84 87 
99 119 100 
3 369 368 393 
3 336 368 369 
3 393 380 407 
3 368 380 393 
3 497 485 510 
3 486 485 497 
3 491 486 497 
3 485 516 510 
3 516 522 510 
3 501 497 510 
3 420 445 421 
3 437 421 445 
3 422 421 437 
3 410 421 422 
3 381 410 422 
3 967 996 953 
3 996 997 953 
3 865 867 858 
3 867 868 858 
3 859 858 868 
3 868 869 859 
3 857 861 852 
3 861 866 852 
3 866 886 852 
3 901 908 866 
3 886 866 908 
3 886 887 852 
3 862 852 887 
3 852 846 857 
3 841 846 852 
3 666 841 852 
3 835 841 824 
3 681 824 841 
3 666 681 841 
3 823 812 834 
3 799 812 823 
3 800 799 823 
3 759 799 787 
3 799 800 787 
3 770 799 759 
3 771 759 787 
3 758 770 759 
3 644 645 625 
3 626 625 645 
3 606 625 626 
3 607 606 626 
3 555 606 587 
3 606 607 587 
3 746 789 775 
3 789 815 775 
3 762 789 746 
3 747 746 775 
3 745 762 746 
3 898 909 902 
3 909 910 902 
3 908 909 886 
3 898 886 909 
3 570 596 582 
3 596 614 582 
3 614 615 582 
3 581 596 570 
3 296 315 297 
3 315 335 297 
3 335 334 349 
3 315 334 335 
3 348 349 334 
3 325 334 315 
3 864 866 861 
3 313 333 314 
3 325 314 333 
3 294 314 325 
3 293 314 294 
3 295 294 315 
3 271 294 295 
3 315 294 325 
3 252 294 271 
3 234 294 215 
3 252 215 294 
3 688 700 689 
3 700 713 689 
3 689 713 701 
3 713 714 701 
3 402 401 415 
3 390 401 402 
3 414 415 401 
3 756 755 768 
3 737 755 756 
3 604 737 756 
3 247 248 206 
3 207 206 248 
3 105 147 128 
3 147 178 128 
3 104 147 105 
3 178 196 128 
3 196 197 128 
3 260 240 279 
3 198 240 260 
3 223 240 198 
3 199 198 260 
3 279 303 260 
3 303 304 260 
3 280 260 304 
3 197 223 198 
3 946 982 947 
3 969 947 982 
3 982 983 969 
3 955 947 969 
3 398 564 484 
3 564 605 484 
3 241 398 484 
3 412 241 484 
3 425 446 398 
3 446 564 398 
3 461 477 446 
3 477 509 446 
3 564 509 604 
3 446 509 564 
3 500 509 477 
3 424 446 425 
3 483 493 477 
3 493 500 477 
3 733 781 765 
3 781 782 765 
3 751 780 733 
3 780 781 733 
3 752 733 765 
3 734 733 752 
3 642 660 623 
3 660 661 623 
3 643 623 661 
3 605 623 643 
3 564 623 605 
3 57 58 13 
3 58 59 13 
3 39 13 59 
3 105 128 59 
3 39 59 128 
3 850 863 858 
3 863 865 858 
3 849 863 850 
3 853 850 858 
3 269 311 290 
3 311 312 290 
3 185 311 229 
3 269 229 311 
3 411 381 422 
3 422 423 411 
3 791 790 826 
3 776 790 791 
3 825 826 790 
3 327 326 338 
3 320 326 327 
3 338 354 327 
3 354 355 327 
3 214 234 215 
3 251 293 234 
3 293 294 234 
3 869 874 871 
3 874 875 871 
3 874 876 875 
3 876 878 875 
3 760 772 740 
3 772 788 740 
3 761 740 788 
3 739 760 740 
3 931 945 932 
3 945 946 932 
3 981 982 945 
3 946 945 982 
3 933 932 946 
3 954 981 945 
3 298 297 316 
3 273 297 298 
3 316 297 335 
3 295 315 296 
3 79 80 0 
3 60 0 80 
3 869 870 859 
3 854 859 870 
3 870 871 854 
3 246 247 205 
3 206 205 247 
3 428 427 442 
3 414 427 428 
3 427 448 442 
3 448 449 442 
3 441 448 427 
3 389 427 414 
3 388 427 389 
3 411 424 395 
3 424 425 395 
3 396 395 425 
3 778 792 750 
3 751 750 792 
3 779 751 792 
3 792 793 779 
3 793 794 779 
3 385 439 413 
3 426 413 439 
3 412 439 385 
3 399 385 413 
3 357 242 371 
3 306 242 357 
3 242 412 371 
3 385 371 412 
3 241 412 242 
3 535 534 543 
3 527 534 535 
3 516 534 527 
3 543 542 551 
3 534 542 543 
3 551 552 543 
3 552 551 743 
3 569 552 743 
3 902 903 898 
3 890 886 898 
3 944 954 945 
3 13 39 14 
3 39 241 14 
3 14 241 242 
3 197 196 222 
3 223 222 240 
3 197 222 223 
3 239 240 222 
3 763 747 775 
3 726 747 763 
3 725 747 726 
3 727 726 763 
3 23 22 33 
3 8 22 23 
3 9 8 23 
3 545 552 569 
3 569 743 580 
3 743 855 580 
3 802 855 743 
3 553 545 569 
3 547 570 561 
3 570 571 561 
3 435 570 547 
3 582 583 570 
3 571 570 583 
3 840 997 801 
3 882 801 997 
3 802 801 882 
3 697 840 801 
3 721 697 801 
3 774 721 801 
3 953 997 840 
3 997 998 882 
3 703 691 716 
3 692 691 703 
3 716 717 703 
3 770 812 799 
3 786 798 770 
3 798 812 770 
3 769 786 770 
3 757 769 770 
3 148 166 149 
3 166 183 149 
3 149 183 167 
3 183 268 167 
3 790 775 815 
3 815 825 790 
3 826 825 849 
3 816 791 826 
3 777 791 816 
3 803 777 816 
3 778 777 803 
3 627 645 628 
3 645 721 628 
3 645 697 721 
3 646 628 721 
3 696 840 697 
3 774 801 802 
3 743 774 802 
3 855 802 882 
3 898 903 890 
3 912 903 922 
3 890 903 912 
3 891 890 912 
3 922 948 912 
3 934 948 922 
3 923 912 948 
3 417 392 436 
3 406 392 417 
3 333 436 392 
3 311 436 312 
3 313 312 436 
3 333 313 436 
3 378 333 392 
3 366 333 378 
3 670 711 688 
3 700 688 711 
3 687 711 670 
3 656 670 688 
3 656 635 670 
3 620 635 656 
3 738 759 739 
3 759 771 739 
3 739 771 760 
3 771 772 760 
3 564 738 739 
3 213 234 214 
3 235 215 252 
3 216 215 235 
3 152 185 153 
3 168 153 185 
3 137 152 153 
3 115 137 153 
3 114 137 115 
3 116 115 153 
3 526 562 554 
3 562 563 554 
3 842 850 843 
3 844 843 850 
3 847 844 850 
3 836 843 844 
3 828 836 844 
3 695 564 739 
3 739 740 695 
3 740 741 695 
3 720 695 741 
3 706 695 720 
3 623 564 695 
3 642 623 695 
3 659 642 695 
3 651 652 630 
3 616 630 652 
3 582 630 583 
3 616 583 630 
3 615 630 582 
3 979 927 991 
3 917 927 979 
3 990 991 964 
3 927 964 991 
3 991 992 979 
3 992 993 979 
3 883 917 900 
3 917 979 900 
3 900 979 965 
3 979 994 965 
3 678 696 697 
3 706 773 696 
3 773 840 696 
3 875 881 840 
3 881 953 840 
3 907 953 897 
3 881 897 953 
3 885 897 881 
3 878 881 875 
3 834 875 840 
3 813 834 840 
3 773 813 840 
3 823 834 813 
3 953 907 967 
3 541 550 534 
3 542 534 550 
3 550 559 542 
3 551 542 559 
3 56 57 13 
3 749 748 764 
3 729 748 749 
3 728 748 729 
3 764 776 749 
3 776 791 749 
3 777 749 791 
3 264 265 225 
3 226 225 265 
3 244 226 265 
3 665 664 681 
3 647 664 665 
3 613 612 648 
3 594 612 613 
3 648 647 665 
3 612 647 648 
3 593 612 594 
3 611 629 612 
3 629 647 612 
3 35 51 24 
3 36 24 51 
3 51 52 36 
3 621 620 656 
3 599 620 621 
3 636 621 656 
3 600 586 621 
3 548 586 600 
3 586 599 621 
3 656 688 636 
3 688 689 636 
3 727 763 748 
3 763 764 748 
3 250 270 251 
3 270 292 251 
3 292 293 251 
3 614 613 649 
3 596 613 614 
3 648 649 613 
3 195 221 196 
3 221 238 196 
3 196 238 222 
3 238 239 222 
3 947 955 934 
3 948 934 955 
3 925 939 915 
3 939 940 915 
3 676 675 706 
3 660 675 676 
3 742 773 706 
3 696 676 706 
3 695 706 675 
3 952 963 941 
3 963 977 941 
3 964 941 977 
3 942 941 964 
3 940 952 941 
3 15 28 16 
3 28 44 16 
3 43 44 28 
3 3 15 16 
3 397 425 398 
3 396 425 397 
3 165 164 181 
3 14 164 165 
3 181 182 165 
3 164 14 200 
3 164 201 179 
3 201 202 179 
3 200 201 164 
3 586 573 598 
3 547 573 586 
3 548 547 586 
3 476 547 548 
3 624 605 643 
3 786 810 798 
3 810 811 798 
3 768 810 756 
3 786 756 810 
3 769 756 786 
3 432 433 403 
3 404 403 433 
3 377 403 404 
3 364 377 404 
3 391 364 404 
3 560 553 580 
3 539 553 560 
3 569 580 553 
3 17 30 4 
3 18 4 30 
3 30 31 18 
3 3 16 4 
3 16 17 4 
3 481 490 482 
3 490 496 482 
3 499 496 505 
3 482 496 499 
3 485 534 516 
3 479 485 486 
3 888 887 899 
3 862 887 888 
3 892 899 887 
3 863 862 883 
3 825 862 863 
3 849 825 863 
3 862 888 883 
3 888 917 883 
3 872 863 883 
3 814 862 825 
3 710 862 814 
3 852 862 708 
3 709 708 862 
3 710 709 862 
3 744 710 814 
3 762 744 814 
3 789 762 814 
3 722 710 744 
3 779 780 751 
3 732 751 733 
3 828 817 836 
3 804 817 828 
3 827 836 817 
3 818 804 828 
3 805 804 818 
3 828 844 837 
3 844 845 837 
3 382 381 411 
3 353 381 382 
3 338 353 382 
3 354 338 382 
3 382 383 354 
3 317 353 338 
3 466 467 454 
3 462 454 467 
3 455 454 462 
3 467 468 462 
3 448 466 454 
3 559 743 551 
3 743 707 774 
3 591 707 743 
3 646 707 591 
3 559 591 743 
3 896 907 897 
3 895 907 896 
3 763 790 776 
3 775 790 763 
3 764 763 776 
3 850 853 847 
3 560 580 855 
3 826 842 827 
3 836 827 842 
3 842 843 836 
3 365 364 391 
3 504 512 505 
3 512 513 505 
3 519 520 512 
3 513 512 520 
3 344 363 345 
3 363 377 345 
3 345 377 364 
3 428 429 414 
3 415 414 429 
3 677 676 696 
3 661 676 677 
3 662 661 677 
3 950 960 951 
3 960 961 951 
3 938 950 951 
3 939 938 951 
3 82 83 61 
3 62 61 83 
3 40 61 62 
3 41 40 62 
3 185 184 311 
3 134 184 185 
3 311 184 435 
3 208 185 229 
3 854 875 834 
3 871 875 854 
3 811 833 812 
3 833 834 812 
3 833 854 834 
3 811 810 833 
3 855 882 998 
3 705 719 674 
3 641 674 719 
3 719 736 641 
3 736 737 641 
3 604 641 737 
3 603 641 604 
3 602 641 603 
3 306 340 283 
3 322 283 340 
3 328 322 340 
3 340 359 328 
3 359 360 328 
3 341 328 360 
3 340 306 357 
3 617 653 631 
3 653 683 631 
3 668 683 653 
3 616 653 617 
3 683 684 631 
3 654 631 684 
3 584 616 597 
3 616 617 597 
3 583 616 584 
3 571 583 584 
3 600 601 548 
3 81 107 82 
3 107 130 82 
3 131 130 150 
3 82 130 131 
3 83 82 131 
3 35 73 51 
3 73 96 51 
3 34 73 35 
3 9 34 35 
3 50 72 34 
3 72 73 34 
3 540 539 560 
3 856 857 848 
3 846 848 857 
3 956 948 971 
3 923 948 956 
3 935 923 956 
3 971 972 956 
3 683 682 699 
3 668 682 683 
3 682 666 852 
3 708 682 852 
3 699 682 708 
3 915 940 926 
3 940 941 926 
3 916 915 926 
3 488 489 474 
3 472 474 489 
3 489 490 472 
3 481 472 490 
3 469 474 472 
3 151 268 184 
3 268 435 184 
3 151 167 268 
3 147 127 177 
3 104 127 147 
3 146 163 127 
3 163 177 127 
3 177 178 147 
3 259 277 239 
3 277 278 239 
3 240 239 278 
3 640 562 658 
3 574 562 640 
3 602 574 640 
3 640 641 602 
3 601 673 562 
3 673 694 562 
3 658 562 694 
3 689 690 636 
3 671 636 690 
3 657 636 671 
3 637 636 657 
3 883 889 884 
3 885 884 889 
3 889 896 885 
3 896 897 885 
3 877 883 879 
3 883 884 879 
3 877 872 883 
3 889 883 900 
3 568 591 559 
3 558 568 550 
3 559 550 568 
3 541 558 550 
3 549 558 541 
3 463 469 464 
3 469 472 464 
3 465 464 472 
3 458 464 465 
3 452 464 458 
3 470 465 472 
3 459 465 470 
3 431 457 432 
3 457 464 432 
3 452 432 464 
3 443 451 430 
3 451 457 430 
3 431 430 457 
3 585 634 573 
3 598 573 634 
3 972 984 973 
3 984 985 973 
3 974 973 985 
3 957 973 958 
3 973 974 958 
3 975 974 985 
3 741 742 720 
3 604 738 564 
3 218 254 236 
3 254 255 236 
3 254 273 255 
3 273 274 255 
3 217 254 218 
3 376 375 390 
3 360 375 376 
3 389 401 390 
3 375 389 390 
3 359 375 360 
3 381 369 394 
3 352 369 381 
3 394 410 381 
3 351 369 352 
3 353 352 381 
3 116 153 117 
3 153 154 117 
3 154 153 168 
3 622 600 638 
3 601 600 622 
3 637 638 600 
3 638 639 622 
3 684 685 654 
3 126 146 102 
3 127 102 146 
3 893 915 916 
3 888 893 916 
3 916 917 888 
3 899 915 893 
3 285 322 307 
3 322 323 307 
3 283 322 284 
3 285 284 322 
3 750 749 777 
3 847 853 851 
3 853 859 851 
3 976 975 985 
3 468 469 462 
3 463 462 469 
3 895 896 889 
3 963 985 977 
3 985 986 977 
3 649 650 614 
3 615 614 650 
3 588 609 589 
3 609 628 589 
3 610 628 646 
3 610 589 628 
3 497 502 494 
3 498 494 502 
3 502 503 498 
3 845 847 851 
3 806 819 795 
3 807 795 819 
3 819 820 807 
3 919 901 930 
3 908 901 919 
3 918 929 901 
3 929 930 901 
3 930 931 919 
3 435 581 570 
3 581 268 592 
3 435 268 581 
3 592 593 581 
3 577 590 578 
3 590 610 578 
3 578 610 591 
3 610 646 591 
3 644 624 662 
3 625 624 644 
3 605 624 625 
3 606 605 625 
3 678 677 696 
3 662 677 678 
3 644 662 678 
3 643 662 624 
3 436 311 476 
3 235 253 217 
3 253 254 217 
3 174 217 218 
3 191 217 174 
3 192 174 218 
3 175 174 192 
3 173 191 174 
3 393 394 369 
3 351 336 369 
3 427 426 441 
3 413 426 427 
3 400 413 427 
3 399 413 400 
3 388 400 427 
3 956 957 935 
3 936 935 957 
3 816 826 827 
3 803 816 827 
3 817 803 827 
3 659 675 660 
3 968 981 954 
3 561 572 547 
3 572 573 547 
3 424 423 438 
3 411 423 424 
3 438 446 424 
3 842 826 849 
3 761 788 773 
3 788 813 773 
3 772 800 788 
3 800 813 788 
3 771 787 772 
3 787 800 772 
3 245 267 246 
3 267 288 246 
3 288 308 246 
3 308 309 246 
3 289 246 309 
3 247 246 289 
3 350 368 336 
3 335 350 336 
3 846 835 848 
3 841 835 846 
3 680 824 681 
3 698 824 680 
3 757 756 769 
3 604 756 757 
3 738 604 757 
3 757 758 738 
3 554 604 509 
3 575 604 554 
3 515 526 554 
3 509 515 554 
3 521 526 515 
3 406 418 380 
3 407 380 418 
3 152 134 185 
3 135 134 152 
3 136 135 152 
3 87 111 88 
3 111 184 88 
3 67 87 88 
3 88 184 134 
3 66 87 67 
3 133 184 110 
3 111 110 184 
3 572 571 585 
3 561 571 572 
3 584 585 571 
3 83 132 108 
3 132 151 108 
3 84 83 108 
3 62 83 84 
3 131 132 83 
3 288 324 308 
3 324 331 308 
3 309 308 331 
3 331 332 309 
3 288 287 324 
3 266 287 288 
3 330 344 324 
3 344 345 324 
3 331 324 345 
3 58 57 78 
3 78 102 58 
3 102 103 58 
3 407 408 393 
3 480 487 473 
3 487 488 473 
3 474 473 488 
3 505 506 499 
3 505 513 506 
3 513 514 506 
3 489 492 490 
3 492 496 490 
3 128 198 39 
3 197 198 128 
3 198 199 39 
3 79 106 80 
3 106 129 80 
3 106 148 129 
3 148 149 129 
3 10 35 24 
3 9 35 10 
3 11 10 24 
3 23 34 9 
3 290 312 291 
3 312 313 291 
3 435 476 311 
3 673 672 691 
3 639 672 673 
3 622 639 673 
3 601 622 673 
3 336 351 337 
3 351 352 337 
3 299 336 337 
3 275 299 337 
3 300 275 337 
3 276 275 300 
3 317 300 337 
3 892 905 899 
3 905 914 899 
3 914 925 899 
3 915 899 925 
3 904 905 892 
3 249 229 269 
3 230 229 249 
3 645 644 678 
3 678 697 645 
3 150 167 131 
3 131 167 151 
3 132 131 151 
3 202 203 179 
3 200 14 242 
3 224 200 242 
3 242 243 224 
3 243 242 262 
3 893 888 899 
3 598 634 619 
3 634 635 619 
3 633 634 585 
3 618 632 585 
3 632 633 585 
3 666 665 681 
3 648 665 666 
3 555 576 565 
3 576 589 565 
3 576 588 589 
3 556 555 565 
3 690 702 671 
3 672 671 702 
3 691 672 702 
3 702 715 691 
3 715 716 691 
3 282 398 241 
3 402 415 403 
3 415 430 403 
3 430 431 403 
3 431 432 403 
3 930 945 931 
3 445 419 460 
3 420 419 445 
3 418 460 419 
3 494 495 487 
3 488 487 495 
3 492 488 495 
3 815 814 825 
3 789 814 815 
3 40 41 1 
3 2 1 41 
3 27 2 41 
3 337 353 317 
3 185 208 168 
3 655 654 669 
3 633 654 655 
3 654 685 669 
3 685 686 669 
3 80 81 60 
3 632 654 633 
3 741 761 742 
3 761 773 742 
3 278 279 240 
3 335 336 316 
3 495 498 496 
3 498 504 496 
3 504 505 496 
3 51 119 97 
3 119 120 97 
3 119 140 120 
3 140 141 120 
3 346 347 331 
3 332 331 347 
3 310 309 332 
3 711 710 722 
3 687 710 711 
3 842 849 850 
3 649 648 666 
3 667 666 682 
3 904 936 924 
3 936 937 924 
3 913 923 904 
3 923 935 904 
3 935 936 904 
3 914 904 924 
3 401 389 414 
3 63 62 84 
3 41 62 63 
3 42 41 63 
3 27 41 42 
3 57 56 78 
3 77 101 56 
3 78 56 101 
3 101 100 124 
3 77 100 101 
3 439 466 447 
3 448 447 466 
3 439 412 485 
3 439 485 466 
3 478 466 485 
3 485 412 534 
3 484 541 412 
3 534 412 541 
3 480 479 486 
3 471 479 480 
3 478 479 466 
3 467 466 479 
3 471 467 479 
3 792 778 803 
3 912 913 891 
3 886 890 891 
3 887 886 891 
3 904 891 913 
3 112 88 134 
3 89 88 112 
3 357 373 340 
3 340 373 358 
3 373 374 358 
3 374 373 388 
3 565 589 577 
3 589 590 577 
3 549 555 556 
3 544 552 545 
3 528 544 545 
3 536 544 528 
3 537 528 545 
3 650 666 667 
3 649 666 650 
3 402 403 362 
3 363 362 403 
3 377 363 403 
3 376 390 362 
3 390 402 362 
3 343 362 363 
3 361 376 362 
3 971 970 984 
3 955 970 971 
3 948 955 971 
3 101 126 78 
3 78 126 102 
3 253 272 254 
3 272 297 254 
3 273 254 297 
3 61 60 82 
3 40 60 61 
3 81 82 60 
3 429 443 430 
3 634 655 635 
3 655 670 635 
3 728 727 748 
3 429 428 443 
3 442 450 443 
3 450 451 443 
3 428 442 443 
3 730 749 750 
3 731 730 750 
3 777 778 750 
3 220 237 221 
3 237 257 221 
3 221 257 238 
3 257 258 238 
3 892 891 904 
3 458 465 459 
3 994 995 965 
3 980 965 995 
3 995 996 980 
3 809 810 768 
3 260 261 199 
3 261 282 199 
3 546 553 539 
3 538 546 539 
3 705 694 732 
3 658 694 705 
3 674 658 705 
3 731 732 694 
3 972 971 984 
3 541 484 549 
3 555 605 606 
3 555 484 605 
3 484 555 549 
3 176 193 177 
3 193 194 177 
3 163 176 177 
3 714 746 725 
3 746 747 725 
3 724 746 714 
3 702 714 725 
3 675 659 695 
3 652 653 616 
3 40 0 60 
3 1 0 40 
3 921 946 947 
3 933 946 921 
3 920 933 921 
3 934 921 947 
3 326 317 338 
3 318 317 326 
3 516 527 522 
3 527 536 522 
3 528 522 536 
3 476 435 547 
3 141 158 121 
3 158 170 121 
3 170 171 121 
3 159 121 171 
3 142 121 159 
3 122 121 142 
3 120 141 121 
3 694 693 704 
3 673 693 694 
3 441 447 448 
3 433 432 452 
3 444 433 452 
3 922 921 934 
3 911 921 922 
3 502 517 511 
3 517 518 511 
3 510 517 501 
3 502 501 517 
3 86 110 111 
3 349 350 335 
3 378 392 379 
3 392 406 379 
3 380 379 406 
3 417 418 406 
3 15 2 27 
3 3 2 15 
3 104 103 127 
3 58 103 104 
3 59 58 104 
3 471 480 473 
3 387 400 388 
3 701 714 702 
3 715 702 725 
3 725 726 715 
3 48 47 91 
3 19 47 48 
3 90 91 47 
3 69 48 91 
3 91 92 69 
3 257 299 275 
3 256 299 257 
3 255 274 256 
3 274 299 256 
3 557 567 558 
3 567 568 558 
3 566 567 557 
3 549 557 558 
3 940 939 952 
3 951 962 952 
3 962 963 952 
3 939 951 952 
3 242 306 262 
3 283 262 306 
3 707 646 721 
3 12 26 13 
3 26 56 13 
3 731 750 751 
3 732 731 751 
3 579 591 568 
3 316 336 299 
3 478 485 479 
3 785 809 768 
3 867 872 868 
3 872 873 868 
3 873 874 868 
3 869 868 874 
3 483 476 507 
3 436 476 483 
3 507 476 548 
3 548 601 507 
3 562 507 601 
3 993 994 979 
3 593 594 581 
3 594 595 581 
3 199 282 39 
3 529 530 517 
3 518 517 530 
3 523 518 530 
3 530 531 523 
3 348 333 366 
3 334 333 348 
3 360 361 341 
3 171 172 159 
3 472 475 470 
3 902 911 903 
3 911 922 903 
3 664 663 680 
3 647 663 664 
3 679 698 680 
3 663 679 680 
3 629 663 647 
3 585 584 597 
3 597 618 585 
3 532 531 539 
3 523 531 532 
3 524 523 532 
3 969 983 970 
3 983 984 970 
3 33 34 23 
3 838 845 851 
3 168 186 154 
3 155 154 186 
3 156 155 186 
3 661 662 643 
3 46 45 67 
3 29 45 46 
3 66 67 45 
3 721 774 707 
3 805 806 780 
3 781 780 806 
3 795 781 806 
3 813 800 823 
3 345 346 331 
3 133 151 184 
3 108 151 133 
3 472 481 475 
3 481 482 475 
3 281 321 282 
3 321 339 282 
3 327 339 321 
3 280 305 281 
3 305 321 281 
3 832 839 833 
3 839 854 833 
3 831 839 832 
3 851 854 839 
3 822 832 833 
3 89 90 47 
3 854 851 859 
3 858 859 853 
3 870 869 871 
3 873 872 877 
3 876 873 877 
3 865 863 872 
3 867 865 872 
3 460 436 483 
3 418 436 460 
3 477 460 483 
3 461 460 477 
3 417 436 418 
3 500 493 508 
3 507 508 493 
3 526 507 562 
3 521 507 526 
3 493 483 507 
3 669 687 670 
3 655 669 670 
3 838 851 839 
3 837 845 838 
3 304 305 280 
3 603 604 575 
3 449 448 454 
3 919 931 932 
3 908 919 932 
3 72 95 73 
3 95 118 73 
3 96 73 118 
3 595 596 581 
3 86 111 87 
3 65 86 87 
3 66 65 87 
3 960 974 975 
3 894 889 900 
3 977 978 964 
3 704 730 694 
3 730 731 694 
3 382 411 395 
3 653 652 668 
3 965 966 906 
3 966 967 906 
3 907 906 967 
3 900 965 906 
3 602 603 575 
3 717 716 728 
3 716 727 728 
3 738 758 759 
3 925 938 939 
3 44 45 16 
3 29 16 45 
3 445 461 437 
3 438 437 461 
3 446 438 461 
3 809 822 810 
3 822 833 810 
3 720 742 706 
3 792 803 817 
3 793 792 817 
3 910 911 902 
3 796 807 797 
3 807 821 797 
3 808 797 821 
3 768 767 785 
3 754 767 768 
3 755 754 768 
3 737 754 755 
3 595 594 613 
3 243 262 283 
3 25 24 36 
3 11 24 25 
3 12 11 25 
3 619 635 620 
3 416 404 433 
3 433 434 416 
3 85 110 86 
3 64 85 86 
3 65 64 86 
3 38 55 26 
3 55 56 26 
3 439 440 426 
3 118 138 96 
3 96 138 119 
3 138 139 119 
3 186 168 209 
3 208 209 168 
3 209 210 186 
3 735 736 719 
3 657 672 639 
3 374 388 389 
3 592 611 612 
3 529 528 537 
3 522 528 529 
3 510 522 529 
3 517 510 529 
3 371 372 357 
3 686 685 709 
3 708 709 685 
3 709 710 686 
3 576 555 587 
3 880 885 881 
3 520 519 524 
3 519 523 524 
3 31 47 19 
3 32 19 48 
3 20 19 32 
3 711 712 700 
3 657 671 672 
3 638 657 639 
3 978 988 964 
3 988 989 964 
3 989 990 964 
3 942 964 927 
3 530 538 531 
3 538 539 531 
3 686 710 687 
3 908 932 920 
3 932 933 920 
3 909 908 920 
3 156 212 187 
3 212 213 187 
3 186 211 156 
3 211 212 156 
3 169 156 187 
3 157 156 169 
3 224 263 225 
3 263 264 225 
3 969 970 955 
3 966 980 967 
3 980 996 967 
3 556 565 557 
3 565 566 557 
3 577 578 565 
3 566 565 578 
3 546 545 553 
3 537 545 546 
3 538 537 546 
3 598 599 586 
3 529 537 538 
3 530 529 538 
3 575 574 602 
3 513 520 514 
3 520 525 514 
3 793 817 804 
3 844 847 845 
3 25 38 26 
3 12 25 26 
3 404 405 391 
3 21 32 22 
3 32 49 22 
3 33 22 49 
3 36 37 25 
3 339 327 355 
3 355 356 339 
3 821 832 808 
3 808 832 822 
3 621 637 600 
3 943 968 954 
3 339 398 282 
3 384 398 356 
3 339 356 398 
3 31 30 47 
3 47 46 68 
3 30 46 47 
3 44 43 65 
3 43 64 65 
3 241 39 282 
3 205 204 228 
3 180 204 205 
3 228 245 205 
3 245 246 205 
3 179 204 180 
3 17 16 29 
3 640 674 641 
3 492 495 496 
3 642 659 660 
3 49 70 33 
3 33 70 50 
3 70 71 50 
3 233 251 234 
3 732 733 705 
3 719 705 733 
3 733 734 719 
3 691 692 673 
3 91 113 92 
3 113 114 92 
3 878 880 881 
3 418 419 407 
3 860 864 861 
3 808 809 785 
3 80 129 107 
3 129 130 107 
3 96 119 51 
3 74 51 97 
3 52 51 74 
3 957 956 973 
3 956 972 973 
3 593 592 612 
3 718 730 704 
3 724 745 746 
3 713 724 714 
3 690 701 702 
3 440 439 447 
3 200 224 225 
3 243 263 224 
3 434 433 444 
3 452 453 444 
3 626 645 627 
3 910 921 911 
3 298 316 299 
3 962 976 963 
3 976 985 963 
3 109 133 110 
3 936 957 949 
3 957 958 949 
3 567 579 568 
3 118 117 154 
3 138 118 154 
3 154 155 138 
3 181 206 182 
3 206 207 182 
3 227 244 228 
3 244 266 228 
3 228 266 245 
3 266 267 245 
3 104 105 59 
3 342 362 343 
3 473 474 469 
3 494 491 497 
3 508 507 521 
3 515 508 521 
3 263 243 283 
3 283 284 263 
3 630 615 650 
3 650 651 630 
3 909 920 910 
3 920 921 910 
3 286 307 287 
3 307 324 287 
3 460 461 445 
3 595 613 596 
3 248 247 289 
3 45 44 66 
3 44 65 66 
3 884 885 879 
3 880 879 885 
3 891 892 887 
3 532 539 540 
3 347 346 365 
3 346 364 365 
3 944 945 929 
3 930 929 945 
3 68 89 47 
3 572 585 573 
3 779 794 780 
3 794 805 780 
3 784 797 785 
3 797 808 785 
3 383 396 370 
3 384 370 396 
3 396 397 384 
3 265 287 244 
3 244 287 266 
3 486 491 480 
3 487 480 491 
3 684 699 685 
3 699 708 685 
3 874 873 876 
3 18 31 19 
3 468 471 469 
3 471 473 469 
3 906 907 894 
3 895 894 907 
3 354 383 370 
3 179 180 164 
3 900 906 894 
3 607 608 587 
3 319 326 320 
3 355 370 356 
3 370 384 356 
3 658 674 640 
3 652 651 668 
3 667 682 668 
3 651 667 668 
3 203 204 179 
3 90 112 91 
3 112 135 91 
3 91 135 113 
3 135 136 113 
3 124 125 101 
3 587 588 576 
3 491 494 487 
3 508 515 500 
3 500 515 509 
3 309 310 289 
3 563 575 554 
3 877 880 876 
3 876 880 878 
3 959 974 960 
3 589 610 590 
3 587 609 588 
3 608 609 587 
3 916 927 917 
3 926 927 916 
3 924 925 914 
3 912 923 913 
3 961 962 951 
3 959 960 950 
3 949 959 950 
3 958 959 949 
3 943 954 944 
3 987 988 978 
3 977 987 978 
3 986 987 977 
3 965 980 966 
3 961 976 962 
3 975 976 961 
3 960 975 961 
3 958 974 959 
3 937 950 938 
3 949 950 937 
3 936 949 937 
3 928 944 929 
3 943 944 928 
3 926 942 927 
3 941 942 926 
3 924 938 925 
3 937 938 924 
3 928 929 918 
3 904 914 905 
3 894 895 889 
3 879 880 877 
3 811 812 798 
3 795 807 796 
3 804 805 794 
3 793 804 794 
3 856 861 857 
3 860 861 856 
3 830 839 831 
3 838 839 830 
3 829 838 830 
3 837 838 829 
3 828 837 829 
3 808 822 809 
3 820 821 807 
3 818 819 806 
3 805 818 806 
3 831 832 821 
3 820 831 821 
3 830 831 820 
3 819 830 820 
3 829 830 819 
3 818 829 819 
3 828 829 818 
3 692 704 693 
3 703 704 692 
3 689 701 690 
3 712 713 700 
3 740 761 741 
3 736 754 737 
3 753 754 736 
3 735 753 736 
3 752 753 735 
3 734 752 735 
3 744 762 745 
3 784 785 767 
3 766 784 767 
3 783 784 766 
3 765 783 766 
3 782 783 765 
3 783 797 784 
3 796 797 783 
3 782 796 783 
3 795 796 782 
3 781 795 782 
3 757 770 758 
3 753 767 754 
3 766 767 753 
3 752 766 753 
3 765 766 752 
3 734 735 719 
3 729 730 718 
3 717 729 718 
3 728 729 717 
3 715 727 716 
3 726 727 715 
3 712 724 713 
3 723 724 712 
3 711 723 712 
3 722 723 711 
3 729 749 730 
3 723 745 724 
3 744 745 723 
3 722 744 723 
3 703 718 704 
3 717 718 703 
3 637 657 638 
3 633 655 634 
3 631 654 632 
3 650 667 651 
3 692 693 673 
3 686 687 669 
3 680 681 664 
3 683 699 684 
3 660 676 661 
3 608 628 609 
3 627 628 608 
3 607 627 608 
3 626 627 607 
3 636 637 621 
3 631 632 618 
3 617 631 618 
3 598 620 599 
3 619 620 598 
3 617 618 597 
3 440 441 426 
3 422 438 423 
3 437 438 422 
3 494 498 495 
3 532 540 533 
3 535 536 527 
3 566 579 567 
3 578 579 566 
3 578 591 579 
3 574 575 563 
3 562 574 563 
3 543 552 544 
3 556 557 549 
3 535 544 536 
3 543 544 535 
3 511 519 512 
3 518 519 511 
3 524 533 525 
3 532 533 524 
3 524 525 520 
3 518 523 519 
3 503 512 504 
3 511 512 503 
3 502 511 503 
3 503 504 498 
3 501 502 497 
3 467 471 468 
3 488 492 489 
3 463 464 457 
3 456 463 457 
3 462 463 456 
3 455 462 456 
3 449 450 442 
3 440 447 441 
3 452 459 453 
3 458 459 452 
3 456 457 451 
3 450 456 451 
3 455 456 450 
3 449 455 450 
3 454 455 449 
3 226 244 227 
3 238 259 239 
3 258 259 238 
3 256 257 237 
3 236 256 237 
3 255 256 236 
3 252 253 235 
3 232 251 233 
3 250 251 232 
3 231 250 232 
3 249 250 231 
3 230 249 231 
3 343 344 330 
3 329 343 330 
3 342 343 329 
3 328 342 329 
3 341 342 328 
3 352 353 337 
3 374 389 375 
3 387 388 373 
3 372 387 373 
3 386 387 372 
3 371 386 372 
3 385 386 371 
3 397 398 384 
3 395 396 383 
3 382 395 383 
3 404 416 405 
3 409 421 410 
3 420 421 409 
3 408 420 409 
3 419 420 408 
3 407 419 408 
3 429 430 415 
3 386 400 387 
3 399 400 386 
3 385 399 386 
3 409 410 394 
3 393 409 394 
3 408 409 393 
3 360 376 361 
3 358 375 359 
3 374 375 358 
3 372 373 357 
3 354 370 355 
3 349 368 350 
3 367 368 349 
3 348 367 349 
3 366 367 348 
3 367 366 379 
3 378 379 366 
3 367 380 368 
3 379 380 367 
3 345 364 346 
3 343 363 344 
3 341 362 342 
3 361 362 341 
3 358 359 340 
3 285 307 286 
3 304 321 305 
3 320 321 304 
3 303 320 304 
3 319 320 303 
3 302 319 303 
3 318 319 302 
3 301 318 302 
3 317 318 301 
3 300 317 301 
3 292 314 293 
3 313 314 292 
3 291 313 292 
3 323 330 324 
3 329 330 323 
3 322 329 323 
3 328 329 322 
3 320 327 321 
3 318 326 319 
3 333 334 325 
3 323 324 307 
3 266 288 267 
3 286 287 265 
3 264 286 265 
3 285 286 264 
3 263 285 264 
3 284 285 263 
3 281 282 261 
3 260 281 261 
3 280 281 260 
3 276 277 259 
3 258 276 259 
3 275 276 258 
3 257 275 258 
3 252 272 253 
3 271 272 252 
3 249 270 250 
3 269 270 249 
3 302 303 279 
3 278 302 279 
3 301 302 278 
3 277 301 278 
3 300 301 277 
3 276 300 277 
3 298 299 274 
3 273 298 274 
3 296 297 272 
3 271 296 272 
3 295 296 271 
3 291 292 270 
3 269 291 270 
3 290 291 269 
3 102 127 103 
3 125 126 101 
3 123 124 100 
3 99 123 100 
3 122 123 99 
3 98 122 99 
3 121 122 98 
3 97 121 98 
3 120 121 97 
3 113 137 114 
3 136 137 113 
3 134 135 112 
3 108 133 109 
3 180 181 164 
3 195 196 178 
3 177 195 178 
3 194 195 177 
3 192 193 176 
3 175 192 176 
3 172 191 173 
3 190 191 172 
3 171 190 172 
3 189 190 171 
3 170 189 171 
3 188 189 170 
3 169 188 170 
3 187 188 169 
3 205 206 181 
3 180 205 181 
3 202 201 226 
3 225 226 201 
3 200 225 201 
3 194 221 195 
3 220 221 194 
3 193 220 194 
3 219 220 193 
3 192 219 193 
3 218 219 192 
3 190 217 191 
3 216 217 190 
3 189 216 190 
3 215 216 189 
3 188 215 189 
3 214 215 188 
3 187 214 188 
3 213 214 187 
3 210 211 186 
3 203 228 204 
3 227 228 203 
3 202 227 203 
3 226 227 202 
3 219 237 220 
3 236 237 219 
3 218 236 219 
3 216 235 217 
3 212 234 213 
3 233 234 212 
3 211 233 212 
3 232 233 211 
3 210 232 211 
3 231 232 210 
3 209 231 210 
3 230 231 209 
3 208 230 209 
3 229 230 208 
3 145 163 146 
3 162 163 145 
3 144 162 145 
3 161 162 144 
3 143 161 144 
3 160 161 143 
3 142 160 143 
3 159 160 142 
3 140 158 141 
3 157 158 140 
3 139 157 140 
3 156 157 139 
3 138 156 139 
3 155 156 138 
3 136 152 137 
3 129 150 130 
3 149 150 129 
3 162 176 163 
3 175 176 162 
3 161 175 162 
3 174 175 161 
3 160 174 161 
3 173 174 160 
3 159 173 160 
3 172 173 159 
3 169 170 158 
3 157 169 158 
3 149 167 150 
3 145 146 126 
3 125 145 126 
3 144 145 125 
3 124 144 125 
3 143 144 124 
3 123 143 124 
3 142 143 123 
3 122 142 123 
3 139 140 119 
3 54 55 38 
3 37 54 38 
3 53 54 37 
3 36 53 37 
3 52 53 36 
3 33 50 34 
3 48 49 32 
3 29 46 30 
3 42 64 43 
3 63 64 42 
3 76 100 77 
3 99 100 76 
3 75 99 76 
3 98 99 75 
3 74 98 75 
3 97 98 74 
3 71 95 72 
3 94 95 71 
3 70 94 71 
3 93 94 70 
3 69 93 70 
3 92 93 69 
3 88 89 68 
3 67 88 68 
3 63 85 64 
3 84 85 63 
3 117 118 95 
3 94 117 95 
3 116 117 94 
3 93 116 94 
3 115 116 93 
3 92 115 93 
3 114 115 92 
3 89 112 90 
3 109 110 85 
3 84 109 85 
3 108 109 84 
3 80 107 81 
3 55 77 56 
3 76 77 55 
3 54 76 55 
3 75 76 54 
3 53 75 54 
3 74 75 53 
3 52 74 53 
3 71 72 50 
3 69 70 49 
3 48 69 49 
3 67 68 46 
3 37 38 25 
3 20 32 21 
3 29 30 17 
3 27 28 15 
3 27 43 28 
3 42 43 27 
3 7 22 8 
3 21 22 7 
3 6 21 7 
3 20 21 6 
3 5 20 6 
3 19 20 5 
3 4 19 5 
3 18 19 4 
