OFF
1000 1893 0
0 0 251 
0 1 98 
0 4 86 
0 6 244 
0 7 99 
0 10 109 
0 11 252 
0 15 100 
0 16 238 
0 18 249 
0 19 102 
0 24 252 
0 25 96 
0 30 252 
0 31 103 
0 33 103 
0 34 246 
0 36 252 
0 37 103 
0 39 105 
0 40 245 
0 42 249 
0 43 104 
0 45 104 
0 46 245 
0 48 245 
0 49 106 
0 51 105 
0 52 248 
0 57 107 
0 58 248 
0 59 110 
0 60 249 
0 63 105 
0 64 248 
0 69 105 
0 72 250 
0 73 138 
0 78 248 
0 79 129 
0 84 250 
0 85 123 
0 90 246 
0 91 107 
0 96 252 
0 97 104 
0 102 250 
0 103 105 
0 108 247 
0 109 97 
0 111 108 
0 112 249 
0 113 110 
0 114 251 
0 115 93 
0 119 236 
2 73 136 
2 102 250 
3 13 100 
3 25 110 
3 36 252 
3 70 247 
3 79 127 
3 96 248 
3 97 104 
3 109 98 
3 114 236 
3 115 96 
4 12 250 
4 16 94 
4 17 247 
4 21 101 
4 22 240 
4 30 251 
4 37 104 
4 42 252 
4 48 252 
4 49 104 
4 51 105 
4 52 253 
4 66 250 
4 67 139 
4 78 250 
4 84 246 
4 85 121 
4 90 252 
4 91 108 
4 103 97 
4 104 93 
4 108 248 
5 31 99 
5 33 102 
5 34 241 
5 40 241 
5 43 104 
5 59 242 
5 106 237 
5 109 97 
5 111 108 
5 112 246 
6 1 98 
6 4 97 
6 10 102 
6 24 251 
6 30 251 
6 34 100 
6 40 102 
6 42 252 
6 58 93 
6 65 142 
6 66 252 
6 72 250 
6 90 226 
6 91 104 
6 96 247 
6 97 108 
6 102 252 
6 103 101 
6 106 133 
6 108 248 
6 114 251 
6 115 93 
7 5 220 
7 12 250 
7 13 100 
7 25 90 
7 36 251 
7 37 102 
7 52 105 
7 53 242 
7 73 138 
7 79 126 
7 119 146 
8 18 252 
8 19 109 
8 21 101 
8 22 254 
8 47 245 
8 66 252 
8 84 249 
8 85 117 
8 96 252 
8 97 104 
8 109 99 
8 113 252 
8 115 98 
9 5 240 
9 6 133 
9 24 251 
9 34 102 
9 36 251 
9 42 252 
9 56 93 
9 59 247 
9 70 97 
9 71 243 
9 90 252 
9 91 111 
9 100 118 
9 101 246 
9 103 103 
9 108 252 
10 13 106 
10 16 92 
10 18 252 
10 22 85 
10 37 97 
10 43 102 
10 46 109 
10 63 96 
10 78 250 
10 79 124 
11 10 101 
11 12 250 
11 19 106 
11 26 102 
11 30 251 
11 31 93 
11 40 108 
11 42 252 
11 47 244 
11 54 252 
11 76 100 
11 97 106 
12 18 251 
12 25 241 
12 49 93 
12 58 105 
12 84 244 
12 94 126 
12 108 249 
12 109 103 
12 112 112 
12 113 250 
12 118 102 
12 119 251 
13 35 245 
13 42 252 
13 43 106 
13 59 251 
13 72 252 
13 85 120 
13 90 251 
13 91 115 
13 115 100 
14 5 74 
14 11 252 
14 48 252 
14 49 66 
14 102 251 
14 112 105 
14 113 248 
15 13 237 
15 14 100 
15 103 104 
15 118 105 
16 10 99 
16 28 103 
16 29 252 
16 64 107 
16 65 240 
16 73 136 
16 78 248 
16 79 122 
16 84 248 
16 107 246 
16 113 248 
16 114 147 
17 18 251 
17 22 102 
17 25 238 
17 26 102 
17 34 102 
17 35 246 
17 38 102 
17 41 245 
17 44 105 
17 48 250 
17 58 106 
17 59 247 
17 70 108 
17 72 252 
17 85 119 
17 90 252 
17 91 117 
17 102 251 
17 106 110 
18 60 112 
18 94 128 
18 95 246 
18 112 112 
18 113 249 
19 1 98 
19 6 251 
19 7 99 
19 11 77 
19 12 246 
19 13 92 
19 64 105 
19 65 250 
19 97 106 
19 109 109 
19 115 106 
20 1 251 
20 2 98 
20 13 252 
20 31 252 
20 32 103 
20 43 250 
20 44 105 
20 52 105 
20 53 248 
20 70 95 
20 71 243 
20 85 243 
20 91 245 
20 97 248 
20 103 250 
20 104 104 
20 109 252 
20 110 97 
20 113 249 
20 114 93 
20 115 249 
21 25 252 
21 26 106 
21 57 106 
21 59 247 
21 65 249 
21 86 118 
21 92 103 
21 98 107 
22 13 245 
22 14 100 
22 17 246 
22 37 252 
22 38 104 
22 64 103 
22 76 175 
23 28 103 
23 29 252 
23 103 250 
23 104 102 
23 107 247 
23 118 93 
24 22 101 
24 32 99 
24 49 252 
24 50 105 
24 53 253 
24 58 107 
24 59 253 
24 65 251 
24 79 249 
24 80 123 
24 85 247 
24 86 116 
24 98 102 
25 23 252 
25 35 242 
25 37 251 
25 38 104 
25 40 104 
25 41 245 
25 97 249 
25 119 238 
26 19 252 
26 22 101 
26 35 101 
26 53 92 
26 59 94 
26 61 143 
26 110 97 
27 0 251 
27 17 105 
27 31 251 
27 32 111 
27 54 245 
27 60 253 
27 71 97 
27 72 242 
27 109 252 
27 119 99 
28 1 253 
28 2 98 
28 8 99 
28 43 252 
28 44 111 
28 74 130 
28 79 250 
28 80 122 
28 85 249 
28 86 112 
28 91 250 
28 92 109 
28 113 112 
29 6 240 
29 13 250 
29 29 90 
29 49 252 
29 50 86 
29 53 104 
29 98 104 
29 103 251 
29 104 99 
29 114 251 
30 0 84 
30 24 242 
30 54 248 
30 59 110 
30 60 238 
30 65 108 
30 67 252 
31 1 243 
31 17 87 
31 18 248 
31 31 251 
31 32 113 
31 37 251 
31 38 109 
31 49 252 
31 71 96 
31 72 253 
31 77 75 
31 103 250 
31 104 95 
32 5 100 
32 6 253 
32 13 252 
32 14 97 
32 20 91 
32 29 104 
32 50 81 
32 78 240 
32 80 120 
33 37 252 
33 38 85 
33 44 98 
33 53 105 
33 54 247 
33 85 245 
33 86 117 
33 91 252 
33 92 113 
33 97 251 
33 98 104 
33 114 250 
34 8 101 
34 11 100 
34 41 103 
34 42 244 
34 59 105 
34 60 245 
34 65 108 
34 66 241 
34 110 99 
34 115 113 
35 7 246 
35 12 250 
35 32 232 
35 33 103 
35 49 251 
35 50 75 
35 61 118 
35 108 248 
35 114 250 
36 15 100 
36 59 105 
36 60 250 
36 71 99 
36 103 250 
36 104 102 
37 1 241 
37 2 98 
37 11 100 
37 19 251 
37 23 102 
37 24 252 
37 39 102 
37 44 233 
37 45 104 
37 53 105 
37 54 247 
37 73 252 
37 74 132 
38 12 251 
38 27 102 
38 35 102 
38 36 246 
38 41 103 
38 85 252 
39 7 237 
39 8 103 
39 66 246 
39 71 83 
39 73 247 
39 74 132 
39 79 247 
39 80 122 
39 86 114 
39 91 245 
39 92 113 
39 98 105 
39 103 251 
39 104 100 
39 107 105 
39 108 248 
39 110 106 
39 113 101 
39 114 250 
40 14 245 
40 15 100 
40 44 251 
40 45 104 
40 59 106 
40 60 246 
40 65 103 
40 92 249 
40 98 249 
40 110 252 
41 7 238 
41 101 110 
42 32 252 
42 38 252 
42 39 103 
42 104 251 
42 117 93 
43 3 98 
43 17 100 
43 33 99 
43 51 103 
43 93 107 
44 12 97 
44 18 253 
44 47 105 
44 50 252 
44 58 89 
44 60 252 
44 65 110 
44 66 252 
44 74 251 
44 75 136 
44 80 244 
44 81 122 
44 86 249 
44 92 248 
44 107 104 
44 113 99 
44 114 246 
45 13 251 
45 21 103 
45 36 242 
45 41 106 
45 42 241 
45 51 103 
45 89 124 
45 110 243 
46 24 240 
46 28 103 
46 36 102 
46 54 91 
46 55 251 
46 60 91 
47 12 95 
47 18 75 
47 20 252 
47 50 249 
47 92 251 
47 93 111 
47 98 250 
47 99 102 
48 1 251 
48 14 250 
48 15 97 
48 21 105 
48 31 246 
48 51 71 
48 81 123 
48 86 248 
48 87 108 
49 30 96 
49 38 251 
49 39 97 
49 60 115 
49 61 249 
49 72 77 
49 73 244 
49 78 248 
49 104 251 
49 105 101 
49 114 106 
49 115 250 
50 24 93 
50 25 242 
50 32 251 
50 44 252 
50 45 106 
50 65 89 
50 68 249 
50 78 106 
51 6 101 
51 33 94 
51 50 252 
51 51 85 
51 92 252 
51 93 112 
51 98 247 
51 104 250 
51 105 97 
51 110 250 
51 111 100 
52 8 249 
52 9 100 
52 15 87 
52 18 103 
52 19 252 
52 32 251 
52 60 107 
52 80 250 
52 81 122 
52 99 101 
53 14 251 
53 39 88 
53 61 244 
53 72 104 
53 73 247 
54 24 104 
54 25 245 
54 54 105 
54 55 246 
54 104 251 
55 9 102 
55 39 245 
55 40 102 
55 45 246 
55 51 91 
55 98 251 
55 105 100 
55 114 103 
56 1 100 
56 7 81 
56 8 251 
56 15 222 
56 16 101 
56 46 105 
56 50 252 
56 60 105 
56 75 130 
56 86 250 
56 87 117 
56 93 111 
56 99 104 
57 54 106 
57 55 247 
57 61 249 
57 72 86 
57 74 252 
57 92 252 
58 8 249 
58 12 100 
58 50 251 
58 51 113 
59 9 96 
59 13 253 
59 66 106 
59 67 238 
59 93 109 
59 104 250 
59 105 100 
59 110 250 
59 111 104 
60 3 251 
60 4 98 
60 7 95 
60 8 244 
60 27 252 
60 28 97 
60 33 252 
60 34 103 
60 75 250 
60 76 123 
60 81 241 
60 82 123 
60 93 252 
60 99 249 
60 100 100 
61 15 252 
61 16 101 
61 21 252 
61 22 103 
62 13 74 
62 54 106 
62 55 247 
62 66 109 
62 67 251 
62 70 132 
62 94 103 
63 14 242 
63 39 252 
63 48 105 
63 49 244 
63 59 104 
63 76 129 
63 87 252 
63 88 113 
63 93 252 
63 109 248 
64 34 101 
64 42 105 
64 43 250 
64 61 252 
64 62 127 
64 75 252 
64 108 107 
65 18 101 
65 19 244 
65 31 237 
65 33 251 
65 37 243 
65 52 86 
65 67 250 
65 114 99 
65 115 243 
66 31 98 
66 37 102 
66 55 91 
66 56 240 
66 67 109 
66 81 250 
66 93 252 
66 94 107 
66 99 251 
66 111 238 
66 112 96 
67 13 112 
67 14 250 
67 39 251 
67 51 252 
67 68 252 
67 115 105 
68 4 100 
68 19 90 
68 20 240 
68 24 100 
68 40 108 
68 45 252 
68 46 98 
68 52 78 
68 76 134 
68 82 122 
68 87 248 
68 88 105 
68 100 100 
69 2 250 
69 9 247 
69 25 253 
69 33 251 
69 34 108 
69 39 251 
69 56 251 
69 93 239 
69 94 108 
69 99 249 
70 10 101 
70 25 111 
70 55 108 
70 61 104 
70 62 244 
70 73 93 
70 74 252 
71 51 250 
71 67 107 
71 69 250 
71 81 251 
71 87 249 
71 88 114 
71 93 252 
71 94 110 
72 15 252 
72 16 81 
72 56 249 
72 76 127 
72 82 122 
72 100 99 
72 105 251 
72 106 99 
72 111 246 
72 112 101 
73 2 106 
73 7 100 
73 9 251 
73 10 97 
73 26 242 
73 33 252 
73 34 88 
73 39 252 
73 40 99 
73 46 100 
73 55 105 
73 73 111 
73 74 251 
73 99 251 
73 116 252 
74 16 253 
74 17 101 
74 22 229 
74 23 101 
74 45 252 
74 61 107 
74 62 250 
74 87 252 
74 88 112 
74 115 98 
75 8 249 
75 73 93 
75 74 246 
75 81 249 
75 93 248 
76 37 103 
76 38 247 
76 56 246 
76 67 107 
76 68 250 
76 82 122 
76 94 110 
77 8 77 
77 9 252 
77 10 95 
77 43 103 
77 87 252 
77 88 111 
77 93 252 
78 17 101 
78 44 246 
79 4 99 
79 9 243 
79 10 95 
79 22 236 
79 23 101 
79 27 246 
79 28 89 
79 53 86 
79 61 103 
79 81 248 
79 82 125 
79 103 108 
79 104 246 
79 109 100 
79 110 248 
80 4 253 
80 5 98 
80 16 252 
80 40 250 
80 41 102 
80 47 104 
80 52 252 
80 56 248 
80 57 122 
80 58 251 
80 63 253 
80 64 123 
80 76 249 
80 77 121 
81 17 101 
81 53 95 
81 71 139 
81 94 249 
81 95 104 
82 4 253 
82 5 98 
82 22 252 
82 23 97 
82 34 252 
82 35 102 
82 52 252 
83 3 114 
83 8 95 
83 9 242 
83 14 89 
83 15 245 
83 28 252 
83 29 94 
83 46 249 
83 61 106 
83 68 250 
83 76 250 
83 77 124 
83 100 249 
83 101 97 
84 4 245 
84 5 98 
84 47 103 
84 62 252 
84 67 102 
84 94 243 
84 95 103 
84 107 98 
85 23 98 
85 40 252 
85 41 102 
85 106 251 
85 110 246 
85 115 99 
86 10 248 
86 16 251 
86 17 101 
86 22 251 
86 34 251 
86 35 104 
86 46 252 
86 50 94 
86 56 92 
86 57 245 
86 62 93 
86 88 242 
87 11 100 
87 51 245 
87 89 115 
87 100 251 
87 101 104 
87 107 98 
88 29 248 
88 30 103 
88 40 252 
88 41 101 
88 69 250 
88 71 136 
88 94 251 
88 112 247 
88 113 97 
89 25 100 
89 26 247 
89 68 106 
89 74 253 
89 95 107 
89 106 251 
90 3 252 
90 10 248 
90 11 99 
90 20 81 
90 22 251 
90 23 88 
90 34 251 
90 35 99 
90 46 252 
90 47 104 
90 50 109 
90 51 246 
90 56 109 
90 62 105 
90 64 253 
90 74 119 
90 107 103 
91 8 101 
91 57 249 
91 88 252 
91 89 113 
91 100 249 
91 101 100 
92 3 92 
92 16 252 
92 17 91 
93 10 252 
93 11 91 
93 38 105 
93 39 246 
93 106 250 
94 68 109 
94 76 252 
94 77 120 
94 82 251 
94 83 122 
94 110 105 
94 111 247 
94 116 102 
95 26 103 
95 27 245 
95 32 101 
95 33 244 
95 42 104 
95 70 247 
95 74 112 
95 88 251 
95 94 249 
95 107 100 
96 46 250 
96 47 94 
96 56 105 
96 89 111 
96 95 111 
96 100 251 
96 101 105 
96 106 251 
96 117 251 
97 57 247 
97 82 249 
97 83 123 
99 0 97 
99 9 108 
99 10 245 
99 11 107 
99 14 100 
99 15 237 
99 18 102 
99 22 246 
99 26 102 
99 27 250 
99 32 103 
99 33 246 
99 38 104 
99 39 244 
99 44 104 
99 45 245 
99 50 106 
99 51 248 
99 56 106 
99 57 248 
99 58 116 
99 62 103 
99 63 248 
99 68 106 
99 70 241 
99 71 136 
99 76 248 
99 77 123 
99 82 245 
99 83 124 
99 88 243 
99 89 118 
99 94 245 
99 95 106 
99 100 251 
99 101 106 
99 106 251 
99 107 103 
99 110 109 
99 111 249 
99 116 95 
99 117 249 
99 119 100 
3 745 807 746 
3 807 808 746 
3 747 746 808 
3 772 747 808 
3 808 862 772 
3 724 702 765 
3 703 702 724 
3 739 764 701 
3 764 765 701 
3 702 701 765 
3 765 766 724 
3 479 516 507 
3 516 550 507 
3 550 516 570 
3 288 312 272 
3 312 339 272 
3 273 272 339 
3 339 340 273 
3 298 273 340 
3 355 415 365 
3 406 365 415 
3 415 425 406 
3 375 390 326 
3 327 326 390 
3 367 327 390 
3 390 436 367 
3 436 437 367 
3 391 367 437 
3 437 446 391 
3 254 345 292 
3 345 357 292 
3 253 345 254 
3 255 254 292 
3 969 970 924 
3 925 924 970 
3 939 925 970 
3 970 971 939 
3 963 964 921 
3 899 921 964 
3 900 899 964 
3 935 900 964 
3 901 900 935 
3 962 963 920 
3 921 920 963 
3 425 415 468 
3 467 468 415 
3 468 469 425 
3 433 487 451 
3 480 451 487 
3 487 432 531 
3 433 432 487 
3 366 531 432 
3 79 129 108 
3 129 152 108 
3 29 79 108 
3 95 29 108 
3 28 79 29 
3 586 575 603 
3 552 575 586 
3 574 603 575 
3 603 648 586 
3 648 649 586 
3 232 267 233 
3 267 295 233 
3 267 306 295 
3 306 319 295 
3 234 233 295 
3 196 233 234 
3 295 296 234 
3 12 59 13 
3 59 73 13 
3 104 59 125 
3 73 59 104 
3 379 409 346 
3 409 410 346 
3 397 346 410 
3 347 346 397 
3 322 379 346 
3 396 409 379 
3 213 257 228 
3 257 294 228 
3 293 294 265 
3 257 265 294 
3 325 355 342 
3 355 365 342 
3 282 355 304 
3 325 304 355 
3 833 868 858 
3 868 883 858 
3 883 868 903 
3 812 833 858 
3 471 488 435 
3 488 493 435 
3 493 510 435 
3 436 435 510 
3 437 436 510 
3 510 517 437 
3 446 437 517 
3 790 874 826 
3 854 826 874 
3 874 877 854 
3 804 874 789 
3 790 789 874 
3 791 790 826 
3 803 846 804 
3 846 874 804 
3 874 846 930 
3 893 930 846 
3 930 931 874 
3 915 874 931 
3 929 930 893 
3 592 576 638 
3 561 576 592 
3 582 561 592 
3 637 638 576 
3 638 658 592 
3 598 569 629 
3 570 569 598 
3 628 629 597 
3 569 597 629 
3 629 630 598 
3 627 611 645 
3 590 611 627 
3 597 590 627 
3 627 628 597 
3 798 799 766 
3 752 766 799 
3 799 800 752 
3 753 752 800 
3 765 798 766 
3 528 529 491 
3 478 491 529 
3 529 530 478 
3 481 478 530 
3 485 481 530 
3 530 548 485 
3 506 485 548 
3 548 549 506 
3 465 485 506 
3 885 892 886 
3 892 927 886 
3 927 940 886 
3 911 886 940 
3 940 941 911 
3 582 593 555 
3 593 594 555 
3 556 555 594 
3 562 556 594 
3 594 604 562 
3 604 605 562 
3 814 851 834 
3 851 870 834 
3 870 876 834 
3 466 506 479 
3 506 516 479 
3 468 479 507 
3 480 492 452 
3 445 452 492 
3 470 445 492 
3 784 827 761 
3 805 761 827 
3 827 847 805 
3 737 784 761 
3 280 332 281 
3 332 355 281 
3 282 281 355 
3 283 282 304 
3 386 433 417 
3 433 451 417 
3 451 452 417 
3 434 417 452 
3 407 417 434 
3 196 234 178 
3 197 178 234 
3 234 235 197 
3 166 196 178 
3 887 916 894 
3 916 943 894 
3 894 943 917 
3 943 949 917 
3 966 967 936 
3 937 936 967 
3 592 658 593 
3 658 668 593 
3 668 658 696 
3 604 593 668 
3 668 669 604 
3 594 593 604 
3 659 604 669 
3 620 604 659 
3 659 660 620 
3 715 724 683 
3 716 683 724 
3 724 752 716 
3 752 753 716 
3 673 745 692 
3 745 746 692 
3 746 747 692 
3 693 692 747 
3 699 693 747 
3 712 744 673 
3 744 745 673 
3 673 627 691 
3 628 627 673 
3 645 691 627 
3 691 712 673 
3 666 628 673 
3 629 628 666 
3 743 761 805 
3 744 743 805 
3 805 806 744 
3 413 412 423 
3 370 412 413 
3 411 412 369 
3 370 369 412 
3 371 370 413 
3 331 370 371 
3 869 859 884 
3 842 859 869 
3 884 904 869 
3 776 775 822 
3 741 775 776 
3 821 822 775 
3 803 776 822 
3 128 77 137 
3 78 77 128 
3 180 186 137 
3 128 137 186 
3 76 137 77 
3 875 898 864 
3 898 920 864 
3 920 921 864 
3 865 864 921 
3 899 865 921 
3 540 587 576 
3 587 636 576 
3 635 636 587 
3 636 637 576 
3 906 946 907 
3 946 974 907 
3 973 974 946 
3 947 907 974 
3 974 975 947 
3 905 946 906 
3 939 945 904 
3 945 946 904 
3 905 904 946 
3 908 907 947 
3 914 908 947 
3 873 910 853 
3 892 853 910 
3 885 853 892 
3 844 853 885 
3 885 886 844 
3 825 844 886 
3 160 209 190 
3 209 214 190 
3 225 214 246 
3 190 214 225 
3 206 216 212 
3 216 256 212 
3 255 256 216 
3 256 257 212 
3 294 293 334 
3 292 357 293 
3 334 293 357 
3 326 294 334 
3 357 374 334 
3 374 357 389 
3 176 175 217 
3 104 175 176 
3 125 175 104 
3 185 217 175 
3 217 218 176 
3 482 446 518 
3 419 446 482 
3 447 419 482 
3 517 518 446 
3 518 517 553 
3 540 518 553 
3 303 302 364 
3 278 302 303 
3 341 303 364 
3 305 294 326 
3 229 294 305 
3 228 294 229 
3 284 229 305 
3 788 813 793 
3 813 842 793 
3 842 813 859 
3 814 793 842 
3 638 667 658 
3 667 678 658 
3 279 278 303 
3 246 278 279 
3 261 246 279 
3 640 641 607 
3 578 607 641 
3 579 578 641 
3 641 642 579 
3 608 579 642 
3 57 88 47 
3 48 47 88 
3 88 89 48 
3 89 88 96 
3 65 48 89 
3 182 222 170 
3 222 223 170 
3 171 170 223 
3 188 171 223 
3 223 224 188 
3 221 222 182 
3 968 969 938 
3 924 938 969 
3 902 938 903 
3 924 903 938 
3 937 938 902 
3 205 100 252 
3 146 100 205 
3 101 100 146 
3 122 101 146 
3 866 865 899 
3 899 900 866 
3 571 600 591 
3 600 601 591 
3 560 600 571 
3 572 571 591 
3 303 332 280 
3 54 67 55 
3 67 132 55 
3 121 132 67 
3 132 121 145 
3 149 196 150 
3 166 150 196 
3 177 218 196 
3 218 232 196 
3 149 177 196 
3 336 377 328 
3 377 378 328 
3 395 377 420 
3 378 377 395 
3 861 862 808 
3 762 772 862 
3 862 999 762 
3 889 934 862 
3 934 953 862 
3 953 999 862 
3 911 929 893 
3 845 893 846 
3 928 929 911 
3 228 229 184 
3 174 184 229 
3 165 174 229 
3 185 165 229 
3 229 230 185 
3 967 968 937 
3 938 937 968 
3 441 421 490 
3 422 421 441 
3 490 473 494 
3 421 473 490 
3 494 495 490 
3 440 473 421 
3 800 832 753 
3 778 753 832 
3 832 800 841 
3 832 833 778 
3 280 279 303 
3 250 280 281 
3 496 490 521 
3 442 490 496 
3 520 521 490 
3 442 441 490 
3 474 442 496 
3 444 457 393 
3 394 393 457 
3 457 458 394 
3 450 394 458 
3 400 394 450 
3 510 493 525 
3 517 510 534 
3 57 45 64 
3 46 45 57 
3 144 143 192 
3 98 143 144 
3 191 192 143 
3 192 193 144 
3 531 560 487 
3 480 487 560 
3 523 480 560 
3 631 632 599 
3 600 599 632 
3 560 599 600 
3 560 531 599 
3 538 579 608 
3 537 579 538 
3 608 609 538 
3 539 538 609 
3 564 539 609 
3 609 617 564 
3 610 564 617 
3 565 564 610 
3 596 565 610 
3 634 714 650 
3 694 650 714 
3 631 700 632 
3 633 632 700 
3 700 714 633 
3 634 633 714 
3 622 634 650 
3 572 591 581 
3 591 619 581 
3 602 581 619 
3 619 623 602 
3 848 860 806 
3 856 806 860 
3 807 806 856 
3 745 806 807 
3 744 806 745 
3 219 199 239 
3 169 199 219 
3 238 239 199 
3 239 247 219 
3 187 238 199 
3 237 270 208 
3 270 271 208 
3 181 208 271 
3 238 181 271 
3 187 181 238 
3 482 518 489 
3 518 535 489 
3 519 489 535 
3 511 489 519 
3 136 165 148 
3 165 185 148 
3 87 88 57 
3 46 57 47 
3 426 471 435 
3 249 260 183 
3 209 183 260 
3 245 209 260 
3 260 291 245 
3 277 245 291 
3 141 189 183 
3 189 249 183 
3 830 823 865 
3 797 823 830 
3 830 865 866 
3 857 830 866 
3 792 823 797 
3 839 865 823 
3 217 185 231 
3 177 176 218 
3 355 341 415 
3 332 341 355 
3 415 385 424 
3 341 385 415 
3 364 385 341 
3 424 385 431 
3 346 347 323 
3 307 323 347 
3 268 323 269 
3 307 269 323 
3 858 859 812 
3 813 812 859 
3 247 238 287 
3 239 238 247 
3 286 287 238 
3 247 287 258 
3 287 297 258 
3 287 311 297 
3 311 331 297 
3 290 324 276 
3 317 276 324 
3 291 276 317 
3 248 290 276 
3 324 290 354 
3 353 354 290 
3 289 316 275 
3 290 275 316 
3 316 353 290 
3 492 509 470 
3 488 470 509 
3 471 470 488 
3 493 488 509 
3 509 533 493 
3 524 493 533 
3 306 300 335 
3 266 300 306 
3 335 336 306 
3 637 676 667 
3 676 677 667 
3 636 676 637 
3 638 637 667 
3 676 635 703 
3 636 635 676 
3 648 675 649 
3 675 703 649 
3 702 703 675 
3 635 649 703 
3 683 676 703 
3 703 715 683 
3 386 373 433 
3 344 373 386 
3 343 373 344 
3 356 344 386 
3 345 344 356 
3 264 344 345 
3 253 264 345 
3 679 660 697 
3 651 660 679 
3 620 660 621 
3 651 621 660 
3 738 723 751 
3 694 723 738 
3 695 694 738 
3 763 751 787 
3 738 751 763 
3 699 762 682 
3 486 682 762 
3 762 999 486 
3 342 486 999 
3 296 323 268 
3 235 296 268 
3 234 296 235 
3 322 323 296 
3 705 706 669 
3 659 669 706 
3 213 212 257 
3 109 95 169 
3 33 95 109 
3 153 169 95 
3 31 95 32 
3 33 32 95 
3 80 33 109 
3 34 33 80 
3 109 110 80 
3 964 965 935 
3 812 778 833 
3 779 778 812 
3 754 753 778 
3 331 371 312 
3 371 372 312 
3 339 312 372 
3 847 848 805 
3 848 879 860 
3 879 895 860 
3 895 879 918 
3 880 860 895 
3 805 848 806 
3 923 961 920 
3 961 962 920 
3 932 996 933 
3 996 997 933 
3 953 933 997 
3 934 933 953 
3 320 328 378 
3 378 379 320 
3 321 320 379 
3 322 321 379 
3 358 376 335 
3 376 377 335 
3 336 335 377 
3 380 347 397 
3 359 347 380 
3 397 421 380 
3 392 380 421 
3 816 817 780 
3 817 818 780 
3 802 780 818 
3 801 816 780 
3 816 801 824 
3 301 291 317 
3 277 291 301 
3 542 582 555 
3 831 830 857 
3 243 242 289 
3 201 242 243 
3 202 201 243 
3 274 289 242 
3 275 243 289 
3 237 269 307 
3 270 237 307 
3 861 856 880 
3 807 856 861 
3 880 888 861 
3 834 871 824 
3 816 824 871 
3 871 872 816 
3 817 816 872 
3 818 817 872 
3 843 818 872 
3 787 792 763 
3 811 796 838 
3 787 796 811 
3 792 787 811 
3 265 255 292 
3 256 255 265 
3 944 995 932 
3 995 996 932 
3 994 995 944 
3 912 932 888 
3 932 933 888 
3 889 888 933 
3 933 934 889 
3 844 820 853 
3 781 820 844 
3 782 781 844 
3 825 782 844 
3 774 782 825 
3 821 774 825 
3 882 937 902 
3 704 756 705 
3 756 767 705 
3 757 705 767 
3 706 705 757 
3 767 756 788 
3 743 744 712 
3 614 624 583 
3 557 583 624 
3 624 625 557 
3 558 557 625 
3 584 558 625 
3 615 584 625 
3 223 274 224 
3 242 224 274 
3 401 400 450 
3 450 459 401 
3 459 460 401 
3 402 401 460 
3 241 273 298 
3 221 241 298 
3 222 221 298 
3 223 222 298 
3 298 313 223 
3 313 314 223 
3 274 223 314 
3 472 449 484 
3 439 449 472 
3 808 807 861 
3 168 198 180 
3 198 207 180 
3 198 236 207 
3 236 237 207 
3 482 489 447 
3 483 447 489 
3 448 447 483 
3 426 418 445 
3 389 418 426 
3 445 470 426 
3 470 471 426 
3 730 801 758 
3 780 758 801 
3 757 814 801 
3 814 815 801 
3 767 814 757 
3 730 757 801 
3 706 757 730 
3 489 511 483 
3 596 626 611 
3 626 644 611 
3 643 656 644 
3 656 691 644 
3 690 691 656 
3 626 643 644 
3 326 327 305 
3 181 128 186 
3 186 208 181 
3 152 181 187 
3 841 867 832 
3 867 841 882 
3 840 881 841 
3 881 882 841 
3 831 857 840 
3 857 891 840 
3 890 891 857 
3 881 840 891 
3 244 275 248 
3 275 290 248 
3 244 243 275 
3 141 113 157 
3 114 113 141 
3 86 113 114 
3 63 86 114 
3 403 404 354 
3 362 354 404 
3 404 405 362 
3 404 403 461 
3 461 462 404 
3 405 404 462 
3 207 237 208 
3 307 308 270 
3 252 264 253 
3 612 621 651 
3 272 259 288 
3 240 259 272 
3 220 259 240 
3 357 345 388 
3 407 408 345 
3 388 345 408 
3 862 861 889 
3 888 889 861 
3 655 698 672 
3 698 728 672 
3 672 728 708 
3 728 729 708 
3 662 672 708 
3 838 875 864 
3 511 512 483 
3 511 519 512 
3 519 542 512 
3 541 542 519 
3 484 483 512 
3 949 950 917 
3 460 461 402 
3 403 402 461 
3 60 92 74 
3 92 126 74 
3 105 126 92 
3 126 127 74 
3 504 515 459 
3 460 459 515 
3 477 460 515 
3 505 477 515 
3 458 503 450 
3 459 450 503 
3 503 504 459 
3 802 818 843 
3 992 993 951 
3 952 951 993 
3 815 814 834 
3 842 851 814 
3 438 395 448 
3 396 395 438 
3 448 483 438 
3 483 484 438 
3 420 448 395 
3 447 448 420 
3 825 886 845 
3 886 893 845 
3 514 520 490 
3 466 465 506 
3 668 704 705 
3 669 668 705 
3 63 43 86 
3 44 43 63 
3 775 774 821 
3 463 481 485 
3 206 205 216 
3 172 205 206 
3 173 172 206 
3 553 587 540 
3 102 101 122 
3 4 101 102 
3 3 101 4 
3 122 147 102 
3 147 172 102 
3 318 367 358 
3 367 391 358 
3 299 318 358 
3 284 318 299 
3 285 284 299 
3 335 299 358 
3 327 367 318 
3 300 299 335 
3 588 589 563 
3 521 563 589 
3 536 563 520 
3 521 520 563 
3 543 521 589 
3 577 543 589 
3 904 884 939 
3 925 939 884 
3 904 905 869 
3 870 869 905 
3 851 869 870 
3 905 906 870 
3 515 527 505 
3 464 485 465 
3 317 363 301 
3 324 362 317 
3 362 363 317 
3 332 303 341 
3 363 364 301 
3 302 301 364 
3 133 124 163 
3 69 124 133 
3 70 69 133 
3 271 286 238 
3 286 271 309 
3 22 75 23 
3 75 94 23 
3 19 93 20 
3 75 20 93 
3 21 20 75 
3 22 21 75 
3 76 23 94 
3 24 23 76 
3 137 107 151 
3 94 107 137 
3 76 94 137 
3 151 167 137 
3 167 168 137 
3 11 72 59 
3 72 103 59 
3 266 231 285 
3 217 231 266 
3 218 217 266 
3 285 299 266 
3 299 300 266 
3 247 258 219 
3 505 528 491 
3 847 827 855 
3 754 778 755 
3 778 779 755 
3 717 754 755 
3 718 717 755 
3 324 354 362 
3 617 664 643 
3 664 665 643 
3 608 663 609 
3 663 664 609 
3 617 609 664 
3 626 617 643 
3 84 85 41 
3 42 41 85 
3 645 644 691 
3 321 322 296 
3 454 453 499 
3 429 453 454 
3 476 499 453 
3 499 500 454 
3 414 453 429 
3 657 695 674 
3 695 701 674 
3 738 739 695 
3 701 695 739 
3 922 919 958 
3 913 919 922 
3 957 958 919 
3 958 959 922 
3 410 449 439 
3 438 449 409 
3 410 409 449 
3 837 838 796 
3 838 839 811 
3 837 863 838 
3 863 875 838 
3 541 561 582 
3 506 549 516 
3 549 569 516 
3 556 562 526 
3 536 526 562 
3 562 563 536 
3 494 556 526 
3 595 562 605 
3 563 562 595 
3 566 565 596 
3 580 566 596 
3 528 565 566 
3 529 528 566 
3 793 814 767 
3 542 555 513 
3 555 556 513 
3 494 513 556 
3 495 494 526 
3 25 24 76 
3 374 426 375 
3 426 435 375 
3 390 375 435 
3 435 436 390 
3 35 81 61 
3 81 111 61 
3 138 154 110 
3 81 110 154 
3 111 81 154 
3 154 155 111 
3 997 998 953 
3 913 896 919 
3 850 896 913 
3 849 896 850 
3 863 850 913 
3 836 850 863 
3 837 836 863 
3 897 863 913 
3 875 863 897 
3 30 29 95 
3 31 30 95 
3 421 397 440 
3 666 673 692 
3 534 575 552 
3 714 700 749 
3 679 685 651 
3 652 651 685 
3 685 686 652 
3 661 652 686 
3 697 659 706 
3 660 659 697 
3 413 453 414 
3 428 476 423 
3 453 423 476 
3 413 423 453 
3 898 923 920 
3 959 960 922 
3 923 922 960 
3 133 134 70 
3 71 70 134 
3 10 70 71 
3 134 135 71 
3 307 347 359 
3 542 541 582 
3 947 954 914 
3 909 914 954 
3 954 978 909 
3 977 978 954 
3 647 648 603 
3 648 647 675 
3 674 675 647 
3 657 674 647 
3 646 657 647 
3 694 695 657 
3 871 834 876 
3 586 587 552 
3 553 552 587 
3 747 762 699 
3 515 504 539 
3 538 539 504 
3 941 940 982 
3 496 497 474 
3 475 474 497 
3 497 498 475 
3 476 475 498 
3 4 102 5 
3 68 5 102 
3 6 5 68 
3 58 6 68 
3 102 123 68 
3 535 554 519 
3 554 561 519 
3 541 519 561 
3 535 518 540 
3 116 115 158 
3 64 115 116 
3 57 64 116 
3 142 158 115 
3 158 159 116 
3 87 57 116 
3 116 117 87 
3 569 568 597 
3 549 568 569 
3 689 664 711 
3 665 664 689 
3 462 461 478 
3 477 491 478 
3 461 477 478 
3 405 462 430 
3 462 463 430 
3 655 654 680 
3 625 654 655 
3 785 810 795 
3 810 836 795 
3 829 836 810 
3 836 837 795 
3 707 730 725 
3 730 758 725 
3 924 925 883 
3 884 883 925 
3 903 924 883 
3 990 991 949 
3 950 949 991 
3 855 894 878 
3 894 917 878 
3 406 416 365 
3 342 365 416 
3 613 652 661 
3 243 244 202 
3 203 202 244 
3 189 203 244 
3 244 248 189 
3 248 249 189 
3 932 926 944 
3 912 926 932 
3 895 926 912 
3 65 98 50 
3 98 99 50 
3 66 50 99 
3 51 50 66 
3 52 51 66 
3 49 65 50 
3 512 542 513 
3 314 315 274 
3 350 351 314 
3 315 314 351 
3 569 570 516 
3 328 306 336 
3 319 306 328 
3 184 213 228 
3 525 524 534 
3 493 524 525 
3 524 575 534 
3 523 572 532 
3 572 581 532 
3 573 532 581 
3 533 532 573 
3 159 209 160 
3 161 160 190 
3 118 160 161 
3 750 773 751 
3 773 787 751 
3 786 787 773 
3 9 70 10 
3 69 70 8 
3 9 8 70 
3 58 69 7 
3 8 7 69 
3 788 793 767 
3 408 407 434 
3 498 499 476 
3 131 130 170 
3 82 130 131 
3 155 182 130 
3 170 130 182 
3 170 171 131 
3 463 485 464 
3 532 533 509 
3 277 278 245 
3 246 245 278 
3 334 375 326 
3 374 375 334 
3 642 663 608 
3 502 547 537 
3 547 559 537 
3 559 578 537 
3 578 579 537 
3 864 865 839 
3 811 839 823 
3 960 961 923 
3 533 574 524 
3 574 575 524 
3 965 966 935 
3 936 935 966 
3 352 401 402 
3 353 352 402 
3 340 348 298 
3 313 298 348 
3 348 349 313 
3 918 951 926 
3 951 952 926 
3 700 631 713 
3 599 713 631 
3 235 268 236 
3 268 269 236 
3 197 235 236 
3 198 197 236 
3 755 779 756 
3 779 788 756 
3 779 812 788 
3 812 813 788 
3 359 360 307 
3 308 307 360 
3 381 429 382 
3 429 443 382 
3 443 444 382 
3 383 382 444 
3 393 383 444 
3 945 939 971 
3 71 72 10 
3 11 10 72 
3 492 480 523 
3 571 572 560 
3 523 560 572 
3 662 688 641 
3 642 641 688 
3 663 642 688 
3 688 709 663 
3 709 710 663 
3 791 827 784 
3 891 936 881 
3 936 937 881 
3 882 881 937 
3 901 935 890 
3 891 890 935 
3 935 936 891 
3 155 200 182 
3 200 221 182 
3 545 499 558 
3 500 499 545 
3 635 586 649 
3 587 586 635 
3 867 882 902 
3 596 611 580 
3 590 580 611 
3 567 580 590 
3 629 666 630 
3 666 681 630 
3 692 693 666 
3 681 666 693 
3 681 682 630 
3 598 630 682 
3 551 598 682 
3 486 551 682 
3 998 999 953 
3 308 309 270 
3 554 540 576 
3 388 418 389 
3 374 389 426 
3 60 74 18 
3 19 18 74 
3 74 93 19 
3 126 105 149 
3 149 150 126 
3 545 558 584 
3 497 522 498 
3 522 544 498 
3 543 544 522 
3 544 557 498 
3 577 583 544 
3 557 544 583 
3 605 604 620 
3 348 383 349 
3 383 393 349 
3 393 394 349 
3 350 349 394 
3 419 391 446 
3 724 766 752 
3 625 655 615 
3 798 831 799 
3 831 840 799 
3 219 220 169 
3 138 169 220 
3 154 138 220 
3 200 154 220 
3 220 240 200 
3 155 154 200 
3 162 213 163 
3 184 163 213 
3 363 362 384 
3 384 362 405 
3 535 540 554 
3 826 827 791 
3 494 472 513 
3 473 472 494 
3 484 513 472 
3 512 513 484 
3 449 438 484 
3 90 91 73 
3 15 73 91 
3 14 73 15 
3 91 92 15 
3 60 15 92 
3 16 15 60 
3 527 528 505 
3 676 683 677 
3 683 716 677 
3 716 717 677 
3 910 927 892 
3 384 405 430 
3 430 431 384 
3 385 384 431 
3 584 585 545 
3 546 545 585 
3 467 479 468 
3 507 508 468 
3 469 468 508 
3 486 469 508 
3 982 983 941 
3 928 941 983 
3 983 984 928 
3 929 928 984 
3 880 912 888 
3 158 183 209 
3 159 158 209 
3 802 843 819 
3 843 852 819 
3 820 819 852 
3 852 853 820 
3 853 852 873 
3 387 386 417 
3 427 442 474 
3 56 61 111 
3 35 61 36 
3 56 36 61 
3 287 286 310 
3 310 311 287 
3 678 667 684 
3 530 580 548 
3 567 548 580 
3 566 580 530 
3 107 106 151 
3 93 106 107 
3 75 93 107 
3 680 698 655 
3 687 698 680 
3 218 266 232 
3 266 267 232 
3 232 233 196 
3 943 916 948 
3 988 989 948 
3 943 948 989 
3 942 948 916 
3 949 943 989 
3 376 358 391 
3 749 773 750 
3 714 749 750 
3 723 714 750 
3 684 677 717 
3 667 677 684 
3 902 903 867 
3 868 867 903 
3 897 898 875 
3 271 270 309 
3 684 717 718 
3 696 684 718 
3 678 684 696 
3 366 599 531 
3 305 318 284 
3 230 229 284 
3 7 6 58 
3 614 613 661 
3 606 613 614 
3 661 670 614 
3 670 671 614 
3 624 614 671 
3 653 624 671 
3 753 754 716 
3 717 716 754 
3 206 212 173 
3 212 213 173 
3 162 173 213 
3 877 887 854 
3 877 916 887 
3 897 913 922 
3 602 603 581 
3 573 581 603 
3 574 573 603 
3 77 78 26 
3 27 26 78 
3 78 79 27 
3 28 27 79 
3 112 84 140 
3 85 84 112 
3 140 156 112 
3 691 690 722 
3 721 722 690 
3 689 690 665 
3 656 665 690 
3 711 720 689 
3 663 711 664 
3 226 251 227 
3 251 262 227 
3 262 251 282 
3 612 652 613 
3 372 381 339 
3 381 372 414 
3 657 650 694 
3 714 723 694 
3 352 353 316 
3 186 180 207 
3 207 208 186 
3 855 878 847 
3 887 894 855 
3 764 792 765 
3 792 797 765 
3 797 798 765 
3 721 737 722 
3 737 761 722 
3 743 722 761 
3 712 722 743 
3 777 784 737 
3 678 696 658 
3 696 704 668 
3 728 698 732 
3 732 759 728 
3 688 662 708 
3 709 708 733 
3 688 708 709 
3 237 236 269 
3 917 918 878 
3 879 878 918 
3 918 926 895 
3 230 231 185 
3 755 756 718 
3 760 775 741 
3 750 751 723 
3 17 60 18 
3 706 730 697 
3 697 730 707 
3 179 178 197 
3 855 854 887 
3 99 98 144 
3 120 99 144 
3 727 769 731 
3 769 781 731 
3 781 782 731 
3 732 731 782 
3 147 205 172 
3 147 146 205 
3 718 756 704 
3 547 546 559 
3 501 546 547 
3 546 585 559 
3 585 607 559 
3 500 546 501 
3 927 910 979 
3 978 979 909 
3 910 909 979 
3 250 225 261 
3 210 225 250 
3 226 210 250 
3 250 251 226 
3 191 190 225 
3 210 191 225 
3 497 496 522 
3 530 529 566 
3 148 175 125 
3 732 782 759 
3 774 759 782 
3 799 840 800 
3 840 841 800 
3 410 439 397 
3 439 440 397 
3 135 136 71 
3 72 71 136 
3 103 72 136 
3 402 403 353 
3 354 353 403 
3 710 711 663 
3 151 178 179 
3 319 320 295 
3 376 391 419 
3 80 81 34 
3 35 34 81 
3 651 652 612 
3 671 727 687 
3 727 731 687 
3 381 382 339 
3 340 339 382 
3 348 340 382 
3 153 152 187 
3 187 199 153 
3 169 153 199 
3 152 153 108 
3 95 108 153 
3 138 109 169 
3 463 462 481 
3 462 478 481 
3 578 559 607 
3 152 129 181 
3 928 911 941 
3 263 333 264 
3 333 344 264 
3 420 419 447 
3 163 164 133 
3 164 163 184 
3 675 674 701 
3 701 702 675 
3 945 972 946 
3 972 973 946 
3 416 469 486 
3 425 469 416 
3 342 416 486 
3 323 322 346 
3 329 308 360 
3 360 361 329 
3 955 929 984 
3 930 929 955 
3 351 352 315 
3 316 315 352 
3 111 155 130 
3 944 926 952 
3 225 246 261 
3 508 551 486 
3 735 771 736 
3 771 777 736 
3 771 790 777 
3 790 791 777 
3 839 838 864 
3 896 835 957 
3 849 835 896 
3 979 980 927 
3 764 763 792 
3 498 557 499 
3 557 558 499 
3 381 414 429 
3 534 552 517 
3 552 553 517 
3 310 337 330 
3 337 369 330 
3 368 369 337 
3 338 330 369 
3 421 422 392 
3 39 62 40 
3 62 83 40 
3 504 503 538 
3 537 538 503 
3 105 104 149 
3 90 104 105 
3 91 90 105 
3 176 177 104 
3 149 104 177 
3 297 331 312 
3 288 297 312 
3 434 452 445 
3 119 118 161 
3 37 56 38 
3 56 82 38 
3 62 38 82 
3 39 38 62 
3 82 56 130 
3 111 130 56 
3 62 82 131 
3 739 738 763 
3 729 741 708 
3 729 760 741 
3 728 760 729 
3 661 686 670 
3 686 726 670 
3 719 726 686 
3 726 727 670 
3 671 670 727 
3 610 626 596 
3 733 708 741 
3 731 732 698 
3 950 951 917 
3 918 917 951 
3 644 645 611 
3 491 477 505 
3 156 201 202 
3 131 171 139 
3 171 188 139 
3 202 203 156 
3 157 156 203 
3 189 157 203 
3 140 201 156 
3 140 139 188 
3 188 201 140 
3 12 11 59 
3 639 615 655 
3 616 615 639 
3 639 640 616 
3 607 616 640 
3 822 846 803 
3 550 570 598 
3 551 550 598 
3 523 532 509 
3 13 73 14 
3 309 310 286 
3 309 337 310 
3 329 337 309 
3 129 128 181 
3 260 249 276 
3 249 248 276 
3 253 254 205 
3 216 205 254 
3 83 84 40 
3 41 40 84 
3 83 62 131 
3 900 901 866 
3 890 866 901 
3 857 866 890 
3 986 987 956 
3 942 956 987 
3 168 180 137 
3 623 650 646 
3 650 657 646 
3 543 577 544 
3 876 907 908 
3 348 382 383 
3 252 0 333 
3 100 0 252 
3 263 252 333 
3 214 245 246 
3 157 189 141 
3 711 735 720 
3 735 736 720 
3 467 466 479 
3 424 466 467 
3 726 719 740 
3 915 942 916 
3 931 942 915 
3 931 956 942 
3 878 879 847 
3 848 847 879 
3 641 640 662 
3 873 909 910 
3 737 736 777 
3 749 748 773 
3 700 748 749 
3 748 794 773 
3 785 773 794 
3 457 456 501 
3 444 456 457 
3 455 500 456 
3 500 501 456 
3 501 502 457 
3 455 454 500 
3 219 259 220 
3 948 942 987 
3 987 988 948 
3 424 467 415 
3 465 466 424 
3 431 465 424 
3 464 465 431 
3 989 990 949 
3 871 876 908 
3 872 873 843 
3 908 914 872 
3 909 872 914 
3 873 872 909 
3 852 843 873 
3 606 589 613 
3 577 589 606 
3 588 613 589 
3 428 475 476 
3 252 253 205 
3 795 837 796 
3 106 178 151 
3 127 166 106 
3 166 178 106 
3 116 159 160 
3 117 116 160 
3 514 495 526 
3 349 350 313 
3 314 313 350 
3 338 370 331 
3 413 414 371 
3 372 371 414 
3 240 241 200 
3 221 200 241 
3 457 502 458 
3 502 503 458 
3 501 547 502 
3 769 802 819 
3 768 802 769 
3 819 820 769 
3 781 769 820 
3 289 274 315 
3 315 316 289 
3 825 845 821 
3 564 565 527 
3 528 527 565 
3 539 564 527 
3 577 606 583 
3 606 614 583 
3 877 874 915 
3 915 916 877 
3 783 804 789 
3 584 615 585 
3 615 616 585 
3 607 585 616 
3 522 521 543 
3 521 522 496 
3 508 507 550 
3 550 551 508 
3 76 77 25 
3 26 25 77 
3 671 680 653 
3 867 868 832 
3 833 832 868 
3 284 285 230 
3 231 230 285 
3 214 209 245 
3 139 140 83 
3 84 83 140 
3 131 139 83 
3 545 546 500 
3 288 258 297 
3 259 258 288 
3 267 266 306 
3 713 748 700 
3 78 128 79 
3 128 129 79 
3 503 502 537 
3 422 441 398 
3 441 442 398 
3 399 398 442 
3 427 399 442 
3 411 399 427 
3 719 707 725 
3 685 707 719 
3 679 707 685 
3 686 685 719 
3 872 871 908 
3 768 780 802 
3 768 769 726 
3 727 726 769 
3 740 768 726 
3 768 740 780 
3 758 780 740 
3 93 74 106 
3 106 74 127 
3 142 141 183 
3 330 331 311 
3 762 747 772 
3 712 691 722 
3 110 109 138 
3 971 972 945 
3 770 742 783 
3 734 742 770 
3 783 789 770 
3 520 514 536 
3 143 119 161 
3 97 119 143 
3 53 52 66 
3 240 273 241 
3 710 709 734 
3 709 742 734 
3 2 101 3 
3 369 368 399 
3 361 368 337 
3 940 927 980 
3 980 981 940 
3 981 982 940 
3 655 672 639 
3 662 639 672 
3 640 639 662 
3 984 985 955 
3 145 144 193 
3 193 204 145 
3 120 144 145 
3 399 411 369 
3 733 741 776 
3 351 350 394 
3 394 400 351 
3 400 401 351 
3 352 351 401 
3 432 433 373 
3 366 432 373 
3 599 366 957 
3 680 671 687 
3 527 515 539 
3 623 646 602 
3 646 647 602 
3 603 602 647 
3 409 396 438 
3 102 172 123 
3 172 173 123 
3 162 123 173 
3 124 123 162 
3 215 204 227 
3 194 204 215 
3 215 227 262 
3 369 370 338 
3 377 376 419 
3 49 48 65 
3 329 361 337 
3 201 188 224 
3 759 760 728 
3 698 687 731 
3 725 740 719 
3 893 886 911 
3 783 776 803 
3 803 804 783 
3 419 420 377 
3 742 733 776 
3 612 613 588 
3 258 259 219 
3 763 764 739 
3 343 344 333 
3 408 418 388 
3 919 896 957 
3 748 957 835 
3 145 194 132 
3 194 195 132 
3 85 86 42 
3 43 42 86 
3 474 475 427 
3 428 427 475 
3 175 148 185 
3 681 699 682 
3 592 593 582 
3 623 622 650 
3 619 622 623 
3 356 387 345 
3 387 407 345 
3 388 389 357 
3 632 633 600 
3 618 600 633 
3 601 600 618 
3 146 147 122 
3 573 574 533 
3 599 748 713 
3 434 445 418 
3 408 434 418 
3 194 145 204 
3 392 422 398 
3 733 742 709 
3 776 783 742 
3 407 387 417 
3 135 165 136 
3 103 125 59 
3 526 536 514 
3 472 473 439 
3 440 439 473 
3 309 308 329 
3 451 480 452 
3 697 707 679 
3 794 748 835 
3 809 794 835 
3 828 809 835 
3 158 142 183 
3 443 429 454 
3 454 455 443 
3 216 254 255 
3 588 563 595 
3 595 612 588 
3 653 654 624 
3 625 624 654 
3 211 227 204 
3 311 310 330 
3 331 330 338 
3 993 994 952 
3 944 952 994 
3 770 771 734 
3 735 734 771 
3 361 398 368 
3 398 399 368 
3 360 392 361 
3 392 398 361 
3 794 810 785 
3 786 785 795 
3 100 101 1 
3 2 1 101 
3 261 280 250 
3 193 211 204 
3 262 304 215 
3 262 283 304 
3 304 325 215 
3 195 215 325 
3 194 215 195 
3 117 160 118 
3 80 110 81 
3 976 977 954 
3 134 174 135 
3 165 135 174 
3 133 164 134 
3 164 174 134 
3 272 273 240 
3 785 786 773 
3 162 163 124 
3 836 829 850 
3 99 120 66 
3 120 121 66 
3 67 66 121 
3 955 956 930 
3 931 930 956 
3 601 618 591 
3 618 622 591 
3 619 591 622 
3 224 242 201 
3 830 831 797 
3 798 797 831 
3 386 387 356 
3 359 380 360 
3 380 392 360 
3 509 492 523 
3 870 906 876 
3 906 907 876 
3 281 282 251 
3 282 283 262 
3 161 191 143 
3 192 191 210 
3 633 634 618 
3 98 97 143 
3 65 97 98 
3 136 148 103 
3 125 103 148 
3 568 567 590 
3 590 597 568 
3 610 617 626 
3 333 366 343 
3 366 373 343 
3 748 599 957 
3 276 291 260 
3 123 124 68 
3 58 68 124 
3 69 58 124 
3 605 621 595 
3 612 595 621 
3 156 157 112 
3 113 112 157 
3 654 653 680 
3 96 88 118 
3 88 117 118 
3 87 117 88 
3 114 115 63 
3 64 63 115 
3 126 150 127 
3 150 166 127 
3 251 250 281 
3 860 880 856 
3 96 119 89 
3 96 118 119 
3 720 721 689 
3 690 689 721 
3 954 947 975 
3 975 976 954 
3 63 64 44 
3 45 44 64 
3 395 396 378 
3 379 378 396 
3 895 912 880 
3 301 302 277 
3 278 277 302 
3 320 319 328 
3 774 775 759 
3 760 759 775 
3 620 621 605 
3 1 0 100 
3 715 703 724 
3 226 227 211 
3 991 992 950 
3 951 950 992 
3 835 849 828 
3 849 850 828 
3 829 828 850 
3 167 198 168 
3 197 198 179 
3 167 179 198 
3 854 855 826 
3 827 826 855 
3 455 456 443 
3 444 443 456 
3 922 923 897 
3 898 897 923 
3 17 16 60 
3 693 699 681 
3 190 191 161 
3 525 534 510 
3 740 725 758 
3 141 142 114 
3 115 114 142 
3 112 113 85 
3 86 85 113 
3 463 464 430 
3 431 430 464 
3 789 790 770 
3 771 770 790 
3 851 842 869 
3 845 846 821 
3 822 821 846 
3 618 634 622 
3 121 120 145 
3 815 824 801 
3 795 796 786 
3 787 786 796 
3 736 737 720 
3 721 720 737 
3 427 428 411 
3 412 411 428 
3 423 412 428 
3 811 823 792 
3 784 777 791 
3 66 67 53 
3 54 53 67 
3 211 210 226 
3 97 89 119 
3 320 321 295 
3 296 295 321 
3 656 643 665 
3 985 986 955 
3 956 955 986 
3 734 735 710 
3 711 710 735 
3 883 884 858 
3 859 858 884 
3 567 568 548 
3 549 548 568 
3 164 184 174 
3 384 385 363 
3 364 363 385 
3 210 211 192 
3 193 192 211 
3 292 293 265 
3 37 36 56 
3 89 97 65 
3 815 834 824 
3 828 829 809 
3 810 809 829 
3 406 425 416 
3 696 718 704 
3 495 514 490 
3 554 576 561 
3 73 104 90 
3 305 327 318 
3 167 151 179 
3 94 75 107 
3 809 810 794 
3 460 477 461 
3 279 280 261 
3 256 265 257 
3 263 264 252 
3 91 105 92 
