OFF
1401 2716 0
0 0 31 
0 3 84 
0 193 98 
0 194 252 
0 195 99 
0 206 102 
0 218 104 
0 222 250 
0 232 100 
0 234 251 
0 241 102 
0 250 104 
0 255 252 
0 256 112 
0 261 252 
0 265 104 
0 270 253 
0 271 104 
0 288 248 
0 289 105 
0 294 251 
0 299 97 
0 309 249 
0 314 88 
0 315 251 
0 317 91 
0 318 243 
0 320 91 
0 324 252 
0 326 87 
0 327 249 
0 329 89 
0 330 251 
0 332 94 
0 333 249 
0 335 101 
0 336 247 
0 337 112 
0 341 245 
0 343 88 
0 347 221 
0 408 244 
0 409 81 
0 410 249 
0 412 97 
0 417 247 
0 418 56 
0 419 249 
0 421 45 
0 422 250 
0 477 238 
0 478 33 
0 480 240 
1 203 96 
1 204 237 
2 252 252 
2 253 97 
2 286 105 
2 471 246 
2 472 33 
3 189 99 
3 191 254 
3 204 253 
3 205 100 
3 207 247 
3 221 104 
3 222 252 
3 223 101 
3 233 106 
3 234 252 
3 235 101 
3 249 252 
3 250 95 
3 264 252 
3 275 121 
3 285 252 
3 290 107 
3 305 94 
3 314 95 
3 315 248 
3 379 113 
3 393 150 
3 418 90 
3 469 34 
3 473 252 
4 218 103 
4 219 253 
4 225 252 
4 226 100 
4 262 102 
4 265 104 
4 317 88 
4 318 250 
4 319 111 
4 332 93 
4 333 245 
4 343 93 
4 344 252 
4 378 253 
4 412 251 
4 417 248 
4 421 245 
5 194 93 
5 220 101 
5 222 252 
5 223 100 
5 228 252 
5 229 100 
5 231 252 
5 233 106 
5 234 252 
5 240 252 
5 255 250 
5 326 88 
5 329 95 
5 335 87 
5 464 252 
6 241 103 
6 264 246 
6 341 250 
6 435 249 
6 458 251 
6 460 28 
7 397 110 
7 398 249 
7 457 26 
7 460 246 
8 326 91 
8 327 238 
9 256 108 
9 299 98 
9 300 250 
9 321 252 
9 412 110 
10 223 100 
10 225 252 
10 232 101 
10 247 103 
10 249 251 
10 276 252 
10 277 105 
10 447 245 
10 448 26 
11 320 95 
11 371 250 
11 444 246 
11 445 24 
11 449 253 
12 243 252 
12 272 119 
12 311 98 
12 312 250 
12 354 51 
12 440 252 
12 442 25 
13 287 99 
13 288 250 
13 439 24 
13 442 249 
14 351 241 
14 379 94 
14 380 249 
14 436 26 
14 437 253 
15 242 84 
15 262 101 
15 311 90 
15 349 109 
16 258 252 
16 326 91 
16 428 252 
16 430 24 
16 431 252 
17 208 100 
17 427 24 
18 237 251 
18 410 252 
18 423 244 
18 424 29 
18 425 252 
19 213 250 
19 226 100 
19 303 249 
19 332 85 
19 333 253 
19 421 22 
20 299 99 
20 417 228 
20 418 22 
20 419 252 
21 364 100 
21 398 252 
21 415 25 
22 324 253 
22 410 251 
22 412 23 
22 413 252 
23 320 97 
24 238 103 
24 288 250 
24 289 105 
25 237 252 
25 403 23 
26 400 24 
26 401 252 
29 391 26 
30 186 252 
30 277 104 
30 391 249 
31 214 99 
31 385 25 
31 386 252 
32 334 107 
33 378 253 
33 379 20 
34 374 252 
34 376 24 
35 373 18 
35 377 252 
35 464 252 
37 268 103 
37 366 250 
37 367 20 
37 370 249 
38 364 23 
39 361 23 
39 362 252 
40 172 97 
41 315 90 
41 354 249 
41 355 22 
41 356 250 
42 318 252 
42 352 22 
43 162 251 
43 315 252 
43 349 22 
43 350 248 
44 342 244 
45 343 22 
46 146 96 
46 343 249 
47 337 21 
48 335 246 
49 330 252 
49 331 20 
50 141 252 
50 327 245 
50 328 20 
51 139 94 
51 325 24 
51 328 249 
52 322 23 
53 322 249 
54 298 109 
54 316 21 
54 463 245 
54 464 68 
55 165 252 
55 315 252 
55 465 242 
56 303 252 
56 309 251 
56 310 18 
56 451 252 
56 452 66 
56 454 251 
56 455 75 
56 464 71 
57 163 96 
57 307 25 
57 310 249 
57 457 249 
58 304 21 
59 204 40 
59 300 252 
59 301 18 
59 304 249 
59 451 249 
59 452 66 
60 294 251 
60 298 16 
60 435 242 
61 295 22 
61 298 249 
61 434 84 
61 440 70 
62 246 25 
62 433 249 
62 445 247 
62 446 62 
63 288 247 
63 289 27 
63 424 249 
63 428 72 
64 200 249 
64 425 65 
64 426 246 
64 431 86 
65 117 92 
65 201 36 
65 282 247 
65 283 24 
65 286 249 
65 422 71 
65 423 239 
65 430 251 
65 439 247 
65 440 69 
65 442 246 
65 443 76 
65 445 248 
66 206 238 
66 427 251 
66 428 82 
67 414 239 
67 442 252 
67 443 63 
67 449 92 
68 421 245 
68 445 248 
68 446 67 
68 448 249 
68 455 73 
69 270 249 
69 271 24 
69 419 86 
69 422 57 
69 424 250 
69 425 69 
69 443 68 
69 449 65 
69 451 249 
69 452 64 
69 454 249 
70 427 252 
70 437 59 
70 448 249 
70 455 59 
70 457 250 
71 406 249 
71 407 61 
71 418 244 
71 431 66 
71 432 243 
71 454 249 
72 180 37 
72 185 253 
72 186 36 
72 198 17 
72 261 251 
72 262 25 
72 413 83 
72 415 248 
72 416 69 
72 419 70 
72 439 249 
73 182 239 
73 183 66 
73 195 55 
73 197 246 
73 255 225 
73 259 24 
73 418 244 
73 445 249 
73 446 53 
73 448 249 
73 449 54 
73 451 248 
73 452 65 
74 256 24 
74 259 248 
74 391 249 
74 403 249 
74 404 60 
74 405 254 
74 407 69 
74 412 247 
74 419 74 
74 421 252 
74 422 88 
74 436 249 
74 437 63 
74 439 249 
74 440 67 
75 191 209 
75 253 21 
75 312 97 
75 392 73 
75 416 76 
75 418 252 
75 431 55 
75 442 249 
75 443 49 
75 445 248 
75 446 51 
76 192 18 
76 231 34 
76 253 249 
76 403 249 
76 404 68 
76 422 84 
76 423 239 
76 428 76 
76 429 245 
76 439 249 
76 440 65 
76 457 247 
76 458 68 
77 243 240 
77 246 253 
77 333 252 
77 394 249 
77 395 57 
77 397 249 
77 398 55 
77 400 249 
77 401 60 
77 448 250 
77 449 70 
78 194 239 
78 195 14 
78 244 20 
78 409 252 
78 410 70 
78 433 249 
78 434 75 
78 436 249 
78 437 67 
78 445 249 
78 446 57 
78 451 249 
78 452 71 
78 453 240 
79 237 250 
79 243 252 
79 383 54 
79 385 249 
79 386 68 
79 390 251 
79 395 55 
79 427 252 
79 428 60 
79 430 252 
79 431 64 
79 439 249 
79 440 72 
80 129 252 
80 238 21 
80 388 249 
80 389 58 
80 392 55 
80 393 251 
80 396 248 
80 398 58 
80 400 249 
80 401 62 
80 425 62 
80 433 249 
80 434 49 
81 237 252 
81 379 249 
81 380 54 
81 391 249 
81 395 52 
81 436 249 
81 438 236 
82 231 251 
82 232 20 
82 392 50 
82 397 249 
82 398 52 
82 437 60 
83 385 249 
83 386 55 
83 389 49 
83 390 250 
83 394 249 
83 427 249 
83 428 65 
83 433 248 
83 434 55 
83 435 235 
84 377 45 
84 388 249 
84 395 53 
84 396 250 
84 398 66 
84 399 249 
85 219 244 
85 223 26 
85 225 251 
85 378 249 
85 380 52 
85 381 252 
85 383 46 
85 389 52 
85 391 249 
85 392 49 
85 393 249 
85 401 64 
85 419 57 
85 420 242 
86 220 26 
86 388 249 
86 403 252 
87 216 248 
87 217 23 
87 219 251 
87 385 249 
87 386 62 
87 389 57 
87 401 63 
87 422 61 
88 210 250 
88 388 250 
88 394 249 
88 395 52 
88 400 250 
88 404 50 
89 195 57 
89 211 23 
89 377 52 
89 378 249 
89 380 55 
89 382 249 
89 383 61 
89 397 248 
89 398 57 
89 401 56 
89 402 251 
89 405 252 
89 422 249 
90 180 33 
90 195 252 
90 207 250 
90 208 24 
90 210 252 
90 389 60 
90 407 59 
90 408 253 
90 410 48 
91 376 247 
91 377 80 
92 180 252 
92 379 249 
92 392 56 
92 393 252 
92 400 248 
92 401 57 
92 402 252 
92 404 57 
92 405 248 
93 199 28 
93 380 63 
93 382 246 
93 383 40 
93 391 252 
93 397 252 
93 398 55 
94 195 243 
94 196 25 
94 198 251 
94 385 250 
94 386 56 
94 388 252 
94 389 45 
94 395 94 
95 189 252 
96 190 20 
96 315 249 
97 186 200 
97 187 18 
97 189 250 
98 387 72 
98 388 252 
99 117 252 
99 118 91 
99 180 229 
99 181 24 
99 383 252 
99 384 53 
99 385 252 
101 175 24 
101 377 252 
101 378 67 
101 379 250 
102 171 246 
102 172 22 
102 174 246 
102 381 75 
103 169 26 
103 380 252 
103 401 251 
103 402 57 
104 168 252 
104 381 85 
104 383 252 
104 384 55 
104 404 251 
105 405 66 
106 375 85 
106 378 71 
106 380 252 
106 384 67 
106 385 250 
107 157 18 
107 377 252 
107 381 68 
107 382 251 
107 407 252 
107 408 76 
108 156 243 
108 380 252 
108 398 252 
108 399 92 
109 78 72 
109 120 251 
109 138 250 
109 139 91 
109 150 252 
109 151 22 
109 378 62 
109 381 61 
109 387 94 
109 401 252 
109 402 71 
110 115 92 
110 121 92 
110 148 20 
110 375 62 
111 120 251 
111 374 252 
111 380 252 
111 381 50 
111 382 251 
111 413 253 
112 117 250 
112 375 56 
112 376 251 
112 414 90 
113 72 240 
113 118 90 
113 138 249 
113 139 24 
113 141 249 
113 378 63 
114 380 252 
114 381 51 
114 416 253 
115 117 252 
115 382 247 
115 417 82 
116 129 249 
116 130 21 
116 334 252 
116 336 80 
116 377 252 
116 378 59 
116 380 252 
116 381 61 
117 59 87 
117 375 63 
117 407 252 
117 408 79 
117 410 253 
117 419 252 
118 123 249 
118 124 19 
118 374 252 
118 377 252 
118 402 82 
118 404 252 
118 405 80 
118 411 64 
118 420 62 
119 47 86 
119 48 243 
119 121 24 
119 129 250 
119 378 62 
119 407 252 
119 408 75 
119 410 252 
119 419 252 
120 404 252 
120 405 64 
120 411 71 
120 413 252 
120 414 64 
121 120 240 
121 378 62 
121 379 249 
121 381 77 
121 382 252 
121 401 252 
121 402 72 
121 407 252 
122 112 18 
122 372 63 
122 373 252 
122 375 60 
122 376 250 
122 399 66 
122 404 252 
123 109 20 
123 111 253 
123 395 252 
123 405 67 
124 102 241 
124 108 238 
124 378 58 
124 379 251 
124 381 88 
124 401 252 
124 402 64 
124 404 252 
125 103 19 
125 110 91 
125 393 63 
126 372 70 
126 376 250 
126 390 70 
126 392 252 
126 396 61 
127 371 252 
127 378 51 
127 393 62 
127 394 250 
128 108 253 
128 372 64 
128 374 252 
128 375 67 
128 380 252 
128 381 66 
128 383 252 
128 384 64 
128 385 252 
129 377 252 
129 387 60 
129 388 252 
130 87 190 
130 88 23 
130 378 65 
130 381 67 
131 371 252 
131 379 252 
131 382 252 
132 270 242 
132 271 76 
132 369 80 
132 372 71 
132 381 83 
133 79 13 
133 324 87 
133 325 252 
133 368 244 
133 371 250 
133 374 252 
133 375 61 
133 376 251 
134 369 62 
134 372 61 
135 371 249 
136 27 242 
136 127 91 
137 129 253 
137 130 91 
142 45 229 
142 147 253 
142 456 244 
142 458 81 
143 40 82 
143 148 93 
143 241 92 
143 455 75 
143 478 242 
146 447 248 
148 339 88 
149 465 236 
149 467 71 
150 464 75 
150 468 243 
151 461 72 
151 462 249 
152 255 86 
152 256 252 
152 454 246 
153 421 246 
153 422 88 
154 451 249 
154 452 80 
155 446 82 
158 413 45 
158 414 249 
159 416 28 
159 417 249 
159 432 249 
160 419 44 
160 420 251 
160 431 79 
160 479 34 
161 412 245 
161 477 247 
162 413 64 
162 414 249 
163 469 246 
163 470 33 
164 467 28 
165 464 29 
165 465 252 
165 471 253 
166 460 246 
166 461 29 
166 462 252 
167 457 245 
167 458 27 
168 454 248 
168 455 30 
169 452 26 
169 455 252 
170 331 241 
170 449 30 
171 333 76 
171 334 252 
171 449 248 
172 443 26 
173 439 244 
173 440 24 
173 441 253 
174 436 248 
174 437 26 
176 390 249 
176 429 252 
176 431 24 
177 428 26 
177 432 252 
178 392 86 
178 424 240 
178 425 22 
178 426 252 
179 422 30 
180 418 244 
180 419 25 
180 420 252 
182 412 247 
182 413 26 
183 409 241 
183 410 21 
184 405 252 
184 407 25 
184 410 247 
185 404 24 
186 399 252 
186 401 23 
186 402 252 
187 398 24 
187 477 251 
188 393 252 
188 395 23 
189 390 252 
189 392 23 
189 395 249 
190 389 23 
191 384 252 
191 386 18 
191 387 252 
193 380 21 
194 376 244 
194 377 22 
194 378 252 
196 370 251 
196 371 21 
197 244 252 
197 245 91 
198 364 251 
198 365 20 
198 369 252 
199 362 24 
199 363 252 
203 348 251 
203 350 22 
204 347 21 
205 343 250 
205 344 23 
205 347 249 
207 337 238 
208 330 251 
208 335 24 
209 332 21 
209 333 252 
211 326 18 
212 326 249 
214 316 230 
215 314 21 
216 304 252 
217 308 20 
217 311 249 
217 459 57 
217 460 240 
218 446 253 
218 447 66 
218 448 243 
218 450 76 
218 452 249 
219 201 236 
219 202 36 
219 453 72 
220 299 18 
220 457 243 
220 462 69 
221 299 249 
222 463 242 
223 289 250 
223 290 19 
223 428 250 
223 429 79 
223 443 247 
223 444 63 
223 446 248 
223 447 78 
223 455 250 
223 456 88 
224 213 245 
224 426 67 
224 449 249 
225 283 246 
225 284 25 
225 287 249 
225 422 249 
225 423 67 
225 425 249 
225 450 68 
226 199 26 
226 281 16 
226 432 64 
226 433 242 
227 274 252 
228 124 251 
228 125 93 
228 275 24 
228 420 85 
228 428 251 
228 429 68 
228 430 240 
228 452 249 
228 453 73 
229 127 252 
229 271 248 
229 272 24 
229 275 247 
229 419 251 
229 432 75 
229 449 249 
229 450 64 
230 192 229 
230 193 50 
230 198 231 
230 199 13 
230 201 248 
230 269 23 
230 416 251 
230 417 74 
230 420 60 
230 422 252 
230 426 74 
230 437 247 
230 438 60 
230 440 249 
230 447 67 
231 202 85 
231 265 252 
231 269 248 
231 419 244 
231 423 60 
231 425 252 
231 446 249 
231 449 249 
231 450 64 
232 111 92 
232 184 51 
232 259 252 
232 263 21 
232 404 249 
232 405 63 
232 434 248 
232 435 81 
232 437 249 
232 438 74 
232 440 249 
232 441 69 
232 443 249 
232 444 65 
232 447 74 
233 183 253 
233 189 239 
233 190 73 
233 198 203 
233 260 24 
233 407 249 
233 408 70 
233 431 248 
233 432 77 
233 446 249 
233 455 246 
233 456 68 
233 457 239 
234 238 46 
234 260 248 
234 434 249 
234 447 46 
234 448 241 
235 124 252 
235 125 93 
235 195 245 
235 196 13 
235 238 232 
235 389 249 
235 390 64 
235 435 62 
235 437 249 
235 438 64 
235 444 60 
235 445 241 
236 181 57 
236 189 211 
236 190 35 
236 192 223 
236 193 31 
236 247 249 
236 251 20 
236 402 58 
236 404 249 
236 405 75 
236 429 70 
236 450 61 
236 459 62 
237 183 237 
237 184 37 
237 248 22 
237 251 249 
237 383 249 
237 384 65 
237 401 249 
237 437 249 
237 438 63 
237 440 249 
237 441 61 
237 443 251 
237 444 64 
237 446 250 
237 454 241 
237 456 62 
237 458 246 
238 244 247 
238 245 20 
238 248 252 
238 389 249 
238 398 249 
238 399 58 
238 410 252 
238 411 79 
239 241 253 
239 242 21 
239 381 41 
239 387 69 
239 420 63 
239 421 243 
239 431 249 
239 443 249 
239 444 61 
240 192 242 
240 235 249 
240 239 24 
240 380 249 
240 381 89 
240 382 245 
240 384 67 
240 385 252 
240 396 61 
240 415 235 
241 193 60 
241 220 63 
241 236 17 
241 238 252 
241 387 59 
241 388 248 
241 390 57 
241 394 243 
241 429 72 
241 431 249 
241 432 52 
242 195 233 
242 232 252 
242 233 24 
242 235 252 
242 241 252 
242 381 68 
242 392 249 
242 393 51 
242 399 58 
242 401 249 
242 402 54 
242 425 241 
242 426 71 
242 428 249 
242 434 249 
243 196 18 
243 378 54 
243 379 252 
243 382 250 
243 386 249 
243 387 54 
243 390 49 
243 394 252 
243 396 49 
243 397 252 
243 420 72 
243 423 62 
243 429 65 
243 431 248 
243 432 64 
243 435 55 
244 381 50 
244 384 55 
244 389 249 
244 392 249 
244 393 56 
244 422 241 
244 425 240 
244 426 63 
244 428 244 
244 434 248 
245 220 246 
245 377 249 
245 382 252 
245 386 249 
245 387 50 
245 390 52 
245 399 68 
245 423 59 
245 429 58 
246 389 249 
246 395 248 
246 398 248 
246 425 248 
247 217 251 
247 218 25 
247 244 253 
247 245 86 
247 378 43 
247 384 56 
247 385 252 
247 390 49 
247 392 249 
247 393 57 
247 396 62 
247 399 61 
247 401 251 
248 379 251 
248 381 44 
248 382 249 
248 389 249 
248 394 252 
249 196 56 
249 208 252 
249 387 66 
249 390 49 
249 392 249 
249 393 59 
249 398 248 
249 402 54 
250 196 253 
250 209 23 
250 381 60 
250 389 249 
250 394 252 
250 399 54 
250 400 250 
250 403 252 
250 405 54 
250 406 250 
251 178 58 
251 208 252 
251 382 248 
251 384 60 
251 385 252 
251 390 55 
251 391 250 
251 393 57 
251 396 61 
251 408 44 
252 178 240 
252 395 251 
252 398 253 
252 399 63 
252 405 50 
253 387 54 
253 389 251 
253 390 62 
253 396 53 
253 401 253 
253 402 87 
253 406 249 
254 193 252 
254 196 246 
254 197 27 
254 386 251 
254 394 253 
255 194 25 
256 187 237 
256 191 18 
256 193 251 
257 259 251 
257 260 77 
257 263 253 
259 385 52 
259 386 252 
260 178 253 
260 179 24 
261 175 247 
261 176 25 
262 169 249 
262 173 22 
262 178 253 
262 383 252 
263 170 24 
263 172 247 
263 382 61 
264 385 84 
264 402 251 
265 383 250 
265 403 54 
266 157 252 
266 402 252 
266 405 252 
267 158 19 
267 382 57 
267 400 90 
267 406 47 
268 155 22 
268 381 252 
268 405 252 
269 157 246 
269 398 253 
270 378 252 
270 396 252 
270 397 81 
271 411 253 
272 148 241 
272 379 67 
273 139 249 
273 140 21 
273 380 251 
273 382 71 
273 383 251 
274 137 27 
274 378 252 
274 379 67 
274 402 252 
274 403 80 
274 415 75 
275 139 249 
276 417 252 
277 97 253 
277 98 90 
277 127 249 
277 128 23 
277 376 63 
279 118 249 
279 122 21 
279 334 83 
279 375 252 
279 378 252 
279 400 83 
279 402 252 
280 119 20 
280 121 247 
280 332 252 
280 376 68 
280 379 53 
280 399 252 
280 403 70 
280 418 64 
280 419 249 
280 421 84 
280 422 247 
281 116 22 
281 118 250 
281 331 78 
281 378 252 
281 402 252 
281 414 252 
281 415 61 
281 416 239 
282 332 252 
282 375 252 
282 376 62 
282 403 66 
282 405 252 
282 406 59 
282 411 252 
282 412 70 
283 136 252 
283 137 92 
283 148 251 
283 149 93 
283 399 252 
283 400 68 
283 402 252 
284 106 252 
284 107 21 
284 373 62 
284 374 252 
284 406 78 
285 100 243 
285 103 253 
285 104 19 
285 112 253 
285 391 68 
285 393 252 
285 394 67 
286 101 21 
287 387 252 
287 408 252 
288 95 25 
288 120 92 
288 375 252 
288 376 56 
288 378 252 
289 92 20 
289 94 202 
289 105 92 
289 106 253 
289 379 64 
290 384 252 
290 385 64 
290 386 252 
291 28 247 
291 29 82 
291 381 252 
291 382 63 
292 124 253 
292 125 91 
293 265 252 
294 266 82 
294 370 61 
294 372 252 
294 373 62 
294 480 219 
295 369 253 
297 127 253 
298 124 74 
304 40 235 
304 452 248 
304 453 77 
306 480 78 
308 35 19 
308 317 252 
308 480 247 
309 316 85 
311 429 90 
312 427 249 
312 459 69 
313 456 74 
313 457 249 
315 445 246 
316 444 77 
317 440 249 
317 441 79 
317 442 249 
319 435 81 
320 0 32 
320 184 253 
320 185 97 
320 242 252 
320 301 94 
320 302 251 
320 307 92 
320 308 249 
320 313 87 
320 314 249 
320 316 93 
320 317 251 
320 325 88 
320 326 246 
320 334 93 
320 335 252 
320 404 244 
320 405 83 
320 413 245 
320 414 46 
320 415 249 
320 417 46 
320 418 249 
320 420 82 
320 421 250 
320 432 83 
320 433 249 
320 479 235 
320 480 36 
3 699 656 725 
3 632 656 699 
3 725 656 756 
3 655 656 411 
3 542 411 656 
3 601 542 656 
3 632 601 656 
3 570 655 411 
3 804 845 842 
3 845 846 842 
3 843 842 846 
3 844 843 846 
3 846 851 844 
3 851 915 844 
3 1251 1252 1013 
3 1233 1013 1252 
3 1249 1233 1252 
3 1240 1233 1249 
3 1252 1262 1249 
3 1013 1266 1256 
3 1266 1267 1256 
3 1012 1266 1013 
3 1251 1013 1256 
3 1243 1240 1249 
3 1344 1375 1345 
3 1375 1376 1345 
3 1360 1345 1376 
3 5 64 6 
3 64 85 6 
3 969 968 976 
3 917 968 969 
3 918 917 969 
3 968 991 976 
3 991 992 976 
3 990 991 968 
3 953 919 969 
3 925 919 953 
3 920 919 925 
3 932 925 953 
3 953 954 932 
3 945 932 954 
3 919 918 969 
3 741 742 616 
3 709 616 742 
3 717 709 742 
3 729 717 742 
3 742 765 729 
3 753 979 742 
3 765 742 979 
3 765 767 679 
3 645 679 767 
3 653 679 654 
3 643 654 679 
3 644 643 679 
3 645 644 679 
3 767 769 645 
3 73 14 89 
3 15 14 73 
3 546 538 557 
3 516 538 546 
3 565 566 538 
3 557 538 566 
3 534 553 520 
3 535 520 553 
3 421 520 535 
3 553 562 535 
3 536 535 562 
3 537 536 562 
3 514 421 535 
3 349 421 514 
3 312 349 514 
3 535 536 514 
3 777 684 789 
3 675 684 777 
3 770 675 777 
3 789 797 777 
3 792 777 797 
3 957 956 997 
3 933 956 957 
3 956 1014 997 
3 1014 1015 997 
3 1014 996 1028 
3 956 996 1014 
3 955 996 956 
3 324 287 350 
3 220 287 324 
3 324 325 220 
3 301 220 325 
3 350 351 324 
3 325 324 351 
3 351 371 325 
3 371 749 325 
3 302 301 325 
3 303 302 325 
3 325 570 303 
3 570 325 749 
3 749 754 570 
3 655 570 754 
3 754 755 655 
3 468 491 460 
3 491 774 460 
3 748 460 774 
3 435 460 748 
3 398 435 748 
3 371 398 748 
3 748 749 371 
3 1034 1068 1009 
3 1019 1009 1068 
3 1044 1019 1068 
3 1068 1091 1044 
3 1091 1106 1044 
3 1010 1050 1011 
3 1035 1011 1050 
3 1050 1070 1035 
3 1051 1035 1070 
3 1106 1122 1044 
3 1045 1044 1122 
3 1046 1045 1122 
3 1069 1046 1122 
3 1069 1122 1070 
3 1122 1132 1070 
3 1132 1286 1070 
3 1286 1355 1070 
3 1052 1070 1355 
3 1052 1051 1070 
3 1349 1052 1355 
3 1053 1052 1349 
3 1354 1355 1286 
3 1211 1224 1212 
3 1224 1374 1212 
3 1243 1306 1227 
3 1306 1373 1227 
3 1224 1227 1373 
3 1373 1374 1224 
3 1183 1212 1374 
3 1206 1212 1183 
3 1374 1375 1183 
3 1226 1243 1227 
3 1304 1351 1305 
3 1306 1305 1351 
3 1351 1373 1306 
3 1352 1373 1351 
3 707 694 722 
3 651 694 707 
3 694 737 722 
3 737 739 722 
3 739 740 722 
3 713 737 694 
3 719 707 722 
3 722 723 719 
3 735 736 713 
3 736 737 713 
3 624 651 707 
3 9 70 10 
3 70 111 10 
3 546 557 547 
3 557 567 547 
3 566 575 557 
3 567 557 575 
3 565 575 566 
3 593 575 614 
3 567 575 593 
3 605 624 575 
3 614 575 624 
3 559 567 593 
3 1372 1373 1357 
3 1352 1357 1373 
3 595 773 589 
3 773 774 589 
3 773 905 774 
3 905 906 774 
3 873 774 906 
3 947 980 773 
3 905 773 980 
3 579 589 774 
3 573 579 774 
3 562 573 774 
3 537 562 774 
3 785 774 873 
3 508 537 774 
3 491 508 774 
3 612 773 595 
3 1213 1148 1344 
3 1149 1148 1213 
3 1040 1149 1213 
3 1008 1040 1213 
3 1213 1214 1008 
3 1214 1215 1008 
3 267 272 256 
3 268 256 272 
3 272 323 268 
3 323 339 268 
3 318 323 279 
3 272 279 323 
3 323 318 333 
3 332 333 318 
3 290 318 278 
3 279 278 318 
3 369 433 407 
3 408 407 433 
3 338 345 339 
3 345 407 339 
3 407 408 339 
3 268 339 408 
3 260 268 408 
3 408 776 260 
3 433 771 408 
3 771 776 408 
3 947 1233 1182 
3 1222 1182 1233 
3 947 1013 1233 
3 1024 947 1182 
3 1264 979 1339 
3 1264 1265 979 
3 1265 1269 979 
3 1012 979 1269 
3 1266 1012 1269 
3 1264 1339 1330 
3 1339 1353 1330 
3 764 1338 772 
3 1338 1339 772 
3 979 772 1339 
3 1338 764 1372 
3 1357 1338 1372 
3 966 967 936 
3 917 936 967 
3 967 968 917 
3 688 689 674 
3 649 674 689 
3 665 674 640 
3 649 640 674 
3 652 649 689 
3 516 517 499 
3 485 499 517 
3 486 485 517 
3 487 486 517 
3 517 527 487 
3 527 528 487 
3 518 487 528 
3 1358 1345 1360 
3 1289 1345 1358 
3 1376 1377 1360 
3 1377 1378 1360 
3 1378 1379 1360 
3 1379 1380 1360 
3 1215 1345 1289 
3 420 533 520 
3 533 568 520 
3 534 568 560 
3 568 569 560 
3 534 520 568 
3 1103 1067 1118 
3 1034 1067 1103 
3 1066 1067 973 
3 974 973 1067 
3 975 974 1067 
3 1034 975 1067 
3 1103 1104 1034 
3 1089 1034 1104 
3 961 1080 973 
3 1066 973 1080 
3 1061 1080 961 
3 962 961 973 
3 1000 1061 961 
3 984 1000 961 
3 83 116 84 
3 116 219 84 
3 58 121 83 
3 116 83 121 
3 120 141 121 
3 141 142 121 
3 125 121 142 
3 142 147 125 
3 126 125 147 
3 147 219 126 
3 58 49 121 
3 50 49 58 
3 49 120 121 
3 121 122 116 
3 58 59 50 
3 59 84 50 
3 51 50 84 
3 778 754 821 
3 755 754 778 
3 821 824 778 
3 1267 1303 1256 
3 1262 1256 1303 
3 1303 1304 1262 
3 1269 1270 1266 
3 1269 1265 1287 
3 1265 1311 1287 
3 1311 1318 1287 
3 1310 1311 1265 
3 1165 1164 1172 
3 1107 1164 1165 
3 1183 1172 1206 
3 1165 1172 1183 
3 770 771 433 
3 779 780 771 
3 776 771 780 
3 432 472 433 
3 472 770 433 
3 1362 1324 1390 
3 1361 1324 1362 
3 1390 1391 1362 
3 1391 1392 1362 
3 1392 1393 1362 
3 1393 1394 1362 
3 1394 1395 1362 
3 1395 1396 1362 
3 267 279 272 
3 266 279 267 
3 265 279 266 
3 650 627 698 
3 637 627 650 
3 705 627 709 
3 698 627 705 
3 627 616 709 
3 576 616 627 
3 301 302 291 
3 302 303 291 
3 656 655 755 
3 755 778 656 
3 756 656 778 
3 905 955 933 
3 955 956 933 
3 957 958 933 
3 955 905 980 
3 980 947 994 
3 994 947 1024 
3 939 947 773 
3 906 923 873 
3 1245 1271 1268 
3 1271 1272 1268 
3 1150 1271 1245 
3 892 1271 1134 
3 1150 1134 1271 
3 1350 1295 1387 
3 1271 1295 1350 
3 1312 1271 1350 
3 1272 1271 1312 
3 1387 1388 1350 
3 1150 1245 1228 
3 1241 1228 1245 
3 1237 1228 1241 
3 1159 1150 1228 
3 1174 1159 1228 
3 1184 1174 1228 
3 1225 1184 1228 
3 1216 1184 1225 
3 1207 1184 1216 
3 1185 1184 1207 
3 1257 1245 1268 
3 1296 1272 1312 
3 606 612 595 
3 645 769 629 
3 621 629 769 
3 612 621 769 
3 769 773 612 
3 628 653 618 
3 653 654 618 
3 643 618 654 
3 629 619 645 
3 620 619 629 
3 766 767 765 
3 690 765 679 
3 724 719 728 
3 707 719 724 
3 873 1007 874 
3 1007 1029 874 
3 1062 1063 1016 
3 1054 1016 1063 
3 1007 1016 1054 
3 1029 1007 1054 
3 981 874 1029 
3 1054 1055 1029 
3 929 862 984 
3 855 862 929 
3 929 961 941 
3 951 941 961 
3 961 929 984 
3 983 984 862 
3 961 962 951 
3 1292 1261 1301 
3 1263 1261 1292 
3 1292 1293 1263 
3 1248 1301 1261 
3 1301 1302 1292 
3 1293 1294 1263 
3 1283 1263 1294 
3 1260 1300 1248 
3 1300 1301 1248 
3 1242 1260 1248 
3 1282 1300 1260 
3 1214 1344 1215 
3 1344 1345 1215 
3 928 1215 1289 
3 911 928 1289 
3 1278 911 1289 
3 729 765 718 
3 690 718 765 
3 706 718 698 
3 690 698 718 
3 1389 1390 1324 
3 401 390 501 
3 378 390 401 
3 379 378 401 
3 501 502 401 
3 457 401 502 
3 389 501 390 
3 489 514 506 
3 514 521 506 
3 489 312 514 
3 506 507 489 
3 397 312 489 
3 558 547 567 
3 527 547 558 
3 516 547 517 
3 527 517 547 
3 1049 1070 1050 
3 1238 1217 1246 
3 1208 1217 1238 
3 1229 1255 1246 
3 1255 1319 1246 
3 1217 1229 1246 
3 1244 1238 1246 
3 1216 1229 1217 
3 1237 1255 1229 
3 1230 1208 1238 
3 1200 1208 1230 
3 1201 1200 1230 
3 1202 1201 1230 
3 754 749 821 
3 895 874 913 
3 786 874 895 
3 821 786 895 
3 749 786 821 
3 761 756 778 
3 1383 1384 1360 
3 1358 1360 1384 
3 1147 1183 1375 
3 1344 1147 1375 
3 994 1038 980 
3 1025 980 1038 
3 995 980 1025 
3 1024 1037 994 
3 1037 1038 994 
3 1037 1024 1182 
3 938 939 766 
3 773 766 939 
3 926 927 913 
3 927 928 913 
3 938 979 1012 
3 938 765 979 
3 766 765 938 
3 768 979 753 
3 533 269 591 
3 346 269 533 
3 606 447 620 
3 269 447 606 
3 591 269 606 
3 447 619 620 
3 577 618 447 
3 618 619 447 
3 620 621 606 
3 538 526 564 
3 515 526 538 
3 545 554 524 
3 554 555 524 
3 525 524 555 
3 555 556 525 
3 526 525 556 
3 556 563 526 
3 563 564 526 
3 510 526 515 
3 509 526 510 
3 564 565 538 
3 1343 1351 1303 
3 1304 1303 1351 
3 1266 1343 1267 
3 1303 1267 1343 
3 1326 1343 1277 
3 1270 1277 1343 
3 1266 1270 1343 
3 832 824 871 
3 778 824 832 
3 763 778 832 
3 823 886 824 
3 883 824 886 
3 880 824 883 
3 880 881 824 
3 878 824 881 
3 875 824 878 
3 871 824 875 
3 868 832 871 
3 1219 1224 1210 
3 1211 1210 1224 
3 1205 1209 1206 
3 1209 1212 1206 
3 381 344 391 
3 336 344 381 
3 306 344 298 
3 336 298 344 
3 381 382 336 
3 1060 1061 1000 
3 1017 1057 1018 
3 1057 1088 1018 
3 1088 1087 1098 
3 1057 1087 1088 
3 1079 1018 1088 
3 1098 1099 1088 
3 1058 1018 1079 
3 866 1018 983 
3 1018 1058 983 
3 1031 983 1058 
3 352 377 353 
3 377 389 353 
3 389 377 424 
3 1262 1305 1249 
3 1305 1306 1249 
3 1396 1397 1362 
3 1361 1362 1397 
3 1385 1386 1358 
3 1386 1387 1358 
3 1295 1358 1387 
3 595 591 606 
3 409 397 434 
3 287 397 409 
3 409 410 287 
3 434 448 409 
3 970 1165 1082 
3 1146 1082 1165 
3 1165 1173 1146 
3 1173 1183 1146 
3 1147 1146 1183 
3 1148 1147 1344 
3 1093 1147 1148 
3 1192 1219 1210 
3 1133 1147 1093 
3 1082 1133 1093 
3 1094 1093 1148 
3 1095 1094 1148 
3 1140 1191 1145 
3 1191 1248 1145 
3 1117 1191 1140 
3 1080 1191 1117 
3 1128 1117 1140 
3 1203 1239 1191 
3 1239 1248 1191 
3 1248 1261 1145 
3 1261 1263 1145 
3 1319 1320 1281 
3 1320 1321 1281 
3 1307 1281 1321 
3 1308 1307 1321 
3 1321 1324 1308 
3 1324 1321 1337 
3 1320 1337 1321 
3 1337 1388 1324 
3 1309 1308 1324 
3 289 290 264 
3 278 264 290 
3 286 289 264 
3 172 282 264 
3 282 286 264 
3 289 286 309 
3 308 309 286 
3 309 310 289 
3 884 886 885 
3 886 888 885 
3 883 886 884 
3 890 1134 888 
3 885 888 1134 
3 891 893 892 
3 893 894 892 
3 894 897 892 
3 897 1271 892 
3 897 911 1278 
3 1271 897 1278 
3 890 892 1134 
3 1286 1361 1354 
3 1361 1366 1354 
3 1366 1361 1368 
3 1371 1361 1397 
3 1368 1361 1371 
3 821 893 887 
3 891 887 893 
3 893 821 895 
3 823 821 887 
3 886 823 887 
3 908 895 913 
3 926 874 937 
3 913 874 926 
3 102 173 62 
3 63 62 173 
3 64 63 173 
3 85 64 173 
3 173 102 206 
3 4 102 53 
3 62 53 102 
3 60 206 102 
3 274 227 295 
3 206 227 274 
3 209 206 274 
3 173 206 209 
3 227 347 295 
3 347 348 295 
3 274 287 209 
3 201 209 287 
3 180 209 181 
3 201 181 209 
3 85 180 134 
3 180 181 134 
3 103 85 134 
3 104 103 134 
3 1207 1217 1198 
3 1199 1198 1217 
3 1208 1199 1217 
3 774 785 748 
3 785 786 748 
3 313 335 314 
3 335 343 314 
3 335 403 343 
3 403 404 343 
3 306 314 343 
3 391 343 404 
3 424 501 389 
3 501 424 541 
3 246 269 240 
3 234 240 269 
3 258 234 269 
3 227 234 258 
3 191 205 203 
3 205 208 203 
3 204 203 208 
3 208 315 204 
3 205 161 210 
3 191 161 205 
3 210 211 205 
3 123 161 191 
3 124 123 191 
3 176 124 191 
3 81 161 123 
3 1236 1243 1226 
3 1222 1236 1226 
3 1233 1236 1222 
3 1249 1306 1243 
3 1268 1273 1257 
3 1258 1257 1273 
3 1273 1280 1258 
3 1254 1258 1280 
3 1255 1254 1280 
3 1253 1258 1254 
3 1319 1280 1323 
3 1255 1280 1319 
3 1290 1323 1280 
3 500 505 456 
3 423 456 505 
3 417 456 399 
3 400 399 456 
3 423 400 456 
3 1001 1034 1002 
3 1009 1002 1034 
3 577 628 618 
3 667 668 631 
3 628 631 668 
3 653 628 668 
3 617 628 577 
3 106 107 88 
3 8 88 107 
3 107 108 8 
3 68 8 108 
3 108 109 68 
3 7 88 8 
3 67 87 7 
3 87 88 7 
3 122 126 116 
3 612 606 621 
3 269 249 447 
3 246 249 269 
3 299 447 249 
3 587 533 591 
3 777 792 790 
3 792 817 790 
3 819 792 822 
3 817 792 819 
3 791 790 817 
3 1246 1247 1244 
3 1188 1199 1189 
3 1199 1208 1189 
3 741 641 753 
3 616 641 741 
3 617 576 627 
3 577 576 617 
3 627 637 617 
3 631 617 637 
3 299 576 447 
3 576 577 447 
3 576 299 616 
3 1365 1399 1363 
3 1359 1363 1399 
3 1355 1363 1349 
3 1356 1349 1363 
3 1359 1356 1363 
3 78 77 150 
3 22 77 78 
3 150 151 78 
3 21 77 22 
3 77 21 131 
3 130 76 156 
3 20 76 130 
3 21 20 130 
3 155 156 75 
3 76 75 156 
3 130 131 21 
3 963 973 974 
3 964 963 974 
3 668 679 653 
3 650 678 642 
3 667 642 678 
3 631 642 667 
3 175 181 201 
3 135 181 136 
3 175 136 181 
3 198 175 201 
3 39 97 40 
3 97 152 40 
3 119 167 97 
3 159 97 167 
3 152 97 159 
3 96 119 97 
3 167 119 184 
3 115 184 119 
3 909 907 921 
3 898 907 909 
3 921 922 909 
3 904 907 898 
3 836 900 829 
3 900 901 829 
3 898 825 904 
3 857 825 898 
3 901 902 829 
3 902 903 829 
3 825 829 903 
3 903 904 825 
3 346 347 258 
3 227 258 347 
3 269 346 258 
3 343 344 306 
3 307 298 336 
3 288 298 307 
3 285 288 307 
3 316 307 336 
3 308 307 316 
3 336 356 316 
3 330 316 356 
3 356 384 330 
3 330 384 364 
3 384 392 364 
3 392 393 364 
3 964 965 930 
3 931 930 965 
3 942 931 965 
3 924 931 942 
3 915 924 942 
3 974 975 964 
3 965 964 975 
3 941 964 929 
3 930 929 964 
3 668 690 679 
3 101 170 120 
3 170 171 120 
3 171 172 120 
3 162 120 172 
3 141 120 145 
3 145 120 153 
3 145 146 141 
3 157 120 162 
3 153 120 157 
3 153 154 145 
3 162 163 157 
3 49 101 120 
3 163 162 172 
3 1192 1182 1222 
3 1342 1343 1326 
3 1288 1326 1277 
3 797 826 792 
3 822 792 826 
3 815 791 817 
3 826 797 827 
3 822 825 819 
3 131 182 150 
3 166 150 182 
3 77 131 150 
3 438 449 439 
3 449 450 439 
3 372 438 439 
3 388 372 439 
3 436 437 372 
3 437 438 372 
3 151 166 143 
3 166 197 143 
3 143 197 169 
3 193 169 197 
3 1213 1344 1214 
3 873 874 785 
3 786 785 874 
3 980 995 955 
3 365 395 366 
3 395 418 366 
3 418 419 366 
3 367 366 419 
3 368 367 419 
3 419 431 368 
3 431 432 368 
3 369 368 432 
3 432 433 369 
3 345 369 407 
3 89 13 112 
3 14 13 89 
3 56 112 12 
3 13 12 112 
3 112 129 89 
3 118 89 129 
3 129 165 118 
3 387 570 411 
3 402 401 457 
3 457 502 478 
3 502 513 478 
3 409 448 435 
3 448 460 435 
3 1 616 299 
3 165 129 168 
3 138 168 129 
3 148 164 137 
3 138 137 164 
3 164 168 138 
3 175 198 164 
3 168 164 198 
3 287 274 397 
3 198 220 168 
3 220 201 287 
3 198 201 220 
3 207 165 220 
3 149 165 207 
3 165 168 220 
3 259 387 253 
3 387 411 253 
3 490 491 397 
3 467 397 491 
3 468 467 491 
3 569 573 560 
3 561 560 573 
3 562 561 573 
3 1283 1284 1263 
3 1284 1285 1263 
3 1285 1286 1263 
3 1145 1263 1286 
3 544 587 583 
3 587 588 583 
3 544 533 587 
3 578 544 583 
3 907 903 925 
3 904 903 907 
3 907 925 921 
3 925 932 921 
3 920 925 903 
3 917 918 900 
3 918 919 900 
3 919 920 900 
3 901 900 920 
3 902 901 920 
3 903 902 920 
3 909 922 912 
3 922 1006 912 
3 910 909 912 
3 946 1006 922 
3 1006 1036 912 
3 1036 1349 912 
3 663 626 672 
3 610 626 663 
3 663 664 610 
3 672 673 663 
3 611 610 664 
3 636 611 664 
3 664 665 636 
3 671 672 626 
3 707 724 703 
3 714 703 724 
3 695 671 703 
3 695 696 671 
3 671 614 707 
3 625 614 671 
3 671 707 703 
3 626 625 671 
3 615 614 625 
3 624 707 614 
3 588 589 583 
3 1332 1352 1333 
3 1326 1333 1352 
3 1331 1352 1332 
3 1311 1333 1318 
3 1326 1318 1333 
3 1342 1352 1343 
3 1351 1343 1352 
3 1342 1326 1352 
3 1352 1330 1357 
3 1331 1330 1352 
3 1287 1318 1326 
3 1288 1287 1326 
3 1353 1357 1330 
3 937 874 971 
3 874 981 971 
3 981 982 971 
3 948 937 971 
3 960 948 971 
3 1118 1117 1128 
3 1067 1117 1118 
3 1066 1117 1067 
3 1104 1105 1089 
3 1001 975 1034 
3 965 975 1001 
3 1068 1034 1089 
3 1235 1234 1242 
3 1232 1234 1235 
3 1238 1259 1242 
3 1259 1260 1242 
3 1244 1259 1238 
3 1234 1238 1242 
3 1239 1242 1248 
3 950 1215 928 
3 106 135 136 
3 87 135 88 
3 106 88 135 
3 107 106 136 
3 490 489 503 
3 397 489 490 
3 467 468 397 
3 434 397 468 
3 242 212 243 
3 238 212 242 
3 244 245 212 
3 243 212 245 
3 347 358 348 
3 358 385 348 
3 396 358 533 
3 385 358 396 
3 359 348 385 
3 396 533 420 
3 357 533 358 
3 421 420 520 
3 360 421 349 
3 1007 1082 1093 
3 923 1082 1007 
3 1295 1289 1358 
3 191 202 176 
3 194 202 195 
3 196 195 202 
3 194 176 202 
3 204 293 202 
3 196 202 293 
3 293 204 315 
3 0 764 676 
3 764 772 676 
3 768 676 772 
3 677 676 768 
3 800 827 797 
3 800 799 833 
3 789 799 800 
3 833 799 838 
3 797 789 800 
3 788 789 684 
3 689 788 684 
3 1218 1192 1220 
3 1218 1219 1192 
3 1220 1221 1218 
3 1220 1192 1222 
3 1222 1223 1220 
3 583 589 578 
3 579 578 589 
3 591 595 588 
3 589 588 595 
3 1294 1324 1361 
3 1286 1294 1361 
3 1325 1264 1330 
3 1315 1264 1325 
3 1265 1264 1315 
3 1310 1265 1316 
3 350 287 361 
3 206 60 227 
3 234 60 240 
3 227 60 234 
3 1398 1399 1370 
3 1365 1370 1399 
3 1366 1367 1364 
3 1365 1364 1367 
3 1367 1370 1365 
3 1323 1290 1329 
3 1335 1334 1341 
3 1323 1334 1335 
3 1340 1341 1334 
3 1329 1334 1323 
3 1296 1313 1297 
3 1313 1328 1297 
3 1327 1328 1313 
3 1328 1329 1297 
3 1290 1297 1329 
3 690 650 698 
3 1231 1228 1237 
3 225 190 229 
3 224 190 225 
3 221 190 224 
3 233 212 236 
3 229 212 233 
3 167 212 229 
3 190 167 229 
3 229 230 225 
3 230 231 225 
3 144 160 98 
3 160 161 98 
3 80 98 161 
3 40 144 98 
3 80 40 98 
3 41 40 80 
3 80 81 41 
3 144 40 152 
3 159 167 190 
3 152 159 190 
3 144 152 190 
3 763 761 778 
3 572 579 573 
3 571 579 572 
3 521 537 506 
3 507 506 537 
3 508 507 537 
3 1100 1079 1116 
3 1058 1079 1100 
3 1059 1058 1100 
3 1100 1101 1059 
3 1043 1059 1101 
3 1101 1158 1102 
3 1158 1180 1102 
3 1179 1180 1171 
3 1158 1171 1180 
3 1180 1181 1102 
3 1031 1043 1032 
3 1043 1102 1032 
3 1101 1102 1043 
3 1033 1032 1102 
3 1060 1033 1102 
3 1060 1102 1181 
3 1384 1385 1358 
3 293 315 304 
3 315 326 304 
3 353 354 315 
3 342 315 354 
3 326 315 342 
3 319 304 326 
3 1027 1028 996 
3 210 160 214 
3 161 160 210 
3 213 214 160 
3 213 190 215 
3 160 190 213 
3 208 205 211 
3 65 6 86 
3 7 6 65 
3 1278 1295 1271 
3 1304 1305 1262 
3 1347 1350 1348 
3 1350 1388 1348 
3 1346 1350 1347 
3 1096 1095 1148 
3 1084 1095 1096 
3 878 881 879 
3 881 1074 879 
3 885 1074 881 
3 1064 879 1074 
3 1041 879 1064 
3 877 879 1041 
3 1380 1381 1360 
3 1381 1382 1360 
3 23 22 78 
3 640 636 665 
3 600 626 610 
3 945 946 932 
3 921 932 946 
3 1071 1081 1028 
3 1014 1028 1081 
3 1081 1092 1014 
3 1015 1014 1092 
3 1092 1107 1015 
3 1027 1071 1028 
3 1025 1071 1026 
3 1027 1026 1071 
3 236 212 238 
3 238 239 236 
3 1323 1337 1319 
3 1320 1319 1337 
3 1335 1336 1323 
3 1336 1337 1323 
3 156 186 130 
3 199 200 156 
3 186 156 200 
3 155 199 156 
3 788 799 789 
3 798 805 799 
3 805 838 799 
3 838 805 841 
3 841 805 842 
3 666 652 689 
3 684 666 689 
3 716 788 689 
3 927 934 928 
3 934 950 928 
3 926 934 927 
3 940 950 934 
3 982 1008 972 
3 1008 1215 972 
3 950 972 1215 
3 460 434 468 
3 410 435 398 
3 422 435 410 
3 431 430 472 
3 418 430 431 
3 419 418 431 
3 675 770 472 
3 429 466 430 
3 466 472 430 
3 432 431 472 
3 481 532 482 
3 532 675 482 
3 541 611 532 
3 611 636 532 
3 479 532 480 
3 481 480 532 
3 636 640 532 
3 640 649 532 
3 649 652 532 
3 652 666 532 
3 666 675 532 
3 472 482 675 
3 513 532 478 
3 479 478 532 
3 1000 1033 1060 
3 999 1033 1000 
3 1029 1030 981 
3 1008 981 1030 
3 1030 1040 1008 
3 1179 1178 1202 
3 1171 1178 1179 
3 1201 1202 1178 
3 1196 1179 1202 
3 295 359 349 
3 359 360 349 
3 348 359 295 
3 300 295 349 
3 678 650 690 
3 1031 1032 983 
3 1032 1033 983 
3 984 983 1033 
3 999 984 1033 
3 1031 1058 1043 
3 1058 1059 1043 
3 895 896 894 
3 896 897 894 
3 893 895 894 
3 913 914 908 
3 312 397 274 
3 875 876 871 
3 876 877 871 
3 871 872 868 
3 869 868 872 
3 872 877 869 
3 870 869 877 
3 832 868 867 
3 868 869 867 
3 864 832 867 
3 869 870 867 
3 860 832 864 
3 837 832 860 
3 864 865 860 
3 760 763 832 
3 752 760 832 
3 802 752 832 
3 793 752 802 
3 812 791 815 
3 787 791 812 
3 783 787 812 
3 809 783 812 
3 783 775 787 
3 771 775 783 
3 784 783 809 
3 264 265 219 
3 265 266 219 
3 266 267 219 
3 256 219 267 
3 970 1107 1165 
3 387 303 570 
3 1364 1354 1366 
3 1355 1354 1364 
3 1363 1355 1364 
3 1364 1365 1363 
3 911 908 914 
3 423 424 376 
3 377 376 424 
3 341 376 377 
3 352 341 377 
3 375 400 376 
3 400 423 376 
3 392 446 429 
3 446 466 429 
3 300 349 312 
3 1382 1383 1360 
3 883 884 880 
3 882 880 884 
3 884 885 882 
3 1300 1314 1301 
3 1314 1324 1301 
3 1299 1300 1282 
3 1275 1282 1260 
3 1302 1301 1324 
3 1004 978 1035 
3 946 978 1004 
3 945 978 946 
3 1011 1035 978 
3 1035 1051 1004 
3 1005 1052 1006 
3 1052 1053 1006 
3 1036 1006 1053 
3 1051 1052 1004 
3 1005 1004 1052 
3 587 591 588 
3 971 972 960 
3 971 982 972 
3 1134 1150 1109 
3 1123 1109 1150 
3 1150 1159 1123 
3 1159 1160 1123 
3 1135 1123 1160 
3 1160 1161 1135 
3 1108 1134 1109 
3 748 786 749 
3 320 330 364 
3 364 365 320 
3 337 320 365 
3 321 320 337 
3 365 366 337 
3 425 426 391 
3 381 391 426 
3 343 391 344 
3 590 597 580 
3 597 598 580 
3 581 580 598 
3 582 581 598 
3 575 582 598 
3 574 582 575 
3 598 605 575 
3 614 615 593 
3 1072 1007 1093 
3 412 388 439 
3 439 451 412 
3 451 452 412 
3 372 223 436 
3 218 223 372 
3 806 807 782 
3 803 782 807 
3 807 811 803 
3 801 782 803 
3 776 782 801 
3 1041 1042 1017 
3 1042 1065 1017 
3 1057 1017 1065 
3 877 1041 1017 
3 862 866 983 
3 870 877 1017 
3 867 870 1017 
3 866 867 1017 
3 1017 1018 866 
3 352 353 315 
3 1353 1339 1357 
3 117 148 137 
3 10 71 11 
3 71 72 11 
3 71 117 137 
3 71 10 117 
3 137 138 71 
3 72 71 138 
3 112 72 138 
3 129 112 138 
3 111 117 10 
3 934 926 937 
3 714 724 715 
3 716 715 724 
3 937 940 934 
3 616 1 661 
3 764 0 1372 
3 1 0 676 
3 661 1 676 
3 768 772 979 
3 676 677 661 
3 641 616 661 
3 315 341 352 
3 385 396 359 
3 1080 1060 1191 
3 1061 1060 1080 
3 1181 1191 1060 
3 770 775 771 
3 781 771 783 
3 779 771 781 
3 274 300 312 
3 402 403 380 
3 335 380 403 
3 328 380 329 
3 335 329 380 
3 795 796 794 
3 788 794 796 
3 740 752 793 
3 728 740 793 
3 724 728 793 
3 716 724 793 
3 788 716 793 
3 793 794 788 
3 802 837 804 
3 837 849 804 
3 847 804 849 
3 832 837 802 
3 1203 1202 1230 
3 908 911 895 
3 896 895 911 
3 897 896 911 
3 777 787 775 
3 313 305 329 
3 296 305 313 
3 327 328 305 
3 328 329 305 
3 304 319 305 
3 319 327 305 
3 942 965 943 
3 965 1001 943 
3 944 943 1001 
3 952 944 1001 
3 1004 1005 946 
3 1005 1006 946 
3 214 218 210 
3 211 210 218 
3 215 216 213 
3 681 697 682 
3 683 682 697 
3 687 683 697 
3 697 708 687 
3 688 687 708 
3 708 716 688 
3 689 688 716 
3 225 226 224 
3 709 710 705 
3 705 706 698 
3 710 709 717 
3 91 151 143 
3 132 91 143 
3 92 91 132 
3 93 92 132 
3 78 151 91 
3 79 78 91 
3 1291 1281 1308 
3 1274 1281 1291 
3 1307 1308 1281 
3 1308 1309 1291 
3 1250 1245 1257 
3 1245 1250 1241 
3 1253 1254 1250 
3 1241 1250 1254 
3 1254 1255 1241 
3 1237 1241 1255 
3 1231 1237 1229 
3 240 1 249 
3 60 1 240 
3 999 1000 984 
3 1341 1348 1388 
3 1340 1348 1341 
3 1337 1341 1388 
3 1335 1341 1336 
3 1337 1336 1341 
3 916 936 917 
3 900 916 917 
3 966 952 986 
3 936 952 966 
3 985 986 952 
3 935 952 936 
3 986 987 966 
3 247 232 250 
3 244 232 247 
3 250 232 252 
3 247 248 244 
3 212 232 244 
3 769 767 773 
3 245 251 243 
3 251 411 243 
3 251 253 411 
3 241 243 411 
3 988 1021 989 
3 1021 1046 989 
3 1045 1046 1021 
3 1046 1047 989 
3 990 989 1047 
3 990 1047 1022 
3 1047 1048 1022 
3 991 990 1022 
3 992 991 1022 
3 915 943 916 
3 943 944 916 
3 935 916 944 
3 944 952 935 
3 386 410 398 
3 386 287 410 
3 948 949 937 
3 289 311 290 
3 311 318 290 
3 321 322 311 
3 318 311 322 
3 75 74 140 
3 57 74 75 
3 139 140 74 
3 140 155 75 
3 18 74 57 
3 17 74 18 
3 549 559 593 
3 593 594 549 
3 550 549 594 
3 551 550 594 
3 552 551 594 
3 594 599 552 
3 1108 885 1134 
3 914 928 911 
3 781 784 782 
3 784 806 782 
3 806 784 808 
3 812 813 809 
3 813 814 809 
3 808 784 809 
3 809 810 808 
3 1225 1229 1216 
3 1071 1182 1081 
3 1182 1210 1081 
3 1037 1182 1038 
3 1071 1038 1182 
3 1182 1192 1210 
3 1204 1081 1210 
3 1164 1081 1204 
3 1172 1164 1204 
3 1204 1205 1172 
3 1210 1211 1204 
3 1092 1081 1164 
3 291 303 292 
3 303 387 292 
3 283 292 284 
3 292 387 284 
3 1257 1258 1250 
3 372 388 373 
3 388 414 373 
3 340 372 373 
3 413 414 388 
3 414 415 373 
3 415 416 373 
3 416 417 373 
3 399 373 417 
3 845 804 847 
3 805 804 842 
3 847 848 845 
3 842 843 841 
3 843 844 841 
3 326 355 327 
3 355 379 327 
3 378 379 355 
3 379 380 327 
3 327 380 328 
3 180 173 209 
3 775 770 777 
3 787 777 790 
3 578 579 544 
3 571 544 579 
3 310 311 289 
3 750 725 756 
3 745 725 750 
3 730 725 745 
3 19 76 20 
3 661 753 641 
3 753 661 768 
3 144 190 160 
3 923 1007 873 
3 667 690 668 
3 678 690 667 
3 361 362 350 
3 361 287 386 
3 357 346 533 
3 1107 1092 1164 
3 1025 1038 1071 
3 27 93 28 
3 93 113 28 
3 29 28 113 
3 113 93 132 
3 127 113 132 
3 132 143 127 
3 143 169 127 
3 128 127 169 
3 169 183 128 
3 183 184 128 
3 183 169 193 
3 193 212 183 
3 887 888 886 
3 1315 1316 1265 
3 949 972 950 
3 1314 1309 1324 
3 1298 1309 1314 
3 1299 1298 1314 
3 483 411 542 
3 1346 1312 1350 
3 1327 1312 1346 
3 1346 1347 1327 
3 1327 1348 1328 
3 1334 1328 1348 
3 1340 1334 1348 
3 1347 1348 1327 
3 239 241 236 
3 607 630 622 
3 630 639 622 
3 639 646 622 
3 633 622 646 
3 921 946 922 
3 1316 1317 1310 
3 1316 1315 1322 
3 1080 1117 1066 
3 173 180 85 
3 228 235 232 
3 235 252 232 
3 252 235 255 
3 217 190 222 
3 215 190 217 
3 221 222 190 
3 222 223 217 
3 503 508 490 
3 491 490 508 
3 505 540 423 
3 540 541 423 
3 519 540 505 
3 424 423 541 
3 281 280 283 
3 254 280 281 
3 275 254 281 
3 283 284 281 
3 280 254 291 
3 280 292 283 
3 291 292 280 
3 254 220 291 
3 207 220 254 
3 200 207 254 
3 220 301 291 
3 1141 1145 1286 
3 1132 1141 1286 
3 1121 1141 1132 
3 1119 1141 1120 
3 1121 1120 1141 
3 99 133 100 
3 101 100 133 
3 133 177 101 
3 133 187 185 
3 187 188 185 
3 176 187 133 
3 177 133 185 
3 170 101 177 
3 188 189 185 
3 187 176 192 
3 1 60 2 
3 60 61 2 
3 61 60 102 
3 827 800 830 
3 833 834 800 
3 830 800 834 
3 644 645 619 
3 531 530 551 
3 519 530 531 
3 550 551 530 
3 551 552 531 
3 1129 1145 1130 
3 1131 1130 1145 
3 1141 1131 1145 
3 1036 1053 1349 
3 133 124 176 
3 41 124 133 
3 99 41 133 
3 123 124 81 
3 41 81 124 
3 81 80 161 
3 531 540 519 
3 1083 1095 1084 
3 1073 1084 1096 
3 1148 1149 1096 
3 1056 1149 1040 
3 858 837 860 
3 863 860 865 
3 865 866 863 
3 858 859 837 
3 853 837 859 
3 856 853 859 
3 859 862 856 
3 837 853 849 
3 853 854 849 
3 827 828 826 
3 828 829 826 
3 830 831 827 
3 55 56 11 
3 12 11 56 
3 720 731 721 
3 731 732 721 
3 700 720 721 
3 701 700 721 
3 865 864 867 
3 866 865 867 
3 863 866 862 
3 862 861 863 
3 858 861 862 
3 860 863 861 
3 1274 1246 1281 
3 1247 1246 1274 
3 1259 1247 1274 
3 1274 1275 1259 
3 1246 1319 1281 
3 977 1011 978 
3 780 782 776 
3 1223 1227 1224 
3 1220 1223 1224 
3 1221 1220 1224 
3 426 427 381 
3 427 428 381 
3 382 381 428 
3 405 382 428 
3 1012 1013 938 
3 947 938 1013 
3 939 938 947 
3 661 677 768 
3 954 978 945 
3 226 225 231 
3 262 263 235 
3 255 235 263 
3 259 255 263 
3 263 271 259 
3 261 262 235 
3 254 261 235 
3 270 261 273 
3 262 261 270 
3 228 200 254 
3 235 228 254 
3 236 237 233 
3 184 212 167 
3 115 119 37 
3 38 37 119 
3 96 38 119 
3 39 38 96 
3 115 128 184 
3 95 115 35 
3 36 35 115 
3 37 36 115 
3 34 95 35 
3 135 134 181 
3 110 111 70 
3 111 110 117 
3 117 110 136 
3 148 136 164 
3 117 136 148 
3 164 136 175 
3 105 104 134 
3 134 135 105 
3 87 105 135 
3 108 107 136 
3 109 136 110 
3 109 108 136 
3 69 110 70 
3 602 601 607 
3 584 601 602 
3 592 584 602 
3 585 584 592 
3 441 457 478 
3 478 479 441 
3 442 441 479 
3 443 442 479 
3 479 480 443 
3 444 443 480 
3 458 444 480 
3 823 824 821 
3 981 998 982 
3 998 1008 982 
3 1194 1200 1201 
3 1195 1194 1201 
3 840 916 900 
3 915 916 844 
3 840 844 916 
3 836 840 900 
3 935 936 916 
3 208 372 340 
3 412 413 388 
3 218 372 211 
3 436 226 461 
3 223 226 436 
3 208 211 372 
3 315 208 340 
3 461 462 436 
3 461 411 483 
3 237 411 461 
3 241 411 237 
3 231 237 461 
3 226 231 461 
3 1287 1288 1269 
3 1039 1056 1040 
3 131 130 186 
3 182 131 186 
3 833 839 835 
3 839 840 835 
3 838 839 833 
3 150 166 151 
3 1276 1288 1277 
3 1260 1259 1275 
3 203 204 191 
3 202 191 204 
3 1065 1042 1078 
3 594 626 599 
3 600 599 626 
3 615 625 593 
3 625 626 593 
3 594 593 626 
3 1388 1389 1324 
3 57 75 76 
3 237 236 241 
3 282 285 307 
3 286 282 307 
3 228 232 197 
3 212 197 232 
3 620 629 621 
3 483 492 461 
3 492 493 461 
3 462 461 493 
3 493 494 462 
3 494 495 462 
3 473 462 495 
3 462 473 436 
3 1133 1082 1146 
3 658 680 659 
3 680 693 659 
3 692 693 680 
3 660 659 693 
3 693 694 660 
3 651 660 694 
3 635 651 624 
3 1235 1239 1203 
3 804 805 802 
3 794 802 805 
3 793 802 794 
3 795 794 805 
3 796 795 805 
3 798 796 805 
3 475 474 484 
3 449 474 475 
3 438 474 449 
3 450 449 475 
3 1244 1247 1259 
3 1216 1217 1207 
3 860 861 858 
3 849 850 847 
3 852 849 854 
3 854 855 852 
3 182 197 166 
3 186 228 182 
3 197 182 228 
3 186 200 228 
3 199 207 200 
3 997 1015 1107 
3 970 997 1107 
3 568 544 571 
3 533 544 568 
3 571 572 568 
3 558 567 559 
3 1329 1328 1334 
3 834 836 830 
3 1338 1357 1339 
3 888 887 890 
3 889 890 887 
3 285 294 288 
3 294 298 288 
3 298 294 306 
3 1332 1333 1317 
3 1310 1317 1333 
3 1311 1310 1333 
3 319 326 327 
3 333 334 323 
3 906 933 923 
3 933 959 923 
3 959 970 923 
3 970 1082 923 
3 958 959 933 
3 1205 1206 1172 
3 1074 885 1108 
3 529 528 548 
3 518 528 529 
3 558 559 527 
3 528 527 559 
3 548 528 559 
3 743 760 746 
3 752 746 760 
3 751 762 758 
3 759 758 762 
3 762 763 759 
3 760 759 763 
3 99 100 44 
3 45 44 100 
3 82 45 100 
3 516 511 538 
3 497 511 516 
3 498 497 516 
3 546 547 516 
3 499 498 516 
3 193 197 212 
3 184 183 212 
3 55 72 112 
3 56 55 112 
3 393 394 364 
3 115 114 128 
3 94 114 115 
3 95 94 115 
3 831 830 836 
3 891 892 887 
3 889 887 892 
3 276 284 277 
3 284 387 277 
3 271 277 387 
3 560 561 534 
3 553 534 561 
3 561 562 553 
3 1146 1147 1133 
3 271 387 259 
3 255 259 253 
3 1230 1235 1203 
3 1232 1235 1230 
3 898 899 857 
3 899 910 857 
3 910 912 857 
3 1312 1313 1296 
3 177 178 170 
3 174 170 178 
3 178 179 174 
3 890 889 892 
3 1062 1016 1073 
3 1083 1084 1072 
3 1073 1072 1084 
3 1016 1072 1073 
3 1016 1007 1072 
3 1047 1046 1069 
3 241 238 242 
3 242 243 241 
3 257 260 219 
3 52 219 260 
3 126 219 116 
3 52 84 219 
3 260 776 52 
3 942 943 915 
3 1368 1369 1366 
3 1397 1398 1371 
3 1367 1366 1369 
3 370 398 371 
3 1144 1143 1156 
3 1115 1143 1144 
3 1114 1143 1115 
3 1116 1115 1144 
3 657 638 662 
3 639 638 657 
3 646 639 657 
3 662 632 669 
3 638 632 662 
3 669 632 699 
3 699 720 700 
3 720 699 725 
3 1001 1002 952 
3 402 441 403 
3 441 442 403 
3 195 196 176 
3 192 176 196 
3 149 118 165 
3 140 149 207 
3 199 140 207 
3 155 140 199 
3 1093 1094 1072 
3 735 747 736 
3 737 736 747 
3 739 737 747 
3 747 752 739 
3 740 739 752 
3 1331 1332 1325 
3 1322 1325 1332 
3 1322 1315 1325 
3 404 444 391 
3 425 391 444 
3 1270 1269 1277 
3 1276 1277 1269 
3 710 729 718 
3 717 729 710 
3 727 722 740 
3 723 722 727 
3 728 727 740 
3 906 905 933 
3 1202 1203 1196 
3 507 508 489 
3 139 149 140 
3 127 128 113 
3 114 113 128 
3 30 114 31 
3 32 31 114 
3 94 32 114 
3 33 32 94 
3 94 95 33 
3 34 33 95 
3 340 341 315 
3 373 374 340 
3 374 375 340 
3 825 822 826 
3 1160 1159 1174 
3 361 370 362 
3 370 371 362 
3 909 910 898 
3 899 898 910 
3 273 277 270 
3 271 270 277 
3 1316 1322 1332 
3 1317 1316 1332 
3 1139 1158 1101 
3 1100 1139 1101 
3 406 446 392 
3 393 392 429 
3 488 487 518 
3 512 488 518 
3 500 488 512 
3 820 825 857 
3 814 820 857 
3 810 814 857 
3 811 810 857 
3 776 801 52 
3 801 1349 52 
3 857 1349 801 
3 249 1 299 
3 2 61 102 
3 3 2 102 
3 4 3 102 
3 817 818 815 
3 815 816 812 
3 584 542 601 
3 163 172 264 
3 219 163 264 
3 158 163 219 
3 179 282 172 
3 501 541 532 
3 600 611 541 
3 275 284 276 
3 253 252 255 
3 643 644 618 
3 619 618 644 
3 798 799 796 
3 788 796 799 
3 1399 1400 1359 
3 826 829 825 
3 630 601 632 
3 607 601 630 
3 1293 1302 1294 
3 1302 1324 1294 
3 1293 1292 1302 
3 1285 1294 1286 
3 851 855 929 
3 350 371 351 
3 513 501 532 
3 454 471 455 
3 471 488 455 
3 456 455 488 
3 488 500 456 
3 539 540 531 
3 256 257 219 
3 948 972 949 
3 878 879 875 
3 913 928 914 
3 361 386 370 
3 386 398 370 
3 224 226 223 
3 222 224 223 
3 221 224 222 
3 16 90 74 
3 90 149 74 
3 118 149 90 
3 15 90 16 
3 17 16 74 
3 139 74 149 
3 1234 1230 1238 
3 466 465 472 
3 428 465 466 
3 427 465 428 
3 445 428 466 
3 586 585 592 
3 602 603 592 
3 502 501 513 
3 552 599 541 
3 599 600 541 
3 1369 1370 1367 
3 1063 1096 1054 
3 1055 1054 1096 
3 1096 1149 1055 
3 1056 1055 1149 
3 443 444 404 
3 699 700 669 
3 1197 1207 1198 
3 396 420 359 
3 420 421 359 
3 360 359 421 
3 251 250 253 
3 247 250 251 
3 252 253 250 
3 623 635 609 
3 624 609 635 
3 604 609 624 
3 605 604 624 
3 701 702 669 
3 670 669 702 
3 680 670 702 
3 691 680 702 
3 662 669 670 
3 700 701 669 
3 30 29 113 
3 113 114 30 
3 295 300 274 
3 1205 1204 1209 
3 850 851 847 
3 495 509 473 
3 509 510 473 
3 474 473 510 
3 307 308 286 
3 171 170 174 
3 261 254 275 
3 275 276 261 
3 633 648 634 
3 635 634 648 
3 648 651 635 
3 647 648 633 
3 610 611 600 
3 835 836 833 
3 834 833 836 
3 96 97 39 
3 803 857 801 
3 811 857 803 
3 1313 1312 1327 
3 1226 1227 1222 
3 1223 1222 1227 
3 92 93 26 
3 27 26 93 
3 1112 1125 1086 
3 1113 1086 1125 
3 1087 1086 1113 
3 783 784 781 
3 818 820 815 
3 1190 1200 1194 
3 548 559 549 
3 85 86 6 
3 86 103 65 
3 859 858 862 
3 1088 1114 1115 
3 1079 1088 1115 
3 493 492 524 
3 523 524 492 
3 451 469 452 
3 469 477 452 
3 464 452 477 
3 440 452 464 
3 711 702 721 
3 691 702 711 
3 702 701 721 
3 721 726 711 
3 1076 1110 1077 
3 1110 1124 1077 
3 1111 1077 1124 
3 1078 1077 1111 
3 1097 1110 1076 
3 504 474 510 
3 484 474 504 
3 477 499 485 
3 524 523 545 
3 100 101 82 
3 47 82 101 
3 46 82 47 
3 48 47 101 
3 233 237 231 
3 540 552 541 
3 63 64 5 
3 1157 1178 1158 
3 1171 1158 1178 
3 1170 1177 1157 
3 1177 1178 1157 
3 1151 1135 1161 
3 1124 1135 1151 
3 454 453 470 
3 414 453 454 
3 470 471 454 
3 441 402 457 
3 1124 1110 1135 
3 958 997 970 
3 959 958 970 
3 394 393 429 
3 1167 1168 1153 
3 1154 1153 1168 
3 494 493 524 
3 524 525 494 
3 495 494 525 
3 525 526 495 
3 1186 1197 1166 
3 1175 1166 1197 
3 1197 1198 1175 
3 1162 1166 1175 
3 1187 1175 1198 
3 451 439 463 
3 477 485 464 
3 485 486 464 
3 470 464 486 
3 453 464 470 
3 1124 1136 1111 
3 522 523 492 
3 505 500 512 
3 613 622 633 
3 623 613 633 
3 607 622 602 
3 613 602 622 
3 603 602 613 
3 1136 1152 1137 
3 1152 1166 1137 
3 1162 1137 1166 
3 1142 1137 1162 
3 819 820 817 
3 154 158 145 
3 1074 1109 1097 
3 1109 1123 1097 
3 738 743 726 
3 733 726 743 
3 743 746 733 
3 744 733 746 
3 646 647 633 
3 73 90 15 
3 1163 1176 1156 
3 1176 1190 1156 
3 1170 1156 1190 
3 1190 1176 1193 
3 273 276 277 
3 273 261 276 
3 554 542 584 
3 545 542 554 
3 543 542 545 
3 523 543 545 
3 564 574 565 
3 574 575 565 
3 1143 1163 1156 
3 848 851 845 
3 657 658 646 
3 647 646 658 
3 658 659 647 
3 734 744 735 
3 744 747 735 
3 366 367 337 
3 331 337 367 
3 367 368 331 
3 332 331 368 
3 1195 1201 1178 
3 1177 1195 1178 
3 1030 1029 1039 
3 1112 1137 1125 
3 1137 1142 1125 
3 43 99 44 
3 41 99 42 
3 43 42 99 
3 49 48 101 
3 216 215 218 
3 217 218 215 
3 218 217 223 
3 574 563 582 
3 564 563 574 
3 580 581 563 
3 581 582 563 
3 554 580 555 
3 556 555 580 
3 563 556 580 
3 1161 1184 1185 
3 731 759 732 
3 738 732 759 
3 759 760 738 
3 743 738 760 
3 730 751 731 
3 751 758 731 
3 758 759 731 
3 745 751 730 
3 486 487 470 
3 915 851 929 
3 924 915 929 
3 1139 1157 1158 
3 1126 1113 1138 
3 1098 1113 1126 
3 1138 1154 1126 
3 86 85 103 
3 512 530 505 
3 519 505 530 
3 1139 1116 1144 
3 1100 1116 1139 
3 1098 1087 1113 
3 1166 1152 1186 
3 1185 1186 1151 
3 1152 1151 1186 
3 554 586 580 
3 586 590 580 
3 584 585 554 
3 585 586 554 
3 590 586 592 
3 497 496 511 
3 476 496 497 
3 475 496 476 
3 509 495 526 
3 693 692 713 
3 712 713 692 
3 1268 1279 1273 
3 1279 1290 1273 
3 1290 1279 1297 
3 440 412 452 
3 1279 1272 1296 
3 720 730 731 
3 1078 1085 1065 
3 1154 1155 1126 
3 1127 1126 1155 
3 1143 1127 1155 
3 1114 1127 1143 
3 1155 1163 1143 
3 746 752 744 
3 510 515 504 
3 1187 1199 1188 
3 993 1011 977 
3 383 382 405 
3 356 382 383 
3 1144 1156 1170 
3 1190 1194 1170 
3 1177 1170 1194 
3 368 369 332 
3 333 332 369 
3 345 333 369 
3 334 333 345 
3 437 436 473 
3 757 750 761 
3 745 750 757 
3 761 763 757 
3 662 670 657 
3 1020 1019 1044 
3 986 1019 1020 
3 987 986 1020 
3 52 51 84 
3 995 996 955 
3 239 238 241 
3 57 76 18 
3 19 18 76 
3 375 376 340 
3 341 340 376 
3 475 476 450 
3 463 450 476 
3 439 450 463 
3 1186 1185 1207 
3 1022 1023 992 
3 1003 992 1023 
3 976 992 1003 
3 1138 1153 1154 
3 596 597 590 
3 323 338 339 
3 262 270 271 
3 213 218 214 
3 856 862 855 
3 1048 1047 1069 
3 1197 1186 1207 
3 711 726 712 
3 726 733 712 
3 713 712 733 
3 733 734 713 
3 322 321 337 
3 767 766 773 
3 1129 1118 1140 
3 1103 1118 1129 
3 1140 1145 1129 
3 473 474 437 
3 438 437 474 
3 988 989 967 
3 968 967 989 
3 309 308 316 
3 596 592 603 
3 1228 1231 1225 
3 1229 1225 1231 
3 1151 1152 1124 
3 1136 1124 1152 
3 694 693 713 
3 320 317 330 
3 311 317 320 
3 1330 1331 1325 
3 1010 1003 1023 
3 1023 1050 1010 
3 318 331 332 
3 880 885 881 
3 850 849 852 
3 429 430 394 
3 395 394 430 
3 418 395 430 
3 941 963 964 
3 969 977 953 
3 977 969 993 
3 1086 1087 1057 
3 329 335 313 
3 384 406 392 
3 985 952 1002 
3 1002 1009 985 
3 230 233 231 
3 596 609 597 
3 604 597 609 
3 1106 1091 1121 
3 1085 1112 1086 
3 1065 1086 1057 
3 1130 1131 1104 
3 1105 1104 1131 
3 354 363 342 
3 311 310 317 
3 548 549 529 
3 637 642 631 
3 357 358 346 
3 347 346 358 
3 1157 1144 1170 
3 469 463 476 
3 476 497 469 
3 497 498 469 
3 336 382 356 
3 949 950 937 
3 940 937 950 
3 951 962 973 
3 642 637 650 
3 428 445 405 
3 529 550 530 
3 304 305 293 
3 415 454 455 
3 416 415 455 
3 912 1349 857 
3 293 305 296 
3 294 314 306 
3 1369 1368 1371 
3 1370 1369 1371 
3 1371 1398 1370 
3 608 623 609 
3 216 218 213 
3 1089 1090 1068 
3 1119 1120 1089 
3 1090 1089 1120 
3 65 66 7 
3 147 158 219 
3 1030 1039 1040 
3 539 552 540 
3 1085 1078 1111 
3 1111 1112 1085 
3 1108 1109 1074 
3 522 483 542 
3 1121 1132 1106 
3 297 296 313 
3 732 738 721 
3 726 721 738 
3 8 68 9 
3 68 69 9 
3 1161 1185 1151 
3 1174 1184 1161 
3 741 753 742 
3 297 313 294 
3 313 314 294 
3 444 458 425 
3 103 104 65 
3 342 355 326 
3 536 537 514 
3 403 442 404 
3 442 443 404 
3 734 735 713 
3 458 481 459 
3 481 482 459 
3 465 459 482 
3 427 459 465 
3 480 481 458 
3 66 67 7 
3 87 67 105 
3 674 687 688 
3 54 63 5 
3 790 791 787 
3 1115 1116 1079 
3 354 353 389 
3 363 354 389 
3 389 390 363 
3 531 552 539 
3 483 522 492 
3 498 499 469 
3 477 469 499 
3 246 240 249 
3 445 466 446 
3 1193 1189 1208 
3 1176 1189 1193 
3 1200 1193 1208 
3 24 79 25 
3 79 91 25 
3 91 92 25 
3 26 25 92 
3 1160 1174 1161 
3 426 459 427 
3 69 70 9 
3 1048 1049 1022 
3 1204 1211 1212 
3 633 634 623 
3 1194 1195 1177 
3 985 1009 986 
3 1009 1019 986 
3 1020 1021 987 
3 988 987 1021 
3 1233 1240 1243 
3 281 284 275 
3 727 728 719 
3 1041 1076 1077 
3 1064 1076 1041 
3 1042 1041 1077 
3 46 45 82 
3 1256 1262 1251 
3 734 733 744 
3 320 321 311 
3 413 440 414 
3 440 453 414 
3 603 608 596 
3 608 609 596 
3 657 670 658 
3 670 680 658 
3 5 4 53 
3 1221 1224 1218 
3 194 195 176 
3 929 930 924 
3 930 931 924 
3 511 515 538 
3 780 779 782 
3 781 782 779 
3 960 972 948 
3 189 282 179 
3 1284 1294 1285 
3 829 831 836 
3 828 827 831 
3 829 828 831 
3 549 550 529 
3 445 446 405 
3 406 405 446 
3 78 79 23 
3 24 23 79 
3 362 371 350 
3 957 997 958 
3 455 456 416 
3 417 416 456 
3 293 294 282 
3 285 282 294 
3 189 293 282 
3 196 293 189 
3 1168 1188 1189 
3 1167 1188 1168 
3 1169 1168 1189 
3 278 279 264 
3 265 264 279 
3 1026 1027 996 
3 1296 1297 1279 
3 1198 1199 1187 
3 1075 1097 1076 
3 1029 1055 1056 
3 706 705 718 
3 1062 1096 1063 
3 1077 1078 1042 
3 1094 1095 1072 
3 711 712 691 
3 692 691 712 
3 1272 1279 1268 
3 1236 1233 1243 
3 401 402 380 
3 317 316 330 
3 1023 1049 1050 
3 1022 1049 1023 
3 89 118 73 
3 90 73 118 
3 871 877 872 
3 998 981 1008 
3 374 400 375 
3 568 572 573 
3 522 543 523 
3 415 414 454 
3 410 409 422 
3 1062 1073 1096 
3 673 686 681 
3 686 697 681 
3 673 681 663 
3 854 853 856 
3 855 854 856 
3 1284 1283 1294 
3 1180 1179 1196 
3 1039 1029 1056 
3 1180 1196 1181 
3 1196 1203 1181 
3 1191 1181 1203 
3 53 54 5 
3 171 174 172 
3 174 179 172 
3 158 157 163 
3 153 157 158 
3 146 158 147 
3 1025 1026 995 
3 996 995 1026 
3 845 851 846 
3 705 710 718 
3 188 192 189 
3 192 196 189 
3 188 187 192 
3 178 177 185 
3 179 178 185 
3 185 189 179 
3 1187 1188 1167 
3 851 850 852 
3 852 855 851 
3 839 841 840 
3 841 844 840 
3 838 841 839 
3 685 704 686 
3 704 708 686 
3 697 686 708 
3 1282 1298 1299 
3 83 84 58 
3 11 72 55 
3 808 811 806 
3 808 810 811 
3 465 482 472 
3 815 820 816 
3 814 816 820 
3 813 812 816 
3 814 813 816 
3 244 251 245 
3 682 683 664 
3 665 664 683 
3 685 671 696 
3 696 704 685 
3 672 671 685 
3 1275 1274 1291 
3 542 543 522 
3 810 809 814 
3 380 379 401 
3 294 293 297 
3 296 297 293 
3 1131 1141 1119 
3 836 835 840 
3 747 744 752 
3 820 819 825 
3 141 146 147 
3 145 158 146 
3 704 715 716 
3 696 715 704 
3 806 811 807 
3 54 53 62 
3 62 63 54 
3 121 125 126 
3 1193 1200 1190 
3 1300 1299 1314 
3 695 703 714 
3 569 568 573 
3 471 470 487 
3 487 488 471 
3 876 879 877 
3 1251 1262 1252 
3 1075 1074 1097 
3 1090 1091 1068 
3 976 993 969 
3 59 58 84 
3 458 459 425 
3 426 425 459 
3 756 761 750 
3 154 153 158 
3 142 141 147 
3 951 963 941 
3 503 489 508 
3 1209 1204 1212 
3 1099 1114 1088 
3 1085 1086 1065 
3 355 342 363 
3 1218 1224 1219 
3 422 409 435 
3 248 251 244 
3 1105 1119 1089 
3 1129 1130 1103 
3 1104 1103 1130 
3 1253 1250 1258 
3 632 638 630 
3 638 639 630 
3 122 121 126 
3 229 233 230 
3 875 879 876 
3 977 978 953 
3 954 953 978 
3 1003 1010 993 
3 1010 1011 993 
3 1276 1269 1288 
3 529 530 512 
3 504 511 496 
3 882 885 880 
3 257 256 268 
3 260 257 268 
3 683 687 674 
3 725 730 720 
3 1173 1165 1183 
3 598 597 604 
3 604 605 598 
3 1136 1137 1111 
3 1112 1111 1137 
3 1291 1298 1282 
3 394 395 364 
3 365 364 395 
3 413 412 440 
3 334 338 323 
3 1126 1127 1098 
3 1099 1098 1127 
3 1114 1099 1127 
3 1125 1138 1113 
3 383 384 356 
3 1128 1140 1118 
3 322 331 318 
3 511 504 515 
3 963 951 973 
3 518 529 512 
3 723 727 719 
3 714 715 695 
3 696 695 715 
3 987 988 966 
3 967 966 988 
3 989 990 968 
3 681 682 663 
3 664 663 682 
3 1120 1121 1090 
3 1091 1090 1121 
3 363 378 355 
3 378 363 390 
3 1175 1187 1167 
3 1153 1142 1162 
3 1110 1097 1123 
3 1123 1135 1110 
3 691 692 680 
3 628 617 631 
3 751 745 757 
3 757 762 751 
3 1083 1072 1095 
3 104 105 66 
3 67 66 105 
3 634 635 623 
3 613 623 608 
3 665 683 674 
3 484 496 475 
3 463 469 451 
3 453 440 464 
3 1144 1157 1139 
3 1230 1234 1232 
3 1044 1045 1020 
3 1021 1020 1045 
3 1122 1106 1132 
3 762 757 763 
3 1142 1153 1138 
3 1069 1070 1048 
3 1049 1048 1070 
3 1105 1131 1119 
3 316 317 309 
3 310 309 317 
3 434 460 448 
3 334 345 338 
3 405 406 383 
3 384 383 406 
3 322 337 331 
3 484 504 496 
3 704 716 708 
3 592 596 590 
3 603 613 608 
3 399 400 373 
3 374 373 400 
3 66 65 104 
3 109 110 68 
3 69 68 110 
3 514 537 521 
3 1169 1189 1176 
3 1169 1176 1163 
3 1162 1167 1153 
3 1162 1175 1167 
3 1168 1169 1154 
3 1155 1154 1169 
3 1163 1155 1169 
3 1235 1242 1239 
3 1125 1142 1138 
3 685 686 672 
3 673 672 686 
3 1273 1290 1280 
3 1074 1075 1064 
3 976 1003 993 
3 1289 1295 1278 
3 1275 1291 1282 
3 1291 1309 1298 
3 659 660 647 
3 648 647 660 
3 651 648 660 
3 666 684 675 
3 1075 1076 1064 
3 1399 1400 1359 
3 847 851 848 
3 817 820 818 
3 262 271 263 
3 247 251 248 
