OFF
1000 1918 0
0 0 251 
0 7 253 
0 9 239 
0 10 251 
0 20 253 
0 21 204 
0 22 197 
0 23 234 
0 27 251 
0 28 154 
0 30 84 
0 32 105 
0 36 100 
0 119 98 
1 11 243 
1 15 253 
1 17 241 
1 20 139 
1 21 127 
1 22 142 
1 23 200 
1 26 234 
1 30 96 
1 32 112 
1 34 94 
2 11 250 
2 12 253 
2 17 142 
2 18 121 
2 20 103 
2 23 137 
2 25 243 
2 26 253 
2 29 250 
2 31 100 
2 32 87 
2 33 106 
2 43 100 
3 6 253 
3 8 252 
3 11 176 
3 12 166 
3 14 136 
3 16 119 
3 18 114 
3 20 119 
3 23 114 
3 24 134 
3 26 237 
3 30 252 
3 31 181 
3 32 92 
3 33 90 
3 34 117 
3 35 99 
3 38 109 
3 40 86 
3 42 111 
4 4 245 
4 6 184 
4 8 149 
4 11 137 
4 12 122 
4 14 125 
4 16 137 
4 18 148 
4 19 156 
4 24 127 
4 25 128 
4 26 167 
4 27 220 
4 28 253 
4 32 205 
4 33 108 
4 34 74 
4 35 108 
4 38 95 
5 0 244 
5 3 159 
5 4 152 
5 6 136 
5 8 134 
5 11 123 
5 12 129 
5 14 142 
5 16 176 
5 19 251 
5 20 250 
5 21 185 
5 22 140 
5 24 143 
5 25 123 
5 26 126 
5 27 153 
5 29 240 
5 32 253 
5 33 213 
5 34 127 
5 35 80 
5 37 119 
5 39 91 
5 40 117 
5 42 85 
5 43 108 
6 0 153 
6 4 129 
6 11 154 
6 12 146 
6 13 174 
6 15 246 
6 23 139 
6 24 129 
6 25 146 
6 26 144 
6 27 123 
6 28 141 
6 30 248 
6 32 242 
6 33 253 
6 34 228 
6 35 128 
6 36 81 
6 37 108 
6 38 112 
6 40 95 
7 3 120 
7 4 144 
7 7 127 
7 8 137 
7 12 249 
7 22 234 
7 24 149 
7 29 143 
7 30 184 
7 31 236 
7 32 253 
7 35 249 
7 36 151 
7 37 77 
7 38 82 
7 39 115 
7 42 117 
8 0 117 
8 3 147 
8 4 137 
8 28 131 
8 29 150 
8 30 144 
8 31 165 
8 32 223 
8 35 253 
8 36 239 
8 37 133 
8 38 86 
8 39 108 
8 116 95 
8 119 95 
9 0 162 
9 4 250 
9 20 252 
9 27 143 
9 32 164 
9 33 231 
9 34 252 
9 35 223 
9 36 253 
9 37 249 
9 38 154 
9 39 77 
9 41 109 
9 42 93 
9 115 87 
9 116 132 
9 117 127 
9 119 107 
10 0 244 
10 25 246 
10 29 135 
10 32 134 
10 33 163 
10 34 218 
10 35 250 
10 36 223 
10 39 175 
10 40 102 
10 41 85 
10 42 100 
10 47 95 
10 49 109 
10 51 95 
10 52 101 
10 108 97 
10 111 102 
10 112 84 
10 113 118 
10 114 194 
10 115 237 
10 117 250 
10 118 218 
10 119 92 
11 27 230 
11 28 163 
11 29 164 
11 30 139 
11 31 135 
11 32 150 
11 33 138 
11 34 156 
11 35 225 
11 36 249 
11 39 253 
11 40 209 
11 41 114 
11 42 74 
11 44 115 
11 47 112 
11 108 109 
11 110 92 
11 112 97 
11 113 156 
11 114 239 
11 115 242 
12 27 250 
12 28 232 
12 29 167 
12 30 150 
12 31 155 
12 32 131 
12 36 232 
12 40 253 
12 41 226 
12 43 89 
12 44 93 
12 47 97 
12 107 100 
12 109 107 
12 114 253 
12 116 222 
12 117 241 
12 118 237 
12 119 186 
13 25 234 
13 29 232 
13 31 148 
13 36 148 
13 37 217 
13 38 253 
13 40 238 
13 41 253 
13 42 241 
13 43 184 
13 44 94 
13 50 92 
13 51 110 
13 108 88 
13 111 108 
13 112 81 
13 113 134 
13 115 226 
13 116 248 
14 0 252 
14 24 247 
14 29 252 
14 36 128 
14 37 155 
14 39 239 
14 40 252 
14 43 253 
14 44 217 
14 45 114 
14 46 83 
14 47 105 
14 50 116 
14 51 87 
14 110 91 
14 111 111 
14 112 91 
14 113 139 
14 114 252 
14 116 245 
14 119 192 
15 22 236 
15 29 233 
15 31 248 
15 32 192 
15 33 161 
15 36 143 
15 37 128 
15 38 138 
15 40 233 
15 41 251 
15 45 240 
15 46 139 
15 47 75 
15 48 111 
15 49 111 
15 50 84 
15 51 110 
15 108 109 
15 113 126 
15 117 222 
15 118 252 
15 119 217 
16 28 241 
16 29 252 
16 31 234 
16 32 252 
16 36 130 
16 40 159 
16 46 254 
16 47 204 
16 48 90 
16 49 77 
16 50 121 
16 112 91 
16 113 136 
16 114 220 
17 35 165 
17 48 230 
17 50 81 
17 76 100 
17 112 127 
17 113 189 
17 114 237 
17 117 237 
17 119 209 
18 20 250 
18 35 243 
18 36 178 
18 39 129 
18 41 139 
18 44 240 
18 48 254 
18 51 112 
18 52 104 
18 109 107 
18 112 197 
18 113 182 
18 114 229 
18 115 223 
18 116 236 
18 117 219 
18 119 236 
19 37 178 
19 38 148 
19 39 157 
19 43 157 
19 44 217 
19 45 252 
19 49 212 
19 50 93 
19 109 80 
19 110 88 
19 111 139 
19 112 210 
19 113 193 
19 115 237 
19 117 243 
19 119 208 
20 37 252 
20 38 208 
20 39 153 
20 43 135 
20 50 93 
20 103 110 
20 105 88 
20 106 101 
20 107 90 
20 109 130 
20 110 170 
20 112 241 
20 116 209 
21 37 237 
21 38 244 
21 39 227 
21 45 143 
21 48 249 
21 49 253 
21 103 98 
21 106 185 
21 107 200 
21 108 219 
21 110 234 
21 112 216 
21 119 246 
22 42 145 
22 43 137 
22 47 156 
22 49 247 
22 50 128 
22 51 87 
22 52 104 
22 99 101 
22 105 117 
22 106 232 
22 107 253 
22 111 214 
22 113 240 
22 115 215 
22 118 233 
22 119 203 
23 38 252 
23 41 252 
23 42 235 
23 43 172 
23 44 138 
23 102 110 
23 105 100 
23 106 218 
23 111 249 
23 113 220 
23 119 89 
24 36 252 
24 38 233 
24 40 252 
24 42 237 
24 43 252 
24 44 173 
24 46 119 
24 47 141 
24 49 90 
24 50 85 
24 51 114 
24 103 94 
24 106 236 
24 108 248 
24 111 202 
24 113 138 
24 114 209 
24 115 235 
24 116 228 
24 117 248 
24 119 184 
25 46 99 
25 50 111 
25 51 100 
25 100 103 
25 106 217 
25 107 207 
25 111 93 
25 113 112 
25 119 225 
26 45 237 
26 107 111 
26 109 99 
26 111 113 
26 112 195 
26 113 197 
26 118 233 
26 119 172 
27 111 94 
27 112 137 
27 113 132 
27 114 201 
27 118 224 
27 119 148 
28 45 241 
28 46 100 
28 113 88 
28 114 202 
28 115 245 
28 118 235 
29 34 246 
30 112 110 
30 113 93 
30 114 218 
30 119 222 
31 113 85 
31 117 242 
32 114 193 
32 115 245 
32 119 213 
33 26 243 
33 46 102 
33 68 102 
33 109 93 
33 110 117 
33 113 99 
33 118 209 
33 119 231 
34 45 245 
34 92 105 
34 108 101 
34 112 95 
34 114 168 
34 115 251 
34 116 234 
34 117 238 
35 113 106 
35 116 210 
36 45 237 
36 114 154 
36 115 233 
36 117 233 
37 113 92 
37 115 246 
37 119 223 
38 46 93 
38 111 115 
38 113 100 
38 114 148 
38 115 221 
38 116 226 
38 117 211 
38 119 210 
39 43 242 
39 44 250 
39 45 220 
39 47 110 
39 112 108 
39 115 129 
39 116 94 
39 118 131 
39 119 130 
40 46 89 
40 114 66 
40 115 66 
40 116 97 
40 118 129 
41 27 247 
41 44 251 
41 45 214 
41 111 73 
41 116 81 
41 118 101 
41 119 118 
42 105 103 
42 107 101 
42 108 71 
42 111 85 
42 113 79 
42 115 91 
42 116 104 
42 118 113 
42 119 129 
43 26 239 
43 84 103 
43 105 86 
43 107 78 
43 108 78 
43 110 116 
43 113 165 
43 115 185 
43 117 180 
43 119 189 
44 46 92 
44 99 86 
44 101 95 
44 105 161 
44 107 179 
44 108 195 
44 110 199 
44 113 183 
44 119 173 
45 21 252 
45 25 252 
45 45 184 
45 47 107 
45 88 109 
45 96 99 
45 100 185 
45 102 185 
45 108 166 
45 110 166 
46 24 237 
46 46 91 
46 84 108 
46 88 93 
46 89 93 
46 92 99 
46 96 186 
46 104 180 
46 108 180 
47 19 229 
47 23 249 
47 24 252 
47 44 248 
47 45 184 
47 88 105 
47 90 135 
47 91 147 
47 92 188 
47 104 166 
47 108 160 
48 12 252 
48 18 159 
48 20 122 
48 21 131 
48 84 89 
48 90 193 
48 91 205 
48 114 165 
49 6 253 
49 12 169 
49 14 153 
49 18 123 
49 20 110 
49 25 242 
49 83 104 
49 84 152 
49 87 196 
49 91 165 
50 0 249 
50 3 248 
50 4 202 
50 6 181 
50 8 155 
50 18 112 
50 24 142 
50 25 172 
50 30 238 
50 32 252 
50 76 110 
50 79 95 
50 82 167 
50 84 197 
50 87 165 
50 91 173 
51 0 220 
51 3 155 
51 6 143 
51 9 132 
51 11 123 
51 15 118 
51 18 148 
51 19 180 
51 24 125 
51 25 133 
51 29 249 
51 32 222 
51 70 110 
51 76 84 
51 79 161 
51 82 190 
52 0 142 
52 12 136 
52 19 249 
52 20 224 
52 21 161 
52 22 136 
52 24 127 
52 29 236 
52 30 244 
52 31 218 
52 32 209 
52 45 201 
52 46 93 
52 70 96 
52 75 89 
52 79 198 
52 82 167 
53 3 125 
53 6 129 
53 9 144 
53 11 159 
53 12 213 
53 14 248 
53 16 253 
53 20 253 
53 22 163 
53 27 137 
53 31 244 
53 44 252 
53 70 112 
53 72 83 
53 73 102 
53 75 189 
54 0 123 
54 3 137 
54 5 167 
54 9 246 
54 12 253 
54 22 232 
54 24 170 
54 31 232 
54 36 240 
54 45 226 
54 70 89 
54 73 187 
54 75 186 
55 0 152 
55 3 213 
55 4 250 
55 13 232 
55 18 250 
55 19 235 
55 20 251 
55 22 252 
55 28 138 
55 29 138 
55 30 158 
55 34 241 
55 36 210 
55 37 219 
55 40 252 
55 68 90 
55 75 164 
56 0 245 
56 19 220 
56 30 142 
56 32 143 
56 36 213 
56 37 219 
56 45 250 
56 68 181 
57 20 252 
57 21 235 
57 27 252 
57 28 231 
57 29 172 
57 30 154 
57 33 152 
57 34 200 
57 36 250 
57 37 246 
57 46 112 
57 67 199 
58 20 249 
58 27 238 
58 28 250 
58 29 233 
58 32 154 
58 33 139 
58 34 146 
58 36 177 
58 37 217 
58 38 237 
58 40 229 
58 44 239 
58 45 253 
58 46 136 
58 47 86 
58 48 123 
58 49 97 
58 51 114 
58 59 112 
58 61 96 
58 62 112 
58 64 183 
58 65 197 
58 67 164 
59 28 249 
59 29 243 
59 31 248 
59 32 214 
59 38 180 
59 40 243 
59 44 252 
59 47 97 
59 48 88 
59 49 129 
59 51 96 
59 56 99 
59 57 112 
59 59 83 
59 62 172 
59 65 173 
60 29 232 
60 34 158 
60 36 134 
60 47 194 
60 48 117 
60 49 77 
60 51 125 
60 55 116 
60 57 86 
60 60 168 
60 62 186 
60 67 180 
61 33 247 
61 36 150 
61 39 139 
61 40 146 
61 44 220 
61 45 252 
61 46 231 
61 47 253 
61 48 238 
61 49 142 
61 50 93 
61 55 93 
61 60 191 
61 63 165 
62 30 252 
62 35 246 
62 38 139 
62 42 173 
62 43 217 
62 44 235 
62 47 237 
62 48 254 
62 49 253 
62 55 112 
62 58 195 
62 60 168 
63 41 142 
63 44 206 
63 45 209 
63 46 244 
63 48 231 
63 50 144 
63 51 100 
63 53 107 
63 55 179 
63 56 194 
64 30 234 
64 32 252 
64 40 179 
64 43 135 
64 46 183 
64 47 249 
64 48 253 
64 49 242 
64 51 75 
64 60 181 
64 92 121 
65 0 248 
65 32 240 
65 40 253 
65 42 169 
65 46 144 
65 47 153 
65 48 214 
65 49 248 
65 50 106 
65 52 197 
65 60 153 
65 119 121 
66 0 229 
66 43 168 
66 47 125 
66 48 135 
66 49 182 
67 1 243 
67 43 227 
67 45 144 
67 47 134 
68 1 223 
68 46 158 
69 0 252 
69 12 251 
69 48 186 
69 74 126 
70 11 231 
70 45 244 
70 50 158 
71 11 226 
72 0 229 
72 1 252 
72 47 158 
73 0 167 
73 1 180 
73 3 252 
73 6 250 
73 11 249 
73 12 236 
73 13 250 
73 25 247 
74 0 222 
75 0 246 
75 1 235 
75 6 226 
75 46 186 
75 47 155 
75 48 159 
76 1 233 
76 4 252 
76 49 139 
77 6 250 
78 3 252 
78 4 237 
78 45 242 
78 46 172 
78 47 138 
78 50 145 
79 92 108 
80 47 127 
80 51 113 
81 48 137 
81 51 111 
81 52 128 
81 92 94 
82 46 143 
82 47 125 
87 45 236 
87 46 131 
87 47 117 
88 88 94 
89 14 250 
89 19 251 
89 20 228 
89 23 249 
89 46 135 
90 14 206 
90 19 223 
90 23 224 
90 46 121 
90 47 115 
90 48 127 
90 49 110 
90 50 122 
91 8 250 
91 12 220 
91 22 247 
91 24 238 
91 45 246 
92 0 252 
92 11 250 
92 12 247 
92 19 250 
92 20 221 
92 46 132 
92 83 104 
93 6 238 
93 8 218 
93 9 221 
93 11 235 
93 16 252 
93 17 236 
93 20 186 
93 23 252 
93 26 238 
93 27 252 
94 0 229 
94 4 217 
94 8 247 
94 10 251 
94 12 238 
94 17 155 
94 20 110 
94 21 137 
94 27 238 
94 59 101 
94 83 86 
95 0 251 
95 3 236 
95 4 251 
95 6 251 
95 8 216 
95 12 162 
95 18 104 
95 19 89 
95 20 93 
95 21 125 
95 23 140 
95 25 227 
95 26 249 
95 117 95 
96 0 249 
96 3 227 
96 7 158 
96 8 146 
96 11 137 
96 14 113 
96 20 138 
96 21 172 
96 23 135 
96 25 167 
97 3 157 
97 4 151 
97 8 131 
97 13 130 
97 17 138 
97 19 155 
97 20 166 
97 21 249 
97 22 242 
97 23 172 
97 24 151 
97 25 152 
97 28 249 
98 0 107 
98 2 144 
98 4 125 
98 6 123 
98 12 133 
98 13 155 
98 15 158 
98 17 231 
98 19 249 
98 21 239 
98 23 249 
98 24 234 
98 27 148 
98 28 169 
99 0 108 
99 6 133 
99 11 135 
99 12 205 
99 14 248 
99 25 238 
99 27 146 
99 28 163 
99 29 159 
99 30 186 
99 31 233 
99 32 251 
99 45 238 
99 47 99 
99 119 100 
3 364 378 365 
3 378 393 365 
3 365 393 379 
3 393 394 379 
3 920 945 921 
3 945 946 921 
3 931 921 946 
3 707 708 688 
3 708 709 688 
3 689 688 709 
3 946 970 931 
3 131 130 176 
3 110 130 131 
3 758 759 723 
3 724 723 759 
3 725 724 759 
3 745 725 759 
3 224 242 225 
3 242 243 225 
3 242 262 243 
3 262 283 243 
3 304 305 282 
3 283 282 305 
3 262 282 283 
3 661 674 644 
3 674 691 644 
3 691 674 700 
3 675 644 691 
3 31 30 47 
3 20 30 31 
3 7 20 31 
3 21 7 31 
3 8 7 21 
3 817 844 818 
3 834 818 844 
3 857 871 817 
3 844 817 871 
3 862 844 871 
3 849 844 862 
3 835 834 844 
3 838 835 844 
3 871 872 862 
3 362 361 385 
3 330 361 362 
3 385 374 402 
3 361 374 385 
3 416 442 417 
3 433 417 442 
3 418 417 433 
3 405 417 418 
3 375 405 418 
3 372 412 401 
3 412 413 401 
3 373 372 401 
3 327 412 372 
3 304 412 305 
3 327 305 412 
3 359 327 372 
3 862 863 849 
3 884 922 905 
3 922 996 905 
3 931 996 922 
3 996 997 905 
3 615 614 633 
3 598 614 615 
3 633 650 615 
3 616 615 650 
3 754 793 781 
3 793 794 781 
3 765 793 754 
3 766 754 781 
3 753 765 754 
3 526 527 482 
3 498 482 527 
3 527 528 498 
3 522 498 528 
3 649 650 632 
3 633 632 650 
3 613 632 633 
3 614 613 633 
3 566 613 598 
3 613 614 598 
3 814 804 826 
3 793 804 814 
3 794 793 814 
3 160 131 176 
3 113 131 160 
3 112 131 113 
3 145 113 160 
3 114 113 145 
3 743 783 769 
3 783 806 769 
3 757 783 743 
3 744 743 769 
3 742 757 743 
3 584 606 593 
3 606 621 593 
3 621 622 593 
3 592 606 584 
3 703 715 676 
3 646 676 715 
3 715 732 646 
3 732 733 646 
3 733 734 646 
3 577 646 565 
3 557 565 646 
3 646 734 557 
3 735 734 752 
3 557 734 735 
3 576 645 577 
3 645 646 577 
3 12 37 13 
3 37 320 13 
3 13 320 191 
3 234 191 320 
3 320 392 234 
3 190 320 37 
3 305 327 306 
3 317 306 327 
3 285 306 317 
3 286 285 307 
3 263 285 286 
3 307 285 317 
3 284 306 285 
3 244 285 263 
3 227 285 207 
3 244 207 285 
3 287 307 288 
3 307 329 288 
3 329 328 344 
3 307 328 329 
3 343 344 328 
3 317 328 307 
3 689 709 699 
3 709 710 699 
3 239 240 198 
3 199 198 240 
3 397 396 410 
3 383 396 397 
3 409 410 396 
3 187 170 214 
3 141 170 187 
3 214 213 231 
3 186 213 214 
3 170 186 214 
3 103 141 187 
3 187 188 103 
3 37 103 188 
3 188 189 37 
3 102 141 103 
3 434 433 457 
3 419 433 434 
3 418 433 419 
3 420 419 434 
3 252 233 271 
3 188 233 252 
3 215 233 188 
3 189 188 252 
3 271 294 252 
3 294 295 252 
3 272 252 295 
3 187 215 188 
3 855 868 856 
3 868 888 856 
3 854 868 855 
3 870 901 868 
3 888 868 901 
3 888 889 856 
3 866 868 861 
3 854 861 868 
3 853 861 854 
3 684 683 698 
3 657 683 684 
3 656 683 657 
3 717 683 840 
3 698 683 717 
3 655 671 656 
3 671 683 656 
3 159 261 176 
3 241 176 261 
3 222 176 241 
3 200 176 222 
3 86 159 87 
3 130 87 159 
3 88 87 130 
3 89 88 130 
3 960 987 952 
3 975 952 987 
3 987 988 975 
3 951 960 952 
3 961 952 975 
3 729 775 760 
3 775 776 760 
3 747 774 729 
3 774 775 729 
3 748 729 760 
3 730 729 748 
3 481 569 559 
3 569 570 559 
3 570 569 581 
3 558 569 481 
3 546 481 559 
3 866 865 869 
3 860 865 866 
3 852 860 866 
3 851 860 852 
3 848 851 852 
3 819 818 834 
3 829 819 834 
3 785 784 818 
3 770 784 785 
3 817 818 784 
3 995 996 970 
3 931 970 996 
3 319 318 332 
3 312 318 319 
3 332 349 319 
3 349 350 319 
3 206 227 207 
3 243 284 227 
3 284 285 227 
3 262 303 282 
3 303 304 282 
3 261 303 241 
3 222 241 303 
3 262 222 303 
3 863 873 867 
3 873 874 867 
3 873 876 874 
3 876 878 874 
3 442 415 456 
3 416 415 442 
3 414 462 456 
3 462 480 456 
3 415 414 456 
3 755 767 738 
3 767 782 738 
3 756 738 782 
3 737 755 738 
3 289 288 308 
3 265 288 289 
3 308 288 329 
3 286 307 287 
3 552 591 542 
3 543 542 591 
3 553 543 591 
3 541 552 542 
3 591 827 553 
3 583 827 591 
3 77 78 0 
3 58 0 78 
3 863 864 849 
3 845 849 864 
3 864 867 845 
3 647 664 630 
3 664 665 630 
3 648 630 665 
3 612 630 648 
3 474 630 612 
3 238 239 197 
3 198 197 239 
3 426 425 439 
3 409 425 426 
3 425 444 439 
3 444 445 439 
3 438 444 425 
3 382 425 409 
3 381 425 382 
3 875 887 881 
3 887 947 881 
3 932 998 933 
3 998 999 933 
3 947 933 999 
3 887 933 947 
3 911 905 997 
3 997 998 911 
3 899 911 900 
3 911 998 900 
3 932 900 998 
3 896 911 897 
3 898 897 911 
3 899 898 911 
3 554 584 573 
3 584 585 573 
3 593 594 584 
3 585 584 594 
3 772 786 746 
3 747 746 786 
3 773 747 786 
3 786 787 773 
3 787 788 773 
3 419 420 387 
3 388 387 420 
3 420 421 388 
3 389 388 421 
3 758 744 769 
3 722 744 758 
3 721 744 722 
3 723 722 758 
3 215 214 233 
3 187 214 215 
3 232 233 214 
3 701 691 712 
3 692 691 701 
3 712 713 701 
3 912 933 887 
3 765 804 793 
3 780 792 765 
3 792 804 765 
3 764 780 765 
3 752 764 765 
3 142 157 143 
3 157 175 143 
3 143 175 158 
3 175 260 158 
3 784 769 806 
3 806 817 784 
3 807 785 818 
3 986 987 960 
3 771 785 807 
3 795 771 807 
3 772 771 795 
3 902 908 893 
3 908 917 893 
3 917 908 927 
3 927 953 917 
3 939 953 927 
3 928 917 953 
3 673 707 688 
3 687 707 673 
3 660 673 688 
3 660 640 673 
3 627 640 660 
3 205 227 206 
3 228 207 244 
3 208 207 228 
3 829 834 835 
3 820 829 835 
3 815 696 842 
3 650 696 815 
3 679 696 649 
3 650 649 696 
3 616 650 815 
3 666 679 649 
3 617 616 815 
3 887 842 912 
3 875 842 887 
3 815 842 875 
3 875 881 947 
3 827 875 947 
3 815 875 827 
3 947 999 827 
3 582 815 827 
3 583 582 827 
3 655 656 635 
3 623 635 656 
3 593 635 594 
3 623 594 635 
3 622 635 593 
3 717 857 805 
3 817 805 857 
3 880 900 932 
3 842 880 932 
3 912 842 932 
3 932 933 912 
3 930 944 920 
3 944 945 920 
3 894 893 918 
3 888 893 894 
3 889 888 894 
3 917 918 893 
3 256 257 218 
3 219 218 257 
3 236 219 257 
3 283 284 243 
3 952 961 939 
3 953 939 961 
3 33 49 22 
3 34 22 49 
3 49 50 34 
3 759 770 745 
3 770 785 745 
3 771 745 785 
3 326 472 303 
3 462 303 472 
3 412 303 462 
3 304 303 412 
3 231 232 214 
3 669 668 682 
3 651 668 669 
3 620 619 652 
3 604 619 620 
3 652 651 669 
3 619 651 652 
3 603 619 604 
3 618 634 619 
3 634 651 619 
3 628 627 660 
3 609 627 628 
3 641 628 660 
3 610 597 628 
3 555 597 610 
3 597 609 628 
3 660 688 641 
3 688 689 641 
3 621 620 653 
3 606 620 621 
3 652 653 620 
3 957 969 946 
3 969 983 946 
3 970 946 983 
3 945 957 946 
3 14 26 15 
3 26 42 15 
3 41 42 26 
3 3 14 15 
3 826 880 842 
3 845 874 826 
3 874 880 826 
3 877 880 874 
3 867 874 845 
3 803 825 804 
3 825 826 804 
3 825 845 826 
3 802 825 803 
3 857 856 889 
3 840 856 857 
3 717 840 857 
3 889 890 857 
3 890 891 857 
3 741 717 805 
3 718 717 741 
3 757 741 805 
3 783 757 805 
3 156 155 173 
3 13 155 156 
3 173 174 156 
3 155 13 192 
3 191 192 13 
3 192 193 155 
3 171 155 193 
3 193 194 171 
3 879 878 883 
3 877 878 879 
3 883 886 879 
3 886 900 879 
3 880 879 900 
3 631 612 648 
3 430 431 398 
3 399 398 431 
3 371 398 399 
3 357 371 399 
3 384 357 399 
3 735 754 736 
3 754 766 736 
3 736 766 755 
3 766 767 755 
3 630 735 736 
3 505 462 519 
3 480 462 505 
3 505 611 520 
3 576 520 611 
3 472 519 462 
3 519 611 505 
3 578 600 589 
3 600 616 589 
3 616 617 589 
3 601 589 617 
3 582 617 815 
3 570 617 582 
3 782 826 768 
3 826 842 768 
3 678 677 704 
3 664 677 678 
3 740 768 704 
3 696 704 768 
3 696 678 704 
3 756 782 768 
3 695 704 677 
3 696 768 842 
3 794 814 782 
3 814 826 782 
3 16 28 4 
3 17 4 28 
3 28 29 17 
3 3 15 4 
3 15 16 4 
3 406 392 436 
3 378 392 406 
3 645 576 662 
3 675 694 576 
3 662 576 694 
3 611 675 576 
3 693 694 675 
3 629 644 675 
3 611 629 675 
3 57 103 37 
3 526 481 546 
3 482 481 526 
3 546 547 526 
3 483 482 498 
3 476 482 483 
3 387 375 418 
3 418 419 387 
3 773 774 747 
3 728 747 729 
3 478 487 479 
3 487 493 479 
3 496 493 503 
3 479 493 496 
3 820 808 829 
3 796 808 820 
3 819 829 808 
3 809 796 820 
3 797 796 809 
3 820 835 830 
3 835 836 830 
3 669 670 652 
3 653 652 670 
3 669 682 670 
3 682 840 670 
3 833 840 816 
3 682 816 840 
3 683 670 840 
3 376 375 387 
3 348 375 376 
3 332 348 376 
3 349 332 376 
3 376 377 349 
3 309 348 332 
3 339 356 340 
3 356 371 340 
3 357 340 371 
3 758 784 770 
3 769 784 758 
3 759 758 770 
3 358 357 384 
3 679 678 696 
3 665 678 679 
3 666 665 679 
3 502 511 503 
3 511 512 503 
3 517 518 511 
3 512 511 518 
3 955 966 956 
3 966 967 956 
3 943 955 956 
3 944 943 956 
3 80 81 59 
3 60 59 81 
3 38 59 60 
3 39 38 60 
3 426 427 409 
3 410 409 427 
3 472 326 584 
3 472 584 554 
3 584 260 592 
3 326 260 584 
3 298 335 274 
3 314 274 335 
3 321 314 335 
3 335 352 321 
3 352 353 321 
3 336 321 353 
3 298 366 335 
3 366 367 335 
3 624 657 636 
3 657 684 636 
3 623 657 624 
3 684 685 636 
3 658 636 685 
3 595 623 607 
3 623 624 607 
3 594 623 595 
3 585 594 595 
3 535 555 610 
3 610 611 535 
3 519 535 611 
3 564 575 555 
3 575 597 555 
3 545 520 556 
3 521 520 545 
3 514 521 545 
3 33 71 49 
3 71 94 49 
3 32 71 33 
3 8 32 33 
3 48 70 32 
3 70 71 32 
3 847 848 839 
3 837 839 848 
3 962 953 977 
3 928 953 962 
3 940 928 962 
3 977 978 962 
3 79 105 80 
3 105 126 80 
3 127 126 144 
3 80 126 127 
3 81 80 127 
3 904 920 921 
3 935 934 949 
3 923 934 935 
3 971 972 948 
3 958 948 972 
3 949 948 958 
3 934 948 949 
3 906 923 935 
3 972 971 985 
3 485 486 470 
3 468 470 486 
3 486 487 468 
3 478 468 487 
3 465 470 468 
3 435 508 474 
3 508 557 474 
3 473 508 435 
3 630 557 735 
3 474 557 630 
3 434 457 435 
3 457 473 435 
3 391 435 474 
3 751 764 734 
3 752 734 764 
3 764 763 780 
3 751 763 764 
3 695 630 736 
3 736 737 695 
3 737 738 695 
3 738 739 695 
3 716 695 739 
3 536 474 612 
3 704 695 716 
3 647 630 695 
3 663 647 695 
3 752 753 735 
3 739 740 716 
3 141 124 169 
3 102 124 141 
3 140 154 124 
3 154 169 124 
3 169 170 141 
3 780 802 792 
3 802 803 792 
3 780 763 802 
3 251 269 232 
3 269 270 232 
3 233 232 270 
3 909 910 894 
3 890 894 910 
3 903 890 910 
3 889 894 890 
3 910 919 903 
3 919 930 903 
3 920 903 930 
3 871 882 876 
3 882 883 876 
3 872 871 876 
3 689 690 641 
3 674 641 690 
3 661 641 674 
3 642 641 661 
3 871 857 891 
3 891 922 871 
3 884 871 922 
3 950 974 960 
3 974 986 960 
3 937 974 950 
3 601 617 581 
3 570 581 617 
3 459 465 460 
3 465 468 460 
3 461 460 468 
3 454 460 461 
3 448 460 454 
3 466 461 468 
3 455 461 466 
3 429 453 430 
3 453 460 430 
3 448 430 460 
3 440 447 428 
3 447 453 428 
3 429 428 453 
3 364 234 392 
3 298 234 364 
3 364 365 298 
3 365 366 298 
3 378 364 392 
3 587 608 574 
3 597 574 608 
3 575 574 597 
3 554 587 574 
3 596 639 587 
3 608 587 639 
3 978 989 979 
3 989 990 979 
3 980 979 990 
3 963 979 964 
3 979 980 964 
3 981 980 990 
3 375 362 386 
3 347 362 375 
3 386 405 375 
3 346 362 347 
3 348 347 375 
3 210 246 229 
3 246 247 229 
3 246 265 247 
3 265 266 247 
3 209 246 210 
3 370 369 383 
3 353 369 370 
3 382 396 383 
3 369 382 383 
3 352 369 353 
3 629 610 643 
3 611 610 629 
3 642 643 610 
3 643 644 629 
3 899 900 886 
3 898 899 886 
3 746 745 771 
3 494 500 491 
3 495 491 500 
3 500 501 495 
3 685 686 658 
3 982 981 990 
3 838 844 841 
3 844 849 841 
3 123 140 100 
3 124 100 140 
3 276 314 299 
3 314 315 299 
3 274 314 275 
3 276 275 314 
3 836 838 841 
3 798 810 789 
3 799 789 810 
3 810 811 799 
3 936 959 937 
3 959 974 937 
3 921 922 904 
3 891 904 922 
3 969 990 983 
3 990 991 983 
3 464 465 458 
3 459 458 465 
3 653 654 621 
3 622 621 654 
3 924 906 935 
3 913 906 924 
3 935 936 924 
3 901 906 913 
3 592 260 602 
3 602 603 592 
3 559 570 546 
3 560 546 570 
3 649 631 666 
3 632 631 649 
3 612 631 632 
3 613 612 632 
3 648 666 631 
3 228 245 209 
3 245 246 209 
3 166 209 210 
3 182 209 166 
3 183 166 210 
3 167 166 183 
3 165 182 166 
3 962 963 940 
3 941 940 963 
3 385 386 362 
3 346 330 362 
3 425 424 438 
3 408 424 425 
3 395 408 425 
3 394 408 395 
3 381 395 425 
3 807 818 819 
3 795 807 819 
3 808 795 819 
3 54 55 12 
3 55 56 12 
3 37 12 56 
3 56 57 37 
3 573 586 554 
3 586 587 554 
3 663 677 664 
3 458 450 463 
3 451 450 458 
3 463 464 458 
3 475 443 482 
3 444 443 475 
3 463 444 475 
3 450 444 463 
3 475 476 463 
3 767 794 782 
3 766 781 767 
3 781 794 767 
3 508 514 545 
3 545 557 508 
3 706 717 718 
3 707 706 718 
3 687 706 707 
3 345 361 330 
3 329 345 330 
3 837 828 839 
3 833 828 837 
3 536 612 613 
3 566 536 613 
3 159 129 326 
3 109 129 159 
3 281 159 326 
3 261 159 281 
3 128 158 129 
3 158 326 129 
3 108 129 109 
3 158 260 326 
3 106 128 129 
3 127 158 128 
3 840 833 843 
3 848 852 837 
3 852 853 837 
3 843 837 853 
3 833 837 843 
3 828 833 816 
3 681 816 682 
3 697 816 681 
3 237 259 238 
3 259 279 238 
3 279 300 238 
3 300 301 238 
3 280 238 301 
3 239 238 280 
3 401 414 374 
3 402 374 414 
3 85 109 159 
3 86 85 159 
3 583 591 563 
3 552 563 591 
3 65 85 86 
3 64 85 65 
3 586 585 596 
3 573 585 586 
3 595 596 585 
3 503 504 496 
3 503 512 504 
3 512 513 504 
3 486 489 487 
3 489 493 487 
3 477 484 469 
3 484 485 469 
3 470 469 485 
3 480 490 473 
3 490 497 473 
3 497 508 473 
3 56 55 76 
3 76 100 56 
3 100 101 56 
3 402 403 385 
3 877 874 878 
3 279 316 300 
3 316 324 300 
3 301 300 324 
3 324 325 301 
3 279 278 316 
3 258 278 279 
3 323 339 316 
3 339 340 316 
3 324 316 340 
3 81 128 106 
3 82 81 106 
3 60 81 82 
3 127 128 81 
3 869 865 906 
3 77 104 78 
3 104 125 78 
3 104 142 125 
3 142 143 125 
3 672 687 673 
3 566 588 578 
3 588 600 578 
3 599 615 616 
3 600 599 616 
3 588 599 600 
3 567 566 578 
3 558 566 567 
3 9 33 22 
3 8 33 9 
3 10 9 22 
3 21 32 8 
3 330 346 331 
3 346 347 331 
3 290 330 331 
3 267 290 331 
3 291 267 331 
3 268 267 291 
3 309 291 331 
3 242 222 262 
3 223 222 242 
3 547 546 560 
3 144 158 127 
3 560 570 582 
3 561 560 582 
3 608 639 626 
3 639 640 626 
3 638 639 596 
3 625 637 596 
3 637 638 596 
3 572 583 563 
3 562 572 563 
3 690 700 674 
3 700 711 691 
3 711 712 691 
3 935 949 936 
3 949 959 936 
3 492 495 493 
3 495 502 493 
3 502 503 493 
3 78 79 58 
3 491 492 484 
3 485 484 492 
3 489 485 492 
3 397 410 398 
3 410 428 398 
3 428 429 398 
3 429 430 398 
3 329 330 308 
3 130 159 176 
3 111 131 112 
3 176 200 160 
3 528 540 522 
3 529 522 540 
3 38 39 1 
3 2 1 39 
3 25 2 39 
3 854 855 846 
3 855 856 846 
3 840 846 856 
3 739 756 740 
3 756 768 740 
3 331 348 309 
3 806 805 817 
3 783 805 806 
3 659 658 672 
3 638 658 659 
3 658 686 672 
3 686 687 672 
3 637 658 638 
3 270 271 233 
3 49 116 95 
3 116 117 95 
3 116 134 117 
3 134 135 117 
3 571 561 582 
3 341 342 324 
3 325 324 342 
3 302 301 325 
3 901 869 906 
3 870 869 901 
3 859 906 865 
3 901 902 888 
3 901 907 902 
3 907 908 902 
3 893 888 902 
3 909 941 929 
3 941 942 929 
3 918 928 909 
3 928 940 909 
3 940 941 909 
3 919 909 929 
3 436 481 482 
3 443 436 482 
3 423 436 443 
3 437 423 443 
3 407 423 437 
3 424 407 437 
3 477 476 483 
3 467 476 477 
3 467 463 476 
3 396 382 409 
3 61 60 82 
3 39 60 61 
3 40 39 61 
3 25 39 40 
3 55 54 76 
3 75 99 54 
3 76 54 99 
3 99 98 121 
3 75 98 99 
3 904 903 920 
3 895 903 904 
3 555 554 564 
3 535 554 555 
3 393 378 407 
3 406 423 378 
3 407 378 423 
3 786 772 795 
3 569 568 580 
3 558 568 569 
3 579 580 568 
3 580 581 569 
3 536 558 481 
3 335 367 351 
3 367 368 351 
3 368 367 381 
3 705 698 717 
3 846 843 853 
3 853 854 846 
3 333 363 334 
3 363 391 334 
3 389 390 363 
3 390 391 363 
3 350 363 333 
3 189 190 37 
3 671 670 683 
3 654 670 671 
3 653 670 654 
3 726 745 746 
3 727 726 746 
3 771 772 746 
3 427 440 428 
3 454 461 455 
3 421 422 389 
3 390 389 422 
3 639 659 640 
3 659 673 640 
3 423 406 436 
3 397 398 355 
3 356 355 398 
3 371 356 398 
3 370 383 355 
3 383 397 355 
3 338 355 356 
3 354 370 355 
3 99 123 76 
3 76 123 100 
3 212 230 213 
3 230 249 213 
3 213 249 231 
3 249 250 231 
3 694 693 702 
3 977 976 989 
3 961 976 977 
3 953 961 977 
3 427 426 440 
3 439 446 440 
3 446 447 440 
3 426 439 440 
3 913 914 901 
3 59 58 80 
3 38 58 59 
3 79 80 58 
3 245 264 246 
3 264 288 246 
3 265 246 288 
3 254 234 298 
3 274 254 298 
3 801 802 763 
3 252 253 189 
3 190 189 253 
3 884 885 882 
3 885 886 882 
3 883 882 886 
3 882 871 884 
3 192 191 217 
3 217 216 235 
3 191 216 217 
3 703 694 728 
3 662 694 703 
3 676 662 703 
3 727 728 694 
3 978 977 989 
3 710 743 721 
3 743 744 721 
3 720 743 710 
3 700 710 721 
3 168 184 169 
3 184 185 169 
3 154 168 169 
3 313 319 297 
3 319 333 297 
3 333 334 297 
3 677 663 695 
3 656 657 623 
3 38 0 58 
3 1 0 38 
3 926 951 952 
3 938 951 926 
3 925 938 926 
3 939 926 952 
3 413 462 414 
3 318 309 332 
3 310 309 318 
3 135 149 118 
3 149 162 118 
3 162 163 118 
3 150 118 163 
3 136 118 150 
3 119 118 136 
3 117 135 118 
3 438 443 444 
3 84 108 109 
3 431 430 448 
3 441 431 448 
3 927 926 939 
3 916 926 927 
3 500 515 510 
3 515 516 510 
3 509 515 499 
3 500 499 515 
3 14 2 25 
3 3 2 14 
3 475 482 476 
3 549 548 572 
3 537 548 549 
3 538 537 549 
3 571 572 548 
3 562 549 572 
3 102 101 124 
3 56 101 102 
3 57 56 102 
3 374 373 401 
3 413 414 401 
3 536 566 558 
3 344 345 329 
3 853 852 861 
3 861 852 866 
3 467 477 469 
3 380 395 381 
3 564 554 574 
3 699 710 700 
3 711 700 721 
3 721 722 711 
3 249 290 267 
3 248 290 249 
3 247 266 248 
3 266 290 248 
3 46 45 89 
3 18 45 46 
3 88 89 45 
3 67 46 89 
3 89 90 67 
3 945 944 957 
3 956 968 957 
3 968 969 957 
3 944 956 957 
3 548 561 571 
3 547 561 537 
3 548 537 561 
3 11 24 12 
3 24 54 12 
3 727 746 747 
3 728 727 747 
3 308 330 290 
3 985 986 972 
3 973 972 986 
3 779 801 763 
3 519 472 554 
3 535 519 554 
3 603 604 592 
3 604 605 592 
3 343 327 359 
3 328 327 343 
3 530 531 515 
3 516 515 531 
3 523 516 531 
3 531 532 523 
3 797 798 774 
3 775 774 798 
3 789 775 798 
3 869 870 866 
3 868 866 870 
3 533 532 543 
3 523 532 533 
3 524 523 533 
3 340 341 324 
3 353 354 336 
3 907 916 908 
3 916 927 908 
3 665 666 648 
3 831 836 841 
3 160 177 145 
3 146 145 177 
3 147 146 177 
3 975 988 976 
3 988 989 976 
3 552 551 563 
3 529 551 552 
3 540 551 529 
3 541 529 552 
3 163 164 150 
3 596 595 607 
3 607 625 596 
3 668 667 681 
3 651 667 668 
3 680 697 681 
3 667 680 681 
3 634 667 651 
3 44 43 65 
3 27 43 44 
3 64 65 43 
3 31 32 21 
3 468 478 471 
3 478 479 471 
3 466 468 471 
3 194 195 171 
3 281 303 261 
3 303 281 326 
3 526 547 537 
3 824 832 825 
3 832 845 825 
3 823 832 824 
3 841 845 832 
3 813 824 825 
3 572 571 583 
3 582 583 571 
3 872 873 862 
3 863 862 873 
3 253 273 190 
3 273 334 190 
3 273 297 334 
3 320 190 334 
3 320 391 474 
3 334 391 320 
3 483 498 488 
3 494 488 498 
3 845 841 849 
3 87 88 45 
3 864 863 867 
3 413 412 462 
3 473 456 480 
3 457 456 473 
3 497 490 507 
3 505 506 490 
3 506 507 490 
3 490 480 505 
3 973 974 959 
3 574 575 564 
3 909 894 918 
3 392 320 481 
3 474 481 320 
3 481 474 536 
3 659 672 673 
3 831 841 832 
3 830 836 831 
3 295 296 272 
3 499 498 509 
3 494 498 499 
3 445 444 450 
3 605 606 592 
3 983 984 970 
3 884 905 892 
3 896 892 905 
3 376 387 388 
3 702 726 694 
3 726 727 694 
3 924 936 937 
3 913 924 937 
3 84 109 85 
3 63 84 85 
3 64 63 85 
3 70 93 71 
3 93 115 71 
3 94 71 115 
3 966 980 981 
3 713 712 724 
3 712 723 724 
3 735 753 754 
3 930 943 944 
3 42 43 15 
3 27 15 43 
3 590 601 581 
3 801 813 802 
3 813 825 802 
3 588 566 598 
3 716 740 704 
3 786 795 808 
3 787 786 808 
3 556 520 576 
3 576 577 556 
3 914 915 901 
3 907 901 915 
3 915 916 907 
3 734 733 751 
3 763 762 779 
3 750 762 763 
3 751 750 763 
3 733 750 751 
3 36 53 24 
3 53 54 24 
3 411 399 431 
3 431 432 411 
3 605 604 620 
3 790 799 791 
3 799 812 791 
3 800 791 812 
3 115 132 94 
3 94 132 116 
3 132 133 116 
3 235 254 274 
3 391 390 422 
3 23 22 34 
3 10 22 23 
3 11 10 23 
3 83 108 84 
3 62 83 84 
3 63 62 84 
3 626 640 627 
3 177 160 201 
3 200 201 160 
3 201 202 177 
3 885 892 886 
3 892 897 886 
3 897 898 886 
3 368 381 382 
3 602 618 619 
3 530 529 541 
3 522 529 530 
3 509 522 530 
3 515 509 530 
3 687 686 706 
3 705 706 686 
3 518 517 524 
3 517 523 524 
3 436 392 481 
3 731 732 715 
3 29 45 18 
3 30 18 46 
3 19 18 30 
3 643 661 644 
3 984 993 970 
3 993 994 970 
3 994 995 970 
3 550 551 539 
3 540 539 551 
3 528 539 540 
3 422 435 391 
3 532 542 543 
3 531 542 532 
3 913 937 925 
3 937 938 925 
3 937 950 938 
3 950 951 938 
3 914 913 925 
3 147 204 178 
3 204 205 178 
3 177 203 147 
3 203 204 147 
3 161 147 178 
3 148 147 161 
3 812 824 800 
3 800 824 813 
3 399 400 384 
3 787 808 796 
3 23 36 24 
3 11 23 24 
3 975 976 961 
3 835 838 836 
3 608 609 597 
3 628 642 610 
3 567 578 568 
3 578 579 568 
3 579 578 589 
3 34 35 23 
3 512 518 513 
3 518 525 513 
3 333 319 350 
3 530 541 542 
3 531 530 542 
3 217 255 218 
3 255 256 218 
3 29 28 45 
3 45 44 66 
3 28 44 45 
3 42 41 63 
3 41 62 63 
3 197 196 221 
3 172 196 197 
3 221 237 197 
3 237 238 197 
3 171 196 172 
3 16 15 27 
3 891 890 895 
3 890 903 895 
3 645 676 646 
3 89 110 90 
3 110 111 90 
3 234 254 216 
3 235 216 254 
3 78 125 105 
3 125 126 105 
3 442 457 433 
3 296 313 297 
3 647 663 664 
3 47 68 31 
3 31 68 48 
3 68 69 48 
3 728 729 703 
3 715 703 729 
3 729 730 715 
3 226 243 227 
3 800 801 779 
3 509 498 522 
3 489 492 493 
3 705 717 706 
3 850 858 851 
3 858 860 851 
3 691 692 675 
3 414 415 402 
3 94 116 49 
3 72 49 95 
3 50 49 72 
3 963 962 979 
3 962 978 979 
3 603 602 619 
3 714 726 702 
3 843 846 840 
3 720 742 743 
3 709 720 710 
3 958 972 973 
3 690 699 700 
3 192 217 218 
3 235 255 217 
3 432 431 441 
3 448 449 441 
3 915 926 916 
3 941 963 954 
3 963 964 954 
3 102 103 57 
3 337 355 338 
3 635 622 654 
3 654 655 635 
3 277 299 278 
3 299 316 278 
3 469 470 465 
3 526 537 538 
3 527 526 538 
3 456 457 442 
3 968 982 969 
3 982 990 969 
3 562 563 550 
3 551 550 563 
3 289 308 290 
3 115 114 145 
3 132 115 145 
3 145 146 132 
3 107 129 108 
3 895 904 891 
3 520 521 506 
3 507 506 521 
3 514 507 521 
3 565 556 577 
3 580 590 581 
3 220 236 221 
3 236 258 221 
3 221 258 237 
3 258 259 237 
3 173 198 174 
3 198 199 174 
3 255 235 274 
3 274 275 255 
3 240 239 280 
3 605 620 606 
3 43 42 64 
3 42 63 64 
3 915 925 926 
3 914 925 915 
3 216 191 234 
3 491 488 494 
3 544 543 553 
3 533 543 544 
3 483 488 477 
3 484 477 488 
3 685 698 686 
3 698 705 686 
3 17 29 18 
3 66 87 45 
3 586 596 587 
3 363 349 377 
3 377 389 363 
3 464 467 465 
3 467 469 465 
3 342 341 358 
3 341 357 358 
3 778 791 779 
3 791 800 779 
3 773 788 774 
3 788 797 774 
3 662 676 645 
3 556 565 545 
3 557 545 565 
3 311 318 312 
3 905 911 896 
3 506 505 520 
3 873 872 876 
3 257 278 236 
3 236 278 258 
3 171 172 155 
3 195 196 171 
3 547 560 561 
3 89 130 110 
3 121 122 99 
3 598 599 588 
3 488 491 484 
3 507 514 497 
3 497 514 508 
3 301 302 280 
3 876 883 878 
3 885 884 892 
3 965 980 966 
3 974 973 986 
3 598 615 599 
3 859 860 858 
3 921 931 922 
3 929 930 919 
3 917 928 918 
3 967 968 956 
3 965 966 955 
3 954 965 955 
3 964 965 954 
3 950 960 951 
3 958 959 949 
3 992 993 984 
3 983 992 984 
3 991 992 983 
3 967 982 968 
3 981 982 967 
3 966 981 967 
3 964 980 965 
3 958 973 959 
3 942 955 943 
3 954 955 942 
3 941 954 942 
3 929 943 930 
3 942 943 929 
3 909 919 910 
3 896 897 892 
3 879 880 877 
3 859 865 860 
3 803 804 792 
3 789 799 790 
3 796 797 788 
3 787 796 788 
3 847 851 848 
3 850 851 847 
3 822 832 823 
3 831 832 822 
3 821 831 822 
3 830 831 821 
3 820 830 821 
3 800 813 801 
3 811 812 799 
3 809 810 798 
3 797 809 798 
3 823 824 812 
3 811 823 812 
3 822 823 811 
3 810 822 811 
3 821 822 810 
3 809 821 810 
3 820 821 809 
3 692 702 693 
3 701 702 692 
3 689 699 690 
3 738 756 739 
3 736 755 737 
3 732 750 733 
3 749 750 732 
3 731 749 732 
3 748 749 731 
3 730 748 731 
3 741 757 742 
3 778 779 762 
3 761 778 762 
3 777 778 761 
3 760 777 761 
3 776 777 760 
3 777 791 778 
3 790 791 777 
3 776 790 777 
3 789 790 776 
3 775 789 776 
3 752 765 753 
3 749 762 750 
3 761 762 749 
3 748 761 749 
3 760 761 748 
3 730 731 715 
3 725 726 714 
3 713 725 714 
3 724 725 713 
3 711 723 712 
3 722 723 711 
3 708 720 709 
3 719 720 708 
3 707 719 708 
3 718 719 707 
3 725 745 726 
3 719 742 720 
3 741 742 719 
3 718 741 719 
3 701 714 702 
3 713 714 701 
3 642 661 643 
3 638 659 639 
3 636 658 637 
3 654 671 655 
3 692 693 675 
3 681 682 668 
3 684 698 685 
3 664 678 665 
3 641 642 628 
3 636 637 625 
3 624 636 625 
3 608 627 609 
3 626 627 608 
3 624 625 607 
3 437 438 424 
3 421 435 422 
3 434 435 421 
3 420 434 421 
3 491 495 492 
3 533 544 534 
3 527 539 528 
3 538 539 527 
3 579 590 580 
3 589 590 579 
3 589 601 590 
3 549 562 550 
3 567 568 558 
3 538 550 539 
3 549 550 538 
3 510 517 511 
3 516 517 510 
3 524 534 525 
3 533 534 524 
3 524 525 518 
3 516 523 517 
3 501 511 502 
3 510 511 501 
3 500 510 501 
3 501 502 495 
3 499 500 494 
3 463 467 464 
3 485 489 486 
3 459 460 453 
3 452 459 453 
3 458 459 452 
3 451 458 452 
3 445 446 439 
3 437 443 438 
3 448 455 449 
3 454 455 448 
3 452 453 447 
3 446 452 447 
3 451 452 446 
3 445 451 446 
3 450 451 445 
3 219 236 220 
3 231 251 232 
3 250 251 231 
3 248 249 230 
3 229 248 230 
3 247 248 229 
3 244 245 228 
3 225 243 226 
3 223 242 224 
3 338 339 323 
3 322 338 323 
3 337 338 322 
3 321 337 322 
3 336 337 321 
3 347 348 331 
3 368 382 369 
3 380 381 367 
3 366 380 367 
3 379 380 366 
3 365 379 366 
3 388 389 377 
3 376 388 377 
3 399 411 400 
3 393 408 394 
3 407 408 393 
3 404 417 405 
3 416 417 404 
3 403 416 404 
3 415 416 403 
3 402 415 403 
3 427 428 410 
3 407 424 408 
3 379 395 380 
3 394 395 379 
3 404 405 386 
3 385 404 386 
3 403 404 385 
3 353 370 354 
3 351 369 352 
3 368 369 351 
3 349 363 350 
3 344 361 345 
3 360 361 344 
3 343 360 344 
3 359 360 343 
3 360 359 373 
3 372 373 359 
3 360 374 361 
3 373 374 360 
3 340 357 341 
3 338 356 339 
3 336 355 337 
3 354 355 336 
3 351 352 335 
3 276 299 277 
3 295 313 296 
3 312 313 295 
3 294 312 295 
3 311 312 294 
3 293 311 294 
3 310 311 293 
3 292 310 293 
3 309 310 292 
3 291 309 292 
3 283 306 284 
3 305 306 283 
3 315 323 316 
3 322 323 315 
3 314 322 315 
3 321 322 314 
3 312 319 313 
3 310 318 311 
3 327 328 317 
3 315 316 299 
3 258 279 259 
3 277 278 257 
3 256 277 257 
3 276 277 256 
3 255 276 256 
3 275 276 255 
3 252 273 253 
3 272 273 252 
3 268 269 251 
3 250 268 251 
3 267 268 250 
3 249 267 250 
3 244 264 245 
3 263 264 244 
3 272 297 273 
3 296 297 272 
3 293 294 271 
3 270 293 271 
3 292 293 270 
3 269 292 270 
3 291 292 269 
3 268 291 269 
3 289 290 266 
3 265 289 266 
3 287 288 264 
3 263 287 264 
3 286 287 263 
3 100 124 101 
3 122 123 99 
3 120 121 98 
3 97 120 98 
3 119 120 97 
3 96 119 97 
3 118 119 96 
3 95 118 96 
3 117 118 95 
3 110 131 111 
3 106 129 107 
3 172 173 155 
3 169 186 170 
3 185 186 169 
3 183 184 168 
3 167 183 168 
3 164 182 165 
3 181 182 164 
3 163 181 164 
3 180 181 163 
3 162 180 163 
3 179 180 162 
3 161 179 162 
3 178 179 161 
3 197 198 173 
3 172 197 173 
3 194 193 219 
3 218 219 193 
3 192 218 193 
3 185 213 186 
3 212 213 185 
3 184 212 185 
3 211 212 184 
3 183 211 184 
3 210 211 183 
3 181 209 182 
3 208 209 181 
3 180 208 181 
3 207 208 180 
3 179 207 180 
3 206 207 179 
3 178 206 179 
3 205 206 178 
3 202 203 177 
3 195 221 196 
3 220 221 195 
3 194 220 195 
3 219 220 194 
3 211 230 212 
3 229 230 211 
3 210 229 211 
3 208 228 209 
3 204 227 205 
3 226 227 204 
3 203 226 204 
3 225 226 203 
3 202 225 203 
3 224 225 202 
3 201 224 202 
3 223 224 201 
3 200 223 201 
3 222 223 200 
3 139 154 140 
3 153 154 139 
3 138 153 139 
3 152 153 138 
3 137 152 138 
3 151 152 137 
3 136 151 137 
3 150 151 136 
3 134 149 135 
3 148 149 134 
3 133 148 134 
3 147 148 133 
3 132 147 133 
3 146 147 132 
3 125 144 126 
3 143 144 125 
3 153 168 154 
3 167 168 153 
3 152 167 153 
3 166 167 152 
3 151 166 152 
3 165 166 151 
3 150 165 151 
3 164 165 150 
3 161 162 149 
3 148 161 149 
3 143 158 144 
3 139 140 123 
3 122 139 123 
3 138 139 122 
3 121 138 122 
3 137 138 121 
3 120 137 121 
3 136 137 120 
3 119 136 120 
3 133 134 116 
3 52 53 36 
3 35 52 36 
3 51 52 35 
3 34 51 35 
3 50 51 34 
3 31 48 32 
3 46 47 30 
3 27 44 28 
3 40 62 41 
3 61 62 40 
3 74 98 75 
3 97 98 74 
3 73 97 74 
3 96 97 73 
3 72 96 73 
3 95 96 72 
3 69 93 70 
3 92 93 69 
3 68 92 69 
3 91 92 68 
3 67 91 68 
3 90 91 67 
3 86 87 66 
3 65 86 66 
3 61 83 62 
3 82 83 61 
3 114 115 93 
3 92 114 93 
3 113 114 92 
3 91 113 92 
3 112 113 91 
3 90 112 91 
3 111 112 90 
3 107 108 83 
3 82 107 83 
3 106 107 82 
3 78 105 79 
3 53 75 54 
3 74 75 53 
3 52 74 53 
3 73 74 52 
3 51 73 52 
3 72 73 51 
3 50 72 51 
3 69 70 48 
3 67 68 47 
3 46 67 47 
3 65 66 44 
3 35 36 23 
3 19 30 20 
3 27 28 16 
3 25 26 14 
3 25 41 26 
3 40 41 25 
3 6 20 7 
3 19 20 6 
3 5 19 6 
3 18 19 5 
3 4 18 5 
3 17 18 4 
