OFF
1000 1935 0
0 0 251 
0 19 243 
0 21 204 
0 27 251 
0 28 154 
0 29 113 
0 30 84 
0 32 105 
0 119 98 
1 16 249 
1 18 219 
1 19 186 
1 20 139 
1 22 142 
1 23 200 
1 24 246 
1 26 234 
1 28 251 
1 29 164 
2 13 236 
2 14 213 
2 15 193 
2 16 169 
2 17 142 
2 18 121 
2 23 137 
2 24 188 
2 25 243 
2 26 253 
2 29 250 
2 30 181 
3 5 251 
3 9 230 
3 10 199 
3 11 176 
3 13 152 
3 14 136 
3 16 119 
3 20 119 
3 23 114 
3 24 134 
3 25 187 
3 26 237 
3 27 253 
3 30 252 
3 31 181 
3 32 92 
3 34 117 
3 35 99 
3 56 100 
4 0 253 
4 2 253 
4 5 219 
4 6 184 
4 9 146 
4 11 137 
4 14 125 
4 17 141 
4 20 184 
4 21 146 
4 26 167 
4 27 220 
4 28 253 
4 29 240 
4 32 205 
4 33 108 
4 34 74 
5 1 217 
5 2 183 
5 5 145 
5 6 136 
5 9 133 
5 14 142 
5 16 176 
5 17 203 
5 20 250 
5 21 185 
5 22 140 
5 26 126 
5 27 153 
5 28 200 
5 32 253 
5 33 213 
5 34 127 
5 35 80 
5 41 105 
5 42 85 
5 43 108 
6 1 146 
6 3 141 
6 10 147 
6 11 154 
6 14 214 
6 15 246 
6 17 253 
6 21 238 
6 22 187 
6 27 123 
6 28 141 
6 29 194 
6 33 253 
6 34 228 
6 35 128 
6 38 112 
6 42 102 
6 44 101 
7 3 120 
7 4 144 
7 6 131 
7 8 137 
7 9 164 
7 10 201 
7 11 228 
7 21 253 
7 22 234 
7 23 183 
7 24 149 
7 29 143 
7 30 184 
7 31 236 
7 32 253 
7 35 249 
7 36 151 
7 37 77 
7 38 82 
7 39 115 
7 40 96 
8 0 117 
8 3 147 
8 4 137 
8 5 158 
8 6 189 
8 7 216 
8 8 236 
8 23 242 
8 24 209 
8 25 166 
8 31 165 
8 32 223 
8 36 239 
8 37 133 
8 38 86 
8 114 96 
8 118 95 
9 0 162 
9 1 184 
9 2 206 
9 3 222 
9 4 250 
9 6 248 
9 10 248 
9 25 215 
9 26 174 
9 27 143 
9 31 137 
9 32 164 
9 33 231 
9 34 252 
9 35 223 
9 38 154 
9 39 77 
9 115 87 
9 116 132 
9 118 116 
10 0 244 
10 3 251 
10 25 246 
10 26 218 
10 27 183 
10 28 147 
10 32 134 
10 33 163 
10 34 218 
10 35 250 
10 36 223 
10 38 251 
10 39 175 
10 40 102 
10 41 85 
10 44 97 
10 52 101 
10 107 100 
10 110 106 
10 112 84 
10 113 118 
10 114 194 
10 115 237 
10 117 250 
10 118 218 
10 119 92 
11 27 230 
11 30 139 
11 32 150 
11 33 138 
11 34 156 
11 35 225 
11 36 249 
11 39 253 
11 40 209 
11 41 114 
11 44 115 
11 119 131 
12 27 250 
12 28 232 
12 33 132 
12 34 154 
12 40 253 
12 41 226 
12 42 153 
12 43 89 
12 69 99 
12 112 87 
12 113 152 
12 118 237 
12 119 186 
13 25 234 
13 28 251 
13 29 232 
13 30 183 
13 36 148 
13 37 217 
13 38 253 
13 39 237 
13 41 253 
13 43 184 
13 44 94 
13 51 110 
13 107 102 
13 111 108 
13 113 134 
13 114 253 
13 115 226 
13 116 248 
13 117 229 
13 118 220 
13 119 188 
14 29 252 
14 30 235 
14 31 191 
14 32 164 
14 33 142 
14 36 128 
14 37 155 
14 38 200 
14 40 252 
14 43 253 
14 44 217 
14 45 114 
14 46 83 
14 47 105 
14 51 87 
14 112 91 
14 113 139 
14 114 252 
14 115 230 
14 116 245 
14 117 225 
14 118 236 
14 119 192 
15 28 252 
15 29 233 
15 30 250 
15 31 248 
15 32 192 
15 34 157 
15 35 134 
15 37 128 
15 39 184 
15 40 233 
15 41 251 
15 44 253 
15 46 139 
15 47 75 
15 50 84 
15 51 110 
15 52 103 
15 116 224 
15 118 252 
15 119 217 
16 4 251 
16 19 247 
16 28 241 
16 31 234 
16 32 252 
16 33 218 
16 36 130 
16 39 137 
16 40 159 
16 41 212 
16 42 245 
16 46 254 
16 47 204 
16 50 121 
16 112 91 
16 114 220 
16 118 224 
17 36 162 
17 37 142 
17 41 171 
17 42 211 
17 43 249 
17 47 254 
17 48 230 
17 49 134 
17 50 81 
17 51 107 
17 68 101 
17 110 96 
17 112 127 
17 113 189 
17 114 237 
17 119 209 
18 35 243 
18 36 178 
18 41 139 
18 42 171 
18 43 210 
18 44 240 
18 49 190 
18 111 118 
18 117 219 
18 119 236 
19 36 246 
19 37 178 
19 38 148 
19 43 157 
19 44 217 
19 49 212 
19 108 85 
19 111 139 
19 112 210 
19 113 193 
19 114 224 
19 116 216 
19 117 243 
19 119 208 
20 37 252 
20 38 208 
20 44 161 
20 45 202 
20 46 240 
20 49 232 
20 50 93 
20 105 88 
20 108 109 
20 109 130 
20 110 170 
20 111 213 
20 112 241 
21 39 227 
21 40 166 
21 41 139 
21 44 132 
21 46 178 
21 47 220 
21 48 249 
21 49 253 
21 50 111 
21 52 104 
21 99 101 
21 105 111 
21 106 185 
21 109 228 
21 110 234 
21 117 220 
22 40 245 
22 41 201 
22 46 137 
22 47 156 
22 48 194 
22 49 247 
22 50 128 
22 51 87 
22 106 232 
22 107 253 
22 108 236 
22 110 224 
22 119 203 
23 41 252 
23 42 235 
23 43 172 
23 44 138 
23 48 145 
23 49 161 
23 105 100 
23 109 221 
23 110 241 
23 112 241 
23 113 220 
23 118 166 
23 119 89 
24 17 252 
24 29 244 
24 43 252 
24 44 173 
24 45 135 
24 46 119 
24 47 141 
24 48 121 
24 49 90 
24 51 114 
24 106 236 
24 108 248 
24 111 202 
24 112 174 
24 113 138 
24 114 209 
24 115 235 
24 117 248 
24 118 215 
24 119 184 
25 39 245 
25 44 248 
25 45 174 
25 46 99 
25 55 104 
25 105 99 
25 106 217 
25 108 173 
25 109 150 
25 110 120 
25 111 93 
25 113 112 
26 108 107 
26 111 113 
26 113 197 
26 114 218 
26 119 172 
27 45 238 
27 46 99 
27 111 94 
27 112 137 
27 113 132 
27 114 201 
27 115 238 
27 116 221 
27 118 224 
27 119 148 
28 113 88 
28 114 202 
28 119 172 
29 119 205 
30 115 233 
31 112 101 
31 113 85 
31 114 205 
31 117 242 
32 45 242 
32 46 102 
32 108 107 
32 118 218 
33 114 186 
33 115 243 
34 114 168 
34 115 251 
34 116 234 
35 116 210 
36 113 98 
36 114 154 
37 45 232 
37 46 96 
37 115 246 
38 114 148 
39 114 102 
39 115 129 
40 43 243 
40 115 66 
40 116 97 
40 117 114 
41 45 214 
41 46 88 
41 47 112 
41 117 88 
42 44 253 
42 87 105 
42 106 102 
42 111 85 
42 114 84 
42 117 105 
42 119 129 
43 97 105 
43 104 92 
43 106 81 
43 108 78 
43 110 116 
43 111 137 
43 117 180 
43 119 189 
44 98 89 
44 101 95 
44 103 126 
44 104 144 
44 105 161 
44 108 195 
44 111 196 
45 44 249 
45 45 184 
45 89 109 
45 93 96 
45 95 90 
45 97 121 
45 98 146 
45 99 162 
45 103 183 
45 108 166 
45 111 167 
46 19 252 
46 89 93 
46 91 100 
46 93 118 
46 94 147 
46 95 173 
46 99 180 
47 16 251 
47 18 236 
47 21 186 
47 22 211 
47 23 249 
47 86 98 
47 88 105 
47 89 118 
47 90 135 
47 92 188 
47 94 186 
47 100 168 
47 119 161 
48 10 245 
48 14 229 
48 15 213 
48 16 197 
48 17 178 
48 18 159 
48 20 122 
48 22 165 
48 23 215 
48 44 251 
48 45 187 
48 85 101 
48 86 120 
48 87 139 
48 88 158 
48 89 176 
48 90 193 
49 4 253 
49 8 237 
49 9 221 
49 10 206 
49 12 169 
49 15 147 
49 17 133 
49 23 151 
49 24 192 
49 25 242 
49 45 188 
49 46 94 
49 85 166 
49 90 171 
49 95 168 
50 0 249 
50 2 248 
50 4 202 
50 7 167 
50 9 148 
50 13 145 
50 16 131 
50 18 112 
50 19 130 
50 20 137 
50 24 142 
50 25 172 
50 47 113 
50 79 95 
50 81 137 
50 83 188 
50 85 188 
51 0 220 
51 1 197 
51 2 172 
51 3 155 
51 4 143 
51 6 143 
51 14 125 
51 17 131 
51 18 148 
51 20 171 
51 24 125 
51 26 163 
51 27 209 
51 28 230 
51 29 249 
51 33 244 
51 44 252 
51 45 193 
51 67 105 
51 76 84 
51 77 106 
51 78 136 
51 79 161 
51 80 178 
51 85 169 
51 116 161 
52 1 140 
52 3 133 
52 9 132 
52 12 136 
52 13 156 
52 14 169 
52 16 192 
52 18 221 
52 19 249 
52 20 224 
52 21 161 
52 22 136 
52 26 134 
52 27 158 
52 28 204 
52 32 209 
52 76 151 
52 77 168 
53 5 131 
53 7 130 
53 12 213 
53 13 231 
53 20 253 
53 21 194 
53 22 163 
53 25 144 
53 27 137 
53 28 175 
53 29 201 
53 30 233 
53 45 214 
53 46 97 
53 73 102 
53 74 149 
53 76 191 
53 117 145 
54 0 123 
54 4 154 
54 6 188 
54 7 212 
54 8 232 
54 13 253 
54 19 233 
54 22 232 
54 23 202 
54 24 170 
54 26 142 
54 29 162 
54 30 201 
54 32 236 
54 36 240 
54 44 251 
54 69 91 
54 71 115 
54 72 157 
54 74 193 
55 0 152 
55 1 170 
55 2 195 
55 3 213 
55 4 250 
55 13 232 
55 18 250 
55 23 241 
55 24 213 
55 26 174 
55 27 153 
55 29 138 
55 30 158 
55 32 185 
55 33 220 
55 34 241 
55 35 225 
55 36 210 
55 65 99 
55 68 90 
55 69 122 
55 70 162 
56 0 245 
56 25 248 
56 26 221 
56 27 199 
56 28 176 
56 32 143 
56 33 180 
56 45 250 
56 46 109 
56 66 118 
56 70 185 
56 92 149 
57 19 227 
57 20 252 
57 21 235 
57 27 252 
57 28 231 
57 29 172 
57 31 160 
57 33 152 
57 34 200 
57 35 229 
57 36 250 
57 63 100 
57 65 136 
57 66 173 
57 67 199 
57 80 149 
58 29 233 
58 30 208 
58 31 181 
58 32 154 
58 34 146 
58 35 162 
58 37 217 
58 38 237 
58 46 136 
58 47 86 
58 48 123 
58 49 97 
58 59 112 
58 60 95 
58 62 112 
58 63 146 
58 64 183 
58 66 183 
58 67 164 
58 119 136 
59 31 248 
59 32 214 
59 33 163 
59 37 165 
59 38 180 
59 39 216 
59 40 243 
59 44 252 
59 46 187 
59 48 88 
59 50 116 
59 52 98 
59 53 116 
59 59 83 
59 60 112 
59 61 139 
59 62 172 
59 102 137 
60 33 201 
60 34 158 
60 36 134 
60 38 158 
60 39 174 
60 41 204 
60 43 227 
60 45 253 
60 46 235 
60 47 194 
60 48 117 
60 49 77 
60 50 106 
60 51 125 
60 55 116 
60 58 101 
60 59 134 
60 60 168 
60 63 185 
61 33 247 
61 34 218 
61 35 180 
61 36 150 
61 40 146 
61 41 163 
61 42 187 
61 46 231 
61 47 253 
61 49 142 
61 55 93 
61 57 130 
61 58 161 
61 62 168 
62 36 218 
62 37 176 
62 39 139 
62 41 149 
62 42 173 
62 43 217 
62 44 235 
62 47 237 
62 49 253 
62 50 119 
62 55 112 
62 56 146 
62 57 183 
62 59 189 
62 60 168 
63 36 251 
63 37 226 
63 38 187 
63 39 161 
63 42 152 
63 43 178 
63 45 209 
63 46 244 
63 50 144 
63 51 100 
63 54 137 
63 55 179 
63 56 194 
63 59 187 
63 62 175 
64 38 244 
64 39 204 
64 40 179 
64 43 135 
64 46 183 
64 50 127 
64 51 75 
64 52 119 
64 53 163 
64 54 193 
64 56 174 
64 59 163 
64 60 181 
64 62 158 
65 0 248 
65 40 253 
65 41 219 
65 42 169 
65 43 143 
65 46 144 
65 48 214 
65 49 248 
65 50 106 
65 51 155 
65 52 197 
65 53 181 
66 0 229 
66 28 247 
66 42 214 
66 44 157 
66 45 140 
66 48 135 
66 49 182 
66 51 186 
67 42 246 
67 43 227 
67 44 176 
67 48 151 
68 43 252 
68 44 222 
68 45 177 
68 47 162 
68 56 162 
69 44 252 
69 45 223 
69 46 192 
69 48 186 
70 13 250 
70 45 244 
70 46 208 
70 47 178 
70 49 163 
72 0 229 
72 3 244 
72 44 232 
72 110 115 
73 0 167 
73 46 184 
73 47 158 
74 1 209 
74 2 225 
74 97 115 
75 0 246 
75 45 248 
76 46 180 
76 80 109 
76 105 104 
78 3 252 
79 46 168 
79 47 133 
80 45 240 
81 46 161 
81 47 126 
81 51 111 
81 52 128 
82 46 143 
83 68 111 
84 45 239 
84 46 136 
84 47 120 
88 45 237 
88 46 133 
89 15 250 
90 12 249 
90 13 228 
90 14 206 
90 16 223 
90 23 224 
90 76 104 
91 8 250 
91 10 234 
91 12 220 
91 14 230 
91 25 252 
92 0 252 
92 12 247 
92 20 221 
92 22 232 
92 23 252 
92 25 232 
93 3 237 
93 8 218 
93 10 229 
93 14 252 
93 16 252 
93 17 236 
93 18 211 
93 20 186 
93 22 203 
93 24 252 
94 0 229 
94 4 217 
94 8 247 
94 10 251 
94 13 233 
94 15 198 
94 16 174 
94 17 155 
94 19 148 
94 20 110 
94 21 137 
94 22 173 
94 23 203 
94 24 233 
94 45 244 
94 46 139 
94 47 109 
95 0 251 
95 4 251 
95 7 234 
95 8 216 
95 11 180 
95 13 162 
95 16 147 
95 17 127 
95 18 104 
95 20 93 
95 21 125 
95 23 140 
95 24 179 
95 25 227 
95 26 249 
96 5 195 
96 7 158 
96 9 146 
96 11 137 
96 16 125 
96 20 138 
96 22 160 
96 24 148 
96 25 167 
96 26 200 
97 0 180 
97 2 170 
97 4 151 
97 7 134 
97 13 130 
97 15 135 
97 16 134 
97 19 155 
97 21 249 
97 23 172 
97 27 203 
97 28 249 
98 0 107 
98 1 133 
98 6 123 
98 12 133 
98 13 155 
98 15 158 
98 16 193 
98 17 231 
98 19 249 
98 23 249 
98 27 148 
98 28 169 
98 29 203 
99 0 108 
99 11 135 
99 12 205 
99 13 230 
99 14 248 
99 26 198 
99 27 146 
99 28 163 
99 30 186 
99 31 233 
99 32 251 
99 45 238 
99 46 174 
99 47 99 
99 119 100 
3 419 420 385 
3 386 385 420 
3 403 386 420 
3 420 421 403 
3 484 483 493 
3 476 483 484 
3 475 483 476 
3 493 504 484 
3 504 505 484 
3 494 484 505 
3 449 475 457 
3 475 476 457 
3 463 457 476 
3 462 457 463 
3 194 205 195 
3 205 219 195 
3 196 195 219 
3 240 264 205 
3 264 265 205 
3 241 205 265 
3 219 205 241 
3 467 468 464 
3 461 464 468 
3 456 461 468 
3 450 456 468 
3 199 208 178 
3 208 209 178 
3 200 178 209 
3 179 178 200 
3 273 272 292 
3 249 272 273 
3 291 302 272 
3 302 303 272 
3 292 272 303 
3 700 712 701 
3 712 713 701 
3 730 712 747 
3 713 712 730 
3 196 220 175 
3 220 221 175 
3 197 175 221 
3 221 222 197 
3 84 103 48 
3 85 48 103 
3 103 125 85 
3 125 126 85 
3 102 122 84 
3 122 123 84 
3 103 84 123 
3 265 285 241 
3 266 241 285 
3 632 718 570 
3 718 738 570 
3 738 739 570 
3 719 570 739 
3 739 759 719 
3 331 348 332 
3 348 388 332 
3 406 407 388 
3 364 388 407 
3 347 387 348 
3 387 388 348 
3 364 332 388 
3 654 653 678 
3 593 653 654 
3 633 593 654 
3 654 655 633 
3 594 593 633 
3 633 634 594 
3 617 594 634 
3 634 635 617 
3 571 474 594 
3 571 572 474 
3 474 593 594 
3 415 593 306 
3 474 306 593 
3 537 474 572 
3 886 889 887 
3 882 887 889 
3 889 934 882 
3 222 244 206 
3 223 206 244 
3 328 361 344 
3 361 374 344 
3 374 375 344 
3 908 919 897 
3 909 897 919 
3 909 910 897 
3 898 897 910 
3 918 935 908 
3 935 936 908 
3 935 961 936 
3 961 962 936 
3 919 908 936 
3 936 950 919 
3 937 919 950 
3 909 919 937 
3 950 951 937 
3 963 950 974 
3 951 950 963 
3 334 364 335 
3 364 377 335 
3 377 364 389 
3 915 928 916 
3 928 929 916 
3 904 915 916 
3 905 904 916 
3 126 178 104 
3 178 179 104 
3 105 104 179 
3 433 439 434 
3 439 442 434 
3 435 434 442 
3 442 446 435 
3 441 435 446 
3 436 435 441 
3 899 903 900 
3 903 911 900 
3 911 912 900 
3 894 900 912 
3 684 669 697 
3 670 669 684 
3 649 669 670 
3 650 649 670 
3 13 12 38 
3 2 12 13 
3 38 59 13 
3 39 13 59 
3 25 13 39 
3 981 980 990 
3 968 980 981 
3 989 990 980 
3 958 981 990 
3 969 981 957 
3 958 957 981 
3 982 958 990 
3 970 958 982 
3 959 958 970 
3 227 307 228 
3 251 228 307 
3 293 251 307 
3 349 336 411 
3 337 336 349 
3 322 392 336 
3 392 411 336 
3 365 349 411 
3 312 282 392 
3 283 282 312 
3 312 392 322 
3 281 392 282 
3 759 760 719 
3 759 775 760 
3 775 776 760 
3 754 772 755 
3 772 773 755 
3 785 786 772 
3 773 772 786 
3 476 485 477 
3 485 494 477 
3 494 505 477 
3 477 505 486 
3 505 525 486 
3 525 505 600 
3 487 486 525 
3 894 904 895 
3 904 905 895 
3 905 906 895 
3 890 875 891 
3 855 875 890 
3 861 875 855 
3 890 895 855 
3 891 875 897 
3 867 870 868 
3 870 875 868 
3 861 868 875 
3 163 189 143 
3 8 143 189 
3 856 865 857 
3 865 866 857 
3 858 857 866 
3 859 858 866 
3 944 943 955 
3 926 943 944 
3 955 943 967 
3 942 967 943 
3 54 71 55 
3 71 90 55 
3 55 91 72 
3 91 92 72 
3 90 91 55 
3 35 55 72 
3 359 306 474 
3 210 306 359 
3 181 210 359 
3 184 212 185 
3 212 230 185 
3 230 231 185 
3 186 185 231 
3 231 232 186 
3 187 186 232 
3 232 233 187 
3 213 187 233 
3 31 53 32 
3 53 54 32 
3 0 31 32 
3 70 71 53 
3 54 53 71 
3 9 0 19 
3 1 0 9 
3 19 0 32 
3 32 33 19 
3 33 34 19 
3 560 580 543 
3 561 543 580 
3 544 543 561 
3 182 227 228 
3 307 227 328 
3 181 227 182 
3 990 991 982 
3 444 445 438 
3 442 438 445 
3 439 438 442 
3 724 723 763 
3 703 723 724 
3 453 458 454 
3 456 454 458 
3 458 461 456 
3 694 693 835 
3 680 693 694 
3 707 694 835 
3 695 694 707 
3 327 301 340 
3 318 301 327 
3 302 301 318 
3 340 354 327 
3 354 355 327 
3 341 327 355 
3 290 317 301 
3 317 340 301 
3 422 421 425 
3 404 421 422 
3 403 421 404 
3 425 424 431 
3 421 424 425 
3 635 706 618 
3 597 618 706 
3 596 618 597 
3 598 597 706 
3 599 598 706 
3 573 598 599 
3 202 166 215 
3 190 166 202 
3 167 166 190 
3 572 573 537 
3 555 537 573 
3 573 574 555 
3 140 174 159 
3 174 175 159 
3 158 174 139 
3 140 139 174 
3 253 294 254 
3 276 254 294 
3 294 310 276 
3 310 320 276 
3 332 333 310 
3 320 310 333 
3 747 746 766 
3 712 746 747 
3 711 746 712 
3 729 746 711 
3 799 798 811 
3 784 798 799 
3 811 826 799 
3 826 837 799 
3 837 838 799 
3 827 799 838 
3 812 799 827 
3 865 872 866 
3 872 877 866 
3 877 881 866 
3 881 882 866 
3 859 866 882 
3 113 280 134 
3 215 134 280 
3 166 134 215 
3 151 134 166 
3 135 134 151 
3 781 810 797 
3 810 824 797 
3 824 825 797 
3 612 625 585 
3 625 645 585 
3 645 646 585 
3 626 585 646 
3 504 600 505 
3 490 489 503 
3 481 489 490 
3 384 401 373 
3 374 373 401 
3 401 402 374 
3 491 503 492 
3 503 504 492 
3 503 524 504 
3 524 744 504 
3 600 504 744 
3 375 374 402 
3 448 460 415 
3 460 471 415 
3 471 593 415 
3 554 570 496 
3 471 496 570 
3 593 570 719 
3 471 570 593 
3 495 536 496 
3 536 554 496 
3 473 496 470 
3 471 470 496 
3 469 473 470 
3 647 646 666 
3 626 646 647 
3 665 680 666 
3 680 681 666 
3 646 665 666 
3 73 72 93 
3 56 72 73 
3 37 56 73 
3 259 281 260 
3 281 282 260 
3 261 260 282 
3 125 160 126 
3 160 177 126 
3 177 178 126 
3 303 304 292 
3 962 974 950 
3 294 293 309 
3 252 293 294 
3 251 293 252 
3 253 252 294 
3 911 903 922 
3 923 922 940 
3 911 922 923 
3 940 965 923 
3 954 923 965 
3 941 923 954 
3 326 339 317 
3 339 340 317 
3 389 390 377 
3 333 332 364 
3 407 408 364 
3 389 364 408 
3 319 330 308 
3 330 331 308 
3 309 308 331 
3 343 361 328 
3 974 986 963 
3 952 963 986 
3 953 952 986 
3 482 492 504 
3 493 482 504 
3 636 600 744 
3 337 349 324 
3 349 350 324 
3 314 324 350 
3 286 324 314 
3 350 351 314 
3 298 286 314 
3 287 286 298 
3 325 314 351 
3 315 314 325 
3 351 352 325 
3 338 325 352 
3 352 351 380 
3 366 379 351 
3 379 380 351 
3 440 436 441 
3 277 295 278 
3 295 311 278 
3 717 736 718 
3 736 756 718 
3 718 756 737 
3 756 757 737 
3 956 969 946 
3 957 946 969 
3 850 859 882 
3 443 449 457 
3 572 598 573 
3 320 334 335 
3 321 320 335 
3 7 48 85 
3 85 86 7 
3 86 87 7 
3 49 7 87 
3 87 105 49 
3 861 860 868 
3 834 860 861 
3 864 867 860 
3 867 868 860 
3 993 994 984 
3 994 995 984 
3 971 984 995 
3 901 971 995 
3 888 901 995 
3 932 888 995 
3 6 30 7 
3 30 45 7 
3 45 46 7 
3 499 500 480 
3 488 480 500 
3 500 501 488 
3 531 532 514 
3 506 514 532 
3 515 506 532 
3 531 566 532 
3 566 567 532 
3 468 479 450 
3 472 479 468 
3 452 455 446 
3 450 446 455 
3 455 456 450 
3 904 894 914 
3 890 894 895 
3 913 914 894 
3 756 773 757 
3 773 787 757 
3 758 757 787 
3 652 651 714 
3 591 651 652 
3 701 714 674 
3 651 674 714 
3 714 733 652 
3 686 652 733 
3 713 714 701 
3 751 750 770 
3 733 750 751 
3 734 733 751 
3 733 734 686 
3 715 686 734 
3 734 735 715 
3 478 479 472 
3 707 835 727 
3 764 727 835 
3 692 835 693 
3 835 692 855 
3 793 764 835 
3 246 270 247 
3 270 271 247 
3 271 270 290 
3 710 729 698 
3 711 698 729 
3 979 989 980 
3 499 511 500 
3 511 557 500 
3 512 500 557 
3 920 938 921 
3 938 952 921 
3 921 952 939 
3 952 953 939 
3 266 297 286 
3 297 324 286 
3 296 313 297 
3 313 323 297 
3 323 324 297 
3 639 638 661 
3 619 638 639 
3 221 243 222 
3 243 267 222 
3 222 267 244 
3 267 268 244 
3 165 164 279 
3 145 164 165 
3 146 145 165 
3 279 164 558 
3 513 391 526 
3 506 391 513 
3 391 543 526 
3 543 544 526 
3 543 279 558 
3 391 279 543 
3 399 429 400 
3 429 448 400 
3 415 400 448 
3 907 949 901 
3 949 971 901 
3 895 901 835 
3 878 835 901 
3 885 878 901 
3 888 885 901 
3 744 869 863 
3 869 874 863 
3 874 869 896 
3 533 532 567 
3 527 563 548 
3 563 581 548 
3 564 548 581 
3 760 776 761 
3 776 791 761 
3 791 792 761 
3 762 761 792 
3 965 966 954 
3 964 965 940 
3 601 659 602 
3 659 660 602 
3 638 602 660 
3 619 602 638 
3 660 661 638 
3 562 561 603 
3 544 561 562 
3 207 223 208 
3 223 224 208 
3 245 223 269 
3 224 223 245 
3 689 706 656 
3 635 656 706 
3 478 477 486 
3 466 477 478 
3 463 477 466 
3 472 466 478 
3 467 466 472 
3 777 762 792 
3 742 762 777 
3 792 807 777 
3 463 476 477 
3 706 873 690 
3 869 690 873 
3 744 690 869 
3 599 706 690 
3 920 909 937 
3 880 881 877 
3 556 540 599 
3 541 540 556 
3 556 599 690 
3 574 599 539 
3 540 539 599 
3 738 758 739 
3 758 803 739 
3 802 803 758 
3 774 739 803 
3 652 686 631 
3 686 687 631 
3 632 631 687 
3 191 169 203 
3 154 169 191 
3 203 217 191 
3 217 218 191 
3 154 117 169 
3 137 117 154 
3 118 117 137 
3 117 97 153 
3 98 97 117 
3 153 169 117 
3 734 752 735 
3 752 753 735 
3 944 955 945 
3 955 968 945 
3 956 945 968 
3 522 521 542 
3 508 521 522 
3 542 556 522 
3 556 557 522 
3 523 522 557 
3 402 419 385 
3 995 996 932 
3 775 790 776 
3 790 791 776 
3 791 790 806 
3 620 641 603 
3 621 603 641 
3 641 662 621 
3 864 870 867 
3 875 870 902 
3 835 855 895 
3 392 391 506 
3 280 391 392 
3 247 248 225 
3 200 225 248 
3 248 249 200 
3 179 200 249 
3 180 179 249 
3 105 179 180 
3 226 180 249 
3 91 112 92 
3 112 150 92 
3 93 92 150 
3 150 280 93 
3 94 93 280 
3 63 99 81 
3 99 118 81 
3 118 119 81 
3 44 63 81 
3 64 44 81 
3 45 44 64 
3 515 532 533 
3 550 533 567 
3 584 611 567 
3 611 612 567 
3 550 567 612 
3 585 550 612 
3 568 550 585 
3 607 606 642 
3 581 606 607 
3 564 581 607 
3 642 662 607 
3 662 663 607 
3 875 902 897 
3 902 908 897 
3 908 902 918 
3 748 747 767 
3 730 747 748 
3 767 779 748 
3 779 780 748 
3 397 414 398 
3 414 429 398 
3 399 398 429 
3 901 895 906 
3 906 907 901 
3 781 780 796 
3 768 780 781 
3 796 810 781 
3 572 571 598 
3 998 999 896 
3 874 896 999 
3 863 874 999 
3 873 896 869 
3 873 821 884 
3 725 821 873 
3 706 725 873 
3 785 828 786 
3 828 829 786 
3 813 786 829 
3 801 786 813 
3 829 830 813 
3 800 812 785 
3 812 828 785 
3 192 191 218 
3 687 718 632 
3 331 332 309 
3 310 309 332 
3 676 675 688 
3 593 675 676 
3 675 593 719 
3 719 720 675 
3 702 675 720 
3 383 400 371 
3 372 371 400 
3 358 372 400 
3 400 415 358 
3 242 266 243 
3 266 267 243 
3 267 266 286 
3 978 989 979 
3 752 751 784 
3 734 751 752 
3 771 752 784 
3 784 799 771 
3 799 800 771 
3 783 784 751 
3 616 589 630 
3 590 589 616 
3 630 650 616 
3 630 649 650 
3 629 630 589 
3 338 352 339 
3 352 353 339 
3 367 352 381 
3 353 352 367 
3 535 651 591 
3 651 590 672 
3 535 590 651 
3 672 673 651 
3 608 607 663 
3 582 607 608 
3 643 608 663 
3 816 833 817 
3 833 850 817 
3 818 817 850 
3 792 820 807 
3 820 821 807 
3 821 820 850 
3 644 693 664 
3 680 664 693 
3 825 836 826 
3 836 843 826 
3 826 843 837 
3 843 844 837 
3 961 973 962 
3 973 974 962 
3 974 973 985 
3 269 289 245 
3 270 245 289 
3 289 300 270 
3 300 317 270 
3 290 270 317 
3 759 739 774 
3 788 774 803 
3 881 880 887 
3 530 549 531 
3 549 565 531 
3 565 566 531 
3 678 689 654 
3 655 654 689 
3 656 655 689 
3 633 655 656 
3 406 426 407 
3 426 434 407 
3 434 435 407 
3 408 407 435 
3 882 884 850 
3 967 968 955 
3 967 980 968 
3 381 395 367 
3 395 396 367 
3 396 397 367 
3 368 367 397 
3 10 9 23 
3 1 9 10 
3 23 24 10 
3 569 586 552 
3 586 587 552 
3 587 588 552 
3 588 589 552 
3 589 590 552 
3 517 552 590 
3 465 517 590 
3 506 517 392 
3 516 517 506 
3 465 392 517 
3 639 661 640 
3 641 640 661 
3 661 822 641 
3 822 855 641 
3 662 641 855 
3 688 705 676 
3 411 465 447 
3 459 447 465 
3 459 460 447 
3 448 447 460 
3 862 865 856 
3 56 35 72 
3 35 34 55 
3 19 34 35 
3 87 104 105 
3 108 107 130 
3 69 107 108 
3 130 131 108 
3 89 107 69 
3 70 69 108 
3 726 636 744 
3 744 863 726 
3 855 834 861 
3 822 834 855 
3 903 898 910 
3 537 555 538 
3 555 574 538 
3 539 538 574 
3 182 211 183 
3 211 212 183 
3 184 183 212 
3 604 603 621 
3 642 621 662 
3 441 450 479 
3 708 707 727 
3 402 401 418 
3 418 417 423 
3 401 417 418 
3 777 807 763 
3 725 763 807 
3 722 763 723 
3 725 724 763 
3 807 821 725 
3 309 310 294 
3 88 146 128 
3 146 147 128 
3 50 127 88 
3 127 145 88 
3 145 146 88 
3 106 88 128 
3 1 12 2 
3 703 702 723 
3 675 702 703 
3 363 376 347 
3 376 387 347 
3 387 386 403 
3 376 386 387 
3 838 849 827 
3 845 827 849 
3 839 827 845 
3 828 827 839 
3 932 933 888 
3 889 888 933 
3 933 934 889 
3 884 882 934 
3 934 998 884 
3 896 884 998 
3 882 881 887 
3 453 443 457 
3 451 443 453 
3 444 443 451 
3 430 449 443 
3 423 449 430 
3 438 430 443 
3 431 430 438 
3 419 423 430 
3 515 516 506 
3 78 136 97 
3 136 152 97 
3 152 153 97 
3 547 604 563 
3 604 605 563 
3 581 563 605 
3 605 606 581 
3 518 474 537 
3 416 359 480 
3 384 359 416 
3 474 480 359 
3 449 416 480 
3 412 411 428 
3 393 411 412 
3 428 411 447 
3 715 735 716 
3 735 754 716 
3 716 754 736 
3 754 755 736 
3 17 43 29 
3 43 62 29 
3 62 63 29 
3 732 749 733 
3 749 768 733 
3 733 768 750 
3 768 769 750 
3 888 889 885 
3 886 885 889 
3 812 827 828 
3 284 283 312 
3 67 50 88 
3 721 720 742 
3 702 720 721 
3 850 841 859 
3 833 841 850 
3 845 854 840 
3 854 859 840 
3 841 840 859 
3 849 854 845 
3 848 849 838 
3 683 696 668 
3 669 668 696 
3 696 697 669 
3 628 667 648 
3 667 668 648 
3 647 667 627 
3 628 627 667 
3 668 667 683 
3 791 806 792 
3 806 820 792 
3 120 138 100 
3 138 156 100 
3 156 157 100 
3 121 100 157 
3 101 100 121 
3 495 590 535 
3 524 512 557 
3 501 500 512 
3 691 662 855 
3 663 662 691 
3 600 636 525 
3 636 726 525 
3 547 546 604 
3 526 546 547 
3 562 604 546 
3 574 573 599 
3 442 452 446 
3 726 863 999 
3 676 705 689 
3 705 725 689 
3 706 689 725 
3 873 884 896 
3 821 850 884 
3 818 850 819 
3 820 819 850 
3 480 481 449 
3 475 449 481 
3 435 436 408 
3 427 408 436 
3 409 408 427 
3 436 437 427 
3 227 359 343 
3 359 360 343 
3 360 359 384 
3 227 181 359 
3 328 227 343 
3 565 583 566 
3 583 609 566 
3 566 609 584 
3 609 610 584 
3 211 182 228 
3 737 738 718 
3 717 718 687 
3 557 690 744 
3 524 557 744 
3 362 344 375 
3 393 378 411 
3 379 378 393 
3 365 411 378 
3 249 273 226 
3 250 226 273 
3 49 105 180 
3 897 898 891 
3 556 690 557 
3 31 0 51 
3 418 423 419 
3 424 419 430 
3 420 419 424 
3 8 181 142 
3 181 182 142 
3 181 49 210 
3 8 49 181 
3 182 183 142 
3 7 49 8 
3 47 48 7 
3 732 733 714 
3 216 215 259 
3 202 215 216 
3 280 281 215 
3 259 215 281 
3 780 779 795 
3 749 748 780 
3 917 931 907 
3 931 948 907 
3 948 949 907 
3 959 970 949 
3 970 971 949 
3 403 404 387 
3 113 94 280 
3 770 783 751 
3 942 979 967 
3 979 980 967 
3 954 966 942 
3 966 979 942 
3 588 615 589 
3 615 629 589 
3 380 381 352 
3 37 36 56 
3 21 36 37 
3 20 36 21 
3 204 240 205 
3 174 196 175 
3 745 727 764 
3 728 727 745 
3 24 38 11 
3 12 11 38 
3 10 24 11 
3 579 580 560 
3 996 997 932 
3 933 932 997 
3 997 998 933 
3 934 933 998 
3 876 877 872 
3 443 444 438 
3 912 913 894 
3 568 585 569 
3 585 586 569 
3 613 585 626 
3 586 585 613 
3 688 675 703 
3 703 704 688 
3 742 743 721 
3 871 835 878 
3 862 835 871 
3 876 871 878 
3 872 871 876 
3 865 862 871 
3 878 885 883 
3 885 886 883 
3 879 878 883 
3 842 835 862 
3 808 835 842 
3 631 632 592 
3 570 592 632 
3 591 631 592 
3 411 392 465 
3 481 480 489 
3 481 482 475 
3 486 487 478 
3 479 478 487 
3 465 469 459 
3 469 465 473 
3 469 470 459 
3 460 459 470 
3 803 817 804 
3 817 818 804 
3 526 527 513 
3 527 526 547 
3 547 563 527 
3 528 548 529 
3 548 564 529 
3 549 529 564 
3 808 793 835 
3 794 793 808 
3 823 808 842 
3 765 764 793 
3 778 765 793 
3 766 765 778 
3 273 274 250 
3 497 474 518 
3 518 519 497 
3 507 497 519 
3 677 676 689 
3 142 143 8 
3 279 280 150 
3 281 280 392 
3 280 279 391 
3 39 77 40 
3 77 116 40 
3 96 115 77 
3 115 116 77 
3 78 40 116 
3 46 47 7 
3 75 94 113 
3 95 75 113 
3 58 57 75 
3 24 57 58 
3 74 75 57 
3 23 57 24 
3 38 24 58 
3 52 51 69 
3 31 51 52 
3 68 89 51 
3 69 51 89 
3 774 789 775 
3 789 790 775 
3 759 774 775 
3 811 797 825 
3 825 826 811 
3 768 749 780 
3 803 802 816 
3 815 816 802 
3 787 802 758 
3 595 618 596 
3 738 737 758 
3 663 691 643 
3 691 692 643 
3 692 693 643 
3 644 643 693 
3 19 20 9 
3 16 15 27 
3 3 15 16 
3 14 15 2 
3 3 2 15 
3 13 14 2 
3 236 216 259 
3 259 260 236 
3 143 142 162 
3 634 656 635 
3 854 858 859 
3 832 841 833 
3 264 284 312 
3 296 264 312 
3 285 264 296 
3 265 264 285 
3 446 450 441 
3 660 822 661 
3 968 969 956 
3 969 968 981 
3 457 458 453 
3 445 444 451 
3 451 452 445 
3 442 445 452 
3 631 591 652 
3 334 333 364 
3 692 691 855 
3 964 953 975 
3 940 953 964 
3 975 976 964 
3 939 953 940 
3 495 465 590 
3 650 672 616 
3 590 616 672 
3 295 276 320 
3 846 842 862 
3 851 846 862 
3 740 719 760 
3 119 120 81 
3 100 81 120 
3 154 191 170 
3 191 192 170 
3 218 238 192 
3 238 239 192 
3 204 192 239 
3 228 251 211 
3 229 211 251 
3 251 252 229 
3 373 360 384 
3 481 492 482 
3 161 186 162 
3 186 187 162 
3 188 187 213 
3 201 188 213 
3 213 214 201 
3 17 16 28 
3 3 16 17 
3 28 43 17 
3 50 51 0 
3 903 939 922 
3 939 940 922 
3 910 921 903 
3 921 939 903 
3 416 449 423 
3 458 457 462 
3 461 458 462 
3 111 150 112 
3 914 915 904 
3 915 914 926 
3 926 927 915 
3 405 422 406 
3 422 426 406 
3 564 582 549 
3 549 582 565 
3 582 583 565 
3 59 77 39 
3 470 471 460 
3 829 840 830 
3 840 841 830 
3 562 603 604 
3 410 409 427 
3 594 595 571 
3 673 674 651 
3 871 872 865 
3 498 499 480 
3 474 498 480 
3 488 502 489 
3 502 512 489 
3 512 524 489 
3 503 489 524 
3 480 488 489 
3 561 620 603 
3 697 696 708 
3 708 709 697 
3 27 28 16 
3 653 593 676 
3 985 986 974 
3 558 559 543 
3 609 608 643 
3 623 609 643 
3 856 851 862 
3 836 823 842 
3 824 823 836 
3 809 808 823 
3 972 985 973 
3 849 848 853 
3 837 844 838 
3 844 848 838 
3 275 358 306 
3 358 415 306 
3 623 643 644 
3 624 623 644 
3 580 620 561 
3 789 805 790 
3 805 818 790 
3 790 818 819 
3 806 790 819 
3 311 320 321 
3 311 295 320 
3 163 162 187 
3 143 162 163 
3 187 188 163 
3 928 945 929 
3 945 956 929 
3 929 956 946 
3 544 545 526 
3 545 546 526 
3 514 513 530 
3 506 513 514 
3 530 531 514 
3 462 464 461 
3 892 899 900 
3 891 899 892 
3 304 342 305 
3 342 358 305 
3 358 357 372 
3 342 357 358 
3 803 804 788 
3 346 363 347 
3 71 70 109 
3 108 109 70 
3 109 108 132 
3 33 54 55 
3 32 54 33 
3 523 557 511 
3 396 414 397 
3 977 989 978 
3 483 482 493 
3 575 637 601 
3 637 658 601 
3 658 659 601 
3 89 88 106 
3 68 88 89 
3 303 318 304 
3 318 327 304 
3 327 342 304 
3 275 305 358 
3 328 345 307 
3 345 346 307 
3 329 307 346 
3 319 307 329 
3 490 491 481 
3 239 240 204 
3 605 622 606 
3 622 642 606 
3 553 535 591 
3 383 399 400 
3 149 279 150 
3 114 113 134 
3 527 528 513 
3 109 110 71 
3 90 71 110 
3 110 111 90 
3 239 263 240 
3 263 284 240 
3 240 284 264 
3 899 898 903 
3 891 898 899 
3 157 158 121 
3 139 121 158 
3 576 601 577 
3 601 602 577 
3 183 184 142 
3 123 124 103 
3 975 953 986 
3 149 165 279 
3 346 347 329 
3 74 94 75 
3 657 679 658 
3 659 658 679 
3 660 659 679 
3 679 822 660 
3 766 767 747 
3 370 383 371 
3 617 635 618 
3 184 185 142 
3 681 680 694 
3 447 448 428 
3 429 428 448 
3 771 800 785 
3 906 917 907 
3 564 607 582 
3 233 234 213 
3 37 73 57 
3 73 74 57 
3 965 964 977 
3 977 976 989 
3 964 976 977 
3 960 961 935 
3 495 496 473 
3 473 465 495 
3 715 716 687 
3 716 717 687 
3 886 887 883 
3 880 883 887 
3 983 992 984 
3 992 993 984 
3 333 334 320 
3 417 416 423 
3 497 498 474 
3 133 149 150 
3 148 165 149 
3 783 798 784 
3 853 858 849 
3 849 858 854 
3 741 762 742 
3 743 742 777 
3 60 40 78 
3 41 40 60 
3 116 136 78 
3 308 307 319 
3 293 307 308 
3 408 409 389 
3 687 686 715 
3 910 909 921 
3 909 920 921 
3 816 817 803 
3 312 313 296 
3 375 385 362 
3 362 385 376 
3 385 386 376 
3 626 647 613 
3 613 647 627 
3 721 743 722 
3 743 763 722 
3 375 402 385 
3 534 551 517 
3 551 552 517 
3 721 722 702 
3 553 592 554 
3 570 554 592 
3 580 579 619 
3 602 619 579 
3 619 620 580 
3 620 619 639 
3 86 104 87 
3 85 126 104 
3 20 21 9 
3 131 149 132 
3 133 132 149 
3 665 664 680 
3 510 523 511 
3 355 356 341 
3 952 951 963 
3 938 951 952 
3 986 987 975 
3 671 672 650 
3 700 701 673 
3 674 673 701 
3 879 883 880 
3 508 507 521 
3 497 507 508 
3 498 497 508 
3 161 162 142 
3 595 596 571 
3 210 275 306 
3 180 275 210 
3 49 180 210 
3 273 292 274 
3 292 305 274 
3 275 274 305 
3 129 148 130 
3 148 149 130 
3 831 841 832 
3 219 220 196 
3 431 432 425 
3 839 845 840 
3 960 973 961 
3 21 22 9 
3 277 276 295 
3 256 276 277 
3 255 276 256 
3 490 503 491 
3 250 275 226 
3 180 226 275 
3 508 509 498 
3 509 508 522 
3 209 225 200 
3 142 185 161 
3 185 186 161 
3 413 412 428 
3 941 954 942 
3 518 539 519 
3 539 540 519 
3 110 133 150 
3 51 50 67 
3 62 80 63 
3 80 99 63 
3 401 384 416 
3 416 417 401 
3 878 879 876 
3 879 880 876 
3 877 876 880 
3 330 348 331 
3 699 700 672 
3 673 672 700 
3 671 685 672 
3 685 699 672 
3 5 18 6 
3 18 30 6 
3 591 592 553 
3 46 65 47 
3 65 66 47 
3 578 602 579 
3 67 88 68 
3 760 761 740 
3 743 777 763 
3 124 141 125 
3 141 160 125 
3 475 482 483 
3 29 63 44 
3 47 66 48 
3 66 84 48 
3 936 962 950 
3 10 11 1 
3 428 429 413 
3 414 413 429 
3 893 900 894 
3 890 893 894 
3 911 923 912 
3 923 924 912 
3 244 269 223 
3 545 562 546 
3 639 640 620 
3 73 93 94 
3 109 133 110 
3 111 110 150 
3 168 190 169 
3 190 203 169 
3 499 498 510 
3 535 536 495 
3 22 37 23 
3 37 57 23 
3 891 892 890 
3 892 893 890 
3 132 133 109 
3 368 397 382 
3 397 398 382 
3 285 297 266 
3 197 222 206 
3 67 68 51 
3 795 796 780 
3 937 951 938 
3 937 938 920 
3 913 925 914 
3 925 943 914 
3 914 943 926 
3 905 916 906 
3 916 930 906 
3 906 930 917 
3 930 931 917 
3 484 485 476 
3 537 538 518 
3 519 520 507 
3 510 511 499 
3 596 597 571 
3 509 522 523 
3 697 710 684 
3 698 684 710 
3 559 560 543 
3 559 558 576 
3 576 577 559 
3 559 578 560 
3 578 579 560 
3 528 529 513 
3 144 164 145 
3 147 165 148 
3 676 677 653 
3 551 569 552 
3 568 569 551 
3 550 568 551 
3 544 562 545 
3 929 930 916 
3 927 928 915 
3 912 925 913 
3 924 925 912 
3 982 992 983 
3 991 992 982 
3 988 989 976 
3 975 988 976 
3 987 988 975 
3 983 984 971 
3 970 983 971 
3 982 983 970 
3 978 979 966 
3 965 978 966 
3 977 978 965 
3 972 973 960 
3 948 959 949 
3 958 959 948 
3 947 958 948 
3 957 958 947 
3 946 957 947 
3 947 948 931 
3 930 947 931 
3 946 947 930 
3 929 946 930 
3 927 945 928 
3 944 945 927 
3 926 944 927 
3 942 943 925 
3 924 942 925 
3 941 942 924 
3 923 941 924 
3 892 900 893 
3 788 805 789 
3 804 805 788 
3 801 802 787 
3 786 801 787 
3 782 798 783 
3 797 798 782 
3 781 797 782 
3 794 795 779 
3 778 794 779 
3 793 794 778 
3 852 853 848 
3 847 852 848 
3 851 852 847 
3 846 851 847 
3 857 858 853 
3 852 857 853 
3 856 857 852 
3 851 856 852 
3 830 841 831 
3 828 840 829 
3 839 840 828 
3 824 836 825 
3 842 843 836 
3 847 848 844 
3 843 847 844 
3 846 847 843 
3 842 846 843 
3 819 820 806 
3 804 818 805 
3 814 815 802 
3 801 814 802 
3 813 814 801 
3 799 812 800 
3 797 811 798 
3 809 810 796 
3 795 809 796 
3 808 809 795 
3 794 808 795 
3 815 833 816 
3 832 833 815 
3 814 832 815 
3 831 832 814 
3 813 831 814 
3 830 831 813 
3 823 824 810 
3 809 823 810 
3 677 689 678 
3 670 685 671 
3 684 685 670 
3 695 696 683 
3 682 695 683 
3 694 695 682 
3 681 694 682 
3 741 742 720 
3 719 741 720 
3 740 741 719 
3 716 736 717 
3 731 749 732 
3 748 749 731 
3 730 748 731 
3 745 746 729 
3 728 745 729 
3 755 773 756 
3 753 772 754 
3 771 772 753 
3 752 771 753 
3 769 770 750 
3 765 766 746 
3 745 765 746 
3 764 765 745 
3 788 789 774 
3 786 787 773 
3 771 785 772 
3 782 783 770 
3 769 782 770 
3 781 782 769 
3 768 781 769 
3 778 779 767 
3 766 778 767 
3 740 762 741 
3 761 762 740 
3 757 758 737 
3 755 756 736 
3 753 754 735 
3 704 725 705 
3 724 725 704 
3 703 724 704 
3 722 723 702 
3 699 712 700 
3 711 712 699 
3 698 711 699 
3 709 710 697 
3 707 708 696 
3 695 707 696 
3 731 732 714 
3 713 731 714 
3 730 731 713 
3 728 729 710 
3 709 728 710 
3 727 728 709 
3 708 727 709 
3 704 705 688 
3 698 699 685 
3 684 698 685 
3 628 629 615 
3 614 628 615 
3 627 628 614 
3 613 627 614 
3 611 625 612 
3 624 625 611 
3 610 624 611 
3 623 624 610 
3 609 623 610 
3 621 642 622 
3 640 641 620 
3 677 678 653 
3 670 671 650 
3 648 669 649 
3 668 669 648 
3 666 667 647 
3 645 665 646 
3 664 665 645 
3 644 664 645 
3 657 658 637 
3 682 683 667 
3 666 682 667 
3 681 682 666 
3 633 656 634 
3 629 649 630 
3 648 649 629 
3 628 648 629 
3 644 645 625 
3 624 644 625 
3 597 598 571 
3 587 615 588 
3 614 615 587 
3 586 614 587 
3 613 614 586 
3 610 611 584 
3 608 609 583 
3 582 608 583 
3 577 602 578 
3 575 601 576 
3 594 618 595 
3 617 618 594 
3 604 622 605 
3 621 622 604 
3 566 584 567 
3 577 578 559 
3 575 576 558 
3 404 422 405 
3 418 419 402 
3 395 414 396 
3 413 414 395 
3 394 413 395 
3 412 413 394 
3 393 412 394 
3 509 523 510 
3 520 521 507 
3 520 542 521 
3 541 542 520 
3 519 541 520 
3 540 541 519 
3 538 539 518 
3 553 554 536 
3 535 553 536 
3 550 551 534 
3 533 550 534 
3 529 549 530 
3 527 548 528 
3 541 556 542 
3 516 534 517 
3 533 534 516 
3 515 533 516 
3 529 530 513 
3 501 502 488 
3 501 512 502 
3 509 510 498 
3 484 494 485 
3 491 492 481 
3 466 467 464 
3 463 466 464 
3 467 472 468 
3 463 464 462 
3 454 455 452 
3 451 454 452 
3 453 454 451 
3 454 456 455 
3 436 440 437 
3 432 439 433 
3 438 439 432 
3 431 438 432 
3 425 426 422 
3 420 424 421 
3 433 434 426 
3 425 433 426 
3 432 433 425 
3 430 431 424 
3 224 225 209 
3 208 224 209 
3 206 223 207 
3 216 217 203 
3 202 216 203 
3 316 326 317 
3 325 326 316 
3 315 325 316 
3 322 323 313 
3 312 322 313 
3 345 363 346 
3 362 363 345 
3 344 362 345 
3 360 361 343 
3 371 372 357 
3 356 371 357 
3 370 371 356 
3 355 370 356 
3 369 370 355 
3 354 369 355 
3 368 369 354 
3 353 368 354 
3 367 368 353 
3 350 366 351 
3 365 366 350 
3 349 365 350 
3 382 399 383 
3 398 399 382 
3 394 395 381 
3 380 394 381 
3 393 394 380 
3 379 393 380 
3 389 410 390 
3 409 410 389 
3 405 406 388 
3 387 405 388 
3 404 405 387 
3 362 376 363 
3 373 374 361 
3 360 373 361 
3 369 383 370 
3 382 383 369 
3 368 382 369 
3 378 379 366 
3 365 378 366 
3 329 348 330 
3 347 348 329 
3 344 345 328 
3 341 342 327 
3 338 339 326 
3 325 338 326 
3 323 337 324 
3 336 337 323 
3 341 357 342 
3 356 357 341 
3 353 354 340 
3 339 353 340 
3 329 330 319 
3 322 336 323 
3 257 278 258 
3 277 278 257 
3 256 277 257 
3 254 276 255 
3 271 291 272 
3 290 291 271 
3 288 289 269 
3 268 288 269 
3 287 288 268 
3 267 287 268 
3 286 287 267 
3 283 284 263 
3 262 283 263 
3 282 283 262 
3 261 282 262 
3 308 309 293 
3 304 305 292 
3 301 302 291 
3 290 301 291 
3 299 300 289 
3 288 299 289 
3 298 299 288 
3 287 298 288 
3 296 297 285 
3 302 318 303 
3 316 317 300 
3 299 316 300 
3 315 316 299 
3 298 315 299 
3 314 315 298 
3 234 258 235 
3 257 258 234 
3 233 257 234 
3 256 257 233 
3 232 256 233 
3 255 256 232 
3 231 255 232 
3 254 255 231 
3 230 254 231 
3 253 254 230 
3 229 253 230 
3 252 253 229 
3 246 247 225 
3 224 246 225 
3 245 246 224 
3 220 243 221 
3 242 243 220 
3 219 242 220 
3 241 242 219 
3 237 238 218 
3 217 237 218 
3 236 237 217 
3 216 236 217 
3 274 275 250 
3 248 272 249 
3 271 272 248 
3 247 271 248 
3 245 270 246 
3 268 269 244 
3 241 266 242 
3 238 263 239 
3 262 263 238 
3 237 262 238 
3 261 262 237 
3 236 261 237 
3 260 261 236 
3 213 235 214 
3 234 235 213 
3 229 230 212 
3 211 229 212 
3 85 104 86 
3 83 102 84 
3 101 102 83 
3 82 101 83 
3 100 101 82 
3 81 100 82 
3 117 118 99 
3 98 117 99 
3 114 115 96 
3 95 114 96 
3 113 114 95 
3 90 112 91 
3 111 112 90 
3 106 107 89 
3 176 177 160 
3 159 176 160 
3 175 176 159 
3 173 174 158 
3 157 173 158 
3 172 173 157 
3 156 172 157 
3 171 172 156 
3 155 171 156 
3 170 171 155 
3 154 170 155 
3 168 169 153 
3 152 168 153 
3 167 168 152 
3 151 167 152 
3 166 167 151 
3 146 165 147 
3 188 189 163 
3 177 199 178 
3 198 199 177 
3 176 198 177 
3 197 198 176 
3 175 197 176 
3 173 196 174 
3 195 196 173 
3 172 195 173 
3 194 195 172 
3 171 194 172 
3 193 194 171 
3 170 193 171 
3 192 193 170 
3 167 190 168 
3 188 201 189 
3 207 208 199 
3 198 207 199 
3 206 207 198 
3 197 206 198 
3 193 205 194 
3 204 205 193 
3 192 204 193 
3 202 203 190 
3 123 141 124 
3 140 141 123 
3 122 140 123 
3 139 140 122 
3 121 139 122 
3 119 138 120 
3 137 138 119 
3 118 137 119 
3 135 136 116 
3 115 135 116 
3 134 135 115 
3 114 134 115 
3 131 132 108 
3 129 130 107 
3 106 129 107 
3 128 129 106 
3 159 160 141 
3 140 159 141 
3 155 156 138 
3 137 155 138 
3 154 155 137 
3 151 152 136 
3 135 151 136 
3 130 149 131 
3 128 148 129 
3 147 148 128 
3 144 145 127 
3 124 125 103 
3 121 122 102 
3 101 121 102 
3 44 45 30 
3 29 44 30 
3 42 43 28 
3 27 42 28 
3 41 42 27 
3 26 41 27 
3 40 41 26 
3 25 40 26 
3 39 40 25 
3 21 37 22 
3 35 56 36 
3 33 55 34 
3 52 53 31 
3 83 84 66 
3 65 83 66 
3 82 83 65 
3 64 82 65 
3 81 82 64 
3 61 80 62 
3 79 80 61 
3 60 79 61 
3 78 79 60 
3 76 77 59 
3 58 76 59 
3 75 76 58 
3 52 70 53 
3 69 70 52 
3 98 99 80 
3 79 98 80 
3 97 98 79 
3 78 97 79 
3 76 96 77 
3 95 96 76 
3 75 95 76 
3 73 94 74 
3 92 93 72 
3 64 65 46 
3 45 64 46 
3 61 62 43 
3 42 61 43 
3 60 61 42 
3 41 60 42 
3 58 59 38 
3 29 30 18 
3 17 29 18 
3 26 27 15 
3 14 26 15 
3 25 26 14 
3 13 25 14 
3 22 23 9 
3 19 36 20 
3 35 36 19 
3 4 18 5 
3 17 18 4 
3 3 17 4 
3 11 12 1 
