OFF
100 180 0
0 0 251 
0 27 251 
0 28 154 
0 32 105 
0 119 98 
1 16 249 
2 16 169 
3 5 251 
3 26 237 
3 32 92 
4 0 253 
4 9 146 
4 20 184 
4 32 205 
5 6 136 
5 20 250 
5 26 126 
6 1 146 
7 22 234 
7 23 183 
7 31 236 
7 36 151 
7 37 77 
8 0 117 
8 31 165 
8 36 239 
8 37 133 
9 10 248 
9 115 87 
10 0 244 
10 38 251 
10 40 102 
10 113 118 
10 117 250 
10 119 92 
12 40 253 
15 40 233 
15 47 75 
16 39 137 
16 46 254 
16 112 91 
16 118 224 
17 51 107 
17 114 237 
18 36 178 
19 36 246 
20 46 240 
20 109 130 
21 99 101 
21 110 234 
22 46 137 
24 49 90 
25 105 99 
25 106 217 
27 45 238 
27 46 99 
27 111 94 
28 113 88 
28 114 202 
31 112 101 
32 45 242 
32 46 102 
36 113 98 
37 115 246 
40 115 66 
41 45 214 
41 46 88 
42 44 253 
43 97 105 
43 108 78 
43 119 189 
44 108 195 
45 103 183 
47 23 249 
48 85 101 
49 45 188 
49 46 94 
49 85 166 
50 0 249 
51 33 244 
53 7 130 
53 73 102 
54 0 123 
54 8 232 
54 22 232 
54 72 157 
56 0 245 
58 119 136 
74 97 115 
83 68 111 
88 45 237 
88 46 133 
93 16 252 
94 45 244 
94 46 139 
95 7 234 
99 0 108 
99 45 238 
99 47 99 
99 119 100 
3 83 84 73 
3 79 73 84 
3 17 23 14 
3 23 29 14 
3 27 14 29 
3 29 78 27 
3 73 27 78 
3 78 80 73 
3 80 83 73 
3 72 88 87 
3 88 99 87 
3 93 92 97 
3 90 92 93 
3 95 96 92 
3 96 97 92 
3 45 27 73 
3 46 45 50 
3 38 45 46 
3 54 45 60 
3 50 45 54 
3 9 8 13 
3 2 8 9 
3 3 2 9 
3 8 16 13 
3 16 20 13 
3 89 76 91 
3 85 76 89 
3 66 76 85 
3 81 66 85 
3 61 66 81 
3 62 63 59 
3 58 59 63 
3 63 70 58 
3 41 58 70 
3 50 51 46 
3 42 46 51 
3 11 7 14 
3 5 7 11 
3 0 7 5 
3 6 5 11 
3 84 90 79 
3 75 79 90 
3 90 91 75 
3 76 75 91 
3 11 27 6 
3 15 6 27 
3 31 30 35 
3 26 30 31 
3 22 26 31 
3 40 43 32 
3 33 32 43 
3 41 33 43 
3 28 32 33 
3 49 58 43 
3 41 43 58 
3 34 41 70 
3 57 58 56 
3 49 56 58 
3 68 77 72 
3 77 88 72 
3 71 72 87 
3 74 77 68 
3 14 27 11 
3 18 15 27 
3 32 48 40 
3 47 40 48 
3 48 52 47 
3 52 53 47 
3 49 47 53 
3 54 55 50 
3 51 50 55 
3 47 49 40 
3 43 40 49 
3 90 84 92 
3 86 96 95 
3 1 8 2 
3 36 38 46 
3 44 45 38 
3 60 45 73 
3 75 67 79 
3 75 76 67 
3 66 67 76 
3 39 46 42 
3 51 74 42 
3 68 72 69 
3 71 69 72 
3 52 68 69 
3 59 52 69 
3 86 95 92 
3 36 39 35 
3 37 35 39 
3 31 35 37 
3 5 12 1 
3 8 1 12 
3 12 19 8 
3 16 8 19 
3 6 12 5 
3 25 24 30 
3 20 24 25 
3 24 44 30 
3 38 30 44 
3 44 19 45 
3 24 19 44 
3 16 19 24 
3 18 27 45 
3 19 18 45 
3 93 97 94 
3 97 98 94 
3 3 31 37 
3 22 31 3 
3 37 42 3 
3 4 3 42 
3 42 48 4 
3 62 64 63 
3 64 70 63 
3 83 86 92 
3 84 83 92 
3 15 18 12 
3 18 19 12 
3 12 6 15 
3 35 30 38 
3 36 35 38 
3 20 16 24 
3 80 78 82 
3 10 17 7 
3 14 7 17 
3 37 39 42 
3 82 86 80 
3 83 80 86 
3 20 21 13 
3 0 5 1 
3 64 62 69 
3 69 71 64 
3 70 64 71 
3 71 87 70 
3 62 59 69 
3 81 85 77 
3 85 88 77 
3 88 85 89 
3 74 81 77 
3 21 20 25 
3 9 13 21 
3 25 30 26 
3 21 22 9 
3 3 9 22 
3 74 51 81 
3 32 4 48 
3 39 36 46 
3 34 33 41 
3 48 42 74 
3 51 61 81 
3 55 61 51 
3 53 56 49 
3 65 60 67 
3 65 66 60 
3 61 60 66 
3 60 73 67 
3 73 79 67 
3 48 74 68 
3 33 34 28 
3 4 28 34 
3 0 10 7 
3 28 4 32 
3 91 94 89 
3 94 98 89 
3 57 59 58 
3 98 99 89 
3 88 89 99 
3 53 52 59 
3 56 53 59 
3 65 67 66 
3 10 23 17 
3 93 94 90 
3 91 90 94 
3 57 56 59 
3 52 48 68 
3 60 61 54 
3 55 54 61 
3 21 26 22 
3 25 26 21 
