OFF
2000 3888 0
0 0 251 
0 6 253 
0 9 239 
0 10 251 
0 17 252 
0 19 243 
0 20 253 
0 21 204 
0 22 197 
0 23 234 
0 25 244 
0 27 251 
0 28 154 
0 29 113 
0 30 84 
0 31 92 
0 32 105 
0 36 100 
0 119 98 
1 4 253 
1 5 245 
1 10 253 
1 11 243 
1 16 249 
1 17 241 
1 18 219 
1 19 186 
1 20 139 
1 21 127 
1 22 142 
1 23 200 
1 24 246 
1 26 234 
1 28 251 
1 29 164 
1 32 112 
1 33 101 
1 104 98 
2 11 250 
2 13 236 
2 14 213 
2 15 193 
2 16 169 
2 17 142 
2 18 121 
2 19 113 
2 20 103 
2 21 111 
2 22 118 
2 23 137 
2 24 188 
2 25 243 
2 26 253 
2 29 250 
2 30 181 
2 32 87 
2 34 108 
2 38 99 
2 40 106 
2 41 98 
3 5 251 
3 7 253 
3 9 230 
3 10 199 
3 11 176 
3 12 166 
3 13 152 
3 14 136 
3 15 127 
3 16 119 
3 18 114 
3 20 119 
3 23 114 
3 24 134 
3 25 187 
3 26 237 
3 27 253 
3 28 244 
3 30 252 
3 31 181 
3 32 92 
3 34 117 
3 35 99 
3 38 109 
3 40 86 
3 41 98 
3 42 111 
3 56 100 
4 0 253 
4 2 253 
4 4 245 
4 5 219 
4 6 184 
4 9 146 
4 11 137 
4 14 125 
4 15 132 
4 17 141 
4 20 184 
4 21 146 
4 26 167 
4 27 220 
4 28 253 
4 29 240 
4 30 247 
4 32 205 
4 33 108 
4 34 74 
4 36 109 
4 43 101 
5 0 244 
5 1 217 
5 2 183 
5 3 159 
5 4 152 
5 5 145 
5 6 136 
5 9 133 
5 11 123 
5 13 133 
5 14 142 
5 15 156 
5 16 176 
5 17 203 
5 20 250 
5 21 185 
5 22 140 
5 26 126 
5 27 153 
5 28 200 
5 32 253 
5 33 213 
5 34 127 
5 35 80 
5 36 95 
5 37 119 
5 38 99 
5 39 91 
5 40 117 
5 41 105 
5 42 85 
5 43 108 
5 111 96 
5 118 99 
6 0 153 
6 1 146 
6 3 141 
6 5 129 
6 10 147 
6 11 154 
6 12 146 
6 13 174 
6 14 214 
6 15 246 
6 17 253 
6 21 238 
6 22 187 
6 23 139 
6 27 123 
6 28 141 
6 29 194 
6 32 242 
6 33 253 
6 34 228 
6 35 128 
6 36 81 
6 38 112 
6 39 97 
6 42 102 
6 44 101 
6 119 103 
7 0 132 
7 3 120 
7 4 144 
7 5 139 
7 6 131 
7 8 137 
7 9 164 
7 10 201 
7 11 228 
7 14 253 
7 20 244 
7 21 253 
7 22 234 
7 23 183 
7 24 149 
7 27 133 
7 29 143 
7 30 184 
7 31 236 
7 32 253 
7 33 244 
7 35 249 
7 36 151 
7 37 77 
7 38 82 
7 39 115 
7 40 96 
7 42 117 
7 43 95 
7 119 96 
8 0 117 
8 1 127 
8 2 139 
8 3 147 
8 4 137 
8 5 158 
8 6 189 
8 7 216 
8 8 236 
8 12 247 
8 23 242 
8 24 209 
8 25 166 
8 27 143 
8 28 131 
8 30 144 
8 31 165 
8 32 223 
8 36 239 
8 37 133 
8 38 86 
8 40 109 
8 42 105 
8 114 96 
8 118 95 
9 0 162 
9 1 184 
9 2 206 
9 3 222 
9 4 250 
9 6 248 
9 10 248 
9 15 244 
9 23 249 
9 24 242 
9 25 215 
9 26 174 
9 27 143 
9 31 137 
9 32 164 
9 33 231 
9 34 252 
9 35 223 
9 36 253 
9 38 154 
9 39 77 
9 40 97 
9 41 109 
9 42 93 
9 115 87 
9 116 132 
9 118 116 
9 119 107 
10 0 244 
10 3 251 
10 16 252 
10 25 246 
10 26 218 
10 27 183 
10 28 147 
10 29 135 
10 32 134 
10 33 163 
10 34 218 
10 35 250 
10 36 223 
10 38 251 
10 39 175 
10 40 102 
10 41 85 
10 42 100 
10 43 111 
10 44 97 
10 45 106 
10 47 95 
10 48 104 
10 52 101 
10 107 100 
10 110 106 
10 112 84 
10 113 118 
10 114 194 
10 115 237 
10 117 250 
10 118 218 
10 119 92 
11 0 252 
11 2 245 
11 26 244 
11 27 230 
11 29 164 
11 30 139 
11 31 135 
11 32 150 
11 33 138 
11 34 156 
11 35 225 
11 36 249 
11 37 233 
11 38 245 
11 39 253 
11 40 209 
11 41 114 
11 42 74 
11 43 93 
11 44 115 
11 45 94 
11 47 112 
11 48 99 
11 49 94 
11 108 109 
11 109 101 
11 110 92 
11 112 97 
11 119 131 
12 0 245 
12 17 252 
12 20 251 
12 25 243 
12 27 250 
12 28 232 
12 30 150 
12 33 132 
12 34 154 
12 35 151 
12 38 238 
12 40 253 
12 41 226 
12 42 153 
12 43 89 
12 49 104 
12 69 99 
12 108 97 
12 112 87 
12 113 152 
12 114 253 
12 115 235 
12 116 222 
12 118 237 
12 119 186 
13 0 249 
13 21 245 
13 24 241 
13 25 234 
13 28 251 
13 29 232 
13 30 183 
13 35 132 
13 36 148 
13 37 217 
13 38 253 
13 39 237 
13 40 238 
13 41 253 
13 42 241 
13 43 184 
13 44 94 
13 45 102 
13 48 109 
13 49 96 
13 51 110 
13 107 102 
13 108 88 
13 111 108 
13 112 81 
13 113 134 
13 114 253 
13 115 226 
13 116 248 
13 117 229 
13 118 220 
13 119 188 
14 26 242 
14 28 244 
14 29 252 
14 30 235 
14 31 191 
14 32 164 
14 33 142 
14 34 134 
14 35 142 
14 36 128 
14 37 155 
14 38 200 
14 39 239 
14 40 252 
14 43 253 
14 44 217 
14 45 114 
14 46 83 
14 47 105 
14 49 108 
14 50 116 
14 51 87 
14 109 105 
14 110 91 
14 112 91 
14 113 139 
14 114 252 
14 115 230 
14 116 245 
14 117 225 
14 118 236 
14 119 192 
15 28 252 
15 29 233 
15 30 250 
15 31 248 
15 32 192 
15 34 157 
15 35 134 
15 36 143 
15 37 128 
15 38 138 
15 39 184 
15 40 233 
15 41 251 
15 43 242 
15 44 253 
15 45 240 
15 46 139 
15 47 75 
15 50 84 
15 51 110 
15 52 103 
15 111 106 
15 113 126 
15 115 237 
15 116 224 
15 118 252 
15 119 217 
16 4 251 
16 19 247 
16 22 240 
16 25 240 
16 28 241 
16 29 252 
16 31 234 
16 32 252 
16 33 218 
16 34 161 
16 35 154 
16 36 130 
16 38 149 
16 39 137 
16 40 159 
16 41 212 
16 42 245 
16 44 242 
16 46 254 
16 47 204 
16 48 90 
16 49 77 
16 50 121 
16 99 102 
16 112 91 
16 113 136 
16 114 220 
16 115 234 
16 116 239 
16 118 224 
16 119 211 
17 25 248 
17 29 242 
17 30 250 
17 32 243 
17 34 217 
17 36 162 
17 37 142 
17 38 130 
17 39 136 
17 40 149 
17 41 171 
17 42 211 
17 43 249 
17 47 254 
17 48 230 
17 49 134 
17 50 81 
17 51 107 
17 68 101 
17 110 96 
17 112 127 
17 113 189 
17 114 237 
17 116 232 
17 119 209 
18 31 244 
18 35 243 
18 36 178 
18 37 165 
18 40 129 
18 41 139 
18 42 171 
18 43 210 
18 44 240 
18 45 248 
18 47 240 
18 48 254 
18 49 190 
18 111 118 
18 112 197 
18 113 182 
18 115 223 
18 117 219 
18 119 236 
19 27 246 
19 36 246 
19 37 178 
19 38 148 
19 39 157 
19 40 146 
19 41 132 
19 42 143 
19 43 157 
19 44 217 
19 46 252 
19 47 238 
19 48 251 
19 49 212 
19 100 106 
19 103 100 
19 108 85 
19 111 139 
19 112 210 
19 113 193 
19 114 224 
19 115 237 
19 116 216 
19 117 243 
19 118 230 
19 119 208 
20 37 252 
20 38 208 
20 39 153 
20 41 143 
20 42 130 
20 44 161 
20 45 202 
20 46 240 
20 49 232 
20 50 93 
20 82 101 
20 100 96 
20 101 103 
20 103 110 
20 104 101 
20 105 88 
20 106 101 
20 107 90 
20 108 109 
20 109 130 
20 110 170 
20 111 213 
20 112 241 
20 114 217 
20 115 231 
20 116 209 
20 117 238 
20 118 231 
20 119 223 
21 17 252 
21 18 249 
21 33 242 
21 36 252 
21 37 237 
21 38 244 
21 39 227 
21 40 166 
21 41 139 
21 44 132 
21 45 143 
21 46 178 
21 47 220 
21 48 249 
21 49 253 
21 50 111 
21 52 104 
21 99 101 
21 100 105 
21 103 98 
21 105 111 
21 106 185 
21 107 200 
21 108 219 
21 109 228 
21 110 234 
21 112 216 
21 113 225 
21 115 214 
21 117 220 
21 118 235 
21 119 246 
22 35 245 
22 36 236 
22 37 252 
22 38 244 
22 39 238 
22 40 245 
22 41 201 
22 42 145 
22 43 137 
22 46 137 
22 47 156 
22 48 194 
22 49 247 
22 50 128 
22 51 87 
22 102 102 
22 106 232 
22 107 253 
22 108 236 
22 110 224 
22 111 214 
22 113 240 
22 114 230 
22 116 231 
22 118 233 
22 119 203 
23 4 251 
23 36 244 
23 39 250 
23 40 240 
23 41 252 
23 42 235 
23 43 172 
23 44 138 
23 46 130 
23 48 145 
23 49 161 
23 51 98 
23 83 103 
23 100 97 
23 102 110 
23 105 100 
23 106 218 
23 107 232 
23 109 221 
23 110 241 
23 111 249 
23 112 241 
23 113 220 
23 118 166 
23 119 89 
24 17 252 
24 18 249 
24 29 244 
24 36 252 
24 37 244 
24 38 233 
24 40 252 
24 41 243 
24 43 252 
24 44 173 
24 45 135 
24 46 119 
24 47 141 
24 48 121 
24 49 90 
24 51 114 
24 102 100 
24 106 236 
24 108 248 
24 109 233 
24 110 225 
24 111 202 
24 112 174 
24 113 138 
24 114 209 
24 115 235 
24 116 228 
24 117 248 
24 118 215 
24 119 184 
25 39 245 
25 44 248 
25 45 174 
25 46 99 
25 48 101 
25 51 100 
25 55 104 
25 100 103 
25 105 99 
25 106 217 
25 107 207 
25 108 173 
25 109 150 
25 110 120 
25 111 93 
25 112 107 
25 113 112 
25 115 224 
25 116 235 
26 36 243 
26 108 107 
26 109 99 
26 111 113 
26 113 197 
26 114 218 
26 118 233 
26 119 172 
27 44 250 
27 45 238 
27 46 99 
27 111 94 
27 112 137 
27 113 132 
27 114 201 
27 115 238 
27 116 221 
27 118 224 
27 119 148 
28 110 102 
28 111 92 
28 112 100 
28 113 88 
28 114 202 
28 115 245 
28 116 230 
28 117 243 
28 118 235 
28 119 172 
29 113 90 
29 114 216 
29 115 241 
29 116 233 
29 117 235 
29 119 205 
30 110 97 
30 115 233 
31 110 107 
31 112 101 
31 113 85 
31 114 205 
31 117 242 
31 118 235 
31 119 221 
32 20 251 
32 21 248 
32 38 245 
32 45 242 
32 46 102 
32 108 107 
32 109 97 
32 110 117 
32 111 106 
32 114 193 
32 117 233 
32 118 218 
33 112 105 
33 114 186 
33 115 243 
33 117 225 
33 118 209 
33 119 231 
34 26 246 
34 44 249 
34 68 103 
34 108 101 
34 112 95 
34 113 102 
34 114 168 
34 115 251 
34 116 234 
34 117 238 
34 118 213 
34 119 233 
35 45 241 
35 46 100 
35 107 103 
35 108 110 
35 114 161 
35 115 237 
35 116 210 
35 117 230 
35 119 223 
36 65 105 
36 113 98 
36 114 154 
36 115 233 
36 116 220 
36 118 234 
37 42 245 
37 44 249 
37 45 232 
37 46 96 
37 47 106 
37 108 99 
37 111 109 
37 112 96 
37 115 246 
37 116 230 
37 117 217 
37 118 225 
38 113 100 
38 114 148 
38 116 226 
38 118 216 
39 0 245 
39 107 103 
39 110 104 
39 114 102 
39 115 129 
39 116 94 
39 117 106 
40 4 252 
40 43 243 
40 44 251 
40 108 111 
40 109 102 
40 110 90 
40 112 93 
40 115 66 
40 116 97 
40 117 114 
40 118 129 
41 45 214 
41 46 88 
41 47 112 
41 50 113 
41 51 102 
41 52 105 
41 84 103 
41 109 86 
41 110 77 
41 112 81 
41 115 75 
41 116 81 
41 117 88 
41 118 101 
41 119 118 
42 44 253 
42 87 105 
42 104 103 
42 106 102 
42 108 71 
42 109 78 
42 111 85 
42 114 84 
42 115 91 
42 116 104 
42 117 105 
42 118 113 
42 119 129 
43 24 249 
43 25 241 
43 75 105 
43 87 101 
43 97 105 
43 102 103 
43 104 92 
43 106 81 
43 108 78 
43 109 94 
43 110 116 
43 111 137 
43 112 152 
43 113 165 
43 114 177 
43 115 185 
43 117 180 
43 119 189 
44 26 247 
44 46 92 
44 47 106 
44 87 109 
44 97 92 
44 98 89 
44 101 95 
44 102 109 
44 103 126 
44 104 144 
44 105 161 
44 106 174 
44 108 195 
44 111 196 
44 112 189 
44 113 183 
44 114 176 
44 115 173 
44 117 172 
45 22 252 
45 44 249 
45 45 184 
45 84 101 
45 89 109 
45 93 96 
45 95 90 
45 96 99 
45 97 121 
45 98 146 
45 99 162 
45 103 183 
45 105 180 
45 107 177 
45 108 166 
45 111 167 
45 113 175 
45 115 180 
45 119 177 
46 19 252 
46 20 242 
46 23 240 
46 84 108 
46 89 93 
46 91 100 
46 93 118 
46 94 147 
46 95 173 
46 96 186 
46 97 188 
46 99 180 
46 104 180 
46 109 175 
46 115 167 
47 16 251 
47 18 236 
47 19 229 
47 21 186 
47 22 211 
47 23 249 
47 46 92 
47 84 98 
47 86 98 
47 88 105 
47 89 118 
47 90 135 
47 91 147 
47 92 188 
47 94 186 
47 97 179 
47 100 168 
47 104 166 
47 107 163 
47 113 157 
47 115 152 
47 119 161 
48 10 245 
48 12 252 
48 13 244 
48 14 229 
48 15 213 
48 16 197 
48 17 178 
48 18 159 
48 19 146 
48 20 122 
48 21 131 
48 22 165 
48 23 215 
48 26 245 
48 44 251 
48 45 187 
48 82 106 
48 84 89 
48 85 101 
48 86 120 
48 87 139 
48 88 158 
48 89 176 
48 90 193 
48 91 205 
48 92 179 
48 110 164 
48 112 165 
48 115 166 
49 4 253 
49 7 248 
49 8 237 
49 9 221 
49 10 206 
49 11 197 
49 12 169 
49 13 163 
49 14 153 
49 15 147 
49 16 141 
49 17 133 
49 18 123 
49 20 110 
49 21 126 
49 22 137 
49 23 151 
49 24 192 
49 25 242 
49 26 252 
49 27 246 
49 35 252 
49 45 188 
49 46 94 
49 80 106 
49 84 152 
49 85 166 
49 86 186 
49 87 196 
49 89 183 
49 90 171 
49 91 165 
49 95 168 
49 99 169 
49 100 161 
49 111 151 
49 118 159 
49 119 152 
50 0 249 
50 2 248 
50 4 202 
50 5 194 
50 6 181 
50 7 167 
50 8 155 
50 9 148 
50 13 145 
50 14 133 
50 16 131 
50 18 112 
50 19 130 
50 20 137 
50 21 122 
50 24 142 
50 25 172 
50 26 212 
50 27 253 
50 30 238 
50 31 245 
50 33 252 
50 34 245 
50 42 250 
50 47 113 
50 72 99 
50 79 95 
50 81 137 
50 82 167 
50 83 188 
50 84 197 
50 85 188 
50 89 165 
50 91 173 
51 0 220 
51 1 197 
51 2 172 
51 3 155 
51 4 143 
51 6 143 
51 13 135 
51 14 125 
51 15 118 
51 17 131 
51 18 148 
51 19 180 
51 20 171 
51 22 145 
51 24 125 
51 25 133 
51 26 163 
51 27 209 
51 28 230 
51 29 249 
51 33 244 
51 34 252 
51 42 243 
51 44 252 
51 45 193 
51 67 105 
51 71 111 
51 76 84 
51 77 106 
51 78 136 
51 79 161 
51 80 178 
51 81 185 
51 85 169 
51 91 163 
51 115 153 
51 116 161 
52 1 140 
52 3 133 
52 9 132 
52 12 136 
52 13 156 
52 14 169 
52 15 180 
52 16 192 
52 17 203 
52 18 221 
52 19 249 
52 20 224 
52 21 161 
52 22 136 
52 26 134 
52 27 158 
52 28 204 
52 29 236 
52 30 244 
52 31 218 
52 32 209 
52 45 201 
52 46 93 
52 49 112 
52 50 105 
52 70 96 
52 71 100 
52 72 107 
52 74 99 
52 75 89 
52 76 151 
52 77 168 
52 78 189 
52 79 198 
52 80 191 
52 81 178 
52 82 167 
52 85 162 
52 117 152 
53 0 130 
53 3 125 
53 5 131 
53 7 130 
53 9 144 
53 10 153 
53 12 213 
53 13 231 
53 20 253 
53 21 194 
53 22 163 
53 23 149 
53 25 144 
53 27 137 
53 28 175 
53 29 201 
53 30 233 
53 31 244 
53 36 251 
53 43 251 
53 45 214 
53 46 97 
53 47 108 
53 70 112 
53 71 96 
53 72 83 
53 73 102 
53 74 149 
53 76 191 
53 78 185 
53 79 175 
53 80 163 
53 117 145 
54 0 123 
54 3 137 
54 4 154 
54 5 167 
54 6 188 
54 7 212 
54 8 232 
54 11 253 
54 13 253 
54 19 233 
54 22 232 
54 23 202 
54 24 170 
54 25 158 
54 26 142 
54 27 138 
54 28 147 
54 29 162 
54 30 201 
54 32 236 
54 36 240 
54 43 244 
54 44 251 
54 45 226 
54 65 110 
54 69 91 
54 70 89 
54 71 115 
54 72 157 
54 74 193 
54 75 186 
54 78 165 
54 82 164 
54 84 167 
55 0 152 
55 1 170 
55 2 195 
55 3 213 
55 4 250 
55 8 252 
55 10 243 
55 13 232 
55 16 243 
55 18 250 
55 23 241 
55 24 213 
55 25 202 
55 26 174 
55 27 153 
55 29 138 
55 30 158 
55 31 173 
55 32 185 
55 33 220 
55 34 241 
55 35 225 
55 36 210 
55 37 219 
55 38 233 
55 39 246 
55 45 239 
55 65 99 
55 66 96 
55 68 90 
55 69 122 
55 70 162 
55 72 187 
55 73 176 
55 80 171 
55 82 157 
55 83 147 
55 84 160 
55 93 156 
55 96 149 
56 0 245 
56 19 220 
56 25 248 
56 26 221 
56 27 199 
56 28 176 
56 29 147 
56 32 143 
56 33 180 
56 38 228 
56 39 238 
56 40 246 
56 45 250 
56 46 109 
56 65 107 
56 66 118 
56 67 128 
56 70 185 
56 73 169 
56 79 161 
56 80 162 
56 83 159 
56 90 153 
56 92 149 
56 94 146 
56 96 142 
57 12 249 
57 13 240 
57 14 248 
57 19 227 
57 20 252 
57 21 235 
57 22 246 
57 27 252 
57 28 231 
57 29 172 
57 31 160 
57 33 152 
57 34 200 
57 35 229 
57 36 250 
57 50 115 
57 51 108 
57 61 104 
57 63 100 
57 64 110 
57 65 136 
57 66 173 
57 67 199 
57 68 181 
57 80 149 
57 85 150 
57 86 143 
57 90 145 
57 92 140 
57 94 137 
57 109 144 
58 18 246 
58 19 238 
58 20 249 
58 27 238 
58 28 250 
58 29 233 
58 30 208 
58 31 181 
58 32 154 
58 33 139 
58 34 146 
58 35 162 
58 36 177 
58 37 217 
58 38 237 
58 39 230 
58 43 247 
58 44 239 
58 46 136 
58 47 86 
58 48 123 
58 49 97 
58 50 106 
58 51 114 
58 53 101 
58 56 112 
58 59 112 
58 60 95 
58 61 96 
58 62 112 
58 63 146 
58 64 183 
58 65 197 
58 66 183 
58 67 164 
58 68 173 
58 73 167 
58 82 154 
58 104 130 
58 108 134 
58 119 136 
59 29 243 
59 31 248 
59 32 214 
59 33 163 
59 34 145 
59 35 159 
59 37 165 
59 38 180 
59 39 216 
59 40 243 
59 42 237 
59 44 252 
59 45 240 
59 46 187 
59 47 97 
59 48 88 
59 49 129 
59 50 116 
59 52 98 
59 53 116 
59 56 99 
59 59 83 
59 60 112 
59 61 139 
59 62 172 
59 66 172 
59 74 160 
59 82 147 
59 102 137 
60 19 244 
60 30 240 
60 31 253 
60 32 245 
60 33 201 
60 34 158 
60 36 134 
60 37 147 
60 38 158 
60 39 174 
60 40 195 
60 41 204 
60 42 212 
60 43 227 
60 44 231 
60 45 253 
60 46 235 
60 47 194 
60 48 117 
60 49 77 
60 50 106 
60 51 125 
60 52 113 
60 53 104 
60 55 116 
60 57 86 
60 58 101 
60 59 134 
60 60 168 
60 63 185 
60 64 175 
60 67 180 
60 91 145 
61 20 251 
61 30 242 
61 33 247 
61 34 218 
61 35 180 
61 36 150 
61 37 158 
61 38 150 
61 39 139 
61 40 146 
61 41 163 
61 42 187 
61 43 212 
61 44 220 
61 45 252 
61 46 231 
61 47 253 
61 48 238 
61 49 142 
61 50 93 
61 52 106 
61 54 104 
61 55 93 
61 56 100 
61 57 130 
61 58 161 
61 59 177 
61 60 191 
61 61 180 
61 62 168 
61 68 167 
61 86 144 
61 89 141 
61 92 138 
62 30 252 
62 31 241 
62 34 252 
62 36 218 
62 37 176 
62 39 139 
62 41 149 
62 42 173 
62 43 217 
62 44 235 
62 45 231 
62 47 237 
62 49 253 
62 50 119 
62 51 104 
62 55 112 
62 56 146 
62 57 183 
62 58 195 
62 59 189 
62 60 168 
62 77 147 
62 86 137 
62 88 134 
62 92 129 
62 115 132 
63 29 239 
63 33 238 
63 36 251 
63 37 226 
63 38 187 
63 39 161 
63 40 150 
63 41 142 
63 42 152 
63 43 178 
63 45 209 
63 46 244 
63 48 231 
63 50 144 
63 51 100 
63 54 137 
63 55 179 
63 56 194 
63 59 187 
63 60 172 
63 62 175 
63 64 161 
63 73 150 
63 78 137 
63 91 128 
63 92 121 
64 28 252 
64 33 246 
64 36 243 
64 37 252 
64 38 244 
64 39 204 
64 40 179 
64 41 165 
64 42 147 
64 43 135 
64 44 157 
64 45 168 
64 46 183 
64 48 253 
64 49 242 
64 50 127 
64 51 75 
64 52 119 
64 53 163 
64 54 193 
64 55 185 
64 56 174 
64 59 163 
64 60 181 
64 61 170 
64 62 158 
64 63 151 
64 67 154 
64 74 142 
65 0 248 
65 28 239 
65 29 247 
65 40 253 
65 41 219 
65 42 169 
65 43 143 
65 46 144 
65 47 153 
65 48 214 
65 49 248 
65 50 106 
65 51 155 
65 52 197 
65 53 181 
65 54 170 
65 59 170 
65 67 147 
65 70 143 
66 0 229 
66 2 245 
66 3 252 
66 8 250 
66 28 247 
66 42 214 
66 43 168 
66 44 157 
66 45 140 
66 47 125 
66 48 135 
66 49 182 
66 51 186 
66 56 171 
66 58 163 
66 60 152 
66 69 135 
66 71 134 
66 78 137 
66 81 135 
66 87 128 
66 93 128 
67 42 246 
67 43 227 
67 44 176 
67 47 134 
67 48 151 
67 51 179 
67 65 150 
67 68 145 
67 79 128 
67 81 124 
67 87 120 
68 0 241 
68 1 223 
68 6 250 
68 8 242 
68 43 252 
68 44 222 
68 45 177 
68 47 162 
68 48 177 
68 51 172 
68 56 162 
68 66 143 
68 67 136 
68 70 138 
68 75 132 
68 91 127 
68 93 120 
69 44 252 
69 45 223 
69 46 192 
69 48 186 
69 49 177 
69 51 165 
69 62 151 
69 70 130 
69 75 124 
69 91 118 
70 0 250 
70 1 242 
70 9 245 
70 13 250 
70 45 244 
70 46 208 
70 47 178 
70 48 171 
70 49 163 
70 61 143 
70 87 126 
71 0 243 
71 10 235 
71 11 226 
71 12 235 
71 47 163 
71 49 156 
71 57 149 
71 63 129 
71 79 123 
71 83 119 
71 84 127 
71 87 118 
71 95 121 
72 0 229 
72 1 252 
72 3 244 
72 19 245 
72 43 239 
72 44 232 
72 45 242 
72 46 192 
72 57 141 
72 59 139 
72 65 136 
72 67 129 
72 89 111 
72 92 121 
72 110 115 
73 0 167 
73 1 180 
73 2 226 
73 3 252 
73 6 250 
73 11 249 
73 12 236 
73 17 252 
73 19 238 
73 46 184 
73 47 158 
73 48 169 
73 60 125 
73 66 129 
73 67 122 
73 78 114 
73 86 113 
73 92 110 
73 95 114 
73 108 105 
74 0 222 
74 1 209 
74 2 225 
74 5 245 
74 6 242 
74 12 247 
74 25 242 
74 26 234 
74 27 227 
74 28 244 
74 44 232 
74 48 160 
74 49 148 
74 80 119 
74 86 106 
74 87 113 
74 97 115 
74 99 104 
74 100 116 
74 104 116 
75 0 246 
75 1 235 
75 2 243 
75 3 252 
75 5 238 
75 6 226 
75 7 233 
75 8 249 
75 19 244 
75 20 251 
75 27 234 
75 44 240 
75 45 248 
75 59 128 
75 60 121 
75 102 104 
76 2 232 
76 3 239 
76 4 252 
76 5 242 
76 6 230 
76 7 237 
76 27 242 
76 46 180 
76 47 147 
76 54 134 
76 80 109 
76 96 103 
76 105 104 
77 1 240 
77 3 241 
77 5 248 
77 10 250 
77 46 173 
77 47 139 
77 48 147 
77 49 138 
77 69 118 
77 73 124 
77 119 109 
78 3 252 
78 4 237 
78 9 239 
78 17 252 
78 71 111 
78 84 119 
79 19 245 
79 36 246 
79 46 168 
79 47 133 
79 48 143 
79 49 134 
79 52 124 
79 60 125 
79 92 108 
80 9 250 
80 45 240 
80 50 125 
80 51 113 
80 57 123 
80 60 118 
80 73 118 
80 92 101 
81 18 250 
81 19 243 
81 20 251 
81 22 242 
81 46 161 
81 47 126 
81 48 137 
81 49 127 
81 51 111 
81 52 128 
81 57 116 
81 66 117 
81 73 111 
81 76 120 
81 92 94 
81 93 102 
81 94 110 
81 99 109 
81 100 102 
81 107 101 
82 45 241 
82 46 143 
82 87 105 
82 99 102 
83 49 118 
83 50 127 
83 56 124 
83 68 111 
83 72 114 
83 74 110 
83 76 110 
83 88 98 
83 91 106 
84 45 239 
84 46 136 
84 47 120 
84 65 108 
84 67 100 
84 72 107 
84 75 103 
85 57 117 
86 47 117 
86 48 125 
86 50 129 
86 51 120 
86 52 127 
86 59 108 
86 73 108 
86 88 104 
86 92 97 
87 44 245 
87 45 236 
87 66 112 
87 73 100 
87 88 95 
88 19 250 
88 20 242 
88 45 237 
88 46 133 
88 47 118 
88 84 103 
89 15 250 
89 17 251 
89 20 228 
89 21 236 
89 49 117 
89 50 124 
89 99 98 
90 9 252 
90 12 249 
90 13 228 
90 14 206 
90 16 223 
90 17 236 
90 19 223 
90 23 224 
90 52 111 
90 60 101 
90 75 91 
90 76 104 
90 78 105 
90 83 94 
90 99 91 
91 8 250 
91 9 242 
91 10 234 
91 12 220 
91 14 230 
91 17 228 
91 19 232 
91 22 247 
91 23 235 
91 25 252 
91 27 244 
91 46 126 
91 47 116 
91 48 126 
91 49 112 
91 50 122 
91 51 111 
91 52 119 
91 76 93 
91 79 95 
92 0 252 
92 2 248 
92 7 235 
92 8 233 
92 10 244 
92 12 247 
92 14 237 
92 20 221 
92 21 213 
92 22 232 
92 23 252 
92 25 232 
92 26 241 
92 27 252 
92 75 100 
92 83 104 
92 84 92 
93 0 242 
93 3 237 
93 7 226 
93 8 218 
93 10 229 
93 13 248 
93 14 252 
93 16 252 
93 17 236 
93 18 211 
93 20 186 
93 21 171 
93 22 203 
93 24 252 
93 25 236 
93 26 238 
93 48 119 
93 59 113 
94 0 229 
94 3 224 
94 4 217 
94 5 232 
94 6 244 
94 8 247 
94 10 251 
94 13 233 
94 14 220 
94 15 198 
94 16 174 
94 17 155 
94 19 148 
94 20 110 
94 21 137 
94 22 173 
94 23 203 
94 24 233 
94 26 252 
94 27 238 
94 45 244 
94 46 139 
94 47 109 
95 0 251 
95 3 236 
95 4 251 
95 6 251 
95 7 234 
95 8 216 
95 9 203 
95 10 191 
95 11 180 
95 13 162 
95 15 157 
95 16 147 
95 17 127 
95 18 104 
95 19 89 
95 20 93 
95 21 125 
95 23 140 
95 24 179 
95 25 227 
95 26 249 
95 28 250 
95 59 97 
95 60 104 
95 76 91 
95 116 96 
96 3 227 
96 5 195 
96 6 180 
96 7 158 
96 9 146 
96 11 137 
96 12 144 
96 15 113 
96 16 125 
96 18 131 
96 19 123 
96 20 138 
96 21 172 
96 22 160 
96 23 135 
96 24 148 
96 25 167 
96 26 200 
96 27 252 
96 46 147 
96 47 105 
96 50 99 
96 51 106 
96 53 97 
96 91 97 
97 0 180 
97 2 170 
97 4 151 
97 6 147 
97 7 134 
97 12 126 
97 13 130 
97 15 135 
97 16 134 
97 18 147 
97 19 155 
97 20 166 
97 21 249 
97 22 242 
97 23 172 
97 25 152 
97 26 164 
97 27 203 
97 28 249 
97 33 252 
97 91 88 
98 0 107 
98 1 133 
98 2 144 
98 3 136 
98 6 123 
98 9 133 
98 12 133 
98 13 155 
98 15 158 
98 16 193 
98 17 231 
98 18 238 
98 19 249 
98 20 244 
98 23 249 
98 24 234 
98 25 196 
98 26 162 
98 27 148 
98 28 169 
98 29 203 
98 30 238 
98 31 251 
98 34 240 
99 0 108 
99 11 135 
99 12 205 
99 13 230 
99 14 248 
99 18 242 
99 20 236 
99 21 246 
99 23 236 
99 26 198 
99 27 146 
99 28 163 
99 30 186 
99 31 233 
99 32 251 
99 33 240 
99 35 252 
99 43 249 
99 45 238 
99 46 174 
99 47 99 
99 48 107 
99 115 94 
99 116 105 
99 119 100 
3 342 434 343 
3 434 435 343 
3 373 343 435 
3 344 343 373 
3 733 750 747 
3 750 751 747 
3 732 750 733 
3 750 761 751 
3 761 762 751 
3 581 635 582 
3 610 582 635 
3 635 636 610 
3 635 634 661 
3 581 634 635 
3 661 683 635 
3 609 634 581 
3 851 873 852 
3 873 874 852 
3 834 851 852 
3 835 834 852 
3 618 617 643 
3 591 617 618 
3 643 617 672 
3 426 456 397 
3 427 397 456 
3 456 457 427 
3 1822 1839 1823 
3 1839 1859 1823 
3 1859 1860 1823 
3 1840 1823 1860 
3 904 924 885 
3 866 885 924 
3 924 925 866 
3 250 283 251 
3 283 284 251 
3 284 283 338 
3 338 339 284 
3 285 284 339 
3 315 285 339 
3 339 340 315 
3 339 338 370 
3 337 338 283 
3 1315 1314 1412 
3 1239 1314 1315 
3 1464 1412 1515 
3 1315 1412 1464 
3 1346 1315 1464 
3 33 32 52 
3 11 32 33 
3 52 76 33 
3 76 77 33 
3 88 89 0 
3 19 0 89 
3 89 90 19 
3 1718 1710 1779 
3 1698 1710 1718 
3 1695 1822 1696 
3 1786 1696 1822 
3 1710 1696 1786 
3 1786 1787 1710 
3 1779 1710 1787 
3 1826 1887 1863 
3 1887 1888 1863 
3 1888 1887 1911 
3 1842 1862 1826 
3 1862 1887 1826 
3 1843 1826 1863 
3 1825 1842 1826 
3 683 743 695 
3 729 695 743 
3 713 695 729 
3 696 695 713 
3 795 812 802 
3 812 826 802 
3 826 839 802 
3 827 802 839 
3 813 802 827 
3 789 812 795 
3 795 796 778 
3 779 778 796 
3 791 779 796 
3 790 795 778 
3 178 232 179 
3 210 179 232 
3 1762 1763 1743 
3 1727 1743 1763 
3 1744 1727 1763 
3 1758 1744 1763 
3 1763 1794 1758 
3 1762 1784 1763 
3 1784 1794 1763 
3 1794 1795 1758 
3 1764 1758 1795 
3 1795 1794 1855 
3 1817 1927 1818 
3 1927 1928 1818 
3 1855 1818 1928 
3 1901 1855 1928 
3 1707 1714 1680 
3 1668 1680 1714 
3 1931 1954 1905 
3 1932 1905 1954 
3 1790 1845 1806 
3 1845 1846 1806 
3 1846 1847 1806 
3 1807 1806 1847 
3 1807 1847 1828 
3 1847 1848 1828 
3 794 798 776 
3 798 831 776 
3 816 831 798 
3 1848 1847 1868 
3 1868 1869 1848 
3 1805 1827 1790 
3 1827 1845 1790 
3 937 936 1003 
3 915 936 937 
3 1003 966 1075 
3 936 966 1003 
3 1074 1075 966 
3 668 691 669 
3 691 699 669 
3 692 669 699 
3 699 709 692 
3 709 710 692 
3 693 692 710 
3 977 1015 978 
3 1015 1048 978 
3 978 1048 1016 
3 1048 1049 1016 
3 945 979 946 
3 979 1017 946 
3 946 1017 980 
3 1017 1018 980 
3 1279 1250 1349 
3 1190 1250 1279 
3 1191 1190 1279 
3 1251 1191 1279 
3 1223 1191 1251 
3 1493 1544 1494 
3 1463 1494 1544 
3 1514 1463 1544 
3 1495 1463 1514 
3 1609 1627 1585 
3 1594 1585 1627 
3 1061 1207 1134 
3 1169 1134 1207 
3 1207 1233 1169 
3 47 99 48 
3 72 48 99 
3 99 126 72 
3 1720 1721 1701 
3 1664 1701 1721 
3 1663 1701 1664 
3 1641 1664 1721 
3 1632 1612 1650 
3 1613 1612 1632 
3 1650 1709 1632 
3 1682 1632 1709 
3 1633 1632 1682 
3 1613 1632 1633 
3 1598 1612 1586 
3 1575 1586 1612 
3 1575 1548 1586 
3 1564 1548 1575 
3 1681 1731 1700 
3 1731 1748 1700 
3 1700 1748 1740 
3 1748 1778 1740 
3 1709 1700 1740 
3 1650 1700 1709 
3 1717 1740 1732 
3 1740 1749 1732 
3 1749 1750 1732 
3 1717 1709 1740 
3 817 818 808 
3 786 808 818 
3 784 808 785 
3 786 785 808 
3 818 819 786 
3 787 786 819 
3 1507 1527 1508 
3 1527 1528 1508 
3 1528 1527 1543 
3 1527 1570 1558 
3 1570 1571 1558 
3 1542 1557 1527 
3 1557 1570 1527 
3 1543 1527 1558 
3 1648 1700 1649 
3 1650 1649 1700 
3 1681 1700 1648 
3 1596 1648 1649 
3 1631 1596 1649 
3 1597 1596 1631 
3 216 215 261 
3 187 215 216 
3 260 261 215 
3 239 216 261 
3 78 104 79 
3 104 105 79 
3 105 104 130 
3 158 186 159 
3 186 215 159 
3 159 215 187 
3 971 1012 972 
3 1012 1079 972 
3 1045 972 1079 
3 1013 972 1045 
3 973 972 1013 
3 1079 1078 1120 
3 1012 1078 1079 
3 1010 1078 1011 
3 1012 1011 1078 
3 1079 1080 1045 
3 1120 1121 1079 
3 1121 1120 1155 
3 821 865 822 
3 865 1100 822 
3 990 1029 922 
3 865 922 1029 
3 864 922 865 
3 1029 1100 865 
3 760 759 771 
3 745 759 760 
3 744 759 745 
3 788 789 771 
3 760 771 789 
3 1172 1100 1265 
3 822 1100 1172 
3 1099 1100 1029 
3 1064 822 1172 
3 1265 1100 1304 
3 680 742 681 
3 742 787 681 
3 820 821 787 
3 821 822 787 
3 681 787 822 
3 769 787 742 
3 777 681 822 
3 572 627 603 
3 627 628 603 
3 602 627 571 
3 572 571 627 
3 1221 1220 1246 
3 999 1220 1221 
3 1246 1247 1221 
3 1073 1220 999 
3 1000 999 1221 
3 995 1072 1037 
3 1072 1113 1037 
3 1244 1113 1274 
3 1037 1113 1244 
3 1073 1037 1244 
3 1220 1073 1244 
3 1219 1274 1181 
3 1113 1181 1274 
3 1244 1245 1220 
3 66 119 95 
3 119 120 95 
3 94 119 65 
3 66 65 119 
3 118 150 119 
3 150 151 119 
3 94 118 119 
3 1795 1902 1770 
3 1835 1770 1902 
3 1771 1770 1835 
3 1796 1771 1835 
3 1902 1903 1835 
3 1735 1734 1741 
3 1682 1734 1735 
3 1741 1734 1767 
3 693 700 672 
3 673 672 700 
3 700 701 673 
3 674 673 701 
3 847 1066 1031 
3 1066 1067 1031 
3 1066 1030 1104 
3 847 1030 1066 
3 1104 1105 1066 
3 1133 1203 1168 
3 1203 1204 1168 
3 1096 1167 1060 
3 1167 1202 1060 
3 1133 1060 1202 
3 1202 1203 1133 
3 1463 1495 1380 
3 1412 1380 1495 
3 1495 1515 1412 
3 1738 1702 1751 
3 1711 1702 1738 
3 1702 1768 1751 
3 1768 1769 1751 
3 1666 1702 1711 
3 1688 1666 1711 
3 1140 1176 1141 
3 1176 1215 1141 
3 1177 1141 1215 
3 1573 1574 1562 
3 1563 1562 1574 
3 1533 1562 1563 
3 1496 1533 1563 
3 142 37 278 
3 18 37 142 
3 1437 1496 1465 
3 1496 1534 1465 
3 1534 1496 1563 
3 1546 1534 1563 
3 1563 1574 1546 
3 1574 1595 1546 
3 1667 1678 1624 
3 1678 1679 1624 
3 1646 1624 1679 
3 1625 1624 1646 
3 801 812 789 
3 790 789 795 
3 788 801 789 
3 887 888 849 
3 888 889 849 
3 867 849 889 
3 889 890 867 
3 833 887 849 
3 868 892 869 
3 892 912 869 
3 912 932 869 
3 893 869 932 
3 849 868 869 
3 850 849 869 
3 1010 1118 1078 
3 1118 1119 1078 
3 1119 1118 1154 
3 465 488 438 
3 466 438 488 
3 55 54 79 
3 35 54 55 
3 14 54 15 
3 35 15 54 
3 484 503 485 
3 503 527 485 
3 485 527 504 
3 527 528 504 
3 624 652 625 
3 652 653 625 
3 676 652 702 
3 653 652 676 
3 675 740 702 
3 740 741 702 
3 652 675 702 
3 1197 1228 1198 
3 1228 1258 1198 
3 1258 1257 1285 
3 1228 1257 1258 
3 1199 1198 1258 
3 1285 1286 1258 
3 308 307 358 
3 274 307 308 
3 275 274 308 
3 358 390 308 
3 390 391 308 
3 359 308 391 
3 1634 1348 1654 
3 1614 1348 1634 
3 1654 1683 1634 
3 1548 1597 1586 
3 1597 1598 1586 
3 1598 1597 1631 
3 1536 1535 1548 
3 1438 1535 1536 
3 1547 1597 1548 
3 1596 1597 1547 
3 1535 1547 1548 
3 1546 1595 1547 
3 1595 1596 1547 
3 1438 1347 1535 
3 1413 1347 1438 
3 1465 1535 1347 
3 1273 1347 1413 
3 1243 1316 1273 
3 1316 1347 1273 
3 1274 1273 1413 
3 9 31 10 
3 31 51 10 
3 10 51 32 
3 51 52 32 
3 1101 1064 1173 
3 1065 1064 1101 
3 1138 1101 1173 
3 1172 1210 1064 
3 1210 1211 1064 
3 1173 1064 1211 
3 1630 1693 1681 
3 1693 1731 1681 
3 1574 1693 1630 
3 1648 1630 1681 
3 16 36 17 
3 36 56 17 
3 56 82 17 
3 83 137 84 
3 137 138 84 
3 57 83 84 
3 58 57 84 
3 57 108 83 
3 108 135 83 
3 135 136 83 
3 136 137 83 
3 1955 1954 1975 
3 1932 1954 1955 
3 1953 1975 1954 
3 1975 1976 1955 
3 1956 1955 1976 
3 1934 1955 1956 
3 1715 1729 1708 
3 1628 1708 1729 
3 1669 1708 1628 
3 1692 1628 1729 
3 1708 1668 1714 
3 1669 1668 1708 
3 1608 1680 1668 
3 1629 1628 1692 
3 1578 1589 1579 
3 1589 1590 1579 
3 1552 1578 1579 
3 1519 1552 1579 
3 1590 1621 1579 
3 1621 1622 1579 
3 1622 1621 1640 
3 1603 1579 1622 
3 1320 1282 1442 
3 1283 1282 1320 
3 1320 1442 1383 
3 1416 1383 1442 
3 1382 1468 1282 
3 1442 1282 1468 
3 1350 1320 1383 
3 902 919 882 
3 919 920 882 
3 903 882 920 
3 920 921 903 
3 968 967 1009 
3 806 967 968 
3 799 967 806 
3 967 799 1005 
3 1005 1006 967 
3 1008 1009 967 
3 1702 1811 1768 
3 1811 1949 1768 
3 1721 1811 1677 
3 1702 1677 1811 
3 1875 1900 1834 
3 1900 1949 1834 
3 1811 1834 1949 
3 1084 1157 1085 
3 1086 1085 1157 
3 1123 1086 1157 
3 1083 1190 1084 
3 1190 1191 1084 
3 1157 1084 1191 
3 1837 1929 1772 
3 1767 1772 1929 
3 1800 1767 1929 
3 1778 1748 1798 
3 1799 1798 1820 
3 1778 1798 1799 
3 1765 1771 1757 
3 1771 1797 1757 
3 1796 1797 1771 
3 1797 1798 1757 
3 1748 1757 1798 
3 1756 1755 1765 
3 1745 1755 1756 
3 1755 1770 1771 
3 1765 1755 1771 
3 1902 1996 1903 
3 1950 1903 1996 
3 1996 1997 1950 
3 1820 1903 1836 
3 1903 1950 1836 
3 1837 1836 1950 
3 1925 1926 1878 
3 1854 1878 1926 
3 1816 1854 1926 
3 1926 1925 1996 
3 1926 1996 1927 
3 1928 1927 1996 
3 1901 1928 1996 
3 1902 1901 1996 
3 1800 1950 1997 
3 1904 1800 1997 
3 1736 1785 1737 
3 1785 1800 1737 
3 1800 1904 1737 
3 1735 1741 1736 
3 1741 1785 1736 
3 1606 1607 1580 
3 1581 1580 1607 
3 1591 1581 1607 
3 1538 1604 1553 
3 1566 1553 1604 
3 1604 1605 1566 
3 1580 1566 1605 
3 1538 1470 1604 
3 1500 1470 1538 
3 1471 1470 1500 
3 1469 1644 1470 
3 1644 1702 1470 
3 1604 1470 1702 
3 1605 1606 1580 
3 1472 1471 1500 
3 1521 1500 1538 
3 1501 1500 1521 
3 1473 1472 1500 
3 1418 1469 1470 
3 1499 1520 1469 
3 1520 1644 1469 
3 1443 1469 1418 
3 1444 1418 1470 
3 1385 1418 1386 
3 1418 1419 1386 
3 1419 1418 1444 
3 1951 1975 1952 
3 1953 1952 1975 
3 320 373 345 
3 373 374 345 
3 374 373 405 
3 319 344 320 
3 344 373 320 
3 1003 1114 1004 
3 1114 1147 1004 
3 1147 1319 1004 
3 1074 1278 1147 
3 1278 1441 1147 
3 1318 1441 1278 
3 1319 1147 1441 
3 1541 1524 1555 
3 1525 1524 1541 
3 1504 1524 1525 
3 1556 1555 1568 
3 1541 1555 1556 
3 1523 1540 1524 
3 1540 1555 1524 
3 1318 1614 1441 
3 1614 1694 1441 
3 1319 1441 1694 
3 1317 1348 1318 
3 1348 1614 1318 
3 1653 1654 1348 
3 964 934 1002 
3 914 934 964 
3 1001 1317 933 
3 1278 933 1317 
3 934 933 1278 
3 1002 934 1278 
3 1317 1318 1278 
3 1317 1221 1348 
3 1001 1221 1317 
3 1348 1277 1415 
3 1247 1277 1348 
3 1415 1440 1348 
3 1440 1467 1348 
3 1467 1537 1348 
3 1537 1599 1348 
3 1599 1653 1348 
3 1565 1599 1537 
3 523 522 549 
3 362 522 523 
3 547 548 522 
3 548 549 522 
3 549 550 523 
3 455 522 362 
3 395 362 523 
3 455 37 543 
3 278 37 455 
3 362 278 455 
3 425 578 481 
3 578 681 481 
3 681 758 481 
3 758 681 777 
3 37 17 87 
3 18 17 37 
3 86 87 59 
3 17 59 87 
3 87 332 37 
3 87 86 109 
3 109 169 87 
3 169 276 87 
3 276 277 87 
3 332 543 37 
3 1694 1737 1904 
3 1634 1737 1614 
3 1694 1614 1737 
3 154 256 181 
3 256 318 181 
3 317 318 256 
3 481 543 332 
3 632 481 758 
3 543 481 632 
3 758 823 632 
3 1158 1157 1223 
3 1123 1157 1158 
3 1252 1253 1223 
3 1158 1223 1253 
3 1191 1223 1157 
3 1124 1123 1158 
3 1253 1254 1158 
3 1192 1158 1254 
3 1044 1118 1010 
3 921 951 903 
3 863 903 951 
3 951 987 863 
3 987 1024 863 
3 845 903 863 
3 1024 1025 863 
3 1432 1459 1433 
3 1459 1489 1433 
3 1490 1489 1513 
3 1433 1489 1490 
3 1513 1489 1530 
3 1460 1433 1490 
3 1434 1433 1460 
3 579 682 633 
3 661 633 682 
3 336 337 282 
3 283 282 337 
3 580 633 609 
3 633 634 609 
3 634 633 661 
3 319 234 343 
3 257 234 319 
3 289 257 319 
3 460 486 461 
3 486 505 461 
3 506 505 531 
3 487 505 506 
3 487 461 505 
3 531 532 506 
3 252 251 284 
3 225 251 252 
3 284 285 252 
3 1213 1239 1214 
3 1239 1240 1214 
3 1240 1239 1315 
3 224 251 143 
3 225 143 251 
3 200 143 225 
3 170 143 200 
3 1857 1856 1880 
3 1822 1856 1857 
3 1905 1879 1931 
3 1880 1879 1905 
3 1856 1879 1880 
3 1146 1216 1180 
3 1216 1217 1180 
3 1179 1216 1145 
3 1146 1145 1216 
3 1217 1216 1242 
3 1242 1272 1217 
3 1272 1316 1217 
3 1243 1217 1316 
3 823 885 848 
3 866 848 885 
3 847 885 823 
3 833 823 848 
3 885 847 954 
3 550 551 523 
3 482 395 523 
3 757 784 768 
3 784 785 768 
3 785 786 768 
3 769 768 786 
3 469 491 470 
3 491 510 470 
3 510 511 470 
3 471 470 511 
3 1794 1784 1817 
3 1761 1784 1762 
3 1929 1837 1950 
3 1532 1514 1545 
3 1495 1514 1532 
3 1544 1560 1514 
3 1560 1561 1514 
3 1545 1514 1561 
3 498 497 517 
3 476 497 498 
3 449 497 450 
3 476 450 497 
3 517 518 498 
3 736 749 737 
3 749 755 737 
3 1870 1895 1871 
3 1895 1918 1871 
3 1871 1918 1896 
3 1918 1919 1896 
3 899 915 881 
3 915 937 881 
3 900 881 937 
3 734 747 730 
3 747 752 730 
3 748 730 752 
3 735 730 748 
3 396 426 364 
3 397 364 426 
3 333 363 312 
3 363 395 312 
3 395 396 312 
3 364 312 396 
3 313 312 364 
3 806 968 938 
3 968 969 938 
3 969 970 938 
3 970 971 938 
3 917 916 944 
3 901 916 917 
3 944 945 917 
3 796 803 791 
3 791 803 797 
3 803 804 797 
3 1742 1761 1743 
3 1761 1762 1743 
3 1760 1761 1742 
3 1753 1760 1742 
3 1805 1804 1827 
3 1788 1804 1805 
3 1826 1843 1827 
3 1843 1844 1827 
3 1804 1826 1827 
3 1787 1804 1788 
3 479 542 480 
3 542 578 480 
3 578 577 608 
3 542 577 578 
3 1402 1457 1403 
3 1431 1403 1457 
3 1457 1458 1431 
3 1371 1402 1372 
3 1402 1403 1372 
3 1578 1619 1588 
3 1619 1662 1588 
3 1620 1588 1662 
3 1589 1588 1620 
3 1588 1589 1578 
3 614 641 588 
3 615 588 641 
3 641 642 615 
3 553 587 554 
3 587 614 554 
3 554 614 588 
3 975 1014 976 
3 1014 1047 976 
3 1015 976 1047 
3 93 61 117 
3 62 61 93 
3 117 116 176 
3 61 116 117 
3 92 116 61 
3 175 176 116 
3 176 175 208 
3 94 93 118 
3 63 93 94 
3 117 148 118 
3 148 149 118 
3 93 117 118 
3 62 93 63 
3 909 999 931 
3 999 1000 931 
3 930 999 909 
3 910 909 931 
3 1189 1250 1190 
3 1644 1677 1702 
3 1678 1666 1688 
3 1667 1666 1678 
3 1703 1688 1711 
3 1604 1702 1666 
3 1126 1127 1053 
3 1054 1053 1127 
3 1090 1054 1127 
3 1515 1533 1464 
3 656 678 657 
3 678 679 657 
3 679 678 704 
3 1241 1178 1346 
3 1179 1178 1241 
3 1315 1346 1240 
3 1178 1240 1346 
3 1346 1437 1241 
3 1272 1241 1437 
3 1347 1272 1437 
3 819 820 787 
3 820 819 865 
3 1959 1979 1960 
3 1979 1980 1960 
3 1961 1960 1980 
3 433 563 434 
3 463 434 563 
3 507 463 563 
3 342 433 434 
3 874 895 875 
3 895 896 875 
3 852 874 875 
3 853 852 875 
3 981 1019 982 
3 1019 1052 982 
3 983 1052 1020 
3 1052 1053 1020 
3 983 982 1052 
3 1052 1089 1053 
3 1089 1126 1053 
3 991 847 1031 
3 1105 1106 1066 
3 743 744 729 
3 731 729 744 
3 744 745 731 
3 743 682 770 
3 683 682 743 
3 800 809 788 
3 809 810 788 
3 801 788 810 
3 810 811 801 
3 914 964 897 
3 964 965 897 
3 854 914 897 
3 360 393 361 
3 393 394 361 
3 331 360 361 
3 310 331 361 
3 277 310 361 
3 276 310 277 
3 198 223 199 
3 223 249 199 
3 249 272 199 
3 272 273 199 
3 273 274 199 
3 169 199 274 
3 169 274 275 
3 275 276 169 
3 963 1038 999 
3 1038 1073 999 
3 993 1036 994 
3 1036 1072 994 
3 995 994 1072 
3 996 1037 997 
3 1037 1038 997 
3 1038 1037 1073 
3 1993 1994 1924 
3 1994 1995 1924 
3 1925 1924 1995 
3 1692 1699 1693 
3 1699 1716 1693 
3 1629 1692 1693 
3 1573 1629 1693 
3 1611 1629 1573 
3 1574 1573 1693 
3 1595 1574 1630 
3 1720 1774 1721 
3 1774 1782 1721 
3 1782 1793 1721 
3 1793 1782 1808 
3 1793 1811 1721 
3 1810 1811 1793 
3 1610 1669 1628 
3 1594 1627 1610 
3 1627 1669 1610 
3 1076 1184 1149 
3 1184 1185 1149 
3 1115 1148 1076 
3 1148 1183 1076 
3 1183 1184 1076 
3 1116 1076 1149 
3 144 171 145 
3 171 202 145 
3 202 203 145 
3 172 145 203 
3 146 145 172 
3 112 145 146 
3 203 204 172 
3 1707 1706 1713 
3 1691 1706 1707 
3 1712 1713 1706 
3 1647 1691 1680 
3 1691 1707 1680 
3 1571 1647 1680 
3 1592 1647 1571 
3 1608 1571 1680 
3 1626 1647 1592 
3 1593 1571 1608 
3 1570 1584 1571 
3 1584 1592 1571 
3 1609 1608 1668 
3 1454 1453 1481 
3 1427 1453 1454 
3 1481 1480 1505 
3 1453 1480 1481 
3 1585 1559 1593 
3 1530 1559 1585 
3 1529 1559 1530 
3 1531 1530 1585 
3 1572 1585 1594 
3 1544 1572 1560 
3 1572 1594 1560 
3 1594 1610 1560 
3 1610 1611 1560 
3 1493 1572 1544 
3 1572 1531 1585 
3 1493 1531 1572 
3 1515 1495 1532 
3 1496 1464 1533 
3 1346 1464 1437 
3 1464 1496 1437 
3 1623 1622 1663 
3 1603 1622 1623 
3 1687 1710 1698 
3 1697 1710 1687 
3 1801 1822 1823 
3 1801 1786 1822 
3 1858 1859 1839 
3 1684 1821 1695 
3 1821 1822 1695 
3 1655 1821 1684 
3 700 693 710 
3 711 710 720 
3 700 710 711 
3 1767 1785 1741 
3 1670 1736 1683 
3 1736 1737 1683 
3 1634 1683 1737 
3 1416 1442 1417 
3 1442 1499 1417 
3 1417 1499 1469 
3 1443 1417 1469 
3 1384 1417 1443 
3 478 500 479 
3 500 520 479 
3 520 542 479 
3 425 480 578 
3 514 537 515 
3 537 538 515 
3 571 537 602 
3 538 537 571 
3 1098 1137 1029 
3 1099 1029 1137 
3 1766 1740 1778 
3 1749 1740 1766 
3 1772 1766 1778 
3 1730 1747 1731 
3 1747 1748 1731 
3 1716 1730 1731 
3 1746 1747 1730 
3 1909 1934 1956 
3 1295 1233 1330 
3 1169 1233 1295 
3 1329 1330 1233 
3 1330 1329 1360 
3 1294 1329 1233 
3 1232 1294 1233 
3 1169 1295 1234 
3 1295 1296 1234 
3 1208 1169 1234 
3 1170 1169 1208 
3 523 552 482 
3 552 553 482 
3 524 482 553 
3 501 482 524 
3 851 850 871 
3 834 850 851 
3 871 872 851 
3 741 740 757 
3 703 702 741 
3 293 378 323 
3 378 379 323 
3 379 380 323 
3 324 323 380 
3 322 347 293 
3 347 377 293 
3 377 378 293 
3 294 293 323 
3 292 322 293 
3 1349 1250 1519 
3 1080 1122 1081 
3 1122 1156 1081 
3 1189 1190 1156 
3 1082 1156 1190 
3 1082 1081 1156 
3 1577 1602 1551 
3 1602 1619 1551 
3 1618 1638 1602 
3 1619 1602 1638 
3 1083 1082 1190 
3 1820 1836 1799 
3 1836 1837 1799 
3 1785 1767 1800 
3 1929 1950 1800 
3 1904 1999 1694 
3 418 417 448 
3 387 417 418 
3 354 417 355 
3 387 355 417 
3 1652 1651 1682 
3 1599 1651 1652 
3 1654 1653 1670 
3 1652 1653 1599 
3 1633 1651 1599 
3 392 391 422 
3 359 391 392 
3 422 452 392 
3 452 453 392 
3 1247 1348 1221 
3 1000 1221 1001 
3 912 931 1000 
3 1462 1463 1411 
3 1378 1411 1463 
3 1379 1378 1463 
3 1463 1462 1494 
3 617 616 670 
3 590 616 617 
3 669 670 616 
3 670 671 617 
3 521 522 455 
3 522 521 545 
3 1808 1809 1793 
3 1781 1808 1782 
3 792 797 793 
3 797 805 793 
3 798 793 805 
3 1855 1902 1795 
3 1783 1777 1814 
3 1760 1777 1783 
3 1776 1813 1777 
3 1813 1814 1777 
3 1814 1815 1783 
3 1775 1812 1776 
3 1812 1813 1776 
3 1877 1878 1812 
3 1854 1812 1878 
3 1813 1812 1854 
3 1876 1877 1812 
3 1768 1812 1775 
3 1768 1949 1876 
3 1949 1974 1876 
3 1812 1768 1876 
3 1794 1818 1855 
3 988 1028 883 
3 952 883 1028 
3 1028 1062 952 
3 989 952 1062 
3 1699 1692 1729 
3 1729 1745 1699 
3 1745 1746 1699 
3 1730 1699 1746 
3 1716 1699 1730 
3 1498 1382 1520 
3 1468 1382 1498 
3 1382 1579 1603 
3 1382 1603 1520 
3 1603 1641 1520 
3 1641 1623 1664 
3 1603 1623 1641 
3 1641 1642 1520 
3 1642 1643 1520 
3 1643 1644 1520 
3 1677 1641 1721 
3 1665 1641 1677 
3 1642 1641 1665 
3 631 630 660 
3 607 630 631 
3 660 659 680 
3 630 659 660 
3 680 679 704 
3 659 679 680 
3 704 742 680 
3 658 679 659 
3 426 395 482 
3 396 395 426 
3 432 562 317 
3 433 317 562 
3 562 563 433 
3 233 232 256 
3 210 232 233 
3 180 210 233 
3 232 432 317 
3 256 232 317 
3 562 432 620 
3 231 432 232 
3 234 181 318 
3 182 181 234 
3 211 182 234 
3 183 182 211 
3 318 342 234 
3 342 343 234 
3 464 507 488 
3 507 647 488 
3 564 488 647 
3 916 806 939 
3 738 806 916 
3 938 939 806 
3 939 940 916 
3 940 941 916 
3 941 942 916 
3 901 738 916 
3 845 738 901 
3 882 845 901 
3 176 177 117 
3 148 117 177 
3 177 178 148 
3 1697 1686 1710 
3 1676 1686 1697 
3 1686 1696 1710 
3 1505 1506 1481 
3 436 507 464 
3 465 464 488 
3 1491 1531 1492 
3 1493 1492 1531 
3 671 693 672 
3 378 409 379 
3 409 440 379 
3 379 440 410 
3 440 441 410 
3 150 210 151 
3 180 151 210 
3 1575 1612 1613 
3 1565 1575 1613 
3 1599 1565 1613 
3 733 734 723 
3 724 723 734 
3 730 724 734 
3 714 732 723 
3 732 733 723 
3 746 750 732 
3 731 746 732 
3 729 731 732 
3 714 729 732 
3 713 729 714 
3 715 714 723 
3 1804 1803 1826 
3 1787 1803 1804 
3 1786 1803 1787 
3 1803 1825 1826 
3 191 242 192 
3 242 243 192 
3 219 192 243 
3 243 244 219 
3 1040 1076 1041 
3 1076 1077 1041 
3 1077 1076 1116 
3 280 279 314 
3 142 279 280 
3 313 314 279 
3 278 279 142 
3 224 142 280 
3 280 281 224 
3 765 775 766 
3 775 782 766 
3 776 766 782 
3 134 165 135 
3 165 194 135 
3 135 194 166 
3 194 195 166 
3 929 963 930 
3 963 999 930 
3 1279 1280 1251 
3 1909 1956 1910 
3 1956 1976 1910 
3 1957 1910 1976 
3 1935 1910 1957 
3 235 234 257 
3 1131 1166 1132 
3 1166 1199 1132 
3 1132 1199 1167 
3 1199 1200 1167 
3 245 244 267 
3 220 244 245 
3 219 244 220 
3 267 266 299 
3 244 266 267 
3 1215 1240 1177 
3 1178 1177 1240 
3 1143 1178 1179 
3 1901 1902 1855 
3 1204 1262 1205 
3 1231 1205 1262 
3 1262 1292 1231 
3 1292 1293 1231 
3 341 432 288 
3 255 288 432 
3 231 255 432 
3 553 554 524 
3 1188 1187 1248 
3 1154 1187 1188 
3 1119 1154 1188 
3 563 646 507 
3 647 646 739 
3 507 646 647 
3 739 756 647 
3 318 433 342 
3 153 233 154 
3 233 256 154 
3 180 233 153 
3 123 154 124 
3 154 181 124 
3 842 861 843 
3 861 862 843 
3 861 881 862 
3 881 900 862 
3 1182 1222 1183 
3 1184 1183 1222 
3 1185 1184 1222 
3 1222 1497 1185 
3 1497 1518 1185 
3 1186 1185 1518 
3 1518 1519 1186 
3 1324 1354 1325 
3 1354 1386 1325 
3 1325 1386 1355 
3 1386 1387 1355 
3 826 825 838 
3 811 825 826 
3 812 811 826 
3 1778 1837 1772 
3 1799 1837 1778 
3 606 630 607 
3 1144 1143 1179 
3 1107 1143 1144 
3 1106 1143 1107 
3 1733 1750 1734 
3 1750 1767 1734 
3 1733 1732 1750 
3 1819 1835 1903 
3 1820 1819 1903 
3 143 142 224 
3 281 282 224 
3 1254 1282 1224 
3 1255 1224 1282 
3 1225 1224 1255 
3 1282 1254 1382 
3 741 742 703 
3 704 703 742 
3 1274 1275 1244 
3 1275 1274 1414 
3 1413 1414 1274 
3 280 314 281 
3 314 335 281 
3 335 336 281 
3 282 281 336 
3 1414 1413 1439 
3 1381 1275 1414 
3 1127 1126 1160 
3 1061 1062 1028 
3 1062 1061 1134 
3 1062 1134 1097 
3 1134 1135 1097 
3 1134 1170 1135 
3 1170 1171 1135 
3 1675 1686 1676 
3 1662 1676 1697 
3 1656 1655 1684 
3 18 142 143 
3 1477 1503 1478 
3 1503 1523 1478 
3 1523 1524 1478 
3 1479 1478 1524 
3 1188 1248 1155 
3 1189 1155 1248 
3 1349 1519 1579 
3 1248 1519 1249 
3 1250 1249 1519 
3 1382 1349 1579 
3 1997 1998 1904 
3 1998 1999 1904 
3 448 475 418 
3 449 418 475 
3 720 721 711 
3 1396 1426 1397 
3 1426 1453 1397 
3 1397 1453 1427 
3 1831 1851 1832 
3 1851 1852 1832 
3 1809 1831 1832 
3 1810 1809 1832 
3 651 675 652 
3 1047 1083 1015 
3 1015 1083 1048 
3 1083 1084 1048 
3 821 820 865 
3 1559 1571 1593 
3 1593 1609 1585 
3 1511 1559 1512 
3 1529 1512 1559 
3 760 778 761 
3 772 761 778 
3 778 779 772 
3 789 790 760 
3 778 760 790 
3 1113 1112 1181 
3 1034 1112 1113 
3 1033 1112 1034 
3 1072 1034 1113 
3 1035 1034 1072 
3 1110 1146 1111 
3 1146 1180 1111 
3 1112 1111 1180 
3 1180 1181 1112 
3 750 745 760 
3 746 745 750 
3 743 759 744 
3 1560 1611 1561 
3 1573 1561 1611 
3 1545 1561 1573 
3 1562 1545 1573 
3 1717 1733 1709 
3 1733 1734 1709 
3 1682 1709 1734 
3 1639 1661 1619 
3 1661 1662 1619 
3 1551 1619 1578 
3 1552 1551 1578 
3 1551 1550 1577 
3 1518 1550 1551 
3 1517 1550 1518 
3 1430 1456 1402 
3 1456 1485 1402 
3 1485 1486 1402 
3 1457 1402 1486 
3 1380 1379 1463 
3 1345 1379 1380 
3 1914 1913 1939 
3 1891 1913 1914 
3 1938 1961 1939 
3 1961 1962 1939 
3 1913 1938 1939 
3 1273 1274 1219 
3 1212 1271 1239 
3 1271 1314 1239 
3 1211 1271 1212 
3 1718 1773 1719 
3 1773 1774 1719 
3 1720 1719 1774 
3 1679 1690 1646 
3 1690 1691 1646 
3 1647 1646 1691 
3 1513 1530 1531 
3 370 371 339 
3 1468 1499 1442 
3 894 934 895 
3 896 895 934 
3 914 896 934 
3 998 1038 963 
3 68 96 69 
3 96 122 69 
3 69 122 97 
3 122 123 97 
3 876 897 877 
3 897 898 877 
3 898 897 935 
3 966 965 1074 
3 935 965 966 
3 1002 1074 965 
3 1002 1278 1074 
3 1670 1683 1654 
3 1973 1989 1949 
3 1989 1990 1949 
3 1876 1924 1877 
3 1924 1925 1877 
3 1878 1877 1925 
3 1937 1936 1959 
3 1912 1936 1937 
3 1888 1936 1912 
3 1959 1958 1979 
3 1936 1958 1959 
3 1714 1707 1727 
3 1728 1727 1744 
3 1714 1727 1728 
3 1792 1807 1781 
3 1807 1828 1781 
3 1828 1829 1781 
3 1808 1781 1829 
3 1596 1595 1648 
3 1942 1982 1943 
3 1965 1943 1982 
3 1982 1983 1965 
3 1941 1964 1942 
3 1964 1982 1942 
3 1965 1983 1966 
3 1983 1984 1966 
3 1967 1966 1984 
3 1930 1931 1879 
3 757 768 741 
3 768 769 741 
3 742 741 769 
3 694 647 756 
3 882 903 845 
3 846 845 863 
3 739 738 845 
3 756 739 845 
3 901 902 882 
3 864 832 884 
3 817 832 864 
3 883 884 832 
3 883 807 988 
3 832 807 883 
3 740 694 756 
3 756 863 740 
3 845 846 756 
3 846 863 756 
3 783 740 863 
3 863 988 783 
3 807 783 988 
3 863 1025 988 
3 1025 1026 988 
3 1340 1374 1304 
3 1374 1375 1304 
3 1341 1304 1375 
3 1305 1304 1341 
3 1265 1304 1305 
3 1265 1266 1172 
3 1209 1172 1266 
3 1266 1267 1209 
3 1236 1209 1267 
3 1030 847 1064 
3 1064 1065 1030 
3 777 1064 847 
3 777 822 1064 
3 1264 1303 1100 
3 1303 1304 1100 
3 1263 1235 1299 
3 1137 1235 1263 
3 1099 1137 1263 
3 1100 1099 1263 
3 1263 1264 1100 
3 1175 1213 1214 
3 1607 1625 1591 
3 1625 1626 1591 
3 1592 1591 1626 
3 1583 1591 1592 
3 46 71 47 
3 71 99 47 
3 1437 1465 1347 
3 1316 1272 1347 
3 1409 1436 1410 
3 1436 1462 1410 
3 1462 1461 1492 
3 1436 1461 1462 
3 1411 1410 1462 
3 912 1000 932 
3 1000 1001 932 
3 933 932 1001 
3 890 911 891 
3 911 912 891 
3 911 931 912 
3 1630 1648 1595 
3 1770 1764 1795 
3 1754 1764 1770 
3 1715 1764 1754 
3 1744 1758 1728 
3 1758 1764 1728 
3 1715 1728 1764 
3 1716 1731 1693 
3 1297 1298 1235 
3 1298 1299 1235 
3 1299 1300 1263 
3 1759 1777 1760 
3 1761 1760 1783 
3 1783 1784 1761 
3 1751 1752 1738 
3 1739 1738 1752 
3 1752 1753 1739 
3 1723 1739 1753 
3 1723 1753 1742 
3 1755 1754 1770 
3 1729 1754 1755 
3 1715 1754 1729 
3 1745 1729 1755 
3 1652 1682 1735 
3 1303 1302 1338 
3 1264 1302 1303 
3 1338 1339 1303 
3 1970 1986 1971 
3 1986 1987 1971 
3 1373 1405 1340 
3 1374 1340 1405 
3 1405 1406 1374 
3 1974 1991 1876 
3 1991 1992 1876 
3 1924 1876 1992 
3 1992 1993 1924 
3 1995 1996 1925 
3 1816 1927 1817 
3 504 529 486 
3 505 486 529 
3 529 530 505 
3 1031 1070 991 
3 1032 991 1070 
3 1070 1071 1032 
3 684 683 695 
3 685 684 695 
3 823 833 632 
3 682 632 833 
3 833 849 682 
3 886 887 833 
3 682 683 661 
3 770 682 849 
3 435 463 436 
3 463 507 436 
3 373 435 436 
3 620 341 799 
3 432 341 620 
3 738 620 806 
3 645 620 738 
3 799 806 620 
3 209 231 232 
3 363 362 395 
3 230 255 231 
3 1275 1381 1276 
3 1381 1415 1276 
3 1277 1276 1415 
3 287 316 288 
3 316 341 288 
3 875 896 854 
3 896 914 854 
3 876 854 897 
3 855 854 876 
3 1065 1103 1030 
3 1103 1104 1030 
3 1424 1451 1425 
3 1451 1478 1425 
3 1425 1478 1452 
3 1478 1479 1452 
3 39 40 22 
3 23 22 40 
3 3 22 23 
3 4 3 23 
3 1381 1466 1440 
3 1466 1467 1440 
3 1414 1466 1381 
3 1415 1381 1440 
3 1529 1530 1489 
3 1454 1482 1428 
3 1455 1428 1482 
3 1482 1483 1455 
3 1838 1856 1822 
3 1839 1822 1857 
3 1685 1684 1695 
3 1671 1684 1685 
3 511 535 512 
3 535 569 512 
3 512 569 536 
3 569 570 536 
3 1674 1686 1675 
3 1568 1582 1556 
3 1556 1582 1569 
3 1582 1583 1569 
3 1280 1279 1349 
3 1281 1280 1349 
3 1248 1187 1519 
3 1187 1186 1519 
3 1152 1186 1187 
3 1151 1186 1152 
3 1153 1152 1187 
3 1342 1377 1343 
3 1377 1410 1343 
3 1410 1411 1343 
3 1344 1343 1411 
3 1705 1706 1690 
3 1691 1690 1706 
3 1704 1705 1689 
3 1690 1689 1705 
3 1703 1704 1688 
3 1689 1688 1704 
3 782 794 776 
3 17 82 57 
3 82 108 57 
3 899 898 915 
3 879 898 899 
3 898 935 915 
3 935 936 915 
3 936 935 966 
3 423 392 453 
3 453 454 423 
3 1974 1949 1990 
3 72 157 73 
3 127 73 157 
3 157 185 127 
3 126 157 72 
3 100 73 127 
3 74 73 100 
3 185 213 127 
3 186 127 213 
3 158 127 186 
3 483 482 501 
3 456 482 483 
3 456 426 482 
3 671 672 617 
3 672 673 643 
3 1304 1303 1340 
3 1339 1373 1303 
3 1340 1303 1373 
3 1372 1403 1373 
3 1403 1404 1373 
3 1339 1372 1373 
3 1171 1208 1136 
3 1208 1235 1136 
3 1137 1136 1235 
3 1135 1171 1136 
3 1296 1297 1234 
3 1235 1234 1297 
3 1297 1296 1332 
3 1801 1824 1802 
3 1824 1825 1802 
3 1841 1842 1824 
3 1825 1824 1842 
3 1842 1841 1862 
3 1862 1861 1885 
3 1841 1861 1862 
3 1018 1051 1019 
3 1051 1088 1019 
3 1019 1088 1052 
3 1088 1089 1052 
3 1602 1601 1617 
3 1577 1601 1602 
3 1617 1618 1602 
3 1486 1487 1457 
3 1039 1115 1076 
3 489 564 508 
3 564 565 508 
3 565 564 594 
3 441 467 442 
3 467 489 442 
3 442 489 468 
3 489 490 468 
3 53 33 77 
3 334 313 364 
3 314 313 334 
3 364 365 334 
3 1759 1751 1769 
3 1752 1751 1759 
3 1753 1752 1759 
3 585 612 586 
3 612 638 586 
3 586 638 613 
3 638 639 613 
3 1640 1687 1698 
3 1662 1687 1620 
3 1640 1620 1687 
3 1620 1621 1589 
3 1590 1589 1621 
3 1640 1698 1622 
3 1127 1162 1090 
3 1090 1162 1128 
3 1162 1163 1128 
3 628 627 655 
3 1564 1575 1565 
3 1023 1057 987 
3 1057 1058 987 
3 1024 987 1058 
3 1645 1604 1666 
3 1308 1344 1309 
3 1344 1378 1309 
3 1378 1379 1309 
3 1310 1309 1379 
3 1311 1310 1379 
3 1345 1311 1379 
3 611 637 612 
3 637 663 612 
3 612 663 638 
3 663 664 638 
3 1714 1728 1715 
3 1708 1714 1715 
3 921 985 951 
3 985 986 951 
3 950 984 921 
3 984 985 921 
3 1266 1265 1308 
3 1308 1309 1266 
3 818 817 864 
3 864 865 818 
3 819 818 865 
3 1576 1577 1549 
3 1550 1549 1577 
3 1063 1098 1029 
3 989 1063 990 
3 1029 990 1063 
3 1351 1417 1352 
3 1384 1352 1417 
3 1044 1043 1117 
3 1008 1043 1044 
3 1077 1117 1043 
3 1117 1118 1044 
3 1118 1117 1152 
3 309 308 359 
3 140 168 141 
3 168 199 141 
3 169 141 199 
3 139 197 168 
3 197 198 168 
3 138 197 139 
3 223 222 248 
3 197 222 223 
3 198 197 223 
3 1313 1380 1314 
3 1380 1412 1314 
3 885 954 904 
3 923 904 954 
3 954 847 991 
3 38 65 39 
3 65 66 39 
3 22 38 39 
3 40 41 23 
3 1792 1791 1807 
3 1780 1791 1792 
3 1773 1780 1792 
3 1791 1806 1807 
3 1814 1813 1854 
3 1652 1670 1653 
3 1735 1736 1652 
3 1670 1652 1736 
3 1633 1682 1651 
3 1631 1650 1598 
3 1612 1598 1650 
3 770 788 771 
3 988 1133 1028 
3 1061 1028 1133 
3 1026 1027 988 
3 1027 1060 988 
3 1060 1133 988 
3 1312 1345 1313 
3 1345 1380 1313 
3 1815 1814 1854 
3 1816 1815 1854 
3 1926 1927 1816 
3 1933 1932 1955 
3 1906 1932 1933 
3 1962 1980 1963 
3 1980 1981 1963 
3 207 231 208 
3 209 208 231 
3 289 319 320 
3 321 346 291 
3 322 291 346 
3 346 347 322 
3 752 753 748 
3 752 764 753 
3 764 765 753 
3 1663 1622 1698 
3 1663 1664 1623 
3 1549 1550 1516 
3 1517 1516 1550 
3 1497 1516 1517 
3 1517 1518 1497 
3 1551 1552 1519 
3 1192 1254 1224 
3 1281 1382 1254 
3 1253 1281 1254 
3 1193 1192 1224 
3 1114 1074 1147 
3 1075 1074 1114 
3 908 930 909 
3 958 995 959 
3 995 996 959 
3 996 995 1037 
3 155 124 181 
3 181 182 155 
3 317 433 318 
3 562 646 563 
3 574 575 518 
3 519 518 575 
3 541 519 575 
3 575 576 541 
3 545 546 522 
3 581 545 609 
3 546 545 581 
3 1909 1908 1934 
3 1884 1908 1909 
3 1976 1977 1957 
3 1886 1909 1910 
3 1885 1909 1886 
3 1528 1543 1510 
3 1511 1510 1543 
3 1543 1558 1511 
3 1559 1558 1571 
3 1511 1558 1559 
3 1608 1609 1593 
3 1095 1132 1096 
3 1132 1167 1096 
3 1059 1096 1060 
3 1201 1202 1167 
3 1261 1262 1203 
3 1204 1203 1262 
3 1206 1207 1133 
3 1061 1133 1207 
3 1168 1205 1133 
3 1205 1206 1133 
3 1766 1772 1767 
3 1722 1739 1723 
3 1724 1723 1742 
3 1725 1724 1742 
3 1726 1725 1743 
3 1712 1725 1726 
3 1793 1809 1810 
3 143 170 18 
3 279 278 312 
3 311 312 278 
3 312 313 279 
3 138 139 84 
3 85 84 139 
3 139 140 85 
3 86 85 140 
3 849 850 770 
3 869 870 850 
3 834 770 850 
3 1439 1466 1414 
3 1466 1439 1536 
3 1466 1537 1467 
3 1537 1564 1565 
3 1536 1564 1466 
3 1537 1466 1564 
3 1536 1548 1564 
3 1439 1438 1536 
3 1488 1512 1529 
3 636 662 637 
3 662 685 637 
3 637 685 663 
3 685 686 663 
3 543 579 455 
3 543 632 579 
3 632 682 579 
3 906 905 927 
3 886 905 906 
3 927 928 906 
3 521 455 579 
3 887 886 906 
3 866 886 848 
3 833 848 886 
3 823 758 847 
3 250 251 224 
3 687 696 688 
3 696 697 688 
3 705 696 713 
3 697 696 705 
3 1067 1068 1031 
3 1749 1766 1750 
3 1766 1767 1750 
3 1218 1243 1219 
3 1243 1273 1219 
3 894 933 934 
3 1687 1662 1697 
3 1180 1218 1181 
3 1218 1219 1181 
3 1535 1534 1546 
3 1465 1534 1535 
3 757 740 783 
3 783 784 757 
3 645 738 646 
3 738 739 646 
3 0 19 1 
3 19 20 1 
3 332 425 481 
3 277 425 332 
3 87 277 332 
3 423 454 424 
3 454 480 424 
3 425 424 480 
3 205 230 206 
3 230 231 206 
3 595 621 596 
3 621 649 596 
3 649 650 596 
3 597 596 650 
3 650 675 622 
3 651 622 675 
3 597 650 622 
3 1509 1528 1510 
3 419 449 420 
3 449 450 420 
3 496 497 449 
3 1003 1004 937 
3 1582 1591 1583 
3 349 350 298 
3 299 298 350 
3 326 299 350 
3 350 351 326 
3 861 860 881 
3 841 860 861 
3 880 899 881 
3 860 880 881 
3 149 179 150 
3 179 210 150 
3 1798 1819 1820 
3 299 300 267 
3 689 697 690 
3 697 706 690 
3 690 706 698 
3 706 707 698 
3 1617 1637 1618 
3 1637 1658 1618 
3 1618 1658 1638 
3 1658 1659 1638 
3 1526 1542 1527 
3 398 427 399 
3 427 458 399 
3 399 458 428 
3 458 459 428 
3 1519 1518 1551 
3 1248 1249 1189 
3 1821 1838 1822 
3 1930 1952 1931 
3 1952 1953 1931 
3 324 380 348 
3 380 381 348 
3 41 42 23 
3 430 429 461 
3 402 429 430 
3 401 429 402 
3 429 460 461 
3 1990 1991 1974 
3 467 466 564 
3 440 466 467 
3 439 466 440 
3 488 564 466 
3 489 467 564 
3 870 869 893 
3 893 932 933 
3 913 893 933 
3 871 893 872 
3 893 913 872 
3 894 872 913 
3 394 425 361 
3 277 361 425 
3 309 359 331 
3 359 360 331 
3 906 907 887 
3 907 906 929 
3 305 330 306 
3 330 357 306 
3 357 358 306 
3 307 306 358 
3 1349 1382 1281 
3 1301 1337 1302 
3 1337 1370 1302 
3 1302 1370 1338 
3 1370 1371 1338 
3 1267 1268 1236 
3 1293 1294 1231 
3 1232 1231 1294 
3 1101 1102 1065 
3 224 282 250 
3 282 283 250 
3 1874 1899 1875 
3 1899 1923 1875 
3 1900 1875 1923 
3 702 703 676 
3 677 676 703 
3 1726 1743 1727 
3 1890 1913 1891 
3 1605 1645 1606 
3 1624 1606 1645 
3 1645 1667 1624 
3 580 609 545 
3 1009 1044 1010 
3 924 958 925 
3 958 959 925 
3 905 866 925 
3 886 866 905 
3 720 727 721 
3 727 728 721 
3 727 736 728 
3 736 737 728 
3 1911 1936 1888 
3 1120 1119 1188 
3 1546 1547 1535 
3 557 590 558 
3 590 617 558 
3 558 617 591 
3 649 694 675 
3 694 740 675 
3 648 694 649 
3 650 649 675 
3 648 647 694 
3 564 647 648 
3 177 209 232 
3 1350 1383 1351 
3 1383 1417 1351 
3 89 88 111 
3 89 113 90 
3 113 114 90 
3 60 19 90 
3 20 19 60 
3 60 61 20 
3 1 20 61 
3 61 60 92 
3 2 1 61 
3 2 61 62 
3 21 2 62 
3 1179 1241 1216 
3 1241 1242 1216 
3 1144 1179 1145 
3 1104 1142 1105 
3 1142 1178 1105 
3 1105 1178 1143 
3 1746 1745 1756 
3 1748 1747 1757 
3 102 129 103 
3 129 160 103 
3 104 103 160 
3 160 188 104 
3 188 189 104 
3 161 104 189 
3 130 104 161 
3 662 635 683 
3 683 684 662 
3 546 581 547 
3 581 582 547 
3 1769 1776 1759 
3 1776 1777 1759 
3 1711 1722 1703 
3 1722 1723 1703 
3 1704 1703 1723 
3 1779 1780 1718 
3 1773 1718 1780 
3 1605 1604 1645 
3 805 816 798 
3 525 555 526 
3 555 589 526 
3 556 526 589 
3 1360 1361 1330 
3 1260 1261 1202 
3 1203 1202 1261 
3 1201 1230 1202 
3 1230 1260 1202 
3 214 213 237 
3 186 213 214 
3 248 249 223 
3 517 540 518 
3 540 574 518 
3 1815 1816 1783 
3 1784 1783 1816 
3 1532 1545 1562 
3 1533 1532 1562 
3 1515 1532 1533 
3 406 437 407 
3 437 465 407 
3 407 465 438 
3 405 373 436 
3 1418 1384 1443 
3 1829 1830 1808 
3 1613 1633 1599 
3 660 680 681 
3 1797 1819 1798 
3 1819 1796 1835 
3 79 80 55 
3 1756 1765 1747 
3 1757 1747 1765 
3 1747 1746 1756 
3 13 34 14 
3 34 54 14 
3 1238 1271 1211 
3 1062 1063 989 
3 935 897 965 
3 964 1002 965 
3 759 743 770 
3 800 770 834 
3 788 770 800 
3 343 344 319 
3 1210 1238 1211 
3 86 140 109 
3 140 141 109 
3 834 835 800 
3 1150 1186 1151 
3 189 190 161 
3 56 55 81 
3 36 55 56 
3 80 106 81 
3 106 107 81 
3 55 80 81 
3 35 55 36 
3 261 292 239 
3 292 293 239 
3 262 239 293 
3 293 294 262 
3 435 434 463 
3 594 564 648 
3 621 594 648 
3 938 972 939 
3 972 973 939 
3 1042 1077 1043 
3 1117 1116 1150 
3 1077 1116 1117 
3 1971 1972 1948 
3 1900 1948 1972 
3 1972 1973 1900 
3 1949 1900 1973 
3 1742 1743 1725 
3 1698 1701 1663 
3 57 58 17 
3 58 59 17 
3 111 145 112 
3 801 811 812 
3 1032 1071 1033 
3 1071 1112 1033 
3 786 787 769 
3 1075 1114 1003 
3 1058 1094 1024 
3 1094 1095 1024 
3 1025 1024 1095 
3 1095 1096 1025 
3 1059 1025 1096 
3 1026 1025 1059 
3 1375 1376 1341 
3 1245 1244 1276 
3 1275 1276 1244 
3 1247 1246 1277 
3 141 169 109 
3 1919 1944 1920 
3 1944 1966 1920 
3 1920 1966 1945 
3 1966 1967 1945 
3 137 167 138 
3 167 197 138 
3 1627 1609 1668 
3 1668 1669 1627 
3 1344 1411 1378 
3 458 485 459 
3 485 504 459 
3 459 504 486 
3 589 616 556 
3 556 616 590 
3 1656 1684 1671 
3 195 221 196 
3 221 246 196 
3 196 246 222 
3 246 247 222 
3 536 570 537 
3 570 601 537 
3 601 602 537 
3 62 63 21 
3 38 21 63 
3 63 64 38 
3 228 288 255 
3 254 288 227 
3 228 227 288 
3 809 800 835 
3 835 836 809 
3 836 835 853 
3 835 852 853 
3 77 103 53 
3 53 103 78 
3 103 104 78 
3 839 840 827 
3 839 826 858 
3 857 858 826 
3 858 859 839 
3 726 730 735 
3 735 736 727 
3 727 726 735 
3 1246 1245 1277 
3 1220 1245 1246 
3 1276 1277 1245 
3 1489 1488 1529 
3 1487 1512 1488 
3 901 918 902 
3 918 947 902 
3 902 947 919 
3 947 948 919 
3 631 660 681 
3 578 631 681 
3 1103 1141 1104 
3 1141 1142 1104 
3 1781 1773 1792 
3 501 502 483 
3 533 508 565 
3 565 566 533 
3 594 595 565 
3 1369 1401 1370 
3 1401 1430 1370 
3 1370 1430 1402 
3 873 894 874 
3 894 895 874 
3 913 933 894 
3 475 496 449 
3 1150 1151 1117 
3 1398 1427 1399 
3 1427 1454 1399 
3 1399 1454 1428 
3 81 107 82 
3 107 133 82 
3 82 133 108 
3 133 134 108 
3 1933 1955 1934 
3 1889 1888 1912 
3 1864 1888 1889 
3 1863 1888 1864 
3 1880 1905 1881 
3 1905 1932 1881 
3 1881 1932 1906 
3 1858 1881 1859 
3 1881 1906 1859 
3 1859 1906 1882 
3 1906 1907 1882 
3 1723 1724 1704 
3 1705 1704 1724 
3 1724 1725 1705 
3 1706 1705 1725 
3 1706 1725 1712 
3 10 32 11 
3 4 25 5 
3 25 26 5 
3 703 704 677 
3 678 677 704 
3 1759 1760 1753 
3 1643 1665 1644 
3 1665 1677 1644 
3 1498 1520 1499 
3 1789 1805 1790 
3 1779 1789 1790 
3 1844 1865 1845 
3 1865 1866 1845 
3 1827 1844 1845 
3 1492 1493 1462 
3 521 579 544 
3 579 580 544 
3 544 580 545 
3 615 642 616 
3 642 669 616 
3 774 781 775 
3 781 793 775 
3 775 793 782 
3 793 794 782 
3 840 860 841 
3 1290 1325 1291 
3 1325 1355 1291 
3 1291 1355 1326 
3 1355 1356 1326 
3 1284 1320 1285 
3 1320 1350 1285 
3 1285 1350 1321 
3 1350 1351 1321 
3 1300 1301 1263 
3 878 898 879 
3 853 875 854 
3 808 807 832 
3 817 808 832 
3 353 386 354 
3 386 417 354 
3 970 1012 971 
3 1152 1153 1118 
3 1332 1333 1297 
3 962 998 963 
3 1156 1155 1189 
3 1121 1155 1156 
3 1249 1250 1189 
3 1661 1676 1662 
3 884 922 864 
3 783 807 784 
3 807 808 784 
3 64 94 65 
3 122 153 154 
3 152 180 153 
3 176 209 177 
3 178 177 232 
3 162 191 163 
3 191 192 163 
3 241 242 191 
3 259 290 260 
3 290 321 260 
3 260 321 291 
3 297 325 298 
3 325 349 298 
3 888 887 908 
3 952 953 883 
3 922 883 953 
3 884 883 922 
3 770 771 759 
3 311 333 312 
3 42 69 43 
3 69 97 43 
3 70 43 97 
3 71 70 98 
3 45 70 71 
3 98 70 124 
3 70 123 124 
3 97 123 70 
3 1413 1438 1439 
3 1305 1306 1265 
3 1306 1307 1265 
3 1252 1281 1253 
3 1885 1886 1862 
3 1787 1788 1779 
3 1788 1789 1779 
3 1719 1720 1701 
3 1698 1718 1701 
3 1718 1719 1701 
3 1713 1727 1707 
3 208 209 176 
3 90 91 60 
3 1833 1853 1834 
3 1853 1875 1834 
3 758 777 847 
3 1009 1010 968 
3 562 620 645 
3 954 955 923 
3 992 954 1034 
3 955 954 992 
3 1033 1034 954 
3 1034 1035 992 
3 991 1032 954 
3 1032 1033 954 
3 1611 1610 1628 
3 1628 1629 1611 
3 1823 1824 1801 
3 1801 1802 1786 
3 953 990 922 
3 713 714 705 
3 608 631 578 
3 655 656 628 
3 603 628 604 
3 628 657 604 
3 604 657 629 
3 657 658 629 
3 725 730 726 
3 412 443 413 
3 443 469 413 
3 413 469 444 
3 469 470 444 
3 1923 1948 1900 
3 237 238 214 
3 214 238 215 
3 238 260 215 
3 190 218 191 
3 218 241 191 
3 300 326 301 
3 326 352 301 
3 301 352 327 
3 352 353 327 
3 113 146 114 
3 146 173 114 
3 114 173 147 
3 173 174 147 
3 115 147 116 
3 147 175 116 
3 111 112 89 
3 1672 1685 1673 
3 1685 1696 1673 
3 1673 1696 1686 
3 1388 1420 1389 
3 1420 1446 1389 
3 1389 1446 1421 
3 1446 1447 1421 
3 1390 1421 1391 
3 1421 1448 1391 
3 1391 1448 1422 
3 1448 1449 1422 
3 496 516 497 
3 516 539 497 
3 497 539 517 
3 539 540 517 
3 471 511 492 
3 511 512 492 
3 1479 1524 1504 
3 1490 1513 1491 
3 1513 1531 1491 
3 1883 1908 1884 
3 23 24 4 
3 1860 1883 1840 
3 1840 1883 1861 
3 1883 1884 1861 
3 1846 1867 1847 
3 1867 1892 1847 
3 1847 1892 1868 
3 1892 1893 1868 
3 1830 1850 1831 
3 1850 1872 1831 
3 1831 1872 1851 
3 1872 1873 1851 
3 1851 1873 1852 
3 1873 1898 1852 
3 1852 1898 1874 
3 1898 1899 1874 
3 1810 1833 1811 
3 1833 1834 1811 
3 121 153 122 
3 44 70 45 
3 225 253 200 
3 917 918 901 
3 824 837 825 
3 837 855 825 
3 825 855 838 
3 855 856 838 
3 838 857 826 
3 1007 1043 1008 
3 924 923 956 
3 904 923 924 
3 956 957 924 
3 925 926 905 
3 908 909 888 
3 1068 1069 1031 
3 907 929 930 
3 1160 1161 1127 
3 1816 1817 1784 
3 1817 1818 1794 
3 1780 1779 1790 
3 1790 1791 1780 
3 1722 1711 1738 
3 1738 1739 1722 
3 1658 1673 1659 
3 1673 1674 1659 
3 1638 1639 1619 
3 1576 1587 1577 
3 1587 1601 1577 
3 1330 1362 1295 
3 1295 1362 1331 
3 1362 1363 1331 
3 1174 1213 1175 
3 1258 1287 1229 
3 1259 1229 1287 
3 1287 1288 1259 
3 1199 1258 1229 
3 1120 1188 1155 
3 1163 1196 1164 
3 1196 1227 1164 
3 1164 1227 1197 
3 1227 1228 1197 
3 1006 1007 967 
3 1006 1005 1040 
3 1040 1041 1006 
3 1006 1042 1007 
3 1042 1043 1007 
3 580 579 633 
3 645 646 562 
3 809 836 824 
3 836 837 824 
3 942 943 916 
3 254 287 288 
3 226 254 227 
3 229 255 230 
3 1173 1174 1138 
3 1211 1212 1173 
3 333 278 362 
3 311 278 333 
3 362 363 333 
3 997 1038 998 
3 992 1036 993 
3 1035 1036 992 
3 986 1023 987 
3 1022 1023 986 
3 985 1022 986 
3 1021 1022 985 
3 984 1021 985 
3 1020 1021 984 
3 983 1020 984 
3 980 1019 981 
3 1018 1019 980 
3 1016 1017 979 
3 978 1016 979 
3 976 1015 977 
3 974 1014 975 
3 1013 1014 974 
3 973 1013 974 
3 969 1012 970 
3 1011 1012 969 
3 968 1011 969 
3 1010 1011 968 
3 1007 1008 967 
3 1666 1667 1645 
3 1642 1665 1643 
3 1660 1661 1639 
3 1638 1660 1639 
3 1659 1660 1638 
3 1657 1658 1637 
3 1636 1657 1637 
3 1656 1657 1636 
3 1635 1656 1636 
3 1655 1656 1635 
3 1775 1776 1769 
3 1768 1775 1769 
3 1874 1875 1853 
3 1852 1874 1853 
3 1871 1872 1850 
3 1849 1871 1850 
3 1870 1871 1849 
3 1848 1870 1849 
3 1869 1870 1848 
3 1845 1867 1846 
3 1866 1867 1845 
3 1864 1865 1844 
3 1843 1864 1844 
3 1863 1864 1843 
3 1840 1861 1841 
3 1857 1858 1839 
3 1947 1948 1923 
3 1922 1947 1923 
3 1946 1947 1922 
3 1921 1946 1922 
3 1945 1946 1921 
3 1920 1945 1921 
3 1918 1944 1919 
3 1943 1944 1918 
3 1917 1943 1918 
3 1942 1943 1917 
3 1916 1942 1917 
3 1941 1942 1916 
3 1915 1941 1916 
3 1940 1941 1915 
3 1914 1940 1915 
3 1939 1940 1914 
3 1912 1938 1913 
3 1937 1938 1912 
3 1935 1936 1911 
3 1910 1935 1911 
3 1907 1934 1908 
3 1933 1934 1907 
3 1906 1933 1907 
3 1988 1989 1973 
3 1972 1988 1973 
3 1987 1988 1972 
3 1971 1987 1972 
3 1969 1986 1970 
3 1985 1986 1969 
3 1968 1985 1969 
3 1984 1985 1968 
3 1967 1984 1968 
3 1981 1982 1964 
3 1963 1981 1964 
3 1961 1980 1962 
3 1978 1979 1958 
3 1957 1978 1958 
3 1977 1978 1957 
3 1970 1971 1948 
3 1947 1970 1948 
3 1969 1970 1947 
3 1946 1969 1947 
3 1968 1969 1946 
3 1945 1968 1946 
3 1967 1968 1945 
3 1965 1966 1944 
3 1943 1965 1944 
3 1940 1964 1941 
3 1963 1964 1940 
3 1939 1963 1940 
3 1962 1963 1939 
3 1960 1961 1938 
3 1937 1960 1938 
3 1959 1960 1937 
3 1935 1958 1936 
3 1957 1958 1935 
3 1953 1954 1931 
3 1951 1952 1930 
3 1922 1923 1899 
3 1898 1922 1899 
3 1921 1922 1898 
3 1897 1921 1898 
3 1920 1921 1897 
3 1896 1920 1897 
3 1919 1920 1896 
3 1917 1918 1895 
3 1894 1917 1895 
3 1916 1917 1894 
3 1893 1916 1894 
3 1915 1916 1893 
3 1892 1915 1893 
3 1914 1915 1892 
3 1891 1914 1892 
3 1889 1913 1890 
3 1912 1913 1889 
3 1910 1911 1887 
3 1886 1910 1887 
3 1884 1909 1885 
3 1882 1908 1883 
3 1907 1908 1882 
3 1897 1898 1873 
3 1872 1897 1873 
3 1896 1897 1872 
3 1871 1896 1872 
3 1869 1895 1870 
3 1894 1895 1869 
3 1868 1894 1869 
3 1893 1894 1868 
3 1891 1892 1867 
3 1866 1891 1867 
3 1890 1891 1866 
3 1865 1890 1866 
3 1889 1890 1865 
3 1864 1889 1865 
3 1886 1887 1862 
3 1884 1885 1861 
3 1882 1883 1860 
3 1859 1882 1860 
3 1857 1881 1858 
3 1880 1881 1857 
3 1790 1806 1791 
3 1788 1805 1789 
3 1802 1803 1786 
3 1832 1833 1810 
3 1808 1831 1809 
3 1830 1831 1808 
3 1829 1850 1830 
3 1849 1850 1829 
3 1828 1849 1829 
3 1848 1849 1828 
3 1823 1841 1824 
3 1840 1841 1823 
3 1832 1853 1833 
3 1852 1853 1832 
3 1796 1819 1797 
3 1802 1825 1803 
3 1781 1782 1774 
3 1773 1781 1774 
3 1732 1733 1717 
3 1726 1727 1713 
3 1712 1726 1713 
3 1689 1690 1679 
3 1678 1689 1679 
3 1688 1689 1678 
3 1673 1686 1674 
3 1671 1685 1672 
3 1695 1696 1685 
3 1660 1676 1661 
3 1675 1676 1660 
3 1659 1675 1660 
3 1674 1675 1659 
3 1672 1673 1658 
3 1657 1672 1658 
3 1671 1672 1657 
3 1656 1671 1657 
3 1408 1436 1409 
3 1435 1436 1408 
3 1436 1435 1461 
3 1460 1461 1435 
3 1434 1460 1435 
3 1431 1459 1432 
3 1458 1459 1431 
3 1429 1456 1430 
3 1455 1456 1429 
3 1428 1455 1429 
3 1452 1453 1426 
3 1425 1452 1426 
3 1423 1451 1424 
3 1450 1451 1423 
3 1422 1450 1423 
3 1449 1450 1422 
3 1447 1448 1421 
3 1445 1446 1420 
3 1419 1445 1420 
3 1444 1445 1419 
3 1569 1570 1557 
3 1556 1569 1557 
3 1567 1568 1555 
3 1554 1567 1555 
3 1566 1567 1554 
3 1553 1566 1554 
3 1600 1601 1587 
3 1646 1647 1626 
3 1625 1646 1626 
3 1620 1640 1621 
3 1616 1637 1617 
3 1636 1637 1616 
3 1615 1636 1616 
3 1635 1636 1615 
3 1649 1650 1631 
3 1624 1625 1607 
3 1606 1624 1607 
3 1616 1617 1601 
3 1600 1616 1601 
3 1615 1616 1600 
3 1569 1584 1570 
3 1583 1584 1569 
3 1581 1582 1568 
3 1567 1581 1568 
3 1580 1581 1567 
3 1566 1580 1567 
3 1583 1592 1584 
3 1581 1591 1582 
3 1508 1528 1509 
3 1506 1527 1507 
3 1526 1527 1506 
3 1505 1526 1506 
3 1525 1526 1505 
3 1504 1525 1505 
3 1522 1523 1503 
3 1502 1522 1503 
3 1521 1522 1502 
3 1501 1521 1502 
3 1525 1542 1526 
3 1541 1542 1525 
3 1522 1540 1523 
3 1539 1540 1522 
3 1521 1539 1522 
3 1538 1539 1521 
3 1541 1557 1542 
3 1556 1557 1541 
3 1554 1555 1540 
3 1539 1554 1540 
3 1553 1554 1539 
3 1538 1553 1539 
3 1493 1494 1462 
3 1491 1492 1461 
3 1460 1491 1461 
3 1490 1491 1460 
3 1458 1489 1459 
3 1488 1489 1458 
3 1457 1488 1458 
3 1487 1488 1457 
3 1484 1485 1456 
3 1455 1484 1456 
3 1483 1484 1455 
3 1481 1482 1454 
3 1452 1480 1453 
3 1479 1480 1452 
3 1477 1478 1451 
3 1450 1477 1451 
3 1476 1477 1450 
3 1449 1476 1450 
3 1475 1476 1449 
3 1448 1475 1449 
3 1474 1475 1448 
3 1447 1474 1448 
3 1473 1474 1447 
3 1446 1473 1447 
3 1472 1473 1446 
3 1445 1472 1446 
3 1471 1472 1445 
3 1444 1471 1445 
3 1470 1471 1444 
3 1486 1512 1487 
3 1511 1512 1486 
3 1485 1511 1486 
3 1510 1511 1485 
3 1484 1510 1485 
3 1509 1510 1484 
3 1483 1509 1484 
3 1508 1509 1483 
3 1482 1508 1483 
3 1507 1508 1482 
3 1481 1507 1482 
3 1506 1507 1481 
3 1504 1505 1480 
3 1479 1504 1480 
3 1476 1503 1477 
3 1502 1503 1476 
3 1475 1502 1476 
3 1501 1502 1475 
3 1474 1501 1475 
3 1500 1501 1474 
3 1473 1500 1474 
3 1498 1499 1468 
3 1217 1243 1218 
3 1214 1240 1215 
3 1212 1239 1213 
3 1237 1238 1210 
3 1209 1237 1210 
3 1236 1237 1209 
3 1234 1235 1208 
3 1232 1233 1207 
3 1206 1232 1207 
3 1231 1232 1206 
3 1205 1231 1206 
3 1200 1230 1201 
3 1229 1230 1200 
3 1199 1229 1200 
3 1227 1257 1228 
3 1256 1257 1227 
3 1226 1256 1227 
3 1255 1256 1226 
3 1225 1255 1226 
3 1251 1252 1223 
3 1311 1345 1312 
3 1307 1344 1308 
3 1343 1344 1307 
3 1306 1343 1307 
3 1342 1343 1306 
3 1305 1342 1306 
3 1341 1342 1305 
3 1300 1337 1301 
3 1336 1337 1300 
3 1299 1336 1300 
3 1335 1336 1299 
3 1298 1335 1299 
3 1334 1335 1298 
3 1297 1334 1298 
3 1333 1334 1297 
3 1331 1332 1296 
3 1332 1331 1364 
3 1363 1364 1331 
3 1361 1362 1330 
3 1359 1360 1329 
3 1328 1359 1329 
3 1358 1359 1328 
3 1327 1358 1328 
3 1357 1358 1327 
3 1326 1357 1327 
3 1356 1357 1326 
3 1323 1354 1324 
3 1353 1354 1323 
3 1322 1353 1323 
3 1352 1353 1322 
3 1321 1352 1322 
3 1351 1352 1321 
3 1409 1410 1377 
3 1376 1409 1377 
3 1408 1409 1376 
3 1375 1408 1376 
3 1407 1408 1375 
3 1374 1407 1375 
3 1406 1407 1374 
3 1404 1405 1373 
3 1370 1402 1371 
3 1368 1401 1369 
3 1400 1401 1368 
3 1367 1400 1368 
3 1399 1400 1367 
3 1366 1399 1367 
3 1398 1399 1366 
3 1365 1398 1366 
3 1397 1398 1365 
3 1364 1397 1365 
3 1396 1397 1364 
3 1363 1396 1364 
3 1395 1396 1363 
3 1362 1395 1363 
3 1394 1395 1362 
3 1361 1394 1362 
3 1393 1394 1361 
3 1360 1393 1361 
3 1392 1393 1360 
3 1359 1392 1360 
3 1391 1392 1359 
3 1358 1391 1359 
3 1390 1391 1358 
3 1357 1390 1358 
3 1389 1390 1357 
3 1356 1389 1357 
3 1388 1389 1356 
3 1355 1388 1356 
3 1387 1388 1355 
3 1385 1386 1354 
3 1353 1385 1354 
3 1384 1385 1353 
3 1352 1384 1353 
3 1407 1435 1408 
3 1434 1435 1407 
3 1406 1434 1407 
3 1433 1434 1406 
3 1405 1433 1406 
3 1432 1433 1405 
3 1404 1432 1405 
3 1431 1432 1404 
3 1403 1431 1404 
3 1429 1430 1401 
3 1400 1429 1401 
3 1428 1429 1400 
3 1399 1428 1400 
3 1397 1427 1398 
3 1395 1426 1396 
3 1425 1426 1395 
3 1394 1425 1395 
3 1424 1425 1394 
3 1393 1424 1394 
3 1423 1424 1393 
3 1392 1423 1393 
3 1422 1423 1392 
3 1391 1422 1392 
3 1389 1421 1390 
3 1387 1420 1388 
3 1419 1420 1387 
3 1386 1419 1387 
3 1384 1418 1385 
3 1416 1417 1383 
3 1341 1377 1342 
3 1376 1377 1341 
3 1338 1372 1339 
3 1371 1372 1338 
3 1369 1370 1337 
3 1336 1369 1337 
3 1368 1369 1336 
3 1335 1368 1336 
3 1367 1368 1335 
3 1334 1367 1335 
3 1366 1367 1334 
3 1333 1366 1334 
3 1365 1366 1333 
3 1332 1365 1333 
3 1364 1365 1332 
3 1270 1314 1271 
3 1313 1314 1270 
3 1269 1313 1270 
3 1312 1313 1269 
3 1268 1312 1269 
3 1311 1312 1268 
3 1267 1311 1268 
3 1310 1311 1267 
3 1266 1310 1267 
3 1309 1310 1266 
3 1307 1308 1265 
3 1263 1302 1264 
3 1301 1302 1263 
3 1291 1292 1262 
3 1261 1291 1262 
3 1290 1291 1261 
3 1260 1290 1261 
3 1289 1290 1260 
3 1259 1289 1260 
3 1288 1289 1259 
3 1286 1287 1258 
3 1284 1285 1257 
3 1256 1284 1257 
3 1283 1284 1256 
3 1255 1283 1256 
3 1282 1283 1255 
3 1251 1281 1252 
3 1280 1281 1251 
3 1295 1331 1296 
3 1328 1329 1294 
3 1293 1328 1294 
3 1327 1328 1293 
3 1292 1327 1293 
3 1326 1327 1292 
3 1291 1326 1292 
3 1289 1325 1290 
3 1324 1325 1289 
3 1288 1324 1289 
3 1323 1324 1288 
3 1287 1323 1288 
3 1322 1323 1287 
3 1286 1322 1287 
3 1321 1322 1286 
3 1285 1321 1286 
3 1283 1320 1284 
3 1241 1272 1242 
3 1270 1271 1238 
3 1237 1270 1238 
3 1269 1270 1237 
3 1236 1269 1237 
3 1268 1269 1236 
3 1259 1260 1230 
3 1229 1259 1230 
3 1109 1146 1110 
3 1145 1146 1109 
3 1108 1145 1109 
3 1144 1145 1108 
3 1107 1144 1108 
3 1105 1143 1106 
3 1140 1141 1103 
3 1102 1140 1103 
3 1139 1140 1102 
3 1101 1139 1102 
3 1138 1139 1101 
3 1136 1137 1098 
3 1097 1136 1098 
3 1135 1136 1097 
3 1094 1132 1095 
3 1131 1132 1094 
3 1093 1131 1094 
3 1130 1131 1093 
3 1092 1130 1093 
3 1129 1130 1092 
3 1091 1129 1092 
3 1128 1129 1091 
3 1090 1128 1091 
3 1125 1126 1089 
3 1088 1125 1089 
3 1124 1125 1088 
3 1087 1124 1088 
3 1123 1124 1087 
3 1086 1123 1087 
3 1121 1156 1122 
3 1153 1154 1118 
3 1151 1152 1117 
3 1149 1150 1116 
3 1217 1218 1180 
3 1214 1215 1176 
3 1175 1214 1176 
3 1173 1213 1174 
3 1212 1213 1173 
3 1209 1210 1172 
3 1170 1208 1171 
3 1204 1205 1168 
3 1200 1201 1167 
3 1198 1199 1166 
3 1165 1198 1166 
3 1197 1198 1165 
3 1164 1197 1165 
3 1162 1196 1163 
3 1195 1196 1162 
3 1161 1195 1162 
3 1194 1195 1161 
3 1160 1194 1161 
3 1193 1194 1160 
3 1159 1193 1160 
3 1192 1193 1159 
3 1158 1192 1159 
3 1153 1187 1154 
3 1149 1186 1150 
3 1185 1186 1149 
3 1182 1183 1148 
3 1226 1227 1196 
3 1195 1226 1196 
3 1225 1226 1195 
3 1194 1225 1195 
3 1224 1225 1194 
3 1193 1224 1194 
3 1177 1178 1142 
3 1141 1177 1142 
3 1139 1176 1140 
3 1175 1176 1139 
3 1138 1175 1139 
3 1174 1175 1138 
3 1169 1170 1134 
3 1130 1166 1131 
3 1165 1166 1130 
3 1129 1165 1130 
3 1164 1165 1129 
3 1128 1164 1129 
3 1163 1164 1128 
3 1161 1162 1127 
3 1159 1160 1126 
3 1125 1159 1126 
3 1158 1159 1125 
3 1124 1158 1125 
3 1035 1072 1036 
3 1069 1070 1031 
3 1097 1098 1063 
3 1062 1097 1063 
3 1093 1094 1058 
3 1057 1093 1058 
3 1092 1093 1057 
3 1056 1092 1057 
3 1091 1092 1056 
3 1055 1091 1056 
3 1090 1091 1055 
3 1054 1090 1055 
3 1087 1088 1051 
3 1050 1087 1051 
3 1086 1087 1050 
3 1049 1086 1050 
3 1085 1086 1049 
3 1048 1085 1049 
3 1084 1085 1048 
3 1082 1083 1047 
3 1046 1082 1047 
3 1081 1082 1046 
3 1045 1081 1046 
3 1080 1081 1045 
3 1041 1077 1042 
3 1039 1076 1040 
3 1111 1112 1071 
3 1070 1111 1071 
3 1110 1111 1070 
3 1069 1110 1070 
3 1109 1110 1069 
3 1068 1109 1069 
3 1108 1109 1068 
3 1067 1108 1068 
3 1107 1108 1067 
3 1066 1107 1067 
3 1106 1107 1066 
3 1102 1103 1065 
3 1079 1122 1080 
3 1121 1122 1079 
3 1119 1120 1078 
3 1026 1060 1027 
3 1059 1060 1026 
3 1056 1057 1023 
3 1022 1056 1023 
3 1055 1056 1022 
3 1021 1055 1022 
3 1054 1055 1021 
3 1020 1054 1021 
3 1053 1054 1020 
3 1017 1051 1018 
3 1050 1051 1017 
3 1016 1050 1017 
3 1049 1050 1016 
3 1046 1047 1014 
3 1013 1046 1014 
3 1045 1046 1013 
3 1008 1044 1009 
3 1041 1042 1006 
3 1039 1040 1005 
3 670 693 671 
3 692 693 670 
3 669 692 670 
3 667 691 668 
3 690 691 667 
3 666 690 667 
3 689 690 666 
3 665 689 666 
3 688 689 665 
3 664 688 665 
3 687 688 664 
3 663 687 664 
3 686 687 663 
3 684 685 662 
3 657 679 658 
3 655 678 656 
3 677 678 655 
3 654 677 655 
3 676 677 654 
3 653 676 654 
3 792 793 781 
3 780 792 781 
3 791 792 780 
3 779 791 780 
3 843 862 844 
3 841 861 842 
3 839 860 840 
3 859 860 839 
3 856 857 838 
3 854 855 837 
3 836 854 837 
3 853 854 836 
3 910 931 911 
3 907 930 908 
3 928 929 906 
3 926 927 905 
3 928 963 929 
3 962 963 928 
3 927 962 928 
3 961 962 927 
3 926 961 927 
3 960 961 926 
3 925 960 926 
3 959 960 925 
3 957 958 924 
3 955 956 923 
3 989 990 953 
3 952 989 953 
3 986 987 951 
3 983 984 950 
3 949 983 950 
3 982 983 949 
3 948 982 949 
3 981 982 948 
3 947 981 948 
3 980 981 947 
3 946 980 947 
3 944 979 945 
3 978 979 944 
3 943 978 944 
3 977 978 943 
3 942 977 943 
3 976 977 942 
3 941 976 942 
3 975 976 941 
3 940 975 941 
3 974 975 940 
3 939 974 940 
3 973 974 939 
3 971 972 938 
3 961 998 962 
3 997 998 961 
3 960 997 961 
3 996 997 960 
3 959 996 960 
3 957 995 958 
3 994 995 957 
3 956 994 957 
3 993 994 956 
3 955 993 956 
3 992 993 955 
3 920 950 921 
3 949 950 920 
3 919 949 920 
3 948 949 919 
3 946 947 918 
3 917 946 918 
3 945 946 917 
3 943 944 916 
3 879 899 880 
3 877 898 878 
3 872 894 873 
3 870 893 871 
3 891 892 868 
3 867 891 868 
3 890 891 867 
3 891 912 892 
3 889 911 890 
3 910 911 889 
3 888 910 889 
3 909 910 888 
3 907 908 887 
3 859 880 860 
3 879 880 859 
3 858 879 859 
3 878 879 858 
3 857 878 858 
3 877 878 857 
3 856 877 857 
3 876 877 856 
3 855 876 856 
3 872 873 851 
3 870 871 850 
3 867 868 849 
3 815 816 805 
3 804 815 805 
3 814 815 804 
3 803 814 804 
3 813 814 803 
3 802 813 803 
3 830 844 831 
3 843 844 830 
3 829 843 830 
3 842 843 829 
3 828 842 829 
3 841 842 828 
3 827 841 828 
3 840 841 827 
3 830 831 816 
3 815 830 816 
3 829 830 815 
3 814 829 815 
3 828 829 814 
3 813 828 814 
3 827 828 813 
3 810 825 811 
3 824 825 810 
3 809 824 810 
3 804 805 797 
3 802 803 796 
3 795 802 796 
3 793 798 794 
3 791 797 792 
3 754 767 755 
3 766 767 754 
3 753 766 754 
3 765 766 753 
3 763 764 752 
3 751 763 752 
3 762 763 751 
3 760 761 750 
3 766 776 767 
3 764 775 765 
3 774 775 764 
3 763 774 764 
3 773 774 763 
3 762 773 763 
3 772 773 762 
3 761 772 762 
3 773 781 774 
3 780 781 773 
3 772 780 773 
3 779 780 772 
3 735 749 736 
3 748 749 735 
3 733 747 734 
3 745 746 731 
3 754 755 749 
3 748 754 749 
3 753 754 748 
3 751 752 747 
3 711 722 712 
3 721 722 711 
3 719 720 710 
3 709 719 710 
3 718 719 709 
3 708 718 709 
3 717 718 708 
3 707 717 708 
3 716 717 707 
3 706 716 707 
3 715 716 706 
3 705 715 706 
3 714 715 705 
3 721 728 722 
3 719 727 720 
3 726 727 719 
3 718 726 719 
3 725 726 718 
3 717 725 718 
3 724 725 717 
3 716 724 717 
3 723 724 716 
3 715 723 716 
3 724 730 725 
3 698 699 691 
3 690 698 691 
3 688 697 689 
3 686 696 687 
3 695 696 686 
3 685 695 686 
3 700 712 701 
3 711 712 700 
3 708 709 699 
3 698 708 699 
3 707 708 698 
3 705 706 697 
3 334 335 314 
3 356 357 330 
3 329 356 330 
3 355 356 329 
3 328 355 329 
3 354 355 328 
3 327 354 328 
3 353 354 327 
3 351 352 326 
3 348 349 325 
3 324 348 325 
3 345 346 321 
3 320 345 321 
3 483 503 484 
3 502 503 483 
3 499 520 500 
3 519 520 499 
3 498 519 499 
3 518 519 498 
3 495 516 496 
3 515 516 495 
3 494 515 495 
3 514 515 494 
3 493 514 494 
3 513 514 493 
3 492 513 493 
3 512 513 492 
3 509 510 491 
3 490 509 491 
3 508 509 490 
3 489 508 490 
3 560 593 561 
3 592 593 560 
3 559 592 560 
3 591 592 559 
3 558 591 559 
3 556 590 557 
3 588 589 555 
3 554 588 555 
3 552 587 553 
3 586 587 552 
3 551 586 552 
3 585 586 551 
3 550 585 551 
3 584 585 550 
3 549 584 550 
3 583 584 549 
3 548 583 549 
3 582 583 548 
3 547 582 548 
3 607 608 577 
3 576 607 577 
3 606 607 576 
3 575 606 576 
3 605 606 575 
3 574 605 575 
3 604 605 574 
3 573 604 574 
3 603 604 573 
3 572 603 573 
3 600 601 570 
3 569 600 570 
3 599 600 569 
3 568 599 569 
3 598 599 568 
3 567 598 568 
3 597 598 567 
3 566 597 567 
3 596 597 566 
3 565 596 566 
3 595 596 565 
3 618 644 619 
3 643 644 618 
3 640 641 614 
3 613 640 614 
3 639 640 613 
3 610 637 611 
3 636 637 610 
3 629 659 630 
3 658 659 629 
3 656 657 628 
3 654 655 627 
3 626 654 627 
3 653 654 626 
3 625 653 626 
3 623 652 624 
3 651 652 623 
3 622 651 623 
3 648 649 621 
3 643 674 644 
3 673 674 643 
3 668 669 642 
3 641 668 642 
3 667 668 641 
3 640 667 641 
3 666 667 640 
3 639 666 640 
3 665 666 639 
3 638 665 639 
3 664 665 638 
3 635 662 636 
3 592 619 593 
3 618 619 592 
3 591 618 592 
3 615 616 589 
3 588 615 589 
3 613 614 587 
3 586 613 587 
3 584 612 585 
3 611 612 584 
3 583 611 584 
3 610 611 583 
3 582 610 583 
3 607 631 608 
3 605 630 606 
3 629 630 605 
3 604 629 605 
3 626 627 602 
3 601 626 602 
3 625 626 601 
3 600 625 601 
3 624 625 600 
3 599 624 600 
3 623 624 599 
3 598 623 599 
3 622 623 598 
3 597 622 598 
3 594 621 595 
3 531 561 532 
3 560 561 531 
3 530 560 531 
3 559 560 530 
3 529 559 530 
3 558 559 529 
3 528 558 529 
3 557 558 528 
3 527 557 528 
3 556 557 527 
3 526 556 527 
3 524 555 525 
3 554 555 524 
3 551 552 523 
3 546 547 522 
3 544 545 521 
3 541 542 520 
3 519 541 520 
3 538 539 516 
3 515 538 516 
3 513 537 514 
3 536 537 513 
3 512 536 513 
3 510 535 511 
3 534 535 510 
3 509 534 510 
3 533 534 509 
3 534 533 567 
3 566 567 533 
3 541 577 542 
3 576 577 541 
3 573 574 540 
3 539 573 540 
3 572 573 539 
3 538 572 539 
3 571 572 538 
3 568 569 535 
3 534 568 535 
3 567 568 534 
3 530 531 505 
3 528 529 504 
3 526 527 503 
3 502 526 503 
3 525 526 502 
3 501 525 502 
3 524 525 501 
3 508 533 509 
3 403 431 404 
3 430 431 403 
3 402 430 403 
3 400 429 401 
3 428 429 400 
3 399 428 400 
3 397 427 398 
3 451 452 422 
3 421 451 422 
3 450 451 421 
3 420 450 421 
3 418 449 419 
3 447 448 417 
3 416 447 417 
3 446 447 416 
3 415 446 416 
3 445 446 415 
3 414 445 415 
3 444 445 414 
3 413 444 414 
3 411 443 412 
3 442 443 411 
3 410 442 411 
3 441 442 410 
3 439 440 409 
3 408 439 409 
3 438 439 408 
3 407 438 408 
3 405 437 406 
3 436 437 405 
3 461 487 462 
3 459 486 460 
3 457 485 458 
3 484 485 457 
3 456 484 457 
3 483 484 456 
3 479 480 454 
3 453 479 454 
3 478 479 453 
3 452 478 453 
3 477 478 452 
3 451 477 452 
3 476 477 451 
3 450 476 451 
3 474 475 448 
3 447 474 448 
3 473 474 447 
3 446 473 447 
3 472 473 446 
3 445 472 446 
3 471 472 445 
3 444 471 445 
3 470 471 444 
3 468 469 443 
3 442 468 443 
3 440 467 441 
3 438 466 439 
3 464 465 437 
3 436 464 437 
3 477 500 478 
3 499 500 477 
3 476 499 477 
3 498 499 476 
3 495 496 475 
3 474 495 475 
3 494 495 474 
3 473 494 474 
3 493 494 473 
3 472 493 473 
3 492 493 472 
3 471 492 472 
3 468 491 469 
3 490 491 468 
3 430 462 431 
3 461 462 430 
3 428 460 429 
3 459 460 428 
3 457 458 427 
3 371 404 372 
3 403 404 371 
3 370 403 371 
3 402 403 370 
3 369 402 370 
3 401 402 369 
3 368 401 369 
3 400 401 368 
3 367 400 368 
3 399 400 367 
3 366 399 367 
3 398 399 366 
3 365 398 366 
3 397 398 365 
3 364 397 365 
3 392 393 360 
3 359 392 360 
3 389 390 358 
3 357 389 358 
3 388 389 357 
3 356 388 357 
3 387 388 356 
3 355 387 356 
3 352 386 353 
3 385 386 352 
3 351 385 352 
3 384 385 351 
3 350 384 351 
3 383 384 350 
3 349 383 350 
3 382 383 349 
3 348 382 349 
3 381 382 348 
3 376 377 347 
3 346 376 347 
3 375 376 346 
3 345 375 346 
3 374 375 345 
3 424 425 394 
3 393 424 394 
3 423 424 393 
3 392 423 393 
3 390 422 391 
3 421 422 390 
3 389 421 390 
3 420 421 389 
3 388 420 389 
3 419 420 388 
3 387 419 388 
3 418 419 387 
3 416 417 386 
3 385 416 386 
3 415 416 385 
3 384 415 385 
3 414 415 384 
3 383 414 384 
3 413 414 383 
3 382 413 383 
3 412 413 382 
3 381 412 382 
3 411 412 381 
3 380 411 381 
3 410 411 380 
3 379 410 380 
3 377 409 378 
3 408 409 377 
3 376 408 377 
3 407 408 376 
3 375 407 376 
3 406 407 375 
3 374 406 375 
3 405 406 374 
3 339 372 340 
3 371 372 339 
3 369 370 338 
3 337 369 338 
3 368 369 337 
3 336 368 337 
3 367 368 336 
3 335 367 336 
3 366 367 335 
3 334 366 335 
3 365 366 334 
3 139 168 140 
3 136 167 137 
3 166 167 136 
3 135 166 136 
3 133 165 134 
3 164 165 133 
3 132 164 133 
3 163 164 132 
3 131 163 132 
3 162 163 131 
3 130 162 131 
3 161 162 130 
3 187 188 160 
3 159 187 160 
3 184 185 157 
3 156 184 157 
3 183 184 156 
3 155 183 156 
3 182 183 155 
3 151 180 152 
3 148 179 149 
3 178 179 148 
3 174 175 147 
3 172 173 146 
3 252 253 225 
3 271 272 249 
3 248 271 249 
3 270 271 248 
3 247 270 248 
3 269 270 247 
3 246 269 247 
3 268 269 246 
3 245 268 246 
3 267 268 245 
3 243 266 244 
3 265 266 243 
3 242 265 243 
3 264 265 242 
3 241 264 242 
3 263 264 241 
3 240 263 241 
3 262 263 240 
3 239 262 240 
3 259 260 238 
3 237 259 238 
3 258 259 237 
3 236 258 237 
3 257 258 236 
3 235 257 236 
3 228 255 229 
3 252 286 253 
3 285 286 252 
3 309 310 276 
3 275 309 276 
3 308 309 275 
3 273 307 274 
3 306 307 273 
3 272 306 273 
3 305 306 272 
3 271 305 272 
3 304 305 271 
3 270 304 271 
3 303 304 270 
3 269 303 270 
3 302 303 269 
3 268 302 269 
3 301 302 268 
3 267 301 268 
3 300 301 267 
3 298 299 266 
3 265 298 266 
3 297 298 265 
3 264 297 265 
3 296 297 264 
3 263 296 264 
3 295 296 263 
3 262 295 263 
3 294 295 262 
3 291 292 261 
3 260 291 261 
3 258 290 259 
3 289 290 258 
3 257 289 258 
3 285 315 286 
3 309 331 310 
3 304 330 305 
3 329 330 304 
3 303 329 304 
3 328 329 303 
3 302 328 303 
3 327 328 302 
3 301 327 302 
3 299 326 300 
3 296 325 297 
3 324 325 296 
3 295 324 296 
3 323 324 295 
3 294 323 295 
3 291 322 292 
3 320 321 290 
3 289 320 290 
3 196 222 197 
3 194 221 195 
3 220 221 194 
3 193 220 194 
3 219 220 193 
3 192 219 193 
3 189 218 190 
3 217 218 189 
3 188 217 189 
3 216 217 188 
3 187 216 188 
3 214 215 186 
3 212 213 185 
3 184 212 185 
3 211 212 184 
3 183 211 184 
3 207 208 175 
3 174 207 175 
3 206 207 174 
3 173 206 174 
3 205 206 173 
3 172 205 173 
3 204 205 172 
3 201 202 171 
3 247 248 222 
3 245 246 221 
3 220 245 221 
3 240 241 218 
3 217 240 218 
3 239 240 217 
3 216 239 217 
3 236 237 213 
3 212 236 213 
3 235 236 212 
3 211 235 212 
3 234 235 211 
3 206 231 207 
3 204 230 205 
3 229 230 204 
3 203 229 204 
3 228 229 203 
3 202 228 203 
3 227 228 202 
3 201 227 202 
3 226 227 201 
3 198 199 168 
3 196 197 167 
3 166 196 167 
3 195 196 166 
3 193 194 165 
3 164 193 165 
3 192 193 164 
3 163 192 164 
3 161 191 162 
3 190 191 161 
3 85 86 59 
3 58 85 59 
3 84 85 58 
3 81 82 56 
3 78 79 54 
3 53 78 54 
3 75 76 52 
3 51 75 52 
3 74 75 51 
3 50 74 51 
3 73 74 50 
3 49 73 50 
3 72 73 49 
3 48 72 49 
3 45 71 46 
3 43 70 44 
3 41 69 42 
3 68 69 41 
3 40 68 41 
3 67 68 40 
3 68 67 96 
3 95 96 67 
3 66 95 67 
3 63 94 64 
3 91 92 60 
3 134 135 108 
3 132 133 107 
3 106 132 107 
3 131 132 106 
3 105 131 106 
3 130 131 105 
3 101 129 102 
3 128 129 101 
3 100 128 101 
3 127 128 100 
3 125 126 99 
3 98 125 99 
3 124 125 98 
3 121 122 96 
3 95 121 96 
3 120 121 95 
3 91 116 92 
3 115 116 91 
3 90 115 91 
3 114 115 90 
3 112 113 89 
3 110 111 88 
3 159 160 129 
3 128 159 129 
3 158 159 128 
3 127 158 128 
3 156 157 126 
3 125 156 126 
3 155 156 125 
3 124 155 125 
3 122 154 123 
3 120 153 121 
3 152 153 120 
3 119 152 120 
3 151 152 119 
3 149 150 118 
3 114 147 115 
3 112 146 113 
3 110 145 111 
3 144 145 110 
3 105 106 80 
3 79 105 80 
3 102 103 77 
3 76 102 77 
3 101 102 76 
3 75 101 76 
3 100 101 75 
3 74 100 75 
3 98 99 71 
3 53 54 34 
3 33 53 34 
3 50 51 31 
3 30 50 31 
3 49 50 30 
3 29 49 30 
3 48 49 29 
3 28 48 29 
3 47 48 28 
3 27 47 28 
3 46 47 27 
3 26 46 27 
3 45 46 26 
3 25 45 26 
3 44 45 25 
3 24 44 25 
3 43 44 24 
3 23 43 24 
3 42 43 23 
3 21 38 22 
3 39 67 40 
3 66 67 39 
3 64 65 38 
3 35 36 16 
3 15 35 16 
3 12 34 13 
3 33 34 12 
3 11 33 12 
3 30 31 9 
3 8 30 9 
3 29 30 8 
3 7 29 8 
3 28 29 7 
3 6 28 7 
3 27 28 6 
3 5 27 6 
3 26 27 5 
3 24 25 4 
3 21 22 3 
3 2 21 3 
