OFF
1000 1918 0
0 0 251 
0 7 253 
0 9 239 
0 10 251 
0 20 253 
0 21 204 
0 22 197 
0 23 234 
0 27 251 
0 28 154 
0 30 84 
0 32 105 
0 36 100 
0 92 97 
0 119 98 
1 12 253 
1 20 139 
1 21 127 
1 22 142 
1 23 200 
1 26 234 
1 30 96 
1 32 112 
2 9 253 
2 11 250 
2 12 253 
2 14 213 
2 17 142 
2 19 113 
2 20 103 
2 23 137 
2 25 243 
2 26 253 
2 29 250 
2 31 100 
2 32 87 
3 8 252 
3 9 230 
3 11 176 
3 12 166 
3 14 136 
3 17 113 
3 19 119 
3 20 119 
3 23 114 
3 24 134 
3 26 237 
3 30 252 
3 32 92 
3 33 90 
3 34 117 
3 38 109 
3 40 86 
3 42 111 
3 43 96 
4 1 253 
4 4 245 
4 8 149 
4 9 146 
4 11 137 
4 12 122 
4 14 125 
4 17 141 
4 19 156 
4 25 128 
4 26 167 
4 28 253 
4 32 205 
4 33 108 
4 34 74 
4 38 95 
5 0 244 
5 3 159 
5 4 152 
5 6 136 
5 11 123 
5 12 129 
5 14 142 
5 15 156 
5 19 251 
5 20 250 
5 22 140 
5 24 143 
5 26 126 
5 27 153 
5 32 253 
5 33 213 
5 34 127 
5 37 119 
5 39 91 
5 40 117 
5 42 85 
5 43 108 
6 0 153 
6 2 143 
6 4 129 
6 9 137 
6 11 154 
6 12 146 
6 13 174 
6 15 246 
6 17 253 
6 19 237 
6 20 253 
6 21 238 
6 23 139 
6 24 129 
6 26 144 
6 27 123 
6 28 141 
6 30 248 
6 33 253 
6 34 228 
6 35 128 
6 36 81 
6 38 112 
6 40 95 
7 2 124 
7 3 120 
7 7 127 
7 9 164 
7 12 249 
7 21 253 
7 22 234 
7 29 143 
7 30 184 
7 31 236 
7 32 253 
7 35 249 
7 37 77 
7 38 82 
7 39 115 
7 42 117 
7 43 95 
8 0 117 
8 3 147 
8 4 137 
8 9 247 
8 26 143 
8 28 131 
8 29 150 
8 30 144 
8 31 165 
8 32 223 
8 35 253 
8 36 239 
8 37 133 
8 38 86 
8 39 108 
8 116 95 
9 0 162 
9 4 250 
9 27 143 
9 32 164 
9 33 231 
9 34 252 
9 35 223 
9 36 253 
9 37 249 
9 38 154 
9 39 77 
9 41 109 
9 42 93 
9 51 101 
9 115 87 
9 116 132 
9 118 116 
9 119 107 
10 0 244 
10 25 246 
10 29 135 
10 32 134 
10 33 163 
10 35 250 
10 36 223 
10 37 253 
10 38 251 
10 40 102 
10 41 85 
10 42 100 
10 47 95 
10 107 100 
10 110 106 
10 112 84 
10 113 118 
10 114 194 
10 115 237 
10 117 250 
10 118 218 
10 119 92 
11 0 252 
11 27 230 
11 28 163 
11 29 164 
11 32 150 
11 35 225 
11 36 249 
11 40 209 
11 41 114 
11 42 74 
11 44 115 
11 47 112 
11 112 97 
11 113 156 
11 114 239 
12 28 232 
12 29 167 
12 32 131 
12 35 151 
12 36 232 
12 40 253 
12 41 226 
12 43 89 
12 44 93 
12 47 97 
12 114 253 
12 116 222 
12 117 241 
12 118 237 
12 119 186 
13 28 251 
13 29 232 
13 31 148 
13 34 134 
13 36 148 
13 37 217 
13 38 253 
13 40 238 
13 41 253 
13 42 241 
13 43 184 
13 44 94 
13 50 92 
13 107 102 
13 108 88 
13 109 107 
13 112 81 
13 113 134 
13 115 226 
13 116 248 
14 29 252 
14 36 128 
14 37 155 
14 39 239 
14 40 252 
14 44 217 
14 45 114 
14 46 83 
14 47 105 
14 50 116 
14 51 87 
14 52 101 
14 110 91 
14 111 111 
14 112 91 
14 114 252 
14 119 192 
15 22 236 
15 29 233 
15 31 248 
15 32 192 
15 33 161 
15 35 134 
15 36 143 
15 37 128 
15 38 138 
15 40 233 
15 44 253 
15 45 240 
15 46 139 
15 47 75 
15 48 111 
15 49 111 
15 50 84 
15 113 126 
15 117 222 
15 118 252 
15 119 217 
16 20 252 
16 29 252 
16 31 234 
16 32 252 
16 33 218 
16 34 161 
16 36 130 
16 37 149 
16 40 159 
16 46 254 
16 47 204 
16 48 90 
16 49 77 
16 50 121 
16 112 91 
16 113 136 
16 114 220 
17 33 245 
17 34 217 
17 35 165 
17 48 230 
17 50 81 
17 112 127 
17 113 189 
17 114 237 
17 117 237 
17 119 209 
18 35 243 
18 36 178 
18 39 129 
18 44 240 
18 48 254 
18 51 112 
18 101 103 
18 109 107 
18 112 197 
18 113 182 
18 117 219 
18 119 236 
19 37 178 
19 38 148 
19 39 157 
19 43 157 
19 44 217 
19 45 252 
19 49 212 
19 50 93 
19 51 93 
19 109 80 
19 110 88 
19 111 139 
19 115 237 
19 117 243 
19 119 208 
20 37 252 
20 39 153 
20 43 135 
20 44 161 
20 50 93 
20 103 110 
20 105 88 
20 106 101 
20 107 90 
20 109 130 
20 112 241 
20 116 209 
21 39 227 
21 40 166 
21 41 139 
21 44 132 
21 45 143 
21 48 249 
21 49 253 
21 51 102 
21 103 98 
21 106 185 
21 107 200 
21 108 219 
21 110 234 
21 112 216 
21 114 215 
21 119 246 
22 36 236 
22 42 145 
22 43 137 
22 49 247 
22 50 128 
22 51 87 
22 105 117 
22 106 232 
22 107 253 
22 108 236 
22 110 224 
22 112 219 
22 113 240 
22 118 233 
22 119 203 
23 38 252 
23 41 252 
23 42 235 
23 43 172 
23 44 138 
23 48 145 
23 102 110 
23 106 218 
23 107 232 
23 111 249 
23 113 220 
23 114 229 
23 118 166 
23 119 89 
24 36 252 
24 38 233 
24 43 252 
24 44 173 
24 47 141 
24 49 90 
24 50 85 
24 51 114 
24 105 102 
24 106 236 
24 107 245 
24 109 233 
24 111 202 
24 113 138 
24 114 209 
24 115 235 
24 116 228 
24 117 248 
24 119 184 
25 26 242 
25 37 242 
25 46 99 
25 50 111 
25 51 100 
25 101 98 
25 106 217 
25 107 207 
25 109 150 
25 111 93 
25 113 112 
25 119 225 
26 45 237 
26 106 108 
26 109 99 
26 111 113 
26 112 195 
26 113 197 
26 118 233 
26 119 172 
27 111 94 
27 118 224 
27 119 148 
28 45 241 
28 46 100 
28 113 88 
28 114 202 
28 115 245 
28 116 230 
28 117 243 
30 112 110 
30 113 93 
30 114 218 
30 119 222 
31 113 85 
32 114 193 
32 115 245 
32 119 213 
33 44 251 
33 45 241 
33 46 102 
33 109 93 
33 110 117 
33 113 99 
33 118 209 
33 119 231 
34 112 95 
34 115 251 
34 117 238 
35 85 104 
35 113 106 
35 116 210 
36 107 105 
36 114 154 
36 115 233 
37 45 232 
37 115 246 
38 46 93 
38 113 100 
38 114 148 
38 115 221 
38 116 226 
38 119 210 
39 43 242 
39 44 250 
39 45 220 
39 47 110 
39 112 108 
39 115 129 
39 116 94 
39 118 131 
39 119 130 
40 46 89 
40 108 111 
40 114 66 
40 115 66 
40 118 129 
41 44 251 
41 45 214 
41 111 73 
41 116 81 
41 118 101 
42 45 192 
42 46 94 
42 107 101 
42 108 71 
42 111 85 
42 113 79 
42 115 91 
42 116 104 
42 118 113 
42 119 129 
43 99 109 
43 106 81 
43 108 78 
43 109 94 
43 112 152 
43 114 177 
43 115 185 
43 118 184 
43 119 189 
44 94 106 
44 97 92 
44 99 86 
44 100 89 
44 106 174 
44 108 195 
44 109 198 
44 112 189 
45 89 109 
45 94 90 
45 96 99 
45 99 162 
45 100 185 
45 108 166 
45 109 165 
45 115 180 
46 19 252 
46 84 108 
46 89 93 
46 92 99 
46 96 186 
46 106 177 
46 108 180 
46 109 175 
47 11 253 
47 17 246 
47 19 229 
47 23 249 
47 44 248 
47 88 105 
47 90 135 
47 92 188 
47 99 181 
47 109 159 
47 115 152 
48 11 243 
48 12 252 
48 17 178 
48 19 146 
48 20 122 
48 21 131 
48 45 187 
48 46 93 
48 84 89 
48 90 193 
48 91 205 
48 99 162 
48 115 166 
49 7 248 
49 12 169 
49 15 147 
49 17 133 
49 19 116 
49 20 110 
49 25 242 
49 83 104 
49 85 166 
49 87 196 
49 88 193 
49 91 165 
49 119 152 
50 0 249 
50 3 248 
50 7 167 
50 9 148 
50 11 143 
50 12 139 
50 17 118 
50 18 112 
50 19 130 
50 24 142 
50 25 172 
50 32 252 
50 46 91 
50 47 113 
50 80 110 
50 82 167 
50 83 188 
50 85 188 
50 88 163 
51 0 220 
51 3 155 
51 4 143 
51 9 132 
51 11 123 
51 15 118 
51 17 131 
51 18 148 
51 25 133 
51 75 105 
51 76 84 
51 79 161 
51 80 178 
51 82 190 
51 83 192 
51 84 170 
51 119 159 
52 0 142 
52 7 127 
52 12 136 
52 18 221 
52 19 249 
52 20 224 
52 21 161 
52 22 136 
52 24 127 
52 29 236 
52 32 209 
52 44 252 
52 45 201 
52 46 93 
52 75 89 
52 76 151 
52 79 198 
52 80 191 
52 82 167 
52 89 170 
53 3 125 
53 5 131 
53 7 130 
53 9 144 
53 11 159 
53 12 213 
53 13 231 
53 15 253 
53 18 241 
53 20 253 
53 22 163 
53 23 149 
53 27 137 
53 31 244 
53 70 112 
53 72 83 
53 75 189 
53 76 191 
53 80 163 
53 119 142 
54 0 123 
54 2 132 
54 3 137 
54 5 167 
54 7 212 
54 9 246 
54 11 253 
54 13 253 
54 22 232 
54 26 142 
54 31 232 
54 33 239 
54 36 240 
54 70 89 
54 72 157 
54 78 165 
55 0 152 
55 1 170 
55 4 250 
55 7 252 
55 11 239 
55 13 232 
55 20 251 
55 22 252 
55 28 138 
55 30 158 
55 33 220 
55 34 241 
55 36 210 
55 40 252 
55 45 239 
55 68 90 
55 70 162 
55 71 187 
55 72 187 
55 80 171 
55 83 147 
56 0 245 
56 11 252 
56 19 220 
56 30 142 
56 32 143 
56 36 213 
56 68 181 
56 70 185 
56 83 159 
57 18 251 
57 20 252 
57 21 235 
57 27 252 
57 28 231 
57 29 172 
57 30 154 
57 34 200 
57 36 250 
57 46 112 
57 67 199 
57 72 166 
57 81 148 
57 87 139 
58 19 238 
58 29 233 
58 32 154 
58 34 146 
58 36 177 
58 38 237 
58 40 229 
58 45 253 
58 46 136 
58 47 86 
58 48 123 
58 49 97 
58 51 114 
58 67 164 
58 104 130 
59 31 248 
59 32 214 
59 37 165 
59 40 243 
59 42 237 
59 43 252 
59 47 97 
59 48 88 
59 49 129 
59 51 96 
59 59 83 
59 62 172 
59 107 143 
60 20 252 
60 29 232 
60 34 158 
60 36 134 
60 47 194 
60 48 117 
60 49 77 
60 51 125 
60 55 116 
60 60 168 
60 62 186 
60 67 180 
61 33 247 
61 36 150 
61 40 146 
61 44 220 
61 45 252 
61 46 231 
61 47 253 
61 48 238 
61 49 142 
61 50 93 
61 51 105 
61 55 93 
61 56 100 
61 60 191 
61 63 165 
62 30 252 
62 35 246 
62 38 139 
62 43 217 
62 44 235 
62 47 237 
62 48 254 
62 49 253 
62 55 112 
62 57 183 
62 60 168 
62 83 144 
62 91 126 
63 33 238 
63 41 142 
63 44 206 
63 45 209 
63 46 244 
63 48 231 
63 50 144 
63 51 100 
63 53 107 
63 55 179 
63 56 194 
63 59 187 
64 30 234 
64 32 252 
64 40 179 
64 43 135 
64 46 183 
64 47 249 
64 48 253 
64 49 242 
64 51 75 
64 54 193 
64 59 163 
64 60 181 
65 0 248 
65 40 253 
65 45 144 
65 47 153 
65 48 214 
65 49 248 
65 50 106 
65 52 197 
65 54 170 
65 59 170 
65 60 153 
65 115 118 
66 0 229 
66 43 168 
66 47 125 
66 48 135 
66 49 182 
67 43 227 
67 45 144 
68 1 223 
68 80 119 
68 83 112 
69 0 252 
69 1 245 
69 44 252 
69 48 186 
70 8 249 
70 45 244 
70 50 158 
71 11 226 
71 84 127 
71 92 125 
72 0 229 
72 1 252 
72 14 252 
72 47 158 
72 51 162 
73 0 167 
73 1 180 
73 11 249 
73 12 236 
73 19 238 
73 25 247 
73 46 184 
73 48 169 
74 0 222 
74 7 246 
74 27 227 
74 47 154 
74 52 138 
74 86 106 
74 103 116 
75 0 246 
75 6 226 
75 28 245 
75 45 248 
75 46 186 
76 3 239 
76 4 252 
77 6 250 
77 84 124 
78 3 252 
78 4 237 
78 45 242 
78 46 172 
78 47 138 
78 50 145 
78 60 131 
78 83 107 
80 20 252 
80 47 127 
80 51 113 
81 48 137 
81 51 111 
81 52 128 
81 56 113 
81 92 94 
82 46 143 
82 47 125 
82 100 96 
84 57 124 
84 99 111 
86 46 131 
86 119 100 
87 45 236 
87 52 129 
89 15 250 
89 19 251 
89 20 228 
89 23 249 
89 46 135 
90 12 249 
90 14 206 
90 15 207 
90 19 223 
90 23 224 
90 46 121 
90 48 127 
90 49 110 
90 75 91 
90 99 91 
91 8 250 
91 11 230 
91 12 220 
91 22 247 
91 45 246 
91 58 102 
92 0 252 
92 11 250 
92 12 247 
92 19 250 
92 20 221 
92 83 104 
93 4 244 
93 8 218 
93 10 229 
93 11 235 
93 14 252 
93 16 252 
93 20 186 
93 23 252 
93 46 137 
93 59 113 
94 0 229 
94 4 217 
94 5 232 
94 7 247 
94 8 247 
94 10 251 
94 11 249 
94 13 233 
94 14 220 
94 16 174 
94 20 110 
94 21 137 
94 27 238 
94 47 109 
94 83 86 
95 0 251 
95 5 252 
95 7 234 
95 8 216 
95 11 180 
95 13 162 
95 19 89 
95 20 93 
95 21 125 
95 23 140 
95 25 227 
95 26 249 
95 46 143 
95 91 101 
96 0 249 
96 3 227 
96 5 195 
96 7 158 
96 11 137 
96 13 128 
96 14 113 
96 16 125 
96 21 172 
96 23 135 
96 25 167 
97 3 157 
97 16 134 
97 18 147 
97 20 166 
97 21 249 
97 22 242 
97 23 172 
97 24 151 
97 26 164 
97 28 249 
97 45 243 
98 0 107 
98 6 123 
98 12 133 
98 13 155 
98 15 158 
98 17 231 
98 19 249 
98 23 249 
98 24 234 
98 26 162 
98 27 148 
98 28 169 
98 30 238 
99 0 108 
99 11 135 
99 12 205 
99 14 248 
99 25 238 
99 27 146 
99 29 159 
99 31 233 
99 32 251 
99 34 238 
99 35 252 
99 45 238 
99 47 99 
99 84 87 
99 119 100 
3 954 974 955 
3 974 975 955 
3 956 955 975 
3 975 976 956 
3 154 172 155 
3 172 173 155 
3 173 172 195 
3 194 193 207 
3 170 193 194 
3 206 222 193 
3 207 193 222 
3 675 674 688 
3 658 674 675 
3 700 711 688 
3 675 688 711 
3 711 710 723 
3 700 710 711 
3 81 82 44 
3 45 44 82 
3 64 45 82 
3 82 83 64 
3 106 107 82 
3 83 82 107 
3 375 390 376 
3 390 391 376 
3 344 375 376 
3 390 409 391 
3 409 431 391 
3 772 773 705 
3 625 705 773 
3 720 625 773 
3 555 625 720 
3 537 617 550 
3 582 550 617 
3 617 618 582 
3 618 619 582 
3 484 489 479 
3 489 499 479 
3 702 732 719 
3 732 760 719 
3 745 719 760 
3 677 732 702 
3 423 428 424 
3 428 433 424 
3 425 424 433 
3 732 731 743 
3 677 731 732 
3 583 731 677 
3 474 583 677 
3 640 474 677 
3 731 718 742 
3 583 718 731 
3 480 491 474 
3 491 583 474 
3 551 583 491 
3 163 251 13 
3 251 457 13 
3 310 325 251 
3 325 351 251 
3 351 457 251 
3 457 412 598 
3 396 412 457 
3 365 396 457 
3 474 640 412 
3 598 412 640 
3 351 365 457 
3 448 474 412 
3 465 474 448 
3 413 311 457 
3 381 311 413 
3 352 311 381 
3 616 615 639 
3 581 615 616 
3 615 597 638 
3 580 597 615 
3 563 580 615 
3 581 563 615 
3 536 563 581 
3 471 536 581 
3 744 760 732 
3 542 733 556 
3 645 556 733 
3 605 556 645 
3 569 556 605 
3 543 542 556 
3 516 542 543 
3 515 523 516 
3 523 532 516 
3 524 516 543 
3 505 516 524 
3 532 542 516 
3 494 515 516 
3 503 515 494 
3 504 494 516 
3 250 251 232 
3 163 232 251 
3 852 853 822 
3 825 822 853 
3 841 825 853 
3 853 854 841 
3 833 825 841 
3 853 852 861 
3 799 852 822 
3 725 726 675 
3 676 675 726 
3 713 676 726 
3 726 749 713 
3 749 750 713 
3 822 825 816 
3 823 816 825 
3 812 816 823 
3 741 742 730 
3 718 730 742 
3 870 876 871 
3 876 883 871 
3 883 880 896 
3 876 880 883 
3 895 896 880 
3 875 880 876 
3 110 126 85 
3 126 127 85 
3 111 85 127 
3 221 222 206 
3 118 136 95 
3 119 95 136 
3 74 95 119 
3 450 460 454 
3 460 475 454 
3 460 481 475 
3 481 487 475 
3 466 454 475 
3 458 454 466 
3 461 458 466 
3 466 467 461 
3 73 95 74 
3 136 151 119 
3 137 119 151 
3 190 278 151 
3 137 151 278 
3 121 137 278 
3 687 708 699 
3 708 709 699 
3 708 722 709 
3 722 736 709 
3 723 724 711 
3 748 723 763 
3 724 723 748 
3 392 410 379 
3 393 379 410 
3 348 379 393 
3 380 348 393 
3 391 420 392 
3 410 392 420 
3 180 201 163 
3 201 232 163 
3 214 232 201 
3 214 248 232 
3 248 271 232 
3 271 272 232 
3 249 232 272 
3 418 425 403 
3 404 403 425 
3 425 435 404 
3 434 435 425 
3 435 436 404 
3 405 404 436 
3 426 405 436 
3 436 437 426 
3 429 426 437 
3 166 167 149 
3 14 149 167 
3 689 677 702 
3 640 641 598 
3 526 457 598 
3 517 457 526 
3 598 599 526 
3 584 526 599 
3 599 600 584 
3 600 601 584 
3 564 526 584 
3 584 585 564 
3 897 910 866 
3 874 866 910 
3 910 949 874 
3 725 764 749 
3 764 765 749 
3 748 764 725 
3 726 725 749 
3 471 408 536 
3 409 408 471 
3 525 536 408 
3 746 721 761 
3 722 721 746 
3 774 761 787 
3 746 761 774 
3 735 761 721 
3 996 997 971 
3 948 971 997 
3 934 948 997 
3 904 896 934 
3 883 896 904 
3 904 934 920 
3 934 997 920 
3 997 998 920 
3 918 946 933 
3 946 947 933 
3 984 994 933 
3 994 995 933 
3 903 933 995 
3 893 918 933 
3 887 893 933 
3 852 887 933 
3 882 852 933 
3 903 882 933 
3 960 959 968 
3 945 959 960 
3 946 945 960 
3 918 945 946 
3 993 994 984 
3 971 903 995 
3 995 996 971 
3 200 199 212 
3 179 199 200 
3 162 179 200 
3 133 162 200 
3 180 133 200 
3 200 201 180 
3 213 214 200 
3 201 200 214 
3 292 312 300 
3 312 327 300 
3 252 312 292 
3 327 328 300 
3 313 300 328 
3 252 234 312 
3 235 234 252 
3 312 233 339 
3 234 233 312 
3 618 676 619 
3 676 701 619 
3 701 716 619 
3 716 717 619 
3 717 718 619 
3 582 619 583 
3 619 718 583 
3 110 109 124 
3 66 109 110 
3 47 66 110 
3 0 56 1 
3 36 1 56 
3 56 74 36 
3 57 36 74 
3 982 990 983 
3 990 991 983 
3 433 434 425 
3 456 455 459 
3 444 455 456 
3 743 759 744 
3 759 771 744 
3 744 771 760 
3 771 797 760 
3 797 808 760 
3 745 760 808 
3 808 818 745 
3 878 904 897 
3 904 920 897 
3 865 878 897 
3 866 865 897 
3 920 998 897 
3 818 808 865 
3 818 865 866 
3 865 847 873 
3 807 847 865 
3 808 807 865 
3 905 921 911 
3 921 922 911 
3 936 951 921 
3 922 921 951 
3 922 951 937 
3 951 952 937 
3 695 735 707 
3 721 707 735 
3 742 758 731 
3 758 770 731 
3 759 731 770 
3 663 683 664 
3 683 798 664 
3 647 663 664 
3 648 647 664 
3 763 788 748 
3 775 748 788 
3 938 953 939 
3 953 954 939 
3 973 986 953 
3 954 953 986 
3 926 939 954 
3 974 954 986 
3 301 314 302 
3 314 329 302 
3 317 332 318 
3 332 333 318 
3 333 332 344 
3 360 375 332 
3 344 332 375 
3 375 360 389 
3 337 338 311 
3 233 311 338 
3 338 339 233 
3 339 340 312 
3 637 669 655 
3 669 695 655 
3 670 655 695 
3 973 961 985 
3 952 961 973 
3 985 986 973 
3 74 119 57 
3 96 57 119 
3 58 57 96 
3 770 785 759 
3 771 759 785 
3 743 731 759 
3 832 839 734 
3 839 840 734 
3 806 834 807 
3 834 847 807 
3 935 897 998 
3 910 897 935 
3 902 918 893 
3 81 80 104 
3 43 80 81 
3 222 260 207 
3 260 261 207 
3 223 207 261 
3 261 262 223 
3 194 207 172 
3 207 223 172 
3 208 172 223 
3 195 172 208 
3 3 15 4 
3 15 26 4 
3 26 27 4 
3 27 28 4 
3 16 4 28 
3 704 772 691 
3 705 691 772 
3 390 389 409 
3 375 389 390 
3 821 831 824 
3 831 844 824 
3 855 856 836 
3 851 836 856 
3 831 836 851 
3 844 831 851 
3 850 855 836 
3 66 65 84 
3 46 65 66 
3 32 46 66 
3 671 670 686 
3 615 670 671 
3 686 670 697 
3 114 129 88 
3 115 88 129 
3 129 130 115 
3 949 935 998 
3 829 874 849 
3 874 877 849 
3 829 828 848 
3 819 828 829 
3 773 819 829 
3 879 874 898 
3 877 874 879 
3 848 874 829 
3 720 773 829 
3 829 849 720 
3 733 720 849 
3 772 819 773 
3 603 624 604 
3 624 682 604 
3 681 682 644 
3 624 644 682 
3 625 604 682 
3 682 705 625 
3 524 543 507 
3 543 569 507 
3 508 507 569 
3 813 812 823 
3 737 747 723 
3 747 763 723 
3 303 302 315 
3 294 302 303 
3 302 329 315 
3 329 330 315 
3 330 329 343 
3 772 703 818 
3 704 703 772 
3 703 745 818 
3 661 703 704 
3 818 819 772 
3 477 478 469 
3 470 469 478 
3 459 469 470 
3 456 459 470 
3 244 266 228 
3 229 228 266 
3 266 267 229 
3 266 286 267 
3 286 308 267 
3 308 286 320 
3 319 346 320 
3 334 320 346 
3 333 345 319 
3 345 346 319 
3 307 319 320 
3 286 307 320 
3 245 229 267 
3 230 229 245 
3 399 400 383 
3 369 383 400 
3 368 383 369 
3 370 369 400 
3 11 22 12 
3 22 50 12 
3 35 49 22 
3 49 50 22 
3 964 978 965 
3 978 979 965 
3 979 978 989 
3 977 988 978 
3 988 989 978 
3 966 965 979 
3 868 861 875 
3 862 861 868 
3 875 876 868 
3 880 875 882 
3 875 861 882 
3 861 852 882 
3 867 887 852 
3 58 96 75 
3 96 97 75 
3 352 381 366 
3 381 397 366 
3 366 397 382 
3 397 398 382 
3 171 194 172 
3 986 987 974 
3 613 614 579 
3 597 579 614 
3 107 106 138 
3 476 483 477 
3 483 488 477 
3 477 488 484 
3 488 489 484 
3 496 506 497 
3 506 507 497 
3 507 506 524 
3 505 524 506 
3 221 240 222 
3 240 259 222 
3 258 259 240 
3 279 280 258 
3 259 258 280 
3 998 999 949 
3 898 949 999 
3 881 898 999 
3 642 641 660 
3 620 641 642 
3 660 680 642 
3 680 703 642 
3 661 642 703 
3 643 642 661 
3 854 863 846 
3 863 864 846 
3 842 846 864 
3 847 842 864 
3 834 842 847 
3 617 537 658 
3 658 675 617 
3 581 658 537 
3 149 14 182 
3 181 182 14 
3 182 183 149 
3 164 149 183 
3 183 184 164 
3 262 261 283 
3 241 223 262 
3 908 942 931 
3 942 943 931 
3 916 930 908 
3 930 942 908 
3 917 908 931 
3 908 891 916 
3 892 891 908 
3 930 957 942 
3 957 963 942 
3 27 26 41 
3 61 78 40 
3 62 40 78 
3 41 40 62 
3 26 40 41 
3 577 596 578 
3 596 610 578 
3 610 611 578 
3 562 578 611 
3 816 815 822 
3 811 815 816 
3 800 811 816 
3 171 170 194 
3 141 170 171 
3 810 817 798 
3 817 824 798 
3 535 548 525 
3 548 549 525 
3 536 525 549 
3 185 204 186 
3 204 216 186 
3 216 215 238 
3 204 215 216 
3 187 186 216 
3 31 30 45 
3 19 30 31 
3 7 19 31 
3 20 7 31 
3 8 7 20 
3 844 857 837 
3 838 837 857 
3 857 867 838 
3 860 899 857 
3 889 857 899 
3 884 857 889 
3 867 857 884 
3 883 904 878 
3 851 857 844 
3 87 113 69 
3 113 114 69 
3 88 69 114 
3 50 69 88 
3 51 50 88 
3 12 50 51 
3 70 51 88 
3 446 471 463 
3 471 472 463 
3 472 473 463 
3 695 694 734 
3 669 694 695 
3 734 735 695 
3 696 695 707 
3 735 734 786 
3 734 840 786 
3 840 845 786 
3 761 735 786 
3 992 993 984 
3 970 984 933 
3 381 413 397 
3 413 421 397 
3 236 254 237 
3 254 274 237 
3 255 237 274 
3 954 955 940 
3 941 940 955 
3 927 940 941 
3 928 927 941 
3 566 567 538 
3 553 538 567 
3 349 348 380 
3 322 348 349 
3 309 322 349 
3 323 309 349 
3 349 350 323 
3 287 322 309 
3 872 873 869 
3 847 869 873 
3 864 869 847 
3 105 123 106 
3 123 169 106 
3 138 106 169 
3 152 138 169 
3 328 342 313 
3 314 313 342 
3 895 894 919 
3 888 894 895 
3 815 799 822 
3 326 341 327 
3 341 356 327 
3 328 356 342 
3 356 357 342 
3 328 327 356 
3 113 128 114 
3 128 145 114 
3 114 145 129 
3 145 146 129 
3 415 416 399 
3 400 399 416 
3 266 265 286 
3 243 265 266 
3 285 307 265 
3 286 265 307 
3 264 285 265 
3 306 317 285 
3 317 318 285 
3 307 285 318 
3 134 150 117 
3 135 117 150 
3 150 168 135 
3 151 135 168 
3 168 190 151 
3 278 190 533 
3 533 190 570 
3 224 223 241 
3 208 223 224 
3 262 263 241 
3 961 950 972 
3 951 950 961 
3 936 950 951 
3 565 564 587 
3 552 564 565 
3 587 586 604 
3 564 586 587 
3 528 540 518 
3 529 518 540 
3 540 568 529 
3 555 529 568 
3 48 47 67 
3 34 47 48 
3 743 744 732 
3 550 551 537 
3 491 537 551 
3 490 537 491 
3 462 464 459 
3 464 469 459 
3 453 456 470 
3 869 870 871 
3 864 870 869 
3 872 871 883 
3 455 451 458 
3 443 451 455 
3 458 461 455 
3 461 462 455 
3 598 641 620 
3 567 588 553 
3 553 588 568 
3 588 625 568 
3 568 625 555 
3 541 529 555 
3 530 555 720 
3 884 885 867 
3 885 886 867 
3 886 887 867 
3 832 838 867 
3 839 832 867 
3 889 901 890 
3 901 907 890 
3 907 915 890 
3 891 890 915 
3 915 916 891 
3 656 615 671 
3 639 615 656 
3 638 670 615 
3 672 687 699 
3 882 888 880 
3 888 895 880 
3 878 872 883 
3 859 850 905 
3 855 850 859 
3 843 850 836 
3 437 444 441 
3 444 452 441 
3 440 444 436 
3 437 436 444 
3 452 444 456 
3 445 441 452 
3 972 985 961 
3 345 344 376 
3 346 345 376 
3 575 608 594 
3 608 632 594 
3 632 633 594 
3 574 593 575 
3 593 608 575 
3 963 964 942 
3 943 942 964 
3 958 943 964 
3 964 965 958 
3 120 119 137 
3 119 120 96 
3 789 800 776 
3 777 776 800 
3 790 777 800 
3 510 529 520 
3 529 541 520 
3 521 520 541 
3 695 696 670 
3 696 697 670 
3 616 658 581 
3 526 552 538 
3 552 565 538 
3 565 566 538 
3 517 526 538 
3 736 737 709 
3 710 709 737 
3 723 710 737 
3 762 746 774 
3 775 799 789 
3 799 811 789 
3 800 789 811 
3 176 226 210 
3 226 227 210 
3 226 243 227 
3 243 244 227 
3 337 352 338 
3 352 366 338 
3 338 366 353 
3 366 367 353 
3 733 809 645 
3 809 881 645 
3 849 881 809 
3 877 898 881 
3 879 898 877 
3 849 877 881 
3 809 733 849 
3 23 24 3 
3 15 3 24 
3 24 25 15 
3 414 421 415 
3 421 422 415 
3 422 421 449 
3 438 422 449 
3 428 422 438 
3 449 450 438 
3 720 733 542 
3 542 530 720 
3 531 530 542 
3 528 517 539 
3 509 517 528 
3 540 539 554 
3 528 539 540 
3 527 539 517 
3 633 692 634 
3 685 634 692 
3 668 634 685 
3 635 634 668 
3 667 692 633 
3 748 775 764 
3 775 789 764 
3 788 799 775 
3 811 799 815 
3 763 762 799 
3 747 762 763 
3 774 799 762 
3 787 852 799 
3 787 799 774 
3 788 763 799 
3 787 786 845 
3 845 852 787 
3 13 457 311 
3 337 311 352 
3 659 679 660 
3 679 680 660 
3 640 659 660 
3 641 640 660 
3 411 410 432 
3 393 410 411 
3 394 393 411 
3 600 599 622 
3 643 661 621 
3 622 621 661 
3 599 621 622 
3 644 622 661 
3 297 306 284 
3 285 284 306 
3 218 219 188 
3 189 188 219 
3 858 874 848 
3 174 196 175 
3 196 209 175 
3 209 225 175 
3 225 226 175 
3 176 175 226 
3 159 176 160 
3 176 177 160 
3 177 176 197 
3 197 176 210 
3 404 405 386 
3 343 386 405 
3 358 386 343 
3 373 343 405 
3 405 406 373 
3 387 373 406 
3 372 386 358 
3 814 813 823 
3 823 826 814 
3 805 814 826 
3 803 814 804 
3 805 804 814 
3 549 579 536 
3 563 536 579 
3 562 613 549 
3 579 549 613 
3 952 953 937 
3 938 937 953 
3 923 937 938 
3 924 923 938 
3 951 961 952 
3 533 557 544 
3 557 573 544 
3 573 574 544 
3 33 32 66 
3 8 32 33 
3 47 33 66 
3 697 698 686 
3 420 391 431 
3 431 409 446 
3 856 857 851 
3 658 657 673 
3 616 657 658 
3 757 756 782 
3 741 756 757 
3 742 741 757 
3 795 806 783 
3 784 783 806 
3 806 807 784 
3 796 784 807 
3 770 784 796 
3 610 634 635 
3 736 762 747 
3 746 762 736 
3 737 736 747 
3 908 909 892 
3 886 892 909 
3 902 886 909 
3 909 917 902 
3 917 932 902 
3 918 902 932 
3 28 29 16 
3 840 839 867 
3 481 460 492 
3 513 512 521 
3 501 512 513 
3 530 521 555 
3 513 521 530 
3 541 555 521 
3 500 512 501 
3 460 500 501 
3 492 460 501 
3 457 500 413 
3 457 509 500 
3 509 510 500 
3 509 457 517 
3 460 413 500 
3 713 751 738 
3 751 752 738 
3 750 751 713 
3 727 713 738 
3 714 713 727 
3 169 257 191 
3 220 191 257 
3 257 279 220 
3 258 220 279 
3 122 257 169 
3 495 494 504 
3 487 494 495 
3 475 487 495 
3 482 475 495 
3 132 116 161 
3 91 116 132 
3 131 148 116 
3 148 161 116 
3 161 162 132 
3 160 177 161 
3 177 178 161 
3 148 160 161 
3 830 831 820 
3 821 820 831 
3 408 278 533 
3 257 278 408 
3 279 257 408 
3 240 220 258 
3 299 298 309 
3 290 298 299 
3 309 323 299 
3 323 324 299 
3 330 343 373 
3 359 330 373 
3 437 441 429 
3 430 429 441 
3 864 863 868 
3 868 870 864 
3 78 101 62 
3 62 101 79 
3 101 102 79 
3 370 400 384 
3 400 401 384 
3 416 417 400 
3 401 400 417 
3 217 218 187 
3 188 187 218 
3 294 303 275 
3 276 275 303 
3 303 304 276 
3 435 440 436 
3 434 440 435 
3 380 394 363 
3 394 395 363 
3 364 363 395 
3 346 361 334 
3 361 362 334 
3 885 892 886 
3 858 866 874 
3 357 356 371 
3 371 370 384 
3 356 370 371 
3 342 358 314 
3 329 314 358 
3 817 810 820 
3 736 722 746 
3 447 446 463 
3 448 447 463 
3 411 432 412 
3 432 448 412 
3 463 465 448 
3 690 719 703 
3 719 745 703 
3 898 874 949 
3 543 556 569 
3 233 234 181 
3 234 235 181 
3 182 181 235 
3 527 517 538 
3 320 321 308 
3 970 969 982 
3 947 969 970 
3 933 947 970 
3 485 537 490 
3 471 581 485 
3 537 485 581 
3 446 409 471 
3 408 533 525 
3 533 534 525 
3 557 533 570 
3 570 571 557 
3 1 23 2 
3 3 2 23 
3 279 408 295 
3 360 295 408 
3 280 279 295 
3 281 280 295 
3 590 589 606 
3 570 589 590 
3 626 606 647 
3 590 606 626 
3 646 647 606 
3 647 648 626 
3 591 590 626 
3 626 627 591 
3 33 47 21 
3 34 21 47 
3 259 260 222 
3 183 182 202 
3 202 182 235 
3 236 235 253 
3 202 235 236 
3 252 253 235 
3 236 237 202 
3 203 202 237 
3 215 203 237 
3 952 973 953 
3 820 821 817 
3 932 945 918 
3 212 213 200 
3 56 55 72 
3 0 55 56 
3 72 73 56 
3 827 832 734 
3 389 408 409 
3 884 891 892 
3 885 884 892 
3 360 408 389 
3 305 295 360 
3 332 305 360 
3 123 122 169 
3 99 121 100 
3 121 278 100 
3 101 278 122 
3 257 122 278 
3 101 100 278 
3 102 101 122 
3 817 821 824 
3 665 798 824 
3 664 798 665 
3 684 665 824 
3 935 949 910 
3 358 357 372 
3 342 357 358 
3 343 329 358 
3 287 267 308 
3 268 267 287 
3 614 637 655 
3 654 669 637 
3 636 654 637 
3 347 379 348 
3 452 456 453 
3 757 782 769 
3 782 783 769 
3 783 782 795 
3 163 92 180 
3 54 92 163 
3 92 133 180 
3 558 575 559 
3 575 594 559 
3 478 477 484 
3 384 385 371 
3 401 402 384 
3 385 384 402 
3 919 934 895 
3 896 895 934 
3 903 919 894 
3 518 509 528 
3 576 559 594 
3 560 559 576 
3 594 595 576 
3 519 518 529 
3 312 340 326 
3 340 341 326 
3 341 340 355 
3 958 966 959 
3 966 967 959 
3 944 958 959 
3 945 944 959 
3 946 960 947 
3 960 969 947 
3 940 926 954 
3 925 939 926 
3 41 42 27 
3 28 27 42 
3 649 664 665 
3 651 665 684 
3 650 665 651 
3 331 330 359 
3 691 705 682 
3 588 587 625 
3 566 587 588 
3 587 604 625 
3 701 676 713 
3 255 294 275 
3 238 255 275 
3 239 238 275 
3 217 239 275 
3 449 460 450 
3 449 421 460 
3 413 460 421 
3 828 818 866 
3 858 828 866 
3 848 828 858 
3 231 246 213 
3 246 247 213 
3 214 213 247 
3 12 54 13 
3 54 163 13 
3 845 840 867 
3 852 845 867 
3 673 672 699 
3 778 791 766 
3 779 766 791 
3 791 792 779 
3 277 276 304 
3 315 316 303 
3 304 303 316 
3 962 956 976 
3 957 956 962 
3 929 956 957 
3 930 929 957 
3 107 138 108 
3 138 139 108 
3 139 138 152 
3 9 33 21 
3 8 33 9 
3 10 9 21 
3 980 979 989 
3 464 461 467 
3 467 468 464 
3 825 833 823 
3 591 607 572 
3 592 572 607 
3 607 629 592 
3 629 630 592 
3 593 592 630 
3 609 634 610 
3 298 287 309 
3 288 287 298 
3 899 859 905 
3 860 859 899 
3 439 440 433 
3 434 433 440 
3 254 292 274 
3 292 293 274 
3 252 292 253 
3 254 253 292 
3 632 653 633 
3 653 667 633 
3 666 651 684 
3 652 651 666 
3 115 131 89 
3 116 89 131 
3 659 640 677 
3 677 678 659 
3 545 558 559 
3 533 545 534 
3 545 559 534 
3 534 559 546 
3 559 560 546 
3 291 310 251 
3 216 239 217 
3 275 276 217 
3 256 217 276 
3 218 217 256 
3 127 143 111 
3 143 154 111 
3 154 155 111 
3 144 111 155 
3 128 111 144 
3 112 111 128 
3 824 827 684 
3 734 684 827 
3 928 941 929 
3 941 956 929 
3 406 405 426 
3 419 406 426 
3 686 698 687 
3 698 708 687 
3 595 594 633 
3 502 501 514 
3 492 501 502 
3 513 514 501 
3 522 513 530 
3 514 513 522 
3 612 613 562 
3 611 612 562 
3 873 878 865 
3 969 968 981 
3 960 968 969 
3 981 980 989 
3 968 980 981 
3 519 529 510 
3 444 443 455 
3 478 479 470 
3 52 51 70 
3 12 51 52 
3 70 89 52 
3 89 90 52 
3 433 428 438 
3 438 439 433 
3 451 450 454 
3 442 450 451 
3 442 438 450 
3 346 376 361 
3 376 377 361 
3 20 32 8 
3 446 447 431 
3 447 448 431 
3 432 431 448 
3 684 692 667 
3 684 734 692 
3 706 692 734 
3 873 872 878 
3 617 675 676 
3 712 725 675 
3 13 181 14 
3 308 322 287 
3 819 818 828 
3 169 191 152 
3 487 481 493 
3 493 503 487 
3 494 487 503 
3 492 493 481 
3 466 475 482 
3 467 466 482 
3 467 482 476 
3 482 483 476 
3 247 248 214 
3 614 613 637 
3 459 455 462 
3 636 635 654 
3 612 635 636 
3 635 668 654 
3 668 669 654 
3 611 635 612 
3 861 862 853 
3 854 853 862 
3 862 863 854 
3 905 911 899 
3 724 748 725 
3 227 244 228 
3 711 712 675 
3 833 842 826 
3 834 826 842 
3 826 823 833 
3 781 782 756 
3 761 786 787 
3 689 719 690 
3 566 565 587 
3 47 110 85 
3 571 591 557 
3 572 557 591 
3 785 770 796 
3 623 644 624 
3 395 396 364 
3 365 364 396 
3 88 115 70 
3 70 115 89 
3 416 415 422 
3 976 975 988 
3 103 102 122 
3 272 273 249 
3 597 614 655 
3 800 801 790 
3 812 800 816 
3 801 800 812 
3 225 242 226 
3 242 265 226 
3 243 226 265 
3 283 297 262 
3 262 297 284 
3 639 657 616 
3 656 657 639 
3 672 656 687 
3 657 656 672 
3 671 687 656 
3 321 335 322 
3 335 348 322 
3 377 376 391 
3 859 860 855 
3 856 855 860 
3 402 418 403 
3 509 518 519 
3 198 211 199 
3 211 229 199 
3 199 229 212 
3 229 230 212 
3 712 711 724 
3 56 73 74 
3 402 401 418 
3 417 424 418 
3 424 425 418 
3 401 417 418 
3 882 903 888 
3 894 888 903 
3 948 903 971 
3 919 903 948 
3 911 923 899 
3 923 924 899 
3 912 899 924 
3 977 976 988 
3 205 191 220 
3 249 273 250 
3 273 291 250 
3 299 310 291 
3 251 250 291 
3 184 185 164 
3 681 661 704 
3 699 709 710 
3 700 699 710 
3 673 699 688 
3 699 700 688 
3 638 597 655 
3 806 805 826 
3 648 664 649 
3 626 648 649 
3 627 626 649 
3 607 591 627 
3 627 628 607 
3 62 63 41 
3 42 41 63 
3 63 62 79 
3 318 319 307 
3 697 707 698 
3 707 721 698 
3 708 698 721 
3 963 977 978 
3 77 99 100 
3 253 254 236 
3 422 423 416 
3 417 416 423 
3 423 422 428 
3 558 544 574 
3 574 575 558 
3 595 633 634 
3 609 595 634 
3 689 690 677 
3 678 677 690 
3 91 90 116 
3 52 90 91 
3 53 52 91 
3 443 442 451 
3 71 94 55 
3 72 55 94 
3 0 71 55 
3 93 94 71 
3 117 93 134 
3 94 93 117 
3 165 186 187 
3 164 186 165 
3 216 217 187 
3 702 719 689 
3 554 568 540 
3 414 397 421 
3 317 305 332 
3 306 305 317 
3 347 334 362 
3 452 453 445 
3 58 59 37 
3 38 37 59 
3 23 37 38 
3 24 23 38 
3 44 43 81 
3 17 43 44 
3 76 99 77 
3 60 76 77 
3 61 60 77 
3 39 60 61 
3 40 39 61 
3 25 39 40 
3 26 25 40 
3 15 25 26 
3 674 673 688 
3 826 834 806 
3 96 120 97 
3 120 137 97 
3 97 137 121 
3 924 925 912 
3 682 681 691 
3 691 681 704 
3 571 570 590 
3 794 804 805 
3 497 498 488 
3 489 488 498 
3 498 497 507 
3 495 496 482 
3 483 482 496 
3 488 483 496 
3 496 497 488 
3 856 860 857 
3 561 578 562 
3 486 491 480 
3 629 651 652 
3 630 629 652 
3 914 927 928 
3 907 914 928 
3 906 914 907 
3 915 907 928 
3 655 670 638 
3 155 156 144 
3 530 531 522 
3 78 100 101 
3 52 53 12 
3 53 54 12 
3 777 778 750 
3 751 750 778 
3 766 751 778 
3 974 987 975 
3 987 988 975 
3 729 730 717 
3 718 717 730 
3 730 729 741 
3 741 740 755 
3 729 740 741 
3 31 32 20 
3 152 170 139 
3 140 139 170 
3 141 140 170 
3 170 152 192 
3 191 192 152 
3 192 193 170 
3 380 393 394 
3 420 432 410 
3 534 535 525 
3 893 886 902 
3 887 886 893 
3 132 162 133 
3 510 509 519 
3 510 511 500 
3 912 913 899 
3 906 899 913 
3 900 899 906 
3 913 914 906 
3 899 900 889 
3 900 901 889 
3 181 13 311 
3 233 181 311 
3 407 406 419 
3 387 406 407 
3 426 427 419 
3 165 187 166 
3 187 188 166 
3 149 165 166 
3 982 983 970 
3 669 668 694 
3 693 694 668 
3 560 577 561 
3 577 578 561 
3 546 560 561 
3 547 546 561 
3 534 546 547 
3 535 534 547 
3 646 663 647 
3 582 583 551 
3 661 681 644 
3 666 684 667 
3 23 1 36 
3 153 141 171 
3 142 141 153 
3 706 734 693 
3 694 693 734 
3 362 379 347 
3 349 380 363 
3 628 650 651 
3 629 628 651 
3 932 944 945 
3 511 510 520 
3 592 593 573 
3 574 573 593 
3 84 109 66 
3 724 725 712 
3 29 43 17 
3 30 17 44 
3 18 17 30 
3 715 716 701 
3 552 526 564 
3 781 794 782 
3 794 805 782 
3 782 805 795 
3 805 806 795 
3 962 977 963 
3 957 962 963 
3 630 652 631 
3 652 653 631 
3 666 667 652 
3 653 652 667 
3 767 779 768 
3 779 793 768 
3 780 768 793 
3 356 355 370 
3 341 355 356 
3 355 369 370 
3 132 133 91 
3 92 91 133 
3 690 703 679 
3 680 679 703 
3 912 925 926 
3 913 912 926 
3 22 21 34 
3 10 21 22 
3 11 10 22 
3 607 628 629 
3 573 572 592 
3 557 572 573 
3 585 584 602 
3 601 602 584 
3 623 624 601 
3 602 601 624 
3 785 797 771 
3 124 125 110 
3 824 844 837 
3 827 824 837 
3 837 838 827 
3 832 827 838 
3 310 299 324 
3 324 325 310 
3 373 374 359 
3 793 804 780 
3 780 804 794 
3 764 789 776 
3 662 683 663 
3 602 624 603 
3 686 687 671 
3 721 722 708 
3 478 484 479 
3 841 846 833 
3 842 833 846 
3 579 580 563 
3 34 35 22 
3 551 550 582 
3 846 841 854 
3 692 706 685 
3 685 706 693 
3 504 516 505 
3 538 539 527 
3 539 538 553 
3 618 617 676 
3 678 690 679 
3 94 118 72 
3 72 118 95 
3 649 650 627 
3 628 627 650 
3 650 649 665 
3 963 978 964 
3 59 58 75 
3 929 930 915 
3 916 915 930 
3 780 781 755 
3 756 755 781 
3 755 756 741 
3 962 976 977 
3 673 674 658 
3 835 843 836 
3 81 105 82 
3 105 106 82 
3 713 714 701 
3 45 64 31 
3 31 64 46 
3 64 65 46 
3 67 47 85 
3 238 239 216 
3 757 769 758 
3 769 784 758 
3 758 784 770 
3 109 108 139 
3 124 109 139 
3 139 140 124 
3 989 990 981 
3 296 295 305 
3 274 294 255 
3 934 919 948 
3 928 929 915 
3 91 92 53 
3 54 53 92 
3 443 444 440 
3 98 121 99 
3 593 630 608 
3 630 631 608 
3 495 505 496 
3 505 506 496 
3 431 432 420 
3 219 218 256 
3 485 486 472 
3 473 472 486 
3 480 473 486 
3 884 889 890 
3 890 891 884 
3 504 505 495 
3 36 37 23 
3 16 29 17 
3 289 298 290 
3 42 63 43 
3 63 80 43 
3 685 693 668 
3 336 323 350 
3 324 336 325 
3 336 351 325 
3 350 364 336 
3 336 364 351 
3 364 365 351 
3 237 255 215 
3 215 255 238 
3 754 768 755 
3 768 780 755 
3 749 765 750 
3 765 777 750 
3 454 458 451 
3 548 562 549 
3 316 315 331 
3 315 330 331 
3 439 442 440 
3 442 443 440 
3 585 586 564 
3 983 991 984 
3 991 992 984 
3 970 983 984 
3 185 186 164 
3 164 165 149 
3 863 862 868 
3 472 471 485 
3 465 463 473 
3 104 123 81 
3 81 123 105 
3 276 277 256 
3 473 480 465 
3 465 480 474 
3 868 876 870 
3 566 588 567 
3 576 577 560 
3 931 932 917 
3 913 927 914 
3 926 927 913 
3 922 923 911 
3 967 968 959 
3 965 966 958 
3 981 990 982 
3 981 982 969 
3 967 980 968 
3 979 980 967 
3 966 979 967 
3 943 958 944 
3 955 956 941 
3 931 944 932 
3 943 944 931 
3 926 940 927 
3 924 939 925 
3 938 939 924 
3 922 937 923 
3 908 917 909 
3 900 907 901 
3 906 907 900 
3 871 872 869 
3 783 784 769 
3 766 779 767 
3 776 777 765 
3 764 776 765 
3 830 836 831 
3 835 836 830 
3 802 814 803 
3 813 814 802 
3 801 813 802 
3 812 813 801 
3 796 797 785 
3 780 794 781 
3 792 793 779 
3 790 791 778 
3 777 790 778 
3 796 808 797 
3 807 808 796 
3 803 804 793 
3 792 803 793 
3 802 803 792 
3 791 802 792 
3 801 802 791 
3 790 801 791 
3 716 729 717 
3 728 729 716 
3 715 728 716 
3 727 728 715 
3 714 727 715 
3 757 758 742 
3 754 755 740 
3 739 754 740 
3 753 754 739 
3 738 753 739 
3 752 753 738 
3 753 768 754 
3 767 768 753 
3 752 767 753 
3 766 767 752 
3 751 766 752 
3 728 740 729 
3 739 740 728 
3 727 739 728 
3 738 739 727 
3 714 715 701 
3 696 707 697 
3 622 644 623 
3 620 643 621 
3 642 643 620 
3 636 637 613 
3 612 636 613 
3 610 635 611 
3 631 653 632 
3 678 679 659 
3 672 673 657 
3 662 663 646 
3 603 604 586 
3 585 603 586 
3 602 603 585 
3 609 610 596 
3 595 609 596 
3 600 623 601 
3 622 623 600 
3 598 621 599 
3 620 621 598 
3 631 632 608 
3 579 597 580 
3 576 596 577 
3 595 596 576 
3 590 591 571 
3 398 415 399 
3 414 415 398 
3 397 414 398 
3 395 412 396 
3 411 412 395 
3 394 411 395 
3 461 464 462 
3 498 508 499 
3 507 508 498 
3 502 503 493 
3 492 502 493 
3 522 532 523 
3 531 532 522 
3 553 554 539 
3 547 562 548 
3 561 562 547 
3 544 558 545 
3 553 568 554 
3 531 542 532 
3 547 548 535 
3 544 545 533 
3 514 523 515 
3 522 523 514 
3 511 521 512 
3 520 521 511 
3 502 515 503 
3 514 515 502 
3 511 512 500 
3 498 499 489 
3 490 491 486 
3 485 490 486 
3 468 477 469 
3 476 477 468 
3 467 476 468 
3 468 469 464 
3 438 442 439 
3 423 424 417 
3 426 430 427 
3 429 430 426 
3 203 215 204 
3 212 231 213 
3 230 231 212 
3 228 229 211 
3 210 228 211 
3 227 228 210 
3 224 225 209 
3 208 224 209 
3 205 221 206 
3 220 221 205 
3 300 314 301 
3 313 314 300 
3 321 322 308 
3 354 355 340 
3 339 354 340 
3 353 354 339 
3 338 353 339 
3 363 364 350 
3 349 363 350 
3 373 388 374 
3 387 388 373 
3 385 386 372 
3 371 385 372 
3 367 383 368 
3 382 383 367 
3 366 382 367 
3 378 392 379 
3 391 392 378 
3 377 391 378 
3 387 407 388 
3 403 404 386 
3 385 403 386 
3 402 403 385 
3 382 399 383 
3 398 399 382 
3 371 372 357 
3 354 369 355 
3 368 369 354 
3 353 368 354 
3 367 368 353 
3 378 379 362 
3 361 378 362 
3 377 378 361 
3 323 336 324 
3 320 335 321 
3 334 335 320 
3 318 333 319 
3 347 348 335 
3 334 347 335 
3 344 345 333 
3 326 327 312 
3 272 291 273 
3 290 291 272 
3 271 290 272 
3 289 290 271 
3 270 289 271 
3 288 289 270 
3 269 288 270 
3 287 288 269 
3 268 287 269 
3 263 285 264 
3 284 285 263 
3 262 284 263 
3 282 283 261 
3 260 282 261 
3 281 282 260 
3 259 281 260 
3 280 281 259 
3 293 302 294 
3 301 302 293 
3 292 301 293 
3 300 301 292 
3 290 299 291 
3 288 298 289 
3 296 297 283 
3 282 296 283 
3 295 296 282 
3 281 295 282 
3 305 306 297 
3 296 305 297 
3 293 294 274 
3 249 250 232 
3 245 246 231 
3 230 245 231 
3 224 242 225 
3 241 242 224 
3 220 240 221 
3 270 271 248 
3 247 270 248 
3 269 270 247 
3 246 269 247 
3 268 269 246 
3 245 268 246 
3 267 268 245 
3 243 266 244 
3 264 265 242 
3 241 264 242 
3 263 264 241 
3 89 116 90 
3 112 113 87 
3 86 112 87 
3 111 112 86 
3 85 111 86 
3 122 123 104 
3 103 122 104 
3 97 121 98 
3 117 118 94 
3 161 179 162 
3 178 179 161 
3 158 176 159 
3 175 176 158 
3 157 175 158 
3 174 175 157 
3 156 174 157 
3 173 174 156 
3 155 173 156 
3 153 172 154 
3 171 172 153 
3 166 189 167 
3 188 189 166 
3 184 183 203 
3 202 203 183 
3 178 199 179 
3 198 199 178 
3 177 198 178 
3 197 198 177 
3 173 196 174 
3 195 196 173 
3 184 204 185 
3 203 204 184 
3 197 211 198 
3 210 211 197 
3 195 209 196 
3 208 209 195 
3 192 206 193 
3 205 206 192 
3 191 205 192 
3 130 148 131 
3 147 148 130 
3 129 147 130 
3 146 147 129 
3 144 145 128 
3 126 143 127 
3 142 143 126 
3 125 142 126 
3 141 142 125 
3 124 141 125 
3 140 141 124 
3 135 136 118 
3 117 135 118 
3 147 160 148 
3 159 160 147 
3 146 159 147 
3 158 159 146 
3 145 158 146 
3 157 158 145 
3 144 157 145 
3 156 157 144 
3 153 154 143 
3 142 153 143 
3 135 151 136 
3 130 131 115 
3 112 128 113 
3 125 126 110 
3 48 49 35 
3 34 48 35 
3 31 46 32 
3 44 45 30 
3 28 43 29 
3 42 43 28 
3 38 60 39 
3 59 60 38 
3 36 58 37 
3 57 58 36 
3 68 87 69 
3 86 87 68 
3 67 86 68 
3 85 86 67 
3 83 84 65 
3 64 83 65 
3 79 80 63 
3 77 78 61 
3 59 76 60 
3 75 76 59 
3 108 109 84 
3 83 108 84 
3 107 108 83 
3 103 104 80 
3 79 103 80 
3 102 103 79 
3 77 100 78 
3 98 99 76 
3 75 98 76 
3 97 98 75 
3 72 95 73 
3 49 69 50 
3 68 69 49 
3 48 68 49 
3 67 68 48 
3 18 30 19 
3 24 39 25 
3 38 39 24 
3 6 19 7 
3 18 19 6 
3 5 18 6 
3 17 18 5 
3 4 17 5 
3 16 17 4 
