OFF
1384 2712 0
0 0 162 
0 18 103 
0 32 131 
0 81 122 
0 83 153 
0 100 155 
0 103 217 
0 106 107 
0 126 136 
0 127 171 
1 28 112 
1 105 191 
2 13 164 
2 16 96 
2 106 159 
2 124 128 
2 127 49 
3 106 201 
4 76 126 
4 80 110 
4 87 159 
4 104 214 
4 123 133 
5 6 153 
5 103 170 
5 107 207 
5 108 136 
5 109 112 
5 119 126 
5 124 43 
6 103 142 
6 104 197 
6 120 137 
7 122 41 
8 13 159 
8 15 132 
8 16 100 
8 109 210 
8 110 131 
8 119 134 
9 105 148 
9 106 204 
9 120 42 
10 31 120 
10 50 126 
10 89 155 
11 23 104 
11 60 119 
11 82 112 
11 84 132 
11 116 130 
11 117 79 
12 2 159 
12 60 196 
12 65 121 
12 105 143 
12 113 105 
13 6 143 
13 13 163 
13 15 126 
13 16 97 
13 43 126 
13 64 174 
13 107 145 
13 108 196 
13 112 206 
13 114 120 
13 116 41 
14 51 148 
14 57 181 
14 65 202 
14 113 182 
14 114 83 
15 2 171 
15 62 185 
15 67 194 
15 68 112 
15 73 122 
15 110 217 
15 113 214 
16 4 142 
16 5 105 
16 112 225 
16 113 121 
16 114 41 
16 127 55 
17 15 126 
17 16 86 
17 72 105 
17 109 149 
17 111 218 
18 12 162 
18 71 203 
18 74 101 
18 83 112 
18 84 135 
18 111 116 
18 127 29 
19 2 152 
19 4 81 
19 8 149 
19 53 131 
19 54 159 
19 72 218 
19 75 95 
19 76 108 
19 95 149 
19 109 152 
19 111 45 
20 0 162 
20 74 227 
20 76 92 
20 82 106 
20 108 152 
20 127 151 
21 10 168 
21 20 99 
21 75 202 
21 77 92 
21 85 148 
21 89 151 
21 91 116 
21 92 83 
21 110 45 
21 122 55 
21 125 82 
22 3 86 
22 6 99 
22 7 129 
22 15 124 
22 16 89 
22 60 167 
22 76 153 
22 96 141 
22 125 140 
23 13 158 
23 77 88 
23 94 70 
23 106 153 
24 45 123 
24 62 202 
24 77 213 
24 80 76 
24 108 38 
24 110 48 
25 6 93 
25 8 146 
25 15 120 
25 16 88 
25 55 142 
25 79 145 
25 81 80 
25 120 58 
26 79 223 
26 80 114 
26 81 63 
26 90 146 
26 92 79 
26 93 44 
26 122 149 
27 54 129 
27 80 224 
27 82 71 
27 84 128 
27 85 147 
27 98 124 
27 103 148 
27 105 75 
28 2 93 
28 13 163 
28 15 119 
28 48 135 
28 52 128 
28 56 184 
28 81 198 
28 82 61 
28 89 155 
28 91 125 
28 92 82 
28 97 45 
28 98 86 
28 104 113 
29 33 117 
29 54 165 
29 97 69 
29 99 213 
29 103 218 
29 121 143 
29 123 161 
30 8 145 
30 50 107 
30 64 196 
30 84 123 
30 94 39 
30 97 220 
30 98 185 
30 116 49 
31 6 90 
31 15 120 
31 16 85 
31 51 175 
31 63 182 
31 98 210 
31 117 88 
31 118 154 
32 30 105 
32 31 213 
32 32 173 
32 33 109 
32 81 207 
32 85 144 
32 89 153 
32 91 106 
32 92 52 
32 95 206 
32 113 49 
33 7 126 
33 10 166 
33 13 164 
33 16 86 
33 93 213 
33 104 223 
33 105 47 
34 24 102 
34 51 164 
34 84 206 
34 119 161 
35 30 99 
35 31 208 
35 32 148 
35 34 107 
35 41 118 
35 49 142 
35 87 150 
35 91 183 
35 118 149 
36 6 101 
36 9 165 
36 87 183 
37 70 185 
37 92 201 
37 98 204 
37 111 60 
38 15 129 
38 16 91 
38 29 91 
38 30 213 
38 35 119 
38 39 103 
39 13 174 
39 28 104 
39 33 170 
39 69 170 
39 80 177 
39 84 185 
39 97 207 
39 98 167 
39 102 204 
39 104 41 
39 111 58 
39 113 145 
40 6 96 
40 7 127 
40 8 153 
40 29 87 
40 30 222 
40 44 133 
40 97 164 
40 112 124 
41 15 135 
41 16 92 
41 96 211 
41 101 172 
41 109 47 
42 32 190 
42 33 157 
42 42 140 
42 56 151 
42 58 161 
42 72 172 
42 96 147 
42 98 148 
42 115 158 
43 15 129 
43 36 142 
43 37 103 
43 56 110 
43 58 113 
43 65 166 
43 70 149 
43 95 201 
43 97 152 
43 98 81 
43 100 157 
43 101 221 
43 102 38 
44 13 169 
44 29 79 
44 30 218 
44 53 144 
44 59 77 
44 60 152 
44 65 104 
44 66 121 
44 70 97 
44 74 162 
44 78 195 
44 97 86 
44 99 136 
44 100 211 
44 109 57 
44 110 123 
44 111 151 
45 6 105 
45 7 133 
45 9 166 
45 33 170 
45 34 129 
45 56 103 
45 65 57 
45 71 46 
45 99 190 
46 0 98 
46 27 100 
46 54 124 
46 62 106 
46 63 69 
46 66 93 
46 67 72 
46 73 145 
46 94 97 
46 98 199 
46 101 41 
47 31 185 
47 59 65 
47 66 79 
47 68 36 
47 74 193 
47 88 201 
47 106 65 
48 13 172 
48 15 135 
48 16 90 
48 30 77 
48 31 203 
48 37 142 
48 38 90 
48 39 118 
48 51 133 
48 60 116 
48 71 134 
48 73 190 
48 88 107 
48 91 113 
48 93 160 
48 96 179 
48 99 44 
49 5 104 
49 8 151 
49 35 174 
49 37 100 
49 53 56 
49 58 57 
49 59 116 
49 61 43 
49 69 147 
49 91 160 
49 108 141 
50 56 73 
50 66 32 
50 67 159 
50 68 122 
50 83 192 
50 84 88 
50 93 174 
50 97 41 
50 106 45 
50 107 96 
50 111 163 
51 13 173 
51 14 155 
51 29 102 
51 31 84 
51 32 221 
51 37 130 
51 54 41 
51 55 113 
51 56 33 
51 69 198 
51 92 174 
51 108 130 
52 32 92 
52 33 205 
52 35 198 
52 36 103 
52 47 112 
52 48 62 
52 59 54 
52 66 128 
52 93 59 
53 64 75 
53 77 171 
53 84 181 
53 85 112 
53 86 65 
53 89 123 
53 104 49 
54 15 140 
54 16 94 
54 32 90 
54 46 78 
54 55 44 
54 56 127 
54 57 40 
54 65 123 
54 66 167 
54 78 196 
54 100 54 
54 106 134 
55 2 102 
55 6 87 
55 7 120 
55 9 162 
55 33 223 
55 43 113 
55 57 107 
55 59 34 
55 63 83 
55 64 179 
55 91 160 
55 92 86 
55 93 43 
56 31 113 
56 35 113 
56 40 119 
56 43 78 
56 49 46 
56 54 70 
56 57 94 
56 58 36 
56 63 182 
56 64 164 
56 84 204 
56 85 166 
56 86 97 
56 87 49 
56 90 117 
56 104 54 
56 105 129 
57 33 112 
57 34 223 
57 58 38 
57 74 168 
57 75 182 
57 90 49 
57 91 158 
57 92 115 
58 13 175 
58 15 139 
58 56 54 
58 57 154 
58 60 120 
58 103 44 
58 104 121 
58 107 164 
59 6 87 
59 8 147 
59 33 117 
59 35 112 
59 45 51 
59 57 44 
59 85 204 
59 86 146 
59 87 96 
59 88 51 
59 90 70 
59 91 161 
59 92 104 
59 102 42 
59 127 151 
60 10 168 
60 15 137 
60 16 96 
60 33 146 
60 34 97 
60 41 93 
60 42 38 
60 58 117 
60 61 165 
60 66 184 
60 104 139 
61 55 68 
61 60 170 
61 70 152 
61 73 179 
61 85 200 
61 89 42 
61 91 93 
61 92 154 
61 93 67 
61 100 51 
62 7 114 
62 8 146 
62 31 125 
62 32 173 
62 33 54 
62 35 84 
62 36 185 
62 37 126 
62 55 38 
62 56 117 
62 63 187 
62 67 140 
62 70 67 
62 72 141 
62 74 177 
62 86 103 
63 38 71 
63 43 41 
63 65 130 
63 70 91 
63 73 96 
63 80 188 
64 13 176 
64 15 142 
64 16 99 
64 27 106 
64 32 147 
64 49 51 
64 56 124 
64 57 163 
64 61 173 
64 62 202 
64 63 85 
64 66 81 
64 81 169 
64 84 72 
64 91 45 
64 92 177 
64 93 103 
64 94 47 
64 105 160 
65 4 93 
65 36 35 
65 37 116 
65 38 80 
65 42 85 
65 48 32 
65 49 120 
65 53 42 
65 55 103 
65 59 195 
65 62 64 
65 69 50 
65 70 39 
65 74 130 
65 82 60 
65 101 44 
65 102 144 
65 122 152 
66 5 79 
66 8 141 
66 10 175 
66 28 182 
66 30 150 
66 37 39 
66 38 117 
66 39 31 
66 40 105 
66 43 44 
66 50 44 
66 52 39 
66 55 176 
66 62 68 
66 69 176 
66 71 75 
66 72 108 
66 77 170 
66 78 207 
66 94 63 
67 25 96 
67 29 181 
67 31 137 
67 54 107 
67 66 85 
67 69 210 
67 70 182 
67 80 103 
67 83 74 
67 84 176 
67 85 116 
67 86 45 
67 91 44 
67 92 174 
67 95 52 
67 100 51 
67 101 115 
67 126 130 
68 24 108 
68 28 168 
68 30 207 
68 33 38 
68 34 100 
68 46 61 
68 53 98 
68 54 194 
68 61 131 
68 70 151 
68 91 50 
68 92 168 
68 115 155 
68 123 132 
69 22 108 
69 23 37 
69 24 55 
69 25 127 
69 28 153 
69 29 76 
69 30 41 
69 33 133 
69 37 45 
69 50 37 
69 57 193 
69 67 136 
69 82 129 
69 127 188 
70 24 138 
70 28 80 
70 51 89 
70 57 80 
70 85 82 
70 103 159 
70 120 136 
70 124 186 
71 7 92 
71 8 137 
71 13 184 
71 15 142 
71 16 104 
71 27 66 
71 40 97 
71 49 40 
71 54 186 
71 71 167 
71 72 130 
71 76 141 
71 77 182 
71 78 220 
71 79 189 
71 91 48 
71 92 161 
71 98 48 
72 24 115 
72 27 119 
72 28 56 
72 34 109 
72 35 36 
72 38 85 
72 45 50 
72 54 195 
72 93 166 
72 94 57 
72 99 68 
72 100 139 
72 119 142 
72 120 180 
72 121 195 
73 27 56 
73 39 117 
73 49 37 
73 50 147 
73 55 53 
73 57 116 
73 65 173 
73 85 128 
73 88 51 
74 4 75 
74 14 167 
74 16 107 
74 25 85 
74 27 67 
74 29 110 
74 33 87 
74 38 42 
74 40 94 
74 41 38 
74 42 94 
74 48 33 
74 49 120 
74 50 108 
74 51 204 
74 53 209 
74 54 39 
74 95 33 
74 98 43 
74 99 122 
75 7 87 
75 8 138 
75 9 161 
75 21 113 
75 23 63 
75 25 94 
75 28 118 
75 33 58 
75 39 45 
75 52 197 
75 53 50 
75 55 60 
75 56 108 
75 58 131 
75 88 44 
75 93 140 
76 23 140 
76 24 46 
76 28 53 
76 32 132 
76 44 136 
76 77 150 
76 78 202 
76 85 128 
76 90 93 
76 91 36 
76 92 108 
76 97 44 
76 99 142 
76 113 142 
77 0 82 
77 6 48 
77 8 137 
77 10 172 
77 14 165 
77 22 135 
77 23 42 
77 25 131 
77 32 65 
77 47 29 
77 48 157 
77 49 113 
77 50 200 
77 53 37 
77 54 86 
77 76 126 
77 81 155 
77 89 64 
77 94 134 
77 95 28 
77 115 128 
77 117 189 
78 17 74 
78 25 76 
78 42 86 
78 43 162 
78 46 31 
78 49 168 
78 78 176 
78 79 230 
78 96 39 
78 98 139 
79 22 108 
79 28 71 
79 33 132 
79 34 39 
79 39 55 
79 41 157 
79 43 91 
79 48 107 
79 50 153 
79 51 45 
79 88 43 
79 92 48 
79 93 171 
80 17 108 
80 26 71 
80 28 143 
80 29 51 
80 30 107 
80 32 161 
80 33 62 
80 40 40 
80 41 63 
80 42 112 
80 48 177 
80 49 189 
80 68 158 
80 72 123 
80 75 132 
80 81 145 
80 84 126 
80 97 92 
80 98 146 
80 114 132 
80 115 177 
81 17 75 
81 23 58 
81 25 119 
81 27 58 
81 28 81 
81 31 99 
81 40 77 
81 41 164 
81 42 45 
81 45 47 
81 46 169 
81 49 52 
81 53 39 
81 54 109 
81 55 78 
81 57 115 
81 63 148 
81 75 93 
81 87 45 
81 93 148 
81 96 63 
81 97 122 
82 14 168 
82 16 111 
82 25 69 
82 26 43 
82 27 116 
82 32 112 
82 41 43 
82 46 132 
82 75 134 
82 79 180 
82 85 46 
82 90 82 
82 92 39 
83 26 142 
83 27 44 
83 28 80 
83 34 138 
83 35 46 
83 45 112 
83 46 124 
83 53 49 
83 54 119 
83 83 128 
83 84 53 
83 110 145 
83 120 207 
84 6 83 
84 7 128 
84 8 151 
84 15 147 
84 17 78 
84 19 93 
84 21 142 
84 22 85 
84 26 55 
84 33 132 
84 37 98 
84 39 65 
84 45 89 
84 74 150 
84 75 197 
84 93 66 
84 94 163 
84 95 86 
85 32 58 
85 35 136 
85 37 55 
85 42 175 
85 46 57 
85 74 164 
86 6 78 
86 7 122 
86 20 99 
86 21 131 
86 22 59 
86 24 103 
86 25 55 
86 30 78 
86 36 91 
86 41 183 
86 44 106 
86 53 43 
86 54 96 
86 75 178 
86 82 123 
86 83 42 
86 97 141 
86 112 130 
86 115 196 
87 13 182 
87 15 150 
87 16 110 
87 28 57 
87 29 126 
87 39 155 
87 40 211 
87 43 89 
87 44 188 
87 65 138 
87 75 121 
87 89 67 
87 93 43 
87 94 160 
87 98 157 
88 8 151 
88 38 131 
88 40 211 
88 41 131 
88 43 147 
88 44 50 
88 58 120 
88 73 105 
88 77 130 
88 110 143 
88 113 149 
88 114 193 
89 16 120 
89 21 113 
89 22 68 
89 24 66 
89 28 47 
89 29 180 
89 30 73 
89 36 111 
89 37 146 
89 42 130 
89 52 66 
89 69 125 
89 75 185 
89 79 143 
89 87 50 
89 88 101 
89 89 78 
90 15 180 
90 28 96 
90 29 169 
90 73 140 
90 77 135 
90 111 135 
90 113 157 
90 114 206 
91 7 113 
91 8 146 
91 10 177 
91 16 107 
91 17 68 
91 19 109 
91 22 53 
91 23 139 
91 24 48 
91 40 160 
91 48 55 
91 57 74 
91 58 97 
91 80 66 
91 93 47 
91 94 137 
92 14 170 
92 23 66 
92 27 57 
92 28 108 
92 30 83 
92 35 119 
92 37 134 
92 39 206 
92 42 50 
92 62 123 
92 71 136 
93 31 117 
93 41 45 
93 87 47 
93 88 97 
93 89 73 
94 4 51 
94 5 100 
94 56 67 
94 71 162 
94 77 154 
94 78 64 
94 97 149 
94 112 115 
94 113 181 
94 126 205 
95 7 122 
95 10 172 
95 29 122 
95 30 49 
95 114 224 
95 124 204 
95 127 178 
96 18 101 
96 28 48 
96 33 126 
96 62 61 
96 104 151 
96 110 135 
96 111 122 
96 121 208 
96 125 144 
96 127 48 
97 4 39 
97 5 73 
97 13 175 
97 15 144 
97 16 92 
97 20 53 
97 37 145 
97 38 70 
97 42 45 
97 63 116 
97 81 56 
97 87 59 
97 88 113 
97 93 64 
97 94 148 
97 114 220 
97 125 43 
98 0 55 
98 7 97 
98 8 136 
98 16 154 
98 19 81 
98 23 57 
98 27 47 
98 29 121 
98 31 91 
98 32 42 
98 35 112 
98 38 131 
98 39 58 
98 40 171 
98 67 135 
98 76 178 
98 80 106 
98 82 52 
98 104 123 
98 127 79 
99 0 95 
99 14 169 
99 17 56 
99 21 34 
99 22 90 
99 23 43 
99 25 57 
99 26 107 
99 33 120 
99 59 68 
99 60 92 
99 74 151 
99 81 202 
99 84 53 
99 89 76 
99 110 120 
99 119 205 
100 0 128 
100 3 81 
100 16 109 
100 22 42 
100 23 98 
100 24 32 
100 27 77 
100 29 32 
100 30 131 
100 33 80 
100 34 56 
100 39 111 
100 44 53 
100 54 49 
100 111 78 
100 112 144 
100 113 206 
100 124 68 
101 6 50 
101 10 166 
101 18 158 
101 19 39 
101 25 35 
101 26 138 
101 33 131 
101 83 208 
101 86 45 
101 118 194 
101 120 47 
102 2 153 
102 18 86 
102 26 75 
102 31 63 
102 33 68 
102 36 97 
102 43 92 
102 85 214 
102 86 184 
102 87 47 
102 88 86 
102 92 63 
102 94 148 
103 17 145 
103 39 139 
103 41 53 
103 42 162 
103 58 89 
103 59 46 
103 60 77 
103 61 115 
103 86 216 
103 87 179 
103 89 48 
103 110 127 
103 112 196 
103 119 52 
103 120 85 
103 123 85 
104 16 166 
104 17 64 
104 18 37 
104 34 74 
104 42 79 
104 43 176 
104 55 55 
104 88 126 
104 93 64 
104 111 133 
104 115 212 
104 117 160 
104 118 88 
104 123 106 
105 1 78 
105 2 127 
105 3 163 
105 5 144 
105 6 86 
105 7 48 
105 8 113 
105 9 159 
105 15 149 
105 31 44 
105 32 105 
105 44 79 
105 47 54 
105 68 142 
105 111 167 
106 1 47 
106 16 106 
106 35 94 
106 41 141 
106 58 107 
106 59 51 
106 75 164 
106 92 35 
106 93 137 
106 112 212 
106 116 185 
106 117 97 
107 25 39 
107 26 151 
107 27 37 
107 33 45 
107 42 32 
107 89 219 
107 90 39 
107 114 213 
108 2 91 
108 3 153 
108 5 156 
108 6 91 
108 7 36 
108 8 110 
108 9 154 
108 10 177 
108 14 179 
108 36 115 
108 42 121 
108 43 47 
108 44 172 
108 45 106 
108 46 40 
108 47 83 
108 55 55 
108 56 97 
108 58 121 
108 59 48 
108 60 94 
108 90 157 
108 91 36 
109 15 157 
109 17 48 
109 41 149 
109 43 112 
109 50 53 
109 92 32 
109 93 136 
109 107 131 
109 108 210 
109 115 155 
109 116 100 
110 7 35 
110 8 99 
110 9 159 
110 35 48 
110 41 81 
110 48 78 
110 62 128 
110 68 139 
110 81 187 
110 89 217 
111 2 63 
111 3 148 
111 4 172 
111 6 117 
111 40 121 
111 52 49 
111 56 121 
111 76 156 
112 10 173 
112 24 53 
112 28 60 
112 33 40 
112 34 91 
112 37 82 
112 38 121 
112 109 207 
112 113 196 
112 114 132 
113 4 167 
113 6 122 
113 7 47 
113 47 36 
113 48 68 
113 59 80 
113 61 133 
113 91 213 
113 92 78 
113 106 134 
114 2 39 
114 3 124 
114 51 48 
114 57 122 
114 58 55 
114 85 200 
114 92 108 
114 96 132 
114 127 90 
115 13 177 
115 16 136 
115 17 59 
115 19 41 
115 53 99 
115 90 214 
115 96 100 
115 109 146 
115 110 208 
115 115 98 
116 6 143 
116 7 63 
116 8 83 
116 9 141 
116 10 167 
116 18 84 
116 41 55 
116 43 101 
116 58 82 
116 59 127 
116 101 117 
116 112 185 
116 126 92 
116 127 58 
117 3 111 
117 4 169 
117 36 99 
117 44 48 
117 56 99 
117 57 37 
117 91 216 
117 101 71 
117 105 140 
117 108 150 
118 29 56 
118 35 36 
118 49 43 
118 51 85 
118 54 115 
118 58 125 
118 61 137 
118 78 155 
118 94 93 
118 110 215 
118 113 75 
119 3 102 
119 4 167 
119 6 169 
119 7 98 
119 13 178 
119 15 157 
119 16 98 
119 104 35 
119 105 153 
119 106 205 
120 47 36 
120 53 116 
120 54 42 
120 74 139 
120 93 215 
120 94 73 
120 108 186 
120 110 163 
120 111 65 
121 4 168 
121 9 138 
121 10 167 
121 38 67 
121 39 139 
121 40 83 
121 42 46 
121 49 79 
121 52 101 
121 53 34 
121 56 122 
121 95 93 
121 109 146 
122 3 110 
122 17 96 
122 18 37 
122 41 73 
122 50 58 
122 53 93 
122 83 170 
122 86 187 
122 104 91 
122 105 136 
122 106 201 
122 109 77 
123 15 166 
123 16 68 
123 40 148 
123 46 44 
123 94 208 
123 95 79 
123 105 111 
124 33 50 
124 40 56 
124 107 95 
124 119 93 
124 123 98 
124 124 74 
125 6 196 
125 8 103 
125 10 165 
125 29 45 
125 30 105 
125 32 101 
125 33 40 
125 37 74 
125 42 40 
125 49 109 
125 52 122 
125 98 106 
125 126 52 
126 17 46 
126 34 50 
126 41 95 
126 43 30 
126 80 154 
126 124 51 
127 0 46 
127 2 58 
127 4 157 
127 5 197 
127 7 185 
127 8 100 
127 10 162 
127 13 180 
127 15 115 
127 25 54 
127 27 137 
127 28 61 
127 33 101 
127 35 123 
127 36 38 
127 41 74 
127 42 130 
127 43 49 
127 47 105 
127 65 142 
127 94 210 
127 97 90 
127 108 125 
127 110 98 
127 116 77 
127 118 126 
127 127 100 
3 34 23 57 
3 12 23 34 
3 582 601 527 
3 601 602 527 
3 543 527 602 
3 565 543 602 
3 297 343 333 
3 343 344 333 
3 323 343 297 
3 298 297 333 
3 343 323 381 
3 322 726 419 
3 542 419 726 
3 676 542 726 
3 560 542 676 
3 634 560 676 
3 1281 1227 1357 
3 1260 1227 1281 
3 1313 1281 1357 
3 1338 1313 1359 
3 1300 1313 1338 
3 1301 1300 1338 
3 1338 1339 1301 
3 1358 1359 1313 
3 1359 1360 1338 
3 1357 1358 1313 
3 1227 1135 1357 
3 1199 1135 1227 
3 1048 1357 1135 
3 1155 1135 1199 
3 1127 1163 1128 
3 1136 1128 1163 
3 1162 1163 1127 
3 1067 1127 1128 
3 1032 1067 1128 
3 1106 1032 1128 
3 1179 1178 1237 
3 1136 1178 1179 
3 1237 1238 1179 
3 1163 1178 1136 
3 804 803 834 
3 767 803 804 
3 782 803 766 
3 767 766 803 
3 373 404 352 
3 404 405 352 
3 366 352 405 
3 389 366 405 
3 403 404 373 
3 338 373 352 
3 338 306 372 
3 254 306 338 
3 372 373 338 
3 238 254 240 
3 254 338 240 
3 290 338 330 
3 338 353 330 
3 290 240 338 
3 353 354 330 
3 353 352 366 
3 338 352 353 
3 14 27 7 
3 27 28 7 
3 15 7 28 
3 8 7 15 
3 25 26 17 
3 14 17 26 
3 26 27 14 
3 656 657 620 
3 640 620 657 
3 567 620 640 
3 568 567 640 
3 150 141 153 
3 136 141 150 
3 153 141 239 
3 153 239 209 
3 239 253 209 
3 191 239 141 
3 161 153 209 
3 174 161 209 
3 780 800 764 
3 800 801 764 
3 202 241 221 
3 241 257 221 
3 257 258 221 
3 222 221 258 
3 222 258 242 
3 258 273 242 
3 948 931 972 
3 923 931 948 
3 971 972 931 
3 595 631 596 
3 558 596 631 
3 631 595 663 
3 541 558 631 
3 172 171 190 
3 139 171 172 
3 101 139 172 
3 149 101 172 
3 160 149 172 
3 152 159 124 
3 134 124 159 
3 257 272 258 
3 272 295 258 
3 310 295 339 
3 273 295 310 
3 273 258 295 
3 294 295 272 
3 197 168 236 
3 145 168 197 
3 189 145 197 
3 970 1026 971 
3 972 971 1026 
3 1026 1027 972 
3 1004 972 1027 
3 1043 1026 1141 
3 1027 1026 1043 
3 1073 1043 1141 
3 1042 1141 1026 
3 1141 1197 1073 
3 1084 1073 1197 
3 1098 1084 1197 
3 1269 1279 1243 
3 1244 1243 1279 
3 1029 1008 1089 
3 973 1008 1029 
3 988 973 1029 
3 712 732 713 
3 732 733 713 
3 733 732 749 
3 627 654 618 
3 654 681 618 
3 681 682 618 
3 655 618 682 
3 619 618 655 
3 617 627 618 
3 88 76 92 
3 77 76 88 
3 92 75 140 
3 76 75 92 
3 808 807 904 
3 709 807 808 
3 892 808 904 
3 835 876 807 
3 876 904 807 
3 904 876 946 
3 920 946 876 
3 127 145 128 
3 145 146 128 
3 146 145 189 
3 100 99 127 
3 81 99 100 
3 127 128 100 
3 207 229 208 
3 229 230 208 
3 229 251 230 
3 247 230 251 
3 717 644 741 
3 645 644 717 
3 646 645 717 
3 717 718 646 
3 647 646 718 
3 648 647 718 
3 718 742 648 
3 21 5 24 
3 6 5 21 
3 420 465 421 
3 465 466 421 
3 465 501 466 
3 501 502 466 
3 437 491 459 
3 470 459 491 
3 491 510 470 
3 487 470 510 
3 436 491 437 
3 731 758 732 
3 749 732 758 
3 758 793 749 
3 793 794 749 
3 702 714 681 
3 714 715 681 
3 715 714 734 
3 1185 1184 1234 
3 1143 1184 1185 
3 1256 1242 1267 
3 1234 1242 1256 
3 1226 1234 1256 
3 1226 1185 1234 
3 1242 1278 1267 
3 1278 1311 1267 
3 871 916 858 
3 916 917 858 
3 955 962 916 
3 956 916 962 
3 917 916 956 
3 872 858 917 
3 859 858 872 
3 861 851 873 
3 820 851 861 
3 888 889 851 
3 873 851 889 
3 850 860 851 
3 860 888 851 
3 917 918 872 
3 899 872 918 
3 860 872 899 
3 888 860 899 
3 849 858 859 
3 830 849 859 
3 673 783 643 
3 783 784 643 
3 644 643 784 
3 741 644 784 
3 726 840 727 
3 840 841 727 
3 728 727 841 
3 841 842 728 
3 729 728 842 
3 814 729 842 
3 842 883 814 
3 696 727 728 
3 52 73 57 
3 73 80 57 
3 23 52 57 
3 1314 1315 1287 
3 1251 1287 1315 
3 1239 1251 1315 
3 1270 1239 1315 
3 1315 1366 1270 
3 1270 1366 1341 
3 1366 1367 1341 
3 1351 1366 1315 
3 1341 1342 1270 
3 1332 1270 1342 
3 1271 1270 1332 
3 1342 1343 1332 
3 1303 1271 1332 
3 1332 1345 1303 
3 1345 1332 1352 
3 1352 1370 1345 
3 1370 1371 1345 
3 1344 1352 1332 
3 1271 1303 1262 
3 1303 1304 1262 
3 1252 1262 1304 
3 1304 1305 1252 
3 1327 1303 1345 
3 1304 1303 1327 
3 1305 1304 1327 
3 1333 1327 1345 
3 397 387 413 
3 362 387 397 
3 368 387 362 
3 363 362 397 
3 27 38 28 
3 38 50 28 
3 50 38 56 
3 39 28 50 
3 50 51 39 
3 42 39 51 
3 273 312 268 
3 282 268 312 
3 260 268 282 
3 822 854 823 
3 854 877 823 
3 893 906 877 
3 823 877 906 
3 878 823 906 
3 809 822 823 
3 785 809 823 
3 754 785 823 
3 755 754 823 
3 786 755 823 
3 404 445 405 
3 445 446 405 
3 454 445 474 
3 446 445 454 
3 734 714 759 
3 759 775 734 
3 775 776 734 
3 760 734 776 
3 682 681 715 
3 703 682 715 
3 678 677 730 
3 637 677 678 
3 830 831 777 
3 761 777 831 
3 762 761 831 
3 831 850 762 
3 798 762 850 
3 850 851 798 
3 409 432 423 
3 432 449 423 
3 449 450 423 
3 433 423 450 
3 518 517 546 
3 485 517 518 
3 486 485 518 
3 469 486 518 
3 435 486 469 
3 1204 1205 1171 
3 1172 1171 1205 
3 1204 1240 1205 
3 1230 1205 1240 
3 1240 1264 1230 
3 1229 1240 1204 
3 812 857 813 
3 857 880 813 
3 826 855 811 
3 855 856 811 
3 856 857 811 
3 812 811 857 
3 997 998 951 
3 984 951 998 
3 938 951 984 
3 939 938 984 
3 940 939 984 
3 996 997 951 
3 978 996 951 
3 1340 1339 1363 
3 1301 1339 1340 
3 1362 1363 1339 
3 361 396 385 
3 396 436 385 
3 348 396 361 
3 436 437 385 
3 411 385 437 
3 166 167 138 
3 143 138 167 
3 113 106 138 
3 55 106 113 
3 63 55 113 
3 89 63 113 
3 138 133 166 
3 106 133 138 
3 37 25 41 
3 26 25 37 
3 27 26 37 
3 37 38 27 
3 331 330 355 
3 307 330 331 
3 307 290 330 
3 354 355 330 
3 608 591 630 
3 592 591 608 
3 649 630 675 
3 608 630 649 
3 674 648 742 
3 624 648 674 
3 719 674 742 
3 906 923 878 
3 836 823 878 
3 419 542 465 
3 501 465 542 
3 542 560 501 
3 560 561 501 
3 505 527 506 
3 527 543 506 
3 507 506 543 
3 543 544 507 
3 517 507 544 
3 508 507 517 
3 1356 1335 1382 
3 1336 1335 1356 
3 1382 1383 1356 
3 400 414 398 
3 414 415 398 
3 20 19 49 
3 4 19 20 
3 48 49 19 
3 45 20 49 
3 447 448 406 
3 418 406 448 
3 182 231 139 
3 171 139 231 
3 231 232 171 
3 190 171 232 
3 61 182 139 
3 43 182 61 
3 230 231 208 
3 182 208 231 
3 116 182 43 
3 182 116 205 
3 205 116 223 
3 436 528 491 
3 509 491 528 
3 528 549 509 
3 469 528 436 
3 370 398 388 
3 398 415 388 
3 369 398 370 
3 371 370 388 
3 180 185 165 
3 166 165 185 
3 185 186 166 
3 133 165 166 
3 1274 1293 1264 
3 1293 1310 1264 
3 1275 1264 1310 
3 1265 1264 1275 
3 724 723 757 
3 694 723 724 
3 560 634 561 
3 634 635 561 
3 72 84 67 
3 84 124 67 
3 66 67 50 
3 51 50 67 
3 66 72 67 
3 68 61 139 
3 101 68 139 
3 752 765 735 
3 736 735 765 
3 753 736 765 
3 422 421 466 
3 358 421 422 
3 869 868 913 
3 847 868 869 
3 912 913 868 
3 848 847 869 
3 816 847 848 
3 793 847 816 
3 869 870 848 
3 237 249 218 
3 243 218 249 
3 219 218 243 
3 243 244 219 
3 217 237 218 
3 42 85 33 
3 29 33 85 
3 16 29 85 
3 85 67 124 
3 42 67 85 
3 51 67 42 
3 339 332 376 
3 295 332 339 
3 376 356 406 
3 332 356 376 
3 721 769 722 
3 769 770 722 
3 744 722 770 
3 711 722 744 
3 720 743 721 
3 743 769 721 
3 699 748 731 
3 748 758 731 
3 678 748 699 
3 748 771 758 
3 771 792 758 
3 792 845 758 
3 758 846 793 
3 846 847 793 
3 845 846 758 
3 1101 1029 1185 
3 1046 1029 1101 
3 1062 1046 1101 
3 464 463 490 
3 448 463 464 
3 973 950 1008 
3 897 950 973 
3 1007 1006 1045 
3 966 1006 1007 
3 949 966 1007 
3 1007 1008 949 
3 950 949 1008 
3 1128 1136 1106 
3 1107 1106 1136 
3 1022 1021 1082 
3 1000 1021 1022 
3 1058 1082 1021 
3 1059 1022 1082 
3 1039 1058 1021 
3 489 512 493 
3 512 513 493 
3 415 489 493 
3 441 489 415 
3 452 415 493 
3 414 441 415 
3 401 388 452 
3 351 388 401 
3 350 388 351 
3 388 415 452 
3 320 350 329 
3 350 351 329 
3 305 320 329 
3 246 265 251 
3 265 274 251 
3 685 686 640 
3 658 640 686 
3 686 716 658 
3 668 684 640 
3 684 685 640 
3 1026 970 1042 
3 393 433 394 
3 433 434 394 
3 384 394 434 
3 424 384 434 
3 49 95 45 
3 95 120 45 
3 119 120 95 
3 5 45 30 
3 45 106 30 
3 30 106 55 
3 40 30 55 
3 628 670 659 
3 670 690 659 
3 642 628 659 
3 691 690 705 
3 659 690 691 
3 69 68 102 
3 44 68 69 
3 47 44 69 
3 53 47 69 
3 159 188 134 
3 602 620 565 
3 566 565 620 
3 567 566 620 
3 718 755 742 
3 755 786 742 
3 259 242 273 
3 215 222 242 
3 1371 1372 1345 
3 1353 1345 1372 
3 317 345 284 
3 285 284 345 
3 345 346 285 
3 346 347 285 
3 276 285 347 
3 347 395 276 
3 348 276 395 
3 266 276 348 
3 1213 1262 1252 
3 1212 1262 1213 
3 1203 1213 1252 
3 1211 1262 1212 
3 1192 1211 1212 
3 1270 1271 1210 
3 1262 1210 1271 
3 1211 1210 1262 
3 118 142 112 
3 142 151 112 
3 119 112 151 
3 151 163 119 
3 1089 1185 1029 
3 1185 1186 1101 
3 1134 1101 1186 
3 1089 1143 1185 
3 1114 1143 1089 
3 364 363 397 
3 349 363 364 
3 400 397 427 
3 364 397 400 
3 369 364 400 
3 326 364 369 
3 369 400 398 
3 335 326 369 
3 1164 1180 1138 
3 1165 1138 1180 
3 1151 1138 1165 
3 1091 1138 1092 
3 1110 1092 1138 
3 1137 1164 1091 
3 1138 1091 1164 
3 1192 1212 1164 
3 1212 1213 1164 
3 1203 1164 1213 
3 1180 1164 1203 
3 131 102 149 
3 69 102 131 
3 74 69 131 
3 131 140 74 
3 75 74 140 
3 117 191 141 
3 103 191 117 
3 132 117 141 
3 136 132 141 
3 103 92 140 
3 140 191 103 
3 110 103 117 
3 376 377 339 
3 367 339 377 
3 56 66 50 
3 1355 1294 1376 
3 1277 1294 1355 
3 1319 1277 1355 
3 1333 1345 1353 
3 684 704 685 
3 704 750 685 
3 686 750 716 
3 750 751 716 
3 686 685 750 
3 762 763 704 
3 750 704 763 
3 704 761 762 
3 703 761 683 
3 704 683 761 
3 624 674 630 
3 674 675 630 
3 623 606 673 
3 584 606 623 
3 573 606 584 
3 673 672 709 
3 606 672 673 
3 533 573 584 
3 162 175 163 
3 175 192 163 
3 1136 1179 1108 
3 1147 1108 1179 
3 1179 1208 1147 
3 315 358 340 
3 358 379 340 
3 379 358 422 
3 838 881 790 
3 881 882 790 
3 791 790 882 
3 839 791 882 
3 927 951 938 
3 1208 1239 1270 
3 1367 1368 1341 
3 562 561 635 
3 635 636 562 
3 1324 1380 1299 
3 1380 1381 1299 
3 1335 1299 1381 
3 1280 1299 1335 
3 64 63 89 
3 78 64 89 
3 65 64 78 
3 55 63 41 
3 63 64 41 
3 37 41 64 
3 38 37 64 
3 64 65 38 
3 56 38 65 
3 523 562 636 
3 636 637 523 
3 524 523 637 
3 637 638 524 
3 525 524 638 
3 612 525 638 
3 598 525 612 
3 580 525 598 
3 432 408 482 
3 381 408 432 
3 482 526 432 
3 526 525 580 
3 482 525 526 
3 503 432 526 
3 1108 1107 1136 
3 695 724 663 
3 631 663 724 
3 724 725 631 
3 757 789 724 
3 789 838 724 
3 725 724 838 
3 541 631 610 
3 631 725 610 
3 1214 1244 1215 
3 1244 1257 1215 
3 1245 1215 1257 
3 1257 1280 1245 
3 1216 1215 1245 
3 687 658 716 
3 735 716 752 
3 687 716 735 
3 752 751 764 
3 716 751 752 
3 764 801 752 
3 801 802 752 
3 1307 1328 1317 
3 1328 1347 1317 
3 1354 1375 1328 
3 1347 1328 1375 
3 1374 1375 1354 
3 853 854 822 
3 655 656 619 
3 602 619 656 
3 620 602 656 
3 929 955 916 
3 1152 1098 1197 
3 70 75 54 
3 75 76 54 
3 157 178 158 
3 178 193 158 
3 179 158 193 
3 1229 1221 1272 
3 1204 1221 1229 
3 1263 1272 1220 
3 1221 1220 1272 
3 1272 1273 1229 
3 146 189 169 
3 189 217 169 
3 217 218 169 
3 833 862 803 
3 862 875 803 
3 903 945 862 
3 920 862 945 
3 875 862 920 
3 834 803 875 
3 1133 1196 1141 
3 1196 1206 1141 
3 1206 1196 1294 
3 786 836 787 
3 836 837 787 
3 824 787 837 
3 168 109 322 
3 126 109 168 
3 145 126 168 
3 748 730 771 
3 678 730 748 
3 771 730 814 
3 216 197 236 
3 976 839 982 
3 625 839 976 
3 976 983 625 
3 747 839 666 
3 633 666 839 
3 625 633 839 
3 252 303 289 
3 303 304 289 
3 288 303 252 
3 279 252 289 
3 1351 1325 1365 
3 1326 1325 1351 
3 1364 1365 1325 
3 1340 1364 1325 
3 395 347 424 
3 410 395 424 
3 395 396 348 
3 299 266 348 
3 1264 1240 1274 
3 1028 1043 1073 
3 115 146 135 
3 146 169 135 
3 923 948 878 
3 879 948 924 
3 948 964 924 
3 879 878 948 
3 972 1004 948 
3 964 948 1004 
3 636 635 698 
3 697 698 635 
3 677 636 698 
3 698 729 677 
3 1227 1228 1199 
3 1217 1199 1228 
3 1200 1199 1217 
3 1201 1200 1217 
3 496 537 497 
3 537 538 497 
3 498 497 538 
3 18 44 47 
3 2 44 18 
3 3 2 18 
3 47 54 18 
3 89 107 96 
3 107 108 96 
3 107 89 113 
3 644 645 576 
3 555 576 645 
3 577 555 645 
3 645 646 577 
3 638 699 612 
3 638 678 699 
3 676 696 634 
3 696 697 634 
3 635 634 697 
3 674 719 710 
3 719 743 710 
3 743 719 768 
3 768 719 787 
3 500 558 490 
3 541 490 558 
3 318 368 362 
3 361 368 324 
3 318 324 368 
3 334 318 362 
3 348 361 324 
3 385 386 361 
3 368 361 386 
3 1051 1147 1070 
3 1079 1070 1147 
3 1069 1108 1051 
3 1108 1147 1051 
3 1052 1051 1070 
3 1053 1052 1070 
3 1078 1108 1069 
3 1129 1079 1149 
3 1080 1079 1129 
3 1147 1148 1079 
3 1148 1149 1079 
3 239 279 253 
3 279 305 253 
3 305 306 253 
3 254 253 306 
3 844 885 866 
3 885 910 866 
3 910 911 866 
3 939 940 910 
3 911 910 940 
3 845 844 866 
3 846 845 866 
3 866 867 846 
3 31 41 25 
3 754 741 785 
3 717 741 754 
3 530 572 551 
3 572 622 551 
3 551 622 606 
3 622 629 606 
3 629 672 606 
3 709 808 673 
3 1045 1005 1074 
3 1006 1005 1045 
3 1086 1087 1074 
3 1045 1074 1087 
3 1044 1074 1005 
3 1073 1084 1044 
3 1074 1044 1084 
3 1084 1085 1074 
3 898 864 935 
3 865 864 898 
3 935 864 967 
3 935 936 898 
3 864 726 967 
3 840 726 864 
3 967 968 935 
3 967 726 1011 
3 952 940 999 
3 941 940 952 
3 984 999 940 
3 999 1016 952 
3 1336 1337 1258 
3 1259 1258 1337 
3 1337 1350 1259 
3 1350 1383 1259 
3 1245 1335 1258 
3 1335 1336 1258 
3 1245 1280 1335 
3 163 192 164 
3 176 164 192 
3 192 210 176 
3 210 211 176 
3 1082 1081 1109 
3 1058 1081 1082 
3 1341 1368 1342 
3 1368 1369 1342 
3 1343 1342 1369 
3 1011 1049 994 
3 995 994 1049 
3 1049 1066 995 
3 1012 995 1066 
3 106 45 121 
3 120 121 45 
3 121 122 106 
3 1197 1141 1206 
3 1206 1277 1197 
3 1232 1197 1277 
3 1277 1319 1232 
3 1319 1320 1232 
3 1266 1232 1320 
3 1241 1232 1266 
3 237 263 249 
3 263 296 249 
3 296 263 315 
3 205 206 182 
3 206 207 182 
3 207 208 182 
3 495 516 472 
3 473 472 516 
3 496 473 516 
3 474 473 496 
3 471 495 472 
3 1295 1266 1320 
3 1278 1266 1295 
3 1233 1266 1278 
3 1242 1233 1278 
3 1295 1296 1278 
3 251 275 247 
3 275 284 247 
3 284 285 247 
3 248 247 285 
3 157 156 177 
3 121 156 157 
3 177 178 157 
3 662 695 663 
3 1235 1188 1258 
3 1119 1188 1235 
3 1188 1245 1258 
3 1174 1222 1195 
3 1222 1223 1195 
3 1223 1222 1255 
3 1150 1210 1192 
3 1210 1211 1192 
3 820 798 851 
3 778 762 798 
3 1005 1006 964 
3 965 964 1006 
3 966 965 1006 
3 384 424 347 
3 287 318 300 
3 318 334 300 
3 528 518 547 
3 469 518 528 
3 518 569 547 
3 569 603 547 
3 547 548 528 
3 151 162 163 
3 163 164 119 
3 156 119 164 
3 120 119 156 
3 164 176 156 
3 155 162 151 
3 383 392 359 
3 392 393 359 
3 393 394 359 
3 384 359 394 
3 359 344 383 
3 333 344 359 
3 316 333 359 
3 317 316 359 
3 360 359 384 
3 345 317 359 
3 661 693 651 
3 693 694 651 
3 694 693 723 
3 973 988 897 
3 907 897 988 
3 2 43 61 
3 964 965 924 
3 925 924 965 
3 965 966 925 
3 926 925 966 
3 1004 1028 964 
3 1005 964 1028 
3 978 1013 996 
3 1013 1067 996 
3 1032 996 1067 
3 1060 1024 1083 
3 1002 1024 1060 
3 1059 1092 1083 
3 1092 1093 1083 
3 1024 1059 1083 
3 1082 1091 1059 
3 1091 1092 1059 
3 1023 1059 1024 
3 945 1002 1060 
3 959 1002 945 
3 1060 1061 945 
3 203 226 204 
3 187 204 226 
3 226 203 235 
3 188 187 226 
3 656 655 682 
3 682 703 656 
3 683 656 703 
3 97 85 124 
3 124 125 97 
3 114 97 125 
3 125 134 114 
3 1167 1168 1131 
3 1168 1169 1131 
3 1132 1131 1169 
3 1151 1166 1131 
3 1166 1167 1131 
3 1110 1151 1131 
3 1167 1181 1168 
3 1181 1220 1168 
3 1194 1168 1220 
3 1169 1168 1194 
3 1170 1169 1194 
3 481 480 523 
3 457 480 481 
3 523 524 481 
3 524 525 481 
3 482 481 525 
3 561 562 502 
3 523 502 562 
3 480 502 523 
3 1065 1105 1030 
3 1105 1119 1030 
3 1119 1235 1030 
3 1146 1188 1119 
3 1104 1146 1119 
3 1118 1146 1104 
3 170 169 198 
3 147 169 170 
3 1207 1190 1219 
3 1191 1190 1207 
3 1189 1219 1190 
3 1219 1249 1207 
3 1249 1250 1207 
3 1202 1219 1189 
3 1218 1219 1202 
3 1376 1377 1355 
3 1320 1355 1377 
3 1319 1355 1320 
3 1329 1320 1377 
3 1320 1329 1295 
3 260 282 235 
3 226 235 282 
3 282 479 226 
3 188 226 479 
3 114 188 479 
3 559 464 610 
3 378 464 559 
3 479 378 559 
3 282 378 479 
3 626 652 639 
3 652 653 639 
3 612 652 626 
3 615 626 639 
3 1179 1239 1208 
3 534 553 512 
3 520 512 553 
3 513 512 520 
3 553 554 520 
3 236 237 216 
3 262 263 236 
3 237 236 263 
3 1049 1077 1066 
3 1077 1123 1066 
3 1122 1123 1077 
3 1123 1124 1066 
3 488 489 440 
3 441 440 489 
3 489 488 511 
3 461 488 440 
3 291 307 292 
3 307 308 292 
3 321 307 331 
3 308 307 321 
3 493 494 452 
3 379 422 407 
3 422 457 407 
3 457 458 407 
3 408 407 458 
3 458 482 408 
3 342 408 381 
3 424 435 410 
3 435 469 410 
3 436 410 469 
3 1061 1060 1132 
3 1111 1131 1083 
3 1131 1132 1083 
3 1060 1083 1132 
3 969 945 1061 
3 963 1002 959 
3 239 201 252 
3 191 201 239 
3 926 966 949 
3 1346 1333 1353 
3 1316 1333 1346 
3 1327 1333 1316 
3 1306 1316 1346 
3 1173 1172 1205 
3 198 218 219 
3 588 587 624 
3 556 587 588 
3 646 647 577 
3 578 577 647 
3 587 578 647 
3 647 648 587 
3 624 587 648 
3 211 212 176 
3 177 176 212 
3 212 213 177 
3 178 177 213 
3 193 178 213 
3 358 357 421 
3 313 357 358 
3 314 313 358 
3 420 421 357 
3 301 300 334 
3 325 301 334 
3 900 899 944 
3 888 899 900 
3 944 918 958 
3 899 918 944 
3 919 900 944 
3 901 900 919 
3 944 959 919 
3 1268 1290 1269 
3 1290 1297 1269 
3 1381 1382 1335 
3 723 693 745 
3 745 756 723 
3 660 661 650 
3 609 650 661 
3 594 609 661 
3 651 594 661 
3 405 429 389 
3 399 389 429 
3 429 430 399 
3 430 431 399 
3 429 405 446 
3 652 700 679 
3 700 701 679 
3 701 700 713 
3 1325 1302 1340 
3 1285 1302 1325 
3 1286 1285 1325 
3 1377 1378 1330 
3 1349 1330 1378 
3 1311 1349 1267 
3 1311 1330 1349 
3 1321 1267 1349 
3 1288 1267 1321 
3 248 285 276 
3 232 266 299 
3 921 930 905 
3 922 905 930 
3 930 921 961 
3 115 100 128 
3 128 146 115 
3 437 459 438 
3 459 460 438 
3 411 437 438 
3 425 411 438 
3 412 411 425 
3 986 980 1019 
3 962 980 986 
3 979 1018 980 
3 1018 1019 980 
3 1019 1020 986 
3 1019 1018 1056 
3 1054 1055 1017 
3 1018 1017 1055 
3 1055 1056 1018 
3 434 435 424 
3 485 486 434 
3 435 434 486 
3 350 336 365 
3 320 336 350 
3 556 588 536 
3 588 589 536 
3 589 590 536 
3 590 591 536 
3 516 536 591 
3 535 587 556 
3 516 537 496 
3 537 516 591 
3 591 592 537 
3 495 536 516 
3 1252 1253 1203 
3 1193 1203 1253 
3 1181 1253 1220 
3 1253 1263 1220 
3 1181 1193 1253 
3 937 978 951 
3 1322 1331 1323 
3 1331 1334 1323 
3 1365 1366 1351 
3 380 379 407 
3 225 209 253 
3 253 254 225 
3 844 843 885 
3 815 843 844 
3 909 934 882 
3 839 882 934 
3 934 991 839 
3 982 839 991 
3 974 932 989 
3 933 932 974 
3 974 975 933 
3 934 933 975 
3 975 981 934 
3 981 991 934 
3 991 981 1047 
3 1009 1047 981 
3 1209 1208 1270 
3 232 231 266 
3 114 134 188 
3 125 124 134 
3 874 891 862 
3 891 903 862 
3 852 874 862 
3 569 568 640 
3 546 568 569 
3 485 468 508 
3 434 468 485 
3 433 468 434 
3 508 517 485 
3 256 257 241 
3 256 272 257 
3 304 303 328 
3 278 301 288 
3 301 325 288 
3 325 326 288 
3 302 288 326 
3 319 302 326 
3 1048 1120 1077 
3 1120 1121 1077 
3 913 914 870 
3 886 870 914 
3 848 870 886 
3 829 848 886 
3 827 816 848 
3 1050 1032 1106 
3 1090 1050 1106 
3 1068 1050 1078 
3 1033 1050 1068 
3 1078 1050 1090 
3 1014 1032 1050 
3 1033 1014 1050 
3 503 527 504 
3 505 504 527 
3 1134 1186 1144 
3 1186 1215 1144 
3 1214 1215 1186 
3 1154 1144 1215 
3 1187 1154 1215 
3 372 416 402 
3 416 442 402 
3 544 545 517 
3 1238 1239 1179 
3 1163 1207 1178 
3 1207 1236 1178 
3 1236 1237 1178 
3 1162 1207 1163 
3 1306 1346 1328 
3 1346 1354 1328 
3 448 464 418 
3 390 418 464 
3 378 390 464 
3 376 418 390 
3 1375 1376 1348 
3 1310 1348 1376 
3 1276 1310 1376 
3 1318 1348 1310 
3 1275 1310 1276 
3 70 74 75 
3 58 59 34 
3 35 34 59 
3 59 60 35 
3 36 35 60 
3 1124 1125 1066 
3 1125 1126 1066 
3 1067 1066 1126 
3 1126 1127 1067 
3 1013 1066 1067 
3 1012 1066 1013 
3 1145 1188 1146 
3 1154 1187 1145 
3 1187 1188 1145 
3 1116 1154 1145 
3 967 995 968 
3 977 968 995 
3 995 1012 977 
3 277 299 286 
3 299 318 286 
3 318 299 324 
3 494 515 453 
3 515 522 453 
3 515 577 522 
3 577 578 522 
3 555 577 515 
3 416 453 522 
3 442 416 522 
3 657 656 683 
3 956 962 986 
3 986 1000 956 
3 956 957 917 
3 918 917 957 
3 957 958 918 
3 1000 986 1021 
3 957 956 1000 
3 977 1013 978 
3 838 789 897 
3 961 960 970 
3 921 960 961 
3 892 960 921 
3 987 1003 960 
3 1003 1025 960 
3 970 960 1025 
3 1096 1140 1097 
3 1140 1175 1097 
3 1175 1195 1097 
3 1133 1097 1195 
3 1003 1097 1025 
3 1097 1133 1025 
3 11 6 21 
3 17 11 21 
3 14 11 17 
3 573 551 606 
3 531 551 573 
3 1028 1044 1005 
3 341 380 342 
3 380 408 342 
3 407 408 380 
3 323 342 381 
3 270 342 323 
3 262 314 263 
3 314 315 263 
3 314 358 315 
3 230 247 248 
3 231 230 248 
3 271 240 290 
3 280 271 290 
3 255 240 271 
3 223 227 205 
3 245 223 250 
3 227 223 245 
3 261 262 236 
3 238 225 254 
3 44 2 61 
3 589 588 624 
3 624 630 589 
3 726 727 676 
3 696 676 727 
3 567 568 545 
3 517 545 568 
3 546 517 568 
3 1034 1069 1051 
3 54 47 62 
3 62 53 74 
3 47 53 62 
3 69 74 53 
3 1094 1061 1112 
3 1040 1061 1094 
3 1094 1095 1040 
3 1095 1096 1040 
3 1041 1040 1096 
3 1064 1116 1075 
3 1116 1117 1075 
3 1009 1064 1075 
3 1047 1009 1075 
3 794 793 816 
3 1182 1170 1194 
3 1132 1170 1182 
3 1042 1025 1133 
3 970 1025 1042 
3 946 920 969 
3 875 920 876 
3 637 636 677 
3 99 98 126 
3 80 98 99 
3 98 109 126 
3 471 522 495 
3 522 535 495 
3 535 536 495 
3 471 442 522 
3 505 506 484 
3 468 484 506 
3 506 507 468 
3 507 508 468 
3 58 57 91 
3 34 57 58 
3 81 100 57 
3 91 57 100 
3 613 612 626 
3 652 612 699 
3 699 700 652 
3 1142 1143 1114 
3 734 761 703 
3 1095 1140 1096 
3 730 729 814 
3 865 898 842 
3 883 842 898 
3 843 814 883 
3 883 884 843 
3 746 747 664 
3 665 664 747 
3 666 665 747 
3 610 725 664 
3 725 746 664 
3 825 826 769 
3 811 769 826 
3 341 340 380 
3 296 340 341 
3 559 597 479 
3 935 977 936 
3 977 978 936 
3 1227 1260 1228 
3 1260 1261 1228 
3 1246 1228 1261 
3 1217 1228 1246 
3 1218 1217 1246 
3 1261 1283 1246 
3 249 269 243 
3 575 607 576 
3 607 644 576 
3 643 644 607 
3 46 116 43 
3 339 367 310 
3 311 310 367 
3 367 378 311 
3 312 311 378 
3 282 312 378 
3 535 522 578 
3 651 663 595 
3 1180 1193 1181 
3 1165 1180 1181 
3 22 29 15 
3 16 15 29 
3 8 15 16 
3 9 8 16 
3 381 382 343 
3 344 343 382 
3 547 603 570 
3 603 621 570 
3 621 603 641 
3 286 318 287 
3 277 232 299 
3 224 232 277 
3 277 278 224 
3 201 224 278 
3 679 701 680 
3 701 714 680 
3 714 701 733 
3 702 680 714 
3 10 43 2 
3 580 599 563 
3 581 563 599 
3 599 580 615 
3 616 615 627 
3 599 615 616 
3 627 615 639 
3 526 580 563 
3 1272 1307 1273 
3 1307 1308 1273 
3 1308 1307 1317 
3 1291 1307 1272 
3 1216 1245 1188 
3 1187 1216 1188 
3 853 783 921 
3 784 783 853 
3 863 921 905 
3 892 921 783 
3 863 853 921 
3 946 947 904 
3 945 969 920 
3 280 291 281 
3 291 292 281 
3 271 280 281 
3 267 271 281 
3 774 775 759 
3 1280 1279 1299 
3 1257 1279 1280 
3 1298 1299 1279 
3 643 623 673 
3 198 169 218 
3 1112 1061 1132 
3 887 916 871 
3 1202 1201 1218 
3 1157 1201 1202 
3 1217 1218 1201 
3 1156 1201 1157 
3 1122 1156 1157 
3 1123 1122 1157 
3 101 102 68 
3 365 388 350 
3 511 492 531 
3 488 492 511 
3 531 532 511 
3 430 456 431 
3 456 477 431 
3 477 499 431 
3 499 500 431 
3 417 431 500 
3 375 431 417 
3 399 431 375 
3 478 417 500 
3 462 417 478 
3 447 417 462 
3 406 417 447 
3 763 762 778 
3 39 42 32 
3 33 32 42 
3 1045 1088 1007 
3 1088 1089 1007 
3 1008 1007 1089 
3 1055 1079 1080 
3 1071 1079 1054 
3 1055 1054 1079 
3 632 610 664 
3 559 610 632 
3 115 135 91 
3 129 91 135 
3 86 91 129 
3 129 130 86 
3 87 86 130 
3 116 87 130 
3 1152 1153 1113 
3 1100 1113 1153 
3 1142 1100 1153 
3 1114 1100 1142 
3 1113 1098 1152 
3 1198 1197 1232 
3 1152 1197 1198 
3 1176 1152 1198 
3 1099 1098 1113 
3 20 45 5 
3 24 5 30 
3 534 533 584 
3 519 533 534 
3 552 573 533 
3 122 137 106 
3 133 106 137 
3 137 165 133 
3 165 158 179 
3 137 158 165 
3 121 157 137 
3 157 158 137 
3 121 137 122 
3 121 120 156 
3 1363 1364 1340 
3 789 813 880 
3 880 897 789 
3 838 897 907 
3 1274 1273 1292 
3 1240 1273 1274 
3 12 0 23 
3 1 0 12 
3 256 267 281 
3 131 149 140 
3 149 173 140 
3 173 201 140 
3 191 140 201 
3 101 149 102 
3 147 170 148 
3 170 199 148 
3 199 223 148 
3 116 148 223 
3 987 969 1040 
3 947 969 987 
3 946 969 947 
3 960 947 987 
3 904 947 960 
3 406 418 376 
3 623 643 607 
3 223 219 244 
3 199 219 223 
3 464 541 610 
3 992 1010 993 
3 1010 1030 993 
3 1148 1208 1209 
3 1147 1208 1148 
3 1149 1148 1209 
3 778 779 763 
3 1379 1380 1334 
3 1324 1334 1380 
3 1324 1323 1334 
3 1297 1323 1324 
3 1289 1323 1290 
3 1297 1290 1323 
3 1312 1297 1324 
3 335 370 336 
3 370 371 336 
3 365 336 371 
3 327 335 328 
3 335 336 328 
3 309 332 294 
3 295 294 332 
3 1263 1306 1291 
3 1306 1328 1291 
3 1189 1157 1202 
3 1158 1157 1189 
3 1116 1102 1144 
3 1064 1102 1116 
3 1063 1102 1064 
3 806 835 807 
3 740 806 807 
3 1300 1281 1313 
3 502 501 561 
3 1312 1324 1298 
3 1299 1298 1324 
3 319 326 335 
3 325 364 326 
3 201 183 224 
3 173 183 201 
3 201 278 288 
3 252 201 288 
3 200 224 183 
3 160 183 173 
3 550 572 529 
3 530 529 572 
3 1296 1311 1278 
3 1234 1233 1242 
3 548 570 528 
3 570 571 528 
3 549 528 571 
3 1002 1001 1024 
3 963 1001 1002 
3 958 1001 963 
3 1000 1001 957 
3 958 957 1001 
3 316 298 333 
3 274 298 316 
3 275 274 316 
3 582 618 619 
3 667 681 654 
3 306 401 372 
3 401 416 372 
3 351 401 337 
3 306 337 401 
3 458 457 481 
3 1204 1194 1221 
3 1182 1194 1204 
3 1041 1097 1003 
3 389 399 374 
3 375 374 399 
3 356 375 417 
3 406 356 417 
3 776 775 797 
3 269 249 296 
3 283 269 296 
3 78 82 65 
3 79 65 82 
3 71 65 79 
3 653 652 667 
3 667 652 679 
3 679 680 667 
3 633 632 666 
3 611 632 633 
3 665 666 632 
3 841 865 842 
3 691 692 659 
3 671 659 692 
3 152 196 187 
3 196 204 187 
3 203 204 196 
3 159 152 187 
3 152 144 196 
3 123 144 152 
3 108 123 152 
3 84 108 152 
3 124 84 152 
3 742 787 719 
3 1233 1234 1225 
3 1184 1225 1234 
3 1224 1225 1183 
3 1184 1183 1225 
3 1198 1224 1183 
3 922 931 906 
3 923 906 931 
3 786 823 836 
3 86 58 91 
3 59 58 86 
3 894 879 924 
3 837 879 894 
3 924 925 894 
3 925 926 894 
3 987 1041 1003 
3 1096 1097 1041 
3 937 936 978 
3 452 494 453 
3 1337 1336 1356 
3 1205 1222 1173 
3 1205 1230 1222 
3 1230 1231 1222 
3 1174 1173 1222 
3 1175 1174 1195 
3 954 979 955 
3 979 980 955 
3 962 955 980 
3 979 953 985 
3 954 953 979 
3 1016 999 1035 
3 1034 1035 999 
3 1035 1036 1016 
3 1015 1034 999 
3 985 952 1016 
3 953 952 985 
3 1017 1016 1037 
3 985 1016 1017 
3 943 952 953 
3 60 87 46 
3 87 116 46 
3 296 341 283 
3 341 342 283 
3 270 283 342 
3 500 499 540 
3 1121 1122 1077 
3 1048 1077 1049 
3 175 174 209 
3 192 175 209 
3 557 540 595 
3 500 540 557 
3 579 594 540 
3 594 595 540 
3 287 300 278 
3 300 301 278 
3 1240 1229 1273 
3 989 990 974 
3 932 907 988 
3 988 989 932 
3 54 76 77 
3 18 54 77 
3 628 642 604 
3 605 604 642 
3 629 605 642 
3 622 605 629 
3 570 621 571 
3 604 571 621 
3 621 628 604 
3 510 530 487 
3 492 487 530 
3 530 551 492 
3 531 492 551 
3 1112 1139 1094 
3 1139 1140 1094 
3 1095 1094 1140 
3 597 625 479 
3 893 863 905 
3 877 863 893 
3 1231 1255 1222 
3 1255 1276 1223 
3 940 941 911 
3 912 911 941 
3 898 936 937 
3 898 937 883 
3 467 432 503 
3 483 467 503 
3 503 504 483 
3 100 115 91 
3 80 99 81 
3 1103 1118 1104 
3 1263 1252 1306 
3 1253 1252 1263 
3 1305 1306 1252 
3 1306 1305 1316 
3 697 728 698 
3 728 729 698 
3 746 791 747 
3 791 839 747 
3 452 453 401 
3 416 401 453 
3 322 419 357 
3 419 420 357 
3 1196 1195 1223 
3 1133 1195 1196 
3 293 294 272 
3 362 363 334 
3 3 19 4 
3 241 240 255 
3 220 240 241 
3 214 220 241 
3 212 234 220 
3 234 240 220 
3 0 109 52 
3 73 52 109 
3 98 73 109 
3 244 270 223 
3 223 270 250 
3 270 323 250 
3 228 246 229 
3 246 251 229 
3 603 658 641 
3 658 669 641 
3 669 658 687 
3 1150 1149 1209 
3 1129 1149 1150 
3 1209 1210 1150 
3 1210 1209 1270 
3 269 283 270 
3 825 894 855 
3 894 895 855 
3 824 837 894 
3 810 824 894 
3 825 810 894 
3 147 135 169 
3 129 135 147 
3 801 800 832 
3 801 832 821 
3 832 833 821 
3 297 250 323 
3 264 250 297 
3 95 112 119 
3 94 112 95 
3 227 246 228 
3 1080 1130 1081 
3 1109 1081 1130 
3 1057 1056 1072 
3 1019 1056 1057 
3 1056 1080 1072 
3 1080 1081 1072 
3 143 167 144 
3 167 215 144 
3 221 222 186 
3 181 186 222 
3 167 181 222 
3 215 167 222 
3 181 166 186 
3 585 623 607 
3 534 584 574 
3 584 585 574 
3 553 534 574 
3 584 623 585 
3 519 534 512 
3 1283 1282 1300 
3 1261 1282 1283 
3 1265 1275 1254 
3 1255 1254 1275 
3 34 35 12 
3 13 12 35 
3 35 36 13 
3 1 13 36 
3 36 46 1 
3 10 1 46 
3 1226 1268 1269 
3 1243 1226 1269 
3 1214 1226 1243 
3 12 13 1 
3 1182 1204 1171 
3 48 94 49 
3 94 95 49 
3 77 105 48 
3 94 48 105 
3 48 18 77 
3 19 18 48 
3 105 112 94 
3 938 939 910 
3 884 883 927 
3 910 884 927 
3 927 938 910 
3 784 785 741 
3 783 673 808 
3 1347 1348 1317 
3 217 216 237 
3 189 216 217 
3 535 578 587 
3 1286 1287 1237 
3 1251 1237 1287 
3 1286 1314 1287 
3 564 582 527 
3 503 564 527 
3 526 564 503 
3 494 493 514 
3 513 520 514 
3 520 521 514 
3 493 513 514 
3 25 21 31 
3 17 21 25 
3 40 41 31 
3 31 30 40 
3 1133 1141 1042 
3 707 740 708 
3 740 807 708 
3 709 708 807 
3 396 410 436 
3 396 395 410 
3 36 60 46 
3 705 706 691 
3 413 426 397 
3 426 427 397 
3 18 19 3 
3 826 825 855 
3 895 926 949 
3 895 894 926 
3 908 907 932 
3 881 907 908 
3 932 933 908 
3 1243 1244 1214 
3 1314 1326 1315 
3 1326 1351 1315 
3 233 225 238 
3 234 238 240 
3 234 233 238 
3 211 233 234 
3 212 211 234 
3 490 541 464 
3 478 490 462 
3 463 462 490 
3 1117 1116 1145 
3 1145 1146 1117 
3 1117 1118 1075 
3 1103 1075 1118 
3 1206 1294 1277 
3 130 148 116 
3 1378 1379 1349 
3 1331 1349 1379 
3 1331 1321 1349 
3 1334 1331 1379 
3 808 892 783 
3 906 893 922 
3 15 28 22 
3 28 32 22 
3 32 33 22 
3 29 22 33 
3 657 668 640 
3 601 619 602 
3 277 286 287 
3 278 277 287 
3 142 136 150 
3 118 136 142 
3 316 317 275 
3 284 275 317 
3 1040 969 1061 
3 1040 1041 987 
3 127 126 145 
3 99 126 127 
3 1169 1170 1132 
3 259 260 242 
3 200 190 232 
3 224 200 232 
3 930 970 971 
3 961 970 930 
3 904 960 892 
3 86 87 59 
3 60 59 87 
3 1350 1337 1356 
3 572 605 622 
3 583 605 572 
3 183 172 200 
3 160 172 183 
3 190 200 172 
3 236 168 322 
3 261 236 322 
3 867 866 911 
3 911 912 867 
3 868 867 912 
3 315 340 296 
3 765 782 753 
3 753 782 766 
3 382 383 344 
3 1088 1100 1114 
3 1087 1100 1045 
3 1088 1045 1100 
3 611 633 597 
3 625 597 633 
3 538 539 498 
3 499 498 539 
3 1248 1284 1249 
3 1284 1301 1249 
3 1301 1302 1249 
3 1250 1249 1302 
3 1285 1250 1302 
3 1236 1250 1285 
3 595 596 557 
3 558 557 596 
3 557 558 500 
3 677 729 730 
3 805 806 740 
3 1347 1375 1348 
3 1350 1356 1383 
3 1171 1172 1112 
3 1139 1112 1172 
3 1172 1173 1139 
3 1132 1182 1112 
3 1171 1112 1182 
3 1232 1241 1198 
3 1224 1198 1241 
3 466 502 480 
3 1120 1135 1121 
3 1135 1155 1121 
3 1155 1156 1121 
3 1122 1121 1156 
3 927 883 937 
3 937 951 927 
3 637 678 638 
3 1255 1275 1276 
3 196 144 215 
3 186 185 202 
3 186 202 221 
3 184 179 193 
3 193 194 184 
3 772 749 794 
3 455 456 429 
3 430 429 456 
3 446 455 429 
3 313 322 357 
3 261 322 313 
3 154 161 155 
3 161 174 155 
3 155 174 162 
3 174 175 162 
3 642 671 629 
3 671 672 629 
3 672 671 708 
3 708 709 672 
3 324 299 348 
3 40 55 41 
3 0 52 23 
3 420 419 465 
3 466 480 422 
3 457 422 480 
3 706 740 707 
3 857 896 880 
3 896 897 880 
3 856 896 857 
3 896 950 897 
3 1 10 2 
3 1037 1038 1017 
3 1164 1150 1192 
3 1137 1150 1164 
3 1292 1293 1274 
3 1196 1223 1276 
3 1276 1294 1196 
3 1294 1276 1376 
3 1093 1111 1083 
3 770 811 812 
3 756 770 812 
3 744 770 756 
3 745 744 756 
3 788 756 812 
3 82 78 90 
3 90 89 96 
3 78 89 90 
3 967 1011 994 
3 1031 1049 1011 
3 1031 1048 1049 
3 1101 1102 1062 
3 1063 1062 1102 
3 999 984 1015 
3 935 968 977 
3 756 757 723 
3 725 790 746 
3 790 791 746 
3 1268 1267 1288 
3 1256 1267 1268 
3 1288 1289 1268 
3 1226 1256 1268 
3 1288 1322 1289 
3 1322 1323 1289 
3 1321 1322 1288 
3 187 188 159 
3 989 1029 1046 
3 988 1029 989 
3 4 20 5 
3 1279 1269 1297 
3 1297 1298 1279 
3 1297 1312 1298 
3 297 298 264 
3 265 264 298 
3 274 265 298 
3 43 10 46 
3 931 930 971 
3 922 930 931 
3 93 105 77 
3 105 118 112 
3 869 913 870 
3 913 943 928 
3 943 953 928 
3 914 913 928 
3 1105 1104 1119 
3 210 233 211 
3 210 225 233 
3 831 830 859 
3 850 831 859 
3 859 860 850 
3 599 617 581 
3 581 617 600 
3 617 618 600 
3 373 372 402 
3 402 403 373 
3 1102 1101 1115 
3 611 559 632 
3 202 214 241 
3 1120 1048 1135 
3 586 607 575 
3 521 576 555 
3 377 390 367 
3 378 367 390 
3 902 919 903 
3 919 959 903 
3 945 903 959 
3 252 279 239 
3 489 519 512 
3 768 825 769 
3 768 769 743 
3 810 825 768 
3 812 813 788 
3 770 769 811 
3 150 154 142 
3 151 142 154 
3 154 155 151 
3 976 992 983 
3 992 993 983 
3 982 992 976 
3 497 498 476 
3 477 476 498 
3 498 499 477 
3 853 863 854 
3 863 877 854 
3 426 425 439 
3 413 425 426 
3 985 1017 1018 
3 345 360 346 
3 347 346 360 
3 360 384 347 
3 559 611 597 
3 949 950 895 
3 896 895 950 
3 104 105 93 
3 675 674 710 
3 403 444 404 
3 444 445 404 
3 402 443 403 
3 443 444 403 
3 442 443 402 
3 156 176 177 
3 111 118 105 
3 986 1039 1021 
3 1020 1039 986 
3 711 744 693 
3 744 745 693 
3 595 594 651 
3 802 821 781 
3 803 781 821 
3 821 833 803 
3 1285 1286 1236 
3 1237 1236 1286 
3 1238 1237 1251 
3 334 349 325 
3 349 364 325 
3 377 376 390 
3 268 259 273 
3 1272 1263 1291 
3 248 266 231 
3 266 248 276 
3 61 68 44 
3 1338 1361 1339 
3 1361 1362 1339 
3 1302 1301 1340 
3 725 838 790 
3 792 844 845 
3 80 81 57 
3 1037 1036 1053 
3 1016 1036 1037 
3 905 922 893 
3 878 879 836 
3 797 796 829 
3 774 796 797 
3 858 829 871 
3 819 829 858 
3 819 797 829 
3 849 819 858 
3 80 73 98 
3 1023 1022 1059 
3 651 694 662 
3 694 695 662 
3 612 613 598 
3 775 774 797 
3 773 796 774 
3 1343 1344 1332 
3 132 136 118 
3 552 531 573 
3 62 74 70 
3 1089 1088 1114 
3 834 835 804 
3 805 804 835 
3 462 463 447 
3 393 392 423 
3 409 381 432 
3 391 381 409 
3 382 381 391 
3 660 693 661 
3 274 275 251 
3 659 671 642 
3 795 818 796 
3 818 829 796 
3 160 173 149 
3 306 305 337 
3 1161 1191 1162 
3 1191 1207 1162 
3 1091 1082 1137 
3 1109 1137 1082 
3 483 505 484 
3 504 505 483 
3 292 308 293 
3 308 309 293 
3 281 292 293 
3 272 281 293 
3 256 281 272 
3 255 267 256 
3 496 497 475 
3 476 475 497 
3 474 496 475 
3 90 96 82 
3 83 82 96 
3 96 108 83 
3 84 83 108 
3 1220 1221 1194 
3 1257 1244 1279 
3 1292 1273 1308 
3 1214 1185 1226 
3 1282 1281 1300 
3 1157 1158 1123 
3 1124 1123 1158 
3 1158 1159 1124 
3 1125 1124 1159 
3 1159 1160 1125 
3 1126 1125 1160 
3 379 380 340 
3 24 31 21 
3 428 441 414 
3 1207 1250 1236 
3 695 694 724 
3 838 907 881 
3 1010 991 1065 
3 982 991 1010 
3 992 982 1010 
3 1010 1065 1030 
3 1065 1047 1076 
3 991 1047 1065 
3 1076 1105 1065 
3 1075 1076 1047 
3 267 255 271 
3 742 786 787 
3 1360 1361 1338 
3 616 627 617 
3 639 654 627 
3 867 868 846 
3 847 846 868 
3 640 658 569 
3 603 569 658 
3 110 117 104 
3 111 104 117 
3 600 618 582 
3 601 582 619 
3 313 314 261 
3 262 261 314 
3 197 216 189 
3 1115 1134 1102 
3 1134 1144 1102 
3 1144 1154 1116 
3 449 467 450 
3 467 468 450 
3 468 467 484 
3 668 657 683 
3 660 711 693 
3 822 784 853 
3 809 784 822 
3 720 710 743 
3 712 699 731 
3 700 699 712 
3 349 334 363 
3 739 738 767 
3 705 738 739 
3 688 738 689 
3 705 689 738 
3 690 689 705 
3 687 737 688 
3 737 738 688 
3 736 737 687 
3 1070 1071 1037 
3 1038 1037 1071 
3 1054 1038 1071 
3 1053 1070 1037 
3 1068 1078 1069 
3 942 952 943 
3 511 519 489 
3 511 533 519 
3 532 533 511 
3 797 819 776 
3 777 776 819 
3 819 830 777 
3 830 819 849 
3 928 954 929 
3 954 955 929 
3 915 929 916 
3 953 954 928 
3 1155 1200 1156 
3 1200 1201 1156 
3 1199 1200 1155 
3 250 264 245 
3 264 265 245 
3 246 245 265 
3 449 432 467 
3 179 180 165 
3 1289 1290 1268 
3 994 995 967 
3 763 780 750 
3 750 780 764 
3 680 702 681 
3 667 680 681 
3 653 667 654 
3 520 554 521 
3 554 576 521 
3 575 576 554 
3 427 426 440 
3 440 426 461 
3 579 609 594 
3 593 609 579 
3 1086 1099 1087 
3 1099 1113 1087 
3 1100 1087 1113 
3 329 337 305 
3 113 143 123 
3 143 144 123 
3 107 113 123 
3 138 143 113 
3 711 649 721 
3 660 649 711 
3 675 720 649 
3 675 710 720 
3 720 721 649 
3 721 722 711 
3 649 650 608 
3 609 608 650 
3 650 649 660 
3 1177 1183 1142 
3 1183 1184 1142 
3 1143 1142 1184 
3 1153 1177 1142 
3 1307 1291 1328 
3 875 876 834 
3 835 834 876 
3 767 804 739 
3 804 805 739 
3 740 739 805 
3 392 391 409 
3 895 896 855 
3 856 855 896 
3 997 1032 1014 
3 996 1032 997 
3 873 901 890 
3 901 902 890 
3 902 901 919 
3 832 861 852 
3 861 874 852 
3 861 890 874 
3 890 891 874 
3 873 890 861 
3 889 901 873 
3 756 788 757 
3 788 789 757 
3 1239 1238 1251 
3 760 777 761 
3 1038 1054 1017 
3 369 370 335 
3 327 319 335 
3 242 260 235 
3 215 242 235 
3 269 270 243 
3 244 243 270 
3 1193 1180 1203 
3 664 665 632 
3 553 574 554 
3 574 586 554 
3 554 586 575 
3 209 210 192 
3 210 209 225 
3 815 844 792 
3 203 215 235 
3 310 311 273 
3 311 312 273 
3 28 39 32 
3 203 196 215 
3 1044 1028 1073 
3 760 761 734 
3 715 734 703 
3 979 985 1018 
3 1254 1255 1231 
3 1230 1254 1231 
3 1230 1265 1254 
3 1264 1265 1230 
3 1246 1247 1218 
3 1219 1218 1247 
3 1248 1249 1219 
3 1247 1248 1219 
3 245 246 227 
3 1129 1130 1080 
3 749 772 759 
3 772 773 759 
3 772 795 773 
3 795 796 773 
3 71 79 72 
3 79 84 72 
3 213 220 193 
3 214 193 220 
3 213 212 220 
3 371 388 365 
3 1283 1300 1301 
3 1284 1283 1301 
3 1353 1373 1346 
3 1354 1346 1373 
3 1373 1374 1354 
3 581 600 564 
3 582 564 600 
3 564 563 581 
3 526 563 564 
3 598 615 580 
3 731 732 712 
3 1316 1305 1327 
3 735 736 687 
3 806 805 835 
3 117 132 111 
3 111 132 118 
3 1258 1259 1235 
3 302 319 303 
3 319 327 303 
3 327 328 303 
3 328 336 304 
3 320 304 336 
3 828 848 829 
3 827 848 828 
3 871 829 886 
3 886 887 871 
3 88 93 77 
3 1215 1216 1187 
3 167 166 181 
3 1186 1185 1214 
3 1281 1282 1260 
3 1261 1260 1282 
3 293 309 294 
3 308 321 309 
3 321 332 309 
3 884 885 843 
3 447 463 448 
3 1115 1101 1134 
3 590 630 591 
3 590 589 630 
3 532 552 533 
3 864 865 840 
3 841 840 865 
3 65 71 56 
3 56 71 66 
3 71 72 66 
3 194 193 214 
3 194 214 202 
3 409 423 392 
3 393 423 433 
3 359 360 345 
3 912 942 913 
3 942 943 913 
3 941 942 912 
3 1283 1284 1246 
3 1247 1246 1284 
3 1248 1247 1284 
3 1160 1161 1126 
3 1127 1126 1161 
3 1161 1162 1127 
3 1015 1069 1034 
3 1176 1198 1183 
3 1177 1176 1183 
3 195 202 185 
3 1012 1013 977 
3 260 259 268 
3 538 579 539 
3 540 539 579 
3 538 593 579 
3 537 593 538 
3 592 593 537 
3 752 802 781 
3 765 752 781 
3 958 963 944 
3 959 944 963 
3 478 500 490 
3 82 83 79 
3 548 547 570 
3 628 621 641 
3 641 670 628 
3 329 351 337 
3 859 872 860 
3 11 14 7 
3 7 6 11 
3 199 198 219 
3 794 817 772 
3 772 817 795 
3 817 818 795 
3 1109 1150 1137 
3 1130 1150 1109 
3 1056 1055 1080 
3 1039 1019 1057 
3 1020 1019 1039 
3 206 229 207 
3 205 228 206 
3 228 229 206 
3 227 228 205 
3 1130 1129 1150 
3 614 626 615 
3 662 663 651 
3 1330 1329 1377 
3 147 148 129 
3 130 129 148 
3 443 442 471 
3 471 472 443 
3 444 443 472 
3 472 473 444 
3 445 444 473 
3 473 474 445 
3 1311 1295 1329 
3 1296 1295 1311 
3 1329 1330 1311 
3 687 688 669 
3 386 387 368 
3 549 550 509 
3 529 509 550 
3 510 509 529 
3 529 530 510 
3 550 549 572 
3 572 549 583 
3 571 583 549 
3 583 571 604 
3 604 605 583 
3 885 884 910 
3 915 916 887 
3 914 915 886 
3 887 886 915 
3 1090 1108 1078 
3 1063 1064 1009 
3 974 990 981 
3 990 1009 981 
3 1009 990 1063 
3 975 974 981 
3 1046 1063 990 
3 990 989 1046 
3 1062 1063 1046 
3 1117 1146 1118 
3 1166 1181 1167 
3 691 706 692 
3 706 707 692 
3 706 705 739 
3 739 740 706 
3 737 753 738 
3 753 766 738 
3 766 767 738 
3 832 852 833 
3 852 862 833 
3 933 934 908 
3 909 908 934 
3 1190 1191 1160 
3 1161 1160 1191 
3 1189 1190 1159 
3 1160 1159 1190 
3 1159 1158 1189 
3 754 755 718 
3 718 717 754 
3 1317 1348 1318 
3 1317 1318 1308 
3 255 256 241 
3 474 475 454 
3 476 477 455 
3 456 455 477 
3 475 476 454 
3 455 454 476 
3 1174 1175 1140 
3 1173 1174 1139 
3 1140 1139 1174 
3 451 438 460 
3 481 482 458 
3 198 199 170 
3 1293 1318 1310 
3 1309 1318 1293 
3 1344 1369 1352 
3 1369 1370 1352 
3 1344 1343 1369 
3 1308 1309 1292 
3 1292 1309 1293 
3 836 879 837 
3 1057 1072 1058 
3 1072 1081 1058 
3 1106 1107 1090 
3 787 810 768 
3 810 787 824 
3 815 814 843 
3 814 815 771 
3 792 771 815 
3 776 777 760 
3 683 704 668 
3 668 704 684 
3 107 123 108 
3 539 540 499 
3 536 535 556 
3 692 707 671 
3 707 708 671 
3 697 696 728 
3 179 184 180 
3 184 195 180 
3 180 195 185 
3 521 555 515 
3 613 614 598 
3 1015 1033 1068 
3 1068 1069 1015 
3 427 428 400 
3 414 400 428 
3 386 385 411 
3 411 412 386 
3 387 386 412 
3 412 413 387 
3 514 521 494 
3 494 521 515 
3 354 374 355 
3 374 375 355 
3 355 356 331 
3 356 355 375 
3 321 356 332 
3 331 356 321 
3 353 366 354 
3 366 374 354 
3 374 366 389 
3 713 733 701 
3 733 749 714 
3 749 759 714 
3 882 881 909 
3 908 909 881 
3 1027 1043 1004 
3 1004 1043 1028 
3 1138 1151 1110 
3 1111 1110 1131 
3 1233 1224 1241 
3 1241 1266 1233 
3 1314 1286 1325 
3 1325 1326 1314 
3 998 1014 984 
3 1014 1033 984 
3 1015 984 1033 
3 1076 1104 1105 
3 1075 1103 1076 
3 1103 1104 1076 
3 669 670 641 
3 1023 1024 1001 
3 832 820 861 
3 800 820 832 
3 799 820 800 
3 785 784 809 
3 788 813 789 
3 93 88 103 
3 92 103 88 
3 103 110 93 
3 93 110 104 
3 62 70 54 
3 290 291 280 
3 291 290 307 
3 279 320 305 
3 289 304 279 
3 304 320 279 
3 546 569 518 
3 450 468 433 
3 460 470 451 
3 470 487 451 
3 461 451 487 
3 487 492 461 
3 488 461 492 
3 439 451 426 
3 451 461 426 
3 1372 1373 1353 
3 1308 1318 1309 
3 1321 1331 1322 
3 1224 1233 1225 
3 1110 1111 1093 
3 1092 1110 1093 
3 1107 1108 1090 
3 1176 1177 1153 
3 1152 1176 1153 
3 1165 1166 1151 
3 1165 1181 1166 
3 1057 1058 1039 
3 1052 1053 1036 
3 1035 1052 1036 
3 1051 1052 1035 
3 1034 1051 1035 
3 1085 1086 1074 
3 1070 1079 1071 
3 1085 1099 1086 
3 1098 1099 1085 
3 1084 1098 1085 
3 1022 1023 1001 
3 1000 1022 1001 
3 997 1014 998 
3 781 782 765 
3 779 780 763 
3 773 774 759 
3 890 903 891 
3 902 903 890 
3 900 901 889 
3 888 900 889 
3 941 952 942 
3 914 929 915 
3 928 929 914 
3 801 821 802 
3 798 820 799 
3 816 817 794 
3 828 829 818 
3 817 828 818 
3 827 828 817 
3 816 827 817 
3 781 803 782 
3 779 800 780 
3 799 800 779 
3 778 799 779 
3 798 799 778 
3 653 654 639 
3 712 713 700 
3 736 753 737 
3 750 764 751 
3 689 690 670 
3 669 689 670 
3 688 689 669 
3 592 609 593 
3 608 609 592 
3 585 607 586 
3 613 626 614 
3 616 617 599 
3 614 615 598 
3 566 567 545 
3 544 566 545 
3 565 566 544 
3 543 565 544 
3 585 586 574 
3 531 552 532 
3 427 441 428 
3 440 441 427 
3 438 439 425 
3 483 484 467 
3 509 510 491 
3 459 470 460 
3 454 455 446 
3 438 451 439 
3 391 392 383 
3 382 391 383 
3 412 425 413 
3 302 303 288 
3 83 84 79 
3 194 195 184 
3 194 202 195 
3 153 154 150 
3 153 161 154 
3 104 111 105 
3 30 31 24 
