OFF
384 738 0
0 0 162 
0 18 103 
0 81 122 
0 100 155 
0 103 217 
0 106 107 
0 126 136 
0 127 171 
1 105 191 
2 13 164 
2 127 49 
6 103 142 
6 104 197 
8 13 159 
8 16 100 
8 109 210 
8 110 131 
8 119 134 
9 120 42 
10 50 126 
10 89 155 
11 60 119 
11 82 112 
12 60 196 
12 113 105 
13 107 145 
13 112 206 
14 113 182 
15 67 194 
15 68 112 
16 114 41 
16 127 55 
17 15 126 
17 16 86 
17 111 218 
18 111 116 
19 53 131 
19 54 159 
20 0 162 
20 76 92 
21 75 202 
21 110 45 
21 125 82 
22 3 86 
22 96 141 
22 125 140 
23 77 88 
23 106 153 
24 77 213 
24 108 38 
25 8 146 
25 120 58 
26 90 146 
26 93 44 
27 54 129 
27 85 147 
27 98 124 
28 2 93 
28 56 184 
28 81 198 
28 82 61 
28 97 45 
28 104 113 
29 33 117 
29 103 218 
30 84 123 
30 98 185 
30 116 49 
31 15 120 
31 16 85 
31 118 154 
32 81 207 
32 89 153 
32 92 52 
33 93 213 
33 104 223 
33 105 47 
35 91 183 
37 70 185 
38 16 91 
38 35 119 
39 13 174 
39 80 177 
39 102 204 
39 104 41 
39 111 58 
39 113 145 
40 6 96 
40 8 153 
40 29 87 
40 30 222 
41 101 172 
43 70 149 
43 95 201 
43 100 157 
43 102 38 
44 60 152 
44 74 162 
44 97 86 
44 109 57 
44 110 123 
45 71 46 
45 99 190 
46 27 100 
46 54 124 
46 94 97 
46 101 41 
47 31 185 
47 66 79 
47 88 201 
48 13 172 
48 16 90 
48 39 118 
48 73 190 
48 88 107 
48 96 179 
48 99 44 
49 5 104 
49 58 57 
50 83 192 
50 84 88 
50 106 45 
50 111 163 
51 92 174 
51 108 130 
52 32 92 
52 33 205 
52 35 198 
52 36 103 
52 47 112 
52 48 62 
52 93 59 
53 64 75 
53 89 123 
54 15 140 
54 16 94 
54 66 167 
55 6 87 
55 9 162 
55 33 223 
55 43 113 
55 93 43 
56 35 113 
56 43 78 
56 84 204 
56 87 49 
57 33 112 
57 34 223 
57 58 38 
57 92 115 
58 60 120 
58 103 44 
58 104 121 
58 107 164 
59 127 151 
60 10 168 
60 34 97 
61 55 68 
61 85 200 
61 93 67 
62 37 126 
62 67 140 
62 74 177 
62 86 103 
63 38 71 
64 15 142 
64 16 99 
64 61 173 
64 84 72 
64 91 45 
64 92 177 
65 59 195 
65 70 39 
65 101 44 
65 102 144 
66 62 68 
66 69 176 
66 72 108 
66 78 207 
66 94 63 
67 31 137 
67 66 85 
67 80 103 
67 85 116 
67 86 45 
67 91 44 
67 92 174 
68 24 108 
68 30 207 
68 61 131 
68 123 132 
69 30 41 
69 57 193 
70 51 89 
70 57 80 
70 124 186 
71 7 92 
71 8 137 
71 13 184 
71 16 104 
71 79 189 
71 91 48 
71 92 161 
72 54 195 
72 93 166 
72 94 57 
73 49 37 
73 57 116 
73 65 173 
74 33 87 
74 49 120 
74 98 43 
74 99 122 
75 52 197 
75 53 50 
76 85 128 
77 0 82 
77 6 48 
77 8 137 
77 14 165 
77 47 29 
77 48 157 
77 50 200 
77 94 134 
77 95 28 
77 115 128 
77 117 189 
78 17 74 
78 42 86 
79 51 45 
79 88 43 
79 92 48 
79 93 171 
80 48 177 
80 75 132 
80 98 146 
81 45 47 
81 46 169 
81 49 52 
81 63 148 
81 96 63 
82 14 168 
82 79 180 
83 46 124 
83 53 49 
83 54 119 
83 83 128 
83 84 53 
84 6 83 
84 8 151 
84 39 65 
84 93 66 
85 42 175 
85 46 57 
86 30 78 
86 44 106 
86 75 178 
86 82 123 
86 83 42 
87 75 121 
87 93 43 
87 94 160 
88 43 147 
88 44 50 
89 16 120 
89 52 66 
89 79 143 
90 15 180 
90 113 157 
90 114 206 
91 7 113 
91 8 146 
91 16 107 
91 80 66 
91 93 47 
91 94 137 
92 14 170 
92 37 134 
92 39 206 
92 62 123 
93 41 45 
94 4 51 
94 5 100 
94 77 154 
94 78 64 
95 124 204 
95 127 178 
96 62 61 
96 104 151 
96 111 122 
96 127 48 
97 63 116 
97 93 64 
97 94 148 
97 114 220 
97 125 43 
98 0 55 
98 19 81 
98 38 131 
98 76 178 
98 82 52 
98 104 123 
99 119 205 
100 0 128 
100 112 144 
100 113 206 
101 6 50 
101 10 166 
101 83 208 
101 118 194 
101 120 47 
102 31 63 
102 88 86 
102 92 63 
102 94 148 
103 86 216 
103 110 127 
104 16 166 
104 18 37 
104 42 79 
104 55 55 
104 123 106 
105 3 163 
105 68 142 
106 58 107 
106 75 164 
106 112 212 
106 116 185 
106 117 97 
107 89 219 
107 90 39 
108 90 157 
109 92 32 
109 93 136 
109 107 131 
109 108 210 
110 8 99 
110 9 159 
111 2 63 
111 3 148 
113 61 133 
113 91 213 
113 92 78 
114 2 39 
114 3 124 
114 51 48 
115 16 136 
115 17 59 
115 109 146 
115 110 208 
116 6 143 
116 7 63 
116 9 141 
116 101 117 
117 56 99 
117 101 71 
118 94 93 
118 110 215 
119 15 157 
119 104 35 
119 105 153 
120 93 215 
120 111 65 
121 4 168 
121 9 138 
122 3 110 
122 104 91 
122 106 201 
123 94 208 
123 95 79 
124 107 95 
126 17 46 
126 80 154 
127 0 46 
127 2 58 
127 4 157 
127 13 180 
127 15 115 
127 41 74 
127 65 142 
127 94 210 
127 97 90 
127 110 98 
127 127 100 
3 188 187 191 
3 180 187 188 
3 146 187 156 
3 180 156 187 
3 191 187 209 
3 209 187 227 
3 346 358 347 
3 358 371 347 
3 371 378 347 
3 311 347 378 
3 318 347 311 
3 319 311 378 
3 345 319 378 
3 48 59 46 
3 59 60 46 
3 55 46 60 
3 39 46 55 
3 22 39 55 
3 71 48 78 
3 59 48 71 
3 161 150 167 
3 136 150 161 
3 161 162 136 
3 33 69 63 
3 69 89 63 
3 79 89 69 
3 89 90 63 
3 80 63 90 
3 90 107 80 
3 107 112 80 
3 89 103 90 
3 103 107 90 
3 107 103 125 
3 125 126 107 
3 126 127 107 
3 112 107 127 
3 141 151 116 
3 121 116 151 
3 151 152 121 
3 124 121 152 
3 152 153 124 
3 368 369 361 
3 356 361 369 
3 355 356 369 
3 313 330 314 
3 330 333 314 
3 331 332 330 
3 332 333 330 
3 333 334 314 
3 312 330 313 
3 371 358 377 
3 364 376 358 
3 376 377 358 
3 20 2 22 
3 3 2 20 
3 357 362 349 
3 328 349 362 
3 326 349 327 
3 328 327 349 
3 362 383 328 
3 321 328 383 
3 335 349 326 
3 154 153 190 
3 122 153 154 
3 174 225 153 
3 190 153 225 
3 348 360 357 
3 360 367 357 
3 357 367 362 
3 367 370 362 
3 247 251 230 
3 231 230 251 
3 232 231 251 
3 240 232 251 
3 303 338 322 
3 338 339 322 
3 338 303 343 
3 343 303 373 
3 211 212 173 
3 174 173 212 
3 212 225 174 
3 179 205 173 
3 205 211 173 
3 209 254 250 
3 254 277 250 
3 277 278 250 
3 262 250 278 
3 278 280 262 
3 26 25 34 
3 15 25 26 
3 16 15 26 
3 178 177 200 
3 162 177 178 
3 160 180 164 
3 180 209 164 
3 191 209 180 
3 209 228 164 
3 206 164 228 
3 193 164 206 
3 143 164 193 
3 157 143 193 
3 220 206 228 
3 207 203 214 
3 194 203 207 
3 193 203 192 
3 194 192 203 
3 35 25 47 
3 34 25 35 
3 44 47 25 
3 41 35 47 
3 47 49 41 
3 52 22 55 
3 20 22 52 
3 44 20 52 
3 52 53 44 
3 53 56 44 
3 113 108 136 
3 101 108 113 
3 132 136 108 
3 92 108 101 
3 268 235 288 
3 225 235 268 
3 268 269 225 
3 226 225 269 
3 269 285 226 
3 285 286 226 
3 195 226 286 
3 68 57 88 
3 50 57 68 
3 87 88 57 
3 81 68 88 
3 79 68 81 
3 177 208 200 
3 208 234 200 
3 234 242 200 
3 215 200 242 
3 274 273 300 
3 258 273 274 
3 260 258 274 
3 274 300 292 
3 300 312 292 
3 324 345 340 
3 345 354 340 
3 320 345 324 
3 319 345 320 
3 280 319 320 
3 265 280 320 
3 298 311 319 
3 162 161 172 
3 172 177 162 
3 0 38 13 
3 38 43 13 
3 32 13 43 
3 43 50 32 
3 363 364 350 
3 351 350 364 
3 352 351 364 
3 344 363 350 
3 190 195 154 
3 154 195 286 
3 236 243 237 
3 238 237 243 
3 233 237 238 
3 337 352 346 
3 352 358 346 
3 241 264 227 
3 254 227 264 
3 264 272 254 
3 272 297 254 
3 297 311 254 
3 227 254 209 
3 228 209 250 
3 199 227 187 
3 105 115 98 
3 102 98 115 
3 115 116 102 
3 279 291 283 
3 291 299 283 
3 291 323 299 
3 323 325 299 
3 311 297 318 
3 277 254 311 
3 307 337 317 
3 337 346 317 
3 346 347 317 
3 318 317 347 
3 365 375 363 
3 364 363 375 
3 375 376 364 
3 51 70 45 
3 70 154 45 
3 144 162 158 
3 162 178 158 
3 168 158 178 
3 178 182 168 
3 182 183 168 
3 189 208 181 
3 176 181 208 
3 177 176 208 
3 183 182 200 
3 200 215 183 
3 184 183 215 
3 97 101 113 
3 148 130 157 
3 118 130 148 
3 150 148 157 
3 345 378 354 
3 378 379 354 
3 340 354 379 
3 42 30 51 
3 31 30 42 
3 18 30 31 
3 42 51 45 
3 80 104 54 
3 58 54 104 
3 96 58 104 
3 78 58 96 
3 104 118 96 
3 212 235 225 
3 261 288 235 
3 252 250 262 
3 298 277 311 
3 61 66 56 
3 64 56 66 
3 66 75 64 
3 170 179 159 
3 173 159 179 
3 52 73 53 
3 61 53 73 
3 73 74 61 
3 66 61 74 
3 74 83 66 
3 91 74 93 
3 83 74 91 
3 50 43 57 
3 290 285 295 
3 286 285 290 
3 146 135 187 
3 125 135 146 
3 166 187 135 
3 160 156 180 
3 317 318 297 
3 307 317 297 
3 155 165 134 
3 165 166 134 
3 135 134 166 
3 144 158 145 
3 158 163 145 
3 149 163 159 
3 163 169 159 
3 149 145 163 
3 169 170 159 
3 275 288 261 
3 251 261 240 
3 235 240 261 
3 361 372 368 
3 372 380 368 
3 325 372 341 
3 361 341 372 
3 323 340 325 
3 340 372 325 
3 372 340 379 
3 329 325 341 
3 315 325 329 
3 331 329 341 
3 332 331 341 
3 308 325 315 
3 342 356 353 
3 355 353 356 
3 333 342 353 
3 334 333 353 
3 46 40 48 
3 39 40 46 
3 210 213 206 
3 193 206 213 
3 203 193 213 
3 327 328 309 
3 310 309 328 
3 321 310 328 
3 326 327 305 
3 309 305 327 
3 316 326 305 
3 201 184 215 
3 215 230 201 
3 230 231 201 
3 223 201 231 
3 204 201 223 
3 224 240 235 
3 223 232 224 
3 232 240 224 
3 211 224 235 
3 212 211 235 
3 137 138 117 
3 110 117 138 
3 87 117 88 
3 110 88 117 
3 17 24 18 
3 24 30 18 
3 27 30 24 
3 16 24 17 
3 128 142 140 
3 142 143 140 
3 112 128 140 
3 142 160 143 
3 160 164 143 
3 148 150 132 
3 136 132 150 
3 19 14 63 
3 1 14 19 
3 33 63 14 
3 36 19 63 
3 251 247 260 
3 247 258 260 
3 210 206 220 
3 220 221 210 
3 54 36 63 
3 63 80 54 
3 118 148 132 
3 39 29 40 
3 22 29 39 
3 28 58 40 
3 58 78 40 
3 29 28 40 
3 48 40 78 
3 167 175 161 
3 175 181 161 
3 176 161 181 
3 172 161 176 
3 120 144 145 
3 133 120 145 
3 114 120 133 
3 119 144 120 
3 113 144 119 
3 136 162 113 
3 144 113 162 
3 50 68 32 
3 68 69 32 
3 33 32 69 
3 358 352 364 
3 44 56 47 
3 56 62 47 
3 62 56 64 
3 49 47 62 
3 62 76 49 
3 67 49 76 
3 122 154 86 
3 70 86 154 
3 67 86 70 
3 76 85 67 
3 85 86 67 
3 84 85 76 
3 236 252 243 
3 252 255 243 
3 253 243 255 
3 157 167 150 
3 167 157 171 
3 290 321 383 
3 382 383 362 
3 137 196 155 
3 196 197 155 
3 165 155 197 
3 197 198 165 
3 196 137 216 
3 336 322 339 
3 334 353 348 
3 353 360 348 
3 355 359 353 
3 359 360 353 
3 276 307 297 
3 272 276 297 
3 117 216 137 
3 306 322 336 
3 307 306 336 
3 336 337 307 
3 205 224 211 
3 104 130 118 
3 279 265 287 
3 245 265 279 
3 239 245 279 
3 287 265 320 
3 291 287 320 
3 320 324 291 
3 323 291 324 
3 324 340 323 
3 377 378 371 
3 278 277 298 
3 280 278 298 
3 250 252 228 
3 236 228 252 
3 300 299 308 
3 284 299 300 
3 308 299 325 
3 356 341 361 
3 342 341 356 
3 173 174 151 
3 152 151 174 
3 153 152 174 
3 2 1 19 
3 2 29 22 
3 72 77 73 
3 74 73 77 
3 52 72 73 
3 172 176 177 
3 97 113 119 
3 82 97 119 
3 109 82 119 
3 23 37 28 
3 37 58 28 
3 54 58 37 
3 72 71 82 
3 65 71 72 
3 77 72 82 
3 125 103 135 
3 139 125 146 
3 126 125 139 
3 111 135 103 
3 81 111 79 
3 81 88 110 
3 110 111 81 
3 103 79 111 
3 89 79 103 
3 110 134 111 
3 134 135 111 
3 12 15 8 
3 5 8 15 
3 15 16 5 
3 16 17 5 
3 6 5 17 
3 27 26 34 
3 30 27 34 
3 34 35 30 
3 217 218 196 
3 197 196 218 
3 198 197 218 
3 218 219 198 
3 216 217 196 
3 335 334 348 
3 348 349 335 
3 129 143 130 
3 143 157 130 
3 133 145 149 
3 141 133 149 
3 199 198 219 
3 165 198 199 
3 339 344 336 
3 344 350 336 
3 350 351 336 
3 351 352 336 
3 337 336 352 
3 192 157 193 
3 171 157 192 
3 80 112 104 
3 112 129 104 
3 129 130 104 
3 366 355 369 
3 370 366 381 
3 367 366 370 
3 381 382 370 
3 82 109 77 
3 93 77 109 
3 74 77 93 
3 93 98 91 
3 94 91 98 
3 75 66 83 
3 98 102 94 
3 302 310 295 
3 310 321 295 
3 290 295 321 
3 285 269 302 
3 285 302 295 
3 294 302 269 
3 127 128 112 
3 249 271 267 
3 271 276 267 
3 282 307 271 
3 276 271 307 
3 281 306 282 
3 306 307 282 
3 303 306 296 
3 281 296 306 
3 306 303 322 
3 37 36 54 
3 288 301 289 
3 301 304 289 
3 304 301 316 
3 288 289 268 
3 140 143 129 
3 273 284 300 
3 215 247 230 
3 242 246 215 
3 246 247 215 
3 365 343 373 
3 363 343 365 
3 344 343 363 
3 244 245 229 
3 214 229 245 
3 207 214 245 
3 239 207 245 
3 238 244 229 
3 42 45 31 
3 45 154 31 
3 131 133 141 
3 123 133 131 
3 225 226 190 
3 195 190 226 
3 298 319 280 
3 259 239 279 
3 256 239 259 
3 234 239 256 
3 259 279 283 
3 242 234 256 
3 222 229 213 
3 214 213 229 
3 204 223 205 
3 223 224 205 
3 231 232 223 
3 96 118 108 
3 118 132 108 
3 92 96 108 
3 182 178 200 
3 369 381 366 
3 315 329 312 
3 329 330 312 
3 338 344 339 
3 67 70 51 
3 263 262 280 
3 265 263 280 
3 21 23 28 
3 28 29 21 
3 2 21 29 
3 19 21 2 
3 219 227 199 
3 241 218 249 
3 219 218 241 
3 23 19 37 
3 21 19 23 
3 36 37 19 
3 185 184 201 
3 201 202 185 
3 186 185 202 
3 179 186 202 
3 202 205 179 
3 221 233 222 
3 229 222 233 
3 233 238 229 
3 141 149 159 
3 312 308 315 
3 300 308 312 
3 312 313 292 
3 12 25 15 
3 11 25 12 
3 20 44 11 
3 25 11 44 
3 234 208 239 
3 370 382 362 
3 87 57 117 
3 57 216 117 
3 38 216 57 
3 248 270 249 
3 270 271 249 
3 270 248 281 
3 216 281 248 
3 244 265 245 
3 238 253 244 
3 253 265 244 
3 109 114 105 
3 114 123 105 
3 115 105 123 
3 123 114 133 
3 115 131 116 
3 131 141 116 
3 123 131 115 
3 151 141 159 
3 151 159 173 
3 3 11 4 
3 8 4 11 
3 11 12 8 
3 13 32 14 
3 32 33 14 
3 9 13 14 
3 1 9 14 
3 233 220 237 
3 221 220 233 
3 228 236 220 
3 236 237 220 
3 138 137 155 
3 10 6 17 
3 17 18 10 
3 289 294 268 
3 269 268 294 
3 166 199 187 
3 219 241 227 
3 221 222 210 
3 241 249 267 
3 264 241 267 
3 60 65 55 
3 147 146 156 
3 142 156 160 
3 142 147 156 
3 134 110 138 
3 55 72 52 
3 35 41 30 
3 41 51 30 
3 138 155 134 
3 305 304 316 
3 326 316 335 
3 85 84 99 
3 95 99 84 
3 99 100 85 
3 213 214 203 
3 208 207 239 
3 266 259 283 
3 256 259 266 
3 242 256 266 
3 257 242 266 
3 266 283 273 
3 283 284 273 
3 41 49 67 
3 51 41 67 
3 95 106 99 
3 106 121 99 
3 121 124 99 
3 122 99 124 
3 100 99 122 
3 217 248 249 
3 218 217 249 
3 55 65 72 
3 78 96 92 
3 288 275 293 
3 293 301 288 
3 213 210 222 
3 97 92 101 
3 78 92 97 
3 82 78 97 
3 359 366 360 
3 366 367 360 
3 252 262 255 
3 262 263 255 
3 253 255 263 
3 69 68 79 
3 86 85 100 
3 100 122 86 
3 253 263 265 
3 270 282 271 
3 102 106 94 
3 95 94 106 
3 91 94 95 
3 18 31 10 
3 9 0 13 
3 374 375 365 
3 373 374 365 
3 109 120 114 
3 119 120 109 
3 93 109 105 
3 78 82 71 
3 83 84 75 
3 76 75 84 
3 83 91 84 
3 91 95 84 
3 284 283 299 
3 349 348 357 
3 301 293 314 
3 216 248 217 
3 146 147 139 
3 142 139 147 
3 98 93 105 
3 246 242 257 
3 106 116 121 
3 316 301 334 
3 292 293 274 
3 275 274 293 
3 127 142 128 
3 3 20 11 
3 314 334 301 
3 334 335 316 
3 175 189 181 
3 189 207 208 
3 267 276 272 
3 24 16 26 
3 166 165 199 
3 243 253 238 
3 43 38 57 
3 129 112 140 
3 266 273 257 
3 258 257 273 
3 343 344 338 
3 171 192 189 
3 192 194 189 
3 194 207 189 
3 281 282 270 
3 281 216 296 
3 379 380 372 
3 204 205 202 
3 380 381 369 
3 359 355 366 
3 183 184 168 
3 163 168 184 
3 169 163 184 
3 184 185 169 
3 158 168 163 
3 122 124 153 
3 287 291 279 
3 175 171 189 
3 167 171 175 
3 294 305 309 
3 302 294 309 
3 7 6 10 
3 313 314 292 
3 293 292 314 
3 56 53 61 
3 1 0 9 
3 341 342 332 
3 333 332 342 
3 60 59 71 
3 65 60 71 
3 75 76 64 
3 62 64 76 
3 267 272 264 
3 274 275 260 
3 261 260 275 
3 257 258 246 
3 127 126 139 
3 309 310 302 
3 188 191 180 
3 202 201 204 
3 260 261 251 
3 26 27 24 
3 127 139 142 
3 170 186 179 
3 169 186 170 
3 185 186 169 
3 5 4 8 
3 369 368 380 
3 304 305 294 
3 294 289 304 
3 246 258 247 
3 102 116 106 
3 329 331 330 
