OFF
884 1711 0
0 0 157 
0 8 152 
0 19 172 
0 25 92 
0 71 103 
0 92 49 
0 98 48 
0 100 134 
0 103 128 
0 105 22 
0 116 30 
0 120 78 
0 127 37 
2 19 159 
2 102 160 
2 114 41 
3 106 167 
3 119 87 
3 125 74 
3 127 63 
4 12 170 
4 19 72 
4 91 57 
4 97 47 
4 100 63 
4 110 191 
4 114 173 
4 119 172 
4 121 162 
5 86 64 
5 105 151 
5 108 158 
5 125 201 
5 127 209 
6 25 92 
6 35 97 
6 43 103 
6 63 86 
6 70 70 
6 80 44 
6 114 135 
6 118 163 
6 120 167 
7 100 67 
7 104 56 
7 107 41 
7 111 41 
7 114 54 
7 118 65 
7 127 195 
8 13 148 
8 40 155 
8 59 150 
8 79 129 
8 89 149 
8 120 90 
8 125 105 
8 127 100 
9 18 166 
9 23 165 
9 29 163 
9 37 166 
9 46 168 
9 65 169 
9 79 165 
9 100 162 
9 110 161 
10 74 183 
10 97 179 
10 106 189 
10 110 185 
10 117 173 
10 121 173 
10 127 164 
12 60 180 
13 0 164 
13 12 164 
13 20 163 
13 30 164 
13 36 177 
13 41 178 
13 46 176 
13 54 181 
13 64 182 
13 74 186 
13 89 187 
13 104 177 
14 80 176 
14 96 171 
14 120 183 
14 127 181 
15 59 139 
15 90 161 
15 99 173 
15 122 172 
16 30 81 
16 39 86 
16 97 94 
16 101 117 
16 103 220 
16 104 138 
16 105 210 
16 106 99 
16 108 150 
16 114 159 
16 125 54 
17 0 82 
17 9 89 
17 21 71 
17 45 72 
17 54 72 
17 56 70 
17 63 81 
17 71 82 
17 76 75 
17 78 83 
17 84 77 
17 90 79 
17 96 60 
17 98 155 
17 99 47 
17 107 176 
17 109 50 
17 115 62 
18 0 101 
18 97 141 
18 99 48 
18 100 191 
18 103 35 
18 106 44 
18 120 48 
18 127 46 
19 45 95 
19 54 93 
19 90 123 
19 95 107 
19 99 164 
19 100 38 
20 94 85 
20 99 30 
21 21 97 
21 80 113 
21 85 126 
22 68 113 
22 77 134 
22 89 73 
22 91 57 
22 101 61 
23 69 30 
23 71 140 
23 77 33 
23 79 67 
23 83 58 
23 90 159 
23 92 61 
23 110 50 
24 29 102 
24 78 102 
24 90 55 
25 69 129 
25 73 73 
25 75 107 
25 81 109 
25 98 70 
25 101 35 
25 102 126 
25 107 42 
26 66 93 
26 68 55 
26 71 91 
26 72 148 
26 82 44 
26 83 106 
26 93 43 
26 101 142 
26 102 71 
26 104 61 
26 106 126 
26 108 150 
26 110 74 
26 127 74 
27 66 191 
27 69 146 
27 81 67 
27 82 115 
27 83 45 
27 106 53 
27 108 35 
28 38 105 
28 50 103 
28 64 114 
28 65 200 
28 72 48 
28 86 62 
28 90 87 
28 97 41 
28 110 49 
29 12 118 
29 38 74 
29 40 98 
29 44 91 
29 66 153 
29 87 113 
29 90 171 
29 95 116 
29 97 146 
29 100 49 
30 33 107 
30 39 217 
30 45 201 
30 48 81 
30 50 87 
30 68 223 
30 69 38 
30 77 76 
30 83 99 
30 93 117 
30 95 50 
30 100 142 
30 102 65 
30 120 56 
31 30 108 
31 32 211 
31 33 212 
31 49 202 
31 68 76 
31 76 129 
31 90 81 
32 27 117 
32 29 203 
32 31 183 
32 52 88 
32 56 110 
32 62 153 
32 85 59 
32 98 60 
32 110 44 
32 126 122 
33 27 157 
33 33 99 
33 52 217 
33 55 218 
33 63 27 
33 64 167 
33 71 113 
33 77 59 
33 79 138 
33 97 128 
33 126 58 
34 27 102 
34 55 225 
34 57 219 
34 59 130 
34 61 48 
34 80 46 
34 84 157 
34 87 87 
34 95 122 
34 97 68 
34 98 105 
34 114 51 
34 117 42 
35 52 187 
35 57 106 
35 72 39 
35 83 39 
35 88 53 
35 89 108 
35 113 92 
36 52 120 
36 61 144 
36 63 138 
36 65 51 
36 85 149 
36 107 99 
36 113 61 
36 116 131 
37 81 42 
37 82 159 
37 85 57 
37 96 160 
37 104 84 
37 111 68 
38 18 128 
38 46 113 
38 62 68 
38 75 47 
38 88 135 
38 91 119 
38 95 95 
38 97 82 
38 98 124 
38 108 48 
38 112 130 
38 122 80 
39 61 100 
39 83 47 
39 89 121 
39 90 219 
39 93 237 
39 95 70 
39 97 158 
39 98 66 
39 102 145 
39 108 148 
39 114 111 
39 115 23 
39 119 126 
39 122 133 
40 20 108 
40 58 120 
40 66 100 
40 73 119 
40 79 93 
40 80 38 
40 83 45 
40 84 60 
40 88 230 
40 90 104 
40 92 203 
40 98 169 
40 103 149 
40 115 150 
41 14 126 
41 59 55 
41 74 26 
41 81 166 
41 84 158 
41 91 220 
41 92 49 
41 97 47 
41 102 79 
41 103 51 
41 105 150 
41 108 152 
41 112 114 
41 115 50 
41 116 61 
41 127 70 
42 33 121 
42 68 57 
42 70 132 
42 71 59 
42 72 144 
42 81 40 
42 86 188 
42 87 78 
42 105 40 
42 111 64 
42 125 34 
43 63 57 
43 76 138 
43 78 149 
43 84 184 
43 104 186 
43 108 43 
43 110 163 
43 116 92 
43 117 41 
44 0 137 
44 75 145 
44 77 34 
44 84 72 
44 86 99 
44 87 183 
44 88 56 
44 100 55 
44 105 90 
44 108 189 
44 112 39 
44 113 43 
44 114 169 
45 63 33 
45 68 39 
45 75 54 
45 76 148 
45 77 110 
45 79 40 
45 81 39 
45 82 125 
45 103 55 
45 109 167 
45 110 31 
45 111 136 
45 114 48 
46 67 95 
46 81 170 
46 83 118 
46 84 208 
46 85 56 
46 109 33 
46 112 52 
47 50 127 
47 60 62 
47 68 44 
47 77 21 
47 110 71 
47 111 110 
47 123 49 
48 32 114 
48 33 146 
48 54 47 
48 64 87 
48 65 26 
48 77 125 
48 81 207 
48 120 40 
49 60 44 
49 73 48 
49 80 195 
49 81 36 
50 28 141 
50 50 87 
50 66 54 
50 73 133 
50 121 113 
50 125 120 
50 127 122 
51 54 74 
51 69 41 
51 77 207 
51 88 53 
51 114 44 
51 122 40 
52 76 190 
52 77 25 
53 28 116 
53 47 122 
53 53 42 
53 66 37 
53 71 180 
53 74 215 
53 75 42 
53 111 47 
54 43 146 
54 66 142 
54 72 195 
55 17 147 
55 28 184 
55 41 158 
55 49 46 
55 52 107 
55 54 44 
55 63 52 
55 71 199 
55 72 72 
55 112 120 
55 117 133 
55 120 42 
56 13 177 
56 52 49 
56 54 105 
56 58 65 
56 63 150 
56 100 55 
56 121 130 
57 10 124 
57 49 48 
57 58 149 
57 59 43 
57 60 41 
57 61 160 
57 62 91 
57 69 200 
57 70 78 
57 81 115 
57 92 64 
57 112 135 
57 115 108 
57 117 33 
58 24 173 
58 62 166 
58 89 116 
58 105 119 
58 115 54 
59 24 134 
59 44 87 
59 49 83 
59 57 15 
59 67 208 
59 68 116 
59 101 58 
59 105 39 
59 112 67 
59 116 127 
60 44 151 
60 56 29 
60 57 141 
60 66 200 
60 71 159 
60 97 71 
61 22 189 
61 23 155 
61 24 201 
61 49 58 
61 56 149 
61 66 72 
61 96 34 
61 104 113 
61 112 136 
62 54 52 
62 98 126 
63 13 191 
63 51 104 
63 63 186 
63 64 79 
63 95 107 
64 12 121 
64 48 56 
64 49 88 
64 51 28 
64 63 116 
64 65 40 
64 116 142 
65 45 76 
65 48 113 
65 50 123 
65 52 96 
65 88 143 
66 49 54 
66 60 186 
66 68 104 
66 74 179 
67 14 113 
67 15 195 
67 55 178 
67 61 111 
67 67 74 
68 15 121 
68 63 152 
68 65 50 
68 66 198 
68 68 200 
69 12 132 
69 43 164 
69 60 162 
69 71 166 
69 94 150 
69 101 140 
70 50 194 
70 62 72 
70 63 80 
70 115 132 
71 18 202 
71 46 22 
71 47 161 
71 65 39 
71 68 136 
71 88 115 
72 18 106 
72 44 59 
72 45 35 
72 46 193 
72 47 104 
72 65 119 
73 0 130 
73 44 151 
73 47 183 
73 62 169 
73 63 111 
73 81 132 
74 20 221 
74 56 165 
74 67 117 
75 20 96 
75 85 201 
76 23 216 
76 45 194 
76 58 196 
76 73 123 
76 81 78 
76 88 136 
76 98 178 
77 23 87 
77 80 129 
77 94 160 
78 70 217 
78 75 219 
78 97 48 
78 127 146 
79 66 213 
79 77 235 
79 81 182 
79 91 140 
79 92 50 
79 98 200 
80 0 109 
80 25 60 
80 66 81 
80 75 168 
80 89 137 
81 27 69 
81 28 210 
81 29 219 
81 63 188 
81 80 144 
81 89 46 
81 98 56 
81 113 177 
82 29 50 
82 66 39 
82 71 145 
82 85 137 
82 122 157 
83 0 154 
83 18 110 
83 32 203 
83 50 187 
83 51 191 
83 82 139 
83 85 49 
83 100 209 
84 32 126 
84 39 190 
84 58 222 
84 65 53 
84 66 176 
84 100 75 
85 17 138 
85 25 154 
85 50 55 
85 61 208 
85 64 38 
85 79 121 
86 35 159 
86 48 193 
86 49 46 
86 63 123 
86 69 65 
86 75 125 
86 80 39 
86 99 39 
86 101 60 
86 116 207 
87 50 106 
87 55 41 
87 62 53 
87 75 52 
87 87 68 
87 93 50 
88 59 49 
88 92 90 
88 96 92 
88 99 122 
88 103 49 
88 105 227 
89 31 165 
89 58 40 
89 99 83 
89 105 50 
90 22 150 
90 34 147 
90 35 195 
90 57 53 
90 60 40 
90 77 78 
90 109 223 
91 15 152 
91 53 156 
91 56 160 
91 59 155 
91 62 45 
91 66 40 
91 69 50 
91 73 56 
91 77 24 
91 108 26 
91 110 28 
91 112 215 
92 32 49 
92 62 158 
92 66 179 
92 68 168 
92 69 162 
92 73 163 
92 80 60 
92 106 34 
92 108 31 
92 110 31 
92 112 35 
92 115 193 
92 117 224 
93 23 47 
93 33 204 
93 51 204 
93 52 50 
93 56 50 
93 67 81 
93 77 164 
93 80 188 
93 86 40 
93 93 56 
93 97 64 
93 104 65 
93 106 141 
93 112 149 
93 117 73 
93 119 211 
93 124 216 
94 31 28 
94 44 209 
94 45 76 
94 63 56 
94 76 138 
94 84 164 
94 86 176 
94 97 148 
94 104 145 
94 115 70 
94 120 77 
94 123 199 
95 31 191 
95 50 206 
95 51 48 
95 70 49 
95 75 37 
95 77 32 
95 84 80 
95 86 125 
95 93 161 
95 122 78 
95 127 214 
96 24 133 
96 45 81 
96 82 38 
96 120 106 
96 127 70 
97 23 144 
97 28 37 
97 39 204 
97 82 147 
97 84 150 
97 102 148 
98 27 133 
98 47 218 
98 48 44 
98 75 55 
98 78 120 
98 116 90 
99 28 198 
99 37 193 
99 46 211 
99 69 39 
99 75 132 
100 0 157 
100 42 119 
100 78 157 
101 43 245 
101 45 48 
101 65 51 
101 68 137 
101 115 141 
102 2 206 
102 4 153 
102 41 197 
102 43 38 
102 61 54 
102 65 136 
102 98 106 
102 127 129 
103 29 221 
103 35 221 
103 38 223 
103 40 45 
103 61 128 
104 0 230 
104 4 221 
104 27 148 
104 29 72 
104 30 222 
104 35 212 
104 37 39 
104 56 52 
104 119 32 
104 121 79 
105 9 146 
105 30 48 
105 36 51 
105 56 124 
105 64 156 
105 97 152 
105 116 158 
106 0 111 
106 3 192 
106 9 203 
106 26 46 
106 68 158 
106 112 126 
106 118 191 
106 122 211 
106 124 100 
107 14 135 
107 108 122 
107 116 116 
108 8 231 
108 21 152 
108 23 44 
108 46 51 
108 100 102 
108 106 133 
108 108 200 
108 112 212 
108 114 133 
109 12 231 
109 47 138 
109 120 206 
110 7 106 
110 18 157 
110 42 55 
110 54 159 
110 90 142 
111 11 199 
111 17 224 
111 43 145 
111 99 111 
111 100 84 
111 112 213 
111 115 246 
112 11 84 
112 37 42 
112 47 164 
112 90 119 
112 94 118 
112 106 211 
112 120 52 
113 15 208 
113 17 43 
113 82 136 
113 97 211 
113 101 211 
113 112 196 
114 15 38 
114 37 139 
114 76 134 
114 92 214 
114 108 221 
114 114 113 
115 12 115 
115 29 55 
115 83 198 
115 123 97 
116 32 45 
116 34 148 
116 105 208 
116 109 99 
116 127 78 
117 12 46 
117 29 41 
118 31 146 
118 36 155 
118 101 202 
118 124 59 
118 127 132 
119 102 58 
120 7 131 
120 21 50 
120 117 88 
121 58 157 
121 70 138 
121 124 113 
122 7 46 
122 71 195 
122 96 211 
124 21 69 
124 98 27 
124 102 99 
125 0 125 
125 2 125 
125 127 39 
126 116 91 
127 0 167 
127 1 167 
127 2 48 
127 15 50 
127 18 28 
127 20 157 
127 67 143 
127 69 190 
127 88 214 
127 95 192 
127 96 54 
127 105 104 
127 125 44 
127 127 100 
3 773 789 774 
3 789 790 774 
3 725 773 774 
3 725 774 759 
3 774 790 759 
3 790 789 805 
3 789 788 805 
3 773 788 789 
3 720 725 759 
3 726 720 759 
3 738 773 725 
3 751 773 738 
3 709 725 720 
3 696 725 709 
3 696 738 725 
3 710 720 726 
3 708 738 696 
3 697 696 709 
3 773 751 781 
3 781 788 773 
3 788 781 793 
3 787 781 751 
3 677 695 678 
3 695 679 678 
3 738 695 751 
3 708 695 738 
3 680 695 708 
3 695 694 751 
3 677 694 695 
3 679 695 680 
3 732 751 694 
3 751 732 792 
3 787 751 792 
3 707 732 694 
3 696 680 708 
3 668 679 680 
3 633 668 680 
3 667 678 679 
3 668 667 679 
3 667 666 678 
3 656 666 667 
3 666 677 678 
3 680 696 681 
3 696 697 681 
3 633 680 681 
3 793 781 802 
3 787 802 781 
3 801 802 787 
3 265 279 273 
3 266 273 279 
3 296 316 279 
3 316 317 279 
3 287 279 317 
3 266 279 287 
3 316 345 317 
3 345 346 317 
3 327 345 316 
3 278 296 279 
3 297 287 317 
3 265 278 279 
3 277 296 278 
3 267 266 287 
3 287 288 267 
3 297 298 287 
3 288 287 298 
3 256 273 266 
3 255 273 256 
3 255 265 273 
3 315 327 316 
3 315 316 296 
3 345 327 353 
3 315 296 326 
3 326 344 315 
3 327 315 344 
3 344 353 327 
3 277 314 296 
3 314 326 296 
3 313 314 277 
3 265 277 278 
3 313 344 326 
3 313 326 314 
3 344 313 352 
3 286 277 254 
3 277 265 254 
3 286 313 277 
3 245 286 254 
3 313 286 325 
3 325 351 313 
3 351 352 313 
3 246 245 254 
3 255 254 265 
3 434 400 439 
3 284 400 434 
3 426 400 399 
3 339 399 400 
3 284 339 400 
3 438 400 426 
3 400 438 439 
3 392 284 434 
3 411 426 399 
3 399 339 411 
3 239 339 284 
3 249 339 239 
3 309 339 249 
3 339 309 411 
3 208 239 284 
3 230 249 239 
3 222 230 239 
3 222 239 223 
3 208 223 239 
3 229 249 230 
3 198 223 208 
3 207 223 198 
3 221 229 230 
3 188 207 198 
3 209 224 210 
3 224 211 210 
3 262 224 284 
3 240 224 262 
3 231 224 240 
3 209 284 224 
3 250 240 262 
3 211 224 231 
3 269 262 284 
3 208 284 209 
3 189 211 231 
3 231 232 189 
3 189 210 211 
3 200 209 210 
3 189 200 210 
3 284 392 269 
3 310 269 392 
3 392 401 310 
3 427 392 434 
3 199 208 209 
3 200 199 209 
3 250 262 269 
3 263 269 310 
3 269 263 250 
3 241 240 250 
3 231 240 241 
3 412 392 427 
3 401 392 412 
3 427 440 412 
3 412 418 401 
3 418 412 428 
3 324 310 401 
3 393 324 401 
3 198 208 199 
3 188 198 199 
3 132 199 200 
3 188 199 132 
3 439 476 434 
3 434 476 427 
3 427 476 457 
3 476 477 457 
3 440 427 457 
3 476 439 485 
3 674 703 688 
3 703 716 688 
3 703 674 715 
3 715 716 703 
3 716 715 736 
3 736 737 716 
3 689 688 716 
3 665 674 688 
3 664 674 665 
3 714 715 674 
3 663 674 664 
3 673 714 674 
3 715 714 736 
3 742 736 714 
3 663 673 674 
3 687 673 672 
3 687 714 673 
3 655 664 665 
3 637 664 655 
3 628 663 664 
3 637 628 664 
3 688 689 675 
3 689 704 675 
3 716 724 689 
3 704 689 724 
3 717 704 724 
3 724 731 717 
3 716 737 724 
3 730 724 737 
3 690 675 704 
3 638 675 690 
3 630 675 638 
3 665 688 675 
3 665 675 655 
3 630 655 675 
3 623 637 630 
3 637 655 630 
3 610 630 638 
3 609 630 610 
3 736 743 737 
3 743 746 737 
3 737 746 730 
3 628 637 629 
3 623 629 637 
3 628 629 601 
3 589 601 629 
3 623 589 629 
3 595 589 623 
3 581 589 595 
3 577 589 581 
3 576 589 577 
3 576 601 589 
3 609 595 623 
3 569 576 577 
3 582 581 595 
3 574 581 582 
3 622 628 616 
3 601 616 628 
3 622 616 615 
3 600 615 616 
3 616 601 600 
3 662 628 622 
3 627 662 622 
3 588 600 601 
3 576 588 601 
3 594 600 588 
3 594 615 600 
3 615 594 622 
3 621 622 594 
3 580 588 576 
3 580 594 588 
3 580 558 594 
3 559 558 580 
3 563 580 576 
3 563 576 569 
3 559 580 563 
3 547 563 569 
3 536 547 569 
3 662 663 628 
3 672 663 662 
3 636 662 627 
3 661 662 636 
3 577 574 569 
3 574 577 581 
3 560 569 574 
3 570 560 574 
3 569 560 536 
3 522 536 560 
3 559 563 554 
3 547 554 563 
3 568 594 558 
3 546 554 547 
3 541 559 554 
3 614 594 568 
3 347 334 333 
3 304 333 334 
3 334 348 304 
3 347 355 334 
3 355 356 334 
3 348 334 356 
3 356 355 368 
3 368 381 356 
3 381 382 356 
3 335 304 348 
3 347 367 355 
3 367 368 355 
3 293 304 335 
3 282 304 293 
3 281 333 304 
3 292 304 282 
3 292 281 304 
3 321 333 281 
3 274 281 292 
3 274 292 282 
3 236 274 282 
3 282 275 268 
3 260 268 275 
3 282 293 275 
3 293 305 275 
3 305 306 275 
3 276 275 306 
3 260 275 276 
3 306 307 276 
3 236 282 268 
3 261 260 276 
3 293 335 305 
3 335 336 305 
3 348 369 335 
3 336 335 371 
3 370 371 335 
3 357 336 371 
3 369 370 335 
3 356 369 348 
3 322 305 336 
3 369 356 383 
3 260 236 268 
3 219 274 236 
3 306 305 322 
3 709 720 710 
3 726 721 710 
3 698 710 721 
3 697 709 710 
3 698 697 710 
3 542 603 579 
3 603 698 579 
3 598 633 603 
3 633 698 603 
3 542 598 603 
3 697 698 633 
3 698 721 579 
3 681 697 633 
3 455 579 417 
3 513 542 579 
3 455 513 579 
3 656 633 598 
3 656 668 633 
3 667 668 656 
3 645 656 598 
3 341 312 264 
3 312 286 264 
3 342 343 312 
3 325 312 343 
3 286 312 325 
3 342 312 341 
3 340 341 311 
3 264 311 341 
3 272 311 264 
3 245 264 286 
3 350 340 311 
3 350 373 340 
3 341 340 373 
3 373 350 385 
3 372 385 350 
3 342 341 373 
3 295 350 285 
3 311 285 350 
3 272 285 311 
3 324 350 295 
3 244 272 264 
3 271 285 272 
3 225 272 244 
3 271 272 243 
3 225 243 272 
3 270 285 271 
3 242 271 243 
3 201 243 225 
3 226 244 264 
3 226 264 245 
3 192 244 226 
3 373 374 342 
3 394 408 373 
3 374 373 408 
3 343 342 374 
3 372 350 393 
3 393 402 372 
3 350 324 393 
3 385 372 403 
3 402 403 372 
3 310 324 295 
3 270 295 285 
3 263 310 270 
3 295 270 310 
3 253 270 271 
3 242 253 271 
3 343 360 325 
3 351 325 360 
3 360 343 374 
3 352 351 361 
3 849 857 820 
3 809 820 857 
3 849 820 813 
3 804 813 820 
3 820 809 804 
3 832 849 813 
3 797 813 804 
3 808 813 797 
3 772 797 778 
3 797 804 778 
3 804 809 778 
3 772 748 797 
3 735 748 772 
3 797 763 808 
3 755 763 797 
3 778 779 764 
3 757 764 779 
3 778 809 779 
3 809 857 779 
3 786 779 857 
3 757 779 786 
3 857 858 786 
3 833 786 858 
3 750 757 786 
3 772 778 764 
3 756 764 757 
3 749 756 757 
3 876 857 875 
3 858 857 876 
3 857 849 875 
3 756 772 764 
3 686 772 756 
3 422 415 406 
3 398 406 415 
3 422 447 415 
3 447 448 415 
3 423 415 448 
3 398 415 423 
3 448 455 423 
3 416 423 455 
3 384 422 406 
3 416 398 423 
3 358 384 406 
3 398 358 406 
3 391 422 384 
3 357 384 358 
3 349 358 398 
3 308 358 349 
3 307 358 308 
3 446 433 473 
3 422 433 446 
3 467 446 473 
3 467 468 446 
3 447 446 468 
3 474 467 483 
3 468 467 474 
3 446 447 422 
3 473 483 467 
3 482 483 473 
3 483 482 499 
3 468 469 447 
3 380 454 433 
3 454 473 433 
3 396 380 433 
3 390 380 396 
3 397 433 422 
3 383 397 391 
3 397 422 391 
3 369 383 391 
3 370 391 384 
3 396 433 397 
3 370 369 391 
3 396 397 382 
3 383 382 397 
3 367 380 390 
3 381 390 382 
3 390 396 382 
3 448 447 469 
3 469 468 474 
3 474 484 469 
3 455 448 469 
3 370 384 371 
3 357 371 384 
3 141 142 116 
3 134 116 142 
3 115 116 87 
3 85 87 116 
3 116 92 85 
3 92 116 117 
3 142 145 134 
3 117 116 134 
3 142 141 152 
3 141 116 115 
3 64 87 85 
3 54 64 85 
3 29 64 54 
3 150 144 161 
3 150 151 144 
3 149 144 114 
3 115 114 144 
3 144 141 115 
3 170 192 160 
3 161 160 192 
3 144 160 161 
3 149 160 144 
3 157 150 161 
3 157 151 150 
3 113 149 114 
3 141 144 151 
3 84 113 114 
3 114 87 84 
3 87 114 115 
3 143 149 113 
3 64 84 87 
3 84 83 113 
3 63 83 84 
3 67 84 64 
3 151 152 141 
3 151 162 152 
3 162 171 152 
3 171 172 152 
3 39 64 29 
3 53 64 39 
3 53 67 64 
3 713 735 772 
3 741 735 734 
3 712 734 735 
3 712 735 713 
3 748 735 741 
3 686 713 772 
3 701 723 712 
3 723 734 712 
3 734 723 741 
3 745 741 723 
3 748 755 797 
3 777 808 771 
3 763 771 808 
3 754 763 755 
3 747 748 741 
3 748 747 755 
3 745 747 741 
3 729 745 723 
3 700 729 723 
3 684 712 713 
3 685 713 686 
3 684 713 685 
3 702 686 756 
3 658 685 686 
3 659 658 686 
3 684 701 712 
3 634 701 684 
3 625 701 634 
3 183 215 184 
3 215 185 184 
3 214 246 215 
3 246 254 215 
3 234 215 255 
3 193 215 234 
3 254 255 215 
3 214 215 183 
3 185 215 193 
3 202 193 234 
3 157 214 183 
3 172 185 193 
3 161 214 157 
3 214 226 245 
3 214 245 246 
3 192 226 214 
3 192 214 161 
3 162 157 183 
3 213 244 192 
3 183 171 162 
3 171 183 184 
3 151 157 162 
3 169 192 170 
3 182 213 192 
3 182 192 169 
3 225 244 213 
3 181 201 182 
3 201 212 182 
3 212 213 182 
3 168 181 182 
3 159 182 169 
3 252 270 253 
3 233 253 242 
3 252 263 270 
3 251 263 252 
3 233 252 253 
3 233 242 243 
3 190 243 201 
3 190 233 243 
3 212 201 225 
3 191 190 201 
3 232 233 190 
3 232 252 233 
3 63 84 67 
3 112 113 83 
3 38 63 67 
3 38 67 53 
3 39 38 53 
3 4 38 39 
3 74 83 63 
3 52 63 37 
3 38 37 63 
3 52 74 63 
3 83 74 91 
3 91 112 83 
3 4 37 38 
3 113 112 143 
3 111 112 91 
3 36 37 4 
3 36 52 37 
3 36 62 52 
3 62 82 52 
3 74 52 82 
3 82 91 74 
3 3 36 4 
3 91 82 111 
3 234 255 256 
3 202 234 256 
3 227 202 256 
3 742 743 736 
3 743 742 750 
3 750 786 743 
3 746 743 786 
3 687 671 702 
3 687 672 671 
3 702 742 687 
3 714 687 742 
3 742 702 749 
3 670 702 671 
3 661 670 671 
3 662 661 671 
3 662 671 672 
3 750 749 757 
3 756 749 702 
3 749 750 742 
3 663 672 673 
3 660 702 670 
3 660 686 702 
3 654 660 670 
3 661 654 670 
3 338 308 349 
3 294 307 308 
3 308 338 294 
3 337 358 307 
3 248 294 338 
3 261 307 294 
3 261 276 307 
3 306 337 307 
3 322 337 306 
3 220 261 294 
3 248 220 294 
3 398 417 349 
3 417 338 349 
3 416 417 398 
3 455 417 416 
3 337 357 358 
3 336 357 337 
3 322 336 337 
3 309 437 411 
3 437 426 411 
3 323 449 437 
3 449 502 437 
3 470 437 491 
3 426 437 470 
3 323 437 309 
3 475 470 491 
3 491 437 502 
3 456 502 449 
3 359 456 323 
3 449 323 456 
3 438 426 470 
3 470 475 438 
3 475 493 438 
3 323 309 283 
3 249 283 309 
3 238 283 249 
3 197 323 283 
3 228 283 238 
3 197 283 228 
3 491 492 475 
3 492 493 475 
3 438 493 485 
3 493 534 485 
3 180 248 338 
3 237 248 180 
3 700 652 729 
3 613 652 700 
3 683 652 651 
3 624 651 652 
3 624 652 613 
3 729 683 740 
3 652 683 729 
3 711 740 683 
3 669 683 651 
3 625 613 700 
3 646 651 624 
3 612 646 624 
3 606 612 624 
3 606 624 613 
3 651 646 669 
3 599 619 612 
3 619 646 612 
3 556 606 613 
3 567 556 613 
3 699 683 669 
3 699 711 683 
3 739 761 711 
3 740 711 761 
3 728 739 711 
3 740 745 729 
3 745 740 754 
3 740 762 754 
3 762 763 754 
3 613 625 567 
3 700 701 625 
3 607 567 625 
3 593 606 556 
3 534 593 556 
3 701 700 723 
3 430 431 414 
3 431 424 414 
3 430 436 431 
3 436 445 431 
3 432 431 445 
3 424 431 432 
3 445 465 432 
3 420 414 424 
3 419 430 414 
3 404 414 420 
3 408 414 404 
3 419 414 408 
3 419 435 430 
3 435 444 430 
3 429 435 419 
3 424 425 420 
3 394 419 408 
3 374 408 395 
3 404 395 408 
3 443 435 429 
3 443 453 435 
3 453 479 435 
3 463 435 479 
3 479 480 463 
3 444 435 463 
3 479 453 488 
3 471 488 453 
3 463 464 444 
3 413 407 443 
3 402 407 413 
3 429 413 443 
3 413 429 419 
3 394 413 419 
3 444 445 436 
3 444 436 430 
3 445 444 464 
3 464 489 445 
3 464 463 480 
3 480 489 464 
3 403 413 394 
3 385 403 394 
3 94 89 130 
3 72 89 94 
3 105 94 130 
3 90 94 105 
3 130 131 105 
3 131 130 180 
3 123 130 89 
3 94 90 72 
3 73 72 90 
3 56 72 73 
3 71 89 72 
3 71 72 55 
3 56 55 72 
3 89 71 104 
3 104 123 89 
3 48 71 55 
3 42 55 56 
3 32 42 56 
3 28 42 32 
3 180 130 220 
3 155 130 123 
3 130 155 220 
3 179 220 155 
3 70 104 71 
3 47 70 71 
3 48 47 71 
3 104 103 122 
3 70 103 104 
3 66 70 47 
3 46 66 47 
3 42 48 55 
3 40 47 48 
3 41 40 48 
3 26 40 41 
3 122 123 104 
3 122 155 123 
3 69 103 70 
3 686 660 659 
3 653 659 660 
3 647 653 660 
3 635 658 659 
3 653 635 659 
3 647 660 654 
3 640 647 654 
3 259 303 281 
3 303 321 281 
3 259 281 219 
3 274 219 281 
3 332 333 321 
3 291 303 259 
3 302 303 291 
3 218 259 219 
3 235 259 218 
3 186 219 236 
3 206 218 219 
3 176 219 186 
3 187 186 236 
3 175 219 176 
3 175 206 219 
3 196 187 236 
3 174 206 175 
3 163 206 174 
3 177 176 186 
3 236 260 196 
3 220 196 260 
3 260 261 220 
3 179 196 220 
3 717 718 704 
3 718 717 731 
3 719 718 731 
3 730 731 724 
3 705 704 718 
3 704 705 690 
3 746 731 730 
3 880 881 865 
3 844 865 881 
3 880 865 864 
3 853 864 865 
3 844 853 865 
3 843 853 844 
3 869 844 881 
3 856 844 869 
3 862 864 850 
3 853 850 864 
3 843 850 853 
3 828 862 850 
3 850 843 829 
3 882 869 881 
3 864 862 880 
3 879 880 862 
3 878 879 862 
3 834 862 828 
3 836 844 856 
3 835 843 844 
3 830 835 844 
3 844 836 830 
3 823 843 835 
3 816 835 830 
3 800 823 816 
3 823 835 816 
3 368 367 390 
3 368 390 381 
3 382 383 356 
3 354 367 347 
3 367 354 380 
3 332 347 333 
3 332 354 347 
3 331 354 332 
3 366 454 380 
3 354 366 380 
3 454 421 466 
3 366 421 454 
3 329 421 366 
3 330 329 366 
3 365 421 329 
3 331 366 354 
3 407 401 418 
3 401 407 393 
3 442 452 418 
3 407 418 452 
3 402 393 407 
3 403 402 413 
3 443 407 452 
3 452 460 443 
3 460 461 443 
3 428 442 418 
3 5 29 22 
3 29 54 22 
3 4 39 29 
3 4 29 5 
3 85 68 54 
3 88 85 92 
3 92 118 88 
3 68 85 88 
3 118 117 135 
3 92 117 118 
3 22 54 68 
3 23 22 68 
3 5 22 23 
3 625 634 626 
3 620 626 634 
3 620 625 626 
3 634 635 620 
3 658 634 684 
3 625 620 607 
3 620 608 607 
3 552 557 553 
3 539 553 557 
3 556 567 557 
3 567 607 557 
3 562 557 608 
3 539 557 562 
3 607 608 557 
3 568 562 608 
3 551 557 552 
3 551 556 557 
3 545 553 539 
3 550 556 551 
3 525 539 562 
3 614 608 635 
3 568 608 614 
3 635 634 658 
3 608 620 635 
3 486 500 495 
3 500 525 495 
3 494 503 500 
3 503 517 500 
3 517 525 500 
3 525 520 495 
3 510 517 503 
3 450 500 486 
3 477 500 450 
3 494 500 477 
3 451 450 486 
3 478 451 486 
3 457 477 450 
3 458 451 478 
3 525 517 539 
3 519 517 516 
3 510 516 517 
3 517 519 539 
3 539 519 545 
3 562 535 525 
3 534 544 514 
3 519 514 544 
3 544 545 519 
3 515 514 519 
3 558 562 568 
3 535 562 558 
3 540 535 558 
3 486 495 487 
3 495 520 487 
3 504 487 520 
3 471 487 504 
3 520 511 504 
3 460 487 471 
3 520 525 535 
3 526 535 540 
3 520 535 526 
3 558 559 540 
3 541 540 559 
3 529 526 540 
3 511 520 526 
3 526 529 511 
3 145 146 134 
3 146 138 134 
3 145 153 146 
3 153 154 146 
3 138 146 154 
3 158 154 153 
3 154 163 138 
3 117 134 138 
3 135 117 138 
3 145 142 152 
3 152 193 145 
3 158 145 193 
3 138 139 135 
3 125 118 135 
3 135 139 125 
3 138 163 139 
3 147 139 163 
3 136 125 139 
3 126 125 136 
3 119 125 126 
3 163 154 173 
3 158 173 154 
3 195 173 204 
3 163 173 195 
3 173 158 194 
3 139 137 136 
3 137 139 147 
3 163 164 147 
3 128 137 147 
3 195 206 163 
3 164 163 174 
3 206 205 218 
3 195 205 206 
3 164 165 147 
3 97 118 125 
3 97 125 119 
3 747 745 754 
3 754 755 747 
3 165 175 176 
3 147 165 176 
3 166 176 177 
3 176 166 147 
3 129 147 166 
3 128 147 129 
3 155 129 166 
3 98 128 99 
3 128 100 99 
3 127 137 128 
3 100 128 129 
3 98 127 128 
3 101 100 129 
3 102 101 129 
3 120 127 98 
3 86 98 99 
3 175 165 164 
3 174 175 164 
3 177 178 166 
3 166 178 155 
3 178 177 187 
3 186 187 177 
3 178 179 155 
3 122 129 155 
3 102 129 121 
3 129 122 121 
3 103 121 122 
3 126 137 127 
3 126 136 137 
3 858 861 833 
3 746 786 833 
3 746 833 827 
3 833 839 827 
3 839 833 861 
3 861 878 839 
3 810 746 827 
3 731 746 810 
3 861 858 877 
3 876 877 858 
3 877 878 861 
3 205 235 218 
3 247 259 235 
3 235 217 247 
3 205 217 235 
3 280 259 258 
3 247 258 259 
3 280 291 259 
3 290 291 280 
3 257 280 258 
3 360 375 351 
3 361 351 375 
3 375 376 361 
3 352 377 344 
3 377 378 344 
3 840 824 856 
3 790 824 840 
3 836 824 817 
3 805 817 824 
3 790 805 824 
3 851 840 856 
3 836 856 824 
3 840 845 790 
3 793 817 805 
3 788 793 805 
3 869 882 859 
3 868 859 882 
3 869 859 856 
3 851 856 859 
3 859 852 851 
3 868 852 859 
3 852 845 851 
3 840 851 845 
3 759 790 845 
3 817 830 836 
3 816 830 817 
3 622 621 627 
3 627 621 636 
3 614 621 594 
3 635 640 614 
3 621 614 640 
3 640 635 647 
3 636 621 640 
3 647 635 653 
3 640 654 636 
3 439 438 485 
3 534 493 566 
3 543 493 492 
3 566 593 534 
3 491 543 492 
3 561 493 543 
3 493 561 566 
3 524 543 491 
3 502 524 491 
3 485 477 476 
3 514 485 534 
3 508 485 514 
3 494 485 508 
3 477 485 494 
3 514 515 508 
3 550 534 556 
3 544 534 550 
3 550 551 544 
3 551 552 544 
3 331 321 303 
3 331 332 321 
3 302 320 303 
3 320 331 303 
3 331 320 366 
3 330 366 320 
3 301 320 302 
3 301 330 320 
3 300 330 301 
3 290 301 302 
3 290 302 291 
3 872 873 860 
3 846 860 873 
3 863 873 874 
3 855 846 873 
3 863 855 873 
3 874 875 863 
3 854 860 846 
3 848 847 863 
3 841 847 848 
3 863 875 848 
3 849 848 875 
3 842 848 849 
3 848 842 841 
3 855 863 847 
3 838 855 847 
3 838 847 841 
3 819 841 842 
3 838 826 855 
3 796 826 838 
3 831 855 826 
3 846 855 831 
3 807 826 796 
3 795 807 796 
3 832 842 849 
3 819 832 813 
3 808 819 813 
3 819 842 832 
3 466 490 454 
3 481 454 490 
3 473 454 481 
3 490 501 481 
3 490 466 497 
3 482 481 498 
3 473 481 482 
3 300 329 330 
3 868 882 883 
3 834 878 862 
3 839 878 834 
3 867 872 860 
3 867 871 872 
3 866 871 867 
3 854 867 860 
3 866 867 854 
3 870 871 866 
3 782 866 854 
3 806 782 854 
3 837 854 846 
3 806 854 837 
3 818 806 837 
3 850 829 828 
3 823 829 843 
3 814 828 829 
3 831 837 846 
3 825 837 831 
3 818 837 825 
3 815 829 823 
3 799 815 823 
3 838 841 819 
3 776 838 819 
3 785 838 776 
3 777 776 819 
3 821 827 839 
3 821 839 834 
3 810 827 821 
3 796 838 785 
3 811 818 825 
3 803 811 825 
3 812 803 825 
3 811 806 818 
3 794 806 811 
3 799 823 800 
3 822 821 834 
3 834 828 822 
3 810 821 822 
3 777 819 808 
3 826 825 831 
3 812 825 826 
3 801 816 802 
3 816 817 802 
3 814 829 815 
3 798 815 799 
3 822 828 814 
3 780 822 814 
3 807 812 826 
3 791 803 812 
3 807 791 812 
3 801 800 816 
3 792 800 801 
3 780 810 822 
3 798 780 814 
3 731 810 780 
3 719 731 780 
3 770 776 777 
3 803 794 811 
3 793 802 817 
3 787 792 801 
3 798 814 815 
3 758 798 799 
3 732 758 799 
3 792 732 799 
3 795 791 807 
3 784 794 803 
3 758 719 780 
3 762 771 763 
3 727 791 795 
3 782 806 783 
3 794 783 806 
3 766 783 794 
3 784 766 794 
3 775 766 784 
3 791 784 803 
3 775 784 791 
3 799 800 792 
3 780 798 758 
3 785 795 796 
3 767 795 785 
3 727 795 767 
3 657 791 727 
3 775 791 657 
3 733 727 767 
3 753 766 775 
3 753 775 657 
3 768 767 785 
3 768 785 776 
3 760 767 768 
3 765 782 783 
3 765 783 766 
3 752 765 766 
3 753 752 766 
3 706 719 758 
3 771 770 777 
3 769 776 770 
3 761 769 770 
3 761 770 771 
3 768 776 769 
3 760 769 761 
3 739 760 761 
3 744 753 657 
3 762 761 771 
3 740 761 762 
3 768 769 760 
3 733 767 739 
3 760 739 767 
3 744 765 752 
3 744 752 753 
3 732 706 758 
3 604 744 657 
3 728 733 739 
3 699 728 711 
3 727 733 722 
3 728 722 733 
3 682 722 728 
3 699 682 728 
3 706 732 707 
3 692 706 707 
3 693 692 707 
3 648 692 693 
3 693 707 694 
3 644 648 693 
3 705 718 719 
3 690 705 691 
3 705 719 691 
3 646 682 699 
3 669 646 699 
3 650 682 646 
3 682 657 727 
3 682 727 722 
3 650 657 682 
3 719 706 691 
3 692 691 706 
3 641 690 691 
3 638 690 641 
3 676 693 694 
3 649 644 693 
3 642 691 692 
3 641 691 642 
3 619 650 646 
3 676 694 677 
3 666 676 677 
3 693 676 649 
3 666 649 676 
3 643 648 644 
3 632 643 644 
3 648 642 692 
3 639 641 642 
3 658 684 685 
3 618 657 650 
3 656 649 666 
3 645 649 656 
3 654 661 636 
3 604 657 618 
3 586 604 618 
3 619 618 650 
3 605 618 619 
3 605 586 618 
3 611 645 598 
3 632 645 611 
3 645 644 649 
3 632 644 645 
3 642 648 643 
3 631 643 632 
3 631 642 643 
3 617 632 611 
3 598 585 611 
3 572 585 598 
3 597 639 631 
3 639 642 631 
3 617 631 632 
3 584 639 597 
3 639 638 641 
3 596 638 639 
3 584 596 639 
3 617 597 631 
3 610 638 596 
3 611 597 617 
3 583 596 584 
3 602 610 596 
3 602 609 610 
3 609 623 630 
3 582 609 602 
3 582 595 609 
3 587 619 591 
3 599 591 619 
3 605 619 587 
3 573 605 587 
3 592 591 599 
3 564 605 573 
3 533 586 605 
3 549 533 605 
3 564 549 605 
3 585 597 611 
3 599 612 606 
3 593 599 606 
3 538 572 598 
3 542 538 598 
3 584 597 578 
3 585 578 597 
3 590 602 596 
3 565 602 571 
3 590 571 602 
3 565 582 602 
3 592 593 566 
3 555 586 533 
3 570 582 565 
3 583 571 590 
3 599 593 592 
3 575 584 578 
3 583 590 596 
3 587 592 566 
3 591 592 587 
3 573 587 566 
3 571 583 575 
3 583 584 575 
3 548 571 575 
3 572 578 585 
3 572 575 578 
3 537 548 575 
3 574 582 570 
3 560 570 565 
3 537 575 572 
3 538 537 572 
3 564 573 566 
3 561 564 566 
3 548 565 571 
3 560 565 548 
3 549 561 543 
3 518 560 548 
3 549 564 561 
3 518 522 560 
3 465 522 518 
3 546 541 554 
3 530 541 546 
3 359 555 456 
3 507 456 555 
3 533 507 555 
3 531 546 547 
3 532 531 547 
3 530 546 531 
3 544 552 553 
3 544 553 545 
3 528 533 549 
3 528 549 543 
3 524 528 543 
3 523 533 528 
3 518 548 537 
3 506 518 537 
3 536 532 547 
3 521 532 536 
3 527 531 532 
3 529 541 530 
3 499 542 513 
3 499 538 542 
3 498 538 499 
3 529 540 541 
3 511 529 530 
3 512 511 530 
3 501 538 498 
3 506 537 538 
3 506 538 501 
3 472 518 506 
3 521 536 522 
3 489 521 522 
3 527 532 521 
3 496 521 489 
3 507 533 523 
3 502 507 523 
3 523 524 502 
3 527 530 531 
3 530 527 512 
3 521 512 527 
3 505 511 512 
3 523 528 524 
3 496 512 521 
3 489 522 465 
3 445 489 465 
3 480 496 489 
3 505 512 496 
3 509 515 519 
3 509 519 516 
3 508 515 509 
3 472 465 518 
3 466 472 506 
3 497 466 506 
3 509 516 510 
3 494 509 503 
3 509 510 503 
3 499 513 484 
3 455 484 513 
3 469 484 455 
3 474 499 484 
3 483 499 474 
3 504 511 505 
3 471 504 488 
3 504 505 488 
3 496 488 505 
3 494 508 509 
3 456 507 502 
3 506 501 497 
3 490 497 501 
3 459 487 460 
3 478 487 459 
3 481 501 498 
3 482 498 499 
3 479 488 496 
3 479 496 480 
3 462 471 453 
3 486 487 478 
3 458 478 459 
3 461 460 471 
3 452 451 458 
3 442 451 452 
3 440 457 450 
3 421 465 472 
3 421 472 466 
3 410 465 421 
3 462 461 471 
3 432 465 425 
3 410 425 465 
3 409 425 410 
3 424 432 425 
3 443 461 462 
3 443 462 453 
3 452 459 460 
3 452 458 459 
3 441 440 450 
3 441 450 451 
3 441 451 442 
3 428 441 442 
3 412 440 428 
3 440 441 428 
3 409 420 425 
3 404 420 409 
3 410 421 389 
3 365 389 421 
3 388 410 389 
3 405 410 387 
3 388 387 410 
3 364 389 365 
3 328 365 329 
3 395 404 409 
3 377 395 409 
3 409 405 377 
3 405 409 410 
3 386 405 387 
3 379 386 387 
3 386 377 405 
3 376 395 377 
3 375 374 395 
3 376 375 395 
3 378 386 379 
3 378 377 386 
3 361 376 377 
3 352 361 377 
3 373 385 394 
3 362 388 389 
3 363 389 364 
3 362 389 363 
3 379 387 362 
3 387 388 362 
3 353 362 363 
3 345 353 363 
3 353 379 362 
3 344 378 379 
3 344 379 353 
3 360 374 375 
3 346 364 365 
3 346 365 328 
3 318 346 328 
3 317 346 318 
3 363 364 345 
3 346 345 364 
3 359 197 124 
3 197 359 323 
3 297 317 318 
3 299 329 300 
3 319 329 299 
3 290 289 301 
3 280 289 290 
3 289 300 301 
3 319 328 329 
3 289 299 300 
3 328 319 318 
3 298 318 319 
3 288 298 319 
3 299 288 319 
3 298 297 318 
3 289 288 299 
3 257 288 289 
3 280 257 289 
3 267 288 257 
3 237 220 248 
3 227 267 257 
3 216 227 257 
3 140 197 228 
3 247 257 258 
3 256 266 267 
3 256 267 227 
3 251 250 263 
3 232 251 252 
3 241 250 251 
3 232 241 251 
3 257 217 216 
3 217 257 247 
3 203 227 216 
3 203 202 227 
3 133 232 190 
3 232 231 241 
3 229 238 249 
3 228 238 229 
3 180 220 237 
3 212 225 213 
3 221 228 229 
3 204 217 205 
3 189 232 133 
3 112 133 190 
3 111 133 112 
3 230 222 221 
3 207 221 222 
3 156 140 228 
3 228 221 156 
3 156 221 207 
3 194 203 216 
3 173 194 216 
3 194 202 203 
3 193 202 194 
3 207 222 223 
3 156 207 188 
3 204 216 217 
3 195 204 205 
3 173 216 204 
3 132 200 189 
3 96 156 188 
3 95 156 96 
3 158 193 194 
3 181 191 201 
3 167 181 168 
3 96 188 132 
3 133 132 189 
3 124 197 107 
3 197 140 107 
3 179 187 196 
3 178 187 179 
3 172 193 152 
3 167 190 191 
3 167 191 181 
3 112 190 167 
3 143 112 167 
3 171 184 185 
3 171 185 172 
3 159 168 182 
3 149 159 169 
3 143 167 168 
3 159 143 168 
3 148 143 159 
3 149 169 170 
3 149 170 160 
3 148 159 149 
3 143 148 149 
3 145 158 153 
3 95 140 156 
3 108 140 95 
3 79 95 96 
3 107 140 108 
3 76 107 108 
3 77 76 108 
3 78 108 95 
3 78 77 108 
3 59 77 78 
3 109 133 110 
3 111 110 133 
3 109 132 133 
3 81 109 110 
3 82 81 110 
3 82 110 111 
3 96 132 109 
3 80 96 109 
3 81 80 109 
3 90 105 131 
3 120 126 127 
3 93 120 98 
3 119 126 120 
3 124 107 106 
3 75 106 107 
3 102 121 103 
3 86 102 103 
3 69 86 103 
3 93 119 120 
3 97 119 93 
3 88 97 93 
3 97 88 118 
3 62 81 82 
3 62 80 81 
3 58 76 77 
3 60 59 78 
3 75 107 76 
3 50 75 76 
3 20 75 50 
3 1 75 20 
3 101 102 86 
3 100 101 86 
3 99 100 86 
3 93 98 86 
3 65 93 86 
3 68 88 93 
3 96 80 79 
3 78 95 79 
3 61 79 80 
3 51 61 80 
3 60 78 79 
3 61 60 79 
3 35 60 61 
3 65 68 93 
3 69 65 86 
3 44 65 69 
3 43 65 44 
3 51 80 62 
3 36 51 62 
3 34 59 60 
3 59 58 77 
3 50 76 58 
3 21 58 59 
3 0 75 1 
3 57 56 73 
3 32 56 49 
3 56 57 49 
3 69 70 66 
3 45 69 66 
3 40 46 47 
3 44 69 45 
3 46 45 66 
3 31 45 46 
3 30 44 45 
3 43 23 68 
3 43 68 65 
3 24 23 43 
3 25 46 40 
3 26 25 40 
3 25 31 46 
3 24 43 44 
3 30 24 44 
3 14 24 30 
3 51 35 61 
3 36 35 51 
3 35 34 60 
3 3 34 35 
3 21 59 34 
3 3 21 34 
3 13 21 3 
3 21 50 58 
3 20 50 21 
3 13 20 21 
3 33 32 49 
3 18 28 32 
3 41 48 42 
3 3 35 36 
3 2 20 13 
3 18 32 33 
3 19 18 33 
3 27 41 42 
3 27 26 41 
3 17 26 27 
3 30 45 31 
3 15 25 26 
3 16 30 31 
3 16 14 30 
3 6 23 24 
3 7 6 24 
3 27 42 28 
3 17 27 28 
3 15 26 17 
3 10 15 17 
3 2 13 3 
3 12 18 19 
3 11 28 18 
3 25 16 31 
3 9 16 25 
3 9 14 16 
3 8 14 9 
3 11 17 28 
3 12 11 18 
3 10 17 11 
3 9 25 15 
3 10 9 15 
3 7 24 14 
3 5 23 6 
3 8 7 14 
3 1 20 2 
