OFF
1384 2702 0
0 0 162 
0 8 156 
0 19 172 
0 25 87 
0 71 104 
0 92 45 
0 98 55 
0 100 128 
0 103 129 
0 105 37 
0 116 36 
0 120 84 
0 127 46 
1 108 30 
2 19 152 
2 102 153 
2 114 39 
2 117 33 
3 106 167 
3 108 153 
3 110 150 
3 119 102 
3 125 67 
3 127 55 
4 12 172 
4 19 81 
4 91 52 
4 97 39 
4 100 61 
4 110 176 
4 114 164 
4 116 174 
4 119 167 
4 121 168 
5 17 80 
5 86 69 
5 105 144 
5 108 156 
5 125 195 
5 127 197 
6 8 167 
6 25 93 
6 35 107 
6 43 108 
6 63 87 
6 70 69 
6 80 43 
6 114 134 
6 118 161 
6 120 174 
7 4 150 
7 96 122 
7 100 65 
7 104 54 
7 107 38 
7 111 34 
7 114 58 
7 118 75 
7 127 185 
8 13 146 
8 40 153 
8 59 147 
8 79 130 
8 83 154 
8 89 152 
8 120 98 
8 125 103 
8 127 100 
9 4 171 
9 18 165 
9 23 162 
9 29 162 
9 37 167 
9 46 168 
9 100 151 
9 106 155 
9 110 159 
10 64 175 
10 74 176 
10 80 172 
10 97 174 
10 106 175 
10 110 177 
10 117 167 
10 121 167 
10 127 162 
12 60 179 
13 0 168 
13 7 159 
13 12 161 
13 20 163 
13 30 159 
13 36 171 
13 41 171 
13 46 173 
13 54 175 
13 64 176 
13 74 183 
13 83 178 
13 89 183 
13 104 182 
13 120 182 
14 80 175 
14 96 173 
14 108 179 
14 127 180 
15 38 129 
15 54 140 
15 59 142 
15 83 148 
15 90 180 
15 99 181 
15 119 157 
15 122 165 
16 30 78 
16 39 84 
16 80 113 
16 97 92 
16 101 111 
16 103 219 
16 104 166 
16 105 214 
16 106 106 
16 108 158 
16 112 154 
16 114 162 
16 125 49 
17 0 87 
17 9 85 
17 21 74 
17 45 69 
17 54 69 
17 56 67 
17 63 79 
17 71 85 
17 76 68 
17 84 78 
17 88 84 
17 89 129 
17 90 62 
17 96 53 
17 98 153 
17 99 56 
17 101 160 
17 102 70 
17 107 177 
17 109 48 
17 112 52 
17 115 59 
18 0 103 
18 89 75 
18 97 159 
18 99 55 
18 100 183 
18 103 36 
18 106 40 
18 120 45 
18 127 38 
19 45 97 
19 54 92 
19 80 94 
19 90 141 
19 95 121 
19 99 164 
19 100 45 
19 102 49 
19 116 37 
20 95 53 
20 99 36 
21 21 103 
21 65 105 
21 80 119 
21 85 119 
21 87 145 
21 99 34 
21 115 44 
21 127 77 
22 68 100 
22 72 109 
22 73 157 
22 77 135 
22 85 59 
22 87 51 
22 89 68 
22 91 53 
22 96 76 
22 99 90 
22 102 38 
23 69 37 
23 71 144 
23 75 63 
23 76 140 
23 77 42 
23 79 70 
23 83 50 
23 90 149 
23 92 66 
23 99 43 
23 100 98 
23 110 55 
24 29 101 
24 73 144 
24 76 46 
24 78 117 
24 85 123 
24 90 51 
24 110 88 
25 19 99 
25 69 127 
25 73 60 
25 75 94 
25 77 131 
25 78 76 
25 81 119 
25 83 63 
25 84 126 
25 85 39 
25 88 75 
25 98 59 
25 101 35 
25 102 126 
25 107 39 
25 110 42 
26 66 85 
26 68 57 
26 71 71 
26 72 147 
26 82 43 
26 83 142 
26 93 42 
26 101 138 
26 102 75 
26 104 79 
26 106 116 
26 108 138 
26 110 86 
26 122 47 
26 127 68 
27 44 101 
27 66 198 
27 69 153 
27 73 56 
27 77 56 
27 81 58 
27 82 116 
27 83 44 
27 106 43 
27 108 37 
27 127 137 
28 38 105 
28 50 108 
28 64 112 
28 65 200 
28 72 56 
28 74 61 
28 75 118 
28 79 71 
28 80 143 
28 86 59 
28 89 47 
28 90 96 
28 97 44 
28 99 55 
28 100 107 
28 110 49 
28 127 61 
29 12 121 
29 38 91 
29 40 87 
29 42 82 
29 44 79 
29 47 84 
29 66 137 
29 80 51 
29 81 110 
29 87 126 
29 90 169 
29 91 133 
29 95 122 
29 97 133 
29 100 32 
29 105 41 
29 125 45 
30 33 100 
30 35 99 
30 39 216 
30 42 211 
30 45 219 
30 48 77 
30 50 95 
30 67 147 
30 68 207 
30 69 41 
30 76 62 
30 78 91 
30 82 68 
30 83 112 
30 91 88 
30 93 101 
30 95 49 
30 100 131 
30 103 46 
30 105 96 
30 108 60 
30 120 59 
30 122 98 
31 30 107 
31 32 213 
31 33 218 
31 35 208 
31 47 185 
31 49 219 
31 57 118 
31 68 75 
31 70 37 
31 76 140 
31 90 74 
31 92 138 
31 99 131 
31 105 44 
31 106 99 
31 124 124 
32 24 119 
32 27 114 
32 29 217 
32 31 195 
32 52 92 
32 56 100 
32 60 124 
32 62 173 
32 70 151 
32 81 159 
32 83 83 
32 84 115 
32 85 58 
32 88 106 
32 95 107 
32 98 42 
32 100 75 
32 105 105 
32 110 43 
32 123 59 
32 124 36 
32 126 146 
33 27 170 
33 33 103 
33 52 205 
33 55 223 
33 57 112 
33 61 159 
33 62 54 
33 63 49 
33 64 182 
33 68 38 
33 69 133 
33 70 78 
33 71 106 
33 77 56 
33 79 132 
33 81 52 
33 87 121 
33 90 130 
33 91 65 
33 97 139 
33 99 120 
33 101 131 
33 106 45 
33 126 41 
34 27 98 
34 38 116 
34 39 157 
34 47 130 
34 55 214 
34 57 223 
34 59 128 
34 61 62 
34 67 35 
34 68 100 
34 70 107 
34 80 49 
34 82 126 
34 84 153 
34 87 60 
34 88 143 
34 89 60 
34 92 84 
34 95 134 
34 97 66 
34 98 109 
34 99 166 
34 100 56 
34 102 58 
34 112 91 
34 114 48 
34 117 32 
34 124 117 
35 25 108 
35 52 198 
35 57 109 
35 62 84 
35 64 102 
35 67 120 
35 69 36 
35 72 36 
35 82 38 
35 84 84 
35 88 55 
35 89 115 
35 108 104 
35 109 52 
35 112 36 
35 113 97 
35 122 47 
35 124 31 
35 126 75 
35 127 123 
36 49 167 
36 52 103 
36 61 134 
36 62 185 
36 65 35 
36 66 128 
36 82 38 
36 83 46 
36 85 157 
36 113 49 
36 116 133 
36 119 48 
36 127 38 
37 39 97 
37 43 103 
37 47 150 
37 50 96 
37 64 59 
37 65 116 
37 66 39 
37 81 45 
37 82 167 
37 83 138 
37 85 55 
37 96 163 
37 102 127 
37 104 86 
37 110 113 
37 111 64 
37 118 134 
37 121 108 
37 124 121 
37 125 74 
38 18 125 
38 48 90 
38 62 68 
38 70 105 
38 71 54 
38 82 53 
38 83 71 
38 88 131 
38 91 117 
38 95 86 
38 97 70 
38 98 131 
38 104 151 
38 108 51 
38 111 143 
38 120 62 
38 122 85 
38 124 75 
38 125 42 
38 126 109 
39 41 93 
39 42 138 
39 49 135 
39 61 113 
39 67 49 
39 73 117 
39 75 45 
39 89 121 
39 90 214 
39 93 218 
39 95 55 
39 96 129 
39 97 148 
39 98 58 
39 100 111 
39 108 153 
39 109 139 
39 114 110 
39 115 35 
39 119 134 
39 122 139 
39 126 50 
40 17 95 
40 20 105 
40 45 111 
40 58 130 
40 61 50 
40 62 97 
40 64 43 
40 67 127 
40 72 129 
40 74 94 
40 79 79 
40 80 40 
40 83 47 
40 84 51 
40 88 211 
40 89 185 
40 90 94 
40 92 186 
40 98 171 
40 100 171 
40 103 147 
40 104 114 
40 115 150 
40 116 58 
40 125 120 
41 14 126 
41 15 174 
41 39 102 
41 47 142 
41 59 45 
41 61 119 
41 62 43 
41 71 87 
41 72 92 
41 74 38 
41 77 83 
41 79 157 
41 81 164 
41 84 171 
41 89 106 
41 91 215 
41 92 53 
41 97 47 
41 98 150 
41 100 86 
41 101 150 
41 102 55 
41 103 53 
41 105 159 
41 108 157 
41 112 126 
41 115 53 
41 124 97 
41 125 45 
41 127 74 
42 33 122 
42 37 135 
42 48 117 
42 60 38 
42 62 41 
42 63 114 
42 65 85 
42 68 54 
42 70 135 
42 71 59 
42 72 171 
42 73 49 
42 78 86 
42 80 112 
42 81 45 
42 86 196 
42 87 95 
42 101 51 
42 102 97 
42 103 162 
42 105 43 
42 107 32 
42 111 38 
42 112 42 
42 117 46 
42 123 55 
42 127 130 
43 53 136 
43 60 85 
43 62 120 
43 63 41 
43 65 39 
43 69 96 
43 70 35 
43 72 51 
43 73 130 
43 76 130 
43 77 180 
43 78 162 
43 80 36 
43 84 175 
43 87 89 
43 89 158 
43 90 45 
43 101 162 
43 103 121 
43 104 176 
43 107 45 
43 108 47 
43 110 184 
43 112 120 
43 114 124 
43 116 101 
43 127 49 
44 0 136 
44 15 127 
44 62 32 
44 64 109 
44 75 147 
44 77 40 
44 78 53 
44 84 83 
44 86 106 
44 87 188 
44 88 50 
44 100 53 
44 102 66 
44 103 184 
44 105 79 
44 107 186 
44 111 82 
44 112 37 
44 113 51 
44 114 169 
44 115 37 
44 116 38 
45 35 116 
45 42 136 
45 57 37 
45 63 37 
45 65 46 
45 68 44 
45 73 51 
45 75 36 
45 76 151 
45 77 135 
45 79 38 
45 81 47 
45 82 109 
45 84 89 
45 100 91 
45 104 36 
45 107 46 
45 109 172 
45 110 39 
45 111 140 
46 57 104 
46 59 37 
46 67 120 
46 77 28 
46 81 169 
46 83 124 
46 84 195 
46 85 57 
46 95 47 
46 100 45 
46 112 63 
46 113 65 
47 50 138 
47 57 41 
47 59 96 
47 68 39 
47 77 29 
47 82 155 
47 83 211 
47 110 62 
47 111 115 
47 123 36 
47 127 105 
48 32 110 
48 33 154 
48 54 51 
48 64 94 
48 65 32 
48 75 36 
48 77 157 
48 78 113 
48 81 190 
48 83 46 
48 105 68 
48 114 47 
48 120 45 
49 60 37 
49 64 51 
49 65 120 
49 73 37 
49 74 120 
49 77 113 
49 80 189 
49 81 52 
50 50 78 
50 54 52 
50 66 44 
50 71 35 
50 73 147 
50 74 108 
50 76 194 
50 77 200 
50 78 203 
50 121 102 
50 125 118 
50 127 121 
51 27 145 
51 54 80 
51 69 34 
51 71 159 
51 73 118 
51 74 204 
51 77 206 
51 78 38 
51 79 45 
51 88 53 
51 115 46 
51 122 38 
52 23 133 
52 58 72 
52 61 36 
52 62 69 
52 70 98 
52 72 190 
52 74 187 
52 76 167 
52 77 33 
52 122 49 
53 28 106 
53 47 125 
53 53 44 
53 58 37 
53 61 100 
53 66 33 
53 70 184 
53 74 209 
53 75 50 
53 77 37 
53 79 34 
53 81 39 
53 84 42 
53 111 47 
53 117 121 
53 123 118 
54 43 148 
54 57 63 
54 58 105 
54 61 35 
54 64 29 
54 66 155 
54 72 195 
54 79 109 
54 81 109 
54 83 119 
54 119 115 
55 17 143 
55 27 120 
55 28 180 
55 49 51 
55 52 108 
55 54 44 
55 57 119 
55 60 117 
55 63 49 
55 64 162 
55 65 103 
55 71 203 
55 72 76 
55 80 58 
55 83 81 
55 85 122 
55 108 55 
55 112 119 
55 117 119 
55 120 44 
56 13 184 
56 52 35 
56 54 127 
56 56 44 
56 58 54 
56 60 40 
56 61 33 
56 63 149 
56 64 124 
56 65 194 
56 86 90 
56 100 55 
56 109 123 
56 121 122 
57 10 123 
57 42 168 
57 43 89 
57 44 119 
57 49 43 
57 54 40 
57 55 107 
57 56 94 
57 58 154 
57 59 44 
57 60 43 
57 61 157 
57 62 91 
57 69 193 
57 70 80 
57 81 115 
57 92 71 
57 112 130 
57 115 108 
57 117 37 
57 123 130 
58 24 182 
58 52 53 
58 62 185 
58 86 129 
58 89 114 
58 105 112 
58 108 121 
58 115 51 
59 24 145 
59 44 77 
59 49 116 
59 57 29 
59 67 199 
59 68 106 
59 101 55 
59 105 38 
59 108 48 
59 112 75 
59 116 127 
60 44 152 
60 46 79 
60 56 30 
60 57 145 
60 66 195 
60 71 151 
60 97 68 
61 22 192 
61 23 143 
61 24 200 
61 46 114 
61 48 101 
61 49 43 
61 56 163 
61 57 123 
61 66 80 
61 96 43 
61 104 111 
61 112 133 
62 52 56 
62 54 53 
62 55 154 
62 56 102 
62 57 182 
62 98 130 
63 13 193 
63 43 162 
63 51 116 
63 54 137 
63 55 83 
63 63 198 
63 64 85 
63 67 43 
63 69 141 
63 95 109 
64 12 115 
64 48 57 
64 49 89 
64 51 34 
64 54 84 
64 55 179 
64 63 110 
64 65 49 
64 96 64 
64 116 145 
65 45 57 
65 48 122 
65 50 125 
65 52 121 
65 53 81 
65 55 119 
65 88 147 
66 48 38 
66 49 44 
66 50 32 
66 54 167 
66 60 184 
66 68 100 
66 74 180 
66 96 112 
67 14 111 
67 15 194 
67 45 66 
67 49 137 
67 51 116 
67 61 82 
67 62 140 
67 67 72 
67 86 140 
67 87 104 
68 15 112 
68 58 188 
68 63 163 
68 65 63 
68 66 174 
68 68 201 
69 12 131 
69 43 165 
69 49 147 
69 60 168 
69 66 176 
69 71 170 
69 94 150 
69 101 144 
70 46 31 
70 49 138 
70 50 198 
70 62 67 
70 63 91 
70 66 69 
70 67 182 
70 115 135 
71 18 203 
71 46 45 
71 47 185 
71 65 54 
71 67 70 
71 68 147 
71 88 114 
72 18 114 
72 44 50 
72 45 35 
72 46 193 
72 47 110 
72 65 136 
72 91 118 
73 0 131 
73 18 93 
73 44 164 
73 46 145 
73 47 190 
73 62 176 
73 63 96 
73 81 129 
73 93 167 
74 20 227 
74 56 165 
74 67 122 
74 85 164 
75 20 83 
75 64 156 
75 85 211 
75 91 117 
76 18 114 
76 23 219 
76 45 194 
76 58 194 
76 67 156 
76 73 133 
76 81 89 
76 88 131 
76 89 203 
76 98 178 
77 23 88 
77 80 133 
77 94 154 
78 8 121 
78 25 225 
78 63 190 
78 68 220 
78 72 220 
78 75 215 
78 83 195 
78 90 147 
78 93 140 
78 94 64 
78 97 64 
78 127 147 
79 39 176 
79 66 212 
79 68 125 
79 77 226 
79 81 197 
79 86 181 
79 87 99 
79 91 129 
79 92 45 
79 98 196 
80 0 104 
80 25 62 
80 51 186 
80 66 80 
80 75 169 
80 85 143 
80 89 136 
80 114 167 
81 7 106 
81 27 89 
81 28 198 
81 29 223 
81 64 169 
81 80 145 
81 87 145 
81 89 45 
81 98 51 
81 113 182 
82 29 53 
82 34 197 
82 65 60 
82 66 44 
82 69 129 
82 85 136 
82 87 51 
82 122 160 
83 0 153 
83 18 112 
83 32 195 
83 38 156 
83 51 187 
83 62 204 
83 63 97 
83 64 119 
83 66 147 
83 69 156 
83 71 129 
83 82 134 
83 85 47 
83 100 208 
84 32 118 
84 33 214 
84 39 185 
84 49 199 
84 50 88 
84 58 214 
84 65 57 
84 66 163 
84 68 172 
84 83 53 
84 100 93 
84 101 213 
85 17 148 
85 25 154 
85 35 209 
85 50 46 
85 61 200 
85 62 138 
85 64 56 
85 69 64 
85 79 114 
85 87 45 
86 35 150 
86 48 198 
86 49 46 
86 50 114 
86 63 137 
86 67 45 
86 69 84 
86 75 116 
86 80 41 
86 99 50 
86 101 45 
86 116 204 
87 50 95 
87 55 43 
87 62 62 
87 75 56 
87 83 43 
87 87 81 
87 90 46 
87 93 47 
87 103 179 
88 8 161 
88 36 209 
88 59 51 
88 90 108 
88 92 91 
88 96 102 
88 99 118 
88 103 55 
88 105 220 
89 31 160 
89 58 42 
89 64 46 
89 91 64 
89 99 76 
89 105 49 
89 106 189 
90 22 146 
90 34 156 
90 46 202 
90 47 90 
90 57 49 
90 60 53 
90 75 94 
90 77 86 
90 82 82 
90 107 39 
90 109 216 
91 15 154 
91 31 118 
91 46 97 
91 53 151 
91 56 178 
91 59 161 
91 62 50 
91 66 42 
91 69 45 
91 73 50 
91 75 41 
91 77 40 
91 108 36 
91 110 27 
91 112 203 
91 116 216 
92 32 52 
92 62 170 
92 66 183 
92 68 168 
92 69 156 
92 73 156 
92 75 138 
92 80 39 
92 82 39 
92 106 35 
92 108 31 
92 110 32 
92 112 51 
92 115 189 
92 117 218 
93 23 40 
93 32 62 
93 33 213 
93 47 91 
93 48 160 
93 51 194 
93 52 59 
93 56 49 
93 62 49 
93 67 78 
93 73 157 
93 74 129 
93 76 155 
93 78 169 
93 80 165 
93 82 142 
93 86 42 
93 93 59 
93 97 64 
93 104 64 
93 106 137 
93 112 145 
93 117 77 
93 119 205 
93 123 215 
94 31 37 
94 32 208 
94 33 175 
94 44 204 
94 45 92 
94 64 47 
94 73 46 
94 76 141 
94 82 142 
94 84 163 
94 86 173 
94 97 148 
94 104 139 
94 115 77 
94 120 73 
94 123 208 
95 31 187 
95 50 191 
95 51 42 
95 75 40 
95 77 28 
95 84 86 
95 86 125 
95 93 166 
95 122 84 
95 127 213 
96 24 127 
96 32 163 
96 33 214 
96 44 86 
96 64 66 
96 69 49 
96 79 33 
96 82 39 
96 120 109 
96 127 75 
97 23 146 
97 28 45 
97 29 69 
97 30 220 
97 39 207 
97 45 94 
97 77 38 
97 82 143 
97 84 148 
97 97 111 
97 102 146 
98 27 124 
98 29 212 
98 30 185 
98 47 211 
98 75 50 
98 78 139 
99 28 195 
99 37 189 
99 42 162 
99 43 93 
99 46 195 
99 47 36 
99 69 46 
99 71 43 
99 75 136 
100 0 155 
100 30 221 
100 42 126 
100 45 217 
100 70 122 
100 78 158 
101 43 221 
101 45 44 
101 65 44 
101 68 136 
101 115 140 
101 118 52 
102 2 202 
102 4 147 
102 41 219 
102 43 38 
102 61 52 
102 65 144 
102 98 111 
102 127 126 
103 29 218 
103 35 221 
103 38 216 
103 40 36 
103 61 126 
103 69 156 
104 0 220 
104 4 214 
104 27 155 
104 29 80 
104 30 211 
104 35 199 
104 37 38 
104 56 54 
104 119 35 
104 121 74 
105 9 148 
105 30 46 
105 36 48 
105 56 129 
105 64 160 
105 97 150 
105 116 161 
106 0 107 
106 1 107 
106 3 201 
106 9 204 
106 26 45 
106 46 50 
106 112 127 
106 118 195 
106 122 201 
106 124 104 
107 14 137 
107 49 50 
107 108 123 
107 116 125 
108 8 222 
108 21 154 
108 23 42 
108 46 41 
108 50 146 
108 55 146 
108 100 96 
108 106 127 
108 108 194 
108 112 208 
108 114 130 
108 119 173 
109 12 221 
109 47 144 
109 120 199 
109 122 77 
110 7 106 
110 18 160 
110 42 58 
110 90 144 
110 117 222 
111 11 193 
111 17 218 
111 43 153 
111 99 108 
111 100 78 
111 104 133 
111 112 216 
111 115 220 
111 117 208 
112 11 98 
112 13 206 
112 37 48 
112 47 164 
112 90 125 
112 94 115 
112 104 206 
112 106 212 
112 115 203 
112 120 52 
112 126 99 
113 13 116 
113 15 214 
113 17 37 
113 37 72 
113 82 130 
113 97 208 
113 101 208 
113 112 196 
113 117 98 
114 15 35 
114 37 136 
114 76 141 
114 92 212 
114 108 212 
114 114 117 
115 12 122 
115 29 59 
115 83 194 
115 123 111 
115 125 68 
116 32 53 
116 34 150 
116 105 200 
116 109 100 
116 127 77 
117 12 46 
117 29 37 
117 118 78 
118 31 154 
118 36 158 
118 101 194 
118 105 71 
118 119 112 
118 124 61 
118 127 126 
119 102 57 
119 115 81 
119 120 71 
120 7 132 
120 21 45 
120 116 104 
121 24 54 
121 58 157 
121 70 136 
121 124 121 
122 7 41 
122 26 149 
122 71 191 
122 96 206 
122 107 113 
123 27 128 
123 107 90 
124 96 185 
124 97 61 
124 98 39 
124 112 99 
125 0 118 
125 2 127 
125 20 42 
125 22 140 
125 102 101 
125 127 56 
126 116 92 
127 0 171 
127 1 171 
127 2 49 
127 15 57 
127 18 29 
127 20 151 
127 25 165 
127 67 141 
127 69 188 
127 88 212 
127 94 205 
127 95 178 
127 96 48 
127 105 104 
127 125 50 
127 127 100 
3 254 356 315 
3 356 403 315 
3 357 315 403 
3 314 356 253 
3 254 253 356 
3 293 254 315 
3 378 403 356 
3 294 315 357 
3 148 166 112 
3 156 112 166 
3 113 112 156 
3 436 502 454 
3 502 528 454 
3 503 454 528 
3 455 454 503 
3 341 304 412 
3 305 304 341 
3 412 394 427 
3 304 394 412 
3 508 532 478 
3 479 478 532 
3 532 533 479 
3 458 478 479 
3 1348 1352 1316 
3 1322 1316 1352 
3 1352 1377 1322 
3 1309 1316 1322 
3 1289 1290 1270 
3 1271 1270 1290 
3 208 240 225 
3 240 253 225 
3 253 240 292 
3 189 208 225 
3 743 728 759 
3 729 728 743 
3 760 759 796 
3 743 759 760 
3 796 759 826 
3 742 759 727 
3 728 727 759 
3 715 742 727 
3 826 879 796 
3 795 826 759 
3 879 889 796 
3 805 796 889 
3 872 805 889 
3 220 232 187 
3 221 187 232 
3 232 233 221 
3 165 187 154 
3 155 154 187 
3 187 221 155 
3 199 155 221 
3 1243 1234 1253 
3 1220 1234 1243 
3 1252 1264 1234 
3 1253 1234 1264 
3 1251 1280 1252 
3 1264 1252 1280 
3 457 478 458 
3 385 457 458 
3 386 385 458 
3 457 456 477 
3 407 456 457 
3 385 407 457 
3 476 477 456 
3 360 383 335 
3 383 384 335 
3 361 335 384 
3 642 667 655 
3 667 687 655 
3 573 667 624 
3 642 624 667 
3 654 667 573 
3 548 654 573 
3 980 1032 988 
3 997 988 1032 
3 989 988 997 
3 1134 1177 1153 
3 1177 1178 1153 
3 1188 1177 1197 
3 1178 1177 1188 
3 1165 1177 1133 
3 1134 1133 1177 
3 1143 1159 1144 
3 1159 1169 1144 
3 1160 1144 1169 
3 725 741 726 
3 741 794 726 
3 700 725 726 
3 776 794 741 
3 758 726 794 
3 688 725 700 
3 714 700 726 
3 679 713 688 
3 713 725 688 
3 725 713 740 
3 114 91 129 
3 92 91 114 
3 661 638 675 
3 639 638 661 
3 640 639 661 
3 371 286 430 
3 287 286 371 
3 310 287 371 
3 311 310 371 
3 370 430 286 
3 326 311 346 
3 289 311 326 
3 311 416 346 
3 397 346 416 
3 371 416 311 
3 22 11 33 
3 12 11 22 
3 61 77 44 
3 45 44 77 
3 78 77 97 
3 45 77 78 
3 97 96 134 
3 77 96 97 
3 567 566 593 
3 539 566 567 
3 593 566 614 
3 29 55 47 
3 55 56 47 
3 37 55 29 
3 30 29 47 
3 615 639 594 
3 595 594 639 
3 639 640 595 
3 789 813 790 
3 813 824 790 
3 791 790 824 
3 804 791 824 
3 824 835 804 
3 835 851 804 
3 788 813 789 
3 846 781 856 
3 767 781 846 
3 747 767 846 
3 856 781 927 
3 856 927 897 
3 927 957 897 
3 494 417 573 
3 398 417 494 
3 397 417 372 
3 398 372 417 
3 471 548 573 
3 417 471 573 
3 397 432 417 
3 432 471 417 
3 1277 1297 1268 
3 1269 1268 1297 
3 1297 1347 1269 
3 489 543 466 
3 515 466 543 
3 543 544 515 
3 488 571 489 
3 543 489 571 
3 1139 1138 1157 
3 1075 1138 1139 
3 1190 1191 1156 
3 1157 1156 1191 
3 1138 1156 1157 
3 1069 1075 1139 
3 167 196 185 
3 196 229 185 
3 218 185 229 
3 184 196 167 
3 167 161 184 
3 162 161 167 
3 139 161 162 
3 749 847 782 
3 821 782 847 
3 831 821 847 
3 811 782 821 
3 847 830 898 
3 749 830 847 
3 942 934 950 
3 939 934 942 
3 950 963 942 
3 902 949 934 
3 949 955 934 
3 879 902 934 
3 949 962 955 
3 962 972 955 
3 950 934 955 
3 785 784 822 
3 750 784 785 
3 736 784 721 
3 750 721 784 
3 686 721 750 
3 831 857 832 
3 857 858 832 
3 833 832 858 
3 600 781 601 
3 767 601 781 
3 747 601 767 
3 403 402 453 
3 378 402 403 
3 435 452 402 
3 452 453 402 
3 331 294 358 
3 273 294 331 
3 295 273 331 
3 274 273 295 
3 414 415 367 
3 343 367 415 
3 265 343 415 
3 282 343 265 
3 35 64 26 
3 51 26 64 
3 64 80 51 
3 27 26 51 
3 5 26 27 
3 6 5 27 
3 928 936 920 
3 913 920 936 
3 760 796 744 
3 761 744 796 
3 1173 1185 1147 
3 1122 1147 1185 
3 1079 1122 1185 
3 1063 1079 1185 
3 1148 1063 1185 
3 1105 1122 1079 
3 1347 1375 1348 
3 1375 1376 1348 
3 1352 1348 1376 
3 1247 1347 1348 
3 1247 1348 1316 
3 1247 1269 1347 
3 918 949 902 
3 883 847 898 
3 866 847 883 
3 873 866 883 
3 898 921 905 
3 921 922 905 
3 914 905 922 
3 883 898 905 
3 179 190 180 
3 190 191 180 
3 135 179 180 
3 160 135 180 
3 171 160 180 
3 1112 1100 1133 
3 1085 1100 1112 
3 1132 1133 1100 
3 1133 1134 1112 
3 1086 1085 1112 
3 1049 1085 1086 
3 379 436 422 
3 436 437 422 
3 357 436 379 
3 404 379 422 
3 501 475 526 
3 436 475 501 
3 436 357 475 
3 403 475 357 
3 453 474 403 
3 474 475 403 
3 1127 1128 1094 
3 1106 1094 1128 
3 1083 1094 1106 
3 1095 1083 1106 
3 342 343 321 
3 282 321 343 
3 304 305 236 
3 282 236 305 
3 305 321 282 
3 1050 1051 1029 
3 1030 1029 1051 
3 1051 1061 1030 
3 452 435 473 
3 421 435 401 
3 402 401 435 
3 473 498 452 
3 498 523 452 
3 553 554 498 
3 523 498 554 
3 499 452 523 
3 453 452 499 
3 266 149 600 
3 128 149 266 
3 516 266 600 
3 127 149 128 
3 129 128 169 
3 89 128 129 
3 207 128 266 
3 169 128 207 
3 90 89 129 
3 851 844 877 
3 835 844 851 
3 792 791 804 
3 1185 1200 1174 
3 1200 1201 1174 
3 1186 1174 1201 
3 1148 1185 1174 
3 1209 1199 1221 
3 1185 1199 1209 
3 1199 1229 1221 
3 1229 1230 1221 
3 1200 1185 1209 
3 38 39 22 
3 23 22 39 
3 330 356 314 
3 292 314 253 
3 623 622 666 
3 547 622 623 
3 666 736 623 
3 1042 1043 1022 
3 1034 1022 1043 
3 1043 1044 1034 
3 494 573 624 
3 520 494 624 
3 574 520 624 
3 624 643 574 
3 20 30 16 
3 30 31 16 
3 204 194 215 
3 181 194 204 
3 214 215 194 
3 215 216 204 
3 1053 1042 1081 
3 1043 1042 1053 
3 1080 1081 1042 
3 1230 1229 1239 
3 484 540 485 
3 540 568 485 
3 594 595 540 
3 568 540 595 
3 541 485 568 
3 463 485 541 
3 975 993 985 
3 993 994 985 
3 994 993 1003 
3 210 255 242 
3 255 293 242 
3 293 294 242 
3 211 210 242 
3 209 241 210 
3 241 254 210 
3 254 255 210 
3 202 210 211 
3 1332 1319 1341 
3 1313 1319 1332 
3 1303 1313 1332 
3 337 336 363 
3 299 336 337 
3 279 299 337 
3 514 570 488 
3 570 571 488 
3 426 487 445 
3 487 514 445 
3 445 514 488 
3 322 449 396 
3 449 492 396 
3 266 449 322 
3 900 908 886 
3 893 886 908 
3 887 886 893 
3 908 909 893 
3 1376 1377 1352 
3 120 155 121 
3 122 121 155 
3 145 122 155 
3 119 154 120 
3 154 155 120 
3 505 504 561 
3 439 504 505 
3 561 562 505 
3 530 505 562 
3 529 561 504 
3 456 439 505 
3 455 504 439 
3 382 424 406 
3 424 439 406 
3 406 439 456 
3 381 424 382 
3 496 497 451 
3 433 451 497 
3 434 433 497 
3 473 434 497 
3 497 498 473 
3 472 496 451 
3 638 637 675 
3 614 637 638 
3 358 359 331 
3 359 358 379 
3 953 935 956 
3 903 935 953 
3 904 903 953 
3 953 996 904 
3 978 1018 996 
3 1018 1030 996 
3 953 978 996 
3 986 904 996 
3 912 904 986 
3 889 879 934 
3 934 939 889 
3 919 889 939 
3 240 239 272 
3 224 239 240 
3 223 239 224 
3 290 291 272 
3 240 272 291 
3 291 292 240 
3 474 453 499 
3 204 217 182 
3 183 182 217 
3 205 183 217 
3 195 183 205 
3 181 204 182 
3 216 217 204 
3 1213 1209 1221 
3 1221 1222 1213 
3 469 518 470 
3 518 623 470 
3 493 470 623 
3 1170 1160 1180 
3 1144 1160 1170 
3 1179 1226 1169 
3 1180 1169 1226 
3 1160 1169 1180 
3 1158 1218 1179 
3 1218 1242 1179 
3 1226 1179 1242 
3 1258 1259 1242 
3 1226 1242 1259 
3 206 222 175 
3 222 235 175 
3 235 304 175 
3 264 393 304 
3 393 394 304 
3 340 393 264 
3 235 264 304 
3 236 175 304 
3 199 206 175 
3 392 393 340 
3 393 392 411 
3 507 531 508 
3 531 532 508 
3 477 507 508 
3 457 477 508 
3 478 457 508 
3 525 582 526 
3 582 583 526 
3 475 525 526 
3 500 525 475 
3 802 810 748 
3 749 748 810 
3 810 830 749 
3 698 720 665 
3 666 665 720 
3 720 749 666 
3 666 749 782 
3 736 666 782 
3 518 547 623 
3 1071 1079 1041 
3 1063 1041 1079 
3 531 530 589 
3 507 530 531 
3 588 589 530 
3 506 530 507 
3 1145 1120 1182 
3 1090 1120 1145 
3 1121 1090 1145 
3 1105 1090 1121 
3 1145 1146 1121 
3 352 400 376 
3 400 420 376 
3 420 421 376 
3 401 376 421 
3 290 352 376 
3 329 352 251 
3 272 251 352 
3 290 272 352 
3 353 290 376 
3 313 290 353 
3 440 386 458 
3 361 407 385 
3 387 386 440 
3 1192 1198 1182 
3 1193 1182 1198 
3 335 361 316 
3 361 362 316 
3 317 316 362 
3 1084 1056 1098 
3 1084 1085 1056 
3 1039 1056 1049 
3 1056 1085 1049 
3 1048 1056 1039 
3 1110 1109 1130 
3 1097 1109 1110 
3 1098 1097 1110 
3 1151 1109 1176 
3 1130 1109 1151 
3 1047 1097 1098 
3 1056 1047 1098 
3 1048 1047 1056 
3 1015 1047 1048 
3 1038 1047 1015 
3 259 260 217 
3 205 217 260 
3 229 205 260 
3 196 205 229 
3 105 84 113 
3 85 84 105 
3 113 126 105 
3 66 84 85 
3 101 113 84 
3 65 84 66 
3 498 497 552 
3 435 434 473 
3 1342 1367 1349 
3 1367 1382 1349 
3 1366 1349 1382 
3 1345 1367 1342 
3 695 746 719 
3 746 766 719 
3 735 719 766 
3 766 780 735 
3 734 746 695 
3 709 695 719 
3 623 721 654 
3 686 654 721 
3 721 623 736 
3 548 623 654 
3 493 623 519 
3 548 519 623 
3 1354 1340 1365 
3 1336 1340 1354 
3 1356 1354 1365 
3 1335 1340 1327 
3 1336 1327 1340 
3 1223 1231 1224 
3 1231 1247 1224 
3 1232 1224 1247 
3 1216 1224 1232 
3 170 223 177 
3 223 224 177 
3 208 177 224 
3 188 177 208 
3 52 74 53 
3 74 81 53 
3 81 74 100 
3 75 53 81 
3 465 489 466 
3 467 466 515 
3 331 359 332 
3 359 380 332 
3 380 381 332 
3 333 332 381 
3 540 539 567 
3 484 539 540 
3 997 1032 1019 
3 1032 1071 1019 
3 1007 997 1019 
3 990 997 1007 
3 1064 1083 1055 
3 1083 1095 1055 
3 1073 1055 1095 
3 1045 1055 1073 
3 134 133 170 
3 96 133 134 
3 170 177 134 
3 177 178 134 
3 545 544 572 
3 515 544 545 
3 490 515 545 
3 120 121 100 
3 121 122 100 
3 104 100 122 
3 111 118 100 
3 118 119 100 
3 119 120 100 
3 674 707 649 
3 610 649 707 
3 608 649 609 
3 610 609 649 
3 607 635 608 
3 635 649 608 
3 724 723 739 
3 711 723 724 
3 754 738 771 
3 723 738 754 
3 739 723 754 
3 1344 1371 1363 
3 1371 1372 1363 
3 1350 1371 1330 
3 1344 1330 1371 
3 1363 1364 1344 
3 1346 1344 1364 
3 58 38 66 
3 39 38 58 
3 66 67 58 
3 33 49 38 
3 49 66 38 
3 49 65 66 
3 40 88 59 
3 88 89 59 
3 69 59 89 
3 147 199 175 
3 166 147 175 
3 148 147 166 
3 1240 1261 1246 
3 1261 1268 1246 
3 1203 1261 1240 
3 1246 1268 1269 
3 586 608 561 
3 587 561 608 
3 608 609 587 
3 529 586 561 
3 607 608 586 
3 1186 1202 1195 
3 1202 1203 1195 
3 349 375 350 
3 375 399 350 
3 351 350 399 
3 399 400 351 
3 680 679 688 
3 1163 1203 1240 
3 1255 1261 1214 
3 1203 1214 1261 
3 1208 1237 1228 
3 1237 1238 1228 
3 1237 1244 1238 
3 1244 1245 1238 
3 1181 1265 1235 
3 1254 1235 1265 
3 1265 1266 1254 
3 1192 1181 1235 
3 1198 1192 1235 
3 1227 1198 1235 
3 1208 1198 1227 
3 1193 1198 1208 
3 341 395 342 
3 367 342 395 
3 533 532 650 
3 533 650 611 
3 636 611 650 
3 650 651 636 
3 589 650 532 
3 1201 1213 1210 
3 1213 1214 1210 
3 1214 1213 1222 
3 1186 1201 1210 
3 632 672 646 
3 672 673 646 
3 673 672 684 
3 684 672 694 
3 631 645 632 
3 645 658 632 
3 606 631 632 
3 658 672 632 
3 1248 1299 1288 
3 1299 1310 1288 
3 1275 1278 1258 
3 1278 1279 1258 
3 1259 1258 1279 
3 1258 1257 1275 
3 1241 1257 1258 
3 1242 1241 1258 
3 1004 1144 1170 
3 968 1004 1170 
3 134 135 97 
3 102 97 135 
3 777 806 707 
3 797 707 806 
3 732 762 707 
3 762 777 707 
3 674 732 707 
3 685 732 674 
3 1334 1374 1347 
3 1374 1375 1347 
3 1339 1349 1366 
3 733 675 763 
3 661 675 733 
3 662 661 733 
3 676 662 733 
3 708 676 733 
3 652 662 676 
3 546 698 665 
3 492 698 546 
3 622 546 665 
3 43 73 61 
3 73 95 61 
3 94 95 73 
3 86 61 95 
3 1250 1361 1343 
3 1361 1362 1343 
3 1350 1343 1362 
3 1362 1370 1350 
3 1320 1343 1330 
3 1343 1350 1330 
3 1320 1280 1343 
3 1294 1280 1320 
3 1280 1250 1343 
3 1251 1250 1280 
3 1019 1071 1041 
3 1020 1019 1041 
3 1033 1020 1041 
3 783 782 811 
3 229 261 218 
3 230 263 231 
3 263 301 231 
3 280 301 263 
3 300 301 280 
3 232 231 301 
3 281 232 301 
3 301 300 338 
3 338 365 301 
3 365 391 301 
3 339 301 391 
3 319 301 339 
3 526 527 501 
3 892 900 877 
3 886 877 900 
3 376 377 353 
3 1265 1281 1266 
3 1281 1307 1266 
3 1321 1307 1344 
3 1266 1307 1321 
3 1286 1307 1281 
3 188 208 189 
3 225 226 189 
3 209 189 226 
3 201 189 209 
3 178 189 201 
3 179 178 201 
3 586 634 607 
3 634 635 607 
3 634 647 635 
3 647 648 635 
3 560 634 586 
3 172 173 136 
3 137 136 173 
3 150 137 173 
3 161 150 173 
3 173 183 161 
3 183 184 161 
3 794 795 758 
3 1276 1295 1286 
3 1295 1306 1286 
3 1285 1295 1276 
3 1260 1276 1286 
3 1281 1260 1286 
3 339 391 366 
3 391 442 366 
3 408 366 442 
3 442 462 408 
3 1338 1349 1339 
3 116 135 160 
3 116 102 135 
3 178 179 134 
3 135 134 179 
3 1054 1053 1092 
3 1044 1053 1054 
3 1092 1093 1054 
3 1082 1054 1093 
3 1072 1054 1082 
3 1034 1044 1054 
3 1009 1034 1054 
3 1024 1009 1054 
3 878 863 888 
3 853 863 878 
3 854 853 878 
3 1132 1152 1133 
3 1152 1165 1133 
3 1136 1155 1137 
3 1155 1168 1137 
3 1156 1137 1168 
3 702 701 715 
3 689 701 702 
3 690 689 702 
3 1176 1205 1151 
3 1108 1129 1109 
3 1129 1176 1109 
3 390 460 441 
3 460 483 441 
3 387 440 388 
3 440 460 388 
3 389 388 460 
3 390 389 460 
3 459 460 440 
3 1175 1127 1223 
3 1128 1127 1175 
3 1215 1175 1223 
3 1223 1127 1240 
3 1150 1128 1175 
3 276 275 316 
3 259 275 276 
3 275 335 316 
3 887 893 862 
3 893 894 862 
3 863 862 894 
3 893 909 894 
3 909 916 894 
3 910 894 916 
3 901 894 910 
3 888 863 894 
3 894 895 888 
3 877 887 862 
3 851 877 862 
3 886 887 877 
3 861 871 844 
3 871 877 844 
3 825 804 851 
3 851 852 825 
3 836 825 852 
3 785 803 768 
3 786 768 803 
3 768 750 785 
3 751 750 768 
3 650 707 797 
3 1081 1125 1053 
3 1124 1125 1081 
3 1092 1053 1125 
3 43 42 60 
3 3 42 43 
3 44 43 61 
3 4 43 44 
3 4 3 43 
3 153 165 143 
3 144 143 165 
3 154 144 165 
3 510 536 483 
3 536 537 483 
3 511 483 537 
3 441 483 511 
3 242 294 256 
3 273 256 294 
3 429 430 370 
3 430 431 371 
3 146 199 147 
3 104 146 124 
3 146 147 124 
3 123 146 104 
3 145 155 146 
3 155 199 146 
3 123 145 146 
3 486 463 541 
3 542 541 597 
3 486 541 542 
3 597 596 618 
3 569 596 597 
3 541 569 597 
3 513 486 542 
3 823 803 841 
3 786 803 823 
3 841 842 823 
3 834 823 842 
3 842 843 834 
3 787 786 823 
3 813 787 823 
3 788 787 813 
3 1092 1127 1093 
3 1094 1093 1127 
3 1082 1093 1094 
3 0 87 50 
3 68 50 87 
3 1118 1117 1141 
3 1103 1117 1118 
3 1141 1158 1118 
3 1104 1103 1118 
3 1142 1118 1158 
3 237 236 248 
3 176 236 237 
3 248 236 282 
3 265 248 282 
3 156 236 176 
3 175 236 156 
3 126 156 176 
3 157 126 176 
3 105 126 157 
3 1280 1285 1264 
3 1276 1264 1285 
3 1283 1212 1309 
3 1189 1212 1283 
3 1232 1316 1212 
3 1309 1212 1316 
3 1298 1283 1309 
3 1167 1189 1168 
3 1189 1248 1168 
3 1188 1212 1189 
3 1248 1189 1283 
3 1190 1168 1225 
3 1156 1168 1190 
3 1225 1168 1248 
3 1088 1087 1101 
3 1077 1087 1088 
3 431 430 493 
3 1013 1027 1000 
3 1014 1000 1027 
3 1001 1000 1014 
3 1026 1027 1013 
3 160 172 136 
3 171 194 172 
3 181 172 194 
3 160 171 172 
3 112 83 125 
3 101 83 112 
3 82 125 83 
3 125 148 112 
3 124 125 82 
3 330 313 354 
3 314 313 330 
3 292 313 314 
3 353 354 313 
3 354 355 330 
3 136 116 160 
3 109 116 136 
3 984 973 1016 
3 963 973 984 
3 992 1016 973 
3 1002 984 1016 
3 597 598 542 
3 119 118 144 
3 1275 1284 1278 
3 1284 1293 1278 
3 1293 1303 1278 
3 1279 1278 1303 
3 942 974 951 
3 974 975 951 
3 939 942 951 
3 919 939 951 
3 1175 1215 1204 
3 1215 1216 1204 
3 1211 1204 1216 
3 1244 1321 1296 
3 1321 1325 1296 
3 1325 1326 1296 
3 1308 1296 1326 
3 1315 1308 1326 
3 1254 1266 1321 
3 1244 1254 1321 
3 1245 1244 1296 
3 278 299 279 
3 1006 987 1031 
3 957 987 1006 
3 944 957 1006 
3 987 1062 1031 
3 1062 1089 1031 
3 807 808 763 
3 779 763 808 
3 763 675 778 
3 778 807 763 
3 334 381 382 
3 360 334 382 
3 405 424 381 
3 333 381 334 
3 281 303 246 
3 247 246 303 
3 264 247 303 
3 302 320 281 
3 303 281 320 
3 232 281 246 
3 857 867 858 
3 867 874 858 
3 858 874 868 
3 874 875 868 
3 546 622 547 
3 1358 1359 1353 
3 1335 1353 1359 
3 1340 1335 1359 
3 1359 1365 1340 
3 1310 1353 1335 
3 1311 1310 1335 
3 2 24 14 
3 24 34 14 
3 25 14 34 
3 1045 1073 1037 
3 1046 1037 1073 
3 1025 1037 1046 
3 1026 1025 1046 
3 722 686 750 
3 750 751 722 
3 699 686 722 
3 687 686 699 
3 667 686 687 
3 896 918 902 
3 938 949 918 
3 879 878 902 
3 854 878 879 
3 878 896 902 
3 826 854 879 
3 1123 1186 1195 
3 1149 1186 1123 
3 1162 1123 1195 
3 1124 1123 1162 
3 1174 1186 1149 
3 961 983 962 
3 972 962 983 
3 828 747 846 
3 344 322 396 
3 368 344 396 
3 425 463 486 
3 426 425 487 
3 393 425 426 
3 486 487 425 
3 411 425 393 
3 444 463 425 
3 409 444 410 
3 425 410 444 
3 392 409 410 
3 443 444 409 
3 34 69 25 
3 69 70 25 
3 41 25 70 
3 908 933 909 
3 925 909 933 
3 916 909 925 
3 595 616 568 
3 596 568 616 
3 616 617 596 
3 140 139 162 
3 110 139 140 
3 103 110 140 
3 99 110 103 
3 117 103 140 
3 964 975 985 
3 394 393 426 
3 462 461 484 
3 442 461 462 
3 461 512 484 
3 512 539 484 
3 869 885 876 
3 885 907 876 
3 907 937 876 
3 892 876 937 
3 870 869 876 
3 1306 1307 1286 
3 892 937 900 
3 932 900 937 
3 931 937 907 
3 1202 1186 1210 
3 754 773 739 
3 755 739 773 
3 773 774 755 
3 625 668 626 
3 668 669 626 
3 668 625 678 
3 602 574 643 
3 575 574 602 
3 625 602 643 
3 643 656 625 
3 656 678 625 
3 678 679 668 
3 679 678 713 
3 1217 1249 1218 
3 1241 1218 1249 
3 1249 1257 1241 
3 833 858 848 
3 858 859 848 
3 859 858 868 
3 840 833 848 
3 803 833 840 
3 812 833 803 
3 803 785 812 
3 588 587 610 
3 562 587 588 
3 530 562 588 
3 1064 1054 1072 
3 1024 1054 1064 
3 42 41 71 
3 3 41 42 
3 843 861 844 
3 876 892 871 
3 877 871 892 
3 842 850 843 
3 850 861 843 
3 995 1060 1050 
3 1060 1067 1050 
3 1067 1068 1050 
3 995 977 1060 
3 966 977 995 
3 1059 1060 994 
3 977 994 1060 
3 1029 995 1050 
3 1018 995 1029 
3 1360 1381 1367 
3 1381 1382 1367 
3 74 111 100 
3 80 111 74 
3 70 71 41 
3 111 142 118 
3 142 143 118 
3 143 142 153 
3 1080 1063 1148 
3 1021 1063 1080 
3 199 221 206 
3 221 234 206 
3 206 234 222 
3 234 235 222 
3 255 254 293 
3 951 952 919 
3 926 919 952 
3 943 926 952 
3 416 371 431 
3 1016 1028 1002 
3 1017 1002 1028 
3 719 735 709 
3 696 709 735 
3 695 709 663 
3 696 663 709 
3 677 695 663 
3 571 663 599 
3 663 664 599 
3 664 663 696 
3 544 571 599 
3 873 905 899 
3 905 915 899 
3 899 915 906 
3 915 924 906 
3 883 905 873 
3 884 873 899 
3 852 862 863 
3 851 862 852 
3 857 831 866 
3 212 211 242 
3 464 488 489 
3 570 677 571 
3 663 571 677 
3 621 677 570 
3 213 243 227 
3 243 244 227 
3 243 212 256 
3 213 212 243 
3 256 257 243 
3 1241 1242 1218 
3 293 315 294 
3 357 358 294 
3 325 368 345 
3 368 546 345 
3 324 368 325 
3 429 345 546 
3 369 345 429 
3 323 344 324 
3 344 368 324 
3 1267 1287 1277 
3 1287 1297 1277 
3 1315 1334 1287 
3 1297 1287 1334 
3 1282 1287 1267 
3 351 352 329 
3 680 688 669 
3 657 669 688 
3 644 626 669 
3 657 644 669 
3 774 773 793 
3 1161 1184 1172 
3 1184 1194 1172 
3 302 301 319 
3 152 151 163 
3 141 151 152 
3 960 971 961 
3 971 1001 961 
3 982 1001 971 
3 1001 1015 961 
3 840 841 803 
3 812 785 822 
3 822 832 812 
3 832 833 812 
3 885 884 899 
3 875 884 885 
3 899 907 885 
3 874 884 875 
3 653 652 676 
3 1067 1066 1137 
3 1060 1066 1067 
3 1074 1137 1066 
3 1137 1138 1067 
3 778 650 797 
3 920 897 928 
3 891 897 920 
3 913 891 920 
3 882 891 913 
3 260 277 229 
3 691 703 692 
3 703 717 692 
3 692 717 704 
3 717 718 704 
3 682 691 692 
3 670 682 692 
3 683 670 692 
3 692 693 683 
3 671 670 683 
3 1330 1344 1314 
3 1307 1314 1344 
3 811 822 784 
3 782 783 736 
3 783 784 736 
3 115 114 200 
3 106 114 115 
3 115 249 158 
3 238 158 249 
3 200 249 115 
3 130 115 158 
3 92 114 106 
3 93 115 130 
3 106 115 93 
3 94 93 130 
3 46 45 62 
3 4 45 46 
3 62 45 78 
3 35 4 46 
3 5 4 35 
3 358 357 379 
3 1185 1173 1199 
3 931 981 937 
3 947 937 981 
3 443 408 462 
3 409 408 443 
3 747 828 802 
3 810 802 828 
3 828 829 810 
3 829 830 810 
3 710 747 802 
3 133 132 170 
3 108 132 133 
3 159 170 132 
3 170 159 251 
3 159 312 251 
3 312 328 251 
3 250 312 159 
3 223 170 251 
3 328 329 251 
3 1176 1175 1204 
3 528 560 503 
3 529 560 586 
3 529 503 560 
3 1140 1217 1141 
3 1158 1141 1217 
3 1115 1140 1141 
3 1114 1140 1115 
3 1116 1115 1141 
3 1157 1191 1140 
3 1191 1217 1140 
3 794 776 814 
3 757 776 741 
3 804 825 775 
3 776 775 825 
3 814 776 825 
3 814 815 794 
3 55 76 56 
3 76 82 56 
3 56 82 83 
3 104 124 82 
3 318 279 337 
3 262 279 318 
3 300 262 318 
3 280 262 300 
3 1074 1136 1137 
3 1155 1167 1168 
3 1065 1136 1074 
3 1058 1136 1065 
3 1086 1136 1058 
3 986 1004 912 
3 968 912 1004 
3 865 912 968 
3 801 865 968 
3 697 801 968 
3 1215 1223 1224 
3 1247 1246 1269 
3 1231 1246 1247 
3 1127 1163 1240 
3 1231 1223 1240 
3 1240 1246 1231 
3 131 130 159 
3 94 130 131 
3 107 94 131 
3 159 158 250 
3 130 158 159 
3 95 94 107 
3 827 845 816 
3 838 816 845 
3 845 904 838 
3 864 880 845 
3 880 904 845 
3 880 903 904 
3 710 601 747 
3 492 601 710 
3 396 492 546 
3 698 492 710 
3 368 396 546 
3 1270 1248 1288 
3 1288 1289 1270 
3 1260 1265 1181 
3 633 632 646 
3 616 595 640 
3 640 641 616 
3 416 432 397 
3 1365 1381 1356 
3 1279 1304 1259 
3 1226 1259 1304 
3 1304 1329 1226 
3 407 406 456 
3 830 945 898 
3 945 958 898 
3 958 969 898 
3 929 898 969 
3 921 898 929 
3 946 929 969 
3 969 1021 946 
3 1022 1021 1042 
3 946 1021 1022 
3 1042 1021 1080 
3 1008 1021 969 
3 981 946 1022 
3 931 946 981 
3 1148 1149 1091 
3 1123 1091 1149 
3 1091 1080 1148 
3 930 929 946 
3 1263 1284 1275 
3 1274 1284 1263 
3 1257 1263 1275 
3 667 654 686 
3 1299 1317 1310 
3 1317 1353 1310 
3 1298 1322 1317 
3 1322 1377 1317 
3 1353 1317 1377 
3 1309 1322 1298 
3 167 185 168 
3 174 168 185 
3 151 167 168 
3 163 151 168 
3 162 167 151 
3 186 185 197 
3 174 185 186 
3 197 185 218 
3 166 175 156 
3 303 340 264 
3 274 295 244 
3 295 296 244 
3 245 244 296 
3 258 245 296 
3 301 302 281 
3 234 233 247 
3 221 233 234 
3 246 247 233 
3 426 445 394 
3 427 394 445 
3 1119 1143 1052 
3 1143 1144 1052 
3 1004 1052 1144 
3 1104 1119 1052 
3 446 465 412 
3 447 412 465 
3 465 466 447 
3 413 412 447 
3 1356 1360 1354 
3 1328 1354 1360 
3 1341 1328 1360 
3 1345 1341 1360 
3 1319 1328 1341 
3 828 882 913 
3 846 882 828 
3 830 913 936 
3 829 828 913 
3 830 829 913 
3 936 945 830 
3 969 958 990 
3 990 998 969 
3 458 480 440 
3 459 440 480 
3 480 481 459 
3 395 341 412 
3 944 1006 954 
3 980 954 1006 
3 1006 1032 980 
3 958 954 980 
3 945 954 958 
3 940 944 954 
3 945 940 954 
3 1304 1303 1323 
3 1279 1303 1304 
3 1323 1324 1304 
3 800 799 809 
3 765 799 800 
3 809 820 800 
3 21 33 11 
3 261 262 218 
3 230 218 262 
3 262 263 230 
3 219 218 230 
3 197 218 219 
3 198 197 219 
3 187 198 219 
3 174 198 187 
3 219 220 187 
3 200 306 283 
3 306 307 283 
3 307 306 325 
3 249 200 283 
3 283 284 249 
3 1164 1187 1165 
3 1177 1165 1187 
3 1196 1151 1205 
3 1164 1151 1196 
3 1187 1164 1196 
3 940 928 944 
3 936 928 940 
3 169 200 114 
3 91 90 129 
3 70 90 91 
3 129 169 114 
3 71 70 91 
3 774 804 775 
3 984 993 974 
3 975 974 993 
3 164 165 153 
3 1173 1172 1194 
3 1194 1208 1173 
3 1199 1208 1228 
3 1199 1173 1208 
3 31 48 32 
3 48 49 32 
3 33 32 49 
3 797 827 778 
3 651 650 778 
3 413 448 414 
3 428 414 448 
3 448 468 428 
3 447 448 413 
3 395 414 367 
3 395 413 414 
3 126 113 156 
3 101 112 113 
3 1290 1289 1311 
3 1300 1290 1311 
3 1261 1255 1267 
3 1267 1277 1261 
3 1268 1261 1277 
3 852 863 836 
3 853 836 863 
3 335 334 360 
3 275 334 335 
3 380 379 404 
3 359 379 380 
3 468 490 428 
3 490 545 428 
3 855 864 837 
3 845 837 864 
3 827 837 845 
3 967 978 953 
3 1273 1291 1274 
3 1291 1292 1274 
3 1284 1274 1292 
3 769 768 786 
3 138 150 139 
3 150 161 139 
3 998 1008 969 
3 249 284 267 
3 284 309 267 
3 267 309 285 
3 309 369 285 
3 193 212 213 
3 203 212 193 
3 306 323 324 
3 751 752 722 
3 722 752 737 
3 752 770 737 
3 753 737 770 
3 699 722 737 
3 711 699 737 
3 1035 1064 1055 
3 1035 1024 1064 
3 1036 1035 1055 
3 1357 1358 1353 
3 51 52 27 
3 28 27 52 
3 52 53 28 
3 36 28 53 
3 15 28 36 
3 1294 1320 1305 
3 1314 1305 1320 
3 1320 1330 1314 
3 956 967 953 
3 967 966 995 
3 978 967 995 
3 956 966 967 
3 839 838 904 
3 818 838 839 
3 839 904 912 
3 865 839 912 
3 817 838 818 
3 809 798 819 
3 799 798 809 
3 819 839 809 
3 820 809 839 
3 48 57 49 
3 57 65 49 
3 195 205 196 
3 184 195 196 
3 1227 1237 1208 
3 1232 1247 1316 
3 872 903 855 
3 880 855 903 
3 864 855 880 
3 1120 1089 1181 
3 1078 1089 1120 
3 1171 1120 1181 
3 1031 1089 1078 
3 1181 1089 1260 
3 1243 1260 1089 
3 1171 1182 1120 
3 1032 1078 1071 
3 1078 1090 1071 
3 1078 1120 1090 
3 1182 1171 1192 
3 1253 1276 1260 
3 46 63 35 
3 681 689 690 
3 681 657 689 
3 628 657 681 
3 963 974 942 
3 516 600 601 
3 827 797 837 
3 266 516 449 
3 516 517 449 
3 491 449 517 
3 687 711 655 
3 687 699 711 
3 723 711 737 
3 678 655 711 
3 656 655 678 
3 20 29 30 
3 13 20 16 
3 19 20 13 
3 427 446 412 
3 1158 1179 1142 
3 1159 1142 1179 
3 1143 1142 1159 
3 1217 1218 1158 
3 450 471 432 
3 992 983 1039 
3 972 983 992 
3 1039 983 1048 
3 1016 992 1039 
3 1039 1049 1016 
3 964 951 975 
3 952 951 964 
3 976 977 964 
3 965 964 977 
3 943 964 965 
3 956 943 965 
3 935 943 956 
3 1182 1183 1145 
3 1161 1145 1183 
3 1183 1184 1161 
3 694 706 684 
3 685 684 706 
3 706 731 685 
3 731 732 685 
3 673 685 674 
3 659 673 674 
3 732 731 745 
3 744 745 731 
3 533 611 534 
3 535 534 611 
3 590 535 611 
3 563 535 590 
3 509 534 535 
3 510 509 535 
3 614 615 593 
3 592 614 566 
3 1023 1034 1009 
3 323 322 344 
3 778 816 807 
3 816 817 807 
3 817 816 838 
3 180 193 171 
3 193 192 203 
3 180 192 193 
3 1003 1040 994 
3 1002 1017 1003 
3 1017 1040 1003 
3 1040 1059 994 
3 984 1002 993 
3 1002 1003 993 
3 518 429 547 
3 469 429 518 
3 546 547 429 
3 895 901 896 
3 901 911 896 
3 911 918 896 
3 675 651 778 
3 96 108 133 
3 1096 1097 1046 
3 1047 1046 1097 
3 1373 1374 1364 
3 1351 1364 1374 
3 1346 1364 1351 
3 1355 1351 1374 
3 1257 1249 1263 
3 1228 1229 1199 
3 63 64 35 
3 604 581 628 
3 525 581 604 
3 557 581 525 
3 582 525 604 
3 539 538 566 
3 512 538 539 
3 565 592 566 
3 538 565 566 
3 1145 1161 1146 
3 1161 1172 1146 
3 1172 1173 1146 
3 1147 1146 1173 
3 597 620 598 
3 620 621 598 
3 1072 1083 1064 
3 553 578 554 
3 578 579 554 
3 1328 1327 1336 
3 1318 1327 1328 
3 937 947 932 
3 1010 1024 1035 
3 391 390 441 
3 365 390 391 
3 1346 1351 1331 
3 1333 1331 1351 
3 1351 1355 1333 
3 1334 1333 1355 
3 1355 1374 1334 
3 1221 1230 1222 
3 1230 1255 1222 
3 1255 1230 1282 
3 1239 1282 1230 
3 1282 1245 1296 
3 1239 1245 1282 
3 1296 1308 1282 
3 1287 1282 1308 
3 1308 1315 1287 
3 1334 1347 1297 
3 86 108 96 
3 748 710 802 
3 496 522 497 
3 522 551 497 
3 551 552 497 
3 1235 1254 1236 
3 1244 1236 1254 
3 1197 1212 1188 
3 713 739 755 
3 1126 1163 1127 
3 1092 1126 1127 
3 89 90 69 
3 1312 1328 1319 
3 1318 1328 1312 
3 1341 1345 1332 
3 1337 1332 1345 
3 15 18 9 
3 13 9 18 
3 18 19 13 
3 7 15 8 
3 9 8 15 
3 18 15 36 
3 1345 1360 1367 
3 34 24 59 
3 40 59 24 
3 1052 1103 1104 
3 996 1088 1052 
3 1088 1103 1052 
3 1102 1103 1088 
3 4 44 45 
3 251 252 223 
3 239 223 252 
3 1344 1346 1321 
3 1331 1321 1346 
3 1028 1016 1049 
3 1049 1057 1028 
3 868 875 869 
3 875 885 869 
3 859 868 869 
3 329 328 349 
3 349 350 329 
3 399 419 400 
3 419 433 400 
3 433 419 451 
3 352 351 400 
3 384 407 361 
3 362 361 385 
3 853 854 836 
3 815 836 854 
3 814 836 815 
3 826 815 854 
3 825 836 814 
3 57 56 83 
3 65 57 83 
3 83 84 65 
3 48 47 57 
3 31 47 48 
3 47 56 57 
3 30 47 31 
3 1057 1086 1058 
3 1113 1136 1086 
3 1113 1154 1136 
3 1154 1155 1136 
3 1135 1154 1113 
3 1311 1327 1300 
3 1301 1300 1327 
3 947 959 932 
3 941 932 959 
3 819 818 839 
3 346 397 372 
3 567 594 540 
3 1125 1124 1162 
3 610 707 650 
3 589 610 650 
3 1138 1137 1156 
3 1169 1159 1179 
3 652 653 617 
3 618 617 653 
3 619 618 653 
3 1076 1069 1139 
3 1068 1075 1069 
3 1072 1082 1094 
3 1083 1072 1094 
3 761 796 805 
3 777 761 805 
3 762 761 777 
3 220 231 232 
3 570 542 598 
3 513 542 514 
3 542 570 514 
3 779 808 798 
3 808 819 798 
3 808 818 819 
3 2 14 3 
3 14 25 3 
3 3 25 41 
3 1219 1234 1220 
3 1062 1220 1089 
3 1220 1243 1089 
3 1207 1220 1062 
3 1005 1207 1062 
3 979 1005 987 
3 1005 1062 987 
3 111 103 117 
3 80 103 111 
3 117 141 111 
3 141 142 111 
3 983 961 1015 
3 347 346 372 
3 326 346 347 
3 327 326 347 
3 250 326 312 
3 326 327 312 
3 289 326 250 
3 1292 1293 1284 
3 88 127 128 
3 87 127 88 
3 1114 1076 1139 
3 717 716 728 
3 703 716 717 
3 841 840 849 
3 194 193 213 
3 171 193 194 
3 214 213 227 
3 194 213 214 
3 822 831 832 
3 867 866 873 
3 857 866 867 
3 847 866 831 
3 628 627 657 
3 579 627 628 
3 644 657 627 
3 201 210 190 
3 202 190 210 
3 179 201 190 
3 209 210 201 
3 715 714 726 
3 701 714 715 
3 726 742 715 
3 462 485 443 
3 733 764 708 
3 936 940 945 
3 461 441 511 
3 856 881 846 
3 881 882 846 
3 943 952 964 
3 270 287 271 
3 287 310 271 
3 881 856 897 
3 712 713 678 
3 711 712 678 
3 712 711 724 
3 200 322 323 
3 1225 1270 1271 
3 1248 1270 1225 
3 1191 1225 1271 
3 1262 1191 1271 
3 978 995 1018 
3 1119 1118 1142 
3 1104 1118 1119 
3 616 641 617 
3 641 652 617 
3 392 340 409 
3 234 247 235 
3 247 264 235 
3 1291 1318 1312 
3 1272 1301 1291 
3 1301 1318 1291 
3 1273 1272 1291 
3 1271 1301 1272 
3 1290 1301 1271 
3 17 16 31 
3 10 16 17 
3 1008 1033 1021 
3 1033 1041 1021 
3 1041 1063 1021 
3 665 666 622 
3 144 154 119 
3 317 385 336 
3 385 386 336 
3 298 317 336 
3 299 298 336 
3 1162 1163 1125 
3 1126 1125 1163 
3 331 332 295 
3 1 24 2 
3 369 370 285 
3 309 345 369 
3 308 345 309 
3 482 483 460 
3 1378 1379 1357 
3 1379 1380 1357 
3 1358 1357 1380 
3 1359 1358 1380 
3 99 137 110 
3 137 138 110 
3 138 139 110 
3 98 109 99 
3 109 137 99 
3 366 408 340 
3 408 409 340 
3 1338 1342 1349 
3 922 929 930 
3 931 930 946 
3 921 929 922 
3 450 431 493 
3 1370 1371 1350 
3 710 748 698 
3 720 698 748 
3 1365 1359 1380 
3 1380 1381 1365 
3 959 970 941 
3 948 941 970 
3 1306 1305 1314 
3 1295 1305 1306 
3 123 122 145 
3 104 122 123 
3 982 1000 1001 
3 766 765 800 
3 746 765 766 
3 470 493 430 
3 229 298 278 
3 298 299 278 
3 277 298 229 
3 261 229 278 
3 1032 1031 1078 
3 1006 1031 1032 
3 18 37 19 
3 29 19 37 
3 976 994 977 
3 985 994 976 
3 965 977 966 
3 745 762 732 
3 1014 1038 1015 
3 991 999 982 
3 999 1000 982 
3 806 805 872 
3 855 806 872 
3 797 806 855 
3 837 797 855 
3 890 919 903 
3 919 926 903 
3 872 890 903 
3 226 225 253 
3 241 226 253 
3 286 285 370 
3 778 827 816 
3 374 373 398 
3 348 373 374 
3 328 348 374 
3 312 348 328 
3 349 328 374 
3 374 375 349 
3 1096 1095 1107 
3 1073 1095 1096 
3 1128 1150 1106 
3 1107 1106 1150 
3 1095 1106 1107 
3 1129 1107 1150 
3 1150 1175 1129 
3 1073 1096 1046 
3 1283 1299 1248 
3 615 614 638 
3 1311 1335 1327 
3 890 889 919 
3 759 758 795 
3 948 949 938 
3 917 938 918 
3 960 961 948 
3 949 948 961 
3 321 305 341 
3 341 342 321 
3 178 177 189 
3 177 188 189 
3 1325 1333 1326 
3 1333 1334 1326 
3 37 36 54 
3 18 36 37 
3 677 676 708 
3 621 676 677 
3 653 676 620 
3 621 620 676 
3 620 619 653 
3 708 734 677 
3 695 677 734 
3 980 988 958 
3 988 989 958 
3 989 990 958 
3 998 990 1007 
3 1255 1282 1267 
3 318 338 300 
3 1256 1273 1274 
3 278 279 261 
3 77 61 86 
3 948 970 960 
3 970 971 960 
3 1191 1190 1225 
3 431 450 416 
3 432 416 450 
3 446 427 464 
3 80 64 99 
3 80 99 103 
3 1216 1215 1224 
3 549 520 574 
3 1195 1203 1162 
3 1163 1162 1203 
3 34 59 69 
3 578 627 579 
3 580 579 628 
3 555 579 580 
3 553 627 578 
3 689 657 700 
3 88 128 89 
3 84 83 101 
3 362 385 317 
3 186 198 174 
3 164 174 187 
3 165 164 187 
3 168 174 164 
3 1194 1193 1208 
3 1001 1014 1015 
3 1071 1090 1079 
3 1090 1105 1079 
3 464 445 488 
3 427 445 464 
3 1217 1191 1262 
3 1256 1217 1262 
3 1125 1126 1092 
3 463 443 485 
3 73 60 93 
3 43 60 73 
3 93 94 73 
3 780 766 800 
3 734 765 746 
3 800 820 780 
3 801 780 820 
3 820 865 801 
3 92 106 93 
3 72 92 93 
3 60 72 93 
3 214 228 215 
3 228 245 215 
3 216 245 258 
3 216 215 245 
3 217 216 258 
3 258 259 217 
3 441 442 391 
3 1040 1057 1058 
3 476 456 505 
3 505 506 476 
3 1262 1272 1273 
3 1256 1262 1273 
3 1205 1206 1196 
3 1205 1211 1206 
3 1211 1232 1206 
3 1206 1232 1212 
3 64 63 99 
3 98 99 63 
3 1075 1067 1138 
3 970 991 982 
3 1303 1293 1313 
3 1323 1303 1332 
3 1332 1337 1323 
3 1337 1342 1323 
3 1338 1323 1342 
3 1313 1302 1319 
3 1293 1302 1313 
3 742 726 758 
3 553 552 577 
3 498 552 553 
3 1175 1176 1129 
3 928 897 944 
3 897 957 944 
3 959 1010 991 
3 1010 1011 991 
3 1011 1012 991 
3 981 1024 947 
3 981 1009 1024 
3 1010 947 1024 
3 959 947 1010 
3 793 804 774 
3 973 972 992 
3 955 972 973 
3 888 895 896 
3 296 334 258 
3 275 258 334 
3 1070 1077 1088 
3 996 1070 1088 
3 412 413 395 
3 53 75 54 
3 75 76 54 
3 81 82 75 
3 76 75 82 
3 242 256 212 
3 373 372 398 
3 418 398 494 
3 374 398 418 
3 472 418 494 
3 319 339 320 
3 339 366 320 
3 303 366 340 
3 303 320 366 
3 288 271 310 
3 252 272 239 
3 481 533 509 
3 533 534 509 
3 479 533 480 
3 481 480 533 
3 364 390 338 
3 365 338 390 
3 55 54 76 
3 37 54 55 
3 82 81 104 
3 795 815 826 
3 795 794 815 
3 1112 1113 1086 
3 1187 1197 1177 
3 10 9 13 
3 1036 1037 1011 
3 1012 1011 1037 
3 1025 1012 1037 
3 1060 1059 1066 
3 1058 1059 1040 
3 1360 1356 1381 
3 1336 1354 1328 
3 908 900 932 
3 712 724 713 
3 724 739 713 
3 740 713 755 
3 926 935 903 
3 938 925 941 
3 917 925 938 
3 938 941 948 
3 933 941 925 
3 475 474 500 
3 605 631 606 
3 1007 1020 998 
3 183 195 184 
3 632 633 585 
3 560 585 633 
3 633 634 560 
3 369 429 370 
3 182 183 173 
3 527 526 558 
3 1288 1310 1311 
3 1289 1288 1311 
3 932 933 908 
3 191 192 180 
3 353 377 354 
3 377 402 354 
3 378 354 402 
3 1249 1217 1256 
3 250 238 271 
3 158 238 250 
3 268 285 286 
3 269 268 286 
3 740 741 725 
3 1068 1067 1075 
3 1051 1068 1069 
3 1050 1068 1051 
3 1061 1051 1069 
3 927 979 957 
3 979 987 957 
3 306 324 325 
3 1315 1326 1334 
3 1037 1036 1045 
3 1010 1036 1011 
3 1035 1036 1010 
3 501 502 436 
3 1342 1337 1345 
3 784 783 811 
3 501 527 502 
3 527 559 502 
3 502 559 528 
3 559 560 528 
3 226 241 209 
3 1059 1058 1065 
3 26 5 35 
3 1265 1260 1281 
3 332 333 296 
3 333 334 296 
3 71 72 42 
3 91 92 71 
3 72 71 92 
3 270 286 287 
3 269 286 270 
3 1187 1206 1197 
3 1206 1212 1197 
3 1196 1206 1187 
3 1253 1264 1276 
3 1285 1280 1294 
3 1377 1378 1353 
3 1357 1353 1378 
3 771 772 754 
3 771 790 772 
3 790 791 772 
3 1030 1070 996 
3 1061 1070 1030 
3 1057 1049 1086 
3 737 753 738 
3 753 771 738 
3 888 896 878 
3 808 807 818 
3 807 817 818 
3 131 132 107 
3 69 90 70 
3 491 601 492 
3 517 601 491 
3 449 491 492 
3 1040 1028 1057 
3 1017 1028 1040 
3 261 279 262 
3 355 378 356 
3 600 927 781 
3 1204 1205 1176 
3 748 749 720 
3 1008 998 1033 
3 822 821 831 
3 811 821 822 
3 627 626 644 
3 577 626 627 
3 553 577 627 
3 109 136 137 
3 1139 1157 1140 
3 1027 1026 1046 
3 628 629 604 
3 1015 1048 983 
3 493 519 450 
3 471 450 519 
3 519 548 471 
3 1178 1189 1166 
3 1167 1166 1189 
3 657 688 700 
3 733 779 764 
3 779 798 764 
3 763 779 733 
3 1135 1134 1153 
3 1112 1134 1135 
3 1113 1112 1135 
3 1216 1232 1211 
3 568 569 541 
3 400 433 420 
3 433 434 420 
3 511 538 512 
3 537 538 511 
3 1070 1069 1076 
3 1061 1069 1070 
3 1065 1074 1066 
3 1059 1065 1066 
3 151 140 162 
3 584 606 585 
3 606 632 585 
3 33 38 22 
3 531 589 532 
3 588 610 589 
3 764 798 799 
3 708 764 734 
3 764 765 734 
3 765 764 799 
3 1091 1123 1081 
3 1123 1124 1081 
3 1080 1091 1081 
3 1318 1301 1327 
3 472 520 495 
3 520 521 495 
3 521 520 549 
3 451 418 472 
3 494 520 472 
3 974 963 984 
3 22 23 12 
3 618 619 597 
3 258 275 259 
3 543 571 544 
3 572 544 599 
3 27 28 6 
3 7 6 28 
3 15 7 28 
3 1027 1046 1038 
3 1046 1047 1038 
3 78 79 62 
3 1243 1253 1260 
3 671 683 672 
3 683 694 672 
3 381 380 405 
3 405 404 423 
3 380 404 405 
3 1368 1369 1361 
3 1362 1361 1369 
3 241 253 254 
3 730 731 706 
3 1222 1255 1214 
3 1262 1271 1272 
3 661 662 640 
3 641 640 662 
3 652 641 662 
3 648 674 649 
3 647 660 648 
3 660 674 648 
3 563 590 564 
3 590 612 564 
3 564 612 591 
3 612 613 591 
3 306 200 323 
3 1009 981 1022 
3 1022 1023 1009 
3 503 504 455 
3 780 801 735 
3 935 926 943 
3 1299 1298 1317 
3 1283 1298 1299 
3 483 482 510 
3 482 509 510 
3 500 499 525 
3 474 499 500 
3 525 524 557 
3 499 524 525 
3 207 266 322 
3 200 207 322 
3 169 207 200 
3 1372 1373 1363 
3 1324 1338 1329 
3 1338 1339 1329 
3 442 441 461 
3 511 512 461 
3 17 31 32 
3 21 17 32 
3 10 17 11 
3 17 21 11 
3 752 751 769 
3 751 768 769 
3 670 628 681 
3 629 628 670 
3 681 682 670 
3 950 955 973 
3 963 950 973 
3 243 274 244 
3 95 108 86 
3 107 132 108 
3 95 107 108 
3 36 53 54 
3 1249 1256 1274 
3 1263 1249 1274 
3 40 1 50 
3 24 1 40 
3 1 0 50 
3 60 42 72 
3 1227 1235 1236 
3 68 87 88 
3 249 268 238 
3 268 269 238 
3 296 295 332 
3 297 276 316 
3 637 612 651 
3 613 612 637 
3 651 675 637 
3 636 651 612 
3 611 612 590 
3 611 636 612 
3 769 787 770 
3 787 788 770 
3 752 769 770 
3 1324 1323 1338 
3 839 865 820 
3 696 697 664 
3 78 97 79 
3 97 102 79 
3 98 79 102 
3 1324 1329 1304 
3 770 771 753 
3 788 789 770 
3 771 770 789 
3 430 429 469 
3 469 470 430 
3 999 991 1012 
3 642 643 624 
3 1364 1363 1373 
3 550 549 575 
3 521 549 550 
3 549 574 575 
3 238 270 271 
3 271 288 250 
3 288 289 250 
3 1171 1181 1192 
3 1291 1312 1302 
3 1312 1319 1302 
3 700 701 689 
3 700 714 701 
3 881 897 891 
3 916 925 917 
3 916 917 910 
3 79 98 63 
3 998 1020 1033 
3 629 670 658 
3 670 671 658 
3 645 629 658 
3 630 629 645 
3 924 931 906 
3 907 906 931 
3 191 202 192 
3 202 211 192 
3 192 211 203 
3 211 212 203 
3 1325 1331 1333 
3 1219 1207 1233 
3 1219 1220 1207 
3 10 13 16 
3 297 317 298 
3 277 297 298 
3 1098 1099 1084 
3 758 759 742 
3 343 342 367 
3 375 374 418 
3 399 375 418 
3 418 419 399 
3 889 890 872 
3 1097 1096 1108 
3 1108 1109 1097 
3 1234 1233 1252 
3 1219 1233 1234 
3 1250 1251 1233 
3 1251 1252 1233 
3 1229 1228 1239 
3 63 62 79 
3 46 62 63 
3 949 961 962 
3 1131 1151 1164 
3 1130 1151 1131 
3 1152 1131 1164 
3 1210 1214 1202 
3 1203 1202 1214 
3 125 147 148 
3 124 147 125 
3 517 516 601 
3 1239 1238 1245 
3 1228 1238 1239 
3 1166 1153 1178 
3 1154 1153 1166 
3 697 735 801 
3 52 51 74 
3 74 51 80 
3 591 613 592 
3 613 637 592 
3 592 637 614 
3 1027 1038 1014 
3 1103 1102 1117 
3 1116 1117 1102 
3 716 715 727 
3 702 715 716 
3 252 251 272 
3 1369 1370 1362 
3 297 316 317 
3 1292 1291 1302 
3 848 859 840 
3 859 869 840 
3 869 870 840 
3 860 840 870 
3 849 840 860 
3 976 964 985 
3 805 806 777 
3 233 232 246 
3 554 579 555 
3 423 424 405 
3 438 439 423 
3 424 423 439 
3 465 464 489 
3 446 464 465 
3 933 932 941 
3 1382 1383 1366 
3 363 386 387 
3 336 386 363 
3 1306 1314 1307 
3 1321 1331 1325 
3 68 88 40 
3 50 68 40 
3 922 923 914 
3 959 991 970 
3 1135 1153 1154 
3 717 728 729 
3 100 104 81 
3 559 558 585 
3 527 558 559 
3 558 584 585 
3 131 159 132 
3 1148 1174 1149 
3 419 418 451 
3 986 1052 1004 
3 996 1052 986 
3 1117 1116 1141 
3 523 524 499 
3 1292 1302 1293 
3 86 96 77 
3 467 515 490 
3 1119 1142 1143 
3 227 228 214 
3 729 730 718 
3 705 718 730 
3 704 718 705 
3 706 705 730 
3 743 760 744 
3 730 743 744 
3 731 730 744 
3 603 625 626 
3 1132 1131 1152 
3 1111 1131 1132 
3 697 696 735 
3 283 308 309 
3 284 283 309 
3 552 551 577 
3 577 576 603 
3 551 576 577 
3 289 288 311 
3 140 151 117 
3 141 117 151 
3 363 388 337 
3 337 388 364 
3 388 389 364 
3 604 630 582 
3 582 630 605 
3 630 631 605 
3 684 685 673 
3 269 270 238 
3 740 757 741 
3 32 33 21 
3 1099 1098 1111 
3 1110 1131 1111 
3 1098 1110 1111 
3 1295 1294 1305 
3 1114 1139 1140 
3 1087 1076 1114 
3 1077 1076 1087 
3 102 109 98 
3 377 401 402 
3 376 401 377 
3 1099 1111 1100 
3 1111 1132 1100 
3 1084 1099 1100 
3 1085 1084 1100 
3 1285 1294 1295 
3 291 313 292 
3 559 585 560 
3 224 240 208 
3 1087 1114 1101 
3 1114 1115 1101 
3 526 583 558 
3 583 584 558 
3 1012 1025 999 
3 999 1025 1013 
3 1025 1026 1013 
3 755 756 740 
3 1155 1154 1167 
3 1154 1166 1167 
3 581 580 628 
3 603 626 577 
3 67 66 85 
3 598 621 570 
3 1036 1055 1045 
3 257 274 243 
3 307 308 283 
3 575 602 576 
3 602 625 576 
3 576 625 603 
3 970 982 971 
3 173 172 182 
3 172 181 182 
3 745 744 761 
3 327 348 312 
3 1205 1204 1211 
3 593 615 594 
3 615 638 639 
3 163 168 164 
3 870 876 860 
3 860 876 871 
3 307 325 345 
3 308 307 345 
3 646 673 659 
3 337 364 318 
3 338 318 364 
3 1107 1129 1108 
3 1096 1107 1108 
3 109 102 116 
3 643 642 656 
3 642 655 656 
3 761 762 745 
3 823 824 813 
3 288 310 311 
3 439 438 455 
3 1290 1300 1301 
3 267 285 268 
3 249 267 268 
3 730 729 743 
3 1102 1101 1116 
3 1088 1101 1102 
3 1101 1115 1116 
3 1178 1188 1189 
3 965 966 956 
3 20 19 29 
3 554 555 523 
3 1164 1165 1152 
3 348 347 373 
3 327 347 348 
3 347 372 373 
3 737 738 723 
3 1200 1209 1201 
3 1209 1213 1201 
3 633 646 634 
3 646 659 634 
3 634 659 647 
3 659 660 647 
3 849 861 850 
3 860 861 849 
3 1368 1369 1361 
3 1236 1237 1227 
3 1236 1244 1237 
3 1183 1194 1184 
3 1193 1194 1183 
3 1182 1193 1183 
3 1121 1147 1122 
3 1146 1147 1121 
3 1130 1131 1110 
3 1121 1122 1105 
3 1076 1077 1070 
3 1029 1030 1018 
3 1019 1020 1007 
3 1043 1053 1044 
3 1022 1034 1023 
3 989 997 990 
3 999 1013 1000 
3 914 924 915 
3 923 924 914 
3 923 931 924 
3 930 931 923 
3 922 930 923 
3 881 891 882 
3 910 911 901 
3 906 907 899 
3 917 918 911 
3 910 917 911 
3 914 915 905 
3 894 901 895 
3 873 874 867 
3 873 884 874 
3 860 871 861 
3 659 674 660 
3 671 672 658 
3 756 776 757 
3 775 776 756 
3 755 775 756 
3 774 775 755 
3 772 773 754 
3 834 844 835 
3 843 844 834 
3 841 850 842 
3 849 850 841 
3 823 835 824 
3 834 835 823 
3 792 804 793 
3 792 793 773 
3 772 792 773 
3 791 792 772 
3 789 790 771 
3 786 787 769 
3 702 716 703 
3 756 757 740 
3 717 729 718 
3 727 728 716 
3 693 694 683 
3 681 691 682 
3 690 691 681 
3 705 706 694 
3 693 705 694 
3 704 705 693 
3 692 704 693 
3 690 703 691 
3 702 703 690 
3 668 680 669 
3 679 680 668 
3 513 514 487 
3 486 513 487 
3 481 509 482 
3 476 507 477 
3 506 507 476 
3 495 496 472 
3 619 620 597 
3 617 618 596 
3 609 610 587 
3 583 606 584 
3 605 606 583 
3 582 605 583 
3 648 649 635 
3 630 645 631 
3 629 630 604 
3 537 565 538 
3 564 565 537 
3 536 564 537 
3 563 564 536 
3 535 563 536 
3 556 557 524 
3 523 556 524 
3 555 556 523 
3 550 551 522 
3 521 550 522 
3 568 596 569 
3 593 594 567 
3 591 592 565 
3 564 591 565 
3 561 587 562 
3 556 581 557 
3 580 581 556 
3 555 580 556 
3 550 576 551 
3 575 576 550 
3 535 536 510 
3 505 530 506 
3 503 529 504 
3 495 522 496 
3 521 522 495 
3 414 428 415 
3 410 425 411 
3 422 423 404 
3 467 468 448 
3 447 467 448 
3 466 467 447 
3 443 463 444 
3 437 455 438 
3 454 455 437 
3 436 454 437 
3 467 490 468 
3 484 485 462 
3 459 482 460 
3 481 482 459 
3 479 480 458 
3 422 438 423 
3 437 438 422 
3 420 435 421 
3 434 435 420 
3 389 390 364 
3 387 388 363 
3 382 383 360 
3 354 378 355 
3 410 411 392 
3 383 407 384 
3 406 407 383 
3 382 406 383 
3 355 356 330 
3 350 351 329 
3 190 202 191 
3 276 297 277 
3 319 320 302 
3 290 313 291 
3 262 280 263 
3 276 277 260 
3 259 276 260 
3 273 274 257 
3 256 273 257 
3 219 231 220 
3 230 231 219 
3 227 245 228 
3 244 245 227 
3 197 198 186 
3 152 153 142 
3 141 152 142 
3 137 150 138 
3 152 164 153 
3 163 164 152 
3 143 144 118 
