OFF
1384 2701 0
0 0 157 
0 8 155 
0 19 171 
0 25 93 
0 71 102 
0 92 50 
0 98 49 
0 100 134 
0 103 126 
0 105 30 
0 116 33 
0 120 78 
0 127 37 
1 108 22 
2 19 161 
2 102 160 
2 114 46 
2 117 32 
3 106 167 
3 108 156 
3 110 151 
3 119 97 
3 125 74 
3 127 63 
4 12 169 
4 19 71 
4 91 56 
4 97 46 
4 100 64 
4 110 190 
4 114 170 
4 116 177 
4 119 173 
4 121 161 
5 17 82 
5 86 63 
5 105 151 
5 108 161 
5 125 201 
5 127 209 
6 8 165 
6 25 92 
6 35 97 
6 43 103 
6 63 87 
6 70 73 
6 80 44 
6 114 137 
6 118 162 
6 120 167 
7 4 152 
7 96 123 
7 100 62 
7 104 57 
7 107 36 
7 111 43 
7 114 54 
7 118 64 
7 127 195 
8 13 150 
8 40 155 
8 59 151 
8 79 130 
8 83 156 
8 89 146 
8 120 90 
8 125 105 
8 127 100 
9 4 169 
9 18 166 
9 23 165 
9 29 163 
9 37 166 
9 46 169 
9 100 163 
9 106 161 
9 110 157 
10 64 180 
10 74 181 
10 80 169 
10 97 173 
10 106 179 
10 110 180 
10 117 176 
10 121 173 
10 127 164 
12 60 180 
13 0 166 
13 7 160 
13 12 165 
13 20 163 
13 30 165 
13 36 174 
13 41 177 
13 46 176 
13 54 178 
13 64 182 
13 74 184 
13 83 177 
13 89 189 
13 104 177 
13 120 184 
14 80 177 
14 96 171 
14 108 181 
14 127 183 
15 38 133 
15 54 137 
15 59 139 
15 83 152 
15 90 163 
15 99 174 
15 119 154 
15 122 170 
16 30 80 
16 39 85 
16 80 102 
16 97 95 
16 101 117 
16 103 220 
16 104 138 
16 105 210 
16 106 108 
16 108 147 
16 112 153 
16 114 165 
16 125 54 
17 0 83 
17 9 90 
17 21 70 
17 45 73 
17 54 69 
17 56 74 
17 63 73 
17 71 86 
17 76 73 
17 84 67 
17 88 84 
17 89 129 
17 90 63 
17 96 64 
17 98 156 
17 99 46 
17 101 156 
17 102 78 
17 107 174 
17 109 61 
17 112 48 
17 115 64 
18 0 100 
18 89 69 
18 97 136 
18 99 49 
18 100 189 
18 103 36 
18 106 45 
18 120 44 
18 127 32 
19 45 93 
19 54 91 
19 80 97 
19 90 127 
19 95 106 
19 99 164 
19 100 38 
19 102 53 
19 116 49 
20 95 67 
20 99 27 
21 21 102 
21 65 102 
21 80 111 
21 85 127 
21 87 140 
21 99 27 
21 115 49 
21 127 63 
22 68 115 
22 72 109 
22 73 135 
22 77 136 
22 85 55 
22 87 40 
22 89 79 
22 91 58 
22 96 73 
22 99 96 
22 102 52 
23 69 27 
23 71 159 
23 75 69 
23 76 140 
23 77 42 
23 79 69 
23 83 47 
23 90 158 
23 92 74 
23 99 46 
23 100 98 
23 110 45 
24 29 101 
24 73 141 
24 76 46 
24 78 117 
24 85 109 
24 90 50 
24 110 85 
25 19 100 
25 69 126 
25 73 62 
25 75 105 
25 77 137 
25 78 89 
25 81 114 
25 83 58 
25 84 118 
25 85 49 
25 88 66 
25 98 70 
25 101 32 
25 102 117 
25 107 44 
25 110 37 
26 66 83 
26 68 55 
26 71 86 
26 72 147 
26 82 43 
26 83 142 
26 93 40 
26 101 137 
26 102 66 
26 104 63 
26 106 126 
26 108 153 
26 110 68 
26 122 57 
26 127 63 
27 44 101 
27 66 193 
27 69 146 
27 73 62 
27 77 70 
27 81 45 
27 82 114 
27 83 48 
27 106 59 
27 108 32 
27 127 135 
28 38 105 
28 50 103 
28 64 110 
28 65 200 
28 72 49 
28 74 71 
28 75 106 
28 79 66 
28 80 143 
28 86 68 
28 89 43 
28 90 96 
28 97 42 
28 99 53 
28 100 98 
28 110 51 
28 127 67 
29 12 119 
29 38 101 
29 40 86 
29 42 83 
29 44 78 
29 47 83 
29 66 141 
29 80 51 
29 81 110 
29 87 118 
29 90 181 
29 91 134 
29 95 118 
29 97 145 
29 100 28 
29 105 42 
29 125 41 
30 33 110 
30 35 92 
30 39 218 
30 42 210 
30 45 223 
30 48 78 
30 50 87 
30 67 157 
30 68 227 
30 69 47 
30 76 50 
30 78 102 
30 82 60 
30 83 106 
30 91 82 
30 93 108 
30 95 46 
30 100 127 
30 103 50 
30 105 102 
30 108 50 
30 120 55 
30 122 95 
31 30 108 
31 32 211 
31 33 219 
31 35 203 
31 47 195 
31 49 212 
31 57 117 
31 68 72 
31 70 39 
31 76 128 
31 90 66 
31 92 136 
31 99 134 
31 105 44 
31 106 88 
31 124 133 
32 24 121 
32 27 116 
32 29 204 
32 31 184 
32 52 90 
32 56 96 
32 60 126 
32 62 164 
32 70 145 
32 81 140 
32 83 94 
32 84 113 
32 85 58 
32 88 93 
32 95 110 
32 98 51 
32 100 79 
32 105 97 
32 110 42 
32 123 52 
32 124 31 
32 126 135 
33 27 160 
33 33 97 
33 52 212 
33 55 222 
33 57 107 
33 61 160 
33 62 44 
33 63 46 
33 64 166 
33 68 35 
33 69 122 
33 70 78 
33 71 109 
33 77 51 
33 79 128 
33 81 42 
33 87 121 
33 90 120 
33 91 70 
33 97 137 
33 99 118 
33 101 133 
33 106 50 
33 126 36 
34 27 98 
34 38 111 
34 39 150 
34 47 139 
34 55 224 
34 57 227 
34 59 133 
34 61 58 
34 67 19 
34 68 100 
34 70 108 
34 80 45 
34 82 121 
34 84 158 
34 87 71 
34 88 130 
34 89 56 
34 92 98 
34 95 129 
34 97 68 
34 98 110 
34 99 149 
34 100 62 
34 102 65 
34 112 95 
34 114 50 
34 117 47 
34 124 105 
35 25 109 
35 52 192 
35 57 107 
35 62 70 
35 64 101 
35 67 116 
35 69 38 
35 72 45 
35 82 32 
35 84 78 
35 88 56 
35 89 120 
35 108 109 
35 109 50 
35 112 40 
35 113 97 
35 122 60 
35 124 35 
35 126 77 
35 127 99 
36 49 151 
36 52 118 
36 61 133 
36 62 185 
36 65 36 
36 66 128 
36 82 44 
36 83 43 
36 85 157 
36 113 62 
36 116 129 
36 119 44 
36 127 45 
37 39 100 
37 43 110 
37 47 139 
37 50 92 
37 64 64 
37 65 120 
37 66 58 
37 81 44 
37 82 167 
37 83 139 
37 85 49 
37 96 154 
37 102 124 
37 104 93 
37 110 101 
37 111 68 
37 118 132 
37 121 99 
37 124 128 
37 125 64 
38 18 127 
38 48 94 
38 62 59 
38 70 85 
38 71 61 
38 82 39 
38 83 68 
38 88 133 
38 91 127 
38 95 93 
38 97 70 
38 98 126 
38 104 137 
38 108 46 
38 111 133 
38 120 59 
38 122 77 
38 124 77 
38 125 43 
38 126 110 
39 41 88 
39 42 134 
39 49 129 
39 61 113 
39 67 55 
39 73 111 
39 75 51 
39 89 121 
39 90 219 
39 93 239 
39 95 66 
39 96 121 
39 97 152 
39 98 59 
39 100 127 
39 108 141 
39 109 146 
39 114 112 
39 115 29 
39 119 137 
39 122 133 
39 126 50 
40 17 104 
40 20 109 
40 45 110 
40 58 125 
40 61 50 
40 62 93 
40 64 60 
40 67 125 
40 72 129 
40 74 98 
40 79 83 
40 80 33 
40 83 44 
40 84 62 
40 88 227 
40 89 185 
40 90 99 
40 92 203 
40 98 167 
40 100 167 
40 103 145 
40 104 112 
40 115 150 
40 116 49 
40 125 122 
41 14 127 
41 15 167 
41 39 123 
41 47 147 
41 59 46 
41 61 122 
41 62 37 
41 71 92 
41 72 89 
41 74 37 
41 77 69 
41 79 160 
41 81 157 
41 84 158 
41 89 107 
41 91 225 
41 92 48 
41 97 47 
41 98 147 
41 100 75 
41 101 150 
41 102 57 
41 103 54 
41 105 156 
41 108 153 
41 112 120 
41 115 49 
41 124 94 
41 125 55 
41 127 75 
42 33 124 
42 37 129 
42 48 119 
42 60 38 
42 62 41 
42 63 111 
42 65 75 
42 68 54 
42 70 144 
42 71 59 
42 72 171 
42 73 49 
42 78 85 
42 80 108 
42 81 37 
42 86 189 
42 87 82 
42 101 51 
42 102 100 
42 103 152 
42 105 52 
42 107 45 
42 111 62 
42 112 42 
42 117 55 
42 123 41 
42 127 130 
43 53 126 
43 60 73 
43 62 117 
43 63 39 
43 65 35 
43 69 96 
43 70 43 
43 72 56 
43 73 136 
43 76 129 
43 77 180 
43 78 159 
43 80 35 
43 84 184 
43 87 97 
43 89 159 
43 90 58 
43 101 162 
43 103 121 
43 104 177 
43 107 45 
43 108 62 
43 110 171 
43 112 107 
43 114 131 
43 116 106 
43 127 39 
44 0 136 
44 15 126 
44 62 32 
44 64 109 
44 75 146 
44 77 40 
44 78 51 
44 84 80 
44 86 99 
44 87 199 
44 88 46 
44 100 58 
44 102 68 
44 103 184 
44 105 81 
44 107 191 
44 111 88 
44 112 31 
44 113 44 
44 114 169 
44 115 40 
44 116 44 
45 35 127 
45 42 133 
45 57 39 
45 63 42 
45 65 46 
45 68 47 
45 73 49 
45 75 38 
45 76 149 
45 77 125 
45 79 29 
45 81 41 
45 82 123 
45 84 98 
45 100 96 
45 104 42 
45 107 42 
45 109 174 
45 110 30 
45 111 144 
46 57 97 
46 59 40 
46 67 115 
46 77 28 
46 81 188 
46 83 124 
46 84 195 
46 85 55 
46 95 53 
46 100 50 
46 112 46 
46 113 59 
47 50 128 
47 57 42 
47 59 96 
47 68 44 
47 77 35 
47 82 152 
47 83 211 
47 110 68 
47 111 110 
47 123 49 
47 127 109 
48 32 111 
48 33 151 
48 54 60 
48 64 79 
48 65 29 
48 75 36 
48 77 156 
48 78 110 
48 81 184 
48 83 43 
48 105 56 
48 114 50 
48 120 39 
49 60 46 
49 64 46 
49 65 120 
49 73 46 
49 74 125 
49 77 109 
49 80 190 
49 81 54 
50 50 84 
50 54 50 
50 66 51 
50 71 39 
50 73 153 
50 74 95 
50 76 189 
50 77 200 
50 78 207 
50 121 113 
50 125 122 
50 127 123 
51 27 145 
51 54 85 
51 69 40 
51 71 146 
51 73 108 
51 74 201 
51 77 206 
51 78 39 
51 79 49 
51 88 54 
51 115 49 
51 122 43 
52 23 133 
52 58 60 
52 61 35 
52 62 59 
52 70 91 
52 72 179 
52 74 191 
52 76 179 
52 77 34 
52 122 51 
53 28 106 
53 47 124 
53 53 47 
53 58 28 
53 61 106 
53 66 45 
53 70 180 
53 74 216 
53 75 35 
53 77 36 
53 79 34 
53 81 39 
53 84 55 
53 111 44 
53 117 115 
53 123 121 
54 43 145 
54 57 63 
54 58 100 
54 61 43 
54 64 25 
54 66 143 
54 72 192 
54 79 104 
54 81 92 
54 83 123 
54 119 115 
55 17 150 
55 27 123 
55 28 185 
55 49 52 
55 52 105 
55 54 44 
55 57 119 
55 60 101 
55 63 42 
55 64 162 
55 65 103 
55 71 199 
55 72 74 
55 80 62 
55 83 88 
55 85 114 
55 108 59 
55 112 119 
55 117 125 
55 120 31 
56 13 179 
56 52 46 
56 54 127 
56 56 38 
56 58 44 
56 60 35 
56 61 49 
56 63 156 
56 64 143 
56 65 179 
56 86 94 
56 100 53 
56 109 122 
56 121 126 
57 10 125 
57 42 159 
57 43 82 
57 44 125 
57 49 39 
57 54 43 
57 55 104 
57 56 93 
57 58 153 
57 59 44 
57 60 50 
57 61 157 
57 62 91 
57 69 196 
57 70 79 
57 81 117 
57 92 63 
57 112 133 
57 115 109 
57 117 36 
57 123 132 
58 24 172 
58 52 66 
58 62 169 
58 86 128 
58 89 110 
58 105 122 
58 108 125 
58 115 54 
59 24 135 
59 44 78 
59 49 112 
59 57 6 
59 67 201 
59 68 118 
59 101 57 
59 105 42 
59 108 47 
59 112 67 
59 116 128 
60 44 156 
60 46 76 
60 56 30 
60 57 138 
60 66 202 
60 71 151 
60 97 72 
61 22 188 
61 23 155 
61 24 200 
61 46 119 
61 48 92 
61 49 49 
61 56 163 
61 57 129 
61 66 76 
61 96 41 
61 104 112 
61 112 136 
62 52 59 
62 54 37 
62 55 154 
62 56 102 
62 57 185 
62 98 130 
63 13 190 
63 43 155 
63 51 116 
63 54 137 
63 55 83 
63 63 187 
63 64 77 
63 67 49 
63 69 142 
63 95 115 
64 12 122 
64 48 51 
64 49 92 
64 51 27 
64 54 78 
64 55 179 
64 63 110 
64 65 47 
64 96 75 
64 116 142 
65 45 65 
65 48 116 
65 50 120 
65 52 114 
65 53 80 
65 55 137 
65 88 146 
66 48 52 
66 49 34 
66 50 34 
66 54 172 
66 60 177 
66 68 102 
66 74 181 
66 96 121 
67 14 114 
67 15 195 
67 45 89 
67 49 144 
67 51 122 
67 61 96 
67 62 139 
67 67 73 
67 86 148 
67 87 106 
68 15 120 
68 58 183 
68 63 152 
68 65 47 
68 66 176 
68 68 202 
69 12 128 
69 43 165 
69 49 132 
69 60 159 
69 66 181 
69 71 168 
69 94 150 
69 101 140 
70 46 11 
70 49 141 
70 50 196 
70 62 74 
70 63 82 
70 66 69 
70 67 187 
70 115 133 
71 18 202 
71 46 45 
71 47 184 
71 65 55 
71 67 75 
71 68 140 
71 88 114 
72 18 114 
72 44 67 
72 45 35 
72 46 193 
72 47 113 
72 65 128 
72 91 123 
73 0 130 
73 18 99 
73 44 154 
73 46 151 
73 47 188 
73 62 173 
73 63 92 
73 81 125 
73 93 167 
74 20 221 
74 56 163 
74 67 120 
74 85 159 
75 20 97 
75 64 147 
75 85 211 
75 91 124 
76 18 113 
76 23 217 
76 45 189 
76 58 194 
76 67 158 
76 73 125 
76 81 79 
76 88 121 
76 89 198 
76 98 176 
77 23 84 
77 80 130 
77 94 151 
78 8 123 
78 25 221 
78 63 188 
78 68 227 
78 72 220 
78 75 216 
78 83 198 
78 90 149 
78 93 142 
78 94 56 
78 97 58 
78 127 146 
79 39 172 
79 66 214 
79 68 140 
79 77 232 
79 81 189 
79 86 171 
79 87 101 
79 91 134 
79 92 47 
79 98 199 
80 0 106 
80 25 65 
80 51 183 
80 66 77 
80 75 168 
80 85 138 
80 89 145 
80 114 166 
81 7 104 
81 27 71 
81 28 207 
81 29 227 
81 64 166 
81 80 144 
81 87 149 
81 89 52 
81 98 55 
81 113 181 
82 29 49 
82 34 202 
82 65 56 
82 66 31 
82 69 121 
82 85 148 
82 87 55 
82 122 159 
83 0 154 
83 18 108 
83 32 191 
83 38 157 
83 51 187 
83 62 199 
83 63 96 
83 64 111 
83 66 147 
83 69 161 
83 71 128 
83 82 134 
83 85 44 
83 100 207 
84 32 131 
84 33 218 
84 39 193 
84 49 196 
84 50 88 
84 58 223 
84 65 64 
84 66 167 
84 68 172 
84 83 59 
84 100 75 
84 101 215 
85 17 144 
85 25 154 
85 35 205 
85 50 50 
85 61 214 
85 62 146 
85 64 57 
85 69 62 
85 79 122 
85 87 43 
86 35 146 
86 48 192 
86 49 59 
86 50 111 
86 63 142 
86 67 48 
86 69 73 
86 75 125 
86 80 33 
86 99 40 
86 101 45 
86 116 204 
87 50 100 
87 55 42 
87 62 54 
87 75 50 
87 83 43 
87 87 77 
87 90 47 
87 93 53 
87 103 189 
88 8 161 
88 36 196 
88 59 48 
88 90 97 
88 92 87 
88 96 92 
88 99 123 
88 103 51 
88 105 220 
89 31 158 
89 58 39 
89 64 53 
89 91 72 
89 99 83 
89 105 44 
89 106 189 
90 22 150 
90 34 169 
90 46 203 
90 47 99 
90 57 53 
90 60 39 
90 75 85 
90 77 73 
90 82 78 
90 107 47 
90 109 224 
91 15 149 
91 31 116 
91 46 94 
91 53 159 
91 56 157 
91 59 167 
91 62 43 
91 66 43 
91 69 49 
91 73 50 
91 75 39 
91 77 27 
91 108 35 
91 110 28 
91 112 211 
91 116 216 
92 32 43 
92 62 162 
92 66 180 
92 68 168 
92 69 163 
92 73 153 
92 75 136 
92 80 23 
92 82 38 
92 106 34 
92 108 30 
92 110 32 
92 112 40 
92 115 172 
92 117 225 
93 23 43 
93 32 62 
93 33 214 
93 47 94 
93 48 152 
93 51 196 
93 52 49 
93 56 52 
93 62 63 
93 67 79 
93 73 169 
93 74 127 
93 76 151 
93 78 177 
93 80 171 
93 82 139 
93 86 37 
93 93 58 
93 97 64 
93 104 65 
93 106 141 
93 112 147 
93 117 68 
93 119 211 
93 123 222 
94 31 27 
94 32 214 
94 33 185 
94 44 207 
94 45 88 
94 64 42 
94 73 47 
94 76 146 
94 82 142 
94 84 164 
94 86 176 
94 97 162 
94 104 140 
94 115 85 
94 120 82 
94 123 191 
95 31 195 
95 50 198 
95 51 48 
95 75 46 
95 77 34 
95 84 77 
95 86 125 
95 93 161 
95 122 81 
95 127 217 
96 24 131 
96 32 167 
96 33 214 
96 44 104 
96 64 61 
96 69 44 
96 79 24 
96 82 51 
96 120 109 
96 127 70 
97 23 145 
97 28 45 
97 29 71 
97 30 225 
97 39 204 
97 45 94 
97 77 47 
97 82 139 
97 84 150 
97 97 113 
97 102 148 
98 27 133 
98 29 213 
98 30 181 
98 47 217 
98 75 51 
98 78 131 
99 28 194 
99 37 187 
99 42 160 
99 43 84 
99 46 202 
99 47 43 
99 69 43 
99 71 48 
99 75 131 
100 0 154 
100 30 214 
100 42 120 
100 45 228 
100 70 122 
100 78 157 
101 43 239 
101 45 46 
101 65 48 
101 68 134 
101 115 141 
101 118 50 
102 2 207 
102 4 153 
102 41 199 
102 43 35 
102 61 51 
102 65 132 
102 98 111 
102 127 128 
103 29 213 
103 35 219 
103 38 225 
103 40 43 
103 61 127 
103 69 155 
104 0 231 
104 4 219 
104 27 149 
104 29 72 
104 30 225 
104 35 211 
104 37 40 
104 56 52 
104 119 36 
104 121 75 
105 9 148 
105 30 47 
105 36 50 
105 56 127 
105 64 160 
105 97 151 
105 116 153 
106 0 114 
106 1 101 
106 3 202 
106 9 204 
106 26 46 
106 46 51 
106 112 127 
106 118 197 
106 122 215 
106 124 106 
107 14 136 
107 49 57 
107 108 122 
107 116 122 
108 8 231 
108 21 151 
108 23 44 
108 46 43 
108 50 130 
108 55 153 
108 100 102 
108 106 130 
108 108 200 
108 112 212 
108 114 134 
108 119 173 
109 12 229 
109 47 146 
109 120 206 
109 122 72 
110 7 105 
110 18 157 
110 42 55 
110 90 142 
110 117 220 
111 11 196 
111 17 224 
111 43 146 
111 99 111 
111 100 76 
111 104 135 
111 112 216 
111 115 222 
111 117 220 
112 11 90 
112 13 217 
112 37 45 
112 47 165 
112 90 119 
112 94 118 
112 104 213 
112 106 212 
112 115 210 
112 120 49 
112 126 98 
113 13 124 
113 15 219 
113 17 44 
113 37 72 
113 82 135 
113 97 212 
113 101 210 
113 112 196 
113 117 86 
114 15 42 
114 37 145 
114 76 137 
114 92 215 
114 108 220 
114 114 114 
115 12 122 
115 29 56 
115 83 197 
115 123 105 
115 125 69 
116 32 44 
116 34 148 
116 105 206 
116 109 100 
116 127 78 
117 12 46 
117 29 31 
117 118 72 
118 31 152 
118 36 156 
118 101 202 
118 105 70 
118 119 117 
118 124 61 
118 127 131 
119 102 62 
119 115 84 
119 120 75 
120 7 130 
120 21 48 
120 116 101 
121 24 54 
121 58 156 
121 70 139 
121 124 117 
122 7 46 
122 26 152 
122 71 194 
122 96 209 
122 107 113 
123 27 136 
123 107 86 
124 96 181 
124 97 59 
124 98 31 
124 112 97 
125 0 124 
125 2 126 
125 20 54 
125 22 126 
125 102 105 
125 127 38 
126 116 90 
127 0 166 
127 1 166 
127 2 47 
127 15 51 
127 18 33 
127 20 148 
127 25 160 
127 67 140 
127 69 190 
127 88 214 
127 94 202 
127 95 178 
127 96 48 
127 105 106 
127 125 43 
127 127 100 
3 1381 1382 1367 
3 1349 1367 1382 
3 1366 1382 1383 
3 1366 1349 1382 
3 1367 1349 1342 
3 1360 1381 1367 
3 1365 1380 1381 
3 1365 1381 1356 
3 1360 1356 1381 
3 1359 1380 1365 
3 1357 1379 1380 
3 1358 1380 1359 
3 1358 1357 1380 
3 1378 1379 1357 
3 1377 1378 1353 
3 1357 1353 1378 
3 1317 1377 1353 
3 1376 1377 1352 
3 1322 1352 1377 
3 1322 1377 1317 
3 1348 1376 1352 
3 1348 1375 1376 
3 1347 1375 1348 
3 1374 1375 1347 
3 1351 1374 1355 
3 1334 1355 1374 
3 1364 1373 1374 
3 1347 1334 1374 
3 1351 1364 1374 
3 1346 1364 1351 
3 1363 1373 1364 
3 1363 1372 1373 
3 1371 1372 1363 
3 1330 1371 1344 
3 1363 1344 1371 
3 1370 1371 1350 
3 1330 1350 1371 
3 1362 1370 1350 
3 1362 1369 1370 
3 1361 1369 1362 
3 1368 1369 1361 
3 1367 1345 1360 
3 1342 1345 1367 
3 1339 1349 1366 
3 1340 1359 1365 
3 1365 1354 1340 
3 1354 1365 1356 
3 1344 1363 1364 
3 1344 1364 1346 
3 1343 1361 1362 
3 1343 1362 1350 
3 1250 1361 1343 
3 1354 1356 1360 
3 1328 1360 1341 
3 1360 1345 1341 
3 1328 1354 1360 
3 1353 1358 1359 
3 1335 1359 1340 
3 1353 1359 1335 
3 1357 1358 1353 
3 1336 1340 1354 
3 1333 1351 1355 
3 1355 1334 1333 
3 1331 1351 1333 
3 1328 1336 1354 
3 1310 1317 1353 
3 1310 1353 1335 
3 1316 1348 1352 
3 1322 1316 1352 
3 1331 1346 1351 
3 1330 1343 1350 
3 1280 1250 1343 
3 1338 1342 1349 
3 1349 1339 1338 
3 1247 1347 1348 
3 1348 1316 1247 
3 1297 1334 1347 
3 1347 1269 1297 
3 1269 1347 1247 
3 1321 1344 1346 
3 1321 1346 1331 
3 1321 1307 1344 
3 1266 1307 1321 
3 1332 1341 1345 
3 1337 1345 1342 
3 1332 1345 1337 
3 1330 1344 1314 
3 1307 1314 1344 
3 1320 1343 1330 
3 1320 1280 1343 
3 1294 1280 1320 
3 1323 1337 1342 
3 1323 1342 1338 
3 1332 1337 1323 
3 1319 1328 1341 
3 1341 1332 1319 
3 1327 1335 1340 
3 1327 1340 1336 
3 1335 1327 1311 
3 1338 1339 1329 
3 1338 1329 1324 
3 1338 1324 1323 
3 1313 1332 1303 
3 1323 1303 1332 
3 1336 1328 1327 
3 1318 1327 1328 
3 1335 1311 1310 
3 1333 1334 1326 
3 1315 1326 1334 
3 1315 1334 1287 
3 1297 1287 1334 
3 1325 1333 1326 
3 1325 1331 1333 
3 1321 1331 1325 
3 1319 1332 1313 
3 1314 1320 1330 
3 1305 1320 1314 
3 1324 1329 1304 
3 1226 1304 1329 
3 1312 1318 1328 
3 1328 1319 1312 
3 1311 1327 1300 
3 1301 1300 1327 
3 1327 1318 1301 
3 1296 1325 1326 
3 1308 1326 1315 
3 1296 1326 1308 
3 1321 1325 1296 
3 1244 1321 1296 
3 1304 1323 1324 
3 1304 1303 1323 
3 1279 1303 1304 
3 1316 1322 1309 
3 1298 1309 1322 
3 1298 1322 1317 
3 1309 1298 1283 
3 1266 1321 1254 
3 1244 1254 1321 
3 1305 1294 1320 
3 1302 1312 1319 
3 1319 1313 1302 
3 1291 1312 1302 
3 1291 1301 1318 
3 1291 1318 1312 
3 1272 1301 1291 
3 1299 1298 1317 
3 1317 1310 1299 
3 1283 1298 1299 
3 1247 1316 1232 
3 1212 1232 1316 
3 1212 1316 1309 
3 1287 1308 1315 
3 1282 1308 1287 
3 1296 1308 1282 
3 1305 1314 1306 
3 1307 1306 1314 
3 1286 1306 1307 
3 1295 1305 1306 
3 1293 1302 1313 
3 1313 1303 1293 
3 1278 1293 1303 
3 1284 1293 1278 
3 1292 1302 1293 
3 1292 1291 1302 
3 1288 1311 1289 
3 1290 1289 1311 
3 1290 1311 1300 
3 1310 1311 1288 
3 1270 1289 1290 
3 1288 1299 1310 
3 1248 1299 1288 
3 1309 1283 1212 
3 1189 1212 1283 
3 1245 1296 1282 
3 1281 1286 1307 
3 1265 1281 1266 
3 1281 1307 1266 
3 1276 1295 1286 
3 1295 1306 1286 
3 1260 1276 1286 
3 1294 1305 1295 
3 1285 1294 1295 
3 1276 1285 1295 
3 1279 1304 1259 
3 1226 1259 1304 
3 1303 1279 1278 
3 1275 1284 1278 
3 1284 1292 1293 
3 1273 1291 1274 
3 1291 1292 1274 
3 1300 1301 1290 
3 1271 1290 1301 
3 1271 1301 1272 
3 1248 1283 1299 
3 1270 1248 1288 
3 1277 1287 1297 
3 1268 1277 1297 
3 1297 1269 1268 
3 1267 1287 1277 
3 1244 1296 1245 
3 1285 1280 1294 
3 1264 1280 1285 
3 1276 1264 1285 
3 1284 1274 1292 
3 1263 1274 1284 
3 1272 1291 1273 
3 1271 1270 1290 
3 1270 1288 1289 
3 1267 1282 1287 
3 1282 1267 1255 
3 1260 1286 1281 
3 1253 1264 1276 
3 1275 1263 1284 
3 1257 1263 1275 
3 1248 1189 1283 
3 1168 1189 1248 
3 1239 1245 1282 
3 1230 1239 1282 
3 1282 1255 1230 
3 1222 1230 1255 
3 1265 1260 1281 
3 1251 1280 1252 
3 1264 1252 1280 
3 1251 1250 1280 
3 1234 1252 1264 
3 1258 1278 1279 
3 1258 1279 1259 
3 1275 1278 1258 
3 1257 1275 1258 
3 1261 1267 1277 
3 1261 1277 1268 
3 1255 1267 1261 
3 1260 1253 1276 
3 1243 1253 1260 
3 1241 1257 1258 
3 1242 1241 1258 
3 1256 1273 1274 
3 1249 1274 1263 
3 1249 1256 1274 
3 1262 1272 1273 
3 1262 1273 1256 
3 1271 1272 1262 
3 1225 1270 1271 
3 1191 1271 1262 
3 1191 1225 1271 
3 1225 1248 1270 
3 1246 1268 1269 
3 1269 1247 1246 
3 1231 1246 1247 
3 1261 1268 1246 
3 1240 1261 1246 
3 1203 1261 1240 
3 1254 1265 1266 
3 1235 1265 1254 
3 1181 1265 1235 
3 1181 1260 1265 
3 1234 1264 1253 
3 1243 1234 1253 
3 1249 1263 1257 
3 1241 1249 1257 
3 1217 1191 1262 
3 1217 1262 1256 
3 1140 1191 1217 
3 1214 1255 1261 
3 1214 1261 1203 
3 1089 1243 1260 
3 1089 1260 1181 
3 1242 1258 1259 
3 1242 1259 1226 
3 1218 1249 1241 
3 1217 1249 1218 
3 1256 1249 1217 
3 1222 1255 1214 
3 1236 1235 1254 
3 1236 1254 1244 
3 1220 1234 1243 
3 1233 1251 1252 
3 1233 1252 1234 
3 1219 1233 1234 
3 1233 1250 1251 
3 1168 1248 1225 
3 1190 1168 1225 
3 1224 1231 1247 
3 1224 1247 1232 
3 1223 1231 1224 
3 1231 1240 1246 
3 1127 1240 1223 
3 1231 1223 1240 
3 1244 1245 1238 
3 1239 1238 1245 
3 1229 1239 1230 
3 1237 1244 1238 
3 1228 1238 1239 
3 1236 1244 1237 
3 1228 1237 1238 
3 1208 1237 1228 
3 1227 1237 1208 
3 1089 1220 1243 
3 1218 1241 1242 
3 1179 1242 1226 
3 1179 1218 1242 
3 1169 1179 1226 
3 1203 1240 1163 
3 1127 1163 1240 
3 1229 1228 1239 
3 1199 1228 1229 
3 1236 1237 1227 
3 1227 1235 1236 
3 1192 1235 1198 
3 1227 1198 1235 
3 1192 1181 1235 
3 1208 1198 1227 
3 1219 1234 1220 
3 1207 1233 1219 
3 1224 1232 1216 
3 1232 1211 1216 
3 1205 1211 1206 
3 1232 1206 1211 
3 1206 1232 1212 
3 1215 1224 1216 
3 1215 1223 1224 
3 1175 1223 1215 
3 1221 1229 1230 
3 1230 1222 1221 
3 1199 1229 1221 
3 1209 1199 1221 
3 1185 1199 1209 
3 1199 1208 1228 
3 1173 1208 1199 
3 1169 1226 1180 
3 1191 1190 1225 
3 1175 1215 1204 
3 1215 1216 1204 
3 1175 1127 1223 
3 1128 1127 1175 
3 1213 1221 1222 
3 1222 1214 1213 
3 1209 1221 1213 
3 1201 1213 1210 
3 1213 1214 1210 
3 1200 1185 1209 
3 1207 1219 1220 
3 1207 1220 1062 
3 1220 1089 1062 
3 1158 1217 1218 
3 1158 1218 1179 
3 1141 1217 1158 
3 1140 1217 1141 
3 1216 1211 1204 
3 1176 1175 1204 
3 1202 1210 1214 
3 1203 1202 1214 
3 1201 1209 1213 
3 1186 1201 1210 
3 1200 1209 1201 
3 1197 1206 1212 
3 1188 1197 1212 
3 1212 1189 1188 
3 1187 1206 1197 
3 1177 1197 1188 
3 1196 1206 1187 
3 1204 1211 1205 
3 1176 1204 1205 
3 1186 1210 1202 
3 1174 1201 1186 
3 1174 1185 1200 
3 1193 1208 1194 
3 1173 1194 1208 
3 1193 1198 1208 
3 1172 1194 1173 
3 1207 1062 1005 
3 1196 1205 1206 
3 1151 1205 1196 
3 1164 1196 1187 
3 1151 1176 1205 
3 1164 1151 1196 
3 1195 1202 1203 
3 1162 1195 1203 
3 1163 1162 1203 
3 1123 1195 1162 
3 1202 1195 1186 
3 1174 1200 1201 
3 1185 1173 1199 
3 1147 1173 1185 
3 1182 1192 1198 
3 1182 1198 1193 
3 1177 1187 1197 
3 1165 1187 1177 
3 1165 1164 1187 
3 1123 1186 1195 
3 1124 1123 1162 
3 1149 1186 1123 
3 1183 1193 1194 
3 1183 1194 1184 
3 1172 1184 1194 
3 1161 1184 1172 
3 1182 1193 1183 
3 1181 1192 1171 
3 1182 1171 1192 
3 1120 1171 1182 
3 1145 1120 1182 
3 1156 1191 1157 
3 1140 1157 1191 
3 1190 1191 1156 
3 1138 1156 1157 
3 1139 1138 1157 
3 1156 1168 1190 
3 1178 1188 1189 
3 1166 1189 1167 
3 1189 1168 1167 
3 1178 1189 1166 
3 1153 1178 1166 
3 1177 1188 1178 
3 1153 1177 1178 
3 1134 1177 1153 
3 1133 1165 1177 
3 1152 1164 1165 
3 1149 1174 1186 
3 1148 1174 1149 
3 1122 1147 1185 
3 1063 1185 1148 
3 1185 1174 1148 
3 1079 1122 1185 
3 1063 1079 1185 
3 1161 1183 1184 
3 1182 1183 1145 
3 1161 1145 1183 
3 1090 1120 1145 
3 1120 1089 1181 
3 1120 1181 1171 
3 1160 1169 1180 
3 1160 1180 1170 
3 1144 1160 1170 
3 1142 1179 1159 
3 1169 1159 1179 
3 1158 1179 1142 
3 1143 1142 1159 
3 1144 1159 1169 
3 1154 1153 1166 
3 1133 1177 1134 
3 1175 1176 1129 
3 1109 1129 1176 
3 1151 1109 1176 
3 1130 1109 1151 
3 1108 1129 1109 
3 1150 1175 1129 
3 1128 1175 1150 
3 1107 1150 1129 
3 1146 1172 1173 
3 1146 1173 1147 
3 1145 1161 1146 
3 1161 1172 1146 
3 1004 1144 1170 
3 1004 1170 968 
3 1144 1169 1160 
3 1143 1159 1144 
3 1155 1167 1168 
3 1155 1168 1137 
3 1168 1156 1137 
3 1136 1155 1137 
3 1138 1137 1156 
3 1074 1136 1137 
3 1154 1167 1155 
3 1154 1166 1167 
3 1136 1154 1155 
3 1135 1153 1154 
3 1113 1135 1154 
3 1133 1152 1165 
3 1132 1152 1133 
3 1131 1151 1164 
3 1131 1164 1152 
3 1132 1131 1152 
3 1111 1131 1132 
3 1130 1151 1131 
3 1125 1162 1163 
3 1126 1163 1127 
3 1125 1163 1126 
3 1124 1162 1125 
3 1119 1143 1052 
3 1143 1144 1052 
3 1004 1052 1144 
3 1118 1141 1158 
3 1118 1158 1142 
3 1141 1118 1117 
3 1119 1118 1142 
3 1104 1118 1119 
3 1103 1117 1118 
3 1140 1139 1157 
3 1075 1138 1139 
3 1114 1139 1140 
3 1069 1075 1139 
3 1076 1069 1139 
3 1067 1137 1138 
3 1065 1136 1074 
3 1058 1136 1065 
3 1113 1154 1136 
3 1086 1113 1136 
3 1058 1086 1136 
3 1134 1153 1135 
3 1112 1134 1135 
3 1113 1112 1135 
3 1100 1132 1133 
3 1110 1109 1130 
3 1097 1109 1110 
3 1098 1097 1110 
3 1106 1128 1150 
3 1106 1150 1107 
3 1095 1106 1107 
3 1096 1095 1107 
3 1073 1095 1096 
3 1091 1148 1149 
3 1091 1149 1123 
3 1148 1091 1080 
3 1148 1080 1063 
3 1021 1063 1080 
3 1121 1146 1147 
3 1121 1147 1122 
3 1121 1145 1146 
3 1090 1145 1121 
3 1105 1090 1121 
3 1078 1120 1090 
3 1142 1143 1119 
3 1104 1119 1052 
3 1115 1141 1116 
3 1141 1117 1116 
3 1115 1140 1141 
3 1102 1116 1117 
3 1103 1102 1117 
3 1114 1140 1115 
3 1087 1114 1101 
3 1114 1115 1101 
3 1139 1114 1076 
3 1075 1067 1138 
3 1066 1137 1067 
3 1066 1074 1137 
3 1057 1086 1058 
3 1086 1112 1113 
3 1133 1134 1112 
3 1100 1133 1112 
3 1085 1100 1112 
3 1099 1111 1100 
3 1111 1132 1100 
3 1110 1130 1131 
3 1110 1131 1111 
3 1098 1110 1111 
3 1099 1098 1111 
3 1108 1107 1129 
3 1096 1107 1108 
3 1094 1127 1128 
3 1094 1128 1106 
3 1083 1094 1106 
3 1095 1083 1106 
3 1092 1127 1093 
3 1127 1094 1093 
3 1092 1126 1127 
3 1082 1093 1094 
3 1092 1125 1126 
3 1081 1125 1053 
3 1092 1053 1125 
3 1081 1124 1125 
3 1081 1123 1124 
3 1091 1123 1081 
3 1121 1122 1105 
3 1079 1105 1122 
3 1089 1120 1078 
3 1071 1078 1090 
3 1032 1078 1071 
3 1103 1118 1104 
3 1052 1103 1104 
3 1088 1102 1103 
3 1101 1115 1116 
3 1101 1116 1102 
3 1088 1101 1102 
3 1087 1076 1114 
3 1077 1076 1087 
3 1086 1085 1112 
3 1049 1085 1086 
3 1084 1099 1100 
3 1085 1084 1100 
3 1084 1098 1099 
3 1047 1097 1098 
3 1056 1047 1098 
3 1097 1108 1109 
3 1108 1097 1096 
3 1046 1096 1097 
3 1047 1046 1097 
3 1079 1090 1105 
3 1071 1090 1079 
3 1088 1103 1052 
3 996 1088 1052 
3 1088 1087 1101 
3 1077 1087 1088 
3 1056 1084 1085 
3 1056 1098 1084 
3 1073 1096 1046 
3 1055 1083 1095 
3 1055 1095 1073 
3 1064 1083 1055 
3 1072 1094 1083 
3 1072 1082 1094 
3 1064 1072 1083 
3 1054 1092 1093 
3 1054 1093 1082 
3 1072 1054 1082 
3 1053 1092 1054 
3 1091 1081 1080 
3 1089 1031 1062 
3 1031 1089 1078 
3 1070 1077 1088 
3 1070 1088 996 
3 1049 1086 1057 
3 1049 1056 1085 
3 1039 1056 1049 
3 1064 1054 1072 
3 1042 1080 1081 
3 1042 1081 1053 
3 1021 1080 1042 
3 1041 1071 1079 
3 1041 1079 1063 
3 1019 1071 1041 
3 1032 1031 1078 
3 1006 1031 1032 
3 1070 1076 1077 
3 1076 1070 1069 
3 1061 1069 1070 
3 1067 1075 1068 
3 1075 1069 1068 
3 1051 1068 1069 
3 1050 1068 1051 
3 1050 1067 1068 
3 1066 1065 1074 
3 1060 1066 1067 
3 1059 1065 1066 
3 1045 1055 1073 
3 1037 1045 1073 
3 1037 1073 1046 
3 1024 1054 1064 
3 1019 1032 1071 
3 997 1032 1019 
3 1020 1019 1041 
3 1030 1061 1070 
3 1030 1070 996 
3 1051 1069 1061 
3 995 1060 1050 
3 1060 1067 1050 
3 977 1060 995 
3 1059 1066 1060 
3 994 1059 1060 
3 977 994 1060 
3 1059 1058 1065 
3 1040 1058 1059 
3 1024 1064 1035 
3 1055 1035 1064 
3 1041 1063 1021 
3 1008 1033 1021 
3 1033 1041 1021 
3 987 1005 1062 
3 1062 1031 987 
3 1051 1061 1030 
3 1040 1059 994 
3 1040 1057 1058 
3 1028 1057 1040 
3 1017 1028 1040 
3 1049 1057 1028 
3 1016 1049 1028 
3 1047 1056 1048 
3 1039 1048 1056 
3 1015 1047 1048 
3 983 1048 1039 
3 983 1015 1048 
3 1036 1055 1045 
3 1036 1035 1055 
3 1053 1054 1044 
3 1034 1044 1054 
3 1009 1054 1024 
3 1034 1054 1009 
3 1043 1053 1044 
3 1042 1053 1043 
3 986 996 1052 
3 986 1052 1004 
3 1029 1050 1051 
3 1029 1051 1030 
3 995 1050 1029 
3 1018 995 1029 
3 1016 1039 1049 
3 992 1039 1016 
3 992 983 1039 
3 1038 1046 1047 
3 1015 1038 1047 
3 1046 1038 1027 
3 1014 1038 1015 
3 1025 1037 1046 
3 1025 1046 1026 
3 1046 1027 1026 
3 1036 1045 1037 
3 1010 1036 1011 
3 1036 1037 1011 
3 1034 1043 1044 
3 1022 1042 1043 
3 1022 1043 1034 
3 1042 1022 1021 
3 946 1021 1022 
3 969 1021 946 
3 1020 1041 1033 
3 998 1033 1008 
3 998 1020 1033 
3 1003 1017 1040 
3 994 1003 1040 
3 972 983 992 
3 1014 1027 1038 
3 1012 1037 1025 
3 1012 1011 1037 
3 1010 1035 1036 
3 1010 1024 1035 
3 947 1024 1010 
3 1023 1022 1034 
3 1009 1023 1034 
3 980 1032 988 
3 997 988 1032 
3 980 1006 1032 
3 987 1031 1006 
3 957 987 1006 
3 944 957 1006 
3 1029 1030 1018 
3 996 1018 1030 
3 978 1018 996 
3 953 978 996 
3 995 1018 978 
3 1002 1016 1028 
3 1002 1028 1017 
3 984 1016 1002 
3 973 1016 984 
3 1013 1026 1027 
3 1000 1027 1014 
3 1000 1013 1027 
3 1001 1000 1014 
3 1013 1025 1026 
3 999 1012 1025 
3 1025 1013 999 
3 981 1024 947 
3 1009 1024 981 
3 959 947 1010 
3 1009 1022 1023 
3 1022 981 946 
3 981 1022 1009 
3 969 1008 1021 
3 1007 1019 1020 
3 1007 1020 998 
3 997 1019 1007 
3 990 997 1007 
3 904 953 996 
3 1017 1003 1002 
3 984 1002 993 
3 1002 1003 993 
3 973 992 1016 
3 963 973 984 
3 1001 1014 1015 
3 961 1015 983 
3 1001 1015 961 
3 971 1001 961 
3 982 1000 1001 
3 971 982 1001 
3 999 1013 1000 
3 991 1011 1012 
3 991 1012 999 
3 991 1010 1011 
3 959 1010 991 
3 969 998 1008 
3 998 990 1007 
3 969 990 998 
3 954 944 1006 
3 1006 980 954 
3 987 979 1005 
3 912 1004 968 
3 912 986 1004 
3 993 1003 994 
3 975 993 985 
3 993 994 985 
3 974 984 993 
3 982 999 1000 
3 991 999 982 
3 991 982 970 
3 958 990 969 
3 898 958 969 
3 988 997 989 
3 997 990 989 
3 904 996 986 
3 912 904 986 
3 967 995 978 
3 977 995 966 
3 967 966 995 
3 976 985 994 
3 977 976 994 
3 964 985 976 
3 974 993 975 
3 964 975 985 
3 973 972 992 
3 955 972 973 
3 991 970 959 
3 958 989 990 
3 830 945 898 
3 945 958 898 
3 988 989 958 
3 980 988 958 
3 987 957 979 
3 927 979 957 
3 951 975 964 
3 974 963 984 
3 942 963 974 
3 961 983 962 
3 972 962 983 
3 949 961 962 
3 970 982 971 
3 948 970 960 
3 970 971 960 
3 946 981 931 
3 937 931 981 
3 981 947 937 
3 907 931 937 
3 954 980 958 
3 953 967 978 
3 964 976 977 
3 965 977 966 
3 964 977 965 
3 943 964 965 
3 956 943 965 
3 951 974 975 
3 952 951 964 
3 942 974 951 
3 950 955 973 
3 950 973 963 
3 962 972 955 
3 949 962 955 
3 934 949 955 
3 971 961 960 
3 949 948 961 
3 938 948 949 
3 948 960 961 
3 941 959 970 
3 941 970 948 
3 898 969 929 
3 969 946 929 
3 921 898 929 
3 801 968 697 
3 912 968 865 
3 801 865 968 
3 956 966 967 
3 956 967 953 
3 935 956 953 
3 956 965 966 
3 935 943 956 
3 943 952 964 
3 950 963 942 
3 918 938 949 
3 932 947 959 
3 932 959 941 
3 954 958 945 
3 897 927 957 
3 957 944 897 
3 928 897 944 
3 934 955 950 
3 940 954 945 
3 944 954 940 
3 936 940 945 
3 903 953 904 
3 903 935 953 
3 919 951 952 
3 926 952 943 
3 919 952 926 
3 939 951 919 
3 942 951 939 
3 950 942 934 
3 939 934 942 
3 918 949 902 
3 949 934 902 
3 879 902 934 
3 938 941 948 
3 925 941 938 
3 932 937 947 
3 937 932 900 
3 929 946 930 
3 946 931 930 
3 830 936 945 
3 913 936 830 
3 928 944 940 
3 936 928 940 
3 920 897 928 
3 926 943 935 
3 889 934 939 
3 919 889 939 
3 932 941 933 
3 925 933 941 
3 920 928 936 
3 917 925 938 
3 918 917 938 
3 876 907 937 
3 876 937 892 
3 937 900 892 
3 920 936 913 
3 913 830 829 
3 903 926 935 
3 889 879 934 
3 908 932 933 
3 909 933 925 
3 908 933 909 
3 916 909 925 
3 908 900 932 
3 923 930 931 
3 923 931 924 
3 906 924 931 
3 907 906 931 
3 915 924 906 
3 922 929 930 
3 930 923 922 
3 921 929 922 
3 891 897 920 
3 913 891 920 
3 600 927 781 
3 856 781 927 
3 897 856 927 
3 903 919 926 
3 890 919 903 
3 872 890 903 
3 925 917 916 
3 910 916 917 
3 894 909 916 
3 914 923 924 
3 914 924 915 
3 899 915 906 
3 914 922 923 
3 905 921 922 
3 905 922 914 
3 898 921 905 
3 889 919 890 
3 911 917 918 
3 896 918 902 
3 896 911 918 
3 917 911 910 
3 894 916 910 
3 893 909 894 
3 901 894 910 
3 914 915 905 
3 899 905 915 
3 873 905 899 
3 883 905 873 
3 884 873 899 
3 891 913 882 
3 828 882 913 
3 913 829 828 
3 839 904 912 
3 839 912 865 
3 838 904 839 
3 901 910 911 
3 901 911 896 
3 895 901 896 
3 888 895 896 
3 893 908 909 
3 886 908 893 
3 886 900 908 
3 887 886 893 
3 899 906 907 
3 899 907 885 
3 876 885 907 
3 884 899 885 
3 898 905 883 
3 845 904 838 
3 880 904 845 
3 880 903 904 
3 855 903 880 
3 855 872 903 
3 878 902 879 
3 896 902 878 
3 854 878 879 
3 894 901 895 
3 877 892 900 
3 877 900 886 
3 875 884 885 
3 847 830 898 
3 898 883 847 
3 866 847 883 
3 856 897 881 
3 897 891 881 
3 878 888 896 
3 888 894 895 
3 862 893 894 
3 862 894 863 
3 894 888 863 
3 887 893 862 
3 878 863 888 
3 871 876 892 
3 892 877 871 
3 844 871 877 
3 881 891 882 
3 872 889 890 
3 796 889 805 
3 872 805 889 
3 796 879 889 
3 853 863 878 
3 877 886 887 
3 877 887 862 
3 877 862 851 
3 869 875 885 
3 869 885 876 
3 870 869 876 
3 874 884 875 
3 868 875 869 
3 859 868 869 
3 873 884 874 
3 883 873 866 
3 867 866 873 
3 857 866 867 
3 846 881 882 
3 846 882 828 
3 856 881 846 
3 855 880 864 
3 845 864 880 
3 826 879 796 
3 826 854 879 
3 853 878 854 
3 877 851 844 
3 861 871 844 
3 860 876 871 
3 860 870 876 
3 868 874 875 
3 867 873 874 
3 858 867 874 
3 874 868 858 
3 857 867 858 
3 831 866 857 
3 805 872 806 
3 855 806 872 
3 860 871 861 
3 843 861 844 
3 850 861 843 
3 840 869 870 
3 840 870 860 
3 848 859 840 
3 859 869 840 
3 849 840 860 
3 859 858 868 
3 833 858 848 
3 858 859 848 
3 831 847 866 
3 839 865 820 
3 801 820 865 
3 780 820 801 
3 837 855 864 
3 837 864 845 
3 862 863 852 
3 836 852 863 
3 836 863 853 
3 851 862 852 
3 835 844 851 
3 849 860 861 
3 849 861 850 
3 842 850 843 
3 841 840 849 
3 832 857 858 
3 832 858 833 
3 832 831 857 
3 781 856 846 
3 767 781 846 
3 797 855 837 
3 806 855 797 
3 836 853 854 
3 815 854 826 
3 836 854 815 
3 814 836 815 
3 825 851 852 
3 825 852 836 
3 804 851 825 
3 835 851 804 
3 824 835 804 
3 841 849 850 
3 841 850 842 
3 803 840 841 
3 840 833 848 
3 803 833 840 
3 812 833 803 
3 749 847 782 
3 821 782 847 
3 847 831 821 
3 830 847 749 
3 767 846 747 
3 828 747 846 
3 837 845 827 
3 816 827 845 
3 838 816 845 
3 834 843 844 
3 834 844 835 
3 791 824 804 
3 834 842 843 
3 823 841 842 
3 823 842 834 
3 823 803 841 
3 786 803 823 
3 838 839 818 
3 819 818 839 
3 809 819 839 
3 839 820 809 
3 808 818 819 
3 817 816 838 
3 838 818 817 
3 807 816 817 
3 827 797 837 
3 778 797 827 
3 814 825 836 
3 823 834 835 
3 823 835 824 
3 813 824 790 
3 791 790 824 
3 789 813 790 
3 812 832 833 
3 822 831 832 
3 812 822 832 
3 785 822 812 
3 784 822 785 
3 821 831 822 
3 811 821 822 
3 810 829 830 
3 749 810 830 
3 748 810 749 
3 802 810 748 
3 810 828 829 
3 747 828 802 
3 810 802 828 
3 816 778 827 
3 815 826 795 
3 826 759 795 
3 760 759 796 
3 743 759 760 
3 759 826 796 
3 728 759 743 
3 794 815 795 
3 729 728 743 
3 775 804 825 
3 776 825 814 
3 776 775 825 
3 813 823 824 
3 786 823 787 
3 813 787 823 
3 788 787 813 
3 784 811 822 
3 782 821 811 
3 783 782 811 
3 800 809 820 
3 780 800 820 
3 799 809 800 
3 808 819 798 
3 809 798 819 
3 779 808 798 
3 799 798 809 
3 807 818 808 
3 807 817 818 
3 763 807 808 
3 778 816 807 
3 794 814 815 
3 776 814 794 
3 741 776 794 
3 789 788 813 
3 785 812 803 
3 768 785 803 
3 750 784 785 
3 783 811 784 
3 765 799 800 
3 764 798 799 
3 779 763 808 
3 763 778 807 
3 778 763 675 
3 777 805 806 
3 707 806 797 
3 707 777 806 
3 761 796 805 
3 761 805 777 
3 762 761 777 
3 791 804 792 
3 793 792 804 
3 774 793 804 
3 775 774 804 
3 768 803 786 
3 769 768 786 
3 750 785 768 
3 747 802 710 
3 748 710 802 
3 735 780 801 
3 735 801 697 
3 766 780 735 
3 766 765 800 
3 766 800 780 
3 746 765 766 
3 765 764 799 
3 734 764 765 
3 764 734 708 
3 764 779 798 
3 779 764 733 
3 650 707 797 
3 650 797 778 
3 744 760 796 
3 744 796 761 
3 758 794 795 
3 795 759 758 
3 741 794 726 
3 758 726 794 
3 773 792 793 
3 773 793 774 
3 739 773 755 
3 773 774 755 
3 772 791 792 
3 772 792 773 
3 772 790 791 
3 771 789 790 
3 790 772 771 
3 738 771 754 
3 771 772 754 
3 770 789 771 
3 770 788 789 
3 753 770 771 
3 770 787 788 
3 769 786 787 
3 787 770 769 
3 752 769 770 
3 737 752 770 
3 751 768 769 
3 752 751 769 
3 721 784 750 
3 751 750 768 
3 736 783 784 
3 736 784 721 
3 782 783 736 
3 666 749 782 
3 666 782 736 
3 601 600 781 
3 601 781 767 
3 719 766 735 
3 746 766 719 
3 779 733 763 
3 650 778 651 
3 778 675 651 
3 707 762 777 
3 732 762 707 
3 756 775 776 
3 756 776 757 
3 741 757 776 
3 755 774 775 
3 755 775 756 
3 754 772 773 
3 754 773 739 
3 713 739 755 
3 738 753 771 
3 723 738 754 
3 737 753 738 
3 737 770 753 
3 722 752 737 
3 699 722 737 
3 722 751 752 
3 686 750 722 
3 750 751 722 
3 747 601 767 
3 695 746 719 
3 734 765 746 
3 764 708 733 
3 763 733 675 
3 661 675 733 
3 745 761 762 
3 745 762 732 
3 744 761 745 
3 731 744 745 
3 744 743 760 
3 730 743 744 
3 731 730 744 
3 758 759 742 
3 727 742 759 
3 727 759 728 
3 715 742 727 
3 758 742 726 
3 715 726 742 
3 725 741 726 
3 740 756 757 
3 740 757 741 
3 725 740 741 
3 740 755 756 
3 755 740 713 
3 724 739 713 
3 723 754 739 
3 724 723 739 
3 711 723 724 
3 711 699 737 
3 721 750 686 
3 720 748 749 
3 666 720 749 
3 665 720 666 
3 698 710 748 
3 698 748 720 
3 601 747 710 
3 695 734 746 
3 677 734 695 
3 708 734 677 
3 732 731 745 
3 685 731 732 
3 674 685 732 
3 706 730 731 
3 730 729 743 
3 718 729 730 
3 705 718 730 
3 716 715 727 
3 702 715 716 
3 714 726 715 
3 701 714 715 
3 700 725 726 
3 688 725 700 
3 725 713 740 
3 688 713 725 
3 679 713 688 
3 712 724 713 
3 712 711 724 
3 737 738 723 
3 711 737 723 
3 666 736 623 
3 721 623 736 
3 622 666 623 
3 654 623 721 
3 709 719 735 
3 709 735 696 
3 735 697 696 
3 733 662 661 
3 662 733 676 
3 676 733 708 
3 707 674 732 
3 685 706 731 
3 684 706 685 
3 705 730 706 
3 704 718 705 
3 717 728 729 
3 717 729 718 
3 716 727 728 
3 716 728 717 
3 703 716 717 
3 692 703 717 
3 700 726 714 
3 678 711 712 
3 686 722 699 
3 687 686 699 
3 654 721 686 
3 665 698 720 
3 695 719 709 
3 704 717 718 
3 717 704 692 
3 691 703 692 
3 702 716 703 
3 702 701 715 
3 689 701 702 
3 690 689 702 
3 701 700 714 
3 689 700 701 
3 678 712 713 
3 678 713 679 
3 687 711 655 
3 678 655 711 
3 687 699 711 
3 492 601 710 
3 492 710 698 
3 663 695 709 
3 663 709 696 
3 677 695 663 
3 708 677 676 
3 621 676 677 
3 610 707 650 
3 649 707 610 
3 649 674 707 
3 589 610 650 
3 694 705 706 
3 694 706 684 
3 672 694 684 
3 693 704 705 
3 693 705 694 
3 692 704 693 
3 690 702 703 
3 690 703 691 
3 682 691 692 
3 670 682 692 
3 681 689 690 
3 657 688 700 
3 657 700 689 
3 667 686 687 
3 654 686 667 
3 546 698 665 
3 546 492 698 
3 696 697 664 
3 663 696 664 
3 683 693 694 
3 683 694 672 
3 671 683 672 
3 683 692 693 
3 692 683 670 
3 671 670 683 
3 681 690 691 
3 681 691 682 
3 681 657 689 
3 628 657 681 
3 679 688 680 
3 669 680 688 
3 669 688 657 
3 644 669 657 
3 655 667 687 
3 673 684 685 
3 673 685 674 
3 659 673 674 
3 684 673 672 
3 646 672 673 
3 632 672 646 
3 629 670 658 
3 670 671 658 
3 670 681 682 
3 681 670 628 
3 629 628 670 
3 627 657 628 
3 668 679 680 
3 668 680 669 
3 678 679 668 
3 625 678 668 
3 655 678 656 
3 625 656 678 
3 602 643 625 
3 643 656 625 
3 570 621 677 
3 571 677 663 
3 571 570 677 
3 652 676 653 
3 620 653 676 
3 620 676 621 
3 652 662 676 
3 619 653 620 
3 651 675 637 
3 675 638 637 
3 638 675 661 
3 614 637 638 
3 612 651 637 
3 659 674 660 
3 648 660 674 
3 649 648 674 
3 647 660 648 
3 646 673 659 
3 658 671 672 
3 632 658 672 
3 645 658 632 
3 645 629 658 
3 630 629 645 
3 626 668 669 
3 626 669 644 
3 625 668 626 
3 654 667 573 
3 624 573 667 
3 642 667 655 
3 624 667 642 
3 622 665 666 
3 546 665 622 
3 599 663 664 
3 571 663 599 
3 640 661 662 
3 641 662 652 
3 641 640 662 
3 639 661 640 
3 638 661 639 
3 647 659 660 
3 634 646 659 
3 633 646 634 
3 634 659 647 
3 631 645 632 
3 606 631 632 
3 627 644 657 
3 579 627 628 
3 578 627 579 
3 642 655 656 
3 642 656 643 
3 574 643 602 
3 624 642 643 
3 623 654 548 
3 573 548 654 
3 617 652 653 
3 618 653 619 
3 617 653 618 
3 616 641 617 
3 641 652 617 
3 636 650 651 
3 612 636 651 
3 533 650 611 
3 636 611 650 
3 612 611 636 
3 590 611 612 
3 532 589 650 
3 533 532 650 
3 534 533 611 
3 635 648 649 
3 608 649 609 
3 649 610 609 
3 635 649 608 
3 607 635 608 
3 635 647 648 
3 647 635 634 
3 586 634 607 
3 634 635 607 
3 632 646 633 
3 585 632 633 
3 631 630 645 
3 605 631 606 
3 627 626 644 
3 577 626 627 
3 553 577 627 
3 574 624 643 
3 520 624 574 
3 616 640 641 
3 595 639 640 
3 595 640 616 
3 594 639 595 
3 615 638 639 
3 615 639 594 
3 593 615 594 
3 614 638 615 
3 566 614 593 
3 614 615 593 
3 612 637 613 
3 592 613 637 
3 592 637 614 
3 591 613 592 
3 586 607 608 
3 561 586 608 
3 560 633 634 
3 586 560 634 
3 585 633 560 
3 584 606 585 
3 606 632 585 
3 605 630 631 
3 604 629 630 
3 582 604 630 
3 630 605 582 
3 604 628 629 
3 628 604 581 
3 579 628 580 
3 628 581 580 
3 525 581 604 
3 553 627 578 
3 552 577 553 
3 625 626 603 
3 577 603 626 
3 576 602 625 
3 576 625 603 
3 575 602 576 
3 494 573 624 
3 494 624 520 
3 547 623 518 
3 470 518 623 
3 519 623 548 
3 493 470 623 
3 519 493 623 
3 622 623 547 
3 469 518 470 
3 546 622 547 
3 598 620 621 
3 570 598 621 
3 597 619 620 
3 620 598 597 
3 542 597 598 
3 597 618 619 
3 596 617 618 
3 618 597 596 
3 569 596 597 
3 541 569 597 
3 596 616 617 
3 568 595 616 
3 616 596 568 
3 566 592 614 
3 567 566 593 
3 591 612 613 
3 564 590 612 
3 563 590 564 
3 612 591 564 
3 535 534 611 
3 535 611 590 
3 563 535 590 
3 587 609 610 
3 588 610 589 
3 587 610 588 
3 562 587 588 
3 530 562 588 
3 587 608 609 
3 608 587 561 
3 529 586 561 
3 583 605 606 
3 583 606 584 
3 559 558 585 
3 527 558 559 
3 558 584 585 
3 582 605 583 
3 525 604 582 
3 557 581 525 
3 576 603 577 
3 551 576 577 
3 552 551 577 
3 575 574 602 
3 550 549 575 
3 521 549 550 
3 549 574 575 
3 600 601 516 
3 517 516 601 
3 491 517 601 
3 492 491 601 
3 600 266 149 
3 266 600 516 
3 544 571 599 
3 544 599 572 
3 543 571 544 
3 545 544 572 
3 570 542 598 
3 514 542 570 
3 541 597 542 
3 486 541 542 
3 568 596 569 
3 540 594 595 
3 540 595 568 
3 485 540 568 
3 541 485 568 
3 567 593 594 
3 567 594 540 
3 539 566 567 
3 565 591 592 
3 565 592 566 
3 539 538 566 
3 512 538 539 
3 538 565 566 
3 564 591 565 
3 530 588 589 
3 531 589 532 
3 530 589 531 
3 507 530 531 
3 505 562 530 
3 561 587 562 
3 529 560 586 
3 503 560 529 
3 504 529 561 
3 528 560 503 
3 585 560 559 
3 558 583 584 
3 526 582 583 
3 526 583 558 
3 525 582 526 
3 475 525 526 
3 556 580 581 
3 556 581 557 
3 555 579 580 
3 580 556 555 
3 554 579 555 
3 554 578 579 
3 578 554 553 
3 523 498 554 
3 452 498 523 
3 498 553 554 
3 498 552 553 
3 497 552 498 
3 497 551 552 
3 550 575 576 
3 550 576 551 
3 520 574 549 
3 471 548 573 
3 417 471 573 
3 573 494 417 
3 432 471 417 
3 515 544 545 
3 490 515 545 
3 488 570 571 
3 489 571 543 
3 488 571 489 
3 466 489 543 
3 514 570 488 
3 513 542 514 
3 541 568 569 
3 463 485 541 
3 540 539 567 
3 484 539 540 
3 461 512 484 
3 512 539 484 
3 511 538 512 
3 537 564 565 
3 537 565 538 
3 536 563 564 
3 536 564 537 
3 535 563 536 
3 505 561 562 
3 505 504 561 
3 439 504 505 
3 456 439 505 
3 559 560 528 
3 454 528 503 
3 502 527 559 
3 501 527 502 
3 502 559 528 
3 527 526 558 
3 501 526 527 
3 524 556 557 
3 524 557 525 
3 500 499 525 
3 474 499 500 
3 499 524 525 
3 523 555 556 
3 523 556 524 
3 523 554 555 
3 473 498 452 
3 473 497 498 
3 496 522 497 
3 522 551 497 
3 522 550 551 
3 521 550 522 
3 521 520 549 
3 472 520 495 
3 520 521 495 
3 471 519 548 
3 450 519 471 
3 429 546 547 
3 429 547 518 
3 546 429 345 
3 396 546 368 
3 546 345 368 
3 396 492 546 
3 428 490 545 
3 468 490 428 
3 515 543 544 
3 466 543 515 
3 486 542 513 
3 486 463 541 
3 484 540 485 
3 462 461 484 
3 511 537 538 
3 483 536 537 
3 483 537 511 
3 441 483 511 
3 510 536 483 
3 510 535 536 
3 509 534 535 
3 509 535 510 
3 482 509 510 
3 483 482 510 
3 509 533 534 
3 479 532 533 
3 533 480 479 
3 480 533 481 
3 478 532 479 
3 481 533 509 
3 508 531 532 
3 478 508 532 
3 531 508 507 
3 506 530 507 
3 477 507 508 
3 457 477 508 
3 505 530 506 
3 503 529 504 
3 454 502 528 
3 436 502 454 
3 475 526 501 
3 500 525 475 
3 436 475 501 
3 357 475 436 
3 499 523 524 
3 452 523 499 
3 453 452 499 
3 495 521 522 
3 495 522 496 
3 451 496 497 
3 433 451 497 
3 472 494 520 
3 418 494 472 
3 398 494 418 
3 450 493 519 
3 493 450 431 
3 429 518 469 
3 449 516 517 
3 449 517 491 
3 266 516 449 
3 467 466 515 
3 467 515 490 
3 465 489 466 
3 487 513 514 
3 445 514 488 
3 445 487 514 
3 426 487 445 
3 486 513 487 
3 461 511 512 
3 442 461 462 
3 441 511 461 
3 460 482 483 
3 481 509 482 
3 478 457 508 
3 476 506 507 
3 476 507 477 
3 476 505 506 
3 505 476 456 
3 455 503 504 
3 455 504 439 
3 454 503 455 
3 436 501 502 
3 379 357 436 
3 475 474 500 
3 403 474 475 
3 474 453 499 
3 497 473 434 
3 435 473 452 
3 402 435 452 
3 497 434 433 
3 435 434 473 
3 472 495 496 
3 472 496 451 
3 398 417 494 
3 430 470 493 
3 493 431 430 
3 449 491 492 
3 449 492 396 
3 322 449 396 
3 467 490 468 
3 464 488 489 
3 464 489 465 
3 446 464 465 
3 412 465 447 
3 465 466 447 
3 445 488 464 
3 427 445 464 
3 425 486 487 
3 425 487 426 
3 463 486 425 
3 444 463 425 
3 462 484 485 
3 443 485 463 
3 462 485 443 
3 408 462 443 
3 408 442 462 
3 441 460 483 
3 390 460 441 
3 389 460 390 
3 388 460 389 
3 459 481 482 
3 459 482 460 
3 459 480 481 
3 458 479 480 
3 440 458 480 
3 480 459 440 
3 458 478 479 
3 458 457 478 
3 385 457 458 
3 386 385 458 
3 440 386 458 
3 456 476 477 
3 456 477 457 
3 407 456 457 
3 406 456 407 
3 403 475 357 
3 453 474 403 
3 401 435 402 
3 418 472 451 
3 374 398 418 
3 432 450 471 
3 416 450 432 
3 430 469 470 
3 429 469 430 
3 370 429 430 
3 448 467 468 
3 448 468 428 
3 414 448 428 
3 447 466 467 
3 447 467 448 
3 412 446 465 
3 413 412 447 
3 427 464 446 
3 412 427 446 
3 443 463 444 
3 410 444 425 
3 409 408 443 
3 366 442 408 
3 441 461 442 
3 391 441 442 
3 440 459 460 
3 440 460 388 
3 440 388 387 
3 407 457 385 
3 406 439 456 
3 424 439 406 
3 382 424 406 
3 437 454 455 
3 437 455 438 
3 455 439 438 
3 424 423 439 
3 405 423 424 
3 423 438 439 
3 454 437 436 
3 402 452 453 
3 402 453 403 
3 378 402 403 
3 418 451 419 
3 433 419 451 
3 400 419 433 
3 416 431 450 
3 371 431 416 
3 322 266 449 
3 207 266 322 
3 413 447 448 
3 413 448 414 
3 394 427 412 
3 394 426 445 
3 394 445 427 
3 409 443 444 
3 409 444 410 
3 392 409 410 
3 366 391 442 
3 339 391 366 
3 390 441 391 
3 440 387 386 
3 381 424 382 
3 422 437 438 
3 422 438 423 
3 422 436 437 
3 436 422 379 
3 404 379 422 
3 420 434 435 
3 420 435 421 
3 401 421 435 
3 420 433 434 
3 433 420 400 
3 399 419 400 
3 397 416 432 
3 397 432 417 
3 346 416 397 
3 311 416 346 
3 371 430 431 
3 286 370 430 
3 286 430 371 
3 287 286 371 
3 345 429 369 
3 429 370 369 
3 414 428 415 
3 304 394 412 
3 341 304 412 
3 393 425 426 
3 393 426 394 
3 411 425 393 
3 410 425 411 
3 381 405 424 
3 334 381 382 
3 404 422 423 
3 404 423 405 
3 380 404 405 
3 381 380 405 
3 380 379 404 
3 359 379 380 
3 376 420 421 
3 376 421 401 
3 352 400 376 
3 400 420 376 
3 399 418 419 
3 350 399 351 
3 399 400 351 
3 418 375 374 
3 375 418 399 
3 372 397 417 
3 417 398 372 
3 346 397 372 
3 311 371 416 
3 367 415 343 
3 265 343 415 
3 367 414 415 
3 395 414 367 
3 395 413 414 
3 342 395 367 
3 395 412 413 
3 341 412 395 
3 392 410 411 
3 392 411 393 
3 340 392 393 
3 264 340 393 
3 340 409 392 
3 340 408 409 
3 366 408 340 
3 303 366 340 
3 383 406 407 
3 383 407 384 
3 361 384 407 
3 407 385 361 
3 362 361 385 
3 406 383 382 
3 332 380 381 
3 378 403 356 
3 315 356 403 
3 403 357 315 
3 355 378 356 
3 401 402 377 
3 354 377 402 
3 354 402 378 
3 376 401 377 
3 353 377 354 
3 351 400 352 
3 290 352 376 
3 350 375 399 
3 349 375 350 
3 373 372 398 
3 398 374 373 
3 348 373 374 
3 328 348 374 
3 348 347 373 
3 327 347 348 
3 347 372 373 
3 347 346 372 
3 326 346 347 
3 326 311 346 
3 344 322 396 
3 344 396 368 
3 342 341 395 
3 343 342 367 
3 304 393 394 
3 264 393 304 
3 390 391 365 
3 301 365 391 
3 301 391 339 
3 338 365 301 
3 364 389 390 
3 338 390 365 
3 338 364 390 
3 364 388 389 
3 363 387 388 
3 337 363 388 
3 388 364 337 
3 363 386 387 
3 336 386 363 
3 336 385 386 
3 317 385 336 
3 298 317 336 
3 317 362 385 
3 335 383 384 
3 335 384 361 
3 316 335 361 
3 360 383 335 
3 360 382 383 
3 334 382 360 
3 333 332 381 
3 334 333 381 
3 331 359 332 
3 359 380 332 
3 357 379 358 
3 379 359 358 
3 331 358 359 
3 354 378 355 
3 353 376 377 
3 290 376 353 
3 313 290 353 
3 272 352 290 
3 349 374 375 
3 328 374 349 
3 312 348 328 
3 327 326 347 
3 287 371 310 
3 371 311 310 
3 285 369 370 
3 285 370 286 
3 369 285 309 
3 369 309 345 
3 267 309 285 
3 324 344 368 
3 325 368 345 
3 368 325 324 
3 323 344 324 
3 321 342 343 
3 282 321 343 
3 320 339 366 
3 303 320 366 
3 319 339 320 
3 300 338 301 
3 318 337 364 
3 318 364 338 
3 337 336 363 
3 299 336 337 
3 279 299 337 
3 316 361 362 
3 316 362 317 
3 297 316 317 
3 335 334 360 
3 275 334 335 
3 295 331 332 
3 294 357 358 
3 294 358 331 
3 273 294 331 
3 315 357 294 
3 355 356 330 
3 314 330 356 
3 254 356 315 
3 253 314 356 
3 254 253 356 
3 293 254 315 
3 330 354 355 
3 313 353 354 
3 313 354 330 
3 314 313 330 
3 292 313 314 
3 329 351 352 
3 251 329 352 
3 251 352 272 
3 329 350 351 
3 329 349 350 
3 349 329 328 
3 251 328 329 
3 312 327 348 
3 250 326 312 
3 326 327 312 
3 289 311 326 
3 307 325 345 
3 307 345 308 
3 345 309 308 
3 323 322 344 
3 306 323 324 
3 200 322 323 
3 265 282 343 
3 321 341 342 
3 304 341 305 
3 341 321 305 
3 282 305 321 
3 264 303 340 
3 301 339 319 
3 302 301 319 
3 300 318 338 
3 280 300 301 
3 279 337 318 
3 262 279 318 
3 298 336 299 
3 316 275 335 
3 276 275 316 
3 259 275 276 
3 296 333 334 
3 258 334 275 
3 258 296 334 
3 332 333 296 
3 296 295 332 
3 273 331 295 
3 274 273 295 
3 291 313 292 
3 312 328 251 
3 159 312 251 
3 250 289 326 
3 306 324 325 
3 325 307 306 
3 283 306 307 
3 200 323 306 
3 207 322 200 
3 236 305 282 
3 302 319 320 
3 281 320 303 
3 281 302 320 
3 246 281 303 
3 247 246 303 
3 281 301 302 
3 262 318 300 
3 280 262 300 
3 298 297 317 
3 277 297 298 
3 276 316 297 
3 315 294 293 
3 242 293 294 
3 255 254 293 
3 253 292 314 
3 240 292 253 
3 290 313 291 
3 250 312 159 
3 170 159 251 
3 288 310 311 
3 288 311 289 
3 250 288 289 
3 271 287 310 
3 271 310 288 
3 270 287 271 
3 283 309 284 
3 267 284 309 
3 283 308 309 
3 249 284 267 
3 200 283 249 
3 283 284 249 
3 283 307 308 
3 306 283 200 
3 236 304 305 
3 175 304 236 
3 235 264 304 
3 175 235 304 
3 247 303 264 
3 263 280 301 
3 232 301 281 
3 263 301 231 
3 301 232 231 
3 230 263 231 
3 261 279 262 
3 278 298 299 
3 279 278 299 
3 261 278 279 
3 229 277 298 
3 229 298 278 
3 260 277 229 
3 276 297 277 
3 244 295 296 
3 245 296 258 
3 244 296 245 
3 274 295 244 
3 243 274 244 
3 256 294 273 
3 242 294 256 
3 255 293 242 
3 240 291 292 
3 225 240 253 
3 239 272 240 
3 272 291 240 
3 272 290 291 
3 224 239 240 
3 271 288 250 
3 270 286 287 
3 269 286 270 
3 238 270 271 
3 268 286 269 
3 285 286 268 
3 238 269 270 
3 249 268 238 
3 268 269 238 
3 268 267 285 
3 249 267 268 
3 248 282 265 
3 248 236 282 
3 237 236 248 
3 246 232 281 
3 262 280 263 
3 218 261 262 
3 261 229 278 
3 218 229 261 
3 276 277 260 
3 205 260 229 
3 276 260 259 
3 259 258 275 
3 217 258 259 
3 216 258 217 
3 257 273 274 
3 257 274 243 
3 273 257 256 
3 252 251 272 
3 239 252 272 
3 250 238 271 
3 158 238 250 
3 158 249 238 
3 115 249 158 
3 149 266 128 
3 207 128 266 
3 247 264 235 
3 222 235 175 
3 206 222 175 
3 234 247 235 
3 230 262 263 
3 218 262 230 
3 185 229 218 
3 217 259 260 
3 217 260 205 
3 216 245 258 
3 215 245 216 
3 228 245 215 
3 243 256 257 
3 212 242 256 
3 256 243 212 
3 213 212 243 
3 211 242 212 
3 210 254 255 
3 210 255 242 
3 211 210 242 
3 209 241 210 
3 241 254 210 
3 241 253 254 
3 226 253 241 
3 226 225 253 
3 223 251 252 
3 223 252 239 
3 170 251 223 
3 158 250 159 
3 115 200 249 
3 176 236 237 
3 233 246 247 
3 233 247 234 
3 221 233 234 
3 206 234 222 
3 234 235 222 
3 232 246 233 
3 187 232 221 
3 232 233 221 
3 227 244 245 
3 227 245 228 
3 214 228 215 
3 227 243 244 
3 243 227 213 
3 193 212 213 
3 202 210 211 
3 209 226 241 
3 208 224 240 
3 208 240 225 
3 223 239 224 
3 189 208 225 
3 177 223 224 
3 208 177 224 
3 188 177 208 
3 175 236 156 
3 236 176 156 
3 199 206 175 
3 206 221 234 
3 199 221 206 
3 220 231 232 
3 187 220 232 
3 155 187 221 
3 219 230 231 
3 219 231 220 
3 218 230 219 
3 197 218 219 
3 198 197 219 
3 205 229 196 
3 185 196 229 
3 214 227 228 
3 227 214 213 
3 194 213 214 
3 189 225 226 
3 189 226 209 
3 201 189 209 
3 188 208 189 
3 170 223 177 
3 199 155 221 
3 187 219 220 
3 198 219 187 
3 197 185 218 
3 204 216 217 
3 183 217 205 
3 204 217 182 
3 183 182 217 
3 195 183 205 
3 181 204 182 
3 204 215 216 
3 194 214 215 
3 194 215 204 
3 181 194 204 
3 193 213 194 
3 171 193 194 
3 203 212 193 
3 203 211 212 
3 192 202 211 
3 191 202 192 
3 211 203 192 
3 201 209 210 
3 190 210 202 
3 201 210 190 
3 179 201 190 
3 178 189 201 
3 128 207 169 
3 207 200 169 
3 129 128 169 
3 146 199 147 
3 175 147 199 
3 205 196 195 
3 184 195 196 
3 172 194 181 
3 193 192 203 
3 180 192 193 
3 171 180 193 
3 190 202 191 
3 179 178 201 
3 114 169 200 
3 200 115 114 
3 106 114 115 
3 129 169 114 
3 155 199 146 
3 186 197 198 
3 174 198 187 
3 174 186 198 
3 164 174 187 
3 165 164 187 
3 185 197 186 
3 174 185 186 
3 168 185 174 
3 167 185 168 
3 167 184 196 
3 167 196 185 
3 161 184 167 
3 184 183 195 
3 161 183 184 
3 172 171 194 
3 160 171 172 
3 136 160 172 
3 160 180 171 
3 180 191 192 
3 180 190 191 
3 190 180 179 
3 135 179 180 
3 134 179 135 
3 177 188 189 
3 177 189 178 
3 134 177 178 
3 154 165 187 
3 155 154 187 
3 168 174 164 
3 151 167 168 
3 162 161 167 
3 173 183 161 
3 182 183 173 
3 150 173 161 
3 172 182 173 
3 172 181 182 
3 136 172 173 
3 137 136 173 
3 160 135 180 
3 134 178 179 
3 134 170 177 
3 133 170 134 
3 126 176 157 
3 126 156 176 
3 147 175 166 
3 156 166 175 
3 148 147 166 
3 163 168 164 
3 137 173 150 
3 132 170 133 
3 159 170 132 
3 89 128 129 
3 163 151 168 
3 152 151 163 
3 141 151 152 
3 151 162 167 
3 139 161 162 
3 140 162 151 
3 140 139 162 
3 110 139 140 
3 112 148 166 
3 112 166 156 
3 125 147 148 
3 153 164 165 
3 144 165 154 
3 153 165 143 
3 144 143 165 
3 152 164 153 
3 152 163 164 
3 103 110 140 
3 139 150 161 
3 138 150 139 
3 116 135 160 
3 136 116 160 
3 109 116 136 
3 130 159 131 
3 132 131 159 
3 130 158 159 
3 94 130 131 
3 107 94 131 
3 115 158 130 
3 93 115 130 
3 105 126 157 
3 112 156 113 
3 156 126 113 
3 120 154 155 
3 122 155 145 
3 155 146 145 
3 120 155 121 
3 122 121 155 
3 119 154 120 
3 144 154 119 
3 142 152 153 
3 142 153 143 
3 111 142 118 
3 142 143 118 
3 141 152 142 
3 117 140 151 
3 117 151 141 
3 137 150 138 
3 149 128 127 
3 88 127 128 
3 87 127 88 
3 112 125 148 
3 124 147 125 
3 83 125 112 
3 146 147 124 
3 104 146 124 
3 82 124 125 
3 123 145 146 
3 104 123 146 
3 82 104 124 
3 122 145 123 
3 104 122 123 
3 118 143 144 
3 118 144 119 
3 100 118 119 
3 111 141 142 
3 117 141 111 
3 103 117 111 
3 117 103 140 
3 110 138 139 
3 110 137 138 
3 99 137 110 
3 109 136 137 
3 109 137 99 
3 98 109 99 
3 97 134 135 
3 102 135 116 
3 102 97 135 
3 133 134 96 
3 97 96 134 
3 77 96 97 
3 78 77 97 
3 45 77 78 
3 132 133 108 
3 96 108 133 
3 86 108 96 
3 107 131 132 
3 107 132 108 
3 95 107 108 
3 95 94 107 
3 94 93 130 
3 89 129 90 
3 91 90 129 
3 91 129 114 
3 70 90 91 
3 89 88 128 
3 105 113 126 
3 84 113 105 
3 85 84 105 
3 82 125 83 
3 121 122 100 
3 104 100 122 
3 120 121 100 
3 119 120 100 
3 111 118 100 
3 74 111 100 
3 80 103 111 
3 102 116 109 
3 98 102 109 
3 93 106 115 
3 92 114 106 
3 92 106 93 
3 92 91 114 
3 101 112 113 
3 84 101 113 
3 66 84 85 
3 83 112 101 
3 74 80 111 
3 103 99 110 
3 80 99 103 
3 64 99 80 
3 79 102 98 
3 95 108 86 
3 61 95 86 
3 73 94 95 
3 72 92 93 
3 100 104 81 
3 82 81 104 
3 51 64 80 
3 79 97 102 
3 78 97 79 
3 83 101 84 
3 81 74 100 
3 53 74 81 
3 63 98 99 
3 63 99 64 
3 63 79 98 
3 62 78 79 
3 86 96 77 
3 61 73 95 
3 93 94 73 
3 60 93 73 
3 72 93 60 
3 43 60 73 
3 71 91 92 
3 71 92 72 
3 42 71 72 
3 70 91 71 
3 89 90 69 
3 70 69 90 
3 88 89 59 
3 89 69 59 
3 40 88 59 
3 87 88 68 
3 40 68 88 
3 50 87 68 
3 50 0 87 
3 86 77 61 
3 44 61 77 
3 67 66 85 
3 83 84 65 
3 66 65 84 
3 49 65 66 
3 38 49 66 
3 57 83 65 
3 56 83 57 
3 82 83 56 
3 75 82 76 
3 56 76 82 
3 55 76 56 
3 75 81 82 
3 54 75 76 
3 55 54 76 
3 53 81 75 
3 74 51 80 
3 52 51 74 
3 79 63 62 
3 46 62 63 
3 62 45 78 
3 46 45 62 
3 4 45 46 
3 45 44 77 
3 37 54 55 
3 54 53 75 
3 36 53 54 
3 74 53 52 
3 27 51 52 
3 73 61 43 
3 60 42 72 
3 70 71 41 
3 42 41 71 
3 3 41 42 
3 25 70 41 
3 25 69 70 
3 34 59 69 
3 25 34 69 
3 40 50 68 
3 58 66 67 
3 38 66 58 
3 33 49 38 
3 39 38 58 
3 49 57 65 
3 48 57 49 
3 63 64 35 
3 26 35 64 
3 64 51 26 
3 46 63 35 
3 43 61 44 
3 4 43 44 
3 42 60 43 
3 40 59 24 
3 59 34 24 
3 47 57 48 
3 47 56 57 
3 31 47 48 
3 32 48 49 
3 55 56 47 
3 29 55 47 
3 37 55 29 
3 30 29 47 
3 36 54 37 
3 18 36 37 
3 28 52 53 
3 28 53 36 
3 15 28 36 
3 27 52 28 
3 27 26 51 
3 1 0 50 
3 1 50 40 
3 32 49 33 
3 31 48 32 
3 17 31 32 
3 30 47 31 
3 20 29 30 
3 35 4 46 
3 5 4 35 
3 4 44 45 
3 3 42 43 
3 3 43 4 
3 25 41 3 
3 14 25 3 
3 1 40 24 
3 22 38 39 
3 22 39 23 
3 22 33 38 
3 11 33 22 
3 18 37 19 
3 29 19 37 
3 20 19 29 
3 15 36 18 
3 9 15 18 
3 5 35 26 
3 14 24 34 
3 14 34 25 
3 24 14 2 
3 21 32 33 
3 11 21 33 
3 17 32 21 
3 16 30 31 
3 16 31 17 
3 10 16 17 
3 20 30 16 
3 13 19 20 
3 6 27 28 
3 7 28 15 
3 6 28 7 
3 5 27 6 
3 26 27 5 
3 2 14 3 
3 24 2 1 
3 12 22 23 
3 11 22 12 
3 11 17 21 
3 10 17 11 
3 16 13 20 
3 10 13 16 
3 13 18 19 
3 9 18 13 
3 8 15 9 
3 9 13 10 
3 7 15 8 
