OFF
884 1712 0
0 0 162 
0 8 156 
0 19 172 
0 25 87 
0 71 104 
0 92 45 
0 98 55 
0 100 128 
0 103 129 
0 105 37 
0 116 36 
0 120 84 
0 127 46 
2 19 152 
2 102 153 
2 114 39 
3 106 167 
3 119 102 
3 125 67 
3 127 55 
4 12 172 
4 19 81 
4 91 52 
4 97 39 
4 100 61 
4 110 176 
4 114 164 
4 119 167 
4 121 168 
5 86 69 
5 105 144 
5 108 156 
5 125 195 
5 127 197 
6 25 93 
6 35 107 
6 43 108 
6 63 87 
6 70 69 
6 80 43 
6 114 134 
6 118 161 
6 120 174 
7 100 65 
7 104 54 
7 107 38 
7 111 34 
7 114 58 
7 118 75 
7 127 185 
8 13 146 
8 40 153 
8 59 147 
8 79 130 
8 89 152 
8 120 98 
8 125 103 
8 127 100 
9 18 165 
9 23 162 
9 29 162 
9 37 167 
9 46 168 
9 100 151 
9 110 159 
10 64 175 
10 74 176 
10 80 172 
10 97 174 
10 106 175 
10 110 177 
10 117 167 
10 121 167 
10 127 162 
12 60 179 
13 0 168 
13 12 161 
13 20 163 
13 30 159 
13 36 171 
13 41 171 
13 46 173 
13 54 175 
13 64 176 
13 74 183 
13 89 183 
13 104 182 
14 80 175 
14 96 173 
14 127 180 
15 59 142 
15 90 180 
15 99 181 
15 119 157 
15 122 165 
16 30 78 
16 39 84 
16 80 113 
16 97 92 
16 101 111 
16 103 219 
16 104 166 
16 105 214 
16 106 106 
16 108 158 
16 114 162 
16 125 49 
17 0 87 
17 9 85 
17 21 74 
17 45 69 
17 54 69 
17 56 67 
17 63 79 
17 71 85 
17 76 68 
17 84 78 
17 90 62 
17 96 53 
17 98 153 
17 99 56 
17 107 177 
17 109 48 
17 115 59 
18 0 103 
18 97 159 
18 99 55 
18 100 183 
18 103 36 
18 106 40 
18 120 45 
18 127 38 
19 45 97 
19 54 92 
19 90 141 
19 95 121 
19 99 164 
19 100 45 
20 95 53 
20 99 36 
21 21 103 
21 80 119 
21 85 119 
22 68 100 
22 77 135 
22 89 68 
22 91 53 
22 102 38 
23 69 37 
23 71 144 
23 77 42 
23 79 70 
23 83 50 
23 90 149 
23 92 66 
23 110 55 
24 29 101 
24 78 117 
24 90 51 
25 69 127 
25 73 60 
25 75 94 
25 81 119 
25 98 59 
25 101 35 
25 102 126 
25 107 39 
26 66 85 
26 68 57 
26 71 71 
26 72 147 
26 82 43 
26 83 142 
26 93 42 
26 101 138 
26 102 75 
26 104 79 
26 106 116 
26 108 138 
26 110 86 
26 127 68 
27 66 198 
27 69 153 
27 81 58 
27 82 116 
27 83 44 
27 106 43 
27 108 37 
28 38 105 
28 50 108 
28 64 112 
28 65 200 
28 72 56 
28 86 59 
28 90 96 
28 97 44 
28 110 49 
29 12 121 
29 38 91 
29 40 87 
29 44 79 
29 66 137 
29 87 126 
29 90 169 
29 95 122 
29 97 133 
29 100 32 
30 33 100 
30 39 216 
30 45 219 
30 48 77 
30 50 95 
30 68 207 
30 69 41 
30 76 62 
30 83 112 
30 93 101 
30 95 49 
30 100 131 
30 103 46 
30 120 59 
31 30 107 
31 32 213 
31 33 218 
31 49 219 
31 68 75 
31 76 140 
31 90 74 
32 27 114 
32 29 217 
32 31 195 
32 52 92 
32 56 100 
32 62 173 
32 85 58 
32 98 42 
32 110 43 
32 126 146 
33 27 170 
33 33 103 
33 52 205 
33 55 223 
33 63 49 
33 64 182 
33 71 106 
33 77 56 
33 79 132 
33 97 139 
33 126 41 
34 27 98 
34 55 214 
34 57 223 
34 59 128 
34 61 62 
34 80 49 
34 84 153 
34 87 60 
34 95 134 
34 97 66 
34 98 109 
34 114 48 
34 117 32 
35 52 198 
35 57 109 
35 64 102 
35 72 36 
35 88 55 
35 89 115 
35 108 104 
35 113 97 
36 52 103 
36 61 134 
36 65 35 
36 82 38 
36 85 157 
36 113 49 
36 116 133 
37 43 103 
37 64 59 
37 81 45 
37 82 167 
37 85 55 
37 96 163 
37 104 86 
37 111 64 
38 18 125 
38 82 53 
38 88 131 
38 91 117 
38 95 86 
38 97 70 
38 98 131 
38 108 51 
38 111 143 
38 122 85 
39 61 113 
39 75 45 
39 89 121 
39 90 214 
39 93 218 
39 95 55 
39 97 148 
39 98 58 
39 100 111 
39 108 153 
39 114 110 
39 115 35 
39 119 134 
39 122 139 
40 20 105 
40 58 130 
40 67 127 
40 79 79 
40 80 40 
40 83 47 
40 84 51 
40 88 211 
40 90 94 
40 92 186 
40 98 171 
40 103 147 
40 115 150 
40 116 58 
41 14 126 
41 59 45 
41 72 92 
41 74 38 
41 81 164 
41 84 171 
41 91 215 
41 92 53 
41 97 47 
41 102 55 
41 103 53 
41 105 159 
41 108 157 
41 112 126 
41 115 53 
41 127 74 
42 33 122 
42 68 54 
42 70 135 
42 71 59 
42 72 171 
42 81 45 
42 86 196 
42 87 95 
42 105 43 
42 111 38 
42 117 46 
42 123 55 
43 63 41 
43 76 130 
43 78 162 
43 84 175 
43 104 176 
43 108 47 
43 110 184 
43 116 101 
44 0 136 
44 75 147 
44 77 40 
44 84 83 
44 86 106 
44 87 188 
44 88 50 
44 100 53 
44 105 79 
44 107 186 
44 112 37 
44 113 51 
44 114 169 
44 116 38 
45 63 37 
45 68 44 
45 75 36 
45 76 151 
45 77 135 
45 79 38 
45 81 47 
45 82 109 
45 104 36 
45 107 46 
45 109 172 
45 110 39 
45 111 140 
46 67 120 
46 81 169 
46 83 124 
46 84 195 
46 85 57 
46 112 63 
47 50 138 
47 59 96 
47 68 39 
47 77 29 
47 110 62 
47 111 115 
47 123 36 
48 32 110 
48 33 154 
48 54 51 
48 64 94 
48 65 32 
48 77 157 
48 81 190 
48 120 45 
49 60 37 
49 73 37 
49 80 189 
49 81 52 
50 50 78 
50 66 44 
50 73 147 
50 121 102 
50 125 118 
50 127 121 
51 27 145 
51 54 80 
51 69 34 
51 77 206 
51 88 53 
51 115 46 
51 122 38 
52 76 167 
52 77 33 
53 28 106 
53 47 125 
53 53 44 
53 66 33 
53 70 184 
53 74 209 
53 75 50 
53 111 47 
54 43 148 
54 66 155 
54 72 195 
55 17 143 
55 28 180 
55 49 51 
55 52 108 
55 54 44 
55 63 49 
55 71 203 
55 72 76 
55 112 119 
55 117 119 
55 120 44 
56 13 184 
56 52 35 
56 54 127 
56 58 54 
56 63 149 
56 100 55 
56 121 122 
57 10 123 
57 42 168 
57 49 43 
57 58 154 
57 59 44 
57 60 43 
57 61 157 
57 62 91 
57 69 193 
57 70 80 
57 81 115 
57 92 71 
57 112 130 
57 115 108 
57 117 37 
58 24 182 
58 62 185 
58 89 114 
58 105 112 
58 115 51 
59 24 145 
59 44 77 
59 49 116 
59 57 29 
59 67 199 
59 68 106 
59 101 55 
59 105 38 
59 112 75 
59 116 127 
60 44 152 
60 56 30 
60 57 145 
60 66 195 
60 71 151 
60 97 68 
61 22 192 
61 23 143 
61 24 200 
61 49 43 
61 56 163 
61 66 80 
61 96 43 
61 104 111 
61 112 133 
62 54 53 
62 98 130 
63 13 193 
63 51 116 
63 63 198 
63 64 85 
63 95 109 
64 12 115 
64 48 57 
64 49 89 
64 51 34 
64 63 110 
64 65 49 
64 116 145 
65 45 57 
65 48 122 
65 50 125 
65 52 121 
65 88 147 
66 49 44 
66 54 167 
66 60 184 
66 68 100 
66 74 180 
67 14 111 
67 15 194 
67 61 82 
67 67 72 
68 15 112 
68 63 163 
68 65 63 
68 66 174 
68 68 201 
69 12 131 
69 43 165 
69 60 168 
69 71 170 
69 94 150 
69 101 144 
70 50 198 
70 62 67 
70 63 91 
70 115 135 
71 18 203 
71 46 45 
71 47 185 
71 65 54 
71 68 147 
71 88 114 
72 18 114 
72 44 50 
72 45 35 
72 46 193 
72 47 110 
72 65 136 
73 0 131 
73 44 164 
73 47 190 
73 62 176 
73 63 96 
73 81 129 
74 20 227 
74 56 165 
74 67 122 
75 20 83 
75 85 211 
76 23 219 
76 45 194 
76 58 194 
76 73 133 
76 81 89 
76 88 131 
76 98 178 
77 23 88 
77 80 133 
77 94 154 
78 72 220 
78 75 215 
78 97 64 
78 127 147 
79 66 212 
79 77 226 
79 81 197 
79 91 129 
79 92 45 
79 98 196 
80 0 104 
80 25 62 
80 66 80 
80 75 169 
80 89 136 
81 27 89 
81 28 198 
81 29 223 
81 64 169 
81 80 145 
81 89 45 
81 98 51 
81 113 182 
82 29 53 
82 66 44 
82 85 136 
82 122 160 
83 0 153 
83 18 112 
83 32 195 
83 51 187 
83 71 129 
83 82 134 
83 85 47 
83 100 208 
84 32 118 
84 39 185 
84 49 199 
84 58 214 
84 65 57 
84 66 163 
84 100 93 
85 17 148 
85 25 154 
85 50 46 
85 61 200 
85 64 56 
85 79 114 
86 35 150 
86 48 198 
86 49 46 
86 63 137 
86 69 84 
86 75 116 
86 80 41 
86 99 50 
86 101 45 
86 116 204 
87 50 95 
87 55 43 
87 62 62 
87 75 56 
87 87 81 
87 93 47 
88 36 209 
88 59 51 
88 92 91 
88 96 102 
88 99 118 
88 103 55 
88 105 220 
89 31 160 
89 58 42 
89 99 76 
89 105 49 
90 22 146 
90 34 156 
90 57 49 
90 60 53 
90 77 86 
90 109 216 
91 15 154 
91 53 151 
91 56 178 
91 59 161 
91 62 50 
91 66 42 
91 69 45 
91 73 50 
91 77 40 
91 108 36 
91 110 27 
91 112 203 
92 32 52 
92 62 170 
92 66 183 
92 68 168 
92 69 156 
92 73 156 
92 80 39 
92 106 35 
92 108 31 
92 110 32 
92 112 51 
92 115 189 
92 117 218 
93 23 40 
93 33 213 
93 51 194 
93 52 59 
93 56 49 
93 62 49 
93 67 78 
93 78 169 
93 86 42 
93 93 59 
93 97 64 
93 104 64 
93 106 137 
93 112 145 
93 117 77 
93 119 205 
93 123 215 
94 31 37 
94 44 204 
94 45 92 
94 76 141 
94 82 142 
94 84 163 
94 86 173 
94 97 148 
94 104 139 
94 115 77 
94 120 73 
94 123 208 
95 31 187 
95 50 191 
95 51 42 
95 75 40 
95 77 28 
95 84 86 
95 86 125 
95 93 166 
95 122 84 
95 127 213 
96 24 127 
96 69 49 
96 82 39 
96 120 109 
96 127 75 
97 23 146 
97 28 45 
97 39 207 
97 45 94 
97 82 143 
97 84 148 
97 102 146 
98 27 124 
98 47 211 
98 75 50 
98 78 139 
99 28 195 
99 37 189 
99 46 195 
99 47 36 
99 69 46 
99 75 136 
100 0 155 
100 42 126 
100 78 158 
101 43 221 
101 45 44 
101 65 44 
101 68 136 
101 115 140 
101 118 52 
102 2 202 
102 4 147 
102 41 219 
102 43 38 
102 61 52 
102 65 144 
102 98 111 
102 127 126 
103 29 218 
103 35 221 
103 38 216 
103 40 36 
103 61 126 
103 69 156 
104 0 220 
104 4 214 
104 27 155 
104 29 80 
104 30 211 
104 35 199 
104 37 38 
104 56 54 
104 119 35 
104 121 74 
105 9 148 
105 30 46 
105 36 48 
105 56 129 
105 64 160 
105 97 150 
105 116 161 
106 0 107 
106 3 201 
106 9 204 
106 26 45 
106 112 127 
106 118 195 
106 122 201 
106 124 104 
107 14 137 
107 108 123 
107 116 125 
108 8 222 
108 21 154 
108 23 42 
108 46 41 
108 55 146 
108 100 96 
108 106 127 
108 108 194 
108 112 208 
108 114 130 
109 12 221 
109 47 144 
109 120 199 
110 7 106 
110 18 160 
110 42 58 
110 90 144 
111 11 193 
111 17 218 
111 43 153 
111 99 108 
111 100 78 
111 112 216 
111 115 220 
112 11 98 
112 37 48 
112 47 164 
112 90 125 
112 94 115 
112 106 212 
112 120 52 
113 15 214 
113 17 37 
113 82 130 
113 97 208 
113 101 208 
113 112 196 
114 15 35 
114 37 136 
114 76 141 
114 92 212 
114 108 212 
114 114 117 
115 12 122 
115 29 59 
115 83 194 
115 123 111 
116 32 53 
116 34 150 
116 105 200 
116 109 100 
116 127 77 
117 12 46 
117 29 37 
117 118 78 
118 31 154 
118 36 158 
118 101 194 
118 124 61 
118 127 126 
119 102 57 
120 7 132 
120 21 45 
121 58 157 
121 70 136 
121 124 121 
122 7 41 
122 71 191 
122 96 206 
124 98 39 
125 0 118 
125 2 127 
125 22 140 
125 102 101 
125 127 56 
126 116 92 
127 0 171 
127 1 171 
127 2 49 
127 15 57 
127 18 29 
127 20 151 
127 67 141 
127 69 188 
127 88 212 
127 95 178 
127 96 48 
127 105 104 
127 125 50 
127 127 100 
3 310 401 324 
3 393 324 401 
3 373 324 393 
3 351 324 373 
3 277 392 270 
3 310 270 392 
3 392 401 310 
3 295 324 351 
3 611 624 605 
3 612 605 624 
3 331 366 319 
3 332 319 366 
3 303 319 332 
3 355 332 366 
3 302 319 303 
3 575 584 578 
3 584 597 578 
3 571 583 575 
3 583 584 575 
3 548 571 575 
3 537 548 575 
3 583 571 590 
3 572 537 575 
3 560 565 548 
3 565 571 548 
3 465 523 518 
3 523 560 518 
3 518 560 548 
3 366 381 355 
3 445 473 467 
3 473 483 467 
3 433 473 445 
3 483 482 499 
3 473 482 483 
3 498 499 482 
3 381 453 433 
3 453 473 433 
3 396 381 433 
3 382 381 396 
3 381 366 453 
3 142 152 145 
3 152 193 145 
3 172 193 152 
3 158 145 193 
3 185 193 172 
3 193 194 158 
3 193 202 194 
3 202 203 194 
3 417 470 426 
3 438 426 470 
3 470 475 438 
3 323 437 309 
3 417 309 437 
3 437 470 417 
3 25 16 31 
3 9 16 25 
3 15 9 25 
3 25 26 15 
3 10 9 15 
3 54 68 22 
3 23 22 68 
3 43 23 68 
3 63 43 68 
3 500 494 503 
3 477 494 500 
3 449 477 500 
3 510 517 503 
3 500 503 517 
3 517 520 500 
3 495 500 520 
3 520 521 495 
3 480 496 489 
3 496 522 489 
3 512 522 496 
3 522 523 489 
3 157 214 183 
3 214 246 183 
3 161 214 157 
3 245 246 226 
3 214 226 246 
3 215 183 246 
3 162 157 183 
3 184 183 215 
3 630 675 638 
3 675 690 638 
3 703 704 675 
3 690 675 704 
3 655 675 630 
3 703 689 723 
3 675 689 703 
3 715 736 723 
3 730 723 736 
3 689 715 723 
3 736 735 742 
3 715 735 736 
3 714 735 715 
3 188 207 198 
3 207 223 198 
3 208 198 223 
3 223 239 208 
3 239 277 208 
3 239 339 277 
3 339 400 277 
3 209 208 277 
3 199 208 209 
3 200 199 209 
3 278 295 351 
3 311 278 351 
3 138 163 139 
3 147 139 163 
3 163 164 147 
3 163 154 173 
3 138 154 163 
3 612 700 625 
3 700 701 625 
3 634 625 701 
3 684 634 701 
3 701 712 684 
3 640 700 612 
3 712 701 734 
3 729 734 701 
3 371 391 372 
3 391 422 372 
3 422 397 433 
3 391 397 422 
3 406 372 422 
3 369 391 370 
3 371 370 391 
3 134 142 145 
3 134 116 142 
3 117 116 134 
3 337 371 358 
3 371 372 358 
3 370 371 336 
3 337 336 371 
3 537 518 548 
3 395 408 404 
3 408 413 404 
3 375 408 395 
3 420 413 424 
3 404 413 420 
3 409 404 420 
3 395 404 409 
3 378 395 409 
3 405 378 409 
3 387 378 405 
3 420 425 409 
3 410 409 425 
3 425 465 410 
3 432 465 425 
3 421 410 465 
3 195 206 163 
3 174 163 206 
3 175 174 206 
3 206 219 175 
3 225 201 243 
3 212 201 225 
3 325 311 341 
3 265 311 325 
3 296 265 325 
3 325 326 296 
3 341 342 325 
3 374 351 386 
3 340 351 374 
3 402 403 373 
3 386 373 403 
3 351 373 386 
3 311 351 340 
3 272 278 311 
3 265 272 311 
3 244 272 265 
3 264 272 243 
3 225 243 272 
3 244 225 272 
3 213 225 244 
3 192 213 244 
3 342 343 325 
3 380 388 362 
3 388 389 362 
3 389 390 362 
3 363 362 390 
3 375 395 376 
3 377 376 395 
3 378 377 395 
3 326 352 296 
3 312 296 352 
3 352 353 312 
3 312 353 344 
3 353 378 344 
3 378 379 344 
3 327 312 344 
3 313 312 327 
3 334 347 335 
3 347 356 335 
3 367 368 347 
3 356 347 368 
3 21 20 50 
3 13 20 21 
3 50 58 21 
3 729 744 739 
3 744 746 739 
3 746 747 739 
3 264 253 271 
3 242 253 264 
3 278 271 295 
3 264 271 278 
3 824 817 836 
3 806 817 824 
3 836 848 824 
3 838 856 847 
3 856 866 847 
3 849 847 866 
3 516 519 517 
3 519 539 517 
3 520 517 539 
3 519 514 544 
3 515 514 519 
3 534 550 544 
3 550 551 544 
3 514 534 544 
3 544 545 519 
3 539 519 545 
3 363 364 345 
3 346 345 364 
3 364 365 346 
3 688 687 748 
3 671 687 688 
3 688 748 722 
3 741 722 748 
3 686 756 687 
3 748 687 756 
3 670 687 671 
3 476 485 477 
3 485 494 477 
3 508 485 514 
3 494 485 508 
3 457 476 477 
3 427 476 457 
3 456 476 434 
3 427 434 476 
3 439 427 457 
3 341 374 342 
3 374 375 342 
3 374 408 375 
3 394 408 374 
3 343 342 375 
3 360 343 375 
3 326 343 360 
3 325 343 326 
3 545 553 539 
3 553 557 539 
3 112 133 113 
3 133 190 113 
3 167 113 190 
3 143 113 167 
3 114 113 143 
3 283 259 303 
3 219 259 283 
3 291 303 259 
3 303 320 283 
3 235 259 218 
3 219 218 259 
3 268 219 283 
3 205 235 218 
3 546 554 547 
3 554 563 547 
3 531 546 547 
3 532 531 547 
3 530 546 531 
3 521 526 511 
3 526 529 511 
3 438 493 456 
3 493 534 456 
3 485 456 534 
3 514 485 534 
3 789 806 790 
3 806 824 790 
3 824 840 790 
3 840 845 790 
3 873 874 856 
3 866 856 874 
3 874 875 866 
3 799 815 800 
3 815 823 800 
3 815 829 823 
3 829 843 823 
3 422 446 414 
3 446 447 414 
3 423 414 447 
3 406 422 414 
3 445 446 422 
3 533 604 549 
3 564 549 604 
3 561 549 564 
3 555 586 533 
3 586 604 533 
3 618 603 657 
3 586 603 618 
3 604 586 618 
3 573 564 604 
3 538 598 542 
3 598 602 542 
3 602 598 633 
3 722 741 735 
3 741 742 735 
3 749 765 741 
3 742 741 765 
3 714 722 735 
3 714 674 722 
3 702 674 714 
3 673 722 674 
3 664 674 665 
3 674 702 665 
3 655 664 665 
3 637 664 655 
3 407 442 412 
3 429 412 442 
3 402 407 412 
3 403 402 412 
3 407 451 442 
3 451 460 442 
3 236 219 268 
3 186 219 236 
3 187 186 236 
3 196 187 236 
3 537 538 506 
3 501 506 538 
3 497 506 501 
3 651 682 647 
3 682 699 647 
3 669 647 699 
3 652 647 669 
3 563 580 576 
3 580 588 576 
3 600 607 588 
3 576 588 607 
3 569 563 576 
3 607 600 616 
3 616 628 607 
3 879 880 862 
3 863 862 880 
3 85 67 87 
3 54 67 85 
3 29 67 54 
3 97 116 87 
3 85 87 116 
3 53 67 39 
3 29 39 67 
3 458 450 478 
3 451 450 458 
3 441 450 451 
3 486 449 500 
3 450 449 486 
3 478 450 486 
3 850 849 866 
3 866 875 850 
3 857 850 875 
3 875 876 857 
3 350 398 338 
3 398 416 338 
3 415 416 398 
3 306 322 276 
3 307 276 322 
3 261 276 307 
3 294 261 307 
3 220 261 294 
3 248 220 294 
3 237 220 248 
3 180 220 237 
3 294 338 248 
3 308 338 294 
3 338 308 350 
3 44 69 45 
3 64 45 69 
3 69 70 64 
3 447 454 423 
3 415 423 454 
3 416 415 454 
3 454 579 416 
3 484 513 454 
3 513 579 454 
3 246 254 215 
3 254 255 215 
3 255 254 273 
3 234 215 255 
3 273 274 255 
3 280 281 273 
3 274 273 281 
3 280 286 281 
3 286 315 281 
3 314 315 286 
3 852 848 859 
3 840 848 852 
3 859 848 869 
3 727 737 711 
3 737 761 711 
3 761 760 770 
3 737 760 761 
3 738 711 761 
3 683 711 738 
3 728 683 738 
3 699 727 711 
3 626 634 620 
3 634 635 620 
3 150 161 157 
3 151 157 162 
3 214 192 226 
3 161 192 214 
3 226 192 244 
3 170 192 160 
3 161 160 192 
3 465 472 421 
3 444 465 432 
3 424 432 425 
3 71 93 72 
3 93 94 72 
3 369 357 385 
3 348 357 369 
3 384 385 357 
3 336 348 369 
3 369 370 336 
3 487 495 521 
3 504 487 521 
3 486 495 487 
3 471 487 504 
3 521 520 535 
3 535 520 562 
3 486 500 495 
3 622 621 627 
3 594 621 622 
3 627 621 636 
3 590 601 596 
3 601 609 596 
3 609 638 596 
3 565 601 571 
3 590 571 601 
3 601 582 608 
3 565 582 601 
3 570 582 565 
3 317 316 346 
3 297 316 317 
3 329 346 365 
3 329 317 346 
3 330 329 365 
3 365 421 330 
3 366 330 421 
3 331 330 366 
3 292 304 293 
3 304 335 293 
3 284 292 293 
3 335 348 293 
3 336 293 348 
3 784 783 807 
3 766 783 784 
3 359 455 323 
3 448 323 455 
3 437 323 448 
3 285 323 309 
3 661 662 636 
3 627 636 662 
3 622 627 662 
3 628 622 662 
3 615 622 616 
3 622 628 616 
3 662 663 628 
3 594 568 614 
3 558 568 594 
3 580 558 594 
3 559 558 580 
3 563 559 580 
3 554 559 563 
3 460 461 442 
3 461 462 442 
3 452 442 462 
3 418 451 407 
3 441 451 418 
3 435 429 442 
3 442 452 435 
3 452 479 435 
3 471 488 452 
3 479 452 488 
3 463 435 479 
3 614 621 594 
3 615 594 622 
3 603 743 657 
3 743 753 657 
3 390 410 421 
3 387 405 388 
3 405 410 388 
3 389 388 410 
3 390 389 410 
3 472 465 518 
3 645 646 632 
3 610 632 646 
3 598 610 646 
3 617 632 610 
3 290 289 301 
3 282 289 290 
3 301 300 331 
3 289 300 301 
3 277 434 392 
3 427 392 434 
3 400 434 277 
3 399 400 339 
3 668 680 633 
3 680 681 633 
3 424 413 431 
3 431 413 436 
3 431 432 424 
3 237 248 180 
3 180 248 338 
3 266 267 256 
3 227 256 267 
3 234 256 202 
3 227 202 256 
3 257 227 267 
3 216 227 257 
3 267 288 257 
3 288 289 257 
3 216 203 227 
3 194 203 216 
3 173 194 216 
3 217 216 257 
3 247 217 257 
3 235 217 247 
3 141 115 144 
3 97 115 141 
3 116 97 141 
3 141 142 116 
3 228 197 285 
3 140 197 228 
3 156 140 228 
3 228 285 238 
3 249 238 285 
3 285 309 249 
3 108 197 140 
3 309 339 249 
3 149 160 144 
3 160 161 144 
3 150 144 161 
3 114 149 115 
3 144 115 149 
3 143 149 114 
3 15 26 17 
3 26 27 17 
3 10 15 17 
3 40 41 26 
3 27 26 41 
3 11 10 17 
3 353 352 361 
3 573 587 566 
3 587 592 566 
3 591 592 587 
3 592 593 566 
3 534 566 593 
3 556 534 593 
3 593 605 556 
3 556 605 612 
3 567 556 612 
3 162 171 152 
3 171 172 152 
3 333 334 320 
3 283 320 334 
3 304 283 334 
3 292 283 304 
3 419 430 413 
3 430 436 413 
3 718 758 706 
3 732 706 758 
3 128 127 137 
3 99 127 128 
3 137 147 128 
3 100 99 128 
3 120 127 99 
3 759 790 845 
3 845 840 852 
3 656 650 666 
3 646 650 656 
3 666 650 676 
3 600 594 615 
3 588 594 600 
3 615 616 600 
3 241 251 232 
3 251 252 232 
3 233 232 252 
3 190 232 233 
3 231 232 189 
3 133 189 232 
3 190 133 232 
3 233 253 242 
3 252 253 233 
3 91 116 117 
3 85 116 91 
3 689 665 702 
3 408 419 413 
3 394 419 408 
3 606 567 613 
3 557 567 606 
3 562 557 606 
3 568 562 606 
3 606 614 568 
3 608 630 609 
3 630 638 609 
3 601 608 609 
3 176 219 186 
3 380 387 388 
3 401 418 407 
3 393 401 407 
3 809 819 813 
3 819 832 813 
3 832 819 842 
3 411 418 401 
3 131 130 180 
3 106 130 131 
3 123 155 130 
3 155 220 130 
3 130 220 180 
3 179 220 155 
3 105 104 122 
3 70 104 105 
3 103 104 86 
3 69 86 104 
3 70 69 104 
3 122 123 105 
3 123 122 155 
3 93 123 130 
3 166 178 155 
3 178 179 155 
3 377 378 361 
3 353 361 378 
3 729 728 744 
3 700 728 729 
3 701 700 729 
3 453 421 466 
3 366 421 453 
3 508 509 494 
3 459 460 451 
3 818 837 825 
3 831 825 837 
3 811 818 825 
3 804 811 825 
3 812 804 825 
3 284 268 292 
3 236 268 284 
3 269 236 284 
3 275 269 284 
3 260 236 269 
3 95 96 79 
3 80 79 96 
3 843 854 844 
3 854 881 844 
3 867 881 854 
3 869 844 881 
3 848 844 869 
3 836 844 848 
3 639 638 642 
3 596 638 639 
3 638 690 642 
3 690 691 642 
3 81 111 82 
3 111 112 82 
3 90 82 112 
3 333 332 355 
3 347 333 355 
3 206 205 218 
3 195 205 206 
3 340 374 341 
3 669 699 683 
3 699 711 683 
3 816 830 817 
3 830 836 817 
3 793 817 806 
3 803 817 793 
3 788 793 806 
3 789 788 806 
3 76 75 108 
3 50 75 76 
3 107 108 75 
3 0 75 1 
3 20 1 75 
3 50 20 75 
3 457 477 449 
3 878 879 862 
3 428 441 418 
3 307 308 294 
3 557 556 567 
3 551 556 557 
3 552 551 557 
3 188 199 132 
3 199 200 132 
3 132 200 189 
3 200 210 189 
3 209 210 200 
3 262 277 270 
3 224 277 262 
3 210 209 224 
3 209 277 224 
3 240 224 262 
3 137 139 147 
3 779 805 798 
3 805 820 798 
3 747 797 740 
3 773 740 797 
3 779 773 797 
3 797 805 779 
3 797 763 809 
3 755 763 797 
3 747 755 797 
3 244 265 226 
3 245 226 265 
3 94 93 130 
3 279 313 286 
3 313 327 286 
3 314 286 327 
3 318 330 299 
3 300 299 330 
3 330 331 300 
3 289 299 300 
3 858 861 833 
3 839 833 861 
3 861 878 839 
3 827 833 839 
3 159 182 169 
3 182 192 169 
3 192 182 213 
3 149 159 169 
3 465 444 489 
3 436 444 431 
3 432 431 444 
3 489 523 465 
3 464 489 444 
3 165 176 147 
3 166 147 176 
3 176 177 166 
3 129 128 147 
3 147 166 129 
3 155 129 166 
3 776 767 785 
3 753 767 776 
3 784 794 767 
3 785 767 794 
3 794 784 807 
3 288 299 289 
3 288 287 298 
3 267 287 288 
3 297 298 287 
3 587 619 591 
3 599 591 619 
3 592 591 599 
3 697 709 698 
3 709 719 698 
3 710 698 719 
3 429 435 430 
3 435 463 430 
3 419 429 430 
3 443 430 463 
3 412 429 419 
3 95 78 109 
3 79 78 95 
3 383 382 396 
3 384 383 396 
3 231 224 240 
3 211 224 231 
3 18 11 28 
3 12 11 18 
3 52 65 37 
3 38 37 65 
3 66 65 84 
3 38 65 66 
3 84 83 114 
3 65 83 84 
3 25 46 40 
3 46 47 40 
3 31 46 25 
3 26 25 40 
3 368 383 356 
3 357 356 383 
3 383 384 357 
3 458 478 459 
3 478 487 459 
3 460 459 487 
3 471 460 487 
3 502 455 507 
3 448 455 502 
3 437 448 502 
3 507 455 555 
3 507 555 533 
3 263 270 310 
3 262 270 250 
3 263 250 270 
3 820 857 798 
3 307 350 308 
3 693 692 707 
3 649 692 693 
3 707 706 732 
3 692 706 707 
3 645 649 693 
3 146 154 138 
3 138 134 146 
3 135 134 138 
3 117 134 135 
3 476 456 485 
3 565 560 570 
3 536 569 560 
3 569 574 560 
3 523 536 560 
3 569 577 574 
3 577 581 574 
3 570 560 574 
3 411 427 439 
3 29 54 22 
3 5 22 23 
3 6 5 23 
3 543 549 561 
3 652 683 728 
3 640 652 728 
3 700 640 728 
3 669 683 652 
3 857 876 858 
3 876 877 858 
3 861 858 877 
3 780 857 858 
3 780 858 833 
3 780 798 857 
3 547 569 536 
3 675 665 689 
3 655 665 675 
3 254 279 273 
3 279 280 273 
3 245 279 254 
3 279 296 312 
3 279 245 296 
3 265 296 245 
3 686 687 660 
3 670 660 687 
3 654 660 670 
3 661 654 670 
3 631 632 617 
3 340 341 311 
3 197 124 359 
3 108 124 197 
3 323 197 359 
3 107 124 108 
3 109 108 140 
3 76 108 109 
3 77 76 109 
3 461 460 471 
3 744 738 754 
3 728 738 744 
3 738 762 754 
3 762 763 754 
3 32 33 18 
3 19 18 33 
3 625 626 613 
3 620 613 626 
3 626 625 634 
3 763 762 772 
3 356 357 335 
3 348 335 357 
3 205 217 235 
3 322 349 307 
3 349 350 307 
3 535 540 526 
3 529 526 540 
3 540 541 529 
3 877 878 861 
3 101 129 102 
3 103 102 129 
3 121 103 129 
3 100 128 101 
3 128 129 101 
3 316 315 345 
3 281 315 316 
3 345 346 316 
3 328 345 315 
3 287 281 316 
3 256 274 266 
3 274 281 266 
3 266 281 287 
3 255 274 256 
3 367 381 382 
3 538 537 572 
3 572 598 538 
3 585 610 598 
3 572 585 598 
3 182 181 201 
3 168 181 182 
3 167 181 168 
3 182 201 212 
3 212 213 182 
3 153 145 158 
3 746 744 754 
3 754 755 746 
3 720 710 725 
3 698 710 720 
3 724 759 719 
3 725 719 759 
3 710 719 725 
3 708 751 724 
3 751 775 724 
3 759 724 775 
3 789 790 775 
3 759 775 790 
3 196 260 220 
3 260 261 220 
3 236 260 196 
3 179 196 220 
3 317 329 318 
3 329 330 318 
3 298 317 318 
3 288 298 318 
3 299 288 318 
3 475 493 438 
3 417 426 399 
3 400 399 426 
3 426 438 400 
3 400 438 456 
3 434 400 456 
3 647 652 624 
3 640 624 652 
3 699 682 727 
3 233 243 190 
3 201 190 243 
3 282 257 289 
3 258 257 282 
3 733 737 727 
3 623 637 630 
3 637 655 630 
3 629 637 623 
3 663 673 674 
3 664 663 674 
3 628 663 664 
3 637 628 664 
3 629 628 637 
3 607 628 629 
3 173 158 194 
3 154 158 173 
3 89 72 94 
3 73 72 89 
3 94 106 89 
3 56 72 73 
3 55 72 56 
3 869 882 859 
3 868 859 882 
3 411 392 427 
3 851 854 843 
3 756 764 757 
3 764 780 757 
3 765 757 780 
3 749 757 765 
3 167 168 143 
3 159 143 168 
3 148 143 159 
3 43 63 44 
3 63 69 44 
3 69 63 86 
3 304 334 335 
3 599 619 611 
3 619 647 611 
3 605 599 611 
3 593 599 605 
3 641 654 636 
3 654 661 636 
3 83 113 114 
3 101 102 86 
3 102 103 86 
3 92 99 86 
3 99 100 86 
3 100 101 86 
3 365 390 421 
3 363 390 364 
3 365 364 390 
3 860 873 846 
3 856 846 873 
3 49 32 56 
3 33 32 49 
3 56 57 49 
3 28 42 32 
3 42 56 32 
3 42 55 56 
3 58 50 76 
3 354 363 345 
3 328 354 345 
3 362 363 354 
3 729 739 734 
3 739 740 734 
3 713 740 773 
3 770 771 761 
3 770 777 771 
3 777 778 771 
3 726 795 768 
3 786 768 795 
3 795 796 786 
3 733 726 768 
3 737 733 768 
3 760 737 768 
3 747 746 755 
3 781 822 814 
3 822 828 814 
3 774 788 789 
3 775 774 789 
3 602 698 720 
3 579 602 720 
3 114 115 84 
3 87 84 115 
3 466 421 472 
3 853 859 868 
3 397 396 433 
3 339 417 399 
3 309 417 339 
3 36 62 52 
3 62 82 52 
3 81 82 62 
3 74 52 82 
3 783 864 855 
3 864 865 855 
3 860 855 865 
3 865 872 860 
3 837 855 846 
3 855 860 846 
3 837 807 855 
3 818 807 837 
3 807 783 855 
3 611 647 624 
3 173 195 163 
3 218 219 206 
3 176 175 219 
3 526 521 535 
3 795 808 796 
3 808 826 796 
3 838 826 856 
3 796 826 838 
3 812 826 808 
3 148 159 149 
3 169 170 149 
3 160 149 170 
3 354 380 362 
3 344 380 354 
3 145 146 134 
3 463 464 443 
3 791 804 812 
3 808 791 812 
3 283 292 268 
3 852 859 853 
3 97 87 115 
3 635 634 658 
3 658 659 635 
3 653 635 659 
3 648 635 653 
3 606 620 635 
3 614 606 635 
3 522 512 527 
3 702 715 689 
3 690 705 691 
3 705 718 691 
3 706 691 718 
3 672 688 673 
3 688 722 673 
3 258 282 259 
3 282 291 259 
3 290 291 282 
3 756 686 773 
3 203 202 227 
3 529 530 511 
3 512 511 530 
3 529 541 530 
3 541 546 530 
3 527 512 530 
3 530 531 527 
3 504 521 511 
3 488 471 504 
3 504 505 488 
3 496 488 505 
3 449 439 457 
3 440 439 449 
3 658 634 684 
3 36 35 51 
3 3 35 36 
3 37 36 52 
3 4 36 37 
3 4 3 36 
3 320 303 332 
3 121 129 122 
3 129 155 122 
3 104 121 122 
3 305 293 336 
3 305 336 337 
3 321 305 337 
3 658 686 659 
3 660 659 686 
3 653 659 660 
3 680 679 695 
3 668 679 680 
3 695 708 680 
3 696 680 708 
3 89 106 131 
3 807 811 794 
3 804 794 811 
3 810 745 827 
3 731 745 810 
3 765 833 745 
3 827 745 833 
3 821 810 827 
3 717 731 718 
3 731 781 718 
3 730 745 731 
3 781 731 810 
3 758 718 781 
3 141 152 142 
3 93 71 105 
3 70 105 71 
3 105 123 93 
3 595 608 582 
3 748 749 741 
3 777 838 819 
3 838 841 819 
3 841 842 819 
3 786 796 838 
3 777 786 838 
3 778 777 819 
3 204 217 205 
3 234 255 256 
3 508 515 509 
3 515 519 509 
3 509 519 516 
3 851 862 863 
3 854 851 863 
3 863 867 854 
3 828 862 851 
3 829 828 851 
3 2 20 13 
3 428 411 439 
3 439 440 428 
3 418 411 428 
3 532 547 536 
3 563 569 547 
3 523 522 536 
3 522 532 536 
3 576 589 577 
3 581 577 589 
3 491 437 502 
3 275 293 305 
3 276 275 306 
3 260 275 276 
3 305 306 275 
3 269 275 260 
3 284 293 275 
3 58 59 21 
3 34 21 59 
3 540 559 541 
3 554 541 559 
3 546 541 554 
3 118 117 135 
3 91 117 118 
3 88 91 118 
3 85 91 88 
3 98 88 118 
3 261 260 276 
3 539 562 520 
3 825 826 812 
3 558 535 562 
3 557 562 539 
3 402 373 407 
3 393 407 373 
3 750 782 751 
3 774 751 782 
3 782 788 774 
3 494 509 503 
3 509 510 503 
3 510 509 516 
3 641 635 648 
3 614 635 641 
3 35 34 60 
3 3 34 35 
3 597 639 631 
3 639 643 631 
3 643 644 631 
3 597 584 639 
3 584 596 639 
3 617 597 631 
3 610 597 617 
3 881 882 869 
3 63 92 86 
3 68 92 63 
3 59 60 34 
3 92 120 99 
3 414 423 398 
3 415 398 423 
3 406 414 398 
3 505 511 512 
3 504 511 505 
3 349 406 350 
3 398 350 406 
3 372 406 349 
3 162 183 171 
3 183 184 171 
3 774 775 751 
3 230 249 239 
3 249 339 239 
3 229 249 230 
3 228 238 229 
3 238 249 229 
3 797 813 805 
3 813 820 805 
3 832 850 813 
3 820 813 850 
3 809 813 797 
3 242 243 233 
3 394 403 412 
3 394 386 403 
3 126 125 136 
3 119 125 126 
3 643 642 691 
3 639 642 643 
3 691 692 643 
3 528 533 549 
3 543 528 549 
3 525 528 543 
3 424 425 420 
3 846 856 831 
3 826 831 856 
3 96 95 156 
3 96 188 132 
3 156 188 96 
3 110 96 132 
3 80 96 110 
3 81 80 110 
3 39 38 53 
3 4 38 39 
3 53 38 66 
3 29 4 39 
3 5 4 29 
3 246 245 254 
3 437 491 470 
3 475 470 491 
3 491 492 475 
3 492 493 475 
3 90 112 113 
3 327 344 314 
3 328 344 354 
3 328 314 344 
3 694 750 695 
3 708 695 750 
3 677 694 695 
3 676 694 677 
3 678 677 695 
3 707 732 694 
3 732 750 694 
3 479 480 463 
3 46 64 47 
3 64 70 47 
3 47 70 71 
3 705 717 718 
3 579 542 602 
3 513 542 579 
3 748 756 757 
3 780 779 798 
3 764 779 780 
3 686 713 773 
3 764 756 773 
3 773 779 764 
3 111 110 133 
3 81 110 111 
3 133 132 189 
3 110 132 133 
3 490 501 481 
3 498 481 501 
3 501 538 498 
3 799 781 814 
3 814 815 799 
3 791 795 726 
3 379 378 387 
3 267 266 287 
3 493 566 534 
3 550 534 556 
3 613 612 625 
3 567 612 613 
3 401 392 411 
3 822 834 828 
3 834 862 828 
3 821 839 834 
3 839 878 834 
3 862 834 878 
3 827 839 821 
3 125 138 139 
3 136 125 139 
3 135 138 125 
3 185 184 215 
3 193 185 215 
3 178 177 187 
3 166 177 178 
3 186 187 177 
3 681 697 633 
3 697 698 633 
3 602 633 698 
3 491 525 543 
3 502 525 491 
3 493 543 561 
3 492 491 543 
3 493 492 543 
3 561 566 493 
3 587 573 604 
3 604 619 587 
3 566 564 573 
3 469 468 474 
3 446 468 469 
3 474 484 469 
3 17 28 11 
3 164 163 174 
3 164 165 147 
3 156 221 207 
3 221 222 207 
3 222 221 230 
3 188 156 207 
3 140 156 95 
3 78 77 109 
3 59 77 78 
3 109 140 95 
3 60 59 78 
3 41 42 27 
3 28 27 42 
3 466 490 453 
3 106 94 130 
3 505 512 496 
3 490 497 501 
3 578 585 572 
3 802 816 803 
3 816 817 803 
3 221 228 229 
3 440 441 428 
3 621 641 636 
3 621 614 641 
3 24 23 43 
3 43 44 24 
3 30 24 44 
3 14 24 30 
3 837 846 831 
3 575 578 572 
3 585 578 597 
3 499 498 538 
3 499 538 542 
3 513 499 542 
3 474 467 483 
3 468 467 474 
3 483 499 474 
3 484 474 499 
3 41 48 42 
3 48 55 42 
3 153 158 154 
3 146 153 154 
3 765 780 833 
3 518 537 506 
3 682 657 726 
3 651 657 682 
3 721 682 726 
3 618 657 651 
3 726 657 791 
3 776 791 657 
3 721 727 682 
3 619 651 647 
3 727 721 733 
3 785 804 791 
3 490 466 497 
3 197 323 285 
3 708 724 696 
3 709 696 724 
3 697 696 709 
3 750 751 708 
3 595 589 623 
3 581 589 595 
3 623 589 629 
3 608 595 623 
3 623 630 608 
3 355 367 347 
3 613 620 606 
3 453 481 473 
3 481 482 473 
3 482 481 498 
3 144 151 141 
3 151 150 157 
3 144 150 151 
3 83 90 113 
3 788 782 793 
3 761 762 738 
3 352 326 360 
3 334 333 347 
3 648 654 641 
3 835 843 844 
3 562 568 558 
3 754 763 755 
3 772 809 763 
3 809 778 819 
3 772 778 809 
3 850 857 820 
3 74 90 83 
3 768 786 769 
3 777 769 786 
3 736 745 730 
3 685 713 686 
3 658 685 686 
3 76 77 58 
3 830 844 836 
3 835 844 830 
3 14 16 9 
3 7 14 8 
3 9 8 14 
3 16 14 30 
3 598 656 633 
3 656 668 633 
3 667 668 656 
3 4 37 38 
3 190 191 167 
3 181 167 191 
3 510 516 517 
3 243 242 264 
3 479 496 480 
3 488 496 479 
3 48 47 71 
3 55 48 71 
3 71 72 55 
3 41 40 48 
3 40 47 48 
3 704 705 690 
3 240 262 250 
3 692 691 706 
3 719 709 724 
3 650 645 693 
3 644 649 645 
3 648 653 660 
3 654 648 660 
3 165 175 176 
3 349 337 358 
3 321 337 322 
3 337 349 322 
3 2 13 3 
3 13 21 3 
3 3 21 34 
3 752 767 753 
3 753 776 657 
3 92 88 98 
3 68 88 92 
3 98 119 92 
3 119 120 92 
3 589 576 607 
3 241 240 250 
3 231 240 241 
3 232 231 241 
3 211 231 189 
3 676 650 693 
3 152 151 162 
3 141 151 152 
3 508 514 515 
3 386 394 374 
3 433 445 422 
3 561 564 566 
3 507 524 502 
3 524 525 502 
3 524 507 533 
3 758 799 800 
3 781 799 758 
3 732 758 800 
3 792 732 800 
3 585 597 610 
3 681 680 696 
3 385 391 369 
3 178 187 179 
3 187 196 179 
3 816 835 830 
3 801 823 816 
3 823 835 816 
3 802 801 816 
3 800 823 801 
3 624 640 612 
3 712 713 684 
3 685 684 713 
3 1 20 2 
3 302 303 291 
3 550 556 551 
3 872 873 860 
3 867 863 880 
3 880 881 867 
3 104 103 121 
3 447 446 469 
3 173 216 204 
3 216 217 204 
3 195 173 204 
3 619 618 651 
3 604 618 619 
3 583 596 584 
3 590 596 583 
3 506 472 518 
3 466 472 506 
3 497 466 506 
3 170 169 192 
3 453 490 481 
3 252 251 263 
3 662 661 671 
3 661 670 671 
3 810 822 781 
3 368 367 382 
3 829 851 843 
3 444 443 464 
3 143 148 149 
3 841 849 842 
3 849 850 842 
3 31 30 45 
3 16 30 31 
3 787 802 803 
3 204 205 195 
3 65 52 74 
3 68 54 85 
3 68 85 88 
3 749 748 757 
3 734 740 712 
3 713 712 740 
3 750 732 792 
3 787 750 792 
3 684 685 658 
3 62 51 80 
3 36 51 62 
3 80 81 62 
3 454 447 469 
3 469 484 454 
3 61 79 80 
3 51 61 80 
3 297 287 316 
3 792 801 802 
3 787 792 802 
3 742 765 745 
3 649 643 692 
3 580 594 588 
3 840 824 848 
3 436 430 443 
3 462 471 452 
3 582 581 595 
3 574 581 582 
3 527 531 532 
3 215 234 193 
3 202 193 234 
3 598 646 656 
3 251 250 263 
3 271 263 310 
3 252 263 271 
3 295 271 310 
3 191 201 181 
3 301 331 319 
3 46 45 64 
3 31 45 46 
3 464 480 489 
3 464 463 480 
3 540 535 558 
3 145 153 146 
3 379 380 344 
3 814 828 829 
3 815 814 829 
3 558 559 540 
3 782 750 787 
3 644 643 649 
3 632 644 645 
3 631 644 632 
3 221 229 230 
3 832 842 850 
3 312 313 279 
3 22 5 29 
3 795 791 808 
3 60 61 35 
3 78 79 60 
3 61 60 79 
3 742 745 736 
3 785 794 804 
3 811 807 818 
3 527 532 522 
3 58 77 59 
3 359 555 455 
3 693 707 694 
3 607 629 589 
3 723 731 716 
3 717 716 731 
3 394 412 419 
3 264 278 272 
3 332 333 320 
3 646 645 650 
3 125 118 135 
3 28 32 18 
3 445 467 468 
3 446 445 468 
3 835 823 843 
3 310 324 295 
3 18 19 12 
3 23 24 6 
3 7 6 24 
3 14 7 24 
3 66 67 53 
3 776 785 791 
3 870 871 864 
3 865 864 871 
3 792 800 801 
3 396 397 384 
3 385 384 397 
3 391 385 397 
3 221 156 228 
3 822 821 834 
3 810 821 822 
3 852 853 845 
3 441 440 450 
3 440 449 450 
3 570 574 582 
3 82 90 74 
3 30 44 45 
3 782 787 803 
3 793 782 803 
3 51 35 61 
3 760 768 769 
3 499 513 484 
3 66 84 67 
3 84 87 67 
3 210 211 189 
3 721 726 733 
3 524 533 528 
3 841 847 849 
3 752 743 766 
3 752 753 743 
3 443 444 436 
3 253 252 271 
3 663 662 672 
3 672 673 663 
3 767 766 784 
3 752 766 767 
3 762 761 772 
3 569 576 577 
3 740 739 747 
3 772 771 778 
3 761 771 772 
3 716 703 723 
3 704 703 716 
3 355 381 367 
3 668 667 679 
3 678 679 667 
3 191 190 201 
3 871 872 865 
3 177 176 186 
3 882 883 868 
3 247 257 258 
3 825 831 826 
3 838 847 841 
3 551 552 544 
3 111 133 112 
3 679 678 695 
3 74 83 65 
3 681 696 697 
3 211 210 224 
3 118 125 98 
3 119 98 125 
3 247 259 235 
3 360 376 352 
3 352 376 361 
3 376 377 361 
3 409 410 405 
3 27 28 17 
3 676 693 694 
3 212 225 213 
3 168 182 159 
3 676 677 666 
3 705 704 717 
3 704 716 717 
3 57 56 73 
3 358 372 349 
3 222 223 207 
3 368 382 383 
3 136 139 137 
3 222 230 239 
3 223 222 239 
3 671 688 672 
3 662 671 672 
3 486 487 478 
3 198 208 199 
3 188 198 199 
3 667 666 678 
3 656 666 667 
3 666 677 678 
3 723 730 731 
3 714 715 702 
3 241 250 251 
3 379 387 380 
3 870 871 864 
3 769 770 760 
3 769 777 770 
3 592 599 593 
3 544 553 545 
3 552 553 544 
3 552 557 553 
3 524 528 525 
3 461 471 462 
3 458 459 451 
3 321 322 306 
3 305 321 306 
3 301 319 302 
3 297 317 298 
3 375 376 360 
3 314 328 315 
3 279 286 280 
3 290 302 291 
3 301 302 290 
3 258 259 247 
3 164 175 165 
3 174 175 164 
3 171 185 172 
3 184 185 171 
3 126 127 120 
3 119 126 120 
3 126 137 127 
3 136 137 126 
